%TF.GenerationSoftware,KiCad,Pcbnew,(6.0.0)*%
%TF.CreationDate,2022-01-28T18:17:18+09:00*%
%TF.ProjectId,ykts-payload,796b7473-2d70-4617-996c-6f61642e6b69,A3*%
%TF.SameCoordinates,Original*%
%TF.FileFunction,Paste,Bot*%
%TF.FilePolarity,Positive*%
%FSLAX46Y46*%
G04 Gerber Fmt 4.6, Leading zero omitted, Abs format (unit mm)*
G04 Created by KiCad (PCBNEW (6.0.0)) date 2022-01-28 18:17:18*
%MOMM*%
%LPD*%
G01*
G04 APERTURE LIST*
G04 Aperture macros list*
%AMRoundRect*
0 Rectangle with rounded corners*
0 $1 Rounding radius*
0 $2 $3 $4 $5 $6 $7 $8 $9 X,Y pos of 4 corners*
0 Add a 4 corners polygon primitive as box body*
4,1,4,$2,$3,$4,$5,$6,$7,$8,$9,$2,$3,0*
0 Add four circle primitives for the rounded corners*
1,1,$1+$1,$2,$3*
1,1,$1+$1,$4,$5*
1,1,$1+$1,$6,$7*
1,1,$1+$1,$8,$9*
0 Add four rect primitives between the rounded corners*
20,1,$1+$1,$2,$3,$4,$5,0*
20,1,$1+$1,$4,$5,$6,$7,0*
20,1,$1+$1,$6,$7,$8,$9,0*
20,1,$1+$1,$8,$9,$2,$3,0*%
%AMFreePoly0*
4,1,9,3.862500,-0.866500,0.737500,-0.866500,0.737500,-0.450000,-0.737500,-0.450000,-0.737500,0.450000,0.737500,0.450000,0.737500,0.866500,3.862500,0.866500,3.862500,-0.866500,3.862500,-0.866500,$1*%
G04 Aperture macros list end*
%ADD10RoundRect,0.135000X0.185000X-0.135000X0.185000X0.135000X-0.185000X0.135000X-0.185000X-0.135000X0*%
%ADD11RoundRect,0.140000X0.140000X0.170000X-0.140000X0.170000X-0.140000X-0.170000X0.140000X-0.170000X0*%
%ADD12RoundRect,0.025500X0.354500X-0.229500X0.354500X0.229500X-0.354500X0.229500X-0.354500X-0.229500X0*%
%ADD13RoundRect,0.100000X-0.100000X0.637500X-0.100000X-0.637500X0.100000X-0.637500X0.100000X0.637500X0*%
%ADD14RoundRect,0.140000X-0.140000X-0.170000X0.140000X-0.170000X0.140000X0.170000X-0.140000X0.170000X0*%
%ADD15R,1.200000X1.400000*%
%ADD16R,1.700000X1.700000*%
%ADD17RoundRect,0.135000X0.135000X0.185000X-0.135000X0.185000X-0.135000X-0.185000X0.135000X-0.185000X0*%
%ADD18RoundRect,0.135000X-0.185000X0.135000X-0.185000X-0.135000X0.185000X-0.135000X0.185000X0.135000X0*%
%ADD19RoundRect,0.100000X0.637500X0.100000X-0.637500X0.100000X-0.637500X-0.100000X0.637500X-0.100000X0*%
%ADD20RoundRect,0.140000X-0.170000X0.140000X-0.170000X-0.140000X0.170000X-0.140000X0.170000X0.140000X0*%
%ADD21RoundRect,0.250000X-0.700000X0.275000X-0.700000X-0.275000X0.700000X-0.275000X0.700000X0.275000X0*%
%ADD22R,0.550000X1.500000*%
%ADD23R,1.500000X0.550000*%
%ADD24RoundRect,0.225000X-0.225000X-0.250000X0.225000X-0.250000X0.225000X0.250000X-0.225000X0.250000X0*%
%ADD25RoundRect,0.135000X-0.135000X-0.185000X0.135000X-0.185000X0.135000X0.185000X-0.135000X0.185000X0*%
%ADD26RoundRect,0.225000X-0.250000X0.225000X-0.250000X-0.225000X0.250000X-0.225000X0.250000X0.225000X0*%
%ADD27RoundRect,0.147500X-0.147500X-0.172500X0.147500X-0.172500X0.147500X0.172500X-0.147500X0.172500X0*%
%ADD28R,0.900000X1.300000*%
%ADD29FreePoly0,90.000000*%
%ADD30RoundRect,0.150000X0.150000X-0.725000X0.150000X0.725000X-0.150000X0.725000X-0.150000X-0.725000X0*%
%ADD31RoundRect,0.225000X0.225000X0.250000X-0.225000X0.250000X-0.225000X-0.250000X0.225000X-0.250000X0*%
%ADD32RoundRect,0.150000X0.150000X-0.825000X0.150000X0.825000X-0.150000X0.825000X-0.150000X-0.825000X0*%
%ADD33RoundRect,0.140000X0.170000X-0.140000X0.170000X0.140000X-0.170000X0.140000X-0.170000X-0.140000X0*%
%ADD34RoundRect,0.250000X-0.475000X0.250000X-0.475000X-0.250000X0.475000X-0.250000X0.475000X0.250000X0*%
%ADD35RoundRect,0.225000X0.250000X-0.225000X0.250000X0.225000X-0.250000X0.225000X-0.250000X-0.225000X0*%
%ADD36R,0.740000X2.400000*%
G04 APERTURE END LIST*
D10*
%TO.C,R39*%
X121437400Y-140083000D03*
X121437400Y-139063000D03*
%TD*%
D11*
%TO.C,CH4*%
X163294000Y-101671000D03*
X162334000Y-101671000D03*
%TD*%
D12*
%TO.C,FL2*%
X166260000Y-102360000D03*
X164590000Y-102360000D03*
X164590000Y-101490000D03*
X166260000Y-101490000D03*
%TD*%
D13*
%TO.C,U16*%
X126985600Y-102293500D03*
X127635600Y-102293500D03*
X128285600Y-102293500D03*
X128935600Y-102293500D03*
X129585600Y-102293500D03*
X130235600Y-102293500D03*
X130885600Y-102293500D03*
X131535600Y-102293500D03*
X131535600Y-108018500D03*
X130885600Y-108018500D03*
X130235600Y-108018500D03*
X129585600Y-108018500D03*
X128935600Y-108018500D03*
X128285600Y-108018500D03*
X127635600Y-108018500D03*
X126985600Y-108018500D03*
%TD*%
D10*
%TO.C,R25*%
X158369000Y-120652000D03*
X158369000Y-119632000D03*
%TD*%
D14*
%TO.C,C26*%
X164112000Y-124587000D03*
X165072000Y-124587000D03*
%TD*%
D15*
%TO.C,Y3*%
X126580000Y-132885000D03*
X126580000Y-135085000D03*
X124880000Y-135085000D03*
X124880000Y-132885000D03*
%TD*%
D10*
%TO.C,R46*%
X161798000Y-122938000D03*
X161798000Y-121918000D03*
%TD*%
%TO.C,R31*%
X129540000Y-136781000D03*
X129540000Y-135761000D03*
%TD*%
D16*
%TO.C,N12*%
X137033000Y-95402400D03*
X137033000Y-97942400D03*
X137033000Y-100482400D03*
X137033000Y-103022400D03*
X154813000Y-95402400D03*
X154813000Y-97942400D03*
X154813000Y-100482400D03*
X154813000Y-103022400D03*
%TD*%
D17*
%TO.C,R38*%
X117947900Y-140143500D03*
X116927900Y-140143500D03*
%TD*%
D18*
%TO.C,R42*%
X120294400Y-139063000D03*
X120294400Y-140083000D03*
%TD*%
D19*
%TO.C,U15*%
X130751500Y-114615800D03*
X130751500Y-115265800D03*
X130751500Y-115915800D03*
X130751500Y-116565800D03*
X130751500Y-117215800D03*
X130751500Y-117865800D03*
X130751500Y-118515800D03*
X130751500Y-119165800D03*
X125026500Y-119165800D03*
X125026500Y-118515800D03*
X125026500Y-117865800D03*
X125026500Y-117215800D03*
X125026500Y-116565800D03*
X125026500Y-115915800D03*
X125026500Y-115265800D03*
X125026500Y-114615800D03*
%TD*%
D20*
%TO.C,C18*%
X128397000Y-135791000D03*
X128397000Y-136751000D03*
%TD*%
%TO.C,C29*%
X155575000Y-133505000D03*
X155575000Y-134465000D03*
%TD*%
D21*
%TO.C,L2*%
X149606000Y-135966000D03*
X149606000Y-139116000D03*
%TD*%
D17*
%TO.C,R37*%
X117945900Y-142620000D03*
X116925900Y-142620000D03*
%TD*%
D14*
%TO.C,CH3*%
X166342000Y-103576000D03*
X167302000Y-103576000D03*
%TD*%
D16*
%TO.C,N13*%
X118364000Y-88011000D03*
X120904000Y-88011000D03*
X123444000Y-88011000D03*
X125984000Y-88011000D03*
X118364000Y-70231000D03*
X120904000Y-70231000D03*
X123444000Y-70231000D03*
X125984000Y-70231000D03*
%TD*%
D18*
%TO.C,R36*%
X129921000Y-141349000D03*
X129921000Y-142369000D03*
%TD*%
D16*
%TO.C,N10*%
X109550200Y-124917200D03*
X107010200Y-124917200D03*
X104470200Y-124917200D03*
X101930200Y-124917200D03*
X109550200Y-142697200D03*
X107010200Y-142697200D03*
X104470200Y-142697200D03*
X101930200Y-142697200D03*
%TD*%
D17*
%TO.C,R48*%
X157736000Y-133604000D03*
X156716000Y-133604000D03*
%TD*%
D11*
%TO.C,C25*%
X165072000Y-119253000D03*
X164112000Y-119253000D03*
%TD*%
D22*
%TO.C,U9*%
X145319000Y-140796000D03*
X144519000Y-140796000D03*
X143719000Y-140796000D03*
X142919000Y-140796000D03*
X142119000Y-140796000D03*
X141319000Y-140796000D03*
X140519000Y-140796000D03*
X139719000Y-140796000D03*
X138919000Y-140796000D03*
X138119000Y-140796000D03*
X137319000Y-140796000D03*
X136519000Y-140796000D03*
X135719000Y-140796000D03*
X134919000Y-140796000D03*
X134119000Y-140796000D03*
X133319000Y-140796000D03*
D23*
X131619000Y-139096000D03*
X131619000Y-138296000D03*
X131619000Y-137496000D03*
X131619000Y-136696000D03*
X131619000Y-135896000D03*
X131619000Y-135096000D03*
X131619000Y-134296000D03*
X131619000Y-133496000D03*
X131619000Y-132696000D03*
X131619000Y-131896000D03*
X131619000Y-131096000D03*
X131619000Y-130296000D03*
X131619000Y-129496000D03*
X131619000Y-128696000D03*
X131619000Y-127896000D03*
X131619000Y-127096000D03*
D22*
X133319000Y-125396000D03*
X134119000Y-125396000D03*
X134919000Y-125396000D03*
X135719000Y-125396000D03*
X136519000Y-125396000D03*
X137319000Y-125396000D03*
X138119000Y-125396000D03*
X138919000Y-125396000D03*
X139719000Y-125396000D03*
X140519000Y-125396000D03*
X141319000Y-125396000D03*
X142119000Y-125396000D03*
X142919000Y-125396000D03*
X143719000Y-125396000D03*
X144519000Y-125396000D03*
X145319000Y-125396000D03*
D23*
X147019000Y-127096000D03*
X147019000Y-127896000D03*
X147019000Y-128696000D03*
X147019000Y-129496000D03*
X147019000Y-130296000D03*
X147019000Y-131096000D03*
X147019000Y-131896000D03*
X147019000Y-132696000D03*
X147019000Y-133496000D03*
X147019000Y-134296000D03*
X147019000Y-135096000D03*
X147019000Y-135896000D03*
X147019000Y-136696000D03*
X147019000Y-137496000D03*
X147019000Y-138296000D03*
X147019000Y-139096000D03*
%TD*%
D24*
%TO.C,C23*%
X119367000Y-130048000D03*
X120917000Y-130048000D03*
%TD*%
D25*
%TO.C,R47*%
X156716000Y-132461000D03*
X157736000Y-132461000D03*
%TD*%
D26*
%TO.C,C24*%
X179070000Y-138925000D03*
X179070000Y-140475000D03*
%TD*%
D10*
%TO.C,R35*%
X95250000Y-103253000D03*
X95250000Y-102233000D03*
%TD*%
D18*
%TO.C,R32*%
X128651000Y-132967000D03*
X128651000Y-133987000D03*
%TD*%
D13*
%TO.C,U13*%
X155317000Y-124518500D03*
X155967000Y-124518500D03*
X156617000Y-124518500D03*
X157267000Y-124518500D03*
X157917000Y-124518500D03*
X158567000Y-124518500D03*
X159217000Y-124518500D03*
X159867000Y-124518500D03*
X160517000Y-124518500D03*
X161167000Y-124518500D03*
X161167000Y-130243500D03*
X160517000Y-130243500D03*
X159867000Y-130243500D03*
X159217000Y-130243500D03*
X158567000Y-130243500D03*
X157917000Y-130243500D03*
X157267000Y-130243500D03*
X156617000Y-130243500D03*
X155967000Y-130243500D03*
X155317000Y-130243500D03*
%TD*%
D27*
%TO.C,D6*%
X131595000Y-142367000D03*
X132565000Y-142367000D03*
%TD*%
D16*
%TO.C,N9*%
X117678200Y-101346000D03*
X117678200Y-98806000D03*
X117678200Y-96266000D03*
X117678200Y-93726000D03*
X99898200Y-101346000D03*
X99898200Y-98806000D03*
X99898200Y-96266000D03*
X99898200Y-93726000D03*
%TD*%
D18*
%TO.C,R43*%
X159639000Y-119632000D03*
X159639000Y-120652000D03*
%TD*%
D11*
%TO.C,CL3*%
X165270000Y-103576000D03*
X164310000Y-103576000D03*
%TD*%
D14*
%TO.C,CL4*%
X167541000Y-101544000D03*
X168501000Y-101544000D03*
%TD*%
D28*
%TO.C,U10*%
X120397400Y-128142000D03*
D29*
X118897400Y-128054500D03*
D28*
X117397400Y-128142000D03*
%TD*%
D30*
%TO.C,U11*%
X120294400Y-137230000D03*
X119024400Y-137230000D03*
X117754400Y-137230000D03*
X116484400Y-137230000D03*
X116484400Y-132080000D03*
X117754400Y-132080000D03*
X119024400Y-132080000D03*
X120294400Y-132080000D03*
%TD*%
D14*
%TO.C,C17*%
X125250000Y-136779000D03*
X126210000Y-136779000D03*
%TD*%
D25*
%TO.C,R41*%
X116927900Y-139000500D03*
X117947900Y-139000500D03*
%TD*%
D16*
%TO.C,N11*%
X136982200Y-110540800D03*
X136982200Y-113080800D03*
X136982200Y-115620800D03*
X136982200Y-118160800D03*
X154762200Y-110540800D03*
X154762200Y-113080800D03*
X154762200Y-115620800D03*
X154762200Y-118160800D03*
%TD*%
D31*
%TO.C,C22*%
X117450900Y-129983500D03*
X115900900Y-129983500D03*
%TD*%
D16*
%TO.C,N14*%
X150876000Y-86995000D03*
X153416000Y-86995000D03*
X155956000Y-86995000D03*
X158496000Y-86995000D03*
X150876000Y-69215000D03*
X153416000Y-69215000D03*
X155956000Y-69215000D03*
X158496000Y-69215000D03*
%TD*%
D20*
%TO.C,C30*%
X165298000Y-112494000D03*
X165298000Y-113454000D03*
%TD*%
D14*
%TO.C,C20*%
X149126000Y-140589000D03*
X150086000Y-140589000D03*
%TD*%
D10*
%TO.C,R49*%
X132969000Y-119128000D03*
X132969000Y-118108000D03*
%TD*%
D16*
%TO.C,N15*%
X117627400Y-116230400D03*
X117627400Y-113690400D03*
X117627400Y-111150400D03*
X117627400Y-108610400D03*
X99847400Y-116230400D03*
X99847400Y-113690400D03*
X99847400Y-111150400D03*
X99847400Y-108610400D03*
%TD*%
D32*
%TO.C,U14*%
X167838000Y-110623000D03*
X166568000Y-110623000D03*
X165298000Y-110623000D03*
X164028000Y-110623000D03*
X164028000Y-105673000D03*
X165298000Y-105673000D03*
X166568000Y-105673000D03*
X167838000Y-105673000D03*
%TD*%
D33*
%TO.C,C27*%
X154051000Y-130175000D03*
X154051000Y-129215000D03*
%TD*%
D15*
%TO.C,Y4*%
X163742000Y-123020000D03*
X163742000Y-120820000D03*
X165442000Y-120820000D03*
X165442000Y-123020000D03*
%TD*%
D18*
%TO.C,R34*%
X96774000Y-98296000D03*
X96774000Y-99316000D03*
%TD*%
D17*
%TO.C,R33*%
X129923000Y-138303000D03*
X128903000Y-138303000D03*
%TD*%
D26*
%TO.C,C28*%
X161742000Y-107453000D03*
X161742000Y-109003000D03*
%TD*%
D18*
%TO.C,R50*%
X132842000Y-103249000D03*
X132842000Y-104269000D03*
%TD*%
D11*
%TO.C,C16*%
X126210000Y-131191000D03*
X125250000Y-131191000D03*
%TD*%
D20*
%TO.C,C19*%
X148717000Y-129568000D03*
X148717000Y-130528000D03*
%TD*%
D34*
%TO.C,C21*%
X150495000Y-129987000D03*
X150495000Y-131887000D03*
%TD*%
D35*
%TO.C,C31*%
X179070000Y-70625000D03*
X179070000Y-69075000D03*
%TD*%
D25*
%TO.C,R40*%
X116925900Y-141477000D03*
X117945900Y-141477000D03*
%TD*%
D16*
%TO.C,N16*%
X134874000Y-86614000D03*
X137414000Y-86614000D03*
X139954000Y-86614000D03*
X142494000Y-86614000D03*
X134874000Y-68834000D03*
X137414000Y-68834000D03*
X139954000Y-68834000D03*
X142494000Y-68834000D03*
%TD*%
D36*
%TO.C,J8*%
X165227000Y-131527000D03*
X165227000Y-135427000D03*
X166497000Y-131527000D03*
X166497000Y-135427000D03*
X167767000Y-131527000D03*
X167767000Y-135427000D03*
%TD*%
M02*
