%TF.GenerationSoftware,KiCad,Pcbnew,(6.0.0)*%
%TF.CreationDate,2022-01-29T18:53:07+09:00*%
%TF.ProjectId,ykts-payload,796b7473-2d70-4617-996c-6f61642e6b69,A4*%
%TF.SameCoordinates,Original*%
%TF.FileFunction,Profile,NP*%
%FSLAX46Y46*%
G04 Gerber Fmt 4.6, Leading zero omitted, Abs format (unit mm)*
G04 Created by KiCad (PCBNEW (6.0.0)) date 2022-01-29 18:53:07*
%MOMM*%
%LPD*%
G01*
G04 APERTURE LIST*
%TA.AperFunction,Profile*%
%ADD10C,0.050000*%
%TD*%
G04 APERTURE END LIST*
D10*
X88900000Y-80645000D02*
X88901587Y-67436960D01*
X184785000Y-68580000D02*
X184785000Y-64770000D01*
X179705000Y-149860000D02*
G75*
G03*
X184785000Y-144780000I-2J5080002D01*
G01*
X92075000Y-83185000D02*
X88900000Y-80645000D01*
X169545000Y-59690000D02*
X179705000Y-59690000D01*
X92075000Y-126365000D02*
X92075000Y-83185000D01*
X88900000Y-140970000D02*
G75*
G03*
X93980000Y-146050000I5080002J2D01*
G01*
X169545000Y-59690000D02*
X166116000Y-62230000D01*
X184785000Y-64770000D02*
G75*
G03*
X179705000Y-59690000I-5080002J-2D01*
G01*
X88900000Y-128905000D02*
X92075000Y-126365000D01*
X166116000Y-62230000D02*
X93980000Y-62230000D01*
X88900000Y-140970000D02*
X88900000Y-128905000D01*
X179705000Y-149860000D02*
X169545000Y-149860000D01*
X164465000Y-146050000D02*
X93980000Y-146050000D01*
X169545000Y-149860000D02*
X164465000Y-146050000D01*
X180975000Y-72390000D02*
X180975000Y-137160000D01*
X180975000Y-137160000D02*
X184785000Y-140970000D01*
X180975000Y-72390000D02*
X184785000Y-68580000D01*
X184785000Y-140970000D02*
X184785000Y-144780000D01*
X93980000Y-62230000D02*
G75*
G03*
X88901587Y-67436960I1J-5080001D01*
G01*
M02*
