%TF.GenerationSoftware,KiCad,Pcbnew,(6.0.0)*%
%TF.CreationDate,2022-01-29T18:53:07+09:00*%
%TF.ProjectId,ykts-payload,796b7473-2d70-4617-996c-6f61642e6b69,A4*%
%TF.SameCoordinates,Original*%
%TF.FileFunction,Legend,Top*%
%TF.FilePolarity,Positive*%
%FSLAX46Y46*%
G04 Gerber Fmt 4.6, Leading zero omitted, Abs format (unit mm)*
G04 Created by KiCad (PCBNEW (6.0.0)) date 2022-01-29 18:53:07*
%MOMM*%
%LPD*%
G01*
G04 APERTURE LIST*
%ADD10C,0.120000*%
%ADD11C,0.150000*%
%ADD12C,0.100000*%
G04 APERTURE END LIST*
D10*
X121158000Y-71247000D02*
X120777000Y-70866000D01*
X121158000Y-70485000D02*
X121158000Y-71247000D01*
X120777000Y-70866000D02*
X121158000Y-70485000D01*
X155575000Y-88392000D02*
X167894000Y-88392000D01*
X134112000Y-113919000D02*
X121793000Y-113919000D01*
X155575000Y-106172000D02*
X155575000Y-88392000D01*
X163068000Y-134366000D02*
X169926000Y-134366000D01*
X165227000Y-87884000D02*
X154813000Y-87884000D01*
X167894000Y-107315000D02*
X156718000Y-107315000D01*
X121793000Y-113919000D02*
X121793000Y-93726000D01*
X169926000Y-134366000D02*
X169926000Y-107315000D01*
X132461000Y-112522000D02*
X132461000Y-113284000D01*
X156718000Y-107315000D02*
X156718000Y-117221000D01*
X129286000Y-101854000D02*
X128905000Y-102235000D01*
X98044000Y-65659000D02*
X106807000Y-65659000D01*
X106807000Y-65659000D02*
X106807000Y-74422000D01*
X106807000Y-74422000D02*
X98044000Y-74422000D01*
X98044000Y-74422000D02*
X98044000Y-65659000D01*
X150241000Y-87884000D02*
X111379000Y-87884000D01*
X108966000Y-85471000D02*
X108966000Y-67056000D01*
X152654000Y-78994000D02*
X152654000Y-79756000D01*
X143510000Y-67945000D02*
X143891000Y-67564000D01*
X165481000Y-91948000D02*
X165862000Y-91567000D01*
X129667000Y-102235000D02*
X129286000Y-101854000D01*
X163068000Y-123571000D02*
X163068000Y-134366000D01*
X169926000Y-107315000D02*
X167894000Y-107315000D01*
X132461000Y-113284000D02*
X132080000Y-112903000D01*
X128905000Y-102235000D02*
X129667000Y-102235000D01*
X143891000Y-67564000D02*
X143129000Y-67564000D01*
X168529000Y-67056000D02*
X168529000Y-85471000D01*
X143129000Y-67564000D02*
X143510000Y-67945000D01*
X111379000Y-64643000D02*
X165481000Y-64643000D01*
X165862000Y-92329000D02*
X165481000Y-91948000D01*
X153035000Y-79375000D02*
X152654000Y-78994000D01*
X134112000Y-93726000D02*
X134112000Y-113919000D01*
X121920000Y-93726000D02*
X134112000Y-93726000D01*
X167894000Y-88392000D02*
X167894000Y-106172000D01*
X152654000Y-79756000D02*
X153035000Y-79375000D01*
X156718000Y-117221000D02*
X163068000Y-123571000D01*
X121793000Y-93726000D02*
X121920000Y-93726000D01*
X132080000Y-112903000D02*
X132461000Y-112522000D01*
X165862000Y-91567000D02*
X165862000Y-92329000D01*
X167894000Y-106172000D02*
X155575000Y-106172000D01*
D11*
X98157309Y-75142380D02*
X98157309Y-75856666D01*
X98109690Y-75999523D01*
X98014452Y-76094761D01*
X97871595Y-76142380D01*
X97776357Y-76142380D01*
X98681119Y-76142380D02*
X98871595Y-76142380D01*
X98966833Y-76094761D01*
X99014452Y-76047142D01*
X99109690Y-75904285D01*
X99157309Y-75713809D01*
X99157309Y-75332857D01*
X99109690Y-75237619D01*
X99062071Y-75190000D01*
X98966833Y-75142380D01*
X98776357Y-75142380D01*
X98681119Y-75190000D01*
X98633500Y-75237619D01*
X98585880Y-75332857D01*
X98585880Y-75570952D01*
X98633500Y-75666190D01*
X98681119Y-75713809D01*
X98776357Y-75761428D01*
X98966833Y-75761428D01*
X99062071Y-75713809D01*
X99109690Y-75666190D01*
X99157309Y-75570952D01*
X97823976Y-77704761D02*
X97966833Y-77752380D01*
X98204928Y-77752380D01*
X98300166Y-77704761D01*
X98347785Y-77657142D01*
X98395404Y-77561904D01*
X98395404Y-77466666D01*
X98347785Y-77371428D01*
X98300166Y-77323809D01*
X98204928Y-77276190D01*
X98014452Y-77228571D01*
X97919214Y-77180952D01*
X97871595Y-77133333D01*
X97823976Y-77038095D01*
X97823976Y-76942857D01*
X97871595Y-76847619D01*
X97919214Y-76800000D01*
X98014452Y-76752380D01*
X98252547Y-76752380D01*
X98395404Y-76800000D01*
X99347785Y-77752380D02*
X98776357Y-77752380D01*
X99062071Y-77752380D02*
X99062071Y-76752380D01*
X98966833Y-76895238D01*
X98871595Y-76990476D01*
X98776357Y-77038095D01*
X99538261Y-77847619D02*
X100300166Y-77847619D01*
X101109690Y-77752380D02*
X100776357Y-77276190D01*
X100538261Y-77752380D02*
X100538261Y-76752380D01*
X100919214Y-76752380D01*
X101014452Y-76800000D01*
X101062071Y-76847619D01*
X101109690Y-76942857D01*
X101109690Y-77085714D01*
X101062071Y-77180952D01*
X101014452Y-77228571D01*
X100919214Y-77276190D01*
X100538261Y-77276190D01*
X101443023Y-76752380D02*
X102109690Y-77752380D01*
X102109690Y-76752380D02*
X101443023Y-77752380D01*
X98395404Y-78410000D02*
X98300166Y-78362380D01*
X98157309Y-78362380D01*
X98014452Y-78410000D01*
X97919214Y-78505238D01*
X97871595Y-78600476D01*
X97823976Y-78790952D01*
X97823976Y-78933809D01*
X97871595Y-79124285D01*
X97919214Y-79219523D01*
X98014452Y-79314761D01*
X98157309Y-79362380D01*
X98252547Y-79362380D01*
X98395404Y-79314761D01*
X98443023Y-79267142D01*
X98443023Y-78933809D01*
X98252547Y-78933809D01*
X98871595Y-79362380D02*
X98871595Y-78362380D01*
X99443023Y-79362380D01*
X99443023Y-78362380D01*
X99919214Y-79362380D02*
X99919214Y-78362380D01*
X100157309Y-78362380D01*
X100300166Y-78410000D01*
X100395404Y-78505238D01*
X100443023Y-78600476D01*
X100490642Y-78790952D01*
X100490642Y-78933809D01*
X100443023Y-79124285D01*
X100395404Y-79219523D01*
X100300166Y-79314761D01*
X100157309Y-79362380D01*
X99919214Y-79362380D01*
X97823976Y-80924761D02*
X97966833Y-80972380D01*
X98204928Y-80972380D01*
X98300166Y-80924761D01*
X98347785Y-80877142D01*
X98395404Y-80781904D01*
X98395404Y-80686666D01*
X98347785Y-80591428D01*
X98300166Y-80543809D01*
X98204928Y-80496190D01*
X98014452Y-80448571D01*
X97919214Y-80400952D01*
X97871595Y-80353333D01*
X97823976Y-80258095D01*
X97823976Y-80162857D01*
X97871595Y-80067619D01*
X97919214Y-80020000D01*
X98014452Y-79972380D01*
X98252547Y-79972380D01*
X98395404Y-80020000D01*
X99347785Y-80972380D02*
X98776357Y-80972380D01*
X99062071Y-80972380D02*
X99062071Y-79972380D01*
X98966833Y-80115238D01*
X98871595Y-80210476D01*
X98776357Y-80258095D01*
X99538261Y-81067619D02*
X100300166Y-81067619D01*
X100395404Y-79972380D02*
X100966833Y-79972380D01*
X100681119Y-80972380D02*
X100681119Y-79972380D01*
X101204928Y-79972380D02*
X101871595Y-80972380D01*
X101871595Y-79972380D02*
X101204928Y-80972380D01*
X169267142Y-96726000D02*
X169314761Y-96773619D01*
X169362380Y-96916476D01*
X169362380Y-97011714D01*
X169314761Y-97154571D01*
X169219523Y-97249809D01*
X169124285Y-97297428D01*
X168933809Y-97345047D01*
X168790952Y-97345047D01*
X168600476Y-97297428D01*
X168505238Y-97249809D01*
X168410000Y-97154571D01*
X168362380Y-97011714D01*
X168362380Y-96916476D01*
X168410000Y-96773619D01*
X168457619Y-96726000D01*
X169076666Y-96345047D02*
X169076666Y-95868857D01*
X169362380Y-96440285D02*
X168362380Y-96106952D01*
X169362380Y-95773619D01*
X169362380Y-95440285D02*
X168362380Y-95440285D01*
X169362380Y-94868857D01*
X168362380Y-94868857D01*
X168838571Y-94059333D02*
X168886190Y-93916476D01*
X168933809Y-93868857D01*
X169029047Y-93821238D01*
X169171904Y-93821238D01*
X169267142Y-93868857D01*
X169314761Y-93916476D01*
X169362380Y-94011714D01*
X169362380Y-94392666D01*
X168362380Y-94392666D01*
X168362380Y-94059333D01*
X168410000Y-93964095D01*
X168457619Y-93916476D01*
X168552857Y-93868857D01*
X168648095Y-93868857D01*
X168743333Y-93916476D01*
X168790952Y-93964095D01*
X168838571Y-94059333D01*
X168838571Y-94392666D01*
X168362380Y-93392666D02*
X169171904Y-93392666D01*
X169267142Y-93345047D01*
X169314761Y-93297428D01*
X169362380Y-93202190D01*
X169362380Y-93011714D01*
X169314761Y-92916476D01*
X169267142Y-92868857D01*
X169171904Y-92821238D01*
X168362380Y-92821238D01*
X169314761Y-92392666D02*
X169362380Y-92249809D01*
X169362380Y-92011714D01*
X169314761Y-91916476D01*
X169267142Y-91868857D01*
X169171904Y-91821238D01*
X169076666Y-91821238D01*
X168981428Y-91868857D01*
X168933809Y-91916476D01*
X168886190Y-92011714D01*
X168838571Y-92202190D01*
X168790952Y-92297428D01*
X168743333Y-92345047D01*
X168648095Y-92392666D01*
X168552857Y-92392666D01*
X168457619Y-92345047D01*
X168410000Y-92297428D01*
X168362380Y-92202190D01*
X168362380Y-91964095D01*
X168410000Y-91821238D01*
X168362380Y-90440285D02*
X168362380Y-90345047D01*
X168410000Y-90249809D01*
X168457619Y-90202190D01*
X168552857Y-90154571D01*
X168743333Y-90106952D01*
X168981428Y-90106952D01*
X169171904Y-90154571D01*
X169267142Y-90202190D01*
X169314761Y-90249809D01*
X169362380Y-90345047D01*
X169362380Y-90440285D01*
X169314761Y-90535523D01*
X169267142Y-90583142D01*
X169171904Y-90630761D01*
X168981428Y-90678380D01*
X168743333Y-90678380D01*
X168552857Y-90630761D01*
X168457619Y-90583142D01*
X168410000Y-90535523D01*
X168362380Y-90440285D01*
X102369952Y-70651619D02*
X102274714Y-70604000D01*
X102179476Y-70508761D01*
X102036619Y-70365904D01*
X101941380Y-70318285D01*
X101846142Y-70318285D01*
X101893761Y-70556380D02*
X101798523Y-70508761D01*
X101703285Y-70413523D01*
X101655666Y-70223047D01*
X101655666Y-69889714D01*
X101703285Y-69699238D01*
X101798523Y-69604000D01*
X101893761Y-69556380D01*
X102084238Y-69556380D01*
X102179476Y-69604000D01*
X102274714Y-69699238D01*
X102322333Y-69889714D01*
X102322333Y-70223047D01*
X102274714Y-70413523D01*
X102179476Y-70508761D01*
X102084238Y-70556380D01*
X101893761Y-70556380D01*
X103322333Y-70461142D02*
X103274714Y-70508761D01*
X103131857Y-70556380D01*
X103036619Y-70556380D01*
X102893761Y-70508761D01*
X102798523Y-70413523D01*
X102750904Y-70318285D01*
X102703285Y-70127809D01*
X102703285Y-69984952D01*
X102750904Y-69794476D01*
X102798523Y-69699238D01*
X102893761Y-69604000D01*
X103036619Y-69556380D01*
X103131857Y-69556380D01*
X103274714Y-69604000D01*
X103322333Y-69651619D01*
X137542047Y-120880190D02*
X137542047Y-121356380D01*
X137208714Y-120356380D02*
X137542047Y-120880190D01*
X137875380Y-120356380D01*
X138208714Y-121356380D02*
X138208714Y-120356380D01*
X138780142Y-121356380D02*
X138351571Y-120784952D01*
X138780142Y-120356380D02*
X138208714Y-120927809D01*
X139065857Y-120356380D02*
X139637285Y-120356380D01*
X139351571Y-121356380D02*
X139351571Y-120356380D01*
X139923000Y-121308761D02*
X140065857Y-121356380D01*
X140303952Y-121356380D01*
X140399190Y-121308761D01*
X140446809Y-121261142D01*
X140494428Y-121165904D01*
X140494428Y-121070666D01*
X140446809Y-120975428D01*
X140399190Y-120927809D01*
X140303952Y-120880190D01*
X140113476Y-120832571D01*
X140018238Y-120784952D01*
X139970619Y-120737333D01*
X139923000Y-120642095D01*
X139923000Y-120546857D01*
X139970619Y-120451619D01*
X140018238Y-120404000D01*
X140113476Y-120356380D01*
X140351571Y-120356380D01*
X140494428Y-120404000D01*
X140923000Y-120975428D02*
X141684904Y-120975428D01*
X142161095Y-121356380D02*
X142161095Y-120356380D01*
X142542047Y-120356380D01*
X142637285Y-120404000D01*
X142684904Y-120451619D01*
X142732523Y-120546857D01*
X142732523Y-120689714D01*
X142684904Y-120784952D01*
X142637285Y-120832571D01*
X142542047Y-120880190D01*
X142161095Y-120880190D01*
X143637285Y-121356380D02*
X143161095Y-121356380D01*
X143161095Y-120356380D01*
X143970619Y-120975428D02*
X144732523Y-120975428D01*
X145208714Y-120832571D02*
X145542047Y-120832571D01*
X145684904Y-121356380D02*
X145208714Y-121356380D01*
X145208714Y-120356380D01*
X145684904Y-120356380D01*
X146113476Y-121356380D02*
X146113476Y-120356380D01*
X146351571Y-120356380D01*
X146494428Y-120404000D01*
X146589666Y-120499238D01*
X146637285Y-120594476D01*
X146684904Y-120784952D01*
X146684904Y-120927809D01*
X146637285Y-121118285D01*
X146589666Y-121213523D01*
X146494428Y-121308761D01*
X146351571Y-121356380D01*
X146113476Y-121356380D01*
X147113476Y-120356380D02*
X147113476Y-121165904D01*
X147161095Y-121261142D01*
X147208714Y-121308761D01*
X147303952Y-121356380D01*
X147494428Y-121356380D01*
X147589666Y-121308761D01*
X147637285Y-121261142D01*
X147684904Y-121165904D01*
X147684904Y-120356380D01*
X148684904Y-121356380D02*
X148113476Y-121356380D01*
X148399190Y-121356380D02*
X148399190Y-120356380D01*
X148303952Y-120499238D01*
X148208714Y-120594476D01*
X148113476Y-120642095D01*
X149542047Y-120356380D02*
X149351571Y-120356380D01*
X149256333Y-120404000D01*
X149208714Y-120451619D01*
X149113476Y-120594476D01*
X149065857Y-120784952D01*
X149065857Y-121165904D01*
X149113476Y-121261142D01*
X149161095Y-121308761D01*
X149256333Y-121356380D01*
X149446809Y-121356380D01*
X149542047Y-121308761D01*
X149589666Y-121261142D01*
X149637285Y-121165904D01*
X149637285Y-120927809D01*
X149589666Y-120832571D01*
X149542047Y-120784952D01*
X149446809Y-120737333D01*
X149256333Y-120737333D01*
X149161095Y-120784952D01*
X149113476Y-120832571D01*
X149065857Y-120927809D01*
X150065857Y-120975428D02*
X150827761Y-120975428D01*
X151256333Y-121308761D02*
X151399190Y-121356380D01*
X151637285Y-121356380D01*
X151732523Y-121308761D01*
X151780142Y-121261142D01*
X151827761Y-121165904D01*
X151827761Y-121070666D01*
X151780142Y-120975428D01*
X151732523Y-120927809D01*
X151637285Y-120880190D01*
X151446809Y-120832571D01*
X151351571Y-120784952D01*
X151303952Y-120737333D01*
X151256333Y-120642095D01*
X151256333Y-120546857D01*
X151303952Y-120451619D01*
X151351571Y-120404000D01*
X151446809Y-120356380D01*
X151684904Y-120356380D01*
X151827761Y-120404000D01*
X152256333Y-121356380D02*
X152256333Y-120356380D01*
X152637285Y-120356380D01*
X152732523Y-120404000D01*
X152780142Y-120451619D01*
X152827761Y-120546857D01*
X152827761Y-120689714D01*
X152780142Y-120784952D01*
X152732523Y-120832571D01*
X152637285Y-120880190D01*
X152256333Y-120880190D01*
X153113476Y-120356380D02*
X153684904Y-120356380D01*
X153399190Y-121356380D02*
X153399190Y-120356380D01*
X153923000Y-120356380D02*
X154589666Y-121356380D01*
X154589666Y-120356380D02*
X153923000Y-121356380D01*
X104085000Y-97194714D02*
X104465952Y-97194714D01*
X104227857Y-96861380D02*
X104227857Y-97718523D01*
X104275476Y-97813761D01*
X104370714Y-97861380D01*
X104465952Y-97861380D01*
X104799285Y-97861380D02*
X104799285Y-96861380D01*
X105227857Y-97861380D02*
X105227857Y-97337571D01*
X105180238Y-97242333D01*
X105085000Y-97194714D01*
X104942142Y-97194714D01*
X104846904Y-97242333D01*
X104799285Y-97289952D01*
X106085000Y-97813761D02*
X105989761Y-97861380D01*
X105799285Y-97861380D01*
X105704047Y-97813761D01*
X105656428Y-97718523D01*
X105656428Y-97337571D01*
X105704047Y-97242333D01*
X105799285Y-97194714D01*
X105989761Y-97194714D01*
X106085000Y-97242333D01*
X106132619Y-97337571D01*
X106132619Y-97432809D01*
X105656428Y-97528047D01*
X106561190Y-97194714D02*
X106561190Y-98194714D01*
X106561190Y-97242333D02*
X106656428Y-97194714D01*
X106846904Y-97194714D01*
X106942142Y-97242333D01*
X106989761Y-97289952D01*
X107037380Y-97385190D01*
X107037380Y-97670904D01*
X106989761Y-97766142D01*
X106942142Y-97813761D01*
X106846904Y-97861380D01*
X106656428Y-97861380D01*
X106561190Y-97813761D01*
X107846904Y-97813761D02*
X107751666Y-97861380D01*
X107561190Y-97861380D01*
X107465952Y-97813761D01*
X107418333Y-97718523D01*
X107418333Y-97337571D01*
X107465952Y-97242333D01*
X107561190Y-97194714D01*
X107751666Y-97194714D01*
X107846904Y-97242333D01*
X107894523Y-97337571D01*
X107894523Y-97432809D01*
X107418333Y-97528047D01*
X108180238Y-97194714D02*
X108561190Y-97194714D01*
X108323095Y-96861380D02*
X108323095Y-97718523D01*
X108370714Y-97813761D01*
X108465952Y-97861380D01*
X108561190Y-97861380D01*
X108894523Y-97861380D02*
X108894523Y-97194714D01*
X108894523Y-97385190D02*
X108942142Y-97289952D01*
X108989761Y-97242333D01*
X109085000Y-97194714D01*
X109180238Y-97194714D01*
X109656428Y-97861380D02*
X109561190Y-97813761D01*
X109513571Y-97766142D01*
X109465952Y-97670904D01*
X109465952Y-97385190D01*
X109513571Y-97289952D01*
X109561190Y-97242333D01*
X109656428Y-97194714D01*
X109799285Y-97194714D01*
X109894523Y-97242333D01*
X109942142Y-97289952D01*
X109989761Y-97385190D01*
X109989761Y-97670904D01*
X109942142Y-97766142D01*
X109894523Y-97813761D01*
X109799285Y-97861380D01*
X109656428Y-97861380D01*
X110323095Y-97194714D02*
X110561190Y-97861380D01*
X110799285Y-97194714D01*
X111180238Y-97861380D02*
X111180238Y-97194714D01*
X111180238Y-96861380D02*
X111132619Y-96909000D01*
X111180238Y-96956619D01*
X111227857Y-96909000D01*
X111180238Y-96861380D01*
X111180238Y-96956619D01*
X112085000Y-97813761D02*
X111989761Y-97861380D01*
X111799285Y-97861380D01*
X111704047Y-97813761D01*
X111656428Y-97766142D01*
X111608809Y-97670904D01*
X111608809Y-97385190D01*
X111656428Y-97289952D01*
X111704047Y-97242333D01*
X111799285Y-97194714D01*
X111989761Y-97194714D01*
X112085000Y-97242333D01*
X112513571Y-97861380D02*
X112513571Y-96861380D01*
X112942142Y-97861380D02*
X112942142Y-97337571D01*
X112894523Y-97242333D01*
X112799285Y-97194714D01*
X112656428Y-97194714D01*
X112561190Y-97242333D01*
X112513571Y-97289952D01*
X120769857Y-88273000D02*
X120674619Y-88225380D01*
X120531761Y-88225380D01*
X120388904Y-88273000D01*
X120293666Y-88368238D01*
X120246047Y-88463476D01*
X120198428Y-88653952D01*
X120198428Y-88796809D01*
X120246047Y-88987285D01*
X120293666Y-89082523D01*
X120388904Y-89177761D01*
X120531761Y-89225380D01*
X120627000Y-89225380D01*
X120769857Y-89177761D01*
X120817476Y-89130142D01*
X120817476Y-88796809D01*
X120627000Y-88796809D01*
X121627000Y-89177761D02*
X121531761Y-89225380D01*
X121341285Y-89225380D01*
X121246047Y-89177761D01*
X121198428Y-89082523D01*
X121198428Y-88701571D01*
X121246047Y-88606333D01*
X121341285Y-88558714D01*
X121531761Y-88558714D01*
X121627000Y-88606333D01*
X121674619Y-88701571D01*
X121674619Y-88796809D01*
X121198428Y-88892047D01*
X122103190Y-89225380D02*
X122103190Y-88558714D01*
X122103190Y-88225380D02*
X122055571Y-88273000D01*
X122103190Y-88320619D01*
X122150809Y-88273000D01*
X122103190Y-88225380D01*
X122103190Y-88320619D01*
X123007952Y-88558714D02*
X123007952Y-89368238D01*
X122960333Y-89463476D01*
X122912714Y-89511095D01*
X122817476Y-89558714D01*
X122674619Y-89558714D01*
X122579380Y-89511095D01*
X123007952Y-89177761D02*
X122912714Y-89225380D01*
X122722238Y-89225380D01*
X122627000Y-89177761D01*
X122579380Y-89130142D01*
X122531761Y-89034904D01*
X122531761Y-88749190D01*
X122579380Y-88653952D01*
X122627000Y-88606333D01*
X122722238Y-88558714D01*
X122912714Y-88558714D01*
X123007952Y-88606333D01*
X123865095Y-89177761D02*
X123769857Y-89225380D01*
X123579380Y-89225380D01*
X123484142Y-89177761D01*
X123436523Y-89082523D01*
X123436523Y-88701571D01*
X123484142Y-88606333D01*
X123579380Y-88558714D01*
X123769857Y-88558714D01*
X123865095Y-88606333D01*
X123912714Y-88701571D01*
X123912714Y-88796809D01*
X123436523Y-88892047D01*
X124341285Y-89225380D02*
X124341285Y-88558714D01*
X124341285Y-88749190D02*
X124388904Y-88653952D01*
X124436523Y-88606333D01*
X124531761Y-88558714D01*
X124627000Y-88558714D01*
X125293666Y-88701571D02*
X125436523Y-88749190D01*
X125484142Y-88796809D01*
X125531761Y-88892047D01*
X125531761Y-89034904D01*
X125484142Y-89130142D01*
X125436523Y-89177761D01*
X125341285Y-89225380D01*
X124960333Y-89225380D01*
X124960333Y-88225380D01*
X125293666Y-88225380D01*
X125388904Y-88273000D01*
X125436523Y-88320619D01*
X125484142Y-88415857D01*
X125484142Y-88511095D01*
X125436523Y-88606333D01*
X125388904Y-88653952D01*
X125293666Y-88701571D01*
X124960333Y-88701571D01*
X126103190Y-89225380D02*
X126007952Y-89177761D01*
X125960333Y-89130142D01*
X125912714Y-89034904D01*
X125912714Y-88749190D01*
X125960333Y-88653952D01*
X126007952Y-88606333D01*
X126103190Y-88558714D01*
X126246047Y-88558714D01*
X126341285Y-88606333D01*
X126388904Y-88653952D01*
X126436523Y-88749190D01*
X126436523Y-89034904D01*
X126388904Y-89130142D01*
X126341285Y-89177761D01*
X126246047Y-89225380D01*
X126103190Y-89225380D01*
X127293666Y-89225380D02*
X127293666Y-88701571D01*
X127246047Y-88606333D01*
X127150809Y-88558714D01*
X126960333Y-88558714D01*
X126865095Y-88606333D01*
X127293666Y-89177761D02*
X127198428Y-89225380D01*
X126960333Y-89225380D01*
X126865095Y-89177761D01*
X126817476Y-89082523D01*
X126817476Y-88987285D01*
X126865095Y-88892047D01*
X126960333Y-88844428D01*
X127198428Y-88844428D01*
X127293666Y-88796809D01*
X127769857Y-89225380D02*
X127769857Y-88558714D01*
X127769857Y-88749190D02*
X127817476Y-88653952D01*
X127865095Y-88606333D01*
X127960333Y-88558714D01*
X128055571Y-88558714D01*
X128817476Y-89225380D02*
X128817476Y-88225380D01*
X128817476Y-89177761D02*
X128722238Y-89225380D01*
X128531761Y-89225380D01*
X128436523Y-89177761D01*
X128388904Y-89130142D01*
X128341285Y-89034904D01*
X128341285Y-88749190D01*
X128388904Y-88653952D01*
X128436523Y-88606333D01*
X128531761Y-88558714D01*
X128722238Y-88558714D01*
X128817476Y-88606333D01*
X130055571Y-89225380D02*
X130055571Y-88225380D01*
X130388904Y-88939666D01*
X130722238Y-88225380D01*
X130722238Y-89225380D01*
X131341285Y-89225380D02*
X131246047Y-89177761D01*
X131198428Y-89130142D01*
X131150809Y-89034904D01*
X131150809Y-88749190D01*
X131198428Y-88653952D01*
X131246047Y-88606333D01*
X131341285Y-88558714D01*
X131484142Y-88558714D01*
X131579380Y-88606333D01*
X131627000Y-88653952D01*
X131674619Y-88749190D01*
X131674619Y-89034904D01*
X131627000Y-89130142D01*
X131579380Y-89177761D01*
X131484142Y-89225380D01*
X131341285Y-89225380D01*
X132531761Y-88558714D02*
X132531761Y-89225380D01*
X132103190Y-88558714D02*
X132103190Y-89082523D01*
X132150809Y-89177761D01*
X132246047Y-89225380D01*
X132388904Y-89225380D01*
X132484142Y-89177761D01*
X132531761Y-89130142D01*
X133007952Y-88558714D02*
X133007952Y-89225380D01*
X133007952Y-88653952D02*
X133055571Y-88606333D01*
X133150809Y-88558714D01*
X133293666Y-88558714D01*
X133388904Y-88606333D01*
X133436523Y-88701571D01*
X133436523Y-89225380D01*
X133769857Y-88558714D02*
X134150809Y-88558714D01*
X133912714Y-88225380D02*
X133912714Y-89082523D01*
X133960333Y-89177761D01*
X134055571Y-89225380D01*
X134150809Y-89225380D01*
X91906380Y-133617690D02*
X92620666Y-133617690D01*
X92763523Y-133665309D01*
X92858761Y-133760547D01*
X92906380Y-133903404D01*
X92906380Y-133998642D01*
X92239714Y-132712928D02*
X92906380Y-132712928D01*
X91858761Y-132951023D02*
X92573047Y-133189119D01*
X92573047Y-132570071D01*
X94516380Y-133379595D02*
X94516380Y-133951023D01*
X94516380Y-133665309D02*
X93516380Y-133665309D01*
X93659238Y-133760547D01*
X93754476Y-133855785D01*
X93802095Y-133951023D01*
X93516380Y-133046261D02*
X94516380Y-132808166D01*
X93802095Y-132617690D01*
X94516380Y-132427214D01*
X93516380Y-132189119D01*
X95745428Y-133903404D02*
X95745428Y-133141500D01*
X96126380Y-133522452D02*
X95364476Y-133522452D01*
X95126380Y-132189119D02*
X95126380Y-132665309D01*
X95602571Y-132712928D01*
X95554952Y-132665309D01*
X95507333Y-132570071D01*
X95507333Y-132331976D01*
X95554952Y-132236738D01*
X95602571Y-132189119D01*
X95697809Y-132141500D01*
X95935904Y-132141500D01*
X96031142Y-132189119D01*
X96078761Y-132236738D01*
X96126380Y-132331976D01*
X96126380Y-132570071D01*
X96078761Y-132665309D01*
X96031142Y-132712928D01*
X95126380Y-131855785D02*
X96126380Y-131522452D01*
X95126380Y-131189119D01*
X96784000Y-133379595D02*
X96736380Y-133474833D01*
X96736380Y-133617690D01*
X96784000Y-133760547D01*
X96879238Y-133855785D01*
X96974476Y-133903404D01*
X97164952Y-133951023D01*
X97307809Y-133951023D01*
X97498285Y-133903404D01*
X97593523Y-133855785D01*
X97688761Y-133760547D01*
X97736380Y-133617690D01*
X97736380Y-133522452D01*
X97688761Y-133379595D01*
X97641142Y-133331976D01*
X97307809Y-133331976D01*
X97307809Y-133522452D01*
X97736380Y-132903404D02*
X96736380Y-132903404D01*
X97736380Y-132331976D01*
X96736380Y-132331976D01*
X97736380Y-131855785D02*
X96736380Y-131855785D01*
X96736380Y-131617690D01*
X96784000Y-131474833D01*
X96879238Y-131379595D01*
X96974476Y-131331976D01*
X97164952Y-131284357D01*
X97307809Y-131284357D01*
X97498285Y-131331976D01*
X97593523Y-131379595D01*
X97688761Y-131474833D01*
X97736380Y-131617690D01*
X97736380Y-131855785D01*
X177038095Y-120150000D02*
X176942857Y-120102380D01*
X176800000Y-120102380D01*
X176657142Y-120150000D01*
X176561904Y-120245238D01*
X176514285Y-120340476D01*
X176466666Y-120530952D01*
X176466666Y-120673809D01*
X176514285Y-120864285D01*
X176561904Y-120959523D01*
X176657142Y-121054761D01*
X176800000Y-121102380D01*
X176895238Y-121102380D01*
X177038095Y-121054761D01*
X177085714Y-121007142D01*
X177085714Y-120673809D01*
X176895238Y-120673809D01*
X177514285Y-121102380D02*
X177514285Y-120102380D01*
X178085714Y-121102380D01*
X178085714Y-120102380D01*
X178561904Y-121102380D02*
X178561904Y-120102380D01*
X178800000Y-120102380D01*
X178942857Y-120150000D01*
X179038095Y-120245238D01*
X179085714Y-120340476D01*
X179133333Y-120530952D01*
X179133333Y-120673809D01*
X179085714Y-120864285D01*
X179038095Y-120959523D01*
X178942857Y-121054761D01*
X178800000Y-121102380D01*
X178561904Y-121102380D01*
X134937809Y-78890761D02*
X134842571Y-78938380D01*
X134652095Y-78938380D01*
X134556857Y-78890761D01*
X134509238Y-78843142D01*
X134461619Y-78747904D01*
X134461619Y-78462190D01*
X134509238Y-78366952D01*
X134556857Y-78319333D01*
X134652095Y-78271714D01*
X134842571Y-78271714D01*
X134937809Y-78319333D01*
X135366380Y-78938380D02*
X135366380Y-77938380D01*
X135794952Y-78938380D02*
X135794952Y-78414571D01*
X135747333Y-78319333D01*
X135652095Y-78271714D01*
X135509238Y-78271714D01*
X135414000Y-78319333D01*
X135366380Y-78366952D01*
X136271142Y-78938380D02*
X136271142Y-78271714D01*
X136271142Y-78366952D02*
X136318761Y-78319333D01*
X136414000Y-78271714D01*
X136556857Y-78271714D01*
X136652095Y-78319333D01*
X136699714Y-78414571D01*
X136699714Y-78938380D01*
X136699714Y-78414571D02*
X136747333Y-78319333D01*
X136842571Y-78271714D01*
X136985428Y-78271714D01*
X137080666Y-78319333D01*
X137128285Y-78414571D01*
X137128285Y-78938380D01*
X138033047Y-78938380D02*
X138033047Y-78414571D01*
X137985428Y-78319333D01*
X137890190Y-78271714D01*
X137699714Y-78271714D01*
X137604476Y-78319333D01*
X138033047Y-78890761D02*
X137937809Y-78938380D01*
X137699714Y-78938380D01*
X137604476Y-78890761D01*
X137556857Y-78795523D01*
X137556857Y-78700285D01*
X137604476Y-78605047D01*
X137699714Y-78557428D01*
X137937809Y-78557428D01*
X138033047Y-78509809D01*
X138509238Y-78938380D02*
X138509238Y-78271714D01*
X138509238Y-78462190D02*
X138556857Y-78366952D01*
X138604476Y-78319333D01*
X138699714Y-78271714D01*
X138794952Y-78271714D01*
X139271142Y-78938380D02*
X139175904Y-78890761D01*
X139128285Y-78843142D01*
X139080666Y-78747904D01*
X139080666Y-78462190D01*
X139128285Y-78366952D01*
X139175904Y-78319333D01*
X139271142Y-78271714D01*
X139414000Y-78271714D01*
X139509238Y-78319333D01*
X139556857Y-78366952D01*
X139604476Y-78462190D01*
X139604476Y-78747904D01*
X139556857Y-78843142D01*
X139509238Y-78890761D01*
X139414000Y-78938380D01*
X139271142Y-78938380D01*
X139937809Y-78271714D02*
X140175904Y-78938380D01*
X140414000Y-78271714D01*
X163449380Y-134834380D02*
X162973190Y-134834380D01*
X162925571Y-135310571D01*
X162973190Y-135262952D01*
X163068428Y-135215333D01*
X163306523Y-135215333D01*
X163401761Y-135262952D01*
X163449380Y-135310571D01*
X163497000Y-135405809D01*
X163497000Y-135643904D01*
X163449380Y-135739142D01*
X163401761Y-135786761D01*
X163306523Y-135834380D01*
X163068428Y-135834380D01*
X162973190Y-135786761D01*
X162925571Y-135739142D01*
X163782714Y-134834380D02*
X164116047Y-135834380D01*
X164449380Y-134834380D01*
X165497000Y-135786761D02*
X165639857Y-135834380D01*
X165877952Y-135834380D01*
X165973190Y-135786761D01*
X166020809Y-135739142D01*
X166068428Y-135643904D01*
X166068428Y-135548666D01*
X166020809Y-135453428D01*
X165973190Y-135405809D01*
X165877952Y-135358190D01*
X165687476Y-135310571D01*
X165592238Y-135262952D01*
X165544619Y-135215333D01*
X165497000Y-135120095D01*
X165497000Y-135024857D01*
X165544619Y-134929619D01*
X165592238Y-134882000D01*
X165687476Y-134834380D01*
X165925571Y-134834380D01*
X166068428Y-134882000D01*
X166925571Y-135167714D02*
X166925571Y-135834380D01*
X166497000Y-135167714D02*
X166497000Y-135691523D01*
X166544619Y-135786761D01*
X166639857Y-135834380D01*
X166782714Y-135834380D01*
X166877952Y-135786761D01*
X166925571Y-135739142D01*
X167401761Y-135167714D02*
X167401761Y-136167714D01*
X167401761Y-135215333D02*
X167497000Y-135167714D01*
X167687476Y-135167714D01*
X167782714Y-135215333D01*
X167830333Y-135262952D01*
X167877952Y-135358190D01*
X167877952Y-135643904D01*
X167830333Y-135739142D01*
X167782714Y-135786761D01*
X167687476Y-135834380D01*
X167497000Y-135834380D01*
X167401761Y-135786761D01*
X168306523Y-135167714D02*
X168306523Y-136167714D01*
X168306523Y-135215333D02*
X168401761Y-135167714D01*
X168592238Y-135167714D01*
X168687476Y-135215333D01*
X168735095Y-135262952D01*
X168782714Y-135358190D01*
X168782714Y-135643904D01*
X168735095Y-135739142D01*
X168687476Y-135786761D01*
X168592238Y-135834380D01*
X168401761Y-135834380D01*
X168306523Y-135786761D01*
X169354142Y-135834380D02*
X169258904Y-135786761D01*
X169211285Y-135691523D01*
X169211285Y-134834380D01*
X169639857Y-135167714D02*
X169877952Y-135834380D01*
X170116047Y-135167714D02*
X169877952Y-135834380D01*
X169782714Y-136072476D01*
X169735095Y-136120095D01*
X169639857Y-136167714D01*
X108656380Y-135357952D02*
X108132571Y-135357952D01*
X108037333Y-135405571D01*
X107989714Y-135500809D01*
X107989714Y-135691285D01*
X108037333Y-135786523D01*
X108608761Y-135357952D02*
X108656380Y-135453190D01*
X108656380Y-135691285D01*
X108608761Y-135786523D01*
X108513523Y-135834142D01*
X108418285Y-135834142D01*
X108323047Y-135786523D01*
X108275428Y-135691285D01*
X108275428Y-135453190D01*
X108227809Y-135357952D01*
X108656380Y-134453190D02*
X107656380Y-134453190D01*
X108608761Y-134453190D02*
X108656380Y-134548428D01*
X108656380Y-134738904D01*
X108608761Y-134834142D01*
X108561142Y-134881761D01*
X108465904Y-134929380D01*
X108180190Y-134929380D01*
X108084952Y-134881761D01*
X108037333Y-134834142D01*
X107989714Y-134738904D01*
X107989714Y-134548428D01*
X108037333Y-134453190D01*
X108608761Y-133596047D02*
X108656380Y-133691285D01*
X108656380Y-133881761D01*
X108608761Y-133977000D01*
X108513523Y-134024619D01*
X108132571Y-134024619D01*
X108037333Y-133977000D01*
X107989714Y-133881761D01*
X107989714Y-133691285D01*
X108037333Y-133596047D01*
X108132571Y-133548428D01*
X108227809Y-133548428D01*
X108323047Y-134024619D01*
X108656380Y-133119857D02*
X107989714Y-133119857D01*
X108180190Y-133119857D02*
X108084952Y-133072238D01*
X108037333Y-133024619D01*
X107989714Y-132929380D01*
X107989714Y-132834142D01*
X108656380Y-132357952D02*
X108608761Y-132453190D01*
X108561142Y-132500809D01*
X108465904Y-132548428D01*
X108180190Y-132548428D01*
X108084952Y-132500809D01*
X108037333Y-132453190D01*
X107989714Y-132357952D01*
X107989714Y-132215095D01*
X108037333Y-132119857D01*
X108084952Y-132072238D01*
X108180190Y-132024619D01*
X108465904Y-132024619D01*
X108561142Y-132072238D01*
X108608761Y-132119857D01*
X108656380Y-132215095D01*
X108656380Y-132357952D01*
X108656380Y-131167476D02*
X107656380Y-131167476D01*
X108608761Y-131167476D02*
X108656380Y-131262714D01*
X108656380Y-131453190D01*
X108608761Y-131548428D01*
X108561142Y-131596047D01*
X108465904Y-131643666D01*
X108180190Y-131643666D01*
X108084952Y-131596047D01*
X108037333Y-131548428D01*
X107989714Y-131453190D01*
X107989714Y-131262714D01*
X108037333Y-131167476D01*
X97226428Y-109489714D02*
X97226428Y-108727809D01*
X97607380Y-109108761D02*
X96845476Y-109108761D01*
X96607380Y-107775428D02*
X96607380Y-108251619D01*
X97083571Y-108299238D01*
X97035952Y-108251619D01*
X96988333Y-108156380D01*
X96988333Y-107918285D01*
X97035952Y-107823047D01*
X97083571Y-107775428D01*
X97178809Y-107727809D01*
X97416904Y-107727809D01*
X97512142Y-107775428D01*
X97559761Y-107823047D01*
X97607380Y-107918285D01*
X97607380Y-108156380D01*
X97559761Y-108251619D01*
X97512142Y-108299238D01*
X96607380Y-107442095D02*
X97607380Y-107108761D01*
X96607380Y-106775428D01*
X106315142Y-112307714D02*
X106553238Y-112974380D01*
X106791333Y-112307714D02*
X106553238Y-112974380D01*
X106458000Y-113212476D01*
X106410380Y-113260095D01*
X106315142Y-113307714D01*
X107600857Y-112307714D02*
X107600857Y-112974380D01*
X107172285Y-112307714D02*
X107172285Y-112831523D01*
X107219904Y-112926761D01*
X107315142Y-112974380D01*
X107458000Y-112974380D01*
X107553238Y-112926761D01*
X107600857Y-112879142D01*
X108077047Y-112974380D02*
X108077047Y-112307714D01*
X108077047Y-112498190D02*
X108124666Y-112402952D01*
X108172285Y-112355333D01*
X108267523Y-112307714D01*
X108362761Y-112307714D01*
X109124666Y-112974380D02*
X109124666Y-111974380D01*
X109124666Y-112926761D02*
X109029428Y-112974380D01*
X108838952Y-112974380D01*
X108743714Y-112926761D01*
X108696095Y-112879142D01*
X108648476Y-112783904D01*
X108648476Y-112498190D01*
X108696095Y-112402952D01*
X108743714Y-112355333D01*
X108838952Y-112307714D01*
X109029428Y-112307714D01*
X109124666Y-112355333D01*
X109981809Y-112926761D02*
X109886571Y-112974380D01*
X109696095Y-112974380D01*
X109600857Y-112926761D01*
X109553238Y-112831523D01*
X109553238Y-112450571D01*
X109600857Y-112355333D01*
X109696095Y-112307714D01*
X109886571Y-112307714D01*
X109981809Y-112355333D01*
X110029428Y-112450571D01*
X110029428Y-112545809D01*
X109553238Y-112641047D01*
X110600857Y-112974380D02*
X110505619Y-112926761D01*
X110458000Y-112831523D01*
X110458000Y-111974380D01*
X145232619Y-114244380D02*
X145232619Y-113244380D01*
X145661190Y-114244380D02*
X145661190Y-113720571D01*
X145613571Y-113625333D01*
X145518333Y-113577714D01*
X145375476Y-113577714D01*
X145280238Y-113625333D01*
X145232619Y-113672952D01*
X146565952Y-114244380D02*
X146565952Y-113720571D01*
X146518333Y-113625333D01*
X146423095Y-113577714D01*
X146232619Y-113577714D01*
X146137380Y-113625333D01*
X146565952Y-114196761D02*
X146470714Y-114244380D01*
X146232619Y-114244380D01*
X146137380Y-114196761D01*
X146089761Y-114101523D01*
X146089761Y-114006285D01*
X146137380Y-113911047D01*
X146232619Y-113863428D01*
X146470714Y-113863428D01*
X146565952Y-113815809D01*
X146994523Y-114196761D02*
X147089761Y-114244380D01*
X147280238Y-114244380D01*
X147375476Y-114196761D01*
X147423095Y-114101523D01*
X147423095Y-114053904D01*
X147375476Y-113958666D01*
X147280238Y-113911047D01*
X147137380Y-113911047D01*
X147042142Y-113863428D01*
X146994523Y-113768190D01*
X146994523Y-113720571D01*
X147042142Y-113625333D01*
X147137380Y-113577714D01*
X147280238Y-113577714D01*
X147375476Y-113625333D01*
X147756428Y-113577714D02*
X147994523Y-114244380D01*
X148232619Y-113577714D01*
X178792142Y-114204619D02*
X178839761Y-114252238D01*
X178887380Y-114395095D01*
X178887380Y-114490333D01*
X178839761Y-114633190D01*
X178744523Y-114728428D01*
X178649285Y-114776047D01*
X178458809Y-114823666D01*
X178315952Y-114823666D01*
X178125476Y-114776047D01*
X178030238Y-114728428D01*
X177935000Y-114633190D01*
X177887380Y-114490333D01*
X177887380Y-114395095D01*
X177935000Y-114252238D01*
X177982619Y-114204619D01*
X178601666Y-113823666D02*
X178601666Y-113347476D01*
X178887380Y-113918904D02*
X177887380Y-113585571D01*
X178887380Y-113252238D01*
X178887380Y-112918904D02*
X177887380Y-112918904D01*
X178887380Y-112347476D01*
X177887380Y-112347476D01*
X178887380Y-111395095D02*
X178887380Y-111871285D01*
X177887380Y-111871285D01*
X124785380Y-136643666D02*
X123785380Y-136643666D01*
X124166333Y-136643666D02*
X124118714Y-136548428D01*
X124118714Y-136357952D01*
X124166333Y-136262714D01*
X124213952Y-136215095D01*
X124309190Y-136167476D01*
X124594904Y-136167476D01*
X124690142Y-136215095D01*
X124737761Y-136262714D01*
X124785380Y-136357952D01*
X124785380Y-136548428D01*
X124737761Y-136643666D01*
X124737761Y-135357952D02*
X124785380Y-135453190D01*
X124785380Y-135643666D01*
X124737761Y-135738904D01*
X124642523Y-135786523D01*
X124261571Y-135786523D01*
X124166333Y-135738904D01*
X124118714Y-135643666D01*
X124118714Y-135453190D01*
X124166333Y-135357952D01*
X124261571Y-135310333D01*
X124356809Y-135310333D01*
X124452047Y-135786523D01*
X124785380Y-134453190D02*
X124261571Y-134453190D01*
X124166333Y-134500809D01*
X124118714Y-134596047D01*
X124118714Y-134786523D01*
X124166333Y-134881761D01*
X124737761Y-134453190D02*
X124785380Y-134548428D01*
X124785380Y-134786523D01*
X124737761Y-134881761D01*
X124642523Y-134929380D01*
X124547285Y-134929380D01*
X124452047Y-134881761D01*
X124404428Y-134786523D01*
X124404428Y-134548428D01*
X124356809Y-134453190D01*
X124785380Y-133977000D02*
X124118714Y-133977000D01*
X124309190Y-133977000D02*
X124213952Y-133929380D01*
X124166333Y-133881761D01*
X124118714Y-133786523D01*
X124118714Y-133691285D01*
X124785380Y-132834142D02*
X124785380Y-133405571D01*
X124785380Y-133119857D02*
X123785380Y-133119857D01*
X123928238Y-133215095D01*
X124023476Y-133310333D01*
X124071095Y-133405571D01*
X124785380Y-131977000D02*
X124261571Y-131977000D01*
X124166333Y-132024619D01*
X124118714Y-132119857D01*
X124118714Y-132310333D01*
X124166333Y-132405571D01*
X124737761Y-131977000D02*
X124785380Y-132072238D01*
X124785380Y-132310333D01*
X124737761Y-132405571D01*
X124642523Y-132453190D01*
X124547285Y-132453190D01*
X124452047Y-132405571D01*
X124404428Y-132310333D01*
X124404428Y-132072238D01*
X124356809Y-131977000D01*
X124785380Y-131500809D02*
X123785380Y-131500809D01*
X124404428Y-131405571D02*
X124785380Y-131119857D01*
X124118714Y-131119857D02*
X124499666Y-131500809D01*
X124737761Y-130310333D02*
X124785380Y-130405571D01*
X124785380Y-130596047D01*
X124737761Y-130691285D01*
X124642523Y-130738904D01*
X124261571Y-130738904D01*
X124166333Y-130691285D01*
X124118714Y-130596047D01*
X124118714Y-130405571D01*
X124166333Y-130310333D01*
X124261571Y-130262714D01*
X124356809Y-130262714D01*
X124452047Y-130738904D01*
X91863380Y-130188690D02*
X92577666Y-130188690D01*
X92720523Y-130236309D01*
X92815761Y-130331547D01*
X92863380Y-130474404D01*
X92863380Y-130569642D01*
X91863380Y-129236309D02*
X91863380Y-129712500D01*
X92339571Y-129760119D01*
X92291952Y-129712500D01*
X92244333Y-129617261D01*
X92244333Y-129379166D01*
X92291952Y-129283928D01*
X92339571Y-129236309D01*
X92434809Y-129188690D01*
X92672904Y-129188690D01*
X92768142Y-129236309D01*
X92815761Y-129283928D01*
X92863380Y-129379166D01*
X92863380Y-129617261D01*
X92815761Y-129712500D01*
X92768142Y-129760119D01*
X94425761Y-130522023D02*
X94473380Y-130379166D01*
X94473380Y-130141071D01*
X94425761Y-130045833D01*
X94378142Y-129998214D01*
X94282904Y-129950595D01*
X94187666Y-129950595D01*
X94092428Y-129998214D01*
X94044809Y-130045833D01*
X93997190Y-130141071D01*
X93949571Y-130331547D01*
X93901952Y-130426785D01*
X93854333Y-130474404D01*
X93759095Y-130522023D01*
X93663857Y-130522023D01*
X93568619Y-130474404D01*
X93521000Y-130426785D01*
X93473380Y-130331547D01*
X93473380Y-130093452D01*
X93521000Y-129950595D01*
X94473380Y-129522023D02*
X93473380Y-129522023D01*
X93473380Y-129283928D01*
X93521000Y-129141071D01*
X93616238Y-129045833D01*
X93711476Y-128998214D01*
X93901952Y-128950595D01*
X94044809Y-128950595D01*
X94235285Y-128998214D01*
X94330523Y-129045833D01*
X94425761Y-129141071D01*
X94473380Y-129283928D01*
X94473380Y-129522023D01*
X94187666Y-128569642D02*
X94187666Y-128093452D01*
X94473380Y-128664880D02*
X93473380Y-128331547D01*
X94473380Y-127998214D01*
X95131000Y-129950595D02*
X95083380Y-130045833D01*
X95083380Y-130188690D01*
X95131000Y-130331547D01*
X95226238Y-130426785D01*
X95321476Y-130474404D01*
X95511952Y-130522023D01*
X95654809Y-130522023D01*
X95845285Y-130474404D01*
X95940523Y-130426785D01*
X96035761Y-130331547D01*
X96083380Y-130188690D01*
X96083380Y-130093452D01*
X96035761Y-129950595D01*
X95988142Y-129902976D01*
X95654809Y-129902976D01*
X95654809Y-130093452D01*
X96083380Y-129474404D02*
X95083380Y-129474404D01*
X96083380Y-128902976D01*
X95083380Y-128902976D01*
X96083380Y-128426785D02*
X95083380Y-128426785D01*
X95083380Y-128188690D01*
X95131000Y-128045833D01*
X95226238Y-127950595D01*
X95321476Y-127902976D01*
X95511952Y-127855357D01*
X95654809Y-127855357D01*
X95845285Y-127902976D01*
X95940523Y-127950595D01*
X96035761Y-128045833D01*
X96083380Y-128188690D01*
X96083380Y-128426785D01*
X97645761Y-130522023D02*
X97693380Y-130379166D01*
X97693380Y-130141071D01*
X97645761Y-130045833D01*
X97598142Y-129998214D01*
X97502904Y-129950595D01*
X97407666Y-129950595D01*
X97312428Y-129998214D01*
X97264809Y-130045833D01*
X97217190Y-130141071D01*
X97169571Y-130331547D01*
X97121952Y-130426785D01*
X97074333Y-130474404D01*
X96979095Y-130522023D01*
X96883857Y-130522023D01*
X96788619Y-130474404D01*
X96741000Y-130426785D01*
X96693380Y-130331547D01*
X96693380Y-130093452D01*
X96741000Y-129950595D01*
X97598142Y-128950595D02*
X97645761Y-128998214D01*
X97693380Y-129141071D01*
X97693380Y-129236309D01*
X97645761Y-129379166D01*
X97550523Y-129474404D01*
X97455285Y-129522023D01*
X97264809Y-129569642D01*
X97121952Y-129569642D01*
X96931476Y-129522023D01*
X96836238Y-129474404D01*
X96741000Y-129379166D01*
X96693380Y-129236309D01*
X96693380Y-129141071D01*
X96741000Y-128998214D01*
X96788619Y-128950595D01*
X97693380Y-128045833D02*
X97693380Y-128522023D01*
X96693380Y-128522023D01*
X98922428Y-130474404D02*
X98922428Y-129712500D01*
X99303380Y-130093452D02*
X98541476Y-130093452D01*
X98303380Y-128760119D02*
X98303380Y-129236309D01*
X98779571Y-129283928D01*
X98731952Y-129236309D01*
X98684333Y-129141071D01*
X98684333Y-128902976D01*
X98731952Y-128807738D01*
X98779571Y-128760119D01*
X98874809Y-128712500D01*
X99112904Y-128712500D01*
X99208142Y-128760119D01*
X99255761Y-128807738D01*
X99303380Y-128902976D01*
X99303380Y-129141071D01*
X99255761Y-129236309D01*
X99208142Y-129283928D01*
X98303380Y-128426785D02*
X99303380Y-128093452D01*
X98303380Y-127760119D01*
X169957714Y-143962380D02*
X169386285Y-143962380D01*
X169672000Y-143962380D02*
X169672000Y-142962380D01*
X169576761Y-143105238D01*
X169481523Y-143200476D01*
X169386285Y-143248095D01*
X92696309Y-75142380D02*
X92696309Y-75856666D01*
X92648690Y-75999523D01*
X92553452Y-76094761D01*
X92410595Y-76142380D01*
X92315357Y-76142380D01*
X93077261Y-75142380D02*
X93743928Y-75142380D01*
X93315357Y-76142380D01*
X92362976Y-77704761D02*
X92505833Y-77752380D01*
X92743928Y-77752380D01*
X92839166Y-77704761D01*
X92886785Y-77657142D01*
X92934404Y-77561904D01*
X92934404Y-77466666D01*
X92886785Y-77371428D01*
X92839166Y-77323809D01*
X92743928Y-77276190D01*
X92553452Y-77228571D01*
X92458214Y-77180952D01*
X92410595Y-77133333D01*
X92362976Y-77038095D01*
X92362976Y-76942857D01*
X92410595Y-76847619D01*
X92458214Y-76800000D01*
X92553452Y-76752380D01*
X92791547Y-76752380D01*
X92934404Y-76800000D01*
X93553452Y-76752380D02*
X93648690Y-76752380D01*
X93743928Y-76800000D01*
X93791547Y-76847619D01*
X93839166Y-76942857D01*
X93886785Y-77133333D01*
X93886785Y-77371428D01*
X93839166Y-77561904D01*
X93791547Y-77657142D01*
X93743928Y-77704761D01*
X93648690Y-77752380D01*
X93553452Y-77752380D01*
X93458214Y-77704761D01*
X93410595Y-77657142D01*
X93362976Y-77561904D01*
X93315357Y-77371428D01*
X93315357Y-77133333D01*
X93362976Y-76942857D01*
X93410595Y-76847619D01*
X93458214Y-76800000D01*
X93553452Y-76752380D01*
X94077261Y-77847619D02*
X94839166Y-77847619D01*
X95648690Y-77752380D02*
X95315357Y-77276190D01*
X95077261Y-77752380D02*
X95077261Y-76752380D01*
X95458214Y-76752380D01*
X95553452Y-76800000D01*
X95601071Y-76847619D01*
X95648690Y-76942857D01*
X95648690Y-77085714D01*
X95601071Y-77180952D01*
X95553452Y-77228571D01*
X95458214Y-77276190D01*
X95077261Y-77276190D01*
X95982023Y-76752380D02*
X96648690Y-77752380D01*
X96648690Y-76752380D02*
X95982023Y-77752380D01*
X92934404Y-78410000D02*
X92839166Y-78362380D01*
X92696309Y-78362380D01*
X92553452Y-78410000D01*
X92458214Y-78505238D01*
X92410595Y-78600476D01*
X92362976Y-78790952D01*
X92362976Y-78933809D01*
X92410595Y-79124285D01*
X92458214Y-79219523D01*
X92553452Y-79314761D01*
X92696309Y-79362380D01*
X92791547Y-79362380D01*
X92934404Y-79314761D01*
X92982023Y-79267142D01*
X92982023Y-78933809D01*
X92791547Y-78933809D01*
X93410595Y-79362380D02*
X93410595Y-78362380D01*
X93982023Y-79362380D01*
X93982023Y-78362380D01*
X94458214Y-79362380D02*
X94458214Y-78362380D01*
X94696309Y-78362380D01*
X94839166Y-78410000D01*
X94934404Y-78505238D01*
X94982023Y-78600476D01*
X95029642Y-78790952D01*
X95029642Y-78933809D01*
X94982023Y-79124285D01*
X94934404Y-79219523D01*
X94839166Y-79314761D01*
X94696309Y-79362380D01*
X94458214Y-79362380D01*
X92362976Y-80924761D02*
X92505833Y-80972380D01*
X92743928Y-80972380D01*
X92839166Y-80924761D01*
X92886785Y-80877142D01*
X92934404Y-80781904D01*
X92934404Y-80686666D01*
X92886785Y-80591428D01*
X92839166Y-80543809D01*
X92743928Y-80496190D01*
X92553452Y-80448571D01*
X92458214Y-80400952D01*
X92410595Y-80353333D01*
X92362976Y-80258095D01*
X92362976Y-80162857D01*
X92410595Y-80067619D01*
X92458214Y-80020000D01*
X92553452Y-79972380D01*
X92791547Y-79972380D01*
X92934404Y-80020000D01*
X93553452Y-79972380D02*
X93648690Y-79972380D01*
X93743928Y-80020000D01*
X93791547Y-80067619D01*
X93839166Y-80162857D01*
X93886785Y-80353333D01*
X93886785Y-80591428D01*
X93839166Y-80781904D01*
X93791547Y-80877142D01*
X93743928Y-80924761D01*
X93648690Y-80972380D01*
X93553452Y-80972380D01*
X93458214Y-80924761D01*
X93410595Y-80877142D01*
X93362976Y-80781904D01*
X93315357Y-80591428D01*
X93315357Y-80353333D01*
X93362976Y-80162857D01*
X93410595Y-80067619D01*
X93458214Y-80020000D01*
X93553452Y-79972380D01*
X94077261Y-81067619D02*
X94839166Y-81067619D01*
X94934404Y-79972380D02*
X95505833Y-79972380D01*
X95220119Y-80972380D02*
X95220119Y-79972380D01*
X95743928Y-79972380D02*
X96410595Y-80972380D01*
X96410595Y-79972380D02*
X95743928Y-80972380D01*
X177522190Y-95701238D02*
X177998380Y-95701238D01*
X176998380Y-96034571D02*
X177522190Y-95701238D01*
X176998380Y-95367904D01*
X177998380Y-95034571D02*
X176998380Y-95034571D01*
X177998380Y-94463142D02*
X177426952Y-94891714D01*
X176998380Y-94463142D02*
X177569809Y-95034571D01*
X176998380Y-94177428D02*
X176998380Y-93606000D01*
X177998380Y-93891714D02*
X176998380Y-93891714D01*
X177950761Y-93320285D02*
X177998380Y-93177428D01*
X177998380Y-92939333D01*
X177950761Y-92844095D01*
X177903142Y-92796476D01*
X177807904Y-92748857D01*
X177712666Y-92748857D01*
X177617428Y-92796476D01*
X177569809Y-92844095D01*
X177522190Y-92939333D01*
X177474571Y-93129809D01*
X177426952Y-93225047D01*
X177379333Y-93272666D01*
X177284095Y-93320285D01*
X177188857Y-93320285D01*
X177093619Y-93272666D01*
X177046000Y-93225047D01*
X176998380Y-93129809D01*
X176998380Y-92891714D01*
X177046000Y-92748857D01*
X177712666Y-92367904D02*
X177712666Y-91891714D01*
X177998380Y-92463142D02*
X176998380Y-92129809D01*
X177998380Y-91796476D01*
X176998380Y-91606000D02*
X176998380Y-91034571D01*
X177998380Y-91320285D02*
X176998380Y-91320285D01*
X177617428Y-90701238D02*
X177617428Y-89939333D01*
X177998380Y-88939333D02*
X177998380Y-89510761D01*
X177998380Y-89225047D02*
X176998380Y-89225047D01*
X177141238Y-89320285D01*
X177236476Y-89415523D01*
X177284095Y-89510761D01*
X177998380Y-87748857D02*
X176998380Y-87748857D01*
X176998380Y-87367904D01*
X177046000Y-87272666D01*
X177093619Y-87225047D01*
X177188857Y-87177428D01*
X177331714Y-87177428D01*
X177426952Y-87225047D01*
X177474571Y-87272666D01*
X177522190Y-87367904D01*
X177522190Y-87748857D01*
X177998380Y-86320285D02*
X177474571Y-86320285D01*
X177379333Y-86367904D01*
X177331714Y-86463142D01*
X177331714Y-86653619D01*
X177379333Y-86748857D01*
X177950761Y-86320285D02*
X177998380Y-86415523D01*
X177998380Y-86653619D01*
X177950761Y-86748857D01*
X177855523Y-86796476D01*
X177760285Y-86796476D01*
X177665047Y-86748857D01*
X177617428Y-86653619D01*
X177617428Y-86415523D01*
X177569809Y-86320285D01*
X177331714Y-85939333D02*
X177998380Y-85701238D01*
X177331714Y-85463142D02*
X177998380Y-85701238D01*
X178236476Y-85796476D01*
X178284095Y-85844095D01*
X178331714Y-85939333D01*
X177998380Y-84939333D02*
X177950761Y-85034571D01*
X177855523Y-85082190D01*
X176998380Y-85082190D01*
X177998380Y-84415523D02*
X177950761Y-84510761D01*
X177903142Y-84558380D01*
X177807904Y-84606000D01*
X177522190Y-84606000D01*
X177426952Y-84558380D01*
X177379333Y-84510761D01*
X177331714Y-84415523D01*
X177331714Y-84272666D01*
X177379333Y-84177428D01*
X177426952Y-84129809D01*
X177522190Y-84082190D01*
X177807904Y-84082190D01*
X177903142Y-84129809D01*
X177950761Y-84177428D01*
X177998380Y-84272666D01*
X177998380Y-84415523D01*
X177998380Y-83225047D02*
X177474571Y-83225047D01*
X177379333Y-83272666D01*
X177331714Y-83367904D01*
X177331714Y-83558380D01*
X177379333Y-83653619D01*
X177950761Y-83225047D02*
X177998380Y-83320285D01*
X177998380Y-83558380D01*
X177950761Y-83653619D01*
X177855523Y-83701238D01*
X177760285Y-83701238D01*
X177665047Y-83653619D01*
X177617428Y-83558380D01*
X177617428Y-83320285D01*
X177569809Y-83225047D01*
X177998380Y-82320285D02*
X176998380Y-82320285D01*
X177950761Y-82320285D02*
X177998380Y-82415523D01*
X177998380Y-82606000D01*
X177950761Y-82701238D01*
X177903142Y-82748857D01*
X177807904Y-82796476D01*
X177522190Y-82796476D01*
X177426952Y-82748857D01*
X177379333Y-82701238D01*
X177331714Y-82606000D01*
X177331714Y-82415523D01*
X177379333Y-82320285D01*
X177998380Y-81082190D02*
X176998380Y-81082190D01*
X177712666Y-80748857D01*
X176998380Y-80415523D01*
X177998380Y-80415523D01*
X177998380Y-79796476D02*
X177950761Y-79891714D01*
X177903142Y-79939333D01*
X177807904Y-79986952D01*
X177522190Y-79986952D01*
X177426952Y-79939333D01*
X177379333Y-79891714D01*
X177331714Y-79796476D01*
X177331714Y-79653619D01*
X177379333Y-79558380D01*
X177426952Y-79510761D01*
X177522190Y-79463142D01*
X177807904Y-79463142D01*
X177903142Y-79510761D01*
X177950761Y-79558380D01*
X177998380Y-79653619D01*
X177998380Y-79796476D01*
X177998380Y-78606000D02*
X176998380Y-78606000D01*
X177950761Y-78606000D02*
X177998380Y-78701238D01*
X177998380Y-78891714D01*
X177950761Y-78986952D01*
X177903142Y-79034571D01*
X177807904Y-79082190D01*
X177522190Y-79082190D01*
X177426952Y-79034571D01*
X177379333Y-78986952D01*
X177331714Y-78891714D01*
X177331714Y-78701238D01*
X177379333Y-78606000D01*
X177331714Y-77701238D02*
X177998380Y-77701238D01*
X177331714Y-78129809D02*
X177855523Y-78129809D01*
X177950761Y-78082190D01*
X177998380Y-77986952D01*
X177998380Y-77844095D01*
X177950761Y-77748857D01*
X177903142Y-77701238D01*
X177998380Y-77082190D02*
X177950761Y-77177428D01*
X177855523Y-77225047D01*
X176998380Y-77225047D01*
X177950761Y-76320285D02*
X177998380Y-76415523D01*
X177998380Y-76606000D01*
X177950761Y-76701238D01*
X177855523Y-76748857D01*
X177474571Y-76748857D01*
X177379333Y-76701238D01*
X177331714Y-76606000D01*
X177331714Y-76415523D01*
X177379333Y-76320285D01*
X177474571Y-76272666D01*
X177569809Y-76272666D01*
X177665047Y-76748857D01*
X123103238Y-114514380D02*
X123103238Y-115323904D01*
X123150857Y-115419142D01*
X123198476Y-115466761D01*
X123293714Y-115514380D01*
X123484190Y-115514380D01*
X123579428Y-115466761D01*
X123627047Y-115419142D01*
X123674666Y-115323904D01*
X123674666Y-114514380D01*
X124103238Y-115228666D02*
X124579428Y-115228666D01*
X124008000Y-115514380D02*
X124341333Y-114514380D01*
X124674666Y-115514380D01*
X125579428Y-115514380D02*
X125246095Y-115038190D01*
X125008000Y-115514380D02*
X125008000Y-114514380D01*
X125388952Y-114514380D01*
X125484190Y-114562000D01*
X125531809Y-114609619D01*
X125579428Y-114704857D01*
X125579428Y-114847714D01*
X125531809Y-114942952D01*
X125484190Y-114990571D01*
X125388952Y-115038190D01*
X125008000Y-115038190D01*
X125865142Y-114514380D02*
X126436571Y-114514380D01*
X126150857Y-115514380D02*
X126150857Y-114514380D01*
X127531809Y-115514380D02*
X127531809Y-114514380D01*
X127865142Y-115228666D01*
X128198476Y-114514380D01*
X128198476Y-115514380D01*
X128674666Y-114514380D02*
X128674666Y-115323904D01*
X128722285Y-115419142D01*
X128769904Y-115466761D01*
X128865142Y-115514380D01*
X129055619Y-115514380D01*
X129150857Y-115466761D01*
X129198476Y-115419142D01*
X129246095Y-115323904D01*
X129246095Y-114514380D01*
X129627047Y-114514380D02*
X130293714Y-115514380D01*
X130293714Y-114514380D02*
X129627047Y-115514380D01*
X131627047Y-114514380D02*
X131722285Y-114514380D01*
X131817523Y-114562000D01*
X131865142Y-114609619D01*
X131912761Y-114704857D01*
X131960380Y-114895333D01*
X131960380Y-115133428D01*
X131912761Y-115323904D01*
X131865142Y-115419142D01*
X131817523Y-115466761D01*
X131722285Y-115514380D01*
X131627047Y-115514380D01*
X131531809Y-115466761D01*
X131484190Y-115419142D01*
X131436571Y-115323904D01*
X131388952Y-115133428D01*
X131388952Y-114895333D01*
X131436571Y-114704857D01*
X131484190Y-114609619D01*
X131531809Y-114562000D01*
X131627047Y-114514380D01*
X142502333Y-98083714D02*
X142883285Y-98083714D01*
X142645190Y-97750380D02*
X142645190Y-98607523D01*
X142692809Y-98702761D01*
X142788047Y-98750380D01*
X142883285Y-98750380D01*
X143645190Y-98750380D02*
X143645190Y-98226571D01*
X143597571Y-98131333D01*
X143502333Y-98083714D01*
X143311857Y-98083714D01*
X143216619Y-98131333D01*
X143645190Y-98702761D02*
X143549952Y-98750380D01*
X143311857Y-98750380D01*
X143216619Y-98702761D01*
X143169000Y-98607523D01*
X143169000Y-98512285D01*
X143216619Y-98417047D01*
X143311857Y-98369428D01*
X143549952Y-98369428D01*
X143645190Y-98321809D01*
X144121380Y-98750380D02*
X144121380Y-98083714D01*
X144121380Y-98178952D02*
X144169000Y-98131333D01*
X144264238Y-98083714D01*
X144407095Y-98083714D01*
X144502333Y-98131333D01*
X144549952Y-98226571D01*
X144549952Y-98750380D01*
X144549952Y-98226571D02*
X144597571Y-98131333D01*
X144692809Y-98083714D01*
X144835666Y-98083714D01*
X144930904Y-98131333D01*
X144978523Y-98226571D01*
X144978523Y-98750380D01*
X145454714Y-98750380D02*
X145454714Y-98083714D01*
X145454714Y-97750380D02*
X145407095Y-97798000D01*
X145454714Y-97845619D01*
X145502333Y-97798000D01*
X145454714Y-97750380D01*
X145454714Y-97845619D01*
X145930904Y-98750380D02*
X145930904Y-97750380D01*
X146026142Y-98369428D02*
X146311857Y-98750380D01*
X146311857Y-98083714D02*
X145930904Y-98464666D01*
X146740428Y-98750380D02*
X146740428Y-97750380D01*
X146740428Y-98131333D02*
X146835666Y-98083714D01*
X147026142Y-98083714D01*
X147121380Y-98131333D01*
X147169000Y-98178952D01*
X147216619Y-98274190D01*
X147216619Y-98559904D01*
X147169000Y-98655142D01*
X147121380Y-98702761D01*
X147026142Y-98750380D01*
X146835666Y-98750380D01*
X146740428Y-98702761D01*
X147645190Y-98750380D02*
X147645190Y-98083714D01*
X147645190Y-98274190D02*
X147692809Y-98178952D01*
X147740428Y-98131333D01*
X147835666Y-98083714D01*
X147930904Y-98083714D01*
X148407095Y-98750380D02*
X148311857Y-98702761D01*
X148264238Y-98655142D01*
X148216619Y-98559904D01*
X148216619Y-98274190D01*
X148264238Y-98178952D01*
X148311857Y-98131333D01*
X148407095Y-98083714D01*
X148549952Y-98083714D01*
X148645190Y-98131333D01*
X148692809Y-98178952D01*
X148740428Y-98274190D01*
X148740428Y-98559904D01*
X148692809Y-98655142D01*
X148645190Y-98702761D01*
X148549952Y-98750380D01*
X148407095Y-98750380D01*
X155995714Y-135238857D02*
X156995714Y-135238857D01*
X156043333Y-135238857D02*
X155995714Y-135143619D01*
X155995714Y-134953142D01*
X156043333Y-134857904D01*
X156090952Y-134810285D01*
X156186190Y-134762666D01*
X156471904Y-134762666D01*
X156567142Y-134810285D01*
X156614761Y-134857904D01*
X156662380Y-134953142D01*
X156662380Y-135143619D01*
X156614761Y-135238857D01*
X156662380Y-133905523D02*
X156138571Y-133905523D01*
X156043333Y-133953142D01*
X155995714Y-134048380D01*
X155995714Y-134238857D01*
X156043333Y-134334095D01*
X156614761Y-133905523D02*
X156662380Y-134000761D01*
X156662380Y-134238857D01*
X156614761Y-134334095D01*
X156519523Y-134381714D01*
X156424285Y-134381714D01*
X156329047Y-134334095D01*
X156281428Y-134238857D01*
X156281428Y-134000761D01*
X156233809Y-133905523D01*
X155995714Y-133524571D02*
X156662380Y-133286476D01*
X155995714Y-133048380D01*
X156662380Y-132524571D02*
X156614761Y-132619809D01*
X156519523Y-132667428D01*
X155662380Y-132667428D01*
X156662380Y-132000761D02*
X156614761Y-132096000D01*
X156567142Y-132143619D01*
X156471904Y-132191238D01*
X156186190Y-132191238D01*
X156090952Y-132143619D01*
X156043333Y-132096000D01*
X155995714Y-132000761D01*
X155995714Y-131857904D01*
X156043333Y-131762666D01*
X156090952Y-131715047D01*
X156186190Y-131667428D01*
X156471904Y-131667428D01*
X156567142Y-131715047D01*
X156614761Y-131762666D01*
X156662380Y-131857904D01*
X156662380Y-132000761D01*
X155995714Y-131334095D02*
X156662380Y-131096000D01*
X155995714Y-130857904D01*
X140660380Y-134786333D02*
X140612761Y-134881571D01*
X140565142Y-134929190D01*
X140469904Y-134976809D01*
X140184190Y-134976809D01*
X140088952Y-134929190D01*
X140041333Y-134881571D01*
X139993714Y-134786333D01*
X139993714Y-134643476D01*
X140041333Y-134548238D01*
X140088952Y-134500619D01*
X140184190Y-134453000D01*
X140469904Y-134453000D01*
X140565142Y-134500619D01*
X140612761Y-134548238D01*
X140660380Y-134643476D01*
X140660380Y-134786333D01*
X139993714Y-133595857D02*
X140803238Y-133595857D01*
X140898476Y-133643476D01*
X140946095Y-133691095D01*
X140993714Y-133786333D01*
X140993714Y-133929190D01*
X140946095Y-134024428D01*
X140612761Y-133595857D02*
X140660380Y-133691095D01*
X140660380Y-133881571D01*
X140612761Y-133976809D01*
X140565142Y-134024428D01*
X140469904Y-134072047D01*
X140184190Y-134072047D01*
X140088952Y-134024428D01*
X140041333Y-133976809D01*
X139993714Y-133881571D01*
X139993714Y-133691095D01*
X140041333Y-133595857D01*
X139993714Y-133119666D02*
X140993714Y-133119666D01*
X140041333Y-133119666D02*
X139993714Y-133024428D01*
X139993714Y-132833952D01*
X140041333Y-132738714D01*
X140088952Y-132691095D01*
X140184190Y-132643476D01*
X140469904Y-132643476D01*
X140565142Y-132691095D01*
X140612761Y-132738714D01*
X140660380Y-132833952D01*
X140660380Y-133024428D01*
X140612761Y-133119666D01*
X140612761Y-131833952D02*
X140660380Y-131929190D01*
X140660380Y-132119666D01*
X140612761Y-132214904D01*
X140517523Y-132262523D01*
X140136571Y-132262523D01*
X140041333Y-132214904D01*
X139993714Y-132119666D01*
X139993714Y-131929190D01*
X140041333Y-131833952D01*
X140136571Y-131786333D01*
X140231809Y-131786333D01*
X140327047Y-132262523D01*
X139993714Y-131500619D02*
X139993714Y-131119666D01*
X139660380Y-131357761D02*
X140517523Y-131357761D01*
X140612761Y-131310142D01*
X140660380Y-131214904D01*
X140660380Y-131119666D01*
X140660380Y-130786333D02*
X139993714Y-130786333D01*
X140184190Y-130786333D02*
X140088952Y-130738714D01*
X140041333Y-130691095D01*
X139993714Y-130595857D01*
X139993714Y-130500619D01*
X140660380Y-130024428D02*
X140612761Y-130119666D01*
X140565142Y-130167285D01*
X140469904Y-130214904D01*
X140184190Y-130214904D01*
X140088952Y-130167285D01*
X140041333Y-130119666D01*
X139993714Y-130024428D01*
X139993714Y-129881571D01*
X140041333Y-129786333D01*
X140088952Y-129738714D01*
X140184190Y-129691095D01*
X140469904Y-129691095D01*
X140565142Y-129738714D01*
X140612761Y-129786333D01*
X140660380Y-129881571D01*
X140660380Y-130024428D01*
X139993714Y-129357761D02*
X140660380Y-129119666D01*
X139993714Y-128881571D01*
X99807571Y-120927761D02*
X99950428Y-120975380D01*
X100188523Y-120975380D01*
X100283761Y-120927761D01*
X100331380Y-120880142D01*
X100379000Y-120784904D01*
X100379000Y-120689666D01*
X100331380Y-120594428D01*
X100283761Y-120546809D01*
X100188523Y-120499190D01*
X99998047Y-120451571D01*
X99902809Y-120403952D01*
X99855190Y-120356333D01*
X99807571Y-120261095D01*
X99807571Y-120165857D01*
X99855190Y-120070619D01*
X99902809Y-120023000D01*
X99998047Y-119975380D01*
X100236142Y-119975380D01*
X100379000Y-120023000D01*
X101236142Y-120975380D02*
X101236142Y-120451571D01*
X101188523Y-120356333D01*
X101093285Y-120308714D01*
X100902809Y-120308714D01*
X100807571Y-120356333D01*
X101236142Y-120927761D02*
X101140904Y-120975380D01*
X100902809Y-120975380D01*
X100807571Y-120927761D01*
X100759952Y-120832523D01*
X100759952Y-120737285D01*
X100807571Y-120642047D01*
X100902809Y-120594428D01*
X101140904Y-120594428D01*
X101236142Y-120546809D01*
X101712333Y-120975380D02*
X101712333Y-119975380D01*
X101807571Y-120594428D02*
X102093285Y-120975380D01*
X102093285Y-120308714D02*
X101712333Y-120689666D01*
X102521857Y-120975380D02*
X102521857Y-119975380D01*
X102950428Y-120975380D02*
X102950428Y-120451571D01*
X102902809Y-120356333D01*
X102807571Y-120308714D01*
X102664714Y-120308714D01*
X102569476Y-120356333D01*
X102521857Y-120403952D01*
X103855190Y-120975380D02*
X103855190Y-120451571D01*
X103807571Y-120356333D01*
X103712333Y-120308714D01*
X103521857Y-120308714D01*
X103426619Y-120356333D01*
X103855190Y-120927761D02*
X103759952Y-120975380D01*
X103521857Y-120975380D01*
X103426619Y-120927761D01*
X103379000Y-120832523D01*
X103379000Y-120737285D01*
X103426619Y-120642047D01*
X103521857Y-120594428D01*
X103759952Y-120594428D01*
X103855190Y-120546809D01*
X105045666Y-120689666D02*
X105521857Y-120689666D01*
X104950428Y-120975380D02*
X105283761Y-119975380D01*
X105617095Y-120975380D01*
X106331380Y-120927761D02*
X106236142Y-120975380D01*
X106045666Y-120975380D01*
X105950428Y-120927761D01*
X105902809Y-120832523D01*
X105902809Y-120451571D01*
X105950428Y-120356333D01*
X106045666Y-120308714D01*
X106236142Y-120308714D01*
X106331380Y-120356333D01*
X106379000Y-120451571D01*
X106379000Y-120546809D01*
X105902809Y-120642047D01*
X106807571Y-120975380D02*
X106807571Y-120308714D01*
X106807571Y-120499190D02*
X106855190Y-120403952D01*
X106902809Y-120356333D01*
X106998047Y-120308714D01*
X107093285Y-120308714D01*
X107569476Y-120975380D02*
X107474238Y-120927761D01*
X107426619Y-120880142D01*
X107379000Y-120784904D01*
X107379000Y-120499190D01*
X107426619Y-120403952D01*
X107474238Y-120356333D01*
X107569476Y-120308714D01*
X107712333Y-120308714D01*
X107807571Y-120356333D01*
X107855190Y-120403952D01*
X107902809Y-120499190D01*
X107902809Y-120784904D01*
X107855190Y-120880142D01*
X107807571Y-120927761D01*
X107712333Y-120975380D01*
X107569476Y-120975380D01*
X108283761Y-120927761D02*
X108379000Y-120975380D01*
X108569476Y-120975380D01*
X108664714Y-120927761D01*
X108712333Y-120832523D01*
X108712333Y-120784904D01*
X108664714Y-120689666D01*
X108569476Y-120642047D01*
X108426619Y-120642047D01*
X108331380Y-120594428D01*
X108283761Y-120499190D01*
X108283761Y-120451571D01*
X108331380Y-120356333D01*
X108426619Y-120308714D01*
X108569476Y-120308714D01*
X108664714Y-120356333D01*
X109140904Y-120308714D02*
X109140904Y-121308714D01*
X109140904Y-120356333D02*
X109236142Y-120308714D01*
X109426619Y-120308714D01*
X109521857Y-120356333D01*
X109569476Y-120403952D01*
X109617095Y-120499190D01*
X109617095Y-120784904D01*
X109569476Y-120880142D01*
X109521857Y-120927761D01*
X109426619Y-120975380D01*
X109236142Y-120975380D01*
X109140904Y-120927761D01*
X110474238Y-120975380D02*
X110474238Y-120451571D01*
X110426619Y-120356333D01*
X110331380Y-120308714D01*
X110140904Y-120308714D01*
X110045666Y-120356333D01*
X110474238Y-120927761D02*
X110379000Y-120975380D01*
X110140904Y-120975380D01*
X110045666Y-120927761D01*
X109998047Y-120832523D01*
X109998047Y-120737285D01*
X110045666Y-120642047D01*
X110140904Y-120594428D01*
X110379000Y-120594428D01*
X110474238Y-120546809D01*
X111379000Y-120927761D02*
X111283761Y-120975380D01*
X111093285Y-120975380D01*
X110998047Y-120927761D01*
X110950428Y-120880142D01*
X110902809Y-120784904D01*
X110902809Y-120499190D01*
X110950428Y-120403952D01*
X110998047Y-120356333D01*
X111093285Y-120308714D01*
X111283761Y-120308714D01*
X111379000Y-120356333D01*
X112188523Y-120927761D02*
X112093285Y-120975380D01*
X111902809Y-120975380D01*
X111807571Y-120927761D01*
X111759952Y-120832523D01*
X111759952Y-120451571D01*
X111807571Y-120356333D01*
X111902809Y-120308714D01*
X112093285Y-120308714D01*
X112188523Y-120356333D01*
X112236142Y-120451571D01*
X112236142Y-120546809D01*
X111759952Y-120642047D01*
X113379000Y-120927761D02*
X113521857Y-120975380D01*
X113759952Y-120975380D01*
X113855190Y-120927761D01*
X113902809Y-120880142D01*
X113950428Y-120784904D01*
X113950428Y-120689666D01*
X113902809Y-120594428D01*
X113855190Y-120546809D01*
X113759952Y-120499190D01*
X113569476Y-120451571D01*
X113474238Y-120403952D01*
X113426619Y-120356333D01*
X113379000Y-120261095D01*
X113379000Y-120165857D01*
X113426619Y-120070619D01*
X113474238Y-120023000D01*
X113569476Y-119975380D01*
X113807571Y-119975380D01*
X113950428Y-120023000D01*
X114283761Y-120308714D02*
X114521857Y-120975380D01*
X114759952Y-120308714D02*
X114521857Y-120975380D01*
X114426619Y-121213476D01*
X114379000Y-121261095D01*
X114283761Y-121308714D01*
X115093285Y-120927761D02*
X115188523Y-120975380D01*
X115379000Y-120975380D01*
X115474238Y-120927761D01*
X115521857Y-120832523D01*
X115521857Y-120784904D01*
X115474238Y-120689666D01*
X115379000Y-120642047D01*
X115236142Y-120642047D01*
X115140904Y-120594428D01*
X115093285Y-120499190D01*
X115093285Y-120451571D01*
X115140904Y-120356333D01*
X115236142Y-120308714D01*
X115379000Y-120308714D01*
X115474238Y-120356333D01*
X115807571Y-120308714D02*
X116188523Y-120308714D01*
X115950428Y-119975380D02*
X115950428Y-120832523D01*
X115998047Y-120927761D01*
X116093285Y-120975380D01*
X116188523Y-120975380D01*
X116902809Y-120927761D02*
X116807571Y-120975380D01*
X116617095Y-120975380D01*
X116521857Y-120927761D01*
X116474238Y-120832523D01*
X116474238Y-120451571D01*
X116521857Y-120356333D01*
X116617095Y-120308714D01*
X116807571Y-120308714D01*
X116902809Y-120356333D01*
X116950428Y-120451571D01*
X116950428Y-120546809D01*
X116474238Y-120642047D01*
X117379000Y-120975380D02*
X117379000Y-120308714D01*
X117379000Y-120403952D02*
X117426619Y-120356333D01*
X117521857Y-120308714D01*
X117664714Y-120308714D01*
X117759952Y-120356333D01*
X117807571Y-120451571D01*
X117807571Y-120975380D01*
X117807571Y-120451571D02*
X117855190Y-120356333D01*
X117950428Y-120308714D01*
X118093285Y-120308714D01*
X118188523Y-120356333D01*
X118236142Y-120451571D01*
X118236142Y-120975380D01*
X118664714Y-120927761D02*
X118759952Y-120975380D01*
X118950428Y-120975380D01*
X119045666Y-120927761D01*
X119093285Y-120832523D01*
X119093285Y-120784904D01*
X119045666Y-120689666D01*
X118950428Y-120642047D01*
X118807571Y-120642047D01*
X118712333Y-120594428D01*
X118664714Y-120499190D01*
X118664714Y-120451571D01*
X118712333Y-120356333D01*
X118807571Y-120308714D01*
X118950428Y-120308714D01*
X119045666Y-120356333D01*
X119569476Y-120927761D02*
X119569476Y-120975380D01*
X119521857Y-121070619D01*
X119474238Y-121118238D01*
X121236142Y-120975380D02*
X120759952Y-120975380D01*
X120759952Y-119975380D01*
X122045666Y-120975380D02*
X121569476Y-120975380D01*
X121569476Y-119975380D01*
X122950428Y-120880142D02*
X122902809Y-120927761D01*
X122759952Y-120975380D01*
X122664714Y-120975380D01*
X122521857Y-120927761D01*
X122426619Y-120832523D01*
X122379000Y-120737285D01*
X122331380Y-120546809D01*
X122331380Y-120403952D01*
X122379000Y-120213476D01*
X122426619Y-120118238D01*
X122521857Y-120023000D01*
X122664714Y-119975380D01*
X122759952Y-119975380D01*
X122902809Y-120023000D01*
X122950428Y-120070619D01*
X174386904Y-146216666D02*
X174863095Y-146216666D01*
X174291666Y-146502380D02*
X174625000Y-145502380D01*
X174958333Y-146502380D01*
X177395142Y-114323666D02*
X177442761Y-114371285D01*
X177490380Y-114514142D01*
X177490380Y-114609380D01*
X177442761Y-114752238D01*
X177347523Y-114847476D01*
X177252285Y-114895095D01*
X177061809Y-114942714D01*
X176918952Y-114942714D01*
X176728476Y-114895095D01*
X176633238Y-114847476D01*
X176538000Y-114752238D01*
X176490380Y-114609380D01*
X176490380Y-114514142D01*
X176538000Y-114371285D01*
X176585619Y-114323666D01*
X177204666Y-113942714D02*
X177204666Y-113466523D01*
X177490380Y-114037952D02*
X176490380Y-113704619D01*
X177490380Y-113371285D01*
X177490380Y-113037952D02*
X176490380Y-113037952D01*
X177490380Y-112466523D01*
X176490380Y-112466523D01*
X177490380Y-111990333D02*
X176490380Y-111990333D01*
X176966571Y-111990333D02*
X176966571Y-111418904D01*
X177490380Y-111418904D02*
X176490380Y-111418904D01*
X172156428Y-145978571D02*
X172299285Y-146026190D01*
X172346904Y-146073809D01*
X172394523Y-146169047D01*
X172394523Y-146311904D01*
X172346904Y-146407142D01*
X172299285Y-146454761D01*
X172204047Y-146502380D01*
X171823095Y-146502380D01*
X171823095Y-145502380D01*
X172156428Y-145502380D01*
X172251666Y-145550000D01*
X172299285Y-145597619D01*
X172346904Y-145692857D01*
X172346904Y-145788095D01*
X172299285Y-145883333D01*
X172251666Y-145930952D01*
X172156428Y-145978571D01*
X171823095Y-145978571D01*
X176561904Y-123642380D02*
X176561904Y-122642380D01*
X176942857Y-122642380D01*
X177038095Y-122690000D01*
X177085714Y-122737619D01*
X177133333Y-122832857D01*
X177133333Y-122975714D01*
X177085714Y-123070952D01*
X177038095Y-123118571D01*
X176942857Y-123166190D01*
X176561904Y-123166190D01*
X178133333Y-123547142D02*
X178085714Y-123594761D01*
X177942857Y-123642380D01*
X177847619Y-123642380D01*
X177704761Y-123594761D01*
X177609523Y-123499523D01*
X177561904Y-123404285D01*
X177514285Y-123213809D01*
X177514285Y-123070952D01*
X177561904Y-122880476D01*
X177609523Y-122785238D01*
X177704761Y-122690000D01*
X177847619Y-122642380D01*
X177942857Y-122642380D01*
X178085714Y-122690000D01*
X178133333Y-122737619D01*
X178990476Y-122975714D02*
X178990476Y-123642380D01*
X178752380Y-122594761D02*
X178514285Y-123309047D01*
X179133333Y-123309047D01*
%TO.C,U3*%
X119340380Y-74548904D02*
X120149904Y-74548904D01*
X120245142Y-74501285D01*
X120292761Y-74453666D01*
X120340380Y-74358428D01*
X120340380Y-74167952D01*
X120292761Y-74072714D01*
X120245142Y-74025095D01*
X120149904Y-73977476D01*
X119340380Y-73977476D01*
X119340380Y-73596523D02*
X119340380Y-72977476D01*
X119721333Y-73310809D01*
X119721333Y-73167952D01*
X119768952Y-73072714D01*
X119816571Y-73025095D01*
X119911809Y-72977476D01*
X120149904Y-72977476D01*
X120245142Y-73025095D01*
X120292761Y-73072714D01*
X120340380Y-73167952D01*
X120340380Y-73453666D01*
X120292761Y-73548904D01*
X120245142Y-73596523D01*
%TO.C,J3*%
X169124380Y-140160333D02*
X169838666Y-140160333D01*
X169981523Y-140207952D01*
X170076761Y-140303190D01*
X170124380Y-140446047D01*
X170124380Y-140541285D01*
X169124380Y-139779380D02*
X169124380Y-139160333D01*
X169505333Y-139493666D01*
X169505333Y-139350809D01*
X169552952Y-139255571D01*
X169600571Y-139207952D01*
X169695809Y-139160333D01*
X169933904Y-139160333D01*
X170029142Y-139207952D01*
X170076761Y-139255571D01*
X170124380Y-139350809D01*
X170124380Y-139636523D01*
X170076761Y-139731761D01*
X170029142Y-139779380D01*
%TO.C,J7*%
X94281666Y-91952380D02*
X94281666Y-92666666D01*
X94234047Y-92809523D01*
X94138809Y-92904761D01*
X93995952Y-92952380D01*
X93900714Y-92952380D01*
X94662619Y-91952380D02*
X95329285Y-91952380D01*
X94900714Y-92952380D01*
%TO.C,C4*%
X147550142Y-82208666D02*
X147597761Y-82256285D01*
X147645380Y-82399142D01*
X147645380Y-82494380D01*
X147597761Y-82637238D01*
X147502523Y-82732476D01*
X147407285Y-82780095D01*
X147216809Y-82827714D01*
X147073952Y-82827714D01*
X146883476Y-82780095D01*
X146788238Y-82732476D01*
X146693000Y-82637238D01*
X146645380Y-82494380D01*
X146645380Y-82399142D01*
X146693000Y-82256285D01*
X146740619Y-82208666D01*
X146978714Y-81351523D02*
X147645380Y-81351523D01*
X146597761Y-81589619D02*
X147312047Y-81827714D01*
X147312047Y-81208666D01*
%TO.C,C11*%
X161663142Y-81129142D02*
X161615523Y-81176761D01*
X161472666Y-81224380D01*
X161377428Y-81224380D01*
X161234571Y-81176761D01*
X161139333Y-81081523D01*
X161091714Y-80986285D01*
X161044095Y-80795809D01*
X161044095Y-80652952D01*
X161091714Y-80462476D01*
X161139333Y-80367238D01*
X161234571Y-80272000D01*
X161377428Y-80224380D01*
X161472666Y-80224380D01*
X161615523Y-80272000D01*
X161663142Y-80319619D01*
X162615523Y-81224380D02*
X162044095Y-81224380D01*
X162329809Y-81224380D02*
X162329809Y-80224380D01*
X162234571Y-80367238D01*
X162139333Y-80462476D01*
X162044095Y-80510095D01*
X163567904Y-81224380D02*
X162996476Y-81224380D01*
X163282190Y-81224380D02*
X163282190Y-80224380D01*
X163186952Y-80367238D01*
X163091714Y-80462476D01*
X162996476Y-80510095D01*
%TO.C,C13*%
X157169142Y-95050857D02*
X157216761Y-95098476D01*
X157264380Y-95241333D01*
X157264380Y-95336571D01*
X157216761Y-95479428D01*
X157121523Y-95574666D01*
X157026285Y-95622285D01*
X156835809Y-95669904D01*
X156692952Y-95669904D01*
X156502476Y-95622285D01*
X156407238Y-95574666D01*
X156312000Y-95479428D01*
X156264380Y-95336571D01*
X156264380Y-95241333D01*
X156312000Y-95098476D01*
X156359619Y-95050857D01*
X157264380Y-94098476D02*
X157264380Y-94669904D01*
X157264380Y-94384190D02*
X156264380Y-94384190D01*
X156407238Y-94479428D01*
X156502476Y-94574666D01*
X156550095Y-94669904D01*
X156264380Y-93765142D02*
X156264380Y-93146095D01*
X156645333Y-93479428D01*
X156645333Y-93336571D01*
X156692952Y-93241333D01*
X156740571Y-93193714D01*
X156835809Y-93146095D01*
X157073904Y-93146095D01*
X157169142Y-93193714D01*
X157216761Y-93241333D01*
X157264380Y-93336571D01*
X157264380Y-93622285D01*
X157216761Y-93717523D01*
X157169142Y-93765142D01*
%TO.C,CH1*%
X165584142Y-99750476D02*
X165631761Y-99798095D01*
X165679380Y-99940952D01*
X165679380Y-100036190D01*
X165631761Y-100179047D01*
X165536523Y-100274285D01*
X165441285Y-100321904D01*
X165250809Y-100369523D01*
X165107952Y-100369523D01*
X164917476Y-100321904D01*
X164822238Y-100274285D01*
X164727000Y-100179047D01*
X164679380Y-100036190D01*
X164679380Y-99940952D01*
X164727000Y-99798095D01*
X164774619Y-99750476D01*
X165679380Y-99321904D02*
X164679380Y-99321904D01*
X165155571Y-99321904D02*
X165155571Y-98750476D01*
X165679380Y-98750476D02*
X164679380Y-98750476D01*
X165679380Y-97750476D02*
X165679380Y-98321904D01*
X165679380Y-98036190D02*
X164679380Y-98036190D01*
X164822238Y-98131428D01*
X164917476Y-98226666D01*
X164965095Y-98321904D01*
%TO.C,CL1*%
X159615142Y-99250428D02*
X159662761Y-99298047D01*
X159710380Y-99440904D01*
X159710380Y-99536142D01*
X159662761Y-99679000D01*
X159567523Y-99774238D01*
X159472285Y-99821857D01*
X159281809Y-99869476D01*
X159138952Y-99869476D01*
X158948476Y-99821857D01*
X158853238Y-99774238D01*
X158758000Y-99679000D01*
X158710380Y-99536142D01*
X158710380Y-99440904D01*
X158758000Y-99298047D01*
X158805619Y-99250428D01*
X159710380Y-98345666D02*
X159710380Y-98821857D01*
X158710380Y-98821857D01*
X159710380Y-97488523D02*
X159710380Y-98059952D01*
X159710380Y-97774238D02*
X158710380Y-97774238D01*
X158853238Y-97869476D01*
X158948476Y-97964714D01*
X158996095Y-98059952D01*
%TO.C,FL1*%
X161186904Y-102417571D02*
X160853571Y-102417571D01*
X160853571Y-102941380D02*
X160853571Y-101941380D01*
X161329761Y-101941380D01*
X162186904Y-102941380D02*
X161710714Y-102941380D01*
X161710714Y-101941380D01*
X163044047Y-102941380D02*
X162472619Y-102941380D01*
X162758333Y-102941380D02*
X162758333Y-101941380D01*
X162663095Y-102084238D01*
X162567857Y-102179476D01*
X162472619Y-102227095D01*
%TO.C,C15*%
X158742142Y-90400142D02*
X158694523Y-90447761D01*
X158551666Y-90495380D01*
X158456428Y-90495380D01*
X158313571Y-90447761D01*
X158218333Y-90352523D01*
X158170714Y-90257285D01*
X158123095Y-90066809D01*
X158123095Y-89923952D01*
X158170714Y-89733476D01*
X158218333Y-89638238D01*
X158313571Y-89543000D01*
X158456428Y-89495380D01*
X158551666Y-89495380D01*
X158694523Y-89543000D01*
X158742142Y-89590619D01*
X159694523Y-90495380D02*
X159123095Y-90495380D01*
X159408809Y-90495380D02*
X159408809Y-89495380D01*
X159313571Y-89638238D01*
X159218333Y-89733476D01*
X159123095Y-89781095D01*
X160599285Y-89495380D02*
X160123095Y-89495380D01*
X160075476Y-89971571D01*
X160123095Y-89923952D01*
X160218333Y-89876333D01*
X160456428Y-89876333D01*
X160551666Y-89923952D01*
X160599285Y-89971571D01*
X160646904Y-90066809D01*
X160646904Y-90304904D01*
X160599285Y-90400142D01*
X160551666Y-90447761D01*
X160456428Y-90495380D01*
X160218333Y-90495380D01*
X160123095Y-90447761D01*
X160075476Y-90400142D01*
%TO.C,H5*%
X110490095Y-82748380D02*
X110490095Y-81748380D01*
X110490095Y-82224571D02*
X111061523Y-82224571D01*
X111061523Y-82748380D02*
X111061523Y-81748380D01*
X112013904Y-81748380D02*
X111537714Y-81748380D01*
X111490095Y-82224571D01*
X111537714Y-82176952D01*
X111632952Y-82129333D01*
X111871047Y-82129333D01*
X111966285Y-82176952D01*
X112013904Y-82224571D01*
X112061523Y-82319809D01*
X112061523Y-82557904D01*
X112013904Y-82653142D01*
X111966285Y-82700761D01*
X111871047Y-82748380D01*
X111632952Y-82748380D01*
X111537714Y-82700761D01*
X111490095Y-82653142D01*
%TO.C,H6*%
X110617095Y-70810380D02*
X110617095Y-69810380D01*
X110617095Y-70286571D02*
X111188523Y-70286571D01*
X111188523Y-70810380D02*
X111188523Y-69810380D01*
X112093285Y-69810380D02*
X111902809Y-69810380D01*
X111807571Y-69858000D01*
X111759952Y-69905619D01*
X111664714Y-70048476D01*
X111617095Y-70238952D01*
X111617095Y-70619904D01*
X111664714Y-70715142D01*
X111712333Y-70762761D01*
X111807571Y-70810380D01*
X111998047Y-70810380D01*
X112093285Y-70762761D01*
X112140904Y-70715142D01*
X112188523Y-70619904D01*
X112188523Y-70381809D01*
X112140904Y-70286571D01*
X112093285Y-70238952D01*
X111998047Y-70191333D01*
X111807571Y-70191333D01*
X111712333Y-70238952D01*
X111664714Y-70286571D01*
X111617095Y-70381809D01*
%TO.C,H7*%
X165354095Y-70810380D02*
X165354095Y-69810380D01*
X165354095Y-70286571D02*
X165925523Y-70286571D01*
X165925523Y-70810380D02*
X165925523Y-69810380D01*
X166306476Y-69810380D02*
X166973142Y-69810380D01*
X166544571Y-70810380D01*
%TO.C,H8*%
X165354095Y-82748380D02*
X165354095Y-81748380D01*
X165354095Y-82224571D02*
X165925523Y-82224571D01*
X165925523Y-82748380D02*
X165925523Y-81748380D01*
X166544571Y-82176952D02*
X166449333Y-82129333D01*
X166401714Y-82081714D01*
X166354095Y-81986476D01*
X166354095Y-81938857D01*
X166401714Y-81843619D01*
X166449333Y-81796000D01*
X166544571Y-81748380D01*
X166735047Y-81748380D01*
X166830285Y-81796000D01*
X166877904Y-81843619D01*
X166925523Y-81938857D01*
X166925523Y-81986476D01*
X166877904Y-82081714D01*
X166830285Y-82129333D01*
X166735047Y-82176952D01*
X166544571Y-82176952D01*
X166449333Y-82224571D01*
X166401714Y-82272190D01*
X166354095Y-82367428D01*
X166354095Y-82557904D01*
X166401714Y-82653142D01*
X166449333Y-82700761D01*
X166544571Y-82748380D01*
X166735047Y-82748380D01*
X166830285Y-82700761D01*
X166877904Y-82653142D01*
X166925523Y-82557904D01*
X166925523Y-82367428D01*
X166877904Y-82272190D01*
X166830285Y-82224571D01*
X166735047Y-82176952D01*
%TO.C,J2*%
X112863380Y-76137333D02*
X113577666Y-76137333D01*
X113720523Y-76184952D01*
X113815761Y-76280190D01*
X113863380Y-76423047D01*
X113863380Y-76518285D01*
X112958619Y-75708761D02*
X112911000Y-75661142D01*
X112863380Y-75565904D01*
X112863380Y-75327809D01*
X112911000Y-75232571D01*
X112958619Y-75184952D01*
X113053857Y-75137333D01*
X113149095Y-75137333D01*
X113291952Y-75184952D01*
X113863380Y-75756380D01*
X113863380Y-75137333D01*
%TO.C,J5*%
X94281666Y-120014380D02*
X94281666Y-120728666D01*
X94234047Y-120871523D01*
X94138809Y-120966761D01*
X93995952Y-121014380D01*
X93900714Y-121014380D01*
X95234047Y-120014380D02*
X94757857Y-120014380D01*
X94710238Y-120490571D01*
X94757857Y-120442952D01*
X94853095Y-120395333D01*
X95091190Y-120395333D01*
X95186428Y-120442952D01*
X95234047Y-120490571D01*
X95281666Y-120585809D01*
X95281666Y-120823904D01*
X95234047Y-120919142D01*
X95186428Y-120966761D01*
X95091190Y-121014380D01*
X94853095Y-121014380D01*
X94757857Y-120966761D01*
X94710238Y-120919142D01*
%TO.C,L1*%
X148407380Y-72556666D02*
X148407380Y-73032857D01*
X147407380Y-73032857D01*
X148407380Y-71699523D02*
X148407380Y-72270952D01*
X148407380Y-71985238D02*
X147407380Y-71985238D01*
X147550238Y-72080476D01*
X147645476Y-72175714D01*
X147693095Y-72270952D01*
%TO.C,R11*%
X128468380Y-76715857D02*
X127992190Y-77049190D01*
X128468380Y-77287285D02*
X127468380Y-77287285D01*
X127468380Y-76906333D01*
X127516000Y-76811095D01*
X127563619Y-76763476D01*
X127658857Y-76715857D01*
X127801714Y-76715857D01*
X127896952Y-76763476D01*
X127944571Y-76811095D01*
X127992190Y-76906333D01*
X127992190Y-77287285D01*
X128468380Y-75763476D02*
X128468380Y-76334904D01*
X128468380Y-76049190D02*
X127468380Y-76049190D01*
X127611238Y-76144428D01*
X127706476Y-76239666D01*
X127754095Y-76334904D01*
X128468380Y-74811095D02*
X128468380Y-75382523D01*
X128468380Y-75096809D02*
X127468380Y-75096809D01*
X127611238Y-75192047D01*
X127706476Y-75287285D01*
X127754095Y-75382523D01*
%TO.C,R12*%
X126230142Y-79192380D02*
X125896809Y-78716190D01*
X125658714Y-79192380D02*
X125658714Y-78192380D01*
X126039666Y-78192380D01*
X126134904Y-78240000D01*
X126182523Y-78287619D01*
X126230142Y-78382857D01*
X126230142Y-78525714D01*
X126182523Y-78620952D01*
X126134904Y-78668571D01*
X126039666Y-78716190D01*
X125658714Y-78716190D01*
X127182523Y-79192380D02*
X126611095Y-79192380D01*
X126896809Y-79192380D02*
X126896809Y-78192380D01*
X126801571Y-78335238D01*
X126706333Y-78430476D01*
X126611095Y-78478095D01*
X127563476Y-78287619D02*
X127611095Y-78240000D01*
X127706333Y-78192380D01*
X127944428Y-78192380D01*
X128039666Y-78240000D01*
X128087285Y-78287619D01*
X128134904Y-78382857D01*
X128134904Y-78478095D01*
X128087285Y-78620952D01*
X127515857Y-79192380D01*
X128134904Y-79192380D01*
%TO.C,R13*%
X126103142Y-70810380D02*
X125769809Y-70334190D01*
X125531714Y-70810380D02*
X125531714Y-69810380D01*
X125912666Y-69810380D01*
X126007904Y-69858000D01*
X126055523Y-69905619D01*
X126103142Y-70000857D01*
X126103142Y-70143714D01*
X126055523Y-70238952D01*
X126007904Y-70286571D01*
X125912666Y-70334190D01*
X125531714Y-70334190D01*
X127055523Y-70810380D02*
X126484095Y-70810380D01*
X126769809Y-70810380D02*
X126769809Y-69810380D01*
X126674571Y-69953238D01*
X126579333Y-70048476D01*
X126484095Y-70096095D01*
X127388857Y-69810380D02*
X128007904Y-69810380D01*
X127674571Y-70191333D01*
X127817428Y-70191333D01*
X127912666Y-70238952D01*
X127960285Y-70286571D01*
X128007904Y-70381809D01*
X128007904Y-70619904D01*
X127960285Y-70715142D01*
X127912666Y-70762761D01*
X127817428Y-70810380D01*
X127531714Y-70810380D01*
X127436476Y-70762761D01*
X127388857Y-70715142D01*
%TO.C,R16*%
X126790380Y-68714857D02*
X126314190Y-69048190D01*
X126790380Y-69286285D02*
X125790380Y-69286285D01*
X125790380Y-68905333D01*
X125838000Y-68810095D01*
X125885619Y-68762476D01*
X125980857Y-68714857D01*
X126123714Y-68714857D01*
X126218952Y-68762476D01*
X126266571Y-68810095D01*
X126314190Y-68905333D01*
X126314190Y-69286285D01*
X126790380Y-67762476D02*
X126790380Y-68333904D01*
X126790380Y-68048190D02*
X125790380Y-68048190D01*
X125933238Y-68143428D01*
X126028476Y-68238666D01*
X126076095Y-68333904D01*
X125790380Y-66905333D02*
X125790380Y-67095809D01*
X125838000Y-67191047D01*
X125885619Y-67238666D01*
X126028476Y-67333904D01*
X126218952Y-67381523D01*
X126599904Y-67381523D01*
X126695142Y-67333904D01*
X126742761Y-67286285D01*
X126790380Y-67191047D01*
X126790380Y-67000571D01*
X126742761Y-66905333D01*
X126695142Y-66857714D01*
X126599904Y-66810095D01*
X126361809Y-66810095D01*
X126266571Y-66857714D01*
X126218952Y-66905333D01*
X126171333Y-67000571D01*
X126171333Y-67191047D01*
X126218952Y-67286285D01*
X126266571Y-67333904D01*
X126361809Y-67381523D01*
%TO.C,R27*%
X132913380Y-106306857D02*
X132437190Y-106640190D01*
X132913380Y-106878285D02*
X131913380Y-106878285D01*
X131913380Y-106497333D01*
X131961000Y-106402095D01*
X132008619Y-106354476D01*
X132103857Y-106306857D01*
X132246714Y-106306857D01*
X132341952Y-106354476D01*
X132389571Y-106402095D01*
X132437190Y-106497333D01*
X132437190Y-106878285D01*
X132008619Y-105925904D02*
X131961000Y-105878285D01*
X131913380Y-105783047D01*
X131913380Y-105544952D01*
X131961000Y-105449714D01*
X132008619Y-105402095D01*
X132103857Y-105354476D01*
X132199095Y-105354476D01*
X132341952Y-105402095D01*
X132913380Y-105973523D01*
X132913380Y-105354476D01*
X131913380Y-105021142D02*
X131913380Y-104354476D01*
X132913380Y-104783047D01*
%TO.C,R28*%
X155567142Y-81732380D02*
X155233809Y-81256190D01*
X154995714Y-81732380D02*
X154995714Y-80732380D01*
X155376666Y-80732380D01*
X155471904Y-80780000D01*
X155519523Y-80827619D01*
X155567142Y-80922857D01*
X155567142Y-81065714D01*
X155519523Y-81160952D01*
X155471904Y-81208571D01*
X155376666Y-81256190D01*
X154995714Y-81256190D01*
X155948095Y-80827619D02*
X155995714Y-80780000D01*
X156090952Y-80732380D01*
X156329047Y-80732380D01*
X156424285Y-80780000D01*
X156471904Y-80827619D01*
X156519523Y-80922857D01*
X156519523Y-81018095D01*
X156471904Y-81160952D01*
X155900476Y-81732380D01*
X156519523Y-81732380D01*
X157090952Y-81160952D02*
X156995714Y-81113333D01*
X156948095Y-81065714D01*
X156900476Y-80970476D01*
X156900476Y-80922857D01*
X156948095Y-80827619D01*
X156995714Y-80780000D01*
X157090952Y-80732380D01*
X157281428Y-80732380D01*
X157376666Y-80780000D01*
X157424285Y-80827619D01*
X157471904Y-80922857D01*
X157471904Y-80970476D01*
X157424285Y-81065714D01*
X157376666Y-81113333D01*
X157281428Y-81160952D01*
X157090952Y-81160952D01*
X156995714Y-81208571D01*
X156948095Y-81256190D01*
X156900476Y-81351428D01*
X156900476Y-81541904D01*
X156948095Y-81637142D01*
X156995714Y-81684761D01*
X157090952Y-81732380D01*
X157281428Y-81732380D01*
X157376666Y-81684761D01*
X157424285Y-81637142D01*
X157471904Y-81541904D01*
X157471904Y-81351428D01*
X157424285Y-81256190D01*
X157376666Y-81208571D01*
X157281428Y-81160952D01*
%TO.C,R29*%
X156329142Y-70937380D02*
X155995809Y-70461190D01*
X155757714Y-70937380D02*
X155757714Y-69937380D01*
X156138666Y-69937380D01*
X156233904Y-69985000D01*
X156281523Y-70032619D01*
X156329142Y-70127857D01*
X156329142Y-70270714D01*
X156281523Y-70365952D01*
X156233904Y-70413571D01*
X156138666Y-70461190D01*
X155757714Y-70461190D01*
X156710095Y-70032619D02*
X156757714Y-69985000D01*
X156852952Y-69937380D01*
X157091047Y-69937380D01*
X157186285Y-69985000D01*
X157233904Y-70032619D01*
X157281523Y-70127857D01*
X157281523Y-70223095D01*
X157233904Y-70365952D01*
X156662476Y-70937380D01*
X157281523Y-70937380D01*
X157757714Y-70937380D02*
X157948190Y-70937380D01*
X158043428Y-70889761D01*
X158091047Y-70842142D01*
X158186285Y-70699285D01*
X158233904Y-70508809D01*
X158233904Y-70127857D01*
X158186285Y-70032619D01*
X158138666Y-69985000D01*
X158043428Y-69937380D01*
X157852952Y-69937380D01*
X157757714Y-69985000D01*
X157710095Y-70032619D01*
X157662476Y-70127857D01*
X157662476Y-70365952D01*
X157710095Y-70461190D01*
X157757714Y-70508809D01*
X157852952Y-70556428D01*
X158043428Y-70556428D01*
X158138666Y-70508809D01*
X158186285Y-70461190D01*
X158233904Y-70365952D01*
%TO.C,R30*%
X150233142Y-70175380D02*
X149899809Y-69699190D01*
X149661714Y-70175380D02*
X149661714Y-69175380D01*
X150042666Y-69175380D01*
X150137904Y-69223000D01*
X150185523Y-69270619D01*
X150233142Y-69365857D01*
X150233142Y-69508714D01*
X150185523Y-69603952D01*
X150137904Y-69651571D01*
X150042666Y-69699190D01*
X149661714Y-69699190D01*
X150566476Y-69175380D02*
X151185523Y-69175380D01*
X150852190Y-69556333D01*
X150995047Y-69556333D01*
X151090285Y-69603952D01*
X151137904Y-69651571D01*
X151185523Y-69746809D01*
X151185523Y-69984904D01*
X151137904Y-70080142D01*
X151090285Y-70127761D01*
X150995047Y-70175380D01*
X150709333Y-70175380D01*
X150614095Y-70127761D01*
X150566476Y-70080142D01*
X151804571Y-69175380D02*
X151899809Y-69175380D01*
X151995047Y-69223000D01*
X152042666Y-69270619D01*
X152090285Y-69365857D01*
X152137904Y-69556333D01*
X152137904Y-69794428D01*
X152090285Y-69984904D01*
X152042666Y-70080142D01*
X151995047Y-70127761D01*
X151899809Y-70175380D01*
X151804571Y-70175380D01*
X151709333Y-70127761D01*
X151661714Y-70080142D01*
X151614095Y-69984904D01*
X151566476Y-69794428D01*
X151566476Y-69556333D01*
X151614095Y-69365857D01*
X151661714Y-69270619D01*
X151709333Y-69223000D01*
X151804571Y-69175380D01*
%TO.C,U5*%
X125730095Y-101581380D02*
X125730095Y-102390904D01*
X125777714Y-102486142D01*
X125825333Y-102533761D01*
X125920571Y-102581380D01*
X126111047Y-102581380D01*
X126206285Y-102533761D01*
X126253904Y-102486142D01*
X126301523Y-102390904D01*
X126301523Y-101581380D01*
X127253904Y-101581380D02*
X126777714Y-101581380D01*
X126730095Y-102057571D01*
X126777714Y-102009952D01*
X126872952Y-101962333D01*
X127111047Y-101962333D01*
X127206285Y-102009952D01*
X127253904Y-102057571D01*
X127301523Y-102152809D01*
X127301523Y-102390904D01*
X127253904Y-102486142D01*
X127206285Y-102533761D01*
X127111047Y-102581380D01*
X126872952Y-102581380D01*
X126777714Y-102533761D01*
X126730095Y-102486142D01*
%TO.C,C2*%
X123404333Y-72112142D02*
X123356714Y-72159761D01*
X123213857Y-72207380D01*
X123118619Y-72207380D01*
X122975761Y-72159761D01*
X122880523Y-72064523D01*
X122832904Y-71969285D01*
X122785285Y-71778809D01*
X122785285Y-71635952D01*
X122832904Y-71445476D01*
X122880523Y-71350238D01*
X122975761Y-71255000D01*
X123118619Y-71207380D01*
X123213857Y-71207380D01*
X123356714Y-71255000D01*
X123404333Y-71302619D01*
X123785285Y-71302619D02*
X123832904Y-71255000D01*
X123928142Y-71207380D01*
X124166238Y-71207380D01*
X124261476Y-71255000D01*
X124309095Y-71302619D01*
X124356714Y-71397857D01*
X124356714Y-71493095D01*
X124309095Y-71635952D01*
X123737666Y-72207380D01*
X124356714Y-72207380D01*
%TO.C,C5*%
X147788333Y-68429142D02*
X147740714Y-68476761D01*
X147597857Y-68524380D01*
X147502619Y-68524380D01*
X147359761Y-68476761D01*
X147264523Y-68381523D01*
X147216904Y-68286285D01*
X147169285Y-68095809D01*
X147169285Y-67952952D01*
X147216904Y-67762476D01*
X147264523Y-67667238D01*
X147359761Y-67572000D01*
X147502619Y-67524380D01*
X147597857Y-67524380D01*
X147740714Y-67572000D01*
X147788333Y-67619619D01*
X148693095Y-67524380D02*
X148216904Y-67524380D01*
X148169285Y-68000571D01*
X148216904Y-67952952D01*
X148312142Y-67905333D01*
X148550238Y-67905333D01*
X148645476Y-67952952D01*
X148693095Y-68000571D01*
X148740714Y-68095809D01*
X148740714Y-68333904D01*
X148693095Y-68429142D01*
X148645476Y-68476761D01*
X148550238Y-68524380D01*
X148312142Y-68524380D01*
X148216904Y-68476761D01*
X148169285Y-68429142D01*
%TO.C,C6*%
X150852142Y-78779666D02*
X150899761Y-78827285D01*
X150947380Y-78970142D01*
X150947380Y-79065380D01*
X150899761Y-79208238D01*
X150804523Y-79303476D01*
X150709285Y-79351095D01*
X150518809Y-79398714D01*
X150375952Y-79398714D01*
X150185476Y-79351095D01*
X150090238Y-79303476D01*
X149995000Y-79208238D01*
X149947380Y-79065380D01*
X149947380Y-78970142D01*
X149995000Y-78827285D01*
X150042619Y-78779666D01*
X149947380Y-77922523D02*
X149947380Y-78113000D01*
X149995000Y-78208238D01*
X150042619Y-78255857D01*
X150185476Y-78351095D01*
X150375952Y-78398714D01*
X150756904Y-78398714D01*
X150852142Y-78351095D01*
X150899761Y-78303476D01*
X150947380Y-78208238D01*
X150947380Y-78017761D01*
X150899761Y-77922523D01*
X150852142Y-77874904D01*
X150756904Y-77827285D01*
X150518809Y-77827285D01*
X150423571Y-77874904D01*
X150375952Y-77922523D01*
X150328333Y-78017761D01*
X150328333Y-78208238D01*
X150375952Y-78303476D01*
X150423571Y-78351095D01*
X150518809Y-78398714D01*
%TO.C,C10*%
X161663142Y-72857142D02*
X161615523Y-72904761D01*
X161472666Y-72952380D01*
X161377428Y-72952380D01*
X161234571Y-72904761D01*
X161139333Y-72809523D01*
X161091714Y-72714285D01*
X161044095Y-72523809D01*
X161044095Y-72380952D01*
X161091714Y-72190476D01*
X161139333Y-72095238D01*
X161234571Y-72000000D01*
X161377428Y-71952380D01*
X161472666Y-71952380D01*
X161615523Y-72000000D01*
X161663142Y-72047619D01*
X162615523Y-72952380D02*
X162044095Y-72952380D01*
X162329809Y-72952380D02*
X162329809Y-71952380D01*
X162234571Y-72095238D01*
X162139333Y-72190476D01*
X162044095Y-72238095D01*
X163234571Y-71952380D02*
X163329809Y-71952380D01*
X163425047Y-72000000D01*
X163472666Y-72047619D01*
X163520285Y-72142857D01*
X163567904Y-72333333D01*
X163567904Y-72571428D01*
X163520285Y-72761904D01*
X163472666Y-72857142D01*
X163425047Y-72904761D01*
X163329809Y-72952380D01*
X163234571Y-72952380D01*
X163139333Y-72904761D01*
X163091714Y-72857142D01*
X163044095Y-72761904D01*
X162996476Y-72571428D01*
X162996476Y-72333333D01*
X163044095Y-72142857D01*
X163091714Y-72047619D01*
X163139333Y-72000000D01*
X163234571Y-71952380D01*
%TO.C,C12*%
X152884142Y-74556857D02*
X152931761Y-74604476D01*
X152979380Y-74747333D01*
X152979380Y-74842571D01*
X152931761Y-74985428D01*
X152836523Y-75080666D01*
X152741285Y-75128285D01*
X152550809Y-75175904D01*
X152407952Y-75175904D01*
X152217476Y-75128285D01*
X152122238Y-75080666D01*
X152027000Y-74985428D01*
X151979380Y-74842571D01*
X151979380Y-74747333D01*
X152027000Y-74604476D01*
X152074619Y-74556857D01*
X152979380Y-73604476D02*
X152979380Y-74175904D01*
X152979380Y-73890190D02*
X151979380Y-73890190D01*
X152122238Y-73985428D01*
X152217476Y-74080666D01*
X152265095Y-74175904D01*
X152074619Y-73223523D02*
X152027000Y-73175904D01*
X151979380Y-73080666D01*
X151979380Y-72842571D01*
X152027000Y-72747333D01*
X152074619Y-72699714D01*
X152169857Y-72652095D01*
X152265095Y-72652095D01*
X152407952Y-72699714D01*
X152979380Y-73271142D01*
X152979380Y-72652095D01*
%TO.C,C14*%
X154932142Y-72493142D02*
X154884523Y-72540761D01*
X154741666Y-72588380D01*
X154646428Y-72588380D01*
X154503571Y-72540761D01*
X154408333Y-72445523D01*
X154360714Y-72350285D01*
X154313095Y-72159809D01*
X154313095Y-72016952D01*
X154360714Y-71826476D01*
X154408333Y-71731238D01*
X154503571Y-71636000D01*
X154646428Y-71588380D01*
X154741666Y-71588380D01*
X154884523Y-71636000D01*
X154932142Y-71683619D01*
X155884523Y-72588380D02*
X155313095Y-72588380D01*
X155598809Y-72588380D02*
X155598809Y-71588380D01*
X155503571Y-71731238D01*
X155408333Y-71826476D01*
X155313095Y-71874095D01*
X156741666Y-71921714D02*
X156741666Y-72588380D01*
X156503571Y-71540761D02*
X156265476Y-72255047D01*
X156884523Y-72255047D01*
%TO.C,CH2*%
X157837142Y-101274476D02*
X157884761Y-101322095D01*
X157932380Y-101464952D01*
X157932380Y-101560190D01*
X157884761Y-101703047D01*
X157789523Y-101798285D01*
X157694285Y-101845904D01*
X157503809Y-101893523D01*
X157360952Y-101893523D01*
X157170476Y-101845904D01*
X157075238Y-101798285D01*
X156980000Y-101703047D01*
X156932380Y-101560190D01*
X156932380Y-101464952D01*
X156980000Y-101322095D01*
X157027619Y-101274476D01*
X157932380Y-100845904D02*
X156932380Y-100845904D01*
X157408571Y-100845904D02*
X157408571Y-100274476D01*
X157932380Y-100274476D02*
X156932380Y-100274476D01*
X157027619Y-99845904D02*
X156980000Y-99798285D01*
X156932380Y-99703047D01*
X156932380Y-99464952D01*
X156980000Y-99369714D01*
X157027619Y-99322095D01*
X157122857Y-99274476D01*
X157218095Y-99274476D01*
X157360952Y-99322095D01*
X157932380Y-99893523D01*
X157932380Y-99274476D01*
%TO.C,CL2*%
X167235142Y-102171428D02*
X167282761Y-102219047D01*
X167330380Y-102361904D01*
X167330380Y-102457142D01*
X167282761Y-102600000D01*
X167187523Y-102695238D01*
X167092285Y-102742857D01*
X166901809Y-102790476D01*
X166758952Y-102790476D01*
X166568476Y-102742857D01*
X166473238Y-102695238D01*
X166378000Y-102600000D01*
X166330380Y-102457142D01*
X166330380Y-102361904D01*
X166378000Y-102219047D01*
X166425619Y-102171428D01*
X167330380Y-101266666D02*
X167330380Y-101742857D01*
X166330380Y-101742857D01*
X166425619Y-100980952D02*
X166378000Y-100933333D01*
X166330380Y-100838095D01*
X166330380Y-100600000D01*
X166378000Y-100504761D01*
X166425619Y-100457142D01*
X166520857Y-100409523D01*
X166616095Y-100409523D01*
X166758952Y-100457142D01*
X167330380Y-101028571D01*
X167330380Y-100409523D01*
%TO.C,D2*%
X128801904Y-66846380D02*
X128801904Y-65846380D01*
X129040000Y-65846380D01*
X129182857Y-65894000D01*
X129278095Y-65989238D01*
X129325714Y-66084476D01*
X129373333Y-66274952D01*
X129373333Y-66417809D01*
X129325714Y-66608285D01*
X129278095Y-66703523D01*
X129182857Y-66798761D01*
X129040000Y-66846380D01*
X128801904Y-66846380D01*
X129754285Y-65941619D02*
X129801904Y-65894000D01*
X129897142Y-65846380D01*
X130135238Y-65846380D01*
X130230476Y-65894000D01*
X130278095Y-65941619D01*
X130325714Y-66036857D01*
X130325714Y-66132095D01*
X130278095Y-66274952D01*
X129706666Y-66846380D01*
X130325714Y-66846380D01*
%TO.C,U1*%
X136652095Y-76541380D02*
X136652095Y-77350904D01*
X136699714Y-77446142D01*
X136747333Y-77493761D01*
X136842571Y-77541380D01*
X137033047Y-77541380D01*
X137128285Y-77493761D01*
X137175904Y-77446142D01*
X137223523Y-77350904D01*
X137223523Y-76541380D01*
X138223523Y-77541380D02*
X137652095Y-77541380D01*
X137937809Y-77541380D02*
X137937809Y-76541380D01*
X137842571Y-76684238D01*
X137747333Y-76779476D01*
X137652095Y-76827095D01*
%TO.C,Y2*%
X164822190Y-76930190D02*
X165298380Y-76930190D01*
X164298380Y-77263523D02*
X164822190Y-76930190D01*
X164298380Y-76596857D01*
X164393619Y-76311142D02*
X164346000Y-76263523D01*
X164298380Y-76168285D01*
X164298380Y-75930190D01*
X164346000Y-75834952D01*
X164393619Y-75787333D01*
X164488857Y-75739714D01*
X164584095Y-75739714D01*
X164726952Y-75787333D01*
X165298380Y-76358761D01*
X165298380Y-75739714D01*
%TO.C,N1*%
X107696095Y-111704380D02*
X107696095Y-110704380D01*
X108267523Y-111704380D01*
X108267523Y-110704380D01*
X109267523Y-111704380D02*
X108696095Y-111704380D01*
X108981809Y-111704380D02*
X108981809Y-110704380D01*
X108886571Y-110847238D01*
X108791333Y-110942476D01*
X108696095Y-110990095D01*
X117348000Y-104608380D02*
X117348000Y-104846476D01*
X117109904Y-104751238D02*
X117348000Y-104846476D01*
X117586095Y-104751238D01*
X117205142Y-105036952D02*
X117348000Y-104846476D01*
X117490857Y-105036952D01*
%TO.C,N2*%
X107696095Y-96464380D02*
X107696095Y-95464380D01*
X108267523Y-96464380D01*
X108267523Y-95464380D01*
X108696095Y-95559619D02*
X108743714Y-95512000D01*
X108838952Y-95464380D01*
X109077047Y-95464380D01*
X109172285Y-95512000D01*
X109219904Y-95559619D01*
X109267523Y-95654857D01*
X109267523Y-95750095D01*
X109219904Y-95892952D01*
X108648476Y-96464380D01*
X109267523Y-96464380D01*
X117348000Y-89368380D02*
X117348000Y-89606476D01*
X117109904Y-89511238D02*
X117348000Y-89606476D01*
X117586095Y-89511238D01*
X117205142Y-89796952D02*
X117348000Y-89606476D01*
X117490857Y-89796952D01*
%TO.C,N3*%
X144780095Y-97353380D02*
X144780095Y-96353380D01*
X145351523Y-97353380D01*
X145351523Y-96353380D01*
X145732476Y-96353380D02*
X146351523Y-96353380D01*
X146018190Y-96734333D01*
X146161047Y-96734333D01*
X146256285Y-96781952D01*
X146303904Y-96829571D01*
X146351523Y-96924809D01*
X146351523Y-97162904D01*
X146303904Y-97258142D01*
X146256285Y-97305761D01*
X146161047Y-97353380D01*
X145875333Y-97353380D01*
X145780095Y-97305761D01*
X145732476Y-97258142D01*
X136652000Y-102449380D02*
X136652000Y-102687476D01*
X136413904Y-102592238D02*
X136652000Y-102687476D01*
X136890095Y-102592238D01*
X136509142Y-102877952D02*
X136652000Y-102687476D01*
X136794857Y-102877952D01*
%TO.C,N4*%
X145923095Y-112974380D02*
X145923095Y-111974380D01*
X146494523Y-112974380D01*
X146494523Y-111974380D01*
X147399285Y-112307714D02*
X147399285Y-112974380D01*
X147161190Y-111926761D02*
X146923095Y-112641047D01*
X147542142Y-112641047D01*
X137795000Y-118070380D02*
X137795000Y-118308476D01*
X137556904Y-118213238D02*
X137795000Y-118308476D01*
X138033095Y-118213238D01*
X137652142Y-118498952D02*
X137795000Y-118308476D01*
X137937857Y-118498952D01*
%TO.C,N5*%
X107386380Y-134111904D02*
X106386380Y-134111904D01*
X107386380Y-133540476D01*
X106386380Y-133540476D01*
X106386380Y-132588095D02*
X106386380Y-133064285D01*
X106862571Y-133111904D01*
X106814952Y-133064285D01*
X106767333Y-132969047D01*
X106767333Y-132730952D01*
X106814952Y-132635714D01*
X106862571Y-132588095D01*
X106957809Y-132540476D01*
X107195904Y-132540476D01*
X107291142Y-132588095D01*
X107338761Y-132635714D01*
X107386380Y-132730952D01*
X107386380Y-132969047D01*
X107338761Y-133064285D01*
X107291142Y-133111904D01*
X100290380Y-124460000D02*
X100528476Y-124460000D01*
X100433238Y-124698095D02*
X100528476Y-124460000D01*
X100433238Y-124221904D01*
X100718952Y-124602857D02*
X100528476Y-124460000D01*
X100718952Y-124317142D01*
%TO.C,N6*%
X155392380Y-134111904D02*
X154392380Y-134111904D01*
X155392380Y-133540476D01*
X154392380Y-133540476D01*
X154392380Y-132635714D02*
X154392380Y-132826190D01*
X154440000Y-132921428D01*
X154487619Y-132969047D01*
X154630476Y-133064285D01*
X154820952Y-133111904D01*
X155201904Y-133111904D01*
X155297142Y-133064285D01*
X155344761Y-133016666D01*
X155392380Y-132921428D01*
X155392380Y-132730952D01*
X155344761Y-132635714D01*
X155297142Y-132588095D01*
X155201904Y-132540476D01*
X154963809Y-132540476D01*
X154868571Y-132588095D01*
X154820952Y-132635714D01*
X154773333Y-132730952D01*
X154773333Y-132921428D01*
X154820952Y-133016666D01*
X154868571Y-133064285D01*
X154963809Y-133111904D01*
X148296380Y-124460000D02*
X148534476Y-124460000D01*
X148439238Y-124698095D02*
X148534476Y-124460000D01*
X148439238Y-124221904D01*
X148724952Y-124602857D02*
X148534476Y-124460000D01*
X148724952Y-124317142D01*
%TO.C,N7*%
X123388380Y-134111904D02*
X122388380Y-134111904D01*
X123388380Y-133540476D01*
X122388380Y-133540476D01*
X122388380Y-133159523D02*
X122388380Y-132492857D01*
X123388380Y-132921428D01*
X116292380Y-124460000D02*
X116530476Y-124460000D01*
X116435238Y-124698095D02*
X116530476Y-124460000D01*
X116435238Y-124221904D01*
X116720952Y-124602857D02*
X116530476Y-124460000D01*
X116720952Y-124317142D01*
%TO.C,N8*%
X139390380Y-134111904D02*
X138390380Y-134111904D01*
X139390380Y-133540476D01*
X138390380Y-133540476D01*
X138818952Y-132921428D02*
X138771333Y-133016666D01*
X138723714Y-133064285D01*
X138628476Y-133111904D01*
X138580857Y-133111904D01*
X138485619Y-133064285D01*
X138438000Y-133016666D01*
X138390380Y-132921428D01*
X138390380Y-132730952D01*
X138438000Y-132635714D01*
X138485619Y-132588095D01*
X138580857Y-132540476D01*
X138628476Y-132540476D01*
X138723714Y-132588095D01*
X138771333Y-132635714D01*
X138818952Y-132730952D01*
X138818952Y-132921428D01*
X138866571Y-133016666D01*
X138914190Y-133064285D01*
X139009428Y-133111904D01*
X139199904Y-133111904D01*
X139295142Y-133064285D01*
X139342761Y-133016666D01*
X139390380Y-132921428D01*
X139390380Y-132730952D01*
X139342761Y-132635714D01*
X139295142Y-132588095D01*
X139199904Y-132540476D01*
X139009428Y-132540476D01*
X138914190Y-132588095D01*
X138866571Y-132635714D01*
X138818952Y-132730952D01*
X132294380Y-124460000D02*
X132532476Y-124460000D01*
X132437238Y-124698095D02*
X132532476Y-124460000D01*
X132437238Y-124221904D01*
X132722952Y-124602857D02*
X132532476Y-124460000D01*
X132722952Y-124317142D01*
%TO.C,U6*%
X127254095Y-106259380D02*
X127254095Y-107068904D01*
X127301714Y-107164142D01*
X127349333Y-107211761D01*
X127444571Y-107259380D01*
X127635047Y-107259380D01*
X127730285Y-107211761D01*
X127777904Y-107164142D01*
X127825523Y-107068904D01*
X127825523Y-106259380D01*
X128730285Y-106259380D02*
X128539809Y-106259380D01*
X128444571Y-106307000D01*
X128396952Y-106354619D01*
X128301714Y-106497476D01*
X128254095Y-106687952D01*
X128254095Y-107068904D01*
X128301714Y-107164142D01*
X128349333Y-107211761D01*
X128444571Y-107259380D01*
X128635047Y-107259380D01*
X128730285Y-107211761D01*
X128777904Y-107164142D01*
X128825523Y-107068904D01*
X128825523Y-106830809D01*
X128777904Y-106735571D01*
X128730285Y-106687952D01*
X128635047Y-106640333D01*
X128444571Y-106640333D01*
X128349333Y-106687952D01*
X128301714Y-106735571D01*
X128254095Y-106830809D01*
%TO.C,U7*%
X156170380Y-77342904D02*
X156979904Y-77342904D01*
X157075142Y-77295285D01*
X157122761Y-77247666D01*
X157170380Y-77152428D01*
X157170380Y-76961952D01*
X157122761Y-76866714D01*
X157075142Y-76819095D01*
X156979904Y-76771476D01*
X156170380Y-76771476D01*
X156170380Y-76390523D02*
X156170380Y-75723857D01*
X157170380Y-76152428D01*
%TO.C,U8*%
X165285380Y-95249904D02*
X166094904Y-95249904D01*
X166190142Y-95202285D01*
X166237761Y-95154666D01*
X166285380Y-95059428D01*
X166285380Y-94868952D01*
X166237761Y-94773714D01*
X166190142Y-94726095D01*
X166094904Y-94678476D01*
X165285380Y-94678476D01*
X165713952Y-94059428D02*
X165666333Y-94154666D01*
X165618714Y-94202285D01*
X165523476Y-94249904D01*
X165475857Y-94249904D01*
X165380619Y-94202285D01*
X165333000Y-94154666D01*
X165285380Y-94059428D01*
X165285380Y-93868952D01*
X165333000Y-93773714D01*
X165380619Y-93726095D01*
X165475857Y-93678476D01*
X165523476Y-93678476D01*
X165618714Y-93726095D01*
X165666333Y-93773714D01*
X165713952Y-93868952D01*
X165713952Y-94059428D01*
X165761571Y-94154666D01*
X165809190Y-94202285D01*
X165904428Y-94249904D01*
X166094904Y-94249904D01*
X166190142Y-94202285D01*
X166237761Y-94154666D01*
X166285380Y-94059428D01*
X166285380Y-93868952D01*
X166237761Y-93773714D01*
X166190142Y-93726095D01*
X166094904Y-93678476D01*
X165904428Y-93678476D01*
X165809190Y-93726095D01*
X165761571Y-93773714D01*
X165713952Y-93868952D01*
%TO.C,C1*%
X121882088Y-79224142D02*
X121834469Y-79271761D01*
X121691612Y-79319380D01*
X121596374Y-79319380D01*
X121453516Y-79271761D01*
X121358278Y-79176523D01*
X121310659Y-79081285D01*
X121263040Y-78890809D01*
X121263040Y-78747952D01*
X121310659Y-78557476D01*
X121358278Y-78462238D01*
X121453516Y-78367000D01*
X121596374Y-78319380D01*
X121691612Y-78319380D01*
X121834469Y-78367000D01*
X121882088Y-78414619D01*
X122834469Y-79319380D02*
X122263040Y-79319380D01*
X122548755Y-79319380D02*
X122548755Y-78319380D01*
X122453516Y-78462238D01*
X122358278Y-78557476D01*
X122263040Y-78605095D01*
%TO.C,J6*%
X149141380Y-85423333D02*
X149855666Y-85423333D01*
X149998523Y-85470952D01*
X150093761Y-85566190D01*
X150141380Y-85709047D01*
X150141380Y-85804285D01*
X149141380Y-84518571D02*
X149141380Y-84709047D01*
X149189000Y-84804285D01*
X149236619Y-84851904D01*
X149379476Y-84947142D01*
X149569952Y-84994761D01*
X149950904Y-84994761D01*
X150046142Y-84947142D01*
X150093761Y-84899523D01*
X150141380Y-84804285D01*
X150141380Y-84613809D01*
X150093761Y-84518571D01*
X150046142Y-84470952D01*
X149950904Y-84423333D01*
X149712809Y-84423333D01*
X149617571Y-84470952D01*
X149569952Y-84518571D01*
X149522333Y-84613809D01*
X149522333Y-84804285D01*
X149569952Y-84899523D01*
X149617571Y-84947142D01*
X149712809Y-84994761D01*
%TO.C,Q1*%
X107219761Y-82549619D02*
X107124523Y-82502000D01*
X107029285Y-82406761D01*
X106886428Y-82263904D01*
X106791190Y-82216285D01*
X106695952Y-82216285D01*
X106743571Y-82454380D02*
X106648333Y-82406761D01*
X106553095Y-82311523D01*
X106505476Y-82121047D01*
X106505476Y-81787714D01*
X106553095Y-81597238D01*
X106648333Y-81502000D01*
X106743571Y-81454380D01*
X106934047Y-81454380D01*
X107029285Y-81502000D01*
X107124523Y-81597238D01*
X107172142Y-81787714D01*
X107172142Y-82121047D01*
X107124523Y-82311523D01*
X107029285Y-82406761D01*
X106934047Y-82454380D01*
X106743571Y-82454380D01*
X108124523Y-82454380D02*
X107553095Y-82454380D01*
X107838809Y-82454380D02*
X107838809Y-81454380D01*
X107743571Y-81597238D01*
X107648333Y-81692476D01*
X107553095Y-81740095D01*
%TO.C,R9*%
X108783380Y-78144666D02*
X108307190Y-78478000D01*
X108783380Y-78716095D02*
X107783380Y-78716095D01*
X107783380Y-78335142D01*
X107831000Y-78239904D01*
X107878619Y-78192285D01*
X107973857Y-78144666D01*
X108116714Y-78144666D01*
X108211952Y-78192285D01*
X108259571Y-78239904D01*
X108307190Y-78335142D01*
X108307190Y-78716095D01*
X108783380Y-77668476D02*
X108783380Y-77478000D01*
X108735761Y-77382761D01*
X108688142Y-77335142D01*
X108545285Y-77239904D01*
X108354809Y-77192285D01*
X107973857Y-77192285D01*
X107878619Y-77239904D01*
X107831000Y-77287523D01*
X107783380Y-77382761D01*
X107783380Y-77573238D01*
X107831000Y-77668476D01*
X107878619Y-77716095D01*
X107973857Y-77763714D01*
X108211952Y-77763714D01*
X108307190Y-77716095D01*
X108354809Y-77668476D01*
X108402428Y-77573238D01*
X108402428Y-77382761D01*
X108354809Y-77287523D01*
X108307190Y-77239904D01*
X108211952Y-77192285D01*
%TO.C,R10*%
X102862142Y-82367380D02*
X102528809Y-81891190D01*
X102290714Y-82367380D02*
X102290714Y-81367380D01*
X102671666Y-81367380D01*
X102766904Y-81415000D01*
X102814523Y-81462619D01*
X102862142Y-81557857D01*
X102862142Y-81700714D01*
X102814523Y-81795952D01*
X102766904Y-81843571D01*
X102671666Y-81891190D01*
X102290714Y-81891190D01*
X103814523Y-82367380D02*
X103243095Y-82367380D01*
X103528809Y-82367380D02*
X103528809Y-81367380D01*
X103433571Y-81510238D01*
X103338333Y-81605476D01*
X103243095Y-81653095D01*
X104433571Y-81367380D02*
X104528809Y-81367380D01*
X104624047Y-81415000D01*
X104671666Y-81462619D01*
X104719285Y-81557857D01*
X104766904Y-81748333D01*
X104766904Y-81986428D01*
X104719285Y-82176904D01*
X104671666Y-82272142D01*
X104624047Y-82319761D01*
X104528809Y-82367380D01*
X104433571Y-82367380D01*
X104338333Y-82319761D01*
X104290714Y-82272142D01*
X104243095Y-82176904D01*
X104195476Y-81986428D01*
X104195476Y-81748333D01*
X104243095Y-81557857D01*
X104290714Y-81462619D01*
X104338333Y-81415000D01*
X104433571Y-81367380D01*
%TO.C,R26*%
X130167142Y-95575380D02*
X129833809Y-95099190D01*
X129595714Y-95575380D02*
X129595714Y-94575380D01*
X129976666Y-94575380D01*
X130071904Y-94623000D01*
X130119523Y-94670619D01*
X130167142Y-94765857D01*
X130167142Y-94908714D01*
X130119523Y-95003952D01*
X130071904Y-95051571D01*
X129976666Y-95099190D01*
X129595714Y-95099190D01*
X130548095Y-94670619D02*
X130595714Y-94623000D01*
X130690952Y-94575380D01*
X130929047Y-94575380D01*
X131024285Y-94623000D01*
X131071904Y-94670619D01*
X131119523Y-94765857D01*
X131119523Y-94861095D01*
X131071904Y-95003952D01*
X130500476Y-95575380D01*
X131119523Y-95575380D01*
X131976666Y-94575380D02*
X131786190Y-94575380D01*
X131690952Y-94623000D01*
X131643333Y-94670619D01*
X131548095Y-94813476D01*
X131500476Y-95003952D01*
X131500476Y-95384904D01*
X131548095Y-95480142D01*
X131595714Y-95527761D01*
X131690952Y-95575380D01*
X131881428Y-95575380D01*
X131976666Y-95527761D01*
X132024285Y-95480142D01*
X132071904Y-95384904D01*
X132071904Y-95146809D01*
X132024285Y-95051571D01*
X131976666Y-95003952D01*
X131881428Y-94956333D01*
X131690952Y-94956333D01*
X131595714Y-95003952D01*
X131548095Y-95051571D01*
X131500476Y-95146809D01*
%TO.C,Y1*%
X125325190Y-80867190D02*
X125801380Y-80867190D01*
X124801380Y-81200523D02*
X125325190Y-80867190D01*
X124801380Y-80533857D01*
X125801380Y-79676714D02*
X125801380Y-80248142D01*
X125801380Y-79962428D02*
X124801380Y-79962428D01*
X124944238Y-80057666D01*
X125039476Y-80152904D01*
X125087095Y-80248142D01*
%TO.C,R22*%
X119499142Y-67254380D02*
X119165809Y-66778190D01*
X118927714Y-67254380D02*
X118927714Y-66254380D01*
X119308666Y-66254380D01*
X119403904Y-66302000D01*
X119451523Y-66349619D01*
X119499142Y-66444857D01*
X119499142Y-66587714D01*
X119451523Y-66682952D01*
X119403904Y-66730571D01*
X119308666Y-66778190D01*
X118927714Y-66778190D01*
X119880095Y-66349619D02*
X119927714Y-66302000D01*
X120022952Y-66254380D01*
X120261047Y-66254380D01*
X120356285Y-66302000D01*
X120403904Y-66349619D01*
X120451523Y-66444857D01*
X120451523Y-66540095D01*
X120403904Y-66682952D01*
X119832476Y-67254380D01*
X120451523Y-67254380D01*
X120832476Y-66349619D02*
X120880095Y-66302000D01*
X120975333Y-66254380D01*
X121213428Y-66254380D01*
X121308666Y-66302000D01*
X121356285Y-66349619D01*
X121403904Y-66444857D01*
X121403904Y-66540095D01*
X121356285Y-66682952D01*
X120784857Y-67254380D01*
X121403904Y-67254380D01*
%TO.C,C32*%
X91129142Y-73159857D02*
X91176761Y-73207476D01*
X91224380Y-73350333D01*
X91224380Y-73445571D01*
X91176761Y-73588428D01*
X91081523Y-73683666D01*
X90986285Y-73731285D01*
X90795809Y-73778904D01*
X90652952Y-73778904D01*
X90462476Y-73731285D01*
X90367238Y-73683666D01*
X90272000Y-73588428D01*
X90224380Y-73445571D01*
X90224380Y-73350333D01*
X90272000Y-73207476D01*
X90319619Y-73159857D01*
X90224380Y-72826523D02*
X90224380Y-72207476D01*
X90605333Y-72540809D01*
X90605333Y-72397952D01*
X90652952Y-72302714D01*
X90700571Y-72255095D01*
X90795809Y-72207476D01*
X91033904Y-72207476D01*
X91129142Y-72255095D01*
X91176761Y-72302714D01*
X91224380Y-72397952D01*
X91224380Y-72683666D01*
X91176761Y-72778904D01*
X91129142Y-72826523D01*
X90319619Y-71826523D02*
X90272000Y-71778904D01*
X90224380Y-71683666D01*
X90224380Y-71445571D01*
X90272000Y-71350333D01*
X90319619Y-71302714D01*
X90414857Y-71255095D01*
X90510095Y-71255095D01*
X90652952Y-71302714D01*
X91224380Y-71874142D01*
X91224380Y-71255095D01*
%TO.C,R_CSB1*%
X164219190Y-121102380D02*
X163885857Y-120626190D01*
X163647761Y-121102380D02*
X163647761Y-120102380D01*
X164028714Y-120102380D01*
X164123952Y-120150000D01*
X164171571Y-120197619D01*
X164219190Y-120292857D01*
X164219190Y-120435714D01*
X164171571Y-120530952D01*
X164123952Y-120578571D01*
X164028714Y-120626190D01*
X163647761Y-120626190D01*
X164409666Y-121197619D02*
X165171571Y-121197619D01*
X165981095Y-121007142D02*
X165933476Y-121054761D01*
X165790619Y-121102380D01*
X165695380Y-121102380D01*
X165552523Y-121054761D01*
X165457285Y-120959523D01*
X165409666Y-120864285D01*
X165362047Y-120673809D01*
X165362047Y-120530952D01*
X165409666Y-120340476D01*
X165457285Y-120245238D01*
X165552523Y-120150000D01*
X165695380Y-120102380D01*
X165790619Y-120102380D01*
X165933476Y-120150000D01*
X165981095Y-120197619D01*
X166362047Y-121054761D02*
X166504904Y-121102380D01*
X166743000Y-121102380D01*
X166838238Y-121054761D01*
X166885857Y-121007142D01*
X166933476Y-120911904D01*
X166933476Y-120816666D01*
X166885857Y-120721428D01*
X166838238Y-120673809D01*
X166743000Y-120626190D01*
X166552523Y-120578571D01*
X166457285Y-120530952D01*
X166409666Y-120483333D01*
X166362047Y-120388095D01*
X166362047Y-120292857D01*
X166409666Y-120197619D01*
X166457285Y-120150000D01*
X166552523Y-120102380D01*
X166790619Y-120102380D01*
X166933476Y-120150000D01*
X167695380Y-120578571D02*
X167838238Y-120626190D01*
X167885857Y-120673809D01*
X167933476Y-120769047D01*
X167933476Y-120911904D01*
X167885857Y-121007142D01*
X167838238Y-121054761D01*
X167743000Y-121102380D01*
X167362047Y-121102380D01*
X167362047Y-120102380D01*
X167695380Y-120102380D01*
X167790619Y-120150000D01*
X167838238Y-120197619D01*
X167885857Y-120292857D01*
X167885857Y-120388095D01*
X167838238Y-120483333D01*
X167790619Y-120530952D01*
X167695380Y-120578571D01*
X167362047Y-120578571D01*
X168885857Y-121102380D02*
X168314428Y-121102380D01*
X168600142Y-121102380D02*
X168600142Y-120102380D01*
X168504904Y-120245238D01*
X168409666Y-120340476D01*
X168314428Y-120388095D01*
%TO.C,C7*%
X114149142Y-80684666D02*
X114196761Y-80732285D01*
X114244380Y-80875142D01*
X114244380Y-80970380D01*
X114196761Y-81113238D01*
X114101523Y-81208476D01*
X114006285Y-81256095D01*
X113815809Y-81303714D01*
X113672952Y-81303714D01*
X113482476Y-81256095D01*
X113387238Y-81208476D01*
X113292000Y-81113238D01*
X113244380Y-80970380D01*
X113244380Y-80875142D01*
X113292000Y-80732285D01*
X113339619Y-80684666D01*
X113244380Y-80351333D02*
X113244380Y-79684666D01*
X114244380Y-80113238D01*
%TO.C,H9*%
X165354095Y-138222380D02*
X165354095Y-137222380D01*
X165354095Y-137698571D02*
X165925523Y-137698571D01*
X165925523Y-138222380D02*
X165925523Y-137222380D01*
X166449333Y-138222380D02*
X166639809Y-138222380D01*
X166735047Y-138174761D01*
X166782666Y-138127142D01*
X166877904Y-137984285D01*
X166925523Y-137793809D01*
X166925523Y-137412857D01*
X166877904Y-137317619D01*
X166830285Y-137270000D01*
X166735047Y-137222380D01*
X166544571Y-137222380D01*
X166449333Y-137270000D01*
X166401714Y-137317619D01*
X166354095Y-137412857D01*
X166354095Y-137650952D01*
X166401714Y-137746190D01*
X166449333Y-137793809D01*
X166544571Y-137841428D01*
X166735047Y-137841428D01*
X166830285Y-137793809D01*
X166877904Y-137746190D01*
X166925523Y-137650952D01*
%TO.C,R21*%
X122928142Y-70175380D02*
X122594809Y-69699190D01*
X122356714Y-70175380D02*
X122356714Y-69175380D01*
X122737666Y-69175380D01*
X122832904Y-69223000D01*
X122880523Y-69270619D01*
X122928142Y-69365857D01*
X122928142Y-69508714D01*
X122880523Y-69603952D01*
X122832904Y-69651571D01*
X122737666Y-69699190D01*
X122356714Y-69699190D01*
X123309095Y-69270619D02*
X123356714Y-69223000D01*
X123451952Y-69175380D01*
X123690047Y-69175380D01*
X123785285Y-69223000D01*
X123832904Y-69270619D01*
X123880523Y-69365857D01*
X123880523Y-69461095D01*
X123832904Y-69603952D01*
X123261476Y-70175380D01*
X123880523Y-70175380D01*
X124832904Y-70175380D02*
X124261476Y-70175380D01*
X124547190Y-70175380D02*
X124547190Y-69175380D01*
X124451952Y-69318238D01*
X124356714Y-69413476D01*
X124261476Y-69461095D01*
%TO.C,R8*%
X97480380Y-121324666D02*
X97004190Y-121658000D01*
X97480380Y-121896095D02*
X96480380Y-121896095D01*
X96480380Y-121515142D01*
X96528000Y-121419904D01*
X96575619Y-121372285D01*
X96670857Y-121324666D01*
X96813714Y-121324666D01*
X96908952Y-121372285D01*
X96956571Y-121419904D01*
X97004190Y-121515142D01*
X97004190Y-121896095D01*
X96908952Y-120753238D02*
X96861333Y-120848476D01*
X96813714Y-120896095D01*
X96718476Y-120943714D01*
X96670857Y-120943714D01*
X96575619Y-120896095D01*
X96528000Y-120848476D01*
X96480380Y-120753238D01*
X96480380Y-120562761D01*
X96528000Y-120467523D01*
X96575619Y-120419904D01*
X96670857Y-120372285D01*
X96718476Y-120372285D01*
X96813714Y-120419904D01*
X96861333Y-120467523D01*
X96908952Y-120562761D01*
X96908952Y-120753238D01*
X96956571Y-120848476D01*
X97004190Y-120896095D01*
X97099428Y-120943714D01*
X97289904Y-120943714D01*
X97385142Y-120896095D01*
X97432761Y-120848476D01*
X97480380Y-120753238D01*
X97480380Y-120562761D01*
X97432761Y-120467523D01*
X97385142Y-120419904D01*
X97289904Y-120372285D01*
X97099428Y-120372285D01*
X97004190Y-120419904D01*
X96956571Y-120467523D01*
X96908952Y-120562761D01*
%TO.C,R1*%
X178092380Y-140501666D02*
X177616190Y-140835000D01*
X178092380Y-141073095D02*
X177092380Y-141073095D01*
X177092380Y-140692142D01*
X177140000Y-140596904D01*
X177187619Y-140549285D01*
X177282857Y-140501666D01*
X177425714Y-140501666D01*
X177520952Y-140549285D01*
X177568571Y-140596904D01*
X177616190Y-140692142D01*
X177616190Y-141073095D01*
X178092380Y-139549285D02*
X178092380Y-140120714D01*
X178092380Y-139835000D02*
X177092380Y-139835000D01*
X177235238Y-139930238D01*
X177330476Y-140025476D01*
X177378095Y-140120714D01*
%TO.C,R18*%
X122928142Y-67762380D02*
X122594809Y-67286190D01*
X122356714Y-67762380D02*
X122356714Y-66762380D01*
X122737666Y-66762380D01*
X122832904Y-66810000D01*
X122880523Y-66857619D01*
X122928142Y-66952857D01*
X122928142Y-67095714D01*
X122880523Y-67190952D01*
X122832904Y-67238571D01*
X122737666Y-67286190D01*
X122356714Y-67286190D01*
X123880523Y-67762380D02*
X123309095Y-67762380D01*
X123594809Y-67762380D02*
X123594809Y-66762380D01*
X123499571Y-66905238D01*
X123404333Y-67000476D01*
X123309095Y-67048095D01*
X124451952Y-67190952D02*
X124356714Y-67143333D01*
X124309095Y-67095714D01*
X124261476Y-67000476D01*
X124261476Y-66952857D01*
X124309095Y-66857619D01*
X124356714Y-66810000D01*
X124451952Y-66762380D01*
X124642428Y-66762380D01*
X124737666Y-66810000D01*
X124785285Y-66857619D01*
X124832904Y-66952857D01*
X124832904Y-67000476D01*
X124785285Y-67095714D01*
X124737666Y-67143333D01*
X124642428Y-67190952D01*
X124451952Y-67190952D01*
X124356714Y-67238571D01*
X124309095Y-67286190D01*
X124261476Y-67381428D01*
X124261476Y-67571904D01*
X124309095Y-67667142D01*
X124356714Y-67714761D01*
X124451952Y-67762380D01*
X124642428Y-67762380D01*
X124737666Y-67714761D01*
X124785285Y-67667142D01*
X124832904Y-67571904D01*
X124832904Y-67381428D01*
X124785285Y-67286190D01*
X124737666Y-67238571D01*
X124642428Y-67190952D01*
%TO.C,C36*%
X158980142Y-112148857D02*
X159027761Y-112196476D01*
X159075380Y-112339333D01*
X159075380Y-112434571D01*
X159027761Y-112577428D01*
X158932523Y-112672666D01*
X158837285Y-112720285D01*
X158646809Y-112767904D01*
X158503952Y-112767904D01*
X158313476Y-112720285D01*
X158218238Y-112672666D01*
X158123000Y-112577428D01*
X158075380Y-112434571D01*
X158075380Y-112339333D01*
X158123000Y-112196476D01*
X158170619Y-112148857D01*
X158075380Y-111815523D02*
X158075380Y-111196476D01*
X158456333Y-111529809D01*
X158456333Y-111386952D01*
X158503952Y-111291714D01*
X158551571Y-111244095D01*
X158646809Y-111196476D01*
X158884904Y-111196476D01*
X158980142Y-111244095D01*
X159027761Y-111291714D01*
X159075380Y-111386952D01*
X159075380Y-111672666D01*
X159027761Y-111767904D01*
X158980142Y-111815523D01*
X158075380Y-110339333D02*
X158075380Y-110529809D01*
X158123000Y-110625047D01*
X158170619Y-110672666D01*
X158313476Y-110767904D01*
X158503952Y-110815523D01*
X158884904Y-110815523D01*
X158980142Y-110767904D01*
X159027761Y-110720285D01*
X159075380Y-110625047D01*
X159075380Y-110434571D01*
X159027761Y-110339333D01*
X158980142Y-110291714D01*
X158884904Y-110244095D01*
X158646809Y-110244095D01*
X158551571Y-110291714D01*
X158503952Y-110339333D01*
X158456333Y-110434571D01*
X158456333Y-110625047D01*
X158503952Y-110720285D01*
X158551571Y-110767904D01*
X158646809Y-110815523D01*
%TO.C,R6*%
X98115380Y-112815666D02*
X97639190Y-113149000D01*
X98115380Y-113387095D02*
X97115380Y-113387095D01*
X97115380Y-113006142D01*
X97163000Y-112910904D01*
X97210619Y-112863285D01*
X97305857Y-112815666D01*
X97448714Y-112815666D01*
X97543952Y-112863285D01*
X97591571Y-112910904D01*
X97639190Y-113006142D01*
X97639190Y-113387095D01*
X97115380Y-111958523D02*
X97115380Y-112149000D01*
X97163000Y-112244238D01*
X97210619Y-112291857D01*
X97353476Y-112387095D01*
X97543952Y-112434714D01*
X97924904Y-112434714D01*
X98020142Y-112387095D01*
X98067761Y-112339476D01*
X98115380Y-112244238D01*
X98115380Y-112053761D01*
X98067761Y-111958523D01*
X98020142Y-111910904D01*
X97924904Y-111863285D01*
X97686809Y-111863285D01*
X97591571Y-111910904D01*
X97543952Y-111958523D01*
X97496333Y-112053761D01*
X97496333Y-112244238D01*
X97543952Y-112339476D01*
X97591571Y-112387095D01*
X97686809Y-112434714D01*
%TO.C,R3*%
X96116380Y-72683666D02*
X95640190Y-73017000D01*
X96116380Y-73255095D02*
X95116380Y-73255095D01*
X95116380Y-72874142D01*
X95164000Y-72778904D01*
X95211619Y-72731285D01*
X95306857Y-72683666D01*
X95449714Y-72683666D01*
X95544952Y-72731285D01*
X95592571Y-72778904D01*
X95640190Y-72874142D01*
X95640190Y-73255095D01*
X95116380Y-72350333D02*
X95116380Y-71731285D01*
X95497333Y-72064619D01*
X95497333Y-71921761D01*
X95544952Y-71826523D01*
X95592571Y-71778904D01*
X95687809Y-71731285D01*
X95925904Y-71731285D01*
X96021142Y-71778904D01*
X96068761Y-71826523D01*
X96116380Y-71921761D01*
X96116380Y-72207476D01*
X96068761Y-72302714D01*
X96021142Y-72350333D01*
%TO.C,C34*%
X162552142Y-109069142D02*
X162504523Y-109116761D01*
X162361666Y-109164380D01*
X162266428Y-109164380D01*
X162123571Y-109116761D01*
X162028333Y-109021523D01*
X161980714Y-108926285D01*
X161933095Y-108735809D01*
X161933095Y-108592952D01*
X161980714Y-108402476D01*
X162028333Y-108307238D01*
X162123571Y-108212000D01*
X162266428Y-108164380D01*
X162361666Y-108164380D01*
X162504523Y-108212000D01*
X162552142Y-108259619D01*
X162885476Y-108164380D02*
X163504523Y-108164380D01*
X163171190Y-108545333D01*
X163314047Y-108545333D01*
X163409285Y-108592952D01*
X163456904Y-108640571D01*
X163504523Y-108735809D01*
X163504523Y-108973904D01*
X163456904Y-109069142D01*
X163409285Y-109116761D01*
X163314047Y-109164380D01*
X163028333Y-109164380D01*
X162933095Y-109116761D01*
X162885476Y-109069142D01*
X164361666Y-108497714D02*
X164361666Y-109164380D01*
X164123571Y-108116761D02*
X163885476Y-108831047D01*
X164504523Y-108831047D01*
%TO.C,J1*%
X94281666Y-112384380D02*
X94281666Y-113098666D01*
X94234047Y-113241523D01*
X94138809Y-113336761D01*
X93995952Y-113384380D01*
X93900714Y-113384380D01*
X95281666Y-113384380D02*
X94710238Y-113384380D01*
X94995952Y-113384380D02*
X94995952Y-112384380D01*
X94900714Y-112527238D01*
X94805476Y-112622476D01*
X94710238Y-112670095D01*
%TO.C,R5*%
X156281380Y-83859666D02*
X155805190Y-84193000D01*
X156281380Y-84431095D02*
X155281380Y-84431095D01*
X155281380Y-84050142D01*
X155329000Y-83954904D01*
X155376619Y-83907285D01*
X155471857Y-83859666D01*
X155614714Y-83859666D01*
X155709952Y-83907285D01*
X155757571Y-83954904D01*
X155805190Y-84050142D01*
X155805190Y-84431095D01*
X155281380Y-82954904D02*
X155281380Y-83431095D01*
X155757571Y-83478714D01*
X155709952Y-83431095D01*
X155662333Y-83335857D01*
X155662333Y-83097761D01*
X155709952Y-83002523D01*
X155757571Y-82954904D01*
X155852809Y-82907285D01*
X156090904Y-82907285D01*
X156186142Y-82954904D01*
X156233761Y-83002523D01*
X156281380Y-83097761D01*
X156281380Y-83335857D01*
X156233761Y-83431095D01*
X156186142Y-83478714D01*
%TO.C,R24*%
X159837380Y-84335857D02*
X159361190Y-84669190D01*
X159837380Y-84907285D02*
X158837380Y-84907285D01*
X158837380Y-84526333D01*
X158885000Y-84431095D01*
X158932619Y-84383476D01*
X159027857Y-84335857D01*
X159170714Y-84335857D01*
X159265952Y-84383476D01*
X159313571Y-84431095D01*
X159361190Y-84526333D01*
X159361190Y-84907285D01*
X158932619Y-83954904D02*
X158885000Y-83907285D01*
X158837380Y-83812047D01*
X158837380Y-83573952D01*
X158885000Y-83478714D01*
X158932619Y-83431095D01*
X159027857Y-83383476D01*
X159123095Y-83383476D01*
X159265952Y-83431095D01*
X159837380Y-84002523D01*
X159837380Y-83383476D01*
X159170714Y-82526333D02*
X159837380Y-82526333D01*
X158789761Y-82764428D02*
X159504047Y-83002523D01*
X159504047Y-82383476D01*
%TO.C,C8*%
X121753333Y-81129142D02*
X121705714Y-81176761D01*
X121562857Y-81224380D01*
X121467619Y-81224380D01*
X121324761Y-81176761D01*
X121229523Y-81081523D01*
X121181904Y-80986285D01*
X121134285Y-80795809D01*
X121134285Y-80652952D01*
X121181904Y-80462476D01*
X121229523Y-80367238D01*
X121324761Y-80272000D01*
X121467619Y-80224380D01*
X121562857Y-80224380D01*
X121705714Y-80272000D01*
X121753333Y-80319619D01*
X122324761Y-80652952D02*
X122229523Y-80605333D01*
X122181904Y-80557714D01*
X122134285Y-80462476D01*
X122134285Y-80414857D01*
X122181904Y-80319619D01*
X122229523Y-80272000D01*
X122324761Y-80224380D01*
X122515238Y-80224380D01*
X122610476Y-80272000D01*
X122658095Y-80319619D01*
X122705714Y-80414857D01*
X122705714Y-80462476D01*
X122658095Y-80557714D01*
X122610476Y-80605333D01*
X122515238Y-80652952D01*
X122324761Y-80652952D01*
X122229523Y-80700571D01*
X122181904Y-80748190D01*
X122134285Y-80843428D01*
X122134285Y-81033904D01*
X122181904Y-81129142D01*
X122229523Y-81176761D01*
X122324761Y-81224380D01*
X122515238Y-81224380D01*
X122610476Y-81176761D01*
X122658095Y-81129142D01*
X122705714Y-81033904D01*
X122705714Y-80843428D01*
X122658095Y-80748190D01*
X122610476Y-80700571D01*
X122515238Y-80652952D01*
%TO.C,R7*%
X98496380Y-118276666D02*
X98020190Y-118610000D01*
X98496380Y-118848095D02*
X97496380Y-118848095D01*
X97496380Y-118467142D01*
X97544000Y-118371904D01*
X97591619Y-118324285D01*
X97686857Y-118276666D01*
X97829714Y-118276666D01*
X97924952Y-118324285D01*
X97972571Y-118371904D01*
X98020190Y-118467142D01*
X98020190Y-118848095D01*
X97496380Y-117943333D02*
X97496380Y-117276666D01*
X98496380Y-117705238D01*
%TO.C,R20*%
X115387380Y-67190857D02*
X114911190Y-67524190D01*
X115387380Y-67762285D02*
X114387380Y-67762285D01*
X114387380Y-67381333D01*
X114435000Y-67286095D01*
X114482619Y-67238476D01*
X114577857Y-67190857D01*
X114720714Y-67190857D01*
X114815952Y-67238476D01*
X114863571Y-67286095D01*
X114911190Y-67381333D01*
X114911190Y-67762285D01*
X114482619Y-66809904D02*
X114435000Y-66762285D01*
X114387380Y-66667047D01*
X114387380Y-66428952D01*
X114435000Y-66333714D01*
X114482619Y-66286095D01*
X114577857Y-66238476D01*
X114673095Y-66238476D01*
X114815952Y-66286095D01*
X115387380Y-66857523D01*
X115387380Y-66238476D01*
X114387380Y-65619428D02*
X114387380Y-65524190D01*
X114435000Y-65428952D01*
X114482619Y-65381333D01*
X114577857Y-65333714D01*
X114768333Y-65286095D01*
X115006428Y-65286095D01*
X115196904Y-65333714D01*
X115292142Y-65381333D01*
X115339761Y-65428952D01*
X115387380Y-65524190D01*
X115387380Y-65619428D01*
X115339761Y-65714666D01*
X115292142Y-65762285D01*
X115196904Y-65809904D01*
X115006428Y-65857523D01*
X114768333Y-65857523D01*
X114577857Y-65809904D01*
X114482619Y-65762285D01*
X114435000Y-65714666D01*
X114387380Y-65619428D01*
%TO.C,C33*%
X91162142Y-136659857D02*
X91209761Y-136707476D01*
X91257380Y-136850333D01*
X91257380Y-136945571D01*
X91209761Y-137088428D01*
X91114523Y-137183666D01*
X91019285Y-137231285D01*
X90828809Y-137278904D01*
X90685952Y-137278904D01*
X90495476Y-137231285D01*
X90400238Y-137183666D01*
X90305000Y-137088428D01*
X90257380Y-136945571D01*
X90257380Y-136850333D01*
X90305000Y-136707476D01*
X90352619Y-136659857D01*
X90257380Y-136326523D02*
X90257380Y-135707476D01*
X90638333Y-136040809D01*
X90638333Y-135897952D01*
X90685952Y-135802714D01*
X90733571Y-135755095D01*
X90828809Y-135707476D01*
X91066904Y-135707476D01*
X91162142Y-135755095D01*
X91209761Y-135802714D01*
X91257380Y-135897952D01*
X91257380Y-136183666D01*
X91209761Y-136278904D01*
X91162142Y-136326523D01*
X90257380Y-135374142D02*
X90257380Y-134755095D01*
X90638333Y-135088428D01*
X90638333Y-134945571D01*
X90685952Y-134850333D01*
X90733571Y-134802714D01*
X90828809Y-134755095D01*
X91066904Y-134755095D01*
X91162142Y-134802714D01*
X91209761Y-134850333D01*
X91257380Y-134945571D01*
X91257380Y-135231285D01*
X91209761Y-135326523D01*
X91162142Y-135374142D01*
%TO.C,U12*%
X165639904Y-117435380D02*
X165639904Y-118244904D01*
X165687523Y-118340142D01*
X165735142Y-118387761D01*
X165830380Y-118435380D01*
X166020857Y-118435380D01*
X166116095Y-118387761D01*
X166163714Y-118340142D01*
X166211333Y-118244904D01*
X166211333Y-117435380D01*
X167211333Y-118435380D02*
X166639904Y-118435380D01*
X166925619Y-118435380D02*
X166925619Y-117435380D01*
X166830380Y-117578238D01*
X166735142Y-117673476D01*
X166639904Y-117721095D01*
X167592285Y-117530619D02*
X167639904Y-117483000D01*
X167735142Y-117435380D01*
X167973238Y-117435380D01*
X168068476Y-117483000D01*
X168116095Y-117530619D01*
X168163714Y-117625857D01*
X168163714Y-117721095D01*
X168116095Y-117863952D01*
X167544666Y-118435380D01*
X168163714Y-118435380D01*
%TO.C,U2*%
X119213380Y-85597904D02*
X120022904Y-85597904D01*
X120118142Y-85550285D01*
X120165761Y-85502666D01*
X120213380Y-85407428D01*
X120213380Y-85216952D01*
X120165761Y-85121714D01*
X120118142Y-85074095D01*
X120022904Y-85026476D01*
X119213380Y-85026476D01*
X119308619Y-84597904D02*
X119261000Y-84550285D01*
X119213380Y-84455047D01*
X119213380Y-84216952D01*
X119261000Y-84121714D01*
X119308619Y-84074095D01*
X119403857Y-84026476D01*
X119499095Y-84026476D01*
X119641952Y-84074095D01*
X120213380Y-84645523D01*
X120213380Y-84026476D01*
%TO.C,D3*%
X168727380Y-130913095D02*
X167727380Y-130913095D01*
X167727380Y-130675000D01*
X167775000Y-130532142D01*
X167870238Y-130436904D01*
X167965476Y-130389285D01*
X168155952Y-130341666D01*
X168298809Y-130341666D01*
X168489285Y-130389285D01*
X168584523Y-130436904D01*
X168679761Y-130532142D01*
X168727380Y-130675000D01*
X168727380Y-130913095D01*
X167727380Y-130008333D02*
X167727380Y-129389285D01*
X168108333Y-129722619D01*
X168108333Y-129579761D01*
X168155952Y-129484523D01*
X168203571Y-129436904D01*
X168298809Y-129389285D01*
X168536904Y-129389285D01*
X168632142Y-129436904D01*
X168679761Y-129484523D01*
X168727380Y-129579761D01*
X168727380Y-129865476D01*
X168679761Y-129960714D01*
X168632142Y-130008333D01*
%TO.C,J9*%
X94281666Y-102224380D02*
X94281666Y-102938666D01*
X94234047Y-103081523D01*
X94138809Y-103176761D01*
X93995952Y-103224380D01*
X93900714Y-103224380D01*
X94805476Y-103224380D02*
X94995952Y-103224380D01*
X95091190Y-103176761D01*
X95138809Y-103129142D01*
X95234047Y-102986285D01*
X95281666Y-102795809D01*
X95281666Y-102414857D01*
X95234047Y-102319619D01*
X95186428Y-102272000D01*
X95091190Y-102224380D01*
X94900714Y-102224380D01*
X94805476Y-102272000D01*
X94757857Y-102319619D01*
X94710238Y-102414857D01*
X94710238Y-102652952D01*
X94757857Y-102748190D01*
X94805476Y-102795809D01*
X94900714Y-102843428D01*
X95091190Y-102843428D01*
X95186428Y-102795809D01*
X95234047Y-102748190D01*
X95281666Y-102652952D01*
%TO.C,R15*%
X97528142Y-88209380D02*
X97194809Y-87733190D01*
X96956714Y-88209380D02*
X96956714Y-87209380D01*
X97337666Y-87209380D01*
X97432904Y-87257000D01*
X97480523Y-87304619D01*
X97528142Y-87399857D01*
X97528142Y-87542714D01*
X97480523Y-87637952D01*
X97432904Y-87685571D01*
X97337666Y-87733190D01*
X96956714Y-87733190D01*
X98480523Y-88209380D02*
X97909095Y-88209380D01*
X98194809Y-88209380D02*
X98194809Y-87209380D01*
X98099571Y-87352238D01*
X98004333Y-87447476D01*
X97909095Y-87495095D01*
X99385285Y-87209380D02*
X98909095Y-87209380D01*
X98861476Y-87685571D01*
X98909095Y-87637952D01*
X99004333Y-87590333D01*
X99242428Y-87590333D01*
X99337666Y-87637952D01*
X99385285Y-87685571D01*
X99432904Y-87780809D01*
X99432904Y-88018904D01*
X99385285Y-88114142D01*
X99337666Y-88161761D01*
X99242428Y-88209380D01*
X99004333Y-88209380D01*
X98909095Y-88161761D01*
X98861476Y-88114142D01*
%TO.C,R19*%
X122928142Y-66365380D02*
X122594809Y-65889190D01*
X122356714Y-66365380D02*
X122356714Y-65365380D01*
X122737666Y-65365380D01*
X122832904Y-65413000D01*
X122880523Y-65460619D01*
X122928142Y-65555857D01*
X122928142Y-65698714D01*
X122880523Y-65793952D01*
X122832904Y-65841571D01*
X122737666Y-65889190D01*
X122356714Y-65889190D01*
X123880523Y-66365380D02*
X123309095Y-66365380D01*
X123594809Y-66365380D02*
X123594809Y-65365380D01*
X123499571Y-65508238D01*
X123404333Y-65603476D01*
X123309095Y-65651095D01*
X124356714Y-66365380D02*
X124547190Y-66365380D01*
X124642428Y-66317761D01*
X124690047Y-66270142D01*
X124785285Y-66127285D01*
X124832904Y-65936809D01*
X124832904Y-65555857D01*
X124785285Y-65460619D01*
X124737666Y-65413000D01*
X124642428Y-65365380D01*
X124451952Y-65365380D01*
X124356714Y-65413000D01*
X124309095Y-65460619D01*
X124261476Y-65555857D01*
X124261476Y-65793952D01*
X124309095Y-65889190D01*
X124356714Y-65936809D01*
X124451952Y-65984428D01*
X124642428Y-65984428D01*
X124737666Y-65936809D01*
X124785285Y-65889190D01*
X124832904Y-65793952D01*
%TO.C,C9*%
X169267142Y-126023666D02*
X169314761Y-126071285D01*
X169362380Y-126214142D01*
X169362380Y-126309380D01*
X169314761Y-126452238D01*
X169219523Y-126547476D01*
X169124285Y-126595095D01*
X168933809Y-126642714D01*
X168790952Y-126642714D01*
X168600476Y-126595095D01*
X168505238Y-126547476D01*
X168410000Y-126452238D01*
X168362380Y-126309380D01*
X168362380Y-126214142D01*
X168410000Y-126071285D01*
X168457619Y-126023666D01*
X169362380Y-125547476D02*
X169362380Y-125357000D01*
X169314761Y-125261761D01*
X169267142Y-125214142D01*
X169124285Y-125118904D01*
X168933809Y-125071285D01*
X168552857Y-125071285D01*
X168457619Y-125118904D01*
X168410000Y-125166523D01*
X168362380Y-125261761D01*
X168362380Y-125452238D01*
X168410000Y-125547476D01*
X168457619Y-125595095D01*
X168552857Y-125642714D01*
X168790952Y-125642714D01*
X168886190Y-125595095D01*
X168933809Y-125547476D01*
X168981428Y-125452238D01*
X168981428Y-125261761D01*
X168933809Y-125166523D01*
X168886190Y-125118904D01*
X168790952Y-125071285D01*
%TO.C,R14*%
X97530142Y-84372380D02*
X97196809Y-83896190D01*
X96958714Y-84372380D02*
X96958714Y-83372380D01*
X97339666Y-83372380D01*
X97434904Y-83420000D01*
X97482523Y-83467619D01*
X97530142Y-83562857D01*
X97530142Y-83705714D01*
X97482523Y-83800952D01*
X97434904Y-83848571D01*
X97339666Y-83896190D01*
X96958714Y-83896190D01*
X98482523Y-84372380D02*
X97911095Y-84372380D01*
X98196809Y-84372380D02*
X98196809Y-83372380D01*
X98101571Y-83515238D01*
X98006333Y-83610476D01*
X97911095Y-83658095D01*
X99339666Y-83705714D02*
X99339666Y-84372380D01*
X99101571Y-83324761D02*
X98863476Y-84039047D01*
X99482523Y-84039047D01*
%TO.C,R4*%
X96210380Y-136183666D02*
X95734190Y-136517000D01*
X96210380Y-136755095D02*
X95210380Y-136755095D01*
X95210380Y-136374142D01*
X95258000Y-136278904D01*
X95305619Y-136231285D01*
X95400857Y-136183666D01*
X95543714Y-136183666D01*
X95638952Y-136231285D01*
X95686571Y-136278904D01*
X95734190Y-136374142D01*
X95734190Y-136755095D01*
X95543714Y-135326523D02*
X96210380Y-135326523D01*
X95162761Y-135564619D02*
X95877047Y-135802714D01*
X95877047Y-135183666D01*
%TO.C,U4*%
X167600380Y-133476904D02*
X168409904Y-133476904D01*
X168505142Y-133429285D01*
X168552761Y-133381666D01*
X168600380Y-133286428D01*
X168600380Y-133095952D01*
X168552761Y-133000714D01*
X168505142Y-132953095D01*
X168409904Y-132905476D01*
X167600380Y-132905476D01*
X167933714Y-132000714D02*
X168600380Y-132000714D01*
X167552761Y-132238809D02*
X168267047Y-132476904D01*
X168267047Y-131857857D01*
%TO.C,R23*%
X164711142Y-132659380D02*
X164377809Y-132183190D01*
X164139714Y-132659380D02*
X164139714Y-131659380D01*
X164520666Y-131659380D01*
X164615904Y-131707000D01*
X164663523Y-131754619D01*
X164711142Y-131849857D01*
X164711142Y-131992714D01*
X164663523Y-132087952D01*
X164615904Y-132135571D01*
X164520666Y-132183190D01*
X164139714Y-132183190D01*
X165092095Y-131754619D02*
X165139714Y-131707000D01*
X165234952Y-131659380D01*
X165473047Y-131659380D01*
X165568285Y-131707000D01*
X165615904Y-131754619D01*
X165663523Y-131849857D01*
X165663523Y-131945095D01*
X165615904Y-132087952D01*
X165044476Y-132659380D01*
X165663523Y-132659380D01*
X165996857Y-131659380D02*
X166615904Y-131659380D01*
X166282571Y-132040333D01*
X166425428Y-132040333D01*
X166520666Y-132087952D01*
X166568285Y-132135571D01*
X166615904Y-132230809D01*
X166615904Y-132468904D01*
X166568285Y-132564142D01*
X166520666Y-132611761D01*
X166425428Y-132659380D01*
X166139714Y-132659380D01*
X166044476Y-132611761D01*
X165996857Y-132564142D01*
%TO.C,R2*%
X180952380Y-70079666D02*
X180476190Y-70413000D01*
X180952380Y-70651095D02*
X179952380Y-70651095D01*
X179952380Y-70270142D01*
X180000000Y-70174904D01*
X180047619Y-70127285D01*
X180142857Y-70079666D01*
X180285714Y-70079666D01*
X180380952Y-70127285D01*
X180428571Y-70174904D01*
X180476190Y-70270142D01*
X180476190Y-70651095D01*
X180047619Y-69698714D02*
X180000000Y-69651095D01*
X179952380Y-69555857D01*
X179952380Y-69317761D01*
X180000000Y-69222523D01*
X180047619Y-69174904D01*
X180142857Y-69127285D01*
X180238095Y-69127285D01*
X180380952Y-69174904D01*
X180952380Y-69746333D01*
X180952380Y-69127285D01*
%TO.C,J4*%
X94281666Y-126242380D02*
X94281666Y-126956666D01*
X94234047Y-127099523D01*
X94138809Y-127194761D01*
X93995952Y-127242380D01*
X93900714Y-127242380D01*
X95186428Y-126575714D02*
X95186428Y-127242380D01*
X94948333Y-126194761D02*
X94710238Y-126909047D01*
X95329285Y-126909047D01*
%TO.C,R17*%
X118737142Y-65984380D02*
X118403809Y-65508190D01*
X118165714Y-65984380D02*
X118165714Y-64984380D01*
X118546666Y-64984380D01*
X118641904Y-65032000D01*
X118689523Y-65079619D01*
X118737142Y-65174857D01*
X118737142Y-65317714D01*
X118689523Y-65412952D01*
X118641904Y-65460571D01*
X118546666Y-65508190D01*
X118165714Y-65508190D01*
X119689523Y-65984380D02*
X119118095Y-65984380D01*
X119403809Y-65984380D02*
X119403809Y-64984380D01*
X119308571Y-65127238D01*
X119213333Y-65222476D01*
X119118095Y-65270095D01*
X120022857Y-64984380D02*
X120689523Y-64984380D01*
X120260952Y-65984380D01*
D10*
%TO.C,U3*%
X114392000Y-74676000D02*
X114392000Y-77436000D01*
X114392000Y-77436000D02*
X115137000Y-77436000D01*
X114392000Y-74676000D02*
X114392000Y-71916000D01*
X114392000Y-71916000D02*
X115137000Y-71916000D01*
X120812000Y-74676000D02*
X120812000Y-77436000D01*
X120812000Y-77436000D02*
X120067000Y-77436000D01*
X120812000Y-74676000D02*
X120812000Y-71916000D01*
X120812000Y-71916000D02*
X120067000Y-71916000D01*
X120067000Y-71916000D02*
X120067000Y-70226000D01*
%TO.C,J3*%
X175955000Y-142240000D02*
X173355000Y-142240000D01*
X175955000Y-144840000D02*
X174625000Y-144840000D01*
X173355000Y-142240000D02*
X173355000Y-144840000D01*
X173355000Y-144840000D02*
X170755000Y-144840000D01*
X175955000Y-63440000D02*
X170755000Y-63440000D01*
X175955000Y-143510000D02*
X175955000Y-144840000D01*
X170755000Y-144840000D02*
X170755000Y-63440000D01*
X175955000Y-142240000D02*
X175955000Y-63440000D01*
%TO.C,J7*%
X93285000Y-88900000D02*
X93285000Y-83760000D01*
X95945000Y-83760000D02*
X93285000Y-83760000D01*
X95945000Y-88900000D02*
X93285000Y-88900000D01*
X95945000Y-90170000D02*
X95945000Y-91500000D01*
X95945000Y-88900000D02*
X95945000Y-83760000D01*
X95945000Y-91500000D02*
X94615000Y-91500000D01*
%TO.C,C3*%
X126852000Y-73767836D02*
X126852000Y-73552164D01*
X126132000Y-73767836D02*
X126132000Y-73552164D01*
%TO.C,C4*%
X147426000Y-80117836D02*
X147426000Y-79902164D01*
X146706000Y-80117836D02*
X146706000Y-79902164D01*
%TO.C,C11*%
X162413836Y-79862000D02*
X162198164Y-79862000D01*
X162413836Y-79142000D02*
X162198164Y-79142000D01*
%TO.C,C13*%
X157732000Y-94548580D02*
X157732000Y-94267420D01*
X158752000Y-94548580D02*
X158752000Y-94267420D01*
%TO.C,CH1*%
X163214164Y-98573000D02*
X163429836Y-98573000D01*
X163214164Y-99293000D02*
X163429836Y-99293000D01*
%TO.C,CL1*%
X161270836Y-98573000D02*
X161055164Y-98573000D01*
X161270836Y-99293000D02*
X161055164Y-99293000D01*
D12*
%TO.C,FL1*%
X163295000Y-99821000D02*
X160910000Y-99821000D01*
X162940000Y-101601000D02*
X160910000Y-101601000D01*
D10*
%TO.C,C15*%
X162158000Y-89642836D02*
X162158000Y-89427164D01*
X161438000Y-89642836D02*
X161438000Y-89427164D01*
%TO.C,J2*%
X112489000Y-79250000D02*
X111942471Y-79250000D01*
X112489000Y-71695000D02*
X111686530Y-71695000D01*
X112489000Y-80770000D02*
X111379000Y-80770000D01*
X110815529Y-79250000D02*
X110269000Y-79250000D01*
X111071470Y-71695000D02*
X110269000Y-71695000D01*
X112489000Y-80010000D02*
X112489000Y-80770000D01*
X110269000Y-79250000D02*
X110269000Y-71695000D01*
X112489000Y-79250000D02*
X112489000Y-71695000D01*
%TO.C,J5*%
X95725000Y-119627000D02*
X94615000Y-119627000D01*
X95725000Y-118107000D02*
X95178471Y-118107000D01*
X93505000Y-118107000D02*
X93505000Y-114362000D01*
X95725000Y-118107000D02*
X95725000Y-114362000D01*
X94051529Y-118107000D02*
X93505000Y-118107000D01*
X95725000Y-114362000D02*
X94922530Y-114362000D01*
X94307470Y-114362000D02*
X93505000Y-114362000D01*
X95725000Y-118867000D02*
X95725000Y-119627000D01*
%TO.C,L1*%
X147045000Y-73225242D02*
X147045000Y-71554758D01*
X148865000Y-73225242D02*
X148865000Y-71554758D01*
%TO.C,R11*%
X128269000Y-73506359D02*
X128269000Y-73813641D01*
X127509000Y-73506359D02*
X127509000Y-73813641D01*
%TO.C,R12*%
X127126000Y-76607641D02*
X127126000Y-76300359D01*
X126366000Y-76607641D02*
X126366000Y-76300359D01*
%TO.C,R13*%
X127280641Y-71248000D02*
X126973359Y-71248000D01*
X127280641Y-72008000D02*
X126973359Y-72008000D01*
%TO.C,R16*%
X127128000Y-68225641D02*
X127128000Y-67918359D01*
X127888000Y-68225641D02*
X127888000Y-67918359D01*
%TO.C,R27*%
X132841000Y-108177359D02*
X132841000Y-108484641D01*
X132081000Y-108177359D02*
X132081000Y-108484641D01*
%TO.C,R28*%
X158903641Y-80646000D02*
X158596359Y-80646000D01*
X158903641Y-81406000D02*
X158596359Y-81406000D01*
%TO.C,R29*%
X154278359Y-70105000D02*
X154585641Y-70105000D01*
X154278359Y-70865000D02*
X154585641Y-70865000D01*
%TO.C,R30*%
X149861000Y-71654641D02*
X149861000Y-71347359D01*
X150621000Y-71654641D02*
X150621000Y-71347359D01*
%TO.C,U5*%
X126492000Y-101414000D02*
X124292000Y-101414000D01*
X126492000Y-101414000D02*
X130092000Y-101414000D01*
X126492000Y-95944000D02*
X128692000Y-95944000D01*
X126492000Y-95944000D02*
X124292000Y-95944000D01*
%TO.C,C2*%
X123844164Y-73385000D02*
X124059836Y-73385000D01*
X123844164Y-72665000D02*
X124059836Y-72665000D01*
%TO.C,C5*%
X147847164Y-68982000D02*
X148062836Y-68982000D01*
X147847164Y-69702000D02*
X148062836Y-69702000D01*
%TO.C,C6*%
X148109000Y-79255252D02*
X148109000Y-78732748D01*
X149579000Y-79255252D02*
X149579000Y-78732748D01*
%TO.C,C10*%
X162198164Y-73300000D02*
X162413836Y-73300000D01*
X162198164Y-74020000D02*
X162413836Y-74020000D01*
%TO.C,C12*%
X153523836Y-72369000D02*
X153308164Y-72369000D01*
X153523836Y-71649000D02*
X153308164Y-71649000D01*
%TO.C,C14*%
X151278000Y-71393164D02*
X151278000Y-71608836D01*
X151998000Y-71393164D02*
X151998000Y-71608836D01*
%TO.C,CH2*%
X159238836Y-101452000D02*
X159023164Y-101452000D01*
X159238836Y-100732000D02*
X159023164Y-100732000D01*
%TO.C,CL2*%
X164484164Y-102341000D02*
X164699836Y-102341000D01*
X164484164Y-101621000D02*
X164699836Y-101621000D01*
D12*
%TO.C,D2*%
X128500000Y-67564000D02*
G75*
G03*
X128500000Y-67564000I-50000J0D01*
G01*
D11*
%TO.C,U1*%
X130239000Y-84010000D02*
X130239000Y-83335000D01*
X130239000Y-69660000D02*
X130914000Y-69660000D01*
X130239000Y-84010000D02*
X130914000Y-84010000D01*
X144014000Y-69660000D02*
X144014000Y-68385000D01*
X144589000Y-69660000D02*
X144589000Y-70335000D01*
X130239000Y-69660000D02*
X130239000Y-70335000D01*
X144589000Y-84010000D02*
X143914000Y-84010000D01*
X144589000Y-84010000D02*
X144589000Y-83335000D01*
X144589000Y-69660000D02*
X144014000Y-69660000D01*
D10*
%TO.C,Y2*%
X160656000Y-78581000D02*
X163956000Y-78581000D01*
X163956000Y-78581000D02*
X163956000Y-74581000D01*
%TO.C,N1*%
X118364000Y-105664000D02*
X118364000Y-104394000D01*
X118364000Y-118618000D02*
X117094000Y-118618000D01*
X100076000Y-118618000D02*
X101346000Y-118618000D01*
X100076000Y-105664000D02*
X100076000Y-104394000D01*
X118364000Y-117348000D02*
X118364000Y-118618000D01*
X100076000Y-117348000D02*
X100076000Y-118618000D01*
X100076000Y-104394000D02*
X101346000Y-104394000D01*
X118364000Y-104394000D02*
X117094000Y-104394000D01*
%TO.C,N2*%
X118364000Y-89154000D02*
X117094000Y-89154000D01*
X100076000Y-89154000D02*
X101346000Y-89154000D01*
X118364000Y-102108000D02*
X118364000Y-103378000D01*
X100076000Y-103378000D02*
X101346000Y-103378000D01*
X100076000Y-102108000D02*
X100076000Y-103378000D01*
X100076000Y-90424000D02*
X100076000Y-89154000D01*
X118364000Y-103378000D02*
X117094000Y-103378000D01*
X118364000Y-90424000D02*
X118364000Y-89154000D01*
%TO.C,N3*%
X153924000Y-89535000D02*
X152654000Y-89535000D01*
X153924000Y-103759000D02*
X152654000Y-103759000D01*
X135636000Y-90805000D02*
X135636000Y-89535000D01*
X135636000Y-89535000D02*
X136906000Y-89535000D01*
X153924000Y-102489000D02*
X153924000Y-103759000D01*
X135636000Y-103759000D02*
X136906000Y-103759000D01*
X135636000Y-102489000D02*
X135636000Y-103759000D01*
X153924000Y-90805000D02*
X153924000Y-89535000D01*
%TO.C,N4*%
X155067000Y-118110000D02*
X155067000Y-119380000D01*
X155067000Y-119380000D02*
X153797000Y-119380000D01*
X155067000Y-105156000D02*
X153797000Y-105156000D01*
X136779000Y-119380000D02*
X138049000Y-119380000D01*
X136779000Y-106426000D02*
X136779000Y-105156000D01*
X136779000Y-118110000D02*
X136779000Y-119380000D01*
X136779000Y-105156000D02*
X138049000Y-105156000D01*
X155067000Y-106426000D02*
X155067000Y-105156000D01*
%TO.C,N5*%
X113030000Y-123444000D02*
X114300000Y-123444000D01*
X100076000Y-123444000D02*
X100076000Y-124714000D01*
X100076000Y-141732000D02*
X100076000Y-140462000D01*
X114300000Y-123444000D02*
X114300000Y-124714000D01*
X101346000Y-123444000D02*
X100076000Y-123444000D01*
X114300000Y-141732000D02*
X114300000Y-140462000D01*
X113030000Y-141732000D02*
X114300000Y-141732000D01*
X101346000Y-141732000D02*
X100076000Y-141732000D01*
%TO.C,N6*%
X161036000Y-141732000D02*
X162306000Y-141732000D01*
X162306000Y-123444000D02*
X162306000Y-124714000D01*
X149352000Y-141732000D02*
X148082000Y-141732000D01*
X148082000Y-141732000D02*
X148082000Y-140462000D01*
X148082000Y-123444000D02*
X148082000Y-124714000D01*
X162306000Y-141732000D02*
X162306000Y-140462000D01*
X149352000Y-123444000D02*
X148082000Y-123444000D01*
X161036000Y-123444000D02*
X162306000Y-123444000D01*
%TO.C,N7*%
X130302000Y-123444000D02*
X130302000Y-124714000D01*
X117348000Y-123444000D02*
X116078000Y-123444000D01*
X129032000Y-141732000D02*
X130302000Y-141732000D01*
X117348000Y-141732000D02*
X116078000Y-141732000D01*
X130302000Y-141732000D02*
X130302000Y-140462000D01*
X116078000Y-123444000D02*
X116078000Y-124714000D01*
X116078000Y-141732000D02*
X116078000Y-140462000D01*
X129032000Y-123444000D02*
X130302000Y-123444000D01*
%TO.C,N8*%
X146304000Y-123444000D02*
X146304000Y-124714000D01*
X133350000Y-141732000D02*
X132080000Y-141732000D01*
X132080000Y-123444000D02*
X132080000Y-124714000D01*
X145034000Y-141732000D02*
X146304000Y-141732000D01*
X145034000Y-123444000D02*
X146304000Y-123444000D01*
X146304000Y-141732000D02*
X146304000Y-140462000D01*
X133350000Y-123444000D02*
X132080000Y-123444000D01*
X132080000Y-141732000D02*
X132080000Y-140462000D01*
%TO.C,U6*%
X127889000Y-112971000D02*
X131489000Y-112971000D01*
X127889000Y-112971000D02*
X125689000Y-112971000D01*
X127889000Y-107501000D02*
X125689000Y-107501000D01*
X127889000Y-107501000D02*
X130089000Y-107501000D01*
%TO.C,U7*%
X160230000Y-76581000D02*
X160230000Y-78781000D01*
X153460000Y-76581000D02*
X153460000Y-74381000D01*
X153460000Y-76581000D02*
X153460000Y-80181000D01*
X160230000Y-76581000D02*
X160230000Y-74381000D01*
%TO.C,U8*%
X164993000Y-94488000D02*
X164993000Y-91038000D01*
X159873000Y-94488000D02*
X159873000Y-96438000D01*
X159873000Y-94488000D02*
X159873000Y-92538000D01*
X164993000Y-94488000D02*
X164993000Y-96438000D01*
%TO.C,C1*%
X124061591Y-78507000D02*
X123845919Y-78507000D01*
X124061591Y-79227000D02*
X123845919Y-79227000D01*
%TO.C,J6*%
X150754000Y-88180000D02*
X150754000Y-86855000D01*
X154554000Y-86855000D02*
X154619000Y-86855000D01*
X150689000Y-83325000D02*
X150754000Y-83325000D01*
X150689000Y-86855000D02*
X150754000Y-86855000D01*
X150689000Y-86855000D02*
X150689000Y-83325000D01*
X154619000Y-86855000D02*
X154619000Y-83325000D01*
X154554000Y-83325000D02*
X154619000Y-83325000D01*
%TO.C,Q1*%
X104904000Y-77922000D02*
X106364000Y-77922000D01*
X104904000Y-81082000D02*
X104904000Y-80152000D01*
X104904000Y-77922000D02*
X104904000Y-78852000D01*
X104904000Y-81082000D02*
X107064000Y-81082000D01*
%TO.C,R9*%
X108711000Y-80163641D02*
X108711000Y-79856359D01*
X107951000Y-80163641D02*
X107951000Y-79856359D01*
%TO.C,R10*%
X103377000Y-79856359D02*
X103377000Y-80163641D01*
X102617000Y-79856359D02*
X102617000Y-80163641D01*
%TO.C,R26*%
X130938000Y-97128359D02*
X130938000Y-97435641D01*
X131698000Y-97128359D02*
X131698000Y-97435641D01*
%TO.C,Y1*%
X125603755Y-77948000D02*
X125603755Y-73948000D01*
X122303755Y-77948000D02*
X125603755Y-77948000D01*
%TO.C,R22*%
X119887000Y-68608641D02*
X119887000Y-68301359D01*
X119127000Y-68608641D02*
X119127000Y-68301359D01*
%TO.C,C32*%
X92712000Y-72657580D02*
X92712000Y-72376420D01*
X91692000Y-72657580D02*
X91692000Y-72376420D01*
%TO.C,R_CSB1*%
X165400263Y-124460000D02*
X166847737Y-124460000D01*
X165400263Y-121750000D02*
X166847737Y-121750000D01*
%TO.C,C7*%
X116029080Y-80135000D02*
X115747920Y-80135000D01*
X116029080Y-81155000D02*
X115747920Y-81155000D01*
%TO.C,R21*%
X116686359Y-69595000D02*
X116993641Y-69595000D01*
X116686359Y-68835000D02*
X116993641Y-68835000D01*
%TO.C,R8*%
X97281000Y-123216641D02*
X97281000Y-122909359D01*
X96521000Y-123216641D02*
X96521000Y-122909359D01*
%TO.C,R1*%
X178547500Y-139873258D02*
X178547500Y-139398742D01*
X179592500Y-139873258D02*
X179592500Y-139398742D01*
%TO.C,G\u002A\u002A\u002A*%
G36*
X128785697Y-121030038D02*
G01*
X128761644Y-121054091D01*
X128737591Y-121030038D01*
X128761644Y-121005985D01*
X128785697Y-121030038D01*
G37*
G36*
X125670583Y-118833511D02*
G01*
X125725300Y-118435317D01*
X125846906Y-118076194D01*
X126044072Y-117738030D01*
X126325469Y-117402718D01*
X126384377Y-117342624D01*
X126540677Y-117194721D01*
X126658148Y-117095992D01*
X126722326Y-117095992D01*
X126726297Y-117112821D01*
X126773098Y-117145663D01*
X126896139Y-117211737D01*
X127083690Y-117305311D01*
X127324024Y-117420650D01*
X127605411Y-117552023D01*
X127896878Y-117685013D01*
X129050281Y-118205673D01*
X129079939Y-118474696D01*
X129106848Y-118637326D01*
X129144221Y-118767037D01*
X129170015Y-118816519D01*
X129199702Y-118874723D01*
X129184019Y-118889318D01*
X129125863Y-118878634D01*
X128987780Y-118848654D01*
X128783410Y-118802480D01*
X128526391Y-118743217D01*
X128230365Y-118673970D01*
X128035609Y-118627951D01*
X127702765Y-118551170D01*
X127411784Y-118488288D01*
X127174230Y-118441518D01*
X127001663Y-118413073D01*
X126905644Y-118405166D01*
X126890576Y-118408811D01*
X126895283Y-118449672D01*
X126962735Y-118478547D01*
X127039565Y-118496797D01*
X127196185Y-118533924D01*
X127418755Y-118586652D01*
X127693440Y-118651701D01*
X128006401Y-118725796D01*
X128302647Y-118795918D01*
X128632058Y-118874618D01*
X128929932Y-118947191D01*
X129183650Y-119010448D01*
X129380593Y-119061202D01*
X129508144Y-119096263D01*
X129553404Y-119111966D01*
X129622422Y-119125633D01*
X129746206Y-119111058D01*
X129890179Y-119075699D01*
X130019764Y-119027013D01*
X130066354Y-119001329D01*
X130207516Y-118855965D01*
X130296446Y-118656937D01*
X130327143Y-118434956D01*
X130293603Y-118220737D01*
X130240653Y-118109488D01*
X130180886Y-118046604D01*
X130054828Y-117935282D01*
X129873427Y-117784451D01*
X129647632Y-117603040D01*
X129388391Y-117399978D01*
X129106653Y-117184194D01*
X129098387Y-117177934D01*
X128818586Y-116966022D01*
X128562175Y-116771625D01*
X128339688Y-116602747D01*
X128161659Y-116467390D01*
X128038625Y-116373558D01*
X127981119Y-116329252D01*
X127979921Y-116328294D01*
X127929411Y-116309142D01*
X127919999Y-116345833D01*
X127956922Y-116392539D01*
X128060359Y-116487508D01*
X128219497Y-116621753D01*
X128423523Y-116786287D01*
X128661625Y-116972125D01*
X128806854Y-117082935D01*
X129057556Y-117275016D01*
X129278728Y-117448958D01*
X129459964Y-117596202D01*
X129590856Y-117708190D01*
X129660996Y-117776363D01*
X129669714Y-117792499D01*
X129607326Y-117824899D01*
X129554229Y-117830985D01*
X129463922Y-117861345D01*
X129344319Y-117937797D01*
X129295665Y-117977494D01*
X129128800Y-118124003D01*
X128277208Y-117740558D01*
X128473008Y-117740558D01*
X128737591Y-117879714D01*
X128943949Y-117976627D01*
X129086763Y-118017952D01*
X129160870Y-118002578D01*
X129170546Y-117972848D01*
X129127083Y-117918977D01*
X129013035Y-117860425D01*
X128852911Y-117807123D01*
X128671223Y-117769004D01*
X128665432Y-117768161D01*
X128473008Y-117740558D01*
X128277208Y-117740558D01*
X127948708Y-117592645D01*
X127635488Y-117452091D01*
X127351321Y-117325489D01*
X127230438Y-117272098D01*
X127452412Y-117272098D01*
X127479507Y-117302172D01*
X127572252Y-117356581D01*
X127663233Y-117401310D01*
X127932689Y-117487428D01*
X128243253Y-117521313D01*
X128573603Y-117555824D01*
X128869958Y-117630304D01*
X129106932Y-117737658D01*
X129168998Y-117780027D01*
X129273854Y-117839782D01*
X129363330Y-117829889D01*
X129383391Y-117820056D01*
X129436709Y-117784238D01*
X129435641Y-117744983D01*
X129371842Y-117679781D01*
X129312779Y-117629551D01*
X128974918Y-117406451D01*
X128591555Y-117256293D01*
X128186218Y-117185581D01*
X127782430Y-117200816D01*
X127769100Y-117202908D01*
X127611328Y-117231030D01*
X127496109Y-117256648D01*
X127452412Y-117272098D01*
X127230438Y-117272098D01*
X127107898Y-117217975D01*
X126916906Y-117134681D01*
X126790036Y-117080742D01*
X126738976Y-117061291D01*
X126738868Y-117061288D01*
X126722326Y-117095992D01*
X126658148Y-117095992D01*
X126682428Y-117075586D01*
X126790162Y-117000829D01*
X126832373Y-116983469D01*
X126926409Y-116964629D01*
X127081562Y-116926290D01*
X127266680Y-116876211D01*
X127294410Y-116868364D01*
X127557077Y-116806214D01*
X127790719Y-116783968D01*
X127991947Y-116790598D01*
X128328690Y-116815536D01*
X128185233Y-116709908D01*
X128003813Y-116571087D01*
X127892606Y-116470463D01*
X127840286Y-116395163D01*
X127835525Y-116332315D01*
X127840158Y-116317766D01*
X127906071Y-116254379D01*
X127959048Y-116255110D01*
X128018260Y-116289225D01*
X128143180Y-116374541D01*
X128323360Y-116503462D01*
X128548352Y-116668392D01*
X128807708Y-116861734D01*
X129090982Y-117075892D01*
X129154660Y-117124425D01*
X129503031Y-117391895D01*
X129781491Y-117610619D01*
X129997755Y-117788690D01*
X130159539Y-117934202D01*
X130274558Y-118055248D01*
X130350528Y-118159922D01*
X130395165Y-118256319D01*
X130416183Y-118352531D01*
X130421304Y-118453152D01*
X130385400Y-118673407D01*
X130289955Y-118878377D01*
X130169072Y-119015326D01*
X130096657Y-119090594D01*
X130054713Y-119193282D01*
X130031702Y-119354627D01*
X130028390Y-119396225D01*
X129956890Y-119748356D01*
X129800477Y-120098110D01*
X129569468Y-120429383D01*
X129274178Y-120726070D01*
X129082980Y-120872208D01*
X128938495Y-120963624D01*
X128866889Y-120993487D01*
X128871580Y-120966463D01*
X128955984Y-120887214D01*
X129043653Y-120818526D01*
X129328368Y-120553534D01*
X129562680Y-120232032D01*
X129732682Y-119878019D01*
X129824465Y-119515496D01*
X129830785Y-119460205D01*
X129856370Y-119189237D01*
X129669803Y-119166931D01*
X129573333Y-119149884D01*
X129398023Y-119113397D01*
X129158525Y-119060743D01*
X128869491Y-118995193D01*
X128545576Y-118920020D01*
X128235931Y-118846743D01*
X127902084Y-118768205D01*
X127598005Y-118698942D01*
X127336494Y-118641687D01*
X127130356Y-118599173D01*
X126992392Y-118574135D01*
X126935743Y-118569155D01*
X126871093Y-118631350D01*
X126789346Y-118762322D01*
X126701770Y-118938910D01*
X126619631Y-119137952D01*
X126554195Y-119336290D01*
X126543882Y-119374699D01*
X126489138Y-119770042D01*
X126527319Y-120156000D01*
X126627270Y-120457241D01*
X126685050Y-120595199D01*
X126720109Y-120696194D01*
X126725480Y-120727961D01*
X126757090Y-120773256D01*
X126845523Y-120847513D01*
X126897146Y-120884305D01*
X127005877Y-120963794D01*
X127040344Y-121001325D01*
X127011239Y-121000105D01*
X126929252Y-120963341D01*
X126805073Y-120894239D01*
X126688515Y-120821718D01*
X126313811Y-120527730D01*
X126023038Y-120187446D01*
X125817486Y-119803382D01*
X125698441Y-119378055D01*
X125688289Y-119227289D01*
X126011521Y-119227289D01*
X126051989Y-119646467D01*
X126184392Y-120049678D01*
X126404838Y-120424085D01*
X126534581Y-120590697D01*
X126622760Y-120685088D01*
X126665108Y-120706719D01*
X126657357Y-120655050D01*
X126595239Y-120529540D01*
X126544131Y-120441699D01*
X126406808Y-120184389D01*
X126325499Y-119946458D01*
X126291243Y-119690356D01*
X126294204Y-119394431D01*
X126363094Y-118975629D01*
X126519441Y-118587537D01*
X126678213Y-118355262D01*
X127137914Y-118355262D01*
X127252241Y-118382062D01*
X127336066Y-118401861D01*
X127495217Y-118439581D01*
X127711417Y-118490886D01*
X127966390Y-118551438D01*
X128160319Y-118597520D01*
X128426152Y-118660143D01*
X128660931Y-118714392D01*
X128847985Y-118756501D01*
X128970644Y-118782701D01*
X129010324Y-118789642D01*
X129042084Y-118764761D01*
X129032496Y-118673311D01*
X129019633Y-118623082D01*
X128995789Y-118482723D01*
X129000277Y-118367249D01*
X129002626Y-118358729D01*
X129005228Y-118305817D01*
X128966008Y-118255251D01*
X128869710Y-118195089D01*
X128701082Y-118113389D01*
X128672606Y-118100359D01*
X128416006Y-117984023D01*
X128228234Y-117904357D01*
X128090248Y-117858842D01*
X127983010Y-117844960D01*
X127887477Y-117860191D01*
X127784608Y-117902016D01*
X127658655Y-117966209D01*
X127487872Y-118063240D01*
X127338091Y-118163066D01*
X127246949Y-118239199D01*
X127137914Y-118355262D01*
X126678213Y-118355262D01*
X126756672Y-118240480D01*
X127068215Y-117944784D01*
X127324948Y-117775037D01*
X127601258Y-117619098D01*
X127366520Y-117511252D01*
X127226744Y-117450617D01*
X127137969Y-117429761D01*
X127064770Y-117446186D01*
X126992916Y-117484904D01*
X126829774Y-117607198D01*
X126644997Y-117786364D01*
X126462901Y-117994745D01*
X126307800Y-118204683D01*
X126209698Y-118375766D01*
X126063815Y-118800828D01*
X126011521Y-119227289D01*
X125688289Y-119227289D01*
X125667192Y-118913979D01*
X125670583Y-118833511D01*
G37*
G36*
X128689485Y-121078144D02*
G01*
X128665432Y-121102197D01*
X128641379Y-121078144D01*
X128665432Y-121054091D01*
X128689485Y-121078144D01*
G37*
%TO.C,R18*%
X116993641Y-68452000D02*
X116686359Y-68452000D01*
X116993641Y-67692000D02*
X116686359Y-67692000D01*
%TO.C,C36*%
X158983000Y-113938164D02*
X158983000Y-114153836D01*
X158263000Y-113938164D02*
X158263000Y-114153836D01*
%TO.C,R6*%
X97027000Y-114400359D02*
X97027000Y-114707641D01*
X96267000Y-114400359D02*
X96267000Y-114707641D01*
%TO.C,R3*%
X93711500Y-72279742D02*
X93711500Y-72754258D01*
X94756500Y-72279742D02*
X94756500Y-72754258D01*
%TO.C,C34*%
X166256580Y-109222000D02*
X165975420Y-109222000D01*
X166256580Y-108202000D02*
X165975420Y-108202000D01*
%TO.C,J1*%
X95945000Y-110602000D02*
X95945000Y-111932000D01*
X93285000Y-109332000D02*
X93285000Y-104192000D01*
X95945000Y-111932000D02*
X94615000Y-111932000D01*
X95945000Y-104192000D02*
X93285000Y-104192000D01*
X95945000Y-109332000D02*
X95945000Y-104192000D01*
X95945000Y-109332000D02*
X93285000Y-109332000D01*
%TO.C,R5*%
X157352000Y-83539359D02*
X157352000Y-83846641D01*
X156592000Y-83539359D02*
X156592000Y-83846641D01*
%TO.C,R24*%
X158495000Y-83846641D02*
X158495000Y-83539359D01*
X157735000Y-83846641D02*
X157735000Y-83539359D01*
%TO.C,C8*%
X119112420Y-80008000D02*
X119393580Y-80008000D01*
X119112420Y-81028000D02*
X119393580Y-81028000D01*
%TO.C,R7*%
X97027000Y-117956359D02*
X97027000Y-118263641D01*
X96267000Y-117956359D02*
X96267000Y-118263641D01*
%TO.C,R20*%
X116686359Y-66422000D02*
X116993641Y-66422000D01*
X116686359Y-67182000D02*
X116993641Y-67182000D01*
%TO.C,C33*%
X92712000Y-135876420D02*
X92712000Y-136157580D01*
X91692000Y-135876420D02*
X91692000Y-136157580D01*
%TO.C,U12*%
X162047000Y-116948000D02*
X162047000Y-115688000D01*
X168057000Y-116948000D02*
X162047000Y-116948000D01*
X162047000Y-110128000D02*
X162047000Y-111388000D01*
X165807000Y-110128000D02*
X162047000Y-110128000D01*
%TO.C,U2*%
X115750000Y-85988000D02*
X115750000Y-83268000D01*
X120470000Y-83268000D02*
X120470000Y-85988000D01*
X120470000Y-85988000D02*
X119160000Y-85988000D01*
X120240000Y-82128000D02*
X120240000Y-83268000D01*
X115750000Y-83268000D02*
X115980000Y-83268000D01*
X117060000Y-85988000D02*
X115750000Y-85988000D01*
X120470000Y-83268000D02*
X120240000Y-83268000D01*
D12*
%TO.C,D3*%
X167055000Y-131519000D02*
G75*
G03*
X167055000Y-131519000I-50000J0D01*
G01*
D10*
%TO.C,J9*%
X95945000Y-101772000D02*
X94615000Y-101772000D01*
X95945000Y-99172000D02*
X95945000Y-94032000D01*
X93285000Y-99172000D02*
X93285000Y-94032000D01*
X95945000Y-100442000D02*
X95945000Y-101772000D01*
X95945000Y-94032000D02*
X93285000Y-94032000D01*
X95945000Y-99172000D02*
X93285000Y-99172000D01*
%TO.C,R15*%
X98324641Y-86107000D02*
X98017359Y-86107000D01*
X98324641Y-86867000D02*
X98017359Y-86867000D01*
%TO.C,R19*%
X120270000Y-68299359D02*
X120270000Y-68606641D01*
X121030000Y-68299359D02*
X121030000Y-68606641D01*
%TO.C,C9*%
X168230000Y-127911836D02*
X168230000Y-127696164D01*
X168950000Y-127911836D02*
X168950000Y-127696164D01*
%TO.C,R14*%
X98019359Y-84710000D02*
X98326641Y-84710000D01*
X98019359Y-85470000D02*
X98326641Y-85470000D01*
%TO.C,R4*%
X93711500Y-136254258D02*
X93711500Y-135779742D01*
X94756500Y-136254258D02*
X94756500Y-135779742D01*
%TO.C,U4*%
X167726000Y-128154000D02*
X167726000Y-126354000D01*
X164506000Y-126354000D02*
X164506000Y-128804000D01*
%TO.C,R23*%
X165380641Y-130557000D02*
X165073359Y-130557000D01*
X165380641Y-131317000D02*
X165073359Y-131317000D01*
%TO.C,R2*%
X179592500Y-69675742D02*
X179592500Y-70150258D01*
X178547500Y-69675742D02*
X178547500Y-70150258D01*
%TO.C,J4*%
X95725000Y-124335000D02*
X95178471Y-124335000D01*
X95725000Y-125095000D02*
X95725000Y-125855000D01*
X94307470Y-121860000D02*
X93505000Y-121860000D01*
X95725000Y-125855000D02*
X94615000Y-125855000D01*
X94051529Y-124335000D02*
X93505000Y-124335000D01*
X95725000Y-121860000D02*
X94922530Y-121860000D01*
X95725000Y-124335000D02*
X95725000Y-121860000D01*
X93505000Y-124335000D02*
X93505000Y-121860000D01*
%TO.C,R17*%
X116993641Y-65279000D02*
X116686359Y-65279000D01*
X116993641Y-66039000D02*
X116686359Y-66039000D01*
%TD*%
M02*
