M48
; DRILL file {KiCad (6.0.0)} date Fri Jan 28 18:17:20 2022
; FORMAT={-:-/ absolute / metric / decimal}
; #@! TF.CreationDate,2022-01-28T18:17:20+09:00
; #@! TF.GenerationSoftware,Kicad,Pcbnew,(6.0.0)
; #@! TF.FileFunction,Plated,1,4,PTH
FMAT,2
METRIC
; #@! TA.AperFunction,Plated,PTH,ViaDrill
T1C0.300
; #@! TA.AperFunction,Plated,PTH,ViaDrill
T2C0.400
; #@! TA.AperFunction,Plated,PTH,ViaDrill
T3C0.410
; #@! TA.AperFunction,Plated,PTH,ComponentDrill
T4C0.650
; #@! TA.AperFunction,Plated,PTH,ComponentDrill
T5C1.000
; #@! TA.AperFunction,Plated,PTH,ComponentDrill
T6C2.200
; #@! TA.AperFunction,Plated,PTH,ComponentDrill
T7C3.200
%
G90
G05
T1
X94.234Y-102.997
X94.488Y-92.71
X94.615Y-120.777
X95.25Y-113.665
X95.758Y-70.993
X95.885Y-104.013
X96.139Y-126.746
X96.227Y-100.076
X96.52Y-137.922
X96.647Y-107.569
X97.282Y-144.018
X97.457Y-114.808
X98.044Y-94.869
X98.171Y-66.04
X98.298Y-141.859
X98.425Y-109.601
X98.933Y-90.932
X98.933Y-104.521
X99.06Y-103.378
X99.06Y-105.664
X99.949Y-137.668
X100.076Y-118.618
X100.076Y-128.651
X100.203Y-104.648
X100.33Y-140.335
X100.457Y-85.979
X100.584Y-85.09
X100.838Y-117.729
X101.505Y-114.014
X101.727Y-79.502
X102.129Y-122.53
X102.489Y-107.696
X102.489Y-115.697
X102.489Y-120.015
X102.616Y-98.806
X102.616Y-101.473
X102.616Y-109.601
X103.124Y-90.805
X103.124Y-92.837
X103.251Y-126.492
X103.632Y-133.096
X104.521Y-82.931
X104.775Y-121.31
X105.537Y-77.724
X106.299Y-110.998
X106.68Y-94.742
X107.061Y-86.741
X107.061Y-117.348
X107.315Y-132.207
X108.077Y-76.962
X108.458Y-119.38
X108.458Y-121.412
X109.093Y-78.74
X109.601Y-108.966
X109.728Y-102.362
X109.855Y-113.919
X110.49Y-118.745
X110.744Y-137.668
X110.998Y-90.297
X111.252Y-142.875
X111.506Y-105.156
X111.76Y-102.235
X112.014Y-108.966
X112.014Y-121.793
X112.141Y-125.603
X112.903Y-97.536
X113.03Y-111.887
X113.157Y-116.332
X113.284Y-141.097
X114.046Y-143.002
X114.3Y-77.089
X114.3Y-78.74
X114.3Y-136.652
X114.427Y-82.169
X114.681Y-141.732
X115.316Y-86.106
X115.316Y-128.651
X115.697Y-75.184
X115.697Y-108.458
X115.824Y-95.25
X115.824Y-113.03
X116.078Y-135.128
X116.332Y-84.074
X116.586Y-103.505
X116.586Y-106.553
X117.094Y-126.492
X117.221Y-76.454
X117.983Y-133.858
X118.491Y-105.791
X118.872Y-143.256
X119.253Y-118.618
X119.507Y-98.298
X119.507Y-115.316
X119.634Y-75.565
X119.634Y-100.33
X119.888Y-84.201
X120.015Y-135.001
X121.031Y-102.235
X121.031Y-113.665
X121.031Y-125.984
X121.158Y-95.758
X121.158Y-117.475
X121.282Y-119.637
X121.285Y-94.234
X121.412Y-73.914
X121.412Y-77.216
X121.412Y-114.554
X121.539Y-109.728
X121.666Y-86.487
X121.793Y-144.145
X121.92Y-131.064
X122.024Y-115.813
X122.378Y-107.569
X122.555Y-135.763
X122.682Y-85.09
X123.002Y-108.392
X123.306Y-115.189
X123.306Y-117.863
X123.454Y-118.649
X123.622Y-119.431
X123.698Y-109.22
X123.698Y-114.173
X123.825Y-82.423
X123.825Y-86.563
X124.079Y-81.026
X124.206Y-94.488
X124.333Y-137.795
X124.811Y-97.079
X124.841Y-102.616
X124.841Y-104.394
X124.841Y-106.045
X124.841Y-128.397
X124.968Y-113.665
X125.216Y-96.39
X125.222Y-99.187
X125.349Y-71.628
X125.349Y-82.55
X125.359Y-86.487
X125.478Y-72.898
X125.603Y-78.486
X125.603Y-97.732
X125.994Y-85.471
X126.111Y-68.453
X126.619Y-81.026
X126.619Y-109.535
X126.746Y-80.01
X127.127Y-138.049
X127.254Y-138.938
X127.381Y-97.917
X127.39Y-81.237
X127.635Y-111.887
X127.762Y-69.723
X127.762Y-82.042
X127.991Y-129.489
X128.143Y-78.994
X128.143Y-119.253
X128.143Y-125.476
X128.143Y-128.676
X128.249Y-127.884
X128.295Y-104.14
X128.397Y-79.756
X128.778Y-114.681
X128.778Y-141.097
X128.905Y-141.986
X129.032Y-110.998
X129.159Y-116.789
X129.159Y-130.12
X129.413Y-84.176
X129.413Y-95.123
X129.667Y-86.995
X130.073Y-130.12
X130.302Y-106.553
X130.937Y-92.964
X130.937Y-103.759
X130.937Y-105.283
X131.064Y-72.39
X131.064Y-73.241
X131.064Y-74.041
X131.191Y-124.46
X131.191Y-125.603
X131.191Y-141.351
X131.445Y-76.073
X131.826Y-113.538
X132.08Y-140.97
X132.139Y-114.568
X132.207Y-96.139
X132.642Y-115.189
X132.75Y-110.521
X132.842Y-112.141
X133.092Y-101.854
X133.096Y-97.536
X133.477Y-78.105
X133.477Y-81.788
X133.477Y-135.636
X133.731Y-137.922
X133.881Y-92.004
X134.239Y-98.806
X134.366Y-113.919
X134.54Y-92.456
X134.747Y-118.11
X134.747Y-119.253
X135.001Y-116.205
X135.001Y-135.128
X135.128Y-128.397
X135.29Y-102.489
X135.379Y-108.461
X135.382Y-131.953
X135.89Y-72.898
X136.144Y-66.421
X136.652Y-72.39
X136.906Y-65.278
X137.033Y-106.299
X137.033Y-120.777
X137.287Y-75.3
X137.287Y-139.192
X137.414Y-71.882
X137.668Y-79.883
X137.668Y-144.145
X137.922Y-138.557
X138.176Y-71.374
X138.43Y-92.075
X138.43Y-131.191
X138.546Y-137.922
X138.557Y-128.651
X138.684Y-116.205
X138.811Y-74.676
X138.938Y-70.866
X138.938Y-121.92
X139.171Y-137.287
X139.319Y-103.759
X139.446Y-88.519
X139.796Y-136.634
X139.954Y-70.612
X139.954Y-107.569
X140.081Y-111.76
X140.208Y-99.822
X140.482Y-139.149
X140.716Y-97.917
X140.716Y-135.89
X141.224Y-116.586
X141.224Y-139.446
X141.351Y-120.904
X141.478Y-78.105
X141.478Y-81.915
X142.113Y-136.525
X142.367Y-128.397
X142.621Y-139.319
X144.272Y-133.985
X144.78Y-142.24
X144.907Y-68.707
X145.415Y-139.192
X145.542Y-91.694
X145.605Y-69.913
X146.177Y-117.729
X146.304Y-101.473
X146.304Y-109.728
X146.812Y-84.328
X146.812Y-87.376
X146.812Y-141.097
X146.939Y-92.202
X147.066Y-75.819
X147.066Y-77.978
X147.066Y-95.758
X147.32Y-93.98
X147.574Y-142.24
X147.828Y-116.586
X148.717Y-132.334
X148.844Y-120.904
X148.971Y-81.534
X148.971Y-122.682
X148.971Y-141.605
X149.098Y-72.009
X149.098Y-124.333
X149.606Y-74.295
X149.606Y-134.874
X150.114Y-75.819
X150.114Y-85.391
X150.368Y-80.01
X151.003Y-73.025
X151.003Y-127.635
X151.257Y-134.493
X151.384Y-79.756
X152.019Y-130.429
X152.019Y-138.938
X152.273Y-73.152
X152.273Y-132.969
X152.4Y-76.581
X152.4Y-131.572
X152.654Y-122.047
X152.654Y-135.763
X152.908Y-134.493
X153.035Y-70.866
X153.035Y-112.649
X153.035Y-118.872
X153.162Y-85.09
X153.416Y-75.311
X153.543Y-107.188
X153.67Y-90.932
X154.051Y-105.791
X154.051Y-131.191
X154.051Y-133.096
X154.051Y-139.065
X154.559Y-75.311
X154.559Y-104.521
X154.686Y-135.766
X155.067Y-89.154
X155.448Y-128.905
X155.687Y-132.461
X155.702Y-85.217
X156.337Y-121.92
X156.337Y-128.397
X156.354Y-71.459
X156.591Y-89.027
X156.718Y-81.153
X156.972Y-94.361
X157.052Y-85.217
X157.099Y-135.89
X157.195Y-71.501
X157.226Y-128.016
X157.48Y-120.523
X157.48Y-127.254
X157.607Y-76.073
X157.607Y-77.978
X157.734Y-75.184
X157.734Y-117.729
X158.115Y-89.662
X158.369Y-99.06
X158.496Y-134.747
X158.623Y-139.573
X158.877Y-106.299
X158.877Y-108.331
X159.001Y-133.601
X159.004Y-82.169
X159.004Y-127.635
X159.131Y-85.09
X159.258Y-144.018
X159.385Y-92.075
X159.512Y-125.857
X160.02Y-128.397
X160.147Y-116.713
X160.274Y-66.294
X160.274Y-139.319
X160.655Y-102.997
X160.655Y-105.029
X160.782Y-110.49
X160.782Y-120.904
X160.909Y-143.637
X161.036Y-142.113
X161.544Y-80.518
X161.544Y-87.376
X161.798Y-69.596
X161.798Y-119.253
X162.179Y-117.475
X162.306Y-82.423
X162.433Y-94.488
X162.433Y-104.648
X162.439Y-105.673
X162.687Y-125.857
X162.687Y-126.746
X162.687Y-127.635
X162.687Y-128.524
X162.687Y-129.413
X162.687Y-139.7
X162.814Y-89.027
X162.814Y-90.17
X162.941Y-119.253
X163.068Y-102.616
X163.195Y-136.652
X163.576Y-127.254
X163.576Y-128.143
X163.576Y-129.032
X164.028Y-107.513
X164.338Y-74.168
X164.338Y-90.043
X164.592Y-99.695
X164.973Y-133.477
X165.608Y-99.822
X165.608Y-129.667
X166.116Y-97.663
X166.116Y-127.127
X166.37Y-96.266
X166.37Y-137.414
X166.497Y-117.602
X166.751Y-90.17
X166.751Y-133.477
X167.513Y-117.602
X168.275Y-102.743
X168.402Y-99.949
X168.529Y-117.602
X168.91Y-104.14
X168.91Y-105.791
X169.037Y-131.572
X169.164Y-137.414
X169.291Y-128.905
X169.672Y-97.155
X177.165Y-141.732
X177.546Y-68.072
X177.927Y-74.93
X178.435Y-103.759
T2
X104.394Y-144.399
X124.46Y-68.453
X125.476Y-143.256
X140.589Y-143.129
X143.51Y-70.776
X152.908Y-111.379
X156.464Y-143.002
X156.777Y-116.713
X156.972Y-101.727
X157.226Y-65.405
X159.069Y-96.963
T3
X99.949Y-96.647
X100.33Y-112.014
X109.22Y-140.843
X152.654Y-95.377
T4
X94.615Y-115.057
X94.615Y-116.327
X94.615Y-117.597
X94.615Y-118.867
X94.615Y-122.555
X94.615Y-123.825
X94.615Y-125.095
X111.379Y-72.39
X111.379Y-73.66
X111.379Y-74.93
X111.379Y-76.2
X111.379Y-77.47
X111.379Y-78.74
X111.379Y-80.01
T5
X94.615Y-85.09
X94.615Y-87.63
X94.615Y-90.17
X94.615Y-95.362
X94.615Y-97.902
X94.615Y-100.442
X94.615Y-105.522
X94.615Y-108.062
X94.615Y-110.602
X172.085Y-64.77
X172.085Y-67.31
X172.085Y-69.85
X172.085Y-72.39
X172.085Y-74.93
X172.085Y-77.47
X172.085Y-80.01
X172.085Y-82.55
X172.085Y-85.09
X172.085Y-87.63
X172.085Y-90.17
X172.085Y-92.71
X172.085Y-95.25
X172.085Y-97.79
X172.085Y-100.33
X172.085Y-102.87
X172.085Y-105.41
X172.085Y-107.95
X172.085Y-110.49
X172.085Y-113.03
X172.085Y-115.57
X172.085Y-118.11
X172.085Y-120.65
X172.085Y-123.19
X172.085Y-125.73
X172.085Y-128.27
X172.085Y-130.81
X172.085Y-133.35
X172.085Y-135.89
X172.085Y-138.43
X172.085Y-140.97
X172.085Y-143.51
X174.625Y-64.77
X174.625Y-67.31
X174.625Y-69.85
X174.625Y-72.39
X174.625Y-74.93
X174.625Y-77.47
X174.625Y-80.01
X174.625Y-82.55
X174.625Y-85.09
X174.625Y-87.63
X174.625Y-90.17
X174.625Y-92.71
X174.625Y-95.25
X174.625Y-97.79
X174.625Y-100.33
X174.625Y-102.87
X174.625Y-105.41
X174.625Y-107.95
X174.625Y-110.49
X174.625Y-113.03
X174.625Y-115.57
X174.625Y-118.11
X174.625Y-120.65
X174.625Y-123.19
X174.625Y-125.73
X174.625Y-128.27
X174.625Y-130.81
X174.625Y-133.35
X174.625Y-135.89
X174.625Y-138.43
X174.625Y-140.97
X174.625Y-143.51
T6
X111.379Y-67.056
X111.379Y-85.471
X166.116Y-67.056
X166.116Y-85.471
X166.116Y-140.97
T7
X93.98Y-67.31
X93.98Y-140.97
X179.705Y-64.77
X179.705Y-144.78
T0
M30
