%TF.GenerationSoftware,KiCad,Pcbnew,(6.0.0-rc1-155-g08cb573e11)*%
%TF.CreationDate,2021-12-21T18:41:38+09:00*%
%TF.ProjectId,ykts-payload,796b7473-2d70-4617-996c-6f61642e6b69,A1*%
%TF.SameCoordinates,Original*%
%TF.FileFunction,Paste,Top*%
%TF.FilePolarity,Positive*%
%FSLAX46Y46*%
G04 Gerber Fmt 4.6, Leading zero omitted, Abs format (unit mm)*
G04 Created by KiCad (PCBNEW (6.0.0-rc1-155-g08cb573e11)) date 2021-12-21 18:41:38*
%MOMM*%
%LPD*%
G01*
G04 APERTURE LIST*
G04 Aperture macros list*
%AMRoundRect*
0 Rectangle with rounded corners*
0 $1 Rounding radius*
0 $2 $3 $4 $5 $6 $7 $8 $9 X,Y pos of 4 corners*
0 Add a 4 corners polygon primitive as box body*
4,1,4,$2,$3,$4,$5,$6,$7,$8,$9,$2,$3,0*
0 Add four circle primitives for the rounded corners*
1,1,$1+$1,$2,$3*
1,1,$1+$1,$4,$5*
1,1,$1+$1,$6,$7*
1,1,$1+$1,$8,$9*
0 Add four rect primitives between the rounded corners*
20,1,$1+$1,$2,$3,$4,$5,0*
20,1,$1+$1,$4,$5,$6,$7,0*
20,1,$1+$1,$6,$7,$8,$9,0*
20,1,$1+$1,$8,$9,$2,$3,0*%
%AMFreePoly0*
4,1,9,3.862500,-0.866500,0.737500,-0.866500,0.737500,-0.450000,-0.737500,-0.450000,-0.737500,0.450000,0.737500,0.450000,0.737500,0.866500,3.862500,0.866500,3.862500,-0.866500,3.862500,-0.866500,$1*%
G04 Aperture macros list end*
%ADD10RoundRect,0.140000X0.170000X-0.140000X0.170000X0.140000X-0.170000X0.140000X-0.170000X-0.140000X0*%
%ADD11RoundRect,0.140000X0.140000X0.170000X-0.140000X0.170000X-0.140000X-0.170000X0.140000X-0.170000X0*%
%ADD12RoundRect,0.250000X0.475000X-0.250000X0.475000X0.250000X-0.475000X0.250000X-0.475000X-0.250000X0*%
%ADD13RoundRect,0.140000X-0.140000X-0.170000X0.140000X-0.170000X0.140000X0.170000X-0.140000X0.170000X0*%
%ADD14R,0.600000X0.450000*%
%ADD15RoundRect,0.025500X-0.354500X0.229500X-0.354500X-0.229500X0.354500X-0.229500X0.354500X0.229500X0*%
%ADD16RoundRect,0.250000X0.700000X-0.275000X0.700000X0.275000X-0.700000X0.275000X-0.700000X-0.275000X0*%
%ADD17RoundRect,0.135000X-0.185000X0.135000X-0.185000X-0.135000X0.185000X-0.135000X0.185000X0.135000X0*%
%ADD18RoundRect,0.135000X0.185000X-0.135000X0.185000X0.135000X-0.185000X0.135000X-0.185000X-0.135000X0*%
%ADD19RoundRect,0.135000X0.135000X0.185000X-0.135000X0.185000X-0.135000X-0.185000X0.135000X-0.185000X0*%
%ADD20RoundRect,0.135000X-0.135000X-0.185000X0.135000X-0.185000X0.135000X0.185000X-0.135000X0.185000X0*%
%ADD21RoundRect,0.100000X0.637500X0.100000X-0.637500X0.100000X-0.637500X-0.100000X0.637500X-0.100000X0*%
%ADD22RoundRect,0.140000X-0.170000X0.140000X-0.170000X-0.140000X0.170000X-0.140000X0.170000X0.140000X0*%
%ADD23RoundRect,0.147500X-0.147500X-0.172500X0.147500X-0.172500X0.147500X0.172500X-0.147500X0.172500X0*%
%ADD24R,0.550000X1.500000*%
%ADD25R,1.500000X0.550000*%
%ADD26R,1.200000X1.400000*%
%ADD27R,1.700000X1.700000*%
%ADD28RoundRect,0.100000X0.100000X-0.637500X0.100000X0.637500X-0.100000X0.637500X-0.100000X-0.637500X0*%
%ADD29RoundRect,0.150000X-0.150000X0.825000X-0.150000X-0.825000X0.150000X-0.825000X0.150000X0.825000X0*%
%ADD30R,0.740000X2.400000*%
%ADD31R,0.900000X0.800000*%
%ADD32RoundRect,0.250000X-0.312500X-1.075000X0.312500X-1.075000X0.312500X1.075000X-0.312500X1.075000X0*%
%ADD33RoundRect,0.225000X0.225000X0.250000X-0.225000X0.250000X-0.225000X-0.250000X0.225000X-0.250000X0*%
%ADD34RoundRect,0.200000X0.275000X-0.200000X0.275000X0.200000X-0.275000X0.200000X-0.275000X-0.200000X0*%
%ADD35RoundRect,0.200000X-0.275000X0.200000X-0.275000X-0.200000X0.275000X-0.200000X0.275000X0.200000X0*%
%ADD36RoundRect,0.225000X-0.225000X-0.250000X0.225000X-0.250000X0.225000X0.250000X-0.225000X0.250000X0*%
%ADD37R,0.900000X1.300000*%
%ADD38FreePoly0,270.000000*%
%ADD39RoundRect,0.147500X0.147500X0.172500X-0.147500X0.172500X-0.147500X-0.172500X0.147500X-0.172500X0*%
%ADD40RoundRect,0.150000X-0.150000X0.725000X-0.150000X-0.725000X0.150000X-0.725000X0.150000X0.725000X0*%
%ADD41R,0.650000X1.060000*%
G04 APERTURE END LIST*
D10*
%TO.C,C3*%
X126492000Y-74140000D03*
X126492000Y-73180000D03*
%TD*%
%TO.C,C4*%
X146812000Y-80490000D03*
X146812000Y-79530000D03*
%TD*%
D11*
%TO.C,C11*%
X162786000Y-79248000D03*
X161826000Y-79248000D03*
%TD*%
D12*
%TO.C,C13*%
X158242000Y-95358000D03*
X158242000Y-93458000D03*
%TD*%
D13*
%TO.C,CH1*%
X162842000Y-99060000D03*
X163802000Y-99060000D03*
%TD*%
D11*
%TO.C,CL1*%
X161770000Y-99060000D03*
X160810000Y-99060000D03*
%TD*%
D14*
%TO.C,D5*%
X163796000Y-102997000D03*
X165896000Y-102997000D03*
%TD*%
D15*
%TO.C,FL1*%
X162760000Y-100276000D03*
X161090000Y-100276000D03*
X161090000Y-101146000D03*
X162760000Y-101146000D03*
%TD*%
D10*
%TO.C,C15*%
X161798000Y-90142000D03*
X161798000Y-89182000D03*
%TD*%
D16*
%TO.C,L1*%
X147701000Y-73965000D03*
X147701000Y-70815000D03*
%TD*%
D17*
%TO.C,R11*%
X127889000Y-73150000D03*
X127889000Y-74170000D03*
%TD*%
D18*
%TO.C,R12*%
X126746000Y-76964000D03*
X126746000Y-75944000D03*
%TD*%
D19*
%TO.C,R13*%
X128018000Y-71628000D03*
X126998000Y-71628000D03*
%TD*%
D18*
%TO.C,R16*%
X127508000Y-68582000D03*
X127508000Y-67562000D03*
%TD*%
D17*
%TO.C,R27*%
X132334000Y-108202000D03*
X132334000Y-109222000D03*
%TD*%
D19*
%TO.C,R28*%
X159260000Y-81026000D03*
X158240000Y-81026000D03*
%TD*%
D20*
%TO.C,R29*%
X153922000Y-70866000D03*
X154942000Y-70866000D03*
%TD*%
D18*
%TO.C,R30*%
X150749000Y-72011000D03*
X150749000Y-70991000D03*
%TD*%
D21*
%TO.C,U5*%
X129354500Y-100954000D03*
X129354500Y-100304000D03*
X129354500Y-99654000D03*
X129354500Y-99004000D03*
X129354500Y-98354000D03*
X129354500Y-97704000D03*
X129354500Y-97054000D03*
X129354500Y-96404000D03*
X123629500Y-96404000D03*
X123629500Y-97054000D03*
X123629500Y-97704000D03*
X123629500Y-98354000D03*
X123629500Y-99004000D03*
X123629500Y-99654000D03*
X123629500Y-100304000D03*
X123629500Y-100954000D03*
%TD*%
D13*
%TO.C,C2*%
X123473755Y-73154000D03*
X124433755Y-73154000D03*
%TD*%
%TO.C,C5*%
X147221000Y-69342000D03*
X148181000Y-69342000D03*
%TD*%
D12*
%TO.C,C6*%
X148590000Y-79944000D03*
X148590000Y-78044000D03*
%TD*%
D13*
%TO.C,C10*%
X161826000Y-73914000D03*
X162786000Y-73914000D03*
%TD*%
D11*
%TO.C,C12*%
X153896000Y-72009000D03*
X152936000Y-72009000D03*
%TD*%
D22*
%TO.C,C14*%
X151892000Y-71021000D03*
X151892000Y-71981000D03*
%TD*%
D11*
%TO.C,CH2*%
X159738000Y-100965000D03*
X158778000Y-100965000D03*
%TD*%
D13*
%TO.C,CL2*%
X164112000Y-101092000D03*
X165072000Y-101092000D03*
%TD*%
D23*
%TO.C,D2*%
X129055000Y-67564000D03*
X130025000Y-67564000D03*
%TD*%
D14*
%TO.C,D4*%
X159927000Y-102997000D03*
X157827000Y-102997000D03*
%TD*%
D24*
%TO.C,U1*%
X143414000Y-69135000D03*
X142614000Y-69135000D03*
X141814000Y-69135000D03*
X141014000Y-69135000D03*
X140214000Y-69135000D03*
X139414000Y-69135000D03*
X138614000Y-69135000D03*
X137814000Y-69135000D03*
X137014000Y-69135000D03*
X136214000Y-69135000D03*
X135414000Y-69135000D03*
X134614000Y-69135000D03*
X133814000Y-69135000D03*
X133014000Y-69135000D03*
X132214000Y-69135000D03*
X131414000Y-69135000D03*
D25*
X129714000Y-70835000D03*
X129714000Y-71635000D03*
X129714000Y-72435000D03*
X129714000Y-73235000D03*
X129714000Y-74035000D03*
X129714000Y-74835000D03*
X129714000Y-75635000D03*
X129714000Y-76435000D03*
X129714000Y-77235000D03*
X129714000Y-78035000D03*
X129714000Y-78835000D03*
X129714000Y-79635000D03*
X129714000Y-80435000D03*
X129714000Y-81235000D03*
X129714000Y-82035000D03*
X129714000Y-82835000D03*
D24*
X131414000Y-84535000D03*
X132214000Y-84535000D03*
X133014000Y-84535000D03*
X133814000Y-84535000D03*
X134614000Y-84535000D03*
X135414000Y-84535000D03*
X136214000Y-84535000D03*
X137014000Y-84535000D03*
X137814000Y-84535000D03*
X138614000Y-84535000D03*
X139414000Y-84535000D03*
X140214000Y-84535000D03*
X141014000Y-84535000D03*
X141814000Y-84535000D03*
X142614000Y-84535000D03*
X143414000Y-84535000D03*
D25*
X145114000Y-82835000D03*
X145114000Y-82035000D03*
X145114000Y-81235000D03*
X145114000Y-80435000D03*
X145114000Y-79635000D03*
X145114000Y-78835000D03*
X145114000Y-78035000D03*
X145114000Y-77235000D03*
X145114000Y-76435000D03*
X145114000Y-75635000D03*
X145114000Y-74835000D03*
X145114000Y-74035000D03*
X145114000Y-73235000D03*
X145114000Y-72435000D03*
X145114000Y-71635000D03*
X145114000Y-70835000D03*
%TD*%
D26*
%TO.C,Y2*%
X163156000Y-77681000D03*
X163156000Y-75481000D03*
X161456000Y-75481000D03*
X161456000Y-77681000D03*
%TD*%
D27*
%TO.C,N1*%
X118110000Y-107696000D03*
X118110000Y-110236000D03*
X118110000Y-112776000D03*
X118110000Y-115316000D03*
X100330000Y-107696000D03*
X100330000Y-110236000D03*
X100330000Y-112776000D03*
X100330000Y-115316000D03*
%TD*%
%TO.C,N2*%
X118110000Y-92456000D03*
X118110000Y-94996000D03*
X118110000Y-97536000D03*
X118110000Y-100076000D03*
X100330000Y-92456000D03*
X100330000Y-94996000D03*
X100330000Y-97536000D03*
X100330000Y-100076000D03*
%TD*%
%TO.C,N3*%
X135890000Y-100457000D03*
X135890000Y-97917000D03*
X135890000Y-95377000D03*
X135890000Y-92837000D03*
X153670000Y-100457000D03*
X153670000Y-97917000D03*
X153670000Y-95377000D03*
X153670000Y-92837000D03*
%TD*%
%TO.C,N4*%
X137033000Y-116078000D03*
X137033000Y-113538000D03*
X137033000Y-110998000D03*
X137033000Y-108458000D03*
X154813000Y-116078000D03*
X154813000Y-113538000D03*
X154813000Y-110998000D03*
X154813000Y-108458000D03*
%TD*%
%TO.C,N5*%
X103378000Y-123698000D03*
X105918000Y-123698000D03*
X108458000Y-123698000D03*
X110998000Y-123698000D03*
X103378000Y-141478000D03*
X105918000Y-141478000D03*
X108458000Y-141478000D03*
X110998000Y-141478000D03*
%TD*%
%TO.C,N6*%
X151384000Y-123698000D03*
X153924000Y-123698000D03*
X156464000Y-123698000D03*
X159004000Y-123698000D03*
X151384000Y-141478000D03*
X153924000Y-141478000D03*
X156464000Y-141478000D03*
X159004000Y-141478000D03*
%TD*%
%TO.C,N7*%
X119380000Y-123698000D03*
X121920000Y-123698000D03*
X124460000Y-123698000D03*
X127000000Y-123698000D03*
X119380000Y-141478000D03*
X121920000Y-141478000D03*
X124460000Y-141478000D03*
X127000000Y-141478000D03*
%TD*%
%TO.C,N8*%
X135382000Y-123698000D03*
X137922000Y-123698000D03*
X140462000Y-123698000D03*
X143002000Y-123698000D03*
X135382000Y-141478000D03*
X137922000Y-141478000D03*
X140462000Y-141478000D03*
X143002000Y-141478000D03*
%TD*%
D21*
%TO.C,U6*%
X130751500Y-112511000D03*
X130751500Y-111861000D03*
X130751500Y-111211000D03*
X130751500Y-110561000D03*
X130751500Y-109911000D03*
X130751500Y-109261000D03*
X130751500Y-108611000D03*
X130751500Y-107961000D03*
X125026500Y-107961000D03*
X125026500Y-108611000D03*
X125026500Y-109261000D03*
X125026500Y-109911000D03*
X125026500Y-110561000D03*
X125026500Y-111211000D03*
X125026500Y-111861000D03*
X125026500Y-112511000D03*
%TD*%
D28*
%TO.C,U7*%
X153920000Y-79443500D03*
X154570000Y-79443500D03*
X155220000Y-79443500D03*
X155870000Y-79443500D03*
X156520000Y-79443500D03*
X157170000Y-79443500D03*
X157820000Y-79443500D03*
X158470000Y-79443500D03*
X159120000Y-79443500D03*
X159770000Y-79443500D03*
X159770000Y-73718500D03*
X159120000Y-73718500D03*
X158470000Y-73718500D03*
X157820000Y-73718500D03*
X157170000Y-73718500D03*
X156520000Y-73718500D03*
X155870000Y-73718500D03*
X155220000Y-73718500D03*
X154570000Y-73718500D03*
X153920000Y-73718500D03*
%TD*%
D29*
%TO.C,U8*%
X164338000Y-92013000D03*
X163068000Y-92013000D03*
X161798000Y-92013000D03*
X160528000Y-92013000D03*
X160528000Y-96963000D03*
X161798000Y-96963000D03*
X163068000Y-96963000D03*
X164338000Y-96963000D03*
%TD*%
D11*
%TO.C,C1*%
X124433755Y-78742000D03*
X123473755Y-78742000D03*
%TD*%
D30*
%TO.C,J6*%
X151384000Y-87040000D03*
X151384000Y-83140000D03*
X152654000Y-87040000D03*
X152654000Y-83140000D03*
X153924000Y-87040000D03*
X153924000Y-83140000D03*
%TD*%
D31*
%TO.C,Q1*%
X106664000Y-80452000D03*
X106664000Y-78552000D03*
X104664000Y-79502000D03*
%TD*%
D18*
%TO.C,R9*%
X108077000Y-80520000D03*
X108077000Y-79500000D03*
%TD*%
D17*
%TO.C,R10*%
X103251000Y-79500000D03*
X103251000Y-80520000D03*
%TD*%
%TO.C,R26*%
X131064000Y-96899000D03*
X131064000Y-97919000D03*
%TD*%
D26*
%TO.C,Y1*%
X124803755Y-77048000D03*
X124803755Y-74848000D03*
X123103755Y-74848000D03*
X123103755Y-77048000D03*
%TD*%
D18*
%TO.C,R22*%
X119507000Y-71311500D03*
X119507000Y-70291500D03*
%TD*%
D32*
%TO.C,R_CSB1*%
X163899500Y-111675000D03*
X166824500Y-111675000D03*
%TD*%
D33*
%TO.C,C7*%
X116663500Y-80391000D03*
X115113500Y-80391000D03*
%TD*%
D20*
%TO.C,R21*%
X116140500Y-71374000D03*
X117160500Y-71374000D03*
%TD*%
D18*
%TO.C,R8*%
X96901000Y-123573000D03*
X96901000Y-122553000D03*
%TD*%
D34*
%TO.C,R1*%
X179070000Y-140461000D03*
X179070000Y-138811000D03*
%TD*%
D19*
%TO.C,R18*%
X117160500Y-70231000D03*
X116140500Y-70231000D03*
%TD*%
D17*
%TO.C,R6*%
X96647000Y-114044000D03*
X96647000Y-115064000D03*
%TD*%
D35*
%TO.C,R3*%
X94234000Y-71692000D03*
X94234000Y-73342000D03*
%TD*%
D17*
%TO.C,R5*%
X156972000Y-83183000D03*
X156972000Y-84203000D03*
%TD*%
D18*
%TO.C,R24*%
X158115000Y-84203000D03*
X158115000Y-83183000D03*
%TD*%
D36*
%TO.C,C8*%
X118224000Y-80391000D03*
X119774000Y-80391000D03*
%TD*%
D17*
%TO.C,R7*%
X96647000Y-117600000D03*
X96647000Y-118620000D03*
%TD*%
D20*
%TO.C,R20*%
X116138500Y-68897500D03*
X117158500Y-68897500D03*
%TD*%
D37*
%TO.C,U2*%
X119610000Y-82232500D03*
D38*
X118110000Y-82320000D03*
D37*
X116610000Y-82232500D03*
%TD*%
D39*
%TO.C,D3*%
X167752000Y-118406000D03*
X166782000Y-118406000D03*
%TD*%
D40*
%TO.C,U3*%
X119507000Y-73144500D03*
X118237000Y-73144500D03*
X116967000Y-73144500D03*
X115697000Y-73144500D03*
X115697000Y-78294500D03*
X116967000Y-78294500D03*
X118237000Y-78294500D03*
X119507000Y-78294500D03*
%TD*%
D19*
%TO.C,R15*%
X98681000Y-86487000D03*
X97661000Y-86487000D03*
%TD*%
D17*
%TO.C,R19*%
X120650000Y-70291500D03*
X120650000Y-71311500D03*
%TD*%
D10*
%TO.C,C9*%
X167775000Y-116854000D03*
X167775000Y-115894000D03*
%TD*%
D20*
%TO.C,R14*%
X97663000Y-85090000D03*
X98683000Y-85090000D03*
%TD*%
D34*
%TO.C,R4*%
X94234000Y-136842000D03*
X94234000Y-135192000D03*
%TD*%
D41*
%TO.C,U4*%
X164404000Y-116924000D03*
X165354000Y-116924000D03*
X166304000Y-116924000D03*
X166304000Y-114724000D03*
X164404000Y-114724000D03*
%TD*%
D19*
%TO.C,R23*%
X167777000Y-119549000D03*
X166757000Y-119549000D03*
%TD*%
D35*
%TO.C,R2*%
X179070000Y-69088000D03*
X179070000Y-70738000D03*
%TD*%
D19*
%TO.C,R17*%
X117158500Y-67754500D03*
X116138500Y-67754500D03*
%TD*%
M02*
