%TF.GenerationSoftware,KiCad,Pcbnew,(6.0.0-rc1-155-g08cb573e11)*%
%TF.CreationDate,2021-12-21T18:41:38+09:00*%
%TF.ProjectId,ykts-payload,796b7473-2d70-4617-996c-6f61642e6b69,A1*%
%TF.SameCoordinates,Original*%
%TF.FileFunction,Legend,Bot*%
%TF.FilePolarity,Positive*%
%FSLAX46Y46*%
G04 Gerber Fmt 4.6, Leading zero omitted, Abs format (unit mm)*
G04 Created by KiCad (PCBNEW (6.0.0-rc1-155-g08cb573e11)) date 2021-12-21 18:41:38*
%MOMM*%
%LPD*%
G01*
G04 APERTURE LIST*
%ADD10C,0.120000*%
%ADD11C,0.150000*%
%ADD12C,0.125000*%
%ADD13C,0.100000*%
G04 APERTURE END LIST*
D10*
X113411000Y-142748000D02*
X113411000Y-143256000D01*
X121348500Y-137096500D02*
X121729500Y-136715500D01*
X128905000Y-97917000D02*
X128905000Y-91948000D01*
X170688000Y-144907000D02*
X172085000Y-144907000D01*
X133858000Y-100584000D02*
X124333000Y-100584000D01*
X125349000Y-97917000D02*
X128905000Y-97917000D01*
X176022000Y-144907000D02*
X176022000Y-63373000D01*
X124333000Y-111760000D02*
X122682000Y-111760000D01*
X154114500Y-124904500D02*
X154495500Y-124523500D01*
X145034000Y-142367000D02*
X145542000Y-142367000D01*
X167386000Y-112776000D02*
X168148000Y-112776000D01*
X122682000Y-111760000D02*
X122682000Y-119634000D01*
X131191000Y-113411000D02*
X130429000Y-113411000D01*
X170688000Y-143510000D02*
X170688000Y-144907000D01*
X125349000Y-91948000D02*
X125349000Y-97917000D01*
X121539000Y-143256000D02*
X113411000Y-143256000D01*
X116332000Y-66675000D02*
X124714000Y-66675000D01*
X154114500Y-124142500D02*
X154114500Y-124904500D01*
X126111000Y-102235000D02*
X125730000Y-101854000D01*
X124333000Y-100584000D02*
X124333000Y-111760000D01*
X133858000Y-120650000D02*
X133858000Y-100584000D01*
X172085000Y-144907000D02*
X176022000Y-144907000D01*
X167767000Y-112395000D02*
X167386000Y-112776000D01*
X97536000Y-67183000D02*
X105664000Y-67183000D01*
X105664000Y-67183000D02*
X105664000Y-88265000D01*
X105664000Y-88265000D02*
X97536000Y-88265000D01*
X97536000Y-88265000D02*
X97536000Y-67183000D01*
G36*
X97536000Y-67183000D02*
G01*
X105664000Y-67183000D01*
X105664000Y-88265000D01*
X97536000Y-88265000D01*
X97536000Y-67183000D01*
G37*
X122682000Y-120650000D02*
X122809000Y-120650000D01*
X122682000Y-119634000D02*
X122682000Y-120650000D01*
X176022000Y-63373000D02*
X170688000Y-63373000D01*
X121666000Y-123190000D02*
X113411000Y-123190000D01*
X138938000Y-66675000D02*
X154813000Y-66675000D01*
X121729500Y-137477500D02*
X121348500Y-137096500D01*
X128905000Y-91948000D02*
X125349000Y-91948000D01*
X170688000Y-115443000D02*
X160020000Y-115443000D01*
X160020000Y-115443000D02*
X160020000Y-96520000D01*
X160020000Y-96520000D02*
X170688000Y-96520000D01*
X170688000Y-96520000D02*
X170688000Y-115443000D01*
X121539000Y-143256000D02*
X122174000Y-142748000D01*
X154495500Y-124523500D02*
X154114500Y-124142500D01*
X168148000Y-112776000D02*
X167767000Y-112395000D01*
X121729500Y-136715500D02*
X121729500Y-137477500D01*
X126111000Y-102235000D02*
X125730000Y-102616000D01*
X122809000Y-120650000D02*
X133858000Y-120650000D01*
X125730000Y-102616000D02*
X125730000Y-101854000D01*
X145542000Y-142367000D02*
X145288000Y-141986000D01*
X145288000Y-141986000D02*
X145034000Y-142367000D01*
X130429000Y-113411000D02*
X130810000Y-113792000D01*
X113411000Y-123190000D02*
X113411000Y-142748000D01*
X152400000Y-142748000D02*
X122174000Y-142748000D01*
X122174000Y-142748000D02*
X122174000Y-133604000D01*
X122174000Y-133604000D02*
X121666000Y-133096000D01*
X121666000Y-133096000D02*
X121666000Y-123190000D01*
X121666000Y-123190000D02*
X152400000Y-123190000D01*
X152400000Y-123190000D02*
X152400000Y-142748000D01*
X170688000Y-63373000D02*
X170688000Y-143510000D01*
X130810000Y-113792000D02*
X131191000Y-113411000D01*
D11*
X133309761Y-99147380D02*
X133309761Y-99956904D01*
X133262142Y-100052142D01*
X133214523Y-100099761D01*
X133119285Y-100147380D01*
X132928809Y-100147380D01*
X132833571Y-100099761D01*
X132785952Y-100052142D01*
X132738333Y-99956904D01*
X132738333Y-99147380D01*
X132309761Y-99861666D02*
X131833571Y-99861666D01*
X132405000Y-100147380D02*
X132071666Y-99147380D01*
X131738333Y-100147380D01*
X130833571Y-100147380D02*
X131166904Y-99671190D01*
X131405000Y-100147380D02*
X131405000Y-99147380D01*
X131024047Y-99147380D01*
X130928809Y-99195000D01*
X130881190Y-99242619D01*
X130833571Y-99337857D01*
X130833571Y-99480714D01*
X130881190Y-99575952D01*
X130928809Y-99623571D01*
X131024047Y-99671190D01*
X131405000Y-99671190D01*
X130547857Y-99147380D02*
X129976428Y-99147380D01*
X130262142Y-100147380D02*
X130262142Y-99147380D01*
X128881190Y-100147380D02*
X128881190Y-99147380D01*
X128547857Y-99861666D01*
X128214523Y-99147380D01*
X128214523Y-100147380D01*
X127738333Y-99147380D02*
X127738333Y-99956904D01*
X127690714Y-100052142D01*
X127643095Y-100099761D01*
X127547857Y-100147380D01*
X127357380Y-100147380D01*
X127262142Y-100099761D01*
X127214523Y-100052142D01*
X127166904Y-99956904D01*
X127166904Y-99147380D01*
X126785952Y-99147380D02*
X126119285Y-100147380D01*
X126119285Y-99147380D02*
X126785952Y-100147380D01*
X124452619Y-100147380D02*
X125024047Y-100147380D01*
X124738333Y-100147380D02*
X124738333Y-99147380D01*
X124833571Y-99290238D01*
X124928809Y-99385476D01*
X125024047Y-99433095D01*
X106402238Y-88169619D02*
X106354619Y-88026761D01*
X106354619Y-87788666D01*
X106402238Y-87693428D01*
X106449857Y-87645809D01*
X106545095Y-87598190D01*
X106640333Y-87598190D01*
X106735571Y-87645809D01*
X106783190Y-87693428D01*
X106830809Y-87788666D01*
X106878428Y-87979142D01*
X106926047Y-88074380D01*
X106973666Y-88122000D01*
X107068904Y-88169619D01*
X107164142Y-88169619D01*
X107259380Y-88122000D01*
X107307000Y-88074380D01*
X107354619Y-87979142D01*
X107354619Y-87741047D01*
X107307000Y-87598190D01*
X106354619Y-87169619D02*
X107354619Y-87169619D01*
X106354619Y-86598190D01*
X107354619Y-86598190D01*
X106449857Y-86122000D02*
X106402238Y-86074380D01*
X106354619Y-86122000D01*
X106402238Y-86169619D01*
X106449857Y-86122000D01*
X106354619Y-86122000D01*
X106973666Y-86122000D02*
X106926047Y-86074380D01*
X106878428Y-86122000D01*
X106926047Y-86169619D01*
X106973666Y-86122000D01*
X106878428Y-86122000D01*
X107894380Y-128897714D02*
X107370571Y-128897714D01*
X107275333Y-128850095D01*
X107227714Y-128754857D01*
X107227714Y-128564380D01*
X107275333Y-128469142D01*
X107846761Y-128897714D02*
X107894380Y-128802476D01*
X107894380Y-128564380D01*
X107846761Y-128469142D01*
X107751523Y-128421523D01*
X107656285Y-128421523D01*
X107561047Y-128469142D01*
X107513428Y-128564380D01*
X107513428Y-128802476D01*
X107465809Y-128897714D01*
X107894380Y-129373904D02*
X106894380Y-129373904D01*
X107894380Y-129802476D02*
X107370571Y-129802476D01*
X107275333Y-129754857D01*
X107227714Y-129659619D01*
X107227714Y-129516761D01*
X107275333Y-129421523D01*
X107322952Y-129373904D01*
X107227714Y-130707238D02*
X107894380Y-130707238D01*
X107227714Y-130278666D02*
X107751523Y-130278666D01*
X107846761Y-130326285D01*
X107894380Y-130421523D01*
X107894380Y-130564380D01*
X107846761Y-130659619D01*
X107799142Y-130707238D01*
X107227714Y-131183428D02*
X108084857Y-131183428D01*
X108180095Y-131135809D01*
X108227714Y-131040571D01*
X108227714Y-130992952D01*
X106894380Y-131183428D02*
X106942000Y-131135809D01*
X106989619Y-131183428D01*
X106942000Y-131231047D01*
X106894380Y-131183428D01*
X106989619Y-131183428D01*
X106846761Y-132373904D02*
X108132476Y-131516761D01*
X107894380Y-132707238D02*
X107227714Y-132707238D01*
X107322952Y-132707238D02*
X107275333Y-132754857D01*
X107227714Y-132850095D01*
X107227714Y-132992952D01*
X107275333Y-133088190D01*
X107370571Y-133135809D01*
X107894380Y-133135809D01*
X107370571Y-133135809D02*
X107275333Y-133183428D01*
X107227714Y-133278666D01*
X107227714Y-133421523D01*
X107275333Y-133516761D01*
X107370571Y-133564380D01*
X107894380Y-133564380D01*
X107846761Y-134421523D02*
X107894380Y-134326285D01*
X107894380Y-134135809D01*
X107846761Y-134040571D01*
X107751523Y-133992952D01*
X107370571Y-133992952D01*
X107275333Y-134040571D01*
X107227714Y-134135809D01*
X107227714Y-134326285D01*
X107275333Y-134421523D01*
X107370571Y-134469142D01*
X107465809Y-134469142D01*
X107561047Y-133992952D01*
X107894380Y-134897714D02*
X107227714Y-134897714D01*
X107322952Y-134897714D02*
X107275333Y-134945333D01*
X107227714Y-135040571D01*
X107227714Y-135183428D01*
X107275333Y-135278666D01*
X107370571Y-135326285D01*
X107894380Y-135326285D01*
X107370571Y-135326285D02*
X107275333Y-135373904D01*
X107227714Y-135469142D01*
X107227714Y-135612000D01*
X107275333Y-135707238D01*
X107370571Y-135754857D01*
X107894380Y-135754857D01*
X107846761Y-136612000D02*
X107894380Y-136516761D01*
X107894380Y-136326285D01*
X107846761Y-136231047D01*
X107751523Y-136183428D01*
X107370571Y-136183428D01*
X107275333Y-136231047D01*
X107227714Y-136326285D01*
X107227714Y-136516761D01*
X107275333Y-136612000D01*
X107370571Y-136659619D01*
X107465809Y-136659619D01*
X107561047Y-136183428D01*
X107846761Y-137516761D02*
X107894380Y-137421523D01*
X107894380Y-137231047D01*
X107846761Y-137135809D01*
X107799142Y-137088190D01*
X107703904Y-137040571D01*
X107418190Y-137040571D01*
X107322952Y-137088190D01*
X107275333Y-137135809D01*
X107227714Y-137231047D01*
X107227714Y-137421523D01*
X107275333Y-137516761D01*
X107894380Y-137945333D02*
X107227714Y-137945333D01*
X106894380Y-137945333D02*
X106942000Y-137897714D01*
X106989619Y-137945333D01*
X106942000Y-137992952D01*
X106894380Y-137945333D01*
X106989619Y-137945333D01*
X107894380Y-138850095D02*
X107370571Y-138850095D01*
X107275333Y-138802476D01*
X107227714Y-138707238D01*
X107227714Y-138516761D01*
X107275333Y-138421523D01*
X107846761Y-138850095D02*
X107894380Y-138754857D01*
X107894380Y-138516761D01*
X107846761Y-138421523D01*
X107751523Y-138373904D01*
X107656285Y-138373904D01*
X107561047Y-138421523D01*
X107513428Y-138516761D01*
X107513428Y-138754857D01*
X107465809Y-138850095D01*
X107227714Y-139326285D02*
X107894380Y-139326285D01*
X107322952Y-139326285D02*
X107275333Y-139373904D01*
X107227714Y-139469142D01*
X107227714Y-139612000D01*
X107275333Y-139707238D01*
X107370571Y-139754857D01*
X107894380Y-139754857D01*
X132002547Y-92858761D02*
X131859690Y-92906380D01*
X131621595Y-92906380D01*
X131526357Y-92858761D01*
X131478738Y-92811142D01*
X131431119Y-92715904D01*
X131431119Y-92620666D01*
X131478738Y-92525428D01*
X131526357Y-92477809D01*
X131621595Y-92430190D01*
X131812071Y-92382571D01*
X131907309Y-92334952D01*
X131954928Y-92287333D01*
X132002547Y-92192095D01*
X132002547Y-92096857D01*
X131954928Y-92001619D01*
X131907309Y-91954000D01*
X131812071Y-91906380D01*
X131573976Y-91906380D01*
X131431119Y-91954000D01*
X131002547Y-92906380D02*
X131002547Y-91906380D01*
X130764452Y-91906380D01*
X130621595Y-91954000D01*
X130526357Y-92049238D01*
X130478738Y-92144476D01*
X130431119Y-92334952D01*
X130431119Y-92477809D01*
X130478738Y-92668285D01*
X130526357Y-92763523D01*
X130621595Y-92858761D01*
X130764452Y-92906380D01*
X131002547Y-92906380D01*
X130050166Y-92620666D02*
X129573976Y-92620666D01*
X130145404Y-92906380D02*
X129812071Y-91906380D01*
X129478738Y-92906380D01*
X131954928Y-94468761D02*
X131812071Y-94516380D01*
X131573976Y-94516380D01*
X131478738Y-94468761D01*
X131431119Y-94421142D01*
X131383500Y-94325904D01*
X131383500Y-94230666D01*
X131431119Y-94135428D01*
X131478738Y-94087809D01*
X131573976Y-94040190D01*
X131764452Y-93992571D01*
X131859690Y-93944952D01*
X131907309Y-93897333D01*
X131954928Y-93802095D01*
X131954928Y-93706857D01*
X131907309Y-93611619D01*
X131859690Y-93564000D01*
X131764452Y-93516380D01*
X131526357Y-93516380D01*
X131383500Y-93564000D01*
X130383500Y-94421142D02*
X130431119Y-94468761D01*
X130573976Y-94516380D01*
X130669214Y-94516380D01*
X130812071Y-94468761D01*
X130907309Y-94373523D01*
X130954928Y-94278285D01*
X131002547Y-94087809D01*
X131002547Y-93944952D01*
X130954928Y-93754476D01*
X130907309Y-93659238D01*
X130812071Y-93564000D01*
X130669214Y-93516380D01*
X130573976Y-93516380D01*
X130431119Y-93564000D01*
X130383500Y-93611619D01*
X129478738Y-94516380D02*
X129954928Y-94516380D01*
X129954928Y-93516380D01*
X132193023Y-95745428D02*
X131431119Y-95745428D01*
X131812071Y-96126380D02*
X131812071Y-95364476D01*
X130478738Y-95126380D02*
X130954928Y-95126380D01*
X131002547Y-95602571D01*
X130954928Y-95554952D01*
X130859690Y-95507333D01*
X130621595Y-95507333D01*
X130526357Y-95554952D01*
X130478738Y-95602571D01*
X130431119Y-95697809D01*
X130431119Y-95935904D01*
X130478738Y-96031142D01*
X130526357Y-96078761D01*
X130621595Y-96126380D01*
X130859690Y-96126380D01*
X130954928Y-96078761D01*
X131002547Y-96031142D01*
X130145404Y-95126380D02*
X129812071Y-96126380D01*
X129478738Y-95126380D01*
X131669214Y-96784000D02*
X131764452Y-96736380D01*
X131907309Y-96736380D01*
X132050166Y-96784000D01*
X132145404Y-96879238D01*
X132193023Y-96974476D01*
X132240642Y-97164952D01*
X132240642Y-97307809D01*
X132193023Y-97498285D01*
X132145404Y-97593523D01*
X132050166Y-97688761D01*
X131907309Y-97736380D01*
X131812071Y-97736380D01*
X131669214Y-97688761D01*
X131621595Y-97641142D01*
X131621595Y-97307809D01*
X131812071Y-97307809D01*
X131193023Y-97736380D02*
X131193023Y-96736380D01*
X130621595Y-97736380D01*
X130621595Y-96736380D01*
X130145404Y-97736380D02*
X130145404Y-96736380D01*
X129907309Y-96736380D01*
X129764452Y-96784000D01*
X129669214Y-96879238D01*
X129621595Y-96974476D01*
X129573976Y-97164952D01*
X129573976Y-97307809D01*
X129621595Y-97498285D01*
X129669214Y-97593523D01*
X129764452Y-97688761D01*
X129907309Y-97736380D01*
X130145404Y-97736380D01*
X111251619Y-96718380D02*
X111251619Y-95718380D01*
X111156380Y-96337428D02*
X110870666Y-96718380D01*
X110870666Y-96051714D02*
X111251619Y-96432666D01*
X110442095Y-96718380D02*
X110442095Y-96051714D01*
X110442095Y-95718380D02*
X110489714Y-95766000D01*
X110442095Y-95813619D01*
X110394476Y-95766000D01*
X110442095Y-95718380D01*
X110442095Y-95813619D01*
X110061142Y-96051714D02*
X109823047Y-96718380D01*
X109584952Y-96051714D01*
X108584952Y-96242190D02*
X108632571Y-96194571D01*
X108727809Y-96146952D01*
X108823047Y-96146952D01*
X108918285Y-96194571D01*
X108965904Y-96242190D01*
X109013523Y-96337428D01*
X109013523Y-96432666D01*
X108965904Y-96527904D01*
X108918285Y-96575523D01*
X108823047Y-96623142D01*
X108727809Y-96623142D01*
X108632571Y-96575523D01*
X108584952Y-96527904D01*
X108584952Y-96146952D02*
X108584952Y-96527904D01*
X108537333Y-96575523D01*
X108489714Y-96575523D01*
X108394476Y-96527904D01*
X108346857Y-96432666D01*
X108346857Y-96194571D01*
X108442095Y-96051714D01*
X108584952Y-95956476D01*
X108775428Y-95908857D01*
X108965904Y-95956476D01*
X109108761Y-96051714D01*
X109204000Y-96194571D01*
X109251619Y-96385047D01*
X109204000Y-96575523D01*
X109108761Y-96718380D01*
X108965904Y-96813619D01*
X108775428Y-96861238D01*
X108584952Y-96813619D01*
X108442095Y-96718380D01*
X107918285Y-96718380D02*
X107918285Y-96051714D01*
X107918285Y-95718380D02*
X107965904Y-95766000D01*
X107918285Y-95813619D01*
X107870666Y-95766000D01*
X107918285Y-95718380D01*
X107918285Y-95813619D01*
X107442095Y-96718380D02*
X107442095Y-95718380D01*
X107346857Y-96337428D02*
X107061142Y-96718380D01*
X107061142Y-96051714D02*
X107442095Y-96432666D01*
X106775428Y-96051714D02*
X106394476Y-96051714D01*
X106632571Y-96718380D02*
X106632571Y-95861238D01*
X106584952Y-95766000D01*
X106489714Y-95718380D01*
X106394476Y-95718380D01*
X106061142Y-96718380D02*
X106061142Y-96051714D01*
X106061142Y-95718380D02*
X106108761Y-95766000D01*
X106061142Y-95813619D01*
X106013523Y-95766000D01*
X106061142Y-95718380D01*
X106061142Y-95813619D01*
X105156380Y-96718380D02*
X105156380Y-96194571D01*
X105204000Y-96099333D01*
X105299238Y-96051714D01*
X105489714Y-96051714D01*
X105584952Y-96099333D01*
X105156380Y-96670761D02*
X105251619Y-96718380D01*
X105489714Y-96718380D01*
X105584952Y-96670761D01*
X105632571Y-96575523D01*
X105632571Y-96480285D01*
X105584952Y-96385047D01*
X105489714Y-96337428D01*
X105251619Y-96337428D01*
X105156380Y-96289809D01*
X167638619Y-81468261D02*
X166638619Y-81134928D01*
X167638619Y-80801595D01*
X166686238Y-80087309D02*
X166638619Y-80182547D01*
X166638619Y-80373023D01*
X166686238Y-80468261D01*
X166781476Y-80515880D01*
X167162428Y-80515880D01*
X167257666Y-80468261D01*
X167305285Y-80373023D01*
X167305285Y-80182547D01*
X167257666Y-80087309D01*
X167162428Y-80039690D01*
X167067190Y-80039690D01*
X166971952Y-80515880D01*
X166638619Y-79611119D02*
X167305285Y-79611119D01*
X167114809Y-79611119D02*
X167210047Y-79563500D01*
X167257666Y-79515880D01*
X167305285Y-79420642D01*
X167305285Y-79325404D01*
X166638619Y-78992071D02*
X167305285Y-78992071D01*
X167638619Y-78992071D02*
X167591000Y-79039690D01*
X167543380Y-78992071D01*
X167591000Y-78944452D01*
X167638619Y-78992071D01*
X167543380Y-78992071D01*
X167305285Y-78658738D02*
X167305285Y-78277785D01*
X166638619Y-78515880D02*
X167495761Y-78515880D01*
X167591000Y-78468261D01*
X167638619Y-78373023D01*
X167638619Y-78277785D01*
X166638619Y-77944452D02*
X167305285Y-77944452D01*
X167638619Y-77944452D02*
X167591000Y-77992071D01*
X167543380Y-77944452D01*
X167591000Y-77896833D01*
X167638619Y-77944452D01*
X167543380Y-77944452D01*
X166686238Y-77087309D02*
X166638619Y-77182547D01*
X166638619Y-77373023D01*
X166686238Y-77468261D01*
X166781476Y-77515880D01*
X167162428Y-77515880D01*
X167257666Y-77468261D01*
X167305285Y-77373023D01*
X167305285Y-77182547D01*
X167257666Y-77087309D01*
X167162428Y-77039690D01*
X167067190Y-77039690D01*
X166971952Y-77515880D01*
X166638619Y-76182547D02*
X167638619Y-76182547D01*
X166686238Y-76182547D02*
X166638619Y-76277785D01*
X166638619Y-76468261D01*
X166686238Y-76563500D01*
X166733857Y-76611119D01*
X166829095Y-76658738D01*
X167114809Y-76658738D01*
X167210047Y-76611119D01*
X167257666Y-76563500D01*
X167305285Y-76468261D01*
X167305285Y-76277785D01*
X167257666Y-76182547D01*
X166638619Y-74944452D02*
X167638619Y-74944452D01*
X167257666Y-74944452D02*
X167305285Y-74849214D01*
X167305285Y-74658738D01*
X167257666Y-74563500D01*
X167210047Y-74515880D01*
X167114809Y-74468261D01*
X166829095Y-74468261D01*
X166733857Y-74515880D01*
X166686238Y-74563500D01*
X166638619Y-74658738D01*
X166638619Y-74849214D01*
X166686238Y-74944452D01*
X167305285Y-74134928D02*
X166638619Y-73896833D01*
X167305285Y-73658738D02*
X166638619Y-73896833D01*
X166400523Y-73992071D01*
X166352904Y-74039690D01*
X166305285Y-74134928D01*
X166733857Y-73277785D02*
X166686238Y-73230166D01*
X166638619Y-73277785D01*
X166686238Y-73325404D01*
X166733857Y-73277785D01*
X166638619Y-73277785D01*
X167257666Y-73277785D02*
X167210047Y-73230166D01*
X167162428Y-73277785D01*
X167210047Y-73325404D01*
X167257666Y-73277785D01*
X167162428Y-73277785D01*
X165028619Y-79801595D02*
X166028619Y-79801595D01*
X165409571Y-79706357D02*
X165028619Y-79420642D01*
X165695285Y-79420642D02*
X165314333Y-79801595D01*
X165028619Y-78992071D02*
X165695285Y-78992071D01*
X166028619Y-78992071D02*
X165981000Y-79039690D01*
X165933380Y-78992071D01*
X165981000Y-78944452D01*
X166028619Y-78992071D01*
X165933380Y-78992071D01*
X165695285Y-78611119D02*
X165028619Y-78373023D01*
X165695285Y-78134928D01*
X165504809Y-77134928D02*
X165552428Y-77182547D01*
X165600047Y-77277785D01*
X165600047Y-77373023D01*
X165552428Y-77468261D01*
X165504809Y-77515880D01*
X165409571Y-77563500D01*
X165314333Y-77563500D01*
X165219095Y-77515880D01*
X165171476Y-77468261D01*
X165123857Y-77373023D01*
X165123857Y-77277785D01*
X165171476Y-77182547D01*
X165219095Y-77134928D01*
X165600047Y-77134928D02*
X165219095Y-77134928D01*
X165171476Y-77087309D01*
X165171476Y-77039690D01*
X165219095Y-76944452D01*
X165314333Y-76896833D01*
X165552428Y-76896833D01*
X165695285Y-76992071D01*
X165790523Y-77134928D01*
X165838142Y-77325404D01*
X165790523Y-77515880D01*
X165695285Y-77658738D01*
X165552428Y-77753976D01*
X165361952Y-77801595D01*
X165171476Y-77753976D01*
X165028619Y-77658738D01*
X164933380Y-77515880D01*
X164885761Y-77325404D01*
X164933380Y-77134928D01*
X165028619Y-76992071D01*
X165028619Y-76468261D02*
X165695285Y-76468261D01*
X166028619Y-76468261D02*
X165981000Y-76515880D01*
X165933380Y-76468261D01*
X165981000Y-76420642D01*
X166028619Y-76468261D01*
X165933380Y-76468261D01*
X165028619Y-75992071D02*
X166028619Y-75992071D01*
X165409571Y-75896833D02*
X165028619Y-75611119D01*
X165695285Y-75611119D02*
X165314333Y-75992071D01*
X165695285Y-75325404D02*
X165695285Y-74944452D01*
X165028619Y-75182547D02*
X165885761Y-75182547D01*
X165981000Y-75134928D01*
X166028619Y-75039690D01*
X166028619Y-74944452D01*
X165028619Y-74611119D02*
X165695285Y-74611119D01*
X166028619Y-74611119D02*
X165981000Y-74658738D01*
X165933380Y-74611119D01*
X165981000Y-74563500D01*
X166028619Y-74611119D01*
X165933380Y-74611119D01*
X165028619Y-73706357D02*
X165552428Y-73706357D01*
X165647666Y-73753976D01*
X165695285Y-73849214D01*
X165695285Y-74039690D01*
X165647666Y-74134928D01*
X165076238Y-73706357D02*
X165028619Y-73801595D01*
X165028619Y-74039690D01*
X165076238Y-74134928D01*
X165171476Y-74182547D01*
X165266714Y-74182547D01*
X165361952Y-74134928D01*
X165409571Y-74039690D01*
X165409571Y-73801595D01*
X165457190Y-73706357D01*
X164085285Y-79801595D02*
X163418619Y-79801595D01*
X163990047Y-79801595D02*
X164037666Y-79753976D01*
X164085285Y-79658738D01*
X164085285Y-79515880D01*
X164037666Y-79420642D01*
X163942428Y-79373023D01*
X163418619Y-79373023D01*
X164085285Y-78992071D02*
X163418619Y-78753976D01*
X164085285Y-78515880D02*
X163418619Y-78753976D01*
X163180523Y-78849214D01*
X163132904Y-78896833D01*
X163085285Y-78992071D01*
X163418619Y-77706357D02*
X163942428Y-77706357D01*
X164037666Y-77753976D01*
X164085285Y-77849214D01*
X164085285Y-78039690D01*
X164037666Y-78134928D01*
X163466238Y-77706357D02*
X163418619Y-77801595D01*
X163418619Y-78039690D01*
X163466238Y-78134928D01*
X163561476Y-78182547D01*
X163656714Y-78182547D01*
X163751952Y-78134928D01*
X163799571Y-78039690D01*
X163799571Y-77801595D01*
X163847190Y-77706357D01*
X163418619Y-77230166D02*
X164418619Y-77230166D01*
X163799571Y-77134928D02*
X163418619Y-76849214D01*
X164085285Y-76849214D02*
X163704333Y-77230166D01*
X163418619Y-76277785D02*
X163466238Y-76373023D01*
X163513857Y-76420642D01*
X163609095Y-76468261D01*
X163894809Y-76468261D01*
X163990047Y-76420642D01*
X164037666Y-76373023D01*
X164085285Y-76277785D01*
X164085285Y-76134928D01*
X164037666Y-76039690D01*
X163990047Y-75992071D01*
X163894809Y-75944452D01*
X163609095Y-75944452D01*
X163513857Y-75992071D01*
X163466238Y-76039690D01*
X163418619Y-76134928D01*
X163418619Y-76277785D01*
X164085285Y-75658738D02*
X164085285Y-75277785D01*
X164418619Y-75515880D02*
X163561476Y-75515880D01*
X163466238Y-75468261D01*
X163418619Y-75373023D01*
X163418619Y-75277785D01*
X163418619Y-74944452D02*
X164085285Y-74944452D01*
X163894809Y-74944452D02*
X163990047Y-74896833D01*
X164037666Y-74849214D01*
X164085285Y-74753976D01*
X164085285Y-74658738D01*
X163418619Y-74182547D02*
X163466238Y-74277785D01*
X163513857Y-74325404D01*
X163609095Y-74373023D01*
X163894809Y-74373023D01*
X163990047Y-74325404D01*
X164037666Y-74277785D01*
X164085285Y-74182547D01*
X164085285Y-74039690D01*
X164037666Y-73944452D01*
X163990047Y-73896833D01*
X163894809Y-73849214D01*
X163609095Y-73849214D01*
X163513857Y-73896833D01*
X163466238Y-73944452D01*
X163418619Y-74039690D01*
X163418619Y-74182547D01*
X164085285Y-73420642D02*
X163418619Y-73420642D01*
X163990047Y-73420642D02*
X164037666Y-73373023D01*
X164085285Y-73277785D01*
X164085285Y-73134928D01*
X164037666Y-73039690D01*
X163942428Y-72992071D01*
X163418619Y-72992071D01*
X163418619Y-72515880D02*
X164085285Y-72515880D01*
X164418619Y-72515880D02*
X164371000Y-72563500D01*
X164323380Y-72515880D01*
X164371000Y-72468261D01*
X164418619Y-72515880D01*
X164323380Y-72515880D01*
X163466238Y-71611119D02*
X163418619Y-71706357D01*
X163418619Y-71896833D01*
X163466238Y-71992071D01*
X163513857Y-72039690D01*
X163609095Y-72087309D01*
X163894809Y-72087309D01*
X163990047Y-72039690D01*
X164037666Y-71992071D01*
X164085285Y-71896833D01*
X164085285Y-71706357D01*
X164037666Y-71611119D01*
X163466238Y-71230166D02*
X163418619Y-71134928D01*
X163418619Y-70944452D01*
X163466238Y-70849214D01*
X163561476Y-70801595D01*
X163609095Y-70801595D01*
X163704333Y-70849214D01*
X163751952Y-70944452D01*
X163751952Y-71087309D01*
X163799571Y-71182547D01*
X163894809Y-71230166D01*
X163942428Y-71230166D01*
X164037666Y-71182547D01*
X164085285Y-71087309D01*
X164085285Y-70944452D01*
X164037666Y-70849214D01*
X124886404Y-93033380D02*
X124886404Y-92033380D01*
X124505452Y-92033380D01*
X124410214Y-92081000D01*
X124362595Y-92128619D01*
X124314976Y-92223857D01*
X124314976Y-92366714D01*
X124362595Y-92461952D01*
X124410214Y-92509571D01*
X124505452Y-92557190D01*
X124886404Y-92557190D01*
X123981642Y-92033380D02*
X123743547Y-93033380D01*
X123553071Y-92319095D01*
X123362595Y-93033380D01*
X123124500Y-92033380D01*
X122172119Y-93033380D02*
X122505452Y-92557190D01*
X122743547Y-93033380D02*
X122743547Y-92033380D01*
X122362595Y-92033380D01*
X122267357Y-92081000D01*
X122219738Y-92128619D01*
X122172119Y-92223857D01*
X122172119Y-92366714D01*
X122219738Y-92461952D01*
X122267357Y-92509571D01*
X122362595Y-92557190D01*
X122743547Y-92557190D01*
X124314976Y-94643380D02*
X124648309Y-94167190D01*
X124886404Y-94643380D02*
X124886404Y-93643380D01*
X124505452Y-93643380D01*
X124410214Y-93691000D01*
X124362595Y-93738619D01*
X124314976Y-93833857D01*
X124314976Y-93976714D01*
X124362595Y-94071952D01*
X124410214Y-94119571D01*
X124505452Y-94167190D01*
X124886404Y-94167190D01*
X123934023Y-94595761D02*
X123791166Y-94643380D01*
X123553071Y-94643380D01*
X123457833Y-94595761D01*
X123410214Y-94548142D01*
X123362595Y-94452904D01*
X123362595Y-94357666D01*
X123410214Y-94262428D01*
X123457833Y-94214809D01*
X123553071Y-94167190D01*
X123743547Y-94119571D01*
X123838785Y-94071952D01*
X123886404Y-94024333D01*
X123934023Y-93929095D01*
X123934023Y-93833857D01*
X123886404Y-93738619D01*
X123838785Y-93691000D01*
X123743547Y-93643380D01*
X123505452Y-93643380D01*
X123362595Y-93691000D01*
X123076880Y-93643380D02*
X122505452Y-93643380D01*
X122791166Y-94643380D02*
X122791166Y-93643380D01*
X124314976Y-96253380D02*
X124648309Y-95777190D01*
X124886404Y-96253380D02*
X124886404Y-95253380D01*
X124505452Y-95253380D01*
X124410214Y-95301000D01*
X124362595Y-95348619D01*
X124314976Y-95443857D01*
X124314976Y-95586714D01*
X124362595Y-95681952D01*
X124410214Y-95729571D01*
X124505452Y-95777190D01*
X124886404Y-95777190D01*
X123981642Y-95253380D02*
X123314976Y-96253380D01*
X123314976Y-95253380D02*
X123981642Y-96253380D01*
X125029261Y-96863380D02*
X124457833Y-96863380D01*
X124743547Y-97863380D02*
X124743547Y-96863380D01*
X124219738Y-96863380D02*
X123553071Y-97863380D01*
X123553071Y-96863380D02*
X124219738Y-97863380D01*
X154669142Y-65825666D02*
X154192952Y-65825666D01*
X154764380Y-66111380D02*
X154431047Y-65111380D01*
X154097714Y-66111380D01*
X153621523Y-66111380D02*
X153716761Y-66063761D01*
X153764380Y-65968523D01*
X153764380Y-65111380D01*
X153335809Y-65444714D02*
X153145333Y-66111380D01*
X152954857Y-65635190D01*
X152764380Y-66111380D01*
X152573904Y-65444714D01*
X151764380Y-66111380D02*
X151764380Y-65587571D01*
X151812000Y-65492333D01*
X151907238Y-65444714D01*
X152097714Y-65444714D01*
X152192952Y-65492333D01*
X151764380Y-66063761D02*
X151859619Y-66111380D01*
X152097714Y-66111380D01*
X152192952Y-66063761D01*
X152240571Y-65968523D01*
X152240571Y-65873285D01*
X152192952Y-65778047D01*
X152097714Y-65730428D01*
X151859619Y-65730428D01*
X151764380Y-65682809D01*
X151383428Y-65444714D02*
X151145333Y-66111380D01*
X150907238Y-65444714D02*
X151145333Y-66111380D01*
X151240571Y-66349476D01*
X151288190Y-66397095D01*
X151383428Y-66444714D01*
X150573904Y-66063761D02*
X150478666Y-66111380D01*
X150288190Y-66111380D01*
X150192952Y-66063761D01*
X150145333Y-65968523D01*
X150145333Y-65920904D01*
X150192952Y-65825666D01*
X150288190Y-65778047D01*
X150431047Y-65778047D01*
X150526285Y-65730428D01*
X150573904Y-65635190D01*
X150573904Y-65587571D01*
X150526285Y-65492333D01*
X150431047Y-65444714D01*
X150288190Y-65444714D01*
X150192952Y-65492333D01*
X148383428Y-66016142D02*
X148431047Y-66063761D01*
X148573904Y-66111380D01*
X148669142Y-66111380D01*
X148812000Y-66063761D01*
X148907238Y-65968523D01*
X148954857Y-65873285D01*
X149002476Y-65682809D01*
X149002476Y-65539952D01*
X148954857Y-65349476D01*
X148907238Y-65254238D01*
X148812000Y-65159000D01*
X148669142Y-65111380D01*
X148573904Y-65111380D01*
X148431047Y-65159000D01*
X148383428Y-65206619D01*
X147526285Y-66111380D02*
X147526285Y-65587571D01*
X147573904Y-65492333D01*
X147669142Y-65444714D01*
X147859619Y-65444714D01*
X147954857Y-65492333D01*
X147526285Y-66063761D02*
X147621523Y-66111380D01*
X147859619Y-66111380D01*
X147954857Y-66063761D01*
X148002476Y-65968523D01*
X148002476Y-65873285D01*
X147954857Y-65778047D01*
X147859619Y-65730428D01*
X147621523Y-65730428D01*
X147526285Y-65682809D01*
X147050095Y-66111380D02*
X147050095Y-65444714D01*
X147050095Y-65635190D02*
X147002476Y-65539952D01*
X146954857Y-65492333D01*
X146859619Y-65444714D01*
X146764380Y-65444714D01*
X146431047Y-66111380D02*
X146431047Y-65444714D01*
X146431047Y-65635190D02*
X146383428Y-65539952D01*
X146335809Y-65492333D01*
X146240571Y-65444714D01*
X146145333Y-65444714D01*
X145907238Y-65444714D02*
X145669142Y-66111380D01*
X145431047Y-65444714D02*
X145669142Y-66111380D01*
X145764380Y-66349476D01*
X145812000Y-66397095D01*
X145907238Y-66444714D01*
X143859619Y-66111380D02*
X143859619Y-65587571D01*
X143907238Y-65492333D01*
X144002476Y-65444714D01*
X144192952Y-65444714D01*
X144288190Y-65492333D01*
X143859619Y-66063761D02*
X143954857Y-66111380D01*
X144192952Y-66111380D01*
X144288190Y-66063761D01*
X144335809Y-65968523D01*
X144335809Y-65873285D01*
X144288190Y-65778047D01*
X144192952Y-65730428D01*
X143954857Y-65730428D01*
X143859619Y-65682809D01*
X142764380Y-65111380D02*
X142192952Y-65111380D01*
X142478666Y-66111380D02*
X142478666Y-65111380D01*
X141716761Y-66111380D02*
X141812000Y-66063761D01*
X141859619Y-66016142D01*
X141907238Y-65920904D01*
X141907238Y-65635190D01*
X141859619Y-65539952D01*
X141812000Y-65492333D01*
X141716761Y-65444714D01*
X141573904Y-65444714D01*
X141478666Y-65492333D01*
X141431047Y-65539952D01*
X141383428Y-65635190D01*
X141383428Y-65920904D01*
X141431047Y-66016142D01*
X141478666Y-66063761D01*
X141573904Y-66111380D01*
X141716761Y-66111380D01*
X141050095Y-65444714D02*
X140859619Y-66111380D01*
X140669142Y-65635190D01*
X140478666Y-66111380D01*
X140288190Y-65444714D01*
X139526285Y-66063761D02*
X139621523Y-66111380D01*
X139812000Y-66111380D01*
X139907238Y-66063761D01*
X139954857Y-65968523D01*
X139954857Y-65587571D01*
X139907238Y-65492333D01*
X139812000Y-65444714D01*
X139621523Y-65444714D01*
X139526285Y-65492333D01*
X139478666Y-65587571D01*
X139478666Y-65682809D01*
X139954857Y-65778047D01*
X138907238Y-66111380D02*
X139002476Y-66063761D01*
X139050095Y-65968523D01*
X139050095Y-65111380D01*
X106227619Y-75072428D02*
X106703809Y-75405761D01*
X106227619Y-75643857D02*
X107227619Y-75643857D01*
X107227619Y-75262904D01*
X107180000Y-75167666D01*
X107132380Y-75120047D01*
X107037142Y-75072428D01*
X106894285Y-75072428D01*
X106799047Y-75120047D01*
X106751428Y-75167666D01*
X106703809Y-75262904D01*
X106703809Y-75643857D01*
X106275238Y-74262904D02*
X106227619Y-74358142D01*
X106227619Y-74548619D01*
X106275238Y-74643857D01*
X106370476Y-74691476D01*
X106751428Y-74691476D01*
X106846666Y-74643857D01*
X106894285Y-74548619D01*
X106894285Y-74358142D01*
X106846666Y-74262904D01*
X106751428Y-74215285D01*
X106656190Y-74215285D01*
X106560952Y-74691476D01*
X106894285Y-73881952D02*
X106227619Y-73643857D01*
X106894285Y-73405761D01*
X106227619Y-73024809D02*
X106894285Y-73024809D01*
X107227619Y-73024809D02*
X107180000Y-73072428D01*
X107132380Y-73024809D01*
X107180000Y-72977190D01*
X107227619Y-73024809D01*
X107132380Y-73024809D01*
X106275238Y-72596238D02*
X106227619Y-72501000D01*
X106227619Y-72310523D01*
X106275238Y-72215285D01*
X106370476Y-72167666D01*
X106418095Y-72167666D01*
X106513333Y-72215285D01*
X106560952Y-72310523D01*
X106560952Y-72453380D01*
X106608571Y-72548619D01*
X106703809Y-72596238D01*
X106751428Y-72596238D01*
X106846666Y-72548619D01*
X106894285Y-72453380D01*
X106894285Y-72310523D01*
X106846666Y-72215285D01*
X106227619Y-71739095D02*
X106894285Y-71739095D01*
X107227619Y-71739095D02*
X107180000Y-71786714D01*
X107132380Y-71739095D01*
X107180000Y-71691476D01*
X107227619Y-71739095D01*
X107132380Y-71739095D01*
X106227619Y-71120047D02*
X106275238Y-71215285D01*
X106322857Y-71262904D01*
X106418095Y-71310523D01*
X106703809Y-71310523D01*
X106799047Y-71262904D01*
X106846666Y-71215285D01*
X106894285Y-71120047D01*
X106894285Y-70977190D01*
X106846666Y-70881952D01*
X106799047Y-70834333D01*
X106703809Y-70786714D01*
X106418095Y-70786714D01*
X106322857Y-70834333D01*
X106275238Y-70881952D01*
X106227619Y-70977190D01*
X106227619Y-71120047D01*
X106894285Y-70358142D02*
X106227619Y-70358142D01*
X106799047Y-70358142D02*
X106846666Y-70310523D01*
X106894285Y-70215285D01*
X106894285Y-70072428D01*
X106846666Y-69977190D01*
X106751428Y-69929571D01*
X106227619Y-69929571D01*
X106513333Y-68739095D02*
X106513333Y-68262904D01*
X106227619Y-68834333D02*
X107227619Y-68501000D01*
X106227619Y-68167666D01*
X106227619Y-67310523D02*
X106227619Y-67881952D01*
X106227619Y-67596238D02*
X107227619Y-67596238D01*
X107084761Y-67691476D01*
X106989523Y-67786714D01*
X106941904Y-67881952D01*
X169568761Y-130611857D02*
X169616380Y-130754714D01*
X169616380Y-130992809D01*
X169568761Y-131088047D01*
X169521142Y-131135666D01*
X169425904Y-131183285D01*
X169330666Y-131183285D01*
X169235428Y-131135666D01*
X169187809Y-131088047D01*
X169140190Y-130992809D01*
X169092571Y-130802333D01*
X169044952Y-130707095D01*
X168997333Y-130659476D01*
X168902095Y-130611857D01*
X168806857Y-130611857D01*
X168711619Y-130659476D01*
X168664000Y-130707095D01*
X168616380Y-130802333D01*
X168616380Y-131040428D01*
X168664000Y-131183285D01*
X169616380Y-132135666D02*
X169616380Y-131564238D01*
X169616380Y-131849952D02*
X168616380Y-131849952D01*
X168759238Y-131754714D01*
X168854476Y-131659476D01*
X168902095Y-131564238D01*
X169616380Y-133326142D02*
X168616380Y-133326142D01*
X169568761Y-133754714D02*
X169616380Y-133897571D01*
X169616380Y-134135666D01*
X169568761Y-134230904D01*
X169521142Y-134278523D01*
X169425904Y-134326142D01*
X169330666Y-134326142D01*
X169235428Y-134278523D01*
X169187809Y-134230904D01*
X169140190Y-134135666D01*
X169092571Y-133945190D01*
X169044952Y-133849952D01*
X168997333Y-133802333D01*
X168902095Y-133754714D01*
X168806857Y-133754714D01*
X168711619Y-133802333D01*
X168664000Y-133849952D01*
X168616380Y-133945190D01*
X168616380Y-134183285D01*
X168664000Y-134326142D01*
X169616380Y-134754714D02*
X168616380Y-134754714D01*
X168616380Y-135135666D01*
X168664000Y-135230904D01*
X168711619Y-135278523D01*
X168806857Y-135326142D01*
X168949714Y-135326142D01*
X169044952Y-135278523D01*
X169092571Y-135230904D01*
X169140190Y-135135666D01*
X169140190Y-134754714D01*
X109521476Y-111450380D02*
X109521476Y-110450380D01*
X109092904Y-111450380D02*
X109092904Y-110926571D01*
X109140523Y-110831333D01*
X109235761Y-110783714D01*
X109378619Y-110783714D01*
X109473857Y-110831333D01*
X109521476Y-110878952D01*
X108664333Y-111402761D02*
X108569095Y-111450380D01*
X108378619Y-111450380D01*
X108283380Y-111402761D01*
X108235761Y-111307523D01*
X108235761Y-111259904D01*
X108283380Y-111164666D01*
X108378619Y-111117047D01*
X108521476Y-111117047D01*
X108616714Y-111069428D01*
X108664333Y-110974190D01*
X108664333Y-110926571D01*
X108616714Y-110831333D01*
X108521476Y-110783714D01*
X108378619Y-110783714D01*
X108283380Y-110831333D01*
X107950047Y-110783714D02*
X107569095Y-110783714D01*
X107807190Y-110450380D02*
X107807190Y-111307523D01*
X107759571Y-111402761D01*
X107664333Y-111450380D01*
X107569095Y-111450380D01*
X107378619Y-110783714D02*
X106997666Y-110783714D01*
X107235761Y-110450380D02*
X107235761Y-111307523D01*
X107188142Y-111402761D01*
X107092904Y-111450380D01*
X106997666Y-111450380D01*
X140993761Y-131262666D02*
X141041380Y-131167428D01*
X141041380Y-130976952D01*
X140993761Y-130881714D01*
X140898523Y-130834095D01*
X140517571Y-130834095D01*
X140422333Y-130881714D01*
X140374714Y-130976952D01*
X140374714Y-131167428D01*
X140422333Y-131262666D01*
X140517571Y-131310285D01*
X140612809Y-131310285D01*
X140708047Y-130834095D01*
X140374714Y-131596000D02*
X140374714Y-131976952D01*
X141041380Y-131738857D02*
X140184238Y-131738857D01*
X140089000Y-131786476D01*
X140041380Y-131881714D01*
X140041380Y-131976952D01*
X141041380Y-132310285D02*
X140374714Y-132310285D01*
X140041380Y-132310285D02*
X140089000Y-132262666D01*
X140136619Y-132310285D01*
X140089000Y-132357904D01*
X140041380Y-132310285D01*
X140136619Y-132310285D01*
X141041380Y-132786476D02*
X140374714Y-132786476D01*
X140469952Y-132786476D02*
X140422333Y-132834095D01*
X140374714Y-132929333D01*
X140374714Y-133072190D01*
X140422333Y-133167428D01*
X140517571Y-133215047D01*
X141041380Y-133215047D01*
X140517571Y-133215047D02*
X140422333Y-133262666D01*
X140374714Y-133357904D01*
X140374714Y-133500761D01*
X140422333Y-133596000D01*
X140517571Y-133643619D01*
X141041380Y-133643619D01*
X141041380Y-134262666D02*
X140993761Y-134167428D01*
X140946142Y-134119809D01*
X140850904Y-134072190D01*
X140565190Y-134072190D01*
X140469952Y-134119809D01*
X140422333Y-134167428D01*
X140374714Y-134262666D01*
X140374714Y-134405523D01*
X140422333Y-134500761D01*
X140469952Y-134548380D01*
X140565190Y-134596000D01*
X140850904Y-134596000D01*
X140946142Y-134548380D01*
X140993761Y-134500761D01*
X141041380Y-134405523D01*
X141041380Y-134262666D01*
X140374714Y-134929333D02*
X141041380Y-135167428D01*
X140374714Y-135405523D01*
X154773523Y-137961619D02*
X154773523Y-137723523D01*
X154535428Y-137818761D02*
X154773523Y-137723523D01*
X155011619Y-137818761D01*
X154630666Y-137533047D02*
X154773523Y-137723523D01*
X154916380Y-137533047D01*
X155678285Y-137961619D02*
X155678285Y-137247333D01*
X155630666Y-137104476D01*
X155535428Y-137009238D01*
X155392571Y-136961619D01*
X155297333Y-136961619D01*
X156011619Y-137961619D02*
X156583047Y-137961619D01*
X156297333Y-136961619D02*
X156297333Y-137961619D01*
X156868761Y-137247333D02*
X157344952Y-137247333D01*
X156773523Y-136961619D02*
X157106857Y-137961619D01*
X157440190Y-136961619D01*
X158297333Y-137914000D02*
X158202095Y-137961619D01*
X158059238Y-137961619D01*
X157916380Y-137914000D01*
X157821142Y-137818761D01*
X157773523Y-137723523D01*
X157725904Y-137533047D01*
X157725904Y-137390190D01*
X157773523Y-137199714D01*
X157821142Y-137104476D01*
X157916380Y-137009238D01*
X158059238Y-136961619D01*
X158154476Y-136961619D01*
X158297333Y-137009238D01*
X158344952Y-137056857D01*
X158344952Y-137390190D01*
X158154476Y-137390190D01*
D12*
X126801380Y-128355690D02*
X126801380Y-128712833D01*
X126825190Y-128784261D01*
X126872809Y-128831880D01*
X126944238Y-128855690D01*
X126991857Y-128855690D01*
X126563285Y-128808071D02*
X126539476Y-128831880D01*
X126563285Y-128855690D01*
X126587095Y-128831880D01*
X126563285Y-128808071D01*
X126563285Y-128855690D01*
X126325190Y-128855690D02*
X126325190Y-128355690D01*
X126039476Y-128855690D02*
X126253761Y-128569976D01*
X126039476Y-128355690D02*
X126325190Y-128641404D01*
X125634714Y-128831880D02*
X125682333Y-128855690D01*
X125777571Y-128855690D01*
X125825190Y-128831880D01*
X125849000Y-128784261D01*
X125849000Y-128593785D01*
X125825190Y-128546166D01*
X125777571Y-128522357D01*
X125682333Y-128522357D01*
X125634714Y-128546166D01*
X125610904Y-128593785D01*
X125610904Y-128641404D01*
X125849000Y-128689023D01*
X125396619Y-128855690D02*
X125396619Y-128522357D01*
X125396619Y-128617595D02*
X125372809Y-128569976D01*
X125349000Y-128546166D01*
X125301380Y-128522357D01*
X125253761Y-128522357D01*
X125087095Y-128855690D02*
X125087095Y-128522357D01*
X125087095Y-128569976D02*
X125063285Y-128546166D01*
X125015666Y-128522357D01*
X124944238Y-128522357D01*
X124896619Y-128546166D01*
X124872809Y-128593785D01*
X124872809Y-128855690D01*
X124872809Y-128593785D02*
X124849000Y-128546166D01*
X124801380Y-128522357D01*
X124729952Y-128522357D01*
X124682333Y-128546166D01*
X124658523Y-128593785D01*
X124658523Y-128855690D01*
X124206142Y-128855690D02*
X124206142Y-128593785D01*
X124229952Y-128546166D01*
X124277571Y-128522357D01*
X124372809Y-128522357D01*
X124420428Y-128546166D01*
X124206142Y-128831880D02*
X124253761Y-128855690D01*
X124372809Y-128855690D01*
X124420428Y-128831880D01*
X124444238Y-128784261D01*
X124444238Y-128736642D01*
X124420428Y-128689023D01*
X124372809Y-128665214D01*
X124253761Y-128665214D01*
X124206142Y-128641404D01*
X123968047Y-128522357D02*
X123968047Y-128855690D01*
X123968047Y-128569976D02*
X123944238Y-128546166D01*
X123896619Y-128522357D01*
X123825190Y-128522357D01*
X123777571Y-128546166D01*
X123753761Y-128593785D01*
X123753761Y-128855690D01*
X127027571Y-129160690D02*
X126908523Y-129660690D01*
X126813285Y-129303547D01*
X126718047Y-129660690D01*
X126599000Y-129160690D01*
X126194238Y-129660690D02*
X126194238Y-129398785D01*
X126218047Y-129351166D01*
X126265666Y-129327357D01*
X126360904Y-129327357D01*
X126408523Y-129351166D01*
X126194238Y-129636880D02*
X126241857Y-129660690D01*
X126360904Y-129660690D01*
X126408523Y-129636880D01*
X126432333Y-129589261D01*
X126432333Y-129541642D01*
X126408523Y-129494023D01*
X126360904Y-129470214D01*
X126241857Y-129470214D01*
X126194238Y-129446404D01*
X125979952Y-129636880D02*
X125932333Y-129660690D01*
X125837095Y-129660690D01*
X125789476Y-129636880D01*
X125765666Y-129589261D01*
X125765666Y-129565452D01*
X125789476Y-129517833D01*
X125837095Y-129494023D01*
X125908523Y-129494023D01*
X125956142Y-129470214D01*
X125979952Y-129422595D01*
X125979952Y-129398785D01*
X125956142Y-129351166D01*
X125908523Y-129327357D01*
X125837095Y-129327357D01*
X125789476Y-129351166D01*
X125170428Y-129660690D02*
X125170428Y-129160690D01*
X125170428Y-129398785D02*
X124884714Y-129398785D01*
X124884714Y-129660690D02*
X124884714Y-129160690D01*
X124456142Y-129636880D02*
X124503761Y-129660690D01*
X124599000Y-129660690D01*
X124646619Y-129636880D01*
X124670428Y-129589261D01*
X124670428Y-129398785D01*
X124646619Y-129351166D01*
X124599000Y-129327357D01*
X124503761Y-129327357D01*
X124456142Y-129351166D01*
X124432333Y-129398785D01*
X124432333Y-129446404D01*
X124670428Y-129494023D01*
X124218047Y-129660690D02*
X124218047Y-129327357D01*
X124218047Y-129422595D02*
X124194238Y-129374976D01*
X124170428Y-129351166D01*
X124122809Y-129327357D01*
X124075190Y-129327357D01*
X123718047Y-129636880D02*
X123765666Y-129660690D01*
X123860904Y-129660690D01*
X123908523Y-129636880D01*
X123932333Y-129589261D01*
X123932333Y-129398785D01*
X123908523Y-129351166D01*
X123860904Y-129327357D01*
X123765666Y-129327357D01*
X123718047Y-129351166D01*
X123694238Y-129398785D01*
X123694238Y-129446404D01*
X123932333Y-129494023D01*
D11*
X124665857Y-66111380D02*
X124665857Y-65111380D01*
X124427761Y-65111380D01*
X124284904Y-65159000D01*
X124189666Y-65254238D01*
X124142047Y-65349476D01*
X124094428Y-65539952D01*
X124094428Y-65682809D01*
X124142047Y-65873285D01*
X124189666Y-65968523D01*
X124284904Y-66063761D01*
X124427761Y-66111380D01*
X124665857Y-66111380D01*
X123523000Y-66111380D02*
X123618238Y-66063761D01*
X123665857Y-66016142D01*
X123713476Y-65920904D01*
X123713476Y-65635190D01*
X123665857Y-65539952D01*
X123618238Y-65492333D01*
X123523000Y-65444714D01*
X123380142Y-65444714D01*
X123284904Y-65492333D01*
X123237285Y-65539952D01*
X123189666Y-65635190D01*
X123189666Y-65920904D01*
X123237285Y-66016142D01*
X123284904Y-66063761D01*
X123380142Y-66111380D01*
X123523000Y-66111380D01*
X122761095Y-65444714D02*
X122761095Y-66111380D01*
X122761095Y-65539952D02*
X122713476Y-65492333D01*
X122618238Y-65444714D01*
X122475380Y-65444714D01*
X122380142Y-65492333D01*
X122332523Y-65587571D01*
X122332523Y-66111380D01*
X121808714Y-65111380D02*
X121903952Y-65301857D01*
X121523000Y-65444714D02*
X121142047Y-65444714D01*
X121380142Y-65111380D02*
X121380142Y-65968523D01*
X121332523Y-66063761D01*
X121237285Y-66111380D01*
X121142047Y-66111380D01*
X120046809Y-66111380D02*
X120046809Y-65111380D01*
X119665857Y-65111380D01*
X119570619Y-65159000D01*
X119523000Y-65206619D01*
X119475380Y-65301857D01*
X119475380Y-65444714D01*
X119523000Y-65539952D01*
X119570619Y-65587571D01*
X119665857Y-65635190D01*
X120046809Y-65635190D01*
X118618238Y-66111380D02*
X118618238Y-65587571D01*
X118665857Y-65492333D01*
X118761095Y-65444714D01*
X118951571Y-65444714D01*
X119046809Y-65492333D01*
X118618238Y-66063761D02*
X118713476Y-66111380D01*
X118951571Y-66111380D01*
X119046809Y-66063761D01*
X119094428Y-65968523D01*
X119094428Y-65873285D01*
X119046809Y-65778047D01*
X118951571Y-65730428D01*
X118713476Y-65730428D01*
X118618238Y-65682809D01*
X118142047Y-65444714D02*
X118142047Y-66111380D01*
X118142047Y-65539952D02*
X118094428Y-65492333D01*
X117999190Y-65444714D01*
X117856333Y-65444714D01*
X117761095Y-65492333D01*
X117713476Y-65587571D01*
X117713476Y-66111380D01*
X117237285Y-66111380D02*
X117237285Y-65444714D01*
X117237285Y-65111380D02*
X117284904Y-65159000D01*
X117237285Y-65206619D01*
X117189666Y-65159000D01*
X117237285Y-65111380D01*
X117237285Y-65206619D01*
X116332523Y-66063761D02*
X116427761Y-66111380D01*
X116618238Y-66111380D01*
X116713476Y-66063761D01*
X116761095Y-66016142D01*
X116808714Y-65920904D01*
X116808714Y-65635190D01*
X116761095Y-65539952D01*
X116713476Y-65492333D01*
X116618238Y-65444714D01*
X116427761Y-65444714D01*
X116332523Y-65492333D01*
X119379714Y-122229571D02*
X119713047Y-122229571D01*
X119713047Y-122753380D02*
X119713047Y-121753380D01*
X119236857Y-121753380D01*
X118713047Y-122753380D02*
X118808285Y-122705761D01*
X118855904Y-122610523D01*
X118855904Y-121753380D01*
X117903523Y-122753380D02*
X117903523Y-122229571D01*
X117951142Y-122134333D01*
X118046380Y-122086714D01*
X118236857Y-122086714D01*
X118332095Y-122134333D01*
X117903523Y-122705761D02*
X117998761Y-122753380D01*
X118236857Y-122753380D01*
X118332095Y-122705761D01*
X118379714Y-122610523D01*
X118379714Y-122515285D01*
X118332095Y-122420047D01*
X118236857Y-122372428D01*
X117998761Y-122372428D01*
X117903523Y-122324809D01*
X117474952Y-122705761D02*
X117379714Y-122753380D01*
X117189238Y-122753380D01*
X117094000Y-122705761D01*
X117046380Y-122610523D01*
X117046380Y-122562904D01*
X117094000Y-122467666D01*
X117189238Y-122420047D01*
X117332095Y-122420047D01*
X117427333Y-122372428D01*
X117474952Y-122277190D01*
X117474952Y-122229571D01*
X117427333Y-122134333D01*
X117332095Y-122086714D01*
X117189238Y-122086714D01*
X117094000Y-122134333D01*
X116617809Y-122753380D02*
X116617809Y-121753380D01*
X116189238Y-122753380D02*
X116189238Y-122229571D01*
X116236857Y-122134333D01*
X116332095Y-122086714D01*
X116474952Y-122086714D01*
X116570190Y-122134333D01*
X116617809Y-122181952D01*
X114427333Y-122753380D02*
X114998761Y-122753380D01*
X114713047Y-122753380D02*
X114713047Y-121753380D01*
X114808285Y-121896238D01*
X114903523Y-121991476D01*
X114998761Y-122039095D01*
X168100000Y-96115142D02*
X168147619Y-96162761D01*
X168290476Y-96210380D01*
X168385714Y-96210380D01*
X168528571Y-96162761D01*
X168623809Y-96067523D01*
X168671428Y-95972285D01*
X168719047Y-95781809D01*
X168719047Y-95638952D01*
X168671428Y-95448476D01*
X168623809Y-95353238D01*
X168528571Y-95258000D01*
X168385714Y-95210380D01*
X168290476Y-95210380D01*
X168147619Y-95258000D01*
X168100000Y-95305619D01*
X167719047Y-95924666D02*
X167242857Y-95924666D01*
X167814285Y-96210380D02*
X167480952Y-95210380D01*
X167147619Y-96210380D01*
X166814285Y-96210380D02*
X166814285Y-95210380D01*
X166242857Y-96210380D01*
X166242857Y-95210380D01*
X165433333Y-95686571D02*
X165290476Y-95734190D01*
X165242857Y-95781809D01*
X165195238Y-95877047D01*
X165195238Y-96019904D01*
X165242857Y-96115142D01*
X165290476Y-96162761D01*
X165385714Y-96210380D01*
X165766666Y-96210380D01*
X165766666Y-95210380D01*
X165433333Y-95210380D01*
X165338095Y-95258000D01*
X165290476Y-95305619D01*
X165242857Y-95400857D01*
X165242857Y-95496095D01*
X165290476Y-95591333D01*
X165338095Y-95638952D01*
X165433333Y-95686571D01*
X165766666Y-95686571D01*
X164766666Y-95210380D02*
X164766666Y-96019904D01*
X164719047Y-96115142D01*
X164671428Y-96162761D01*
X164576190Y-96210380D01*
X164385714Y-96210380D01*
X164290476Y-96162761D01*
X164242857Y-96115142D01*
X164195238Y-96019904D01*
X164195238Y-95210380D01*
X163766666Y-96162761D02*
X163623809Y-96210380D01*
X163385714Y-96210380D01*
X163290476Y-96162761D01*
X163242857Y-96115142D01*
X163195238Y-96019904D01*
X163195238Y-95924666D01*
X163242857Y-95829428D01*
X163290476Y-95781809D01*
X163385714Y-95734190D01*
X163576190Y-95686571D01*
X163671428Y-95638952D01*
X163719047Y-95591333D01*
X163766666Y-95496095D01*
X163766666Y-95400857D01*
X163719047Y-95305619D01*
X163671428Y-95258000D01*
X163576190Y-95210380D01*
X163338095Y-95210380D01*
X163195238Y-95258000D01*
X161480952Y-96210380D02*
X162052380Y-96210380D01*
X161766666Y-96210380D02*
X161766666Y-95210380D01*
X161861904Y-95353238D01*
X161957142Y-95448476D01*
X162052380Y-95496095D01*
X157211380Y-140565285D02*
X156211380Y-140565285D01*
X157211380Y-141136714D01*
X156211380Y-141136714D01*
X157116142Y-142184333D02*
X157163761Y-142136714D01*
X157211380Y-141993857D01*
X157211380Y-141898619D01*
X157163761Y-141755761D01*
X157068523Y-141660523D01*
X156973285Y-141612904D01*
X156782809Y-141565285D01*
X156639952Y-141565285D01*
X156449476Y-141612904D01*
X156354238Y-141660523D01*
X156259000Y-141755761D01*
X156211380Y-141898619D01*
X156211380Y-141993857D01*
X156259000Y-142136714D01*
X156306619Y-142184333D01*
X158821380Y-139779571D02*
X157821380Y-139779571D01*
X158535666Y-140112904D01*
X157821380Y-140446238D01*
X158821380Y-140446238D01*
X157821380Y-141112904D02*
X157821380Y-141303380D01*
X157869000Y-141398619D01*
X157964238Y-141493857D01*
X158154714Y-141541476D01*
X158488047Y-141541476D01*
X158678523Y-141493857D01*
X158773761Y-141398619D01*
X158821380Y-141303380D01*
X158821380Y-141112904D01*
X158773761Y-141017666D01*
X158678523Y-140922428D01*
X158488047Y-140874809D01*
X158154714Y-140874809D01*
X157964238Y-140922428D01*
X157869000Y-141017666D01*
X157821380Y-141112904D01*
X158773761Y-141922428D02*
X158821380Y-142065285D01*
X158821380Y-142303380D01*
X158773761Y-142398619D01*
X158726142Y-142446238D01*
X158630904Y-142493857D01*
X158535666Y-142493857D01*
X158440428Y-142446238D01*
X158392809Y-142398619D01*
X158345190Y-142303380D01*
X158297571Y-142112904D01*
X158249952Y-142017666D01*
X158202333Y-141970047D01*
X158107095Y-141922428D01*
X158011857Y-141922428D01*
X157916619Y-141970047D01*
X157869000Y-142017666D01*
X157821380Y-142112904D01*
X157821380Y-142351000D01*
X157869000Y-142493857D01*
X158821380Y-142922428D02*
X157821380Y-142922428D01*
X159479000Y-140589095D02*
X159431380Y-140493857D01*
X159431380Y-140351000D01*
X159479000Y-140208142D01*
X159574238Y-140112904D01*
X159669476Y-140065285D01*
X159859952Y-140017666D01*
X160002809Y-140017666D01*
X160193285Y-140065285D01*
X160288523Y-140112904D01*
X160383761Y-140208142D01*
X160431380Y-140351000D01*
X160431380Y-140446238D01*
X160383761Y-140589095D01*
X160336142Y-140636714D01*
X160002809Y-140636714D01*
X160002809Y-140446238D01*
X160431380Y-141065285D02*
X159431380Y-141065285D01*
X160431380Y-141636714D01*
X159431380Y-141636714D01*
X160431380Y-142112904D02*
X159431380Y-142112904D01*
X159431380Y-142351000D01*
X159479000Y-142493857D01*
X159574238Y-142589095D01*
X159669476Y-142636714D01*
X159859952Y-142684333D01*
X160002809Y-142684333D01*
X160193285Y-142636714D01*
X160288523Y-142589095D01*
X160383761Y-142493857D01*
X160431380Y-142351000D01*
X160431380Y-142112904D01*
X169092619Y-86017476D02*
X170092619Y-86017476D01*
X170092619Y-85779380D01*
X170045000Y-85636523D01*
X169949761Y-85541285D01*
X169854523Y-85493666D01*
X169664047Y-85446047D01*
X169521190Y-85446047D01*
X169330714Y-85493666D01*
X169235476Y-85541285D01*
X169140238Y-85636523D01*
X169092619Y-85779380D01*
X169092619Y-86017476D01*
X169140238Y-84636523D02*
X169092619Y-84731761D01*
X169092619Y-84922238D01*
X169140238Y-85017476D01*
X169235476Y-85065095D01*
X169616428Y-85065095D01*
X169711666Y-85017476D01*
X169759285Y-84922238D01*
X169759285Y-84731761D01*
X169711666Y-84636523D01*
X169616428Y-84588904D01*
X169521190Y-84588904D01*
X169425952Y-85065095D01*
X169140238Y-84207952D02*
X169092619Y-84112714D01*
X169092619Y-83922238D01*
X169140238Y-83827000D01*
X169235476Y-83779380D01*
X169283095Y-83779380D01*
X169378333Y-83827000D01*
X169425952Y-83922238D01*
X169425952Y-84065095D01*
X169473571Y-84160333D01*
X169568809Y-84207952D01*
X169616428Y-84207952D01*
X169711666Y-84160333D01*
X169759285Y-84065095D01*
X169759285Y-83922238D01*
X169711666Y-83827000D01*
X169092619Y-83350809D02*
X169759285Y-83350809D01*
X170092619Y-83350809D02*
X170045000Y-83398428D01*
X169997380Y-83350809D01*
X170045000Y-83303190D01*
X170092619Y-83350809D01*
X169997380Y-83350809D01*
X169759285Y-82446047D02*
X168949761Y-82446047D01*
X168854523Y-82493666D01*
X168806904Y-82541285D01*
X168759285Y-82636523D01*
X168759285Y-82779380D01*
X168806904Y-82874619D01*
X169140238Y-82446047D02*
X169092619Y-82541285D01*
X169092619Y-82731761D01*
X169140238Y-82827000D01*
X169187857Y-82874619D01*
X169283095Y-82922238D01*
X169568809Y-82922238D01*
X169664047Y-82874619D01*
X169711666Y-82827000D01*
X169759285Y-82731761D01*
X169759285Y-82541285D01*
X169711666Y-82446047D01*
X169759285Y-81969857D02*
X169092619Y-81969857D01*
X169664047Y-81969857D02*
X169711666Y-81922238D01*
X169759285Y-81827000D01*
X169759285Y-81684142D01*
X169711666Y-81588904D01*
X169616428Y-81541285D01*
X169092619Y-81541285D01*
X169140238Y-80684142D02*
X169092619Y-80779380D01*
X169092619Y-80969857D01*
X169140238Y-81065095D01*
X169235476Y-81112714D01*
X169616428Y-81112714D01*
X169711666Y-81065095D01*
X169759285Y-80969857D01*
X169759285Y-80779380D01*
X169711666Y-80684142D01*
X169616428Y-80636523D01*
X169521190Y-80636523D01*
X169425952Y-81112714D01*
X169092619Y-79779380D02*
X170092619Y-79779380D01*
X169140238Y-79779380D02*
X169092619Y-79874619D01*
X169092619Y-80065095D01*
X169140238Y-80160333D01*
X169187857Y-80207952D01*
X169283095Y-80255571D01*
X169568809Y-80255571D01*
X169664047Y-80207952D01*
X169711666Y-80160333D01*
X169759285Y-80065095D01*
X169759285Y-79874619D01*
X169711666Y-79779380D01*
X169092619Y-78541285D02*
X170092619Y-78541285D01*
X169711666Y-78541285D02*
X169759285Y-78446047D01*
X169759285Y-78255571D01*
X169711666Y-78160333D01*
X169664047Y-78112714D01*
X169568809Y-78065095D01*
X169283095Y-78065095D01*
X169187857Y-78112714D01*
X169140238Y-78160333D01*
X169092619Y-78255571D01*
X169092619Y-78446047D01*
X169140238Y-78541285D01*
X169759285Y-77731761D02*
X169092619Y-77493666D01*
X169759285Y-77255571D02*
X169092619Y-77493666D01*
X168854523Y-77588904D01*
X168806904Y-77636523D01*
X168759285Y-77731761D01*
X169187857Y-76874619D02*
X169140238Y-76827000D01*
X169092619Y-76874619D01*
X169140238Y-76922238D01*
X169187857Y-76874619D01*
X169092619Y-76874619D01*
X169711666Y-76874619D02*
X169664047Y-76827000D01*
X169616428Y-76874619D01*
X169664047Y-76922238D01*
X169711666Y-76874619D01*
X169616428Y-76874619D01*
X170092619Y-75779380D02*
X170092619Y-75207952D01*
X169092619Y-75493666D02*
X170092619Y-75493666D01*
X169092619Y-74874619D02*
X170092619Y-74874619D01*
X169092619Y-74446047D02*
X169616428Y-74446047D01*
X169711666Y-74493666D01*
X169759285Y-74588904D01*
X169759285Y-74731761D01*
X169711666Y-74827000D01*
X169664047Y-74874619D01*
X169140238Y-73588904D02*
X169092619Y-73684142D01*
X169092619Y-73874619D01*
X169140238Y-73969857D01*
X169235476Y-74017476D01*
X169616428Y-74017476D01*
X169711666Y-73969857D01*
X169759285Y-73874619D01*
X169759285Y-73684142D01*
X169711666Y-73588904D01*
X169616428Y-73541285D01*
X169521190Y-73541285D01*
X169425952Y-74017476D01*
X169092619Y-73112714D02*
X170092619Y-73112714D01*
X170092619Y-72731761D01*
X170045000Y-72636523D01*
X169997380Y-72588904D01*
X169902142Y-72541285D01*
X169759285Y-72541285D01*
X169664047Y-72588904D01*
X169616428Y-72636523D01*
X169568809Y-72731761D01*
X169568809Y-73112714D01*
X169140238Y-71731761D02*
X169092619Y-71827000D01*
X169092619Y-72017476D01*
X169140238Y-72112714D01*
X169235476Y-72160333D01*
X169616428Y-72160333D01*
X169711666Y-72112714D01*
X169759285Y-72017476D01*
X169759285Y-71827000D01*
X169711666Y-71731761D01*
X169616428Y-71684142D01*
X169521190Y-71684142D01*
X169425952Y-72160333D01*
X169759285Y-71398428D02*
X169759285Y-71017476D01*
X170092619Y-71255571D02*
X169235476Y-71255571D01*
X169140238Y-71207952D01*
X169092619Y-71112714D01*
X169092619Y-71017476D01*
X169092619Y-70684142D02*
X169759285Y-70684142D01*
X169568809Y-70684142D02*
X169664047Y-70636523D01*
X169711666Y-70588904D01*
X169759285Y-70493666D01*
X169759285Y-70398428D01*
X169092619Y-69922238D02*
X169140238Y-70017476D01*
X169187857Y-70065095D01*
X169283095Y-70112714D01*
X169568809Y-70112714D01*
X169664047Y-70065095D01*
X169711666Y-70017476D01*
X169759285Y-69922238D01*
X169759285Y-69779380D01*
X169711666Y-69684142D01*
X169664047Y-69636523D01*
X169568809Y-69588904D01*
X169283095Y-69588904D01*
X169187857Y-69636523D01*
X169140238Y-69684142D01*
X169092619Y-69779380D01*
X169092619Y-69922238D01*
X169759285Y-69255571D02*
X169092619Y-69017476D01*
X169759285Y-68779380D01*
X169092619Y-68398428D02*
X169759285Y-68398428D01*
X170092619Y-68398428D02*
X170045000Y-68446047D01*
X169997380Y-68398428D01*
X170045000Y-68350809D01*
X170092619Y-68398428D01*
X169997380Y-68398428D01*
X169140238Y-67493666D02*
X169092619Y-67588904D01*
X169092619Y-67779380D01*
X169140238Y-67874619D01*
X169187857Y-67922238D01*
X169283095Y-67969857D01*
X169568809Y-67969857D01*
X169664047Y-67922238D01*
X169711666Y-67874619D01*
X169759285Y-67779380D01*
X169759285Y-67588904D01*
X169711666Y-67493666D01*
X169092619Y-67065095D02*
X170092619Y-67065095D01*
X169092619Y-66636523D02*
X169616428Y-66636523D01*
X169711666Y-66684142D01*
X169759285Y-66779380D01*
X169759285Y-66922238D01*
X169711666Y-67017476D01*
X169664047Y-67065095D01*
X148590000Y-133310380D02*
X148590000Y-133548476D01*
X148828095Y-133453238D02*
X148590000Y-133548476D01*
X148351904Y-133453238D01*
X148732857Y-133738952D02*
X148590000Y-133548476D01*
X148447142Y-133738952D01*
X154074761Y-133731571D02*
X154122380Y-133874428D01*
X154122380Y-134112523D01*
X154074761Y-134207761D01*
X154027142Y-134255380D01*
X153931904Y-134303000D01*
X153836666Y-134303000D01*
X153741428Y-134255380D01*
X153693809Y-134207761D01*
X153646190Y-134112523D01*
X153598571Y-133922047D01*
X153550952Y-133826809D01*
X153503333Y-133779190D01*
X153408095Y-133731571D01*
X153312857Y-133731571D01*
X153217619Y-133779190D01*
X153170000Y-133826809D01*
X153122380Y-133922047D01*
X153122380Y-134160142D01*
X153170000Y-134303000D01*
X153455714Y-135160142D02*
X154122380Y-135160142D01*
X153455714Y-134731571D02*
X153979523Y-134731571D01*
X154074761Y-134779190D01*
X154122380Y-134874428D01*
X154122380Y-135017285D01*
X154074761Y-135112523D01*
X154027142Y-135160142D01*
X153455714Y-135636333D02*
X154455714Y-135636333D01*
X153503333Y-135636333D02*
X153455714Y-135731571D01*
X153455714Y-135922047D01*
X153503333Y-136017285D01*
X153550952Y-136064904D01*
X153646190Y-136112523D01*
X153931904Y-136112523D01*
X154027142Y-136064904D01*
X154074761Y-136017285D01*
X154122380Y-135922047D01*
X154122380Y-135731571D01*
X154074761Y-135636333D01*
X154074761Y-136922047D02*
X154122380Y-136826809D01*
X154122380Y-136636333D01*
X154074761Y-136541095D01*
X153979523Y-136493476D01*
X153598571Y-136493476D01*
X153503333Y-136541095D01*
X153455714Y-136636333D01*
X153455714Y-136826809D01*
X153503333Y-136922047D01*
X153598571Y-136969666D01*
X153693809Y-136969666D01*
X153789047Y-136493476D01*
X154122380Y-137398238D02*
X153455714Y-137398238D01*
X153646190Y-137398238D02*
X153550952Y-137445857D01*
X153503333Y-137493476D01*
X153455714Y-137588714D01*
X153455714Y-137683952D01*
X153455714Y-137922047D02*
X154122380Y-138160142D01*
X153455714Y-138398238D01*
X154122380Y-138779190D02*
X153455714Y-138779190D01*
X153122380Y-138779190D02*
X153170000Y-138731571D01*
X153217619Y-138779190D01*
X153170000Y-138826809D01*
X153122380Y-138779190D01*
X153217619Y-138779190D01*
X154074761Y-139207761D02*
X154122380Y-139303000D01*
X154122380Y-139493476D01*
X154074761Y-139588714D01*
X153979523Y-139636333D01*
X153931904Y-139636333D01*
X153836666Y-139588714D01*
X153789047Y-139493476D01*
X153789047Y-139350619D01*
X153741428Y-139255380D01*
X153646190Y-139207761D01*
X153598571Y-139207761D01*
X153503333Y-139255380D01*
X153455714Y-139350619D01*
X153455714Y-139493476D01*
X153503333Y-139588714D01*
X154122380Y-140207761D02*
X154074761Y-140112523D01*
X154027142Y-140064904D01*
X153931904Y-140017285D01*
X153646190Y-140017285D01*
X153550952Y-140064904D01*
X153503333Y-140112523D01*
X153455714Y-140207761D01*
X153455714Y-140350619D01*
X153503333Y-140445857D01*
X153550952Y-140493476D01*
X153646190Y-140541095D01*
X153931904Y-140541095D01*
X154027142Y-140493476D01*
X154074761Y-140445857D01*
X154122380Y-140350619D01*
X154122380Y-140207761D01*
X154122380Y-140969666D02*
X153455714Y-140969666D01*
X153646190Y-140969666D02*
X153550952Y-141017285D01*
X153503333Y-141064904D01*
X153455714Y-141160142D01*
X153455714Y-141255380D01*
X154122380Y-142874428D02*
X154122380Y-142303000D01*
X154122380Y-142588714D02*
X153122380Y-142588714D01*
X153265238Y-142493476D01*
X153360476Y-142398238D01*
X153408095Y-142303000D01*
X124841000Y-90892380D02*
X124841000Y-91130476D01*
X125079095Y-91035238D02*
X124841000Y-91130476D01*
X124602904Y-91035238D01*
X124983857Y-91320952D02*
X124841000Y-91130476D01*
X124698142Y-91320952D01*
%TO.C,R39*%
X123388380Y-138930142D02*
X122912190Y-138596809D01*
X123388380Y-138358714D02*
X122388380Y-138358714D01*
X122388380Y-138739666D01*
X122436000Y-138834904D01*
X122483619Y-138882523D01*
X122578857Y-138930142D01*
X122721714Y-138930142D01*
X122816952Y-138882523D01*
X122864571Y-138834904D01*
X122912190Y-138739666D01*
X122912190Y-138358714D01*
X122388380Y-139263476D02*
X122388380Y-139882523D01*
X122769333Y-139549190D01*
X122769333Y-139692047D01*
X122816952Y-139787285D01*
X122864571Y-139834904D01*
X122959809Y-139882523D01*
X123197904Y-139882523D01*
X123293142Y-139834904D01*
X123340761Y-139787285D01*
X123388380Y-139692047D01*
X123388380Y-139406333D01*
X123340761Y-139311095D01*
X123293142Y-139263476D01*
X123388380Y-140358714D02*
X123388380Y-140549190D01*
X123340761Y-140644428D01*
X123293142Y-140692047D01*
X123150285Y-140787285D01*
X122959809Y-140834904D01*
X122578857Y-140834904D01*
X122483619Y-140787285D01*
X122436000Y-140739666D01*
X122388380Y-140644428D01*
X122388380Y-140453952D01*
X122436000Y-140358714D01*
X122483619Y-140311095D01*
X122578857Y-140263476D01*
X122816952Y-140263476D01*
X122912190Y-140311095D01*
X122959809Y-140358714D01*
X123007428Y-140453952D01*
X123007428Y-140644428D01*
X122959809Y-140739666D01*
X122912190Y-140787285D01*
X122816952Y-140834904D01*
%TO.C,CH4*%
X161520142Y-101488523D02*
X161567761Y-101440904D01*
X161615380Y-101298047D01*
X161615380Y-101202809D01*
X161567761Y-101059952D01*
X161472523Y-100964714D01*
X161377285Y-100917095D01*
X161186809Y-100869476D01*
X161043952Y-100869476D01*
X160853476Y-100917095D01*
X160758238Y-100964714D01*
X160663000Y-101059952D01*
X160615380Y-101202809D01*
X160615380Y-101298047D01*
X160663000Y-101440904D01*
X160710619Y-101488523D01*
X161615380Y-101917095D02*
X160615380Y-101917095D01*
X161091571Y-101917095D02*
X161091571Y-102488523D01*
X161615380Y-102488523D02*
X160615380Y-102488523D01*
X160948714Y-103393285D02*
X161615380Y-103393285D01*
X160567761Y-103155190D02*
X161282047Y-102917095D01*
X161282047Y-103536142D01*
%TO.C,FL2*%
X165353571Y-98956904D02*
X165353571Y-98623571D01*
X165877380Y-98623571D02*
X164877380Y-98623571D01*
X164877380Y-99099761D01*
X165877380Y-99956904D02*
X165877380Y-99480714D01*
X164877380Y-99480714D01*
X164972619Y-100242619D02*
X164925000Y-100290238D01*
X164877380Y-100385476D01*
X164877380Y-100623571D01*
X164925000Y-100718809D01*
X164972619Y-100766428D01*
X165067857Y-100814047D01*
X165163095Y-100814047D01*
X165305952Y-100766428D01*
X165877380Y-100195000D01*
X165877380Y-100814047D01*
%TO.C,U16*%
X125262980Y-103917904D02*
X126072504Y-103917904D01*
X126167742Y-103965523D01*
X126215361Y-104013142D01*
X126262980Y-104108380D01*
X126262980Y-104298857D01*
X126215361Y-104394095D01*
X126167742Y-104441714D01*
X126072504Y-104489333D01*
X125262980Y-104489333D01*
X126262980Y-105489333D02*
X126262980Y-104917904D01*
X126262980Y-105203619D02*
X125262980Y-105203619D01*
X125405838Y-105108380D01*
X125501076Y-105013142D01*
X125548695Y-104917904D01*
X125262980Y-106346476D02*
X125262980Y-106156000D01*
X125310600Y-106060761D01*
X125358219Y-106013142D01*
X125501076Y-105917904D01*
X125691552Y-105870285D01*
X126072504Y-105870285D01*
X126167742Y-105917904D01*
X126215361Y-105965523D01*
X126262980Y-106060761D01*
X126262980Y-106251238D01*
X126215361Y-106346476D01*
X126167742Y-106394095D01*
X126072504Y-106441714D01*
X125834409Y-106441714D01*
X125739171Y-106394095D01*
X125691552Y-106346476D01*
X125643933Y-106251238D01*
X125643933Y-106060761D01*
X125691552Y-105965523D01*
X125739171Y-105917904D01*
X125834409Y-105870285D01*
%TO.C,R25*%
X159202380Y-116959142D02*
X158726190Y-116625809D01*
X159202380Y-116387714D02*
X158202380Y-116387714D01*
X158202380Y-116768666D01*
X158250000Y-116863904D01*
X158297619Y-116911523D01*
X158392857Y-116959142D01*
X158535714Y-116959142D01*
X158630952Y-116911523D01*
X158678571Y-116863904D01*
X158726190Y-116768666D01*
X158726190Y-116387714D01*
X158297619Y-117340095D02*
X158250000Y-117387714D01*
X158202380Y-117482952D01*
X158202380Y-117721047D01*
X158250000Y-117816285D01*
X158297619Y-117863904D01*
X158392857Y-117911523D01*
X158488095Y-117911523D01*
X158630952Y-117863904D01*
X159202380Y-117292476D01*
X159202380Y-117911523D01*
X158202380Y-118816285D02*
X158202380Y-118340095D01*
X158678571Y-118292476D01*
X158630952Y-118340095D01*
X158583333Y-118435333D01*
X158583333Y-118673428D01*
X158630952Y-118768666D01*
X158678571Y-118816285D01*
X158773809Y-118863904D01*
X159011904Y-118863904D01*
X159107142Y-118816285D01*
X159154761Y-118768666D01*
X159202380Y-118673428D01*
X159202380Y-118435333D01*
X159154761Y-118340095D01*
X159107142Y-118292476D01*
%TO.C,C26*%
X167774857Y-126849142D02*
X167822476Y-126896761D01*
X167965333Y-126944380D01*
X168060571Y-126944380D01*
X168203428Y-126896761D01*
X168298666Y-126801523D01*
X168346285Y-126706285D01*
X168393904Y-126515809D01*
X168393904Y-126372952D01*
X168346285Y-126182476D01*
X168298666Y-126087238D01*
X168203428Y-125992000D01*
X168060571Y-125944380D01*
X167965333Y-125944380D01*
X167822476Y-125992000D01*
X167774857Y-126039619D01*
X167393904Y-126039619D02*
X167346285Y-125992000D01*
X167251047Y-125944380D01*
X167012952Y-125944380D01*
X166917714Y-125992000D01*
X166870095Y-126039619D01*
X166822476Y-126134857D01*
X166822476Y-126230095D01*
X166870095Y-126372952D01*
X167441523Y-126944380D01*
X166822476Y-126944380D01*
X165965333Y-125944380D02*
X166155809Y-125944380D01*
X166251047Y-125992000D01*
X166298666Y-126039619D01*
X166393904Y-126182476D01*
X166441523Y-126372952D01*
X166441523Y-126753904D01*
X166393904Y-126849142D01*
X166346285Y-126896761D01*
X166251047Y-126944380D01*
X166060571Y-126944380D01*
X165965333Y-126896761D01*
X165917714Y-126849142D01*
X165870095Y-126753904D01*
X165870095Y-126515809D01*
X165917714Y-126420571D01*
X165965333Y-126372952D01*
X166060571Y-126325333D01*
X166251047Y-126325333D01*
X166346285Y-126372952D01*
X166393904Y-126420571D01*
X166441523Y-126515809D01*
%TO.C,Y3*%
X123256190Y-133508809D02*
X123732380Y-133508809D01*
X122732380Y-133175476D02*
X123256190Y-133508809D01*
X122732380Y-133842142D01*
X122732380Y-134080238D02*
X122732380Y-134699285D01*
X123113333Y-134365952D01*
X123113333Y-134508809D01*
X123160952Y-134604047D01*
X123208571Y-134651666D01*
X123303809Y-134699285D01*
X123541904Y-134699285D01*
X123637142Y-134651666D01*
X123684761Y-134604047D01*
X123732380Y-134508809D01*
X123732380Y-134223095D01*
X123684761Y-134127857D01*
X123637142Y-134080238D01*
%TO.C,R46*%
X158376857Y-123261380D02*
X158710190Y-122785190D01*
X158948285Y-123261380D02*
X158948285Y-122261380D01*
X158567333Y-122261380D01*
X158472095Y-122309000D01*
X158424476Y-122356619D01*
X158376857Y-122451857D01*
X158376857Y-122594714D01*
X158424476Y-122689952D01*
X158472095Y-122737571D01*
X158567333Y-122785190D01*
X158948285Y-122785190D01*
X157519714Y-122594714D02*
X157519714Y-123261380D01*
X157757809Y-122213761D02*
X157995904Y-122928047D01*
X157376857Y-122928047D01*
X156567333Y-122261380D02*
X156757809Y-122261380D01*
X156853047Y-122309000D01*
X156900666Y-122356619D01*
X156995904Y-122499476D01*
X157043523Y-122689952D01*
X157043523Y-123070904D01*
X156995904Y-123166142D01*
X156948285Y-123213761D01*
X156853047Y-123261380D01*
X156662571Y-123261380D01*
X156567333Y-123213761D01*
X156519714Y-123166142D01*
X156472095Y-123070904D01*
X156472095Y-122832809D01*
X156519714Y-122737571D01*
X156567333Y-122689952D01*
X156662571Y-122642333D01*
X156853047Y-122642333D01*
X156948285Y-122689952D01*
X156995904Y-122737571D01*
X157043523Y-122832809D01*
%TO.C,N12*%
X147923095Y-99410780D02*
X147923095Y-98410780D01*
X147351666Y-99410780D01*
X147351666Y-98410780D01*
X146351666Y-99410780D02*
X146923095Y-99410780D01*
X146637380Y-99410780D02*
X146637380Y-98410780D01*
X146732619Y-98553638D01*
X146827857Y-98648876D01*
X146923095Y-98696495D01*
X145970714Y-98506019D02*
X145923095Y-98458400D01*
X145827857Y-98410780D01*
X145589761Y-98410780D01*
X145494523Y-98458400D01*
X145446904Y-98506019D01*
X145399285Y-98601257D01*
X145399285Y-98696495D01*
X145446904Y-98839352D01*
X146018333Y-99410780D01*
X145399285Y-99410780D01*
X137795000Y-92314780D02*
X137795000Y-92552876D01*
X138033095Y-92457638D02*
X137795000Y-92552876D01*
X137556904Y-92457638D01*
X137937857Y-92743352D02*
X137795000Y-92552876D01*
X137652142Y-92743352D01*
%TO.C,R38*%
X115704857Y-139771380D02*
X116038190Y-139295190D01*
X116276285Y-139771380D02*
X116276285Y-138771380D01*
X115895333Y-138771380D01*
X115800095Y-138819000D01*
X115752476Y-138866619D01*
X115704857Y-138961857D01*
X115704857Y-139104714D01*
X115752476Y-139199952D01*
X115800095Y-139247571D01*
X115895333Y-139295190D01*
X116276285Y-139295190D01*
X115371523Y-138771380D02*
X114752476Y-138771380D01*
X115085809Y-139152333D01*
X114942952Y-139152333D01*
X114847714Y-139199952D01*
X114800095Y-139247571D01*
X114752476Y-139342809D01*
X114752476Y-139580904D01*
X114800095Y-139676142D01*
X114847714Y-139723761D01*
X114942952Y-139771380D01*
X115228666Y-139771380D01*
X115323904Y-139723761D01*
X115371523Y-139676142D01*
X114181047Y-139199952D02*
X114276285Y-139152333D01*
X114323904Y-139104714D01*
X114371523Y-139009476D01*
X114371523Y-138961857D01*
X114323904Y-138866619D01*
X114276285Y-138819000D01*
X114181047Y-138771380D01*
X113990571Y-138771380D01*
X113895333Y-138819000D01*
X113847714Y-138866619D01*
X113800095Y-138961857D01*
X113800095Y-139009476D01*
X113847714Y-139104714D01*
X113895333Y-139152333D01*
X113990571Y-139199952D01*
X114181047Y-139199952D01*
X114276285Y-139247571D01*
X114323904Y-139295190D01*
X114371523Y-139390428D01*
X114371523Y-139580904D01*
X114323904Y-139676142D01*
X114276285Y-139723761D01*
X114181047Y-139771380D01*
X113990571Y-139771380D01*
X113895333Y-139723761D01*
X113847714Y-139676142D01*
X113800095Y-139580904D01*
X113800095Y-139390428D01*
X113847714Y-139295190D01*
X113895333Y-139247571D01*
X113990571Y-139199952D01*
%TO.C,R42*%
X119705380Y-139438142D02*
X119229190Y-139104809D01*
X119705380Y-138866714D02*
X118705380Y-138866714D01*
X118705380Y-139247666D01*
X118753000Y-139342904D01*
X118800619Y-139390523D01*
X118895857Y-139438142D01*
X119038714Y-139438142D01*
X119133952Y-139390523D01*
X119181571Y-139342904D01*
X119229190Y-139247666D01*
X119229190Y-138866714D01*
X119038714Y-140295285D02*
X119705380Y-140295285D01*
X118657761Y-140057190D02*
X119372047Y-139819095D01*
X119372047Y-140438142D01*
X118800619Y-140771476D02*
X118753000Y-140819095D01*
X118705380Y-140914333D01*
X118705380Y-141152428D01*
X118753000Y-141247666D01*
X118800619Y-141295285D01*
X118895857Y-141342904D01*
X118991095Y-141342904D01*
X119133952Y-141295285D01*
X119705380Y-140723857D01*
X119705380Y-141342904D01*
%TO.C,U15*%
X129127095Y-112893180D02*
X129127095Y-113702704D01*
X129079476Y-113797942D01*
X129031857Y-113845561D01*
X128936619Y-113893180D01*
X128746142Y-113893180D01*
X128650904Y-113845561D01*
X128603285Y-113797942D01*
X128555666Y-113702704D01*
X128555666Y-112893180D01*
X127555666Y-113893180D02*
X128127095Y-113893180D01*
X127841380Y-113893180D02*
X127841380Y-112893180D01*
X127936619Y-113036038D01*
X128031857Y-113131276D01*
X128127095Y-113178895D01*
X126650904Y-112893180D02*
X127127095Y-112893180D01*
X127174714Y-113369371D01*
X127127095Y-113321752D01*
X127031857Y-113274133D01*
X126793761Y-113274133D01*
X126698523Y-113321752D01*
X126650904Y-113369371D01*
X126603285Y-113464609D01*
X126603285Y-113702704D01*
X126650904Y-113797942D01*
X126698523Y-113845561D01*
X126793761Y-113893180D01*
X127031857Y-113893180D01*
X127127095Y-113845561D01*
X127174714Y-113797942D01*
%TO.C,C29*%
X158249857Y-135485142D02*
X158297476Y-135532761D01*
X158440333Y-135580380D01*
X158535571Y-135580380D01*
X158678428Y-135532761D01*
X158773666Y-135437523D01*
X158821285Y-135342285D01*
X158868904Y-135151809D01*
X158868904Y-135008952D01*
X158821285Y-134818476D01*
X158773666Y-134723238D01*
X158678428Y-134628000D01*
X158535571Y-134580380D01*
X158440333Y-134580380D01*
X158297476Y-134628000D01*
X158249857Y-134675619D01*
X157868904Y-134675619D02*
X157821285Y-134628000D01*
X157726047Y-134580380D01*
X157487952Y-134580380D01*
X157392714Y-134628000D01*
X157345095Y-134675619D01*
X157297476Y-134770857D01*
X157297476Y-134866095D01*
X157345095Y-135008952D01*
X157916523Y-135580380D01*
X157297476Y-135580380D01*
X156821285Y-135580380D02*
X156630809Y-135580380D01*
X156535571Y-135532761D01*
X156487952Y-135485142D01*
X156392714Y-135342285D01*
X156345095Y-135151809D01*
X156345095Y-134770857D01*
X156392714Y-134675619D01*
X156440333Y-134628000D01*
X156535571Y-134580380D01*
X156726047Y-134580380D01*
X156821285Y-134628000D01*
X156868904Y-134675619D01*
X156916523Y-134770857D01*
X156916523Y-135008952D01*
X156868904Y-135104190D01*
X156821285Y-135151809D01*
X156726047Y-135199428D01*
X156535571Y-135199428D01*
X156440333Y-135151809D01*
X156392714Y-135104190D01*
X156345095Y-135008952D01*
%TO.C,L2*%
X150058380Y-137374333D02*
X150058380Y-136898142D01*
X149058380Y-136898142D01*
X149153619Y-137660047D02*
X149106000Y-137707666D01*
X149058380Y-137802904D01*
X149058380Y-138041000D01*
X149106000Y-138136238D01*
X149153619Y-138183857D01*
X149248857Y-138231476D01*
X149344095Y-138231476D01*
X149486952Y-138183857D01*
X150058380Y-137612428D01*
X150058380Y-138231476D01*
%TO.C,R37*%
X120657857Y-142946380D02*
X120991190Y-142470190D01*
X121229285Y-142946380D02*
X121229285Y-141946380D01*
X120848333Y-141946380D01*
X120753095Y-141994000D01*
X120705476Y-142041619D01*
X120657857Y-142136857D01*
X120657857Y-142279714D01*
X120705476Y-142374952D01*
X120753095Y-142422571D01*
X120848333Y-142470190D01*
X121229285Y-142470190D01*
X120324523Y-141946380D02*
X119705476Y-141946380D01*
X120038809Y-142327333D01*
X119895952Y-142327333D01*
X119800714Y-142374952D01*
X119753095Y-142422571D01*
X119705476Y-142517809D01*
X119705476Y-142755904D01*
X119753095Y-142851142D01*
X119800714Y-142898761D01*
X119895952Y-142946380D01*
X120181666Y-142946380D01*
X120276904Y-142898761D01*
X120324523Y-142851142D01*
X119372142Y-141946380D02*
X118705476Y-141946380D01*
X119134047Y-142946380D01*
%TO.C,CH3*%
X169521142Y-103195523D02*
X169568761Y-103147904D01*
X169616380Y-103005047D01*
X169616380Y-102909809D01*
X169568761Y-102766952D01*
X169473523Y-102671714D01*
X169378285Y-102624095D01*
X169187809Y-102576476D01*
X169044952Y-102576476D01*
X168854476Y-102624095D01*
X168759238Y-102671714D01*
X168664000Y-102766952D01*
X168616380Y-102909809D01*
X168616380Y-103005047D01*
X168664000Y-103147904D01*
X168711619Y-103195523D01*
X169616380Y-103624095D02*
X168616380Y-103624095D01*
X169092571Y-103624095D02*
X169092571Y-104195523D01*
X169616380Y-104195523D02*
X168616380Y-104195523D01*
X168616380Y-104576476D02*
X168616380Y-105195523D01*
X168997333Y-104862190D01*
X168997333Y-105005047D01*
X169044952Y-105100285D01*
X169092571Y-105147904D01*
X169187809Y-105195523D01*
X169425904Y-105195523D01*
X169521142Y-105147904D01*
X169568761Y-105100285D01*
X169616380Y-105005047D01*
X169616380Y-104719333D01*
X169568761Y-104624095D01*
X169521142Y-104576476D01*
%TO.C,N13*%
X122372380Y-77120904D02*
X121372380Y-77120904D01*
X122372380Y-77692333D01*
X121372380Y-77692333D01*
X122372380Y-78692333D02*
X122372380Y-78120904D01*
X122372380Y-78406619D02*
X121372380Y-78406619D01*
X121515238Y-78311380D01*
X121610476Y-78216142D01*
X121658095Y-78120904D01*
X121372380Y-79025666D02*
X121372380Y-79644714D01*
X121753333Y-79311380D01*
X121753333Y-79454238D01*
X121800952Y-79549476D01*
X121848571Y-79597095D01*
X121943809Y-79644714D01*
X122181904Y-79644714D01*
X122277142Y-79597095D01*
X122324761Y-79549476D01*
X122372380Y-79454238D01*
X122372380Y-79168523D01*
X122324761Y-79073285D01*
X122277142Y-79025666D01*
X115276380Y-87249000D02*
X115514476Y-87249000D01*
X115419238Y-87010904D02*
X115514476Y-87249000D01*
X115419238Y-87487095D01*
X115704952Y-87106142D02*
X115514476Y-87249000D01*
X115704952Y-87391857D01*
%TO.C,R36*%
X127769857Y-141676380D02*
X128103190Y-141200190D01*
X128341285Y-141676380D02*
X128341285Y-140676380D01*
X127960333Y-140676380D01*
X127865095Y-140724000D01*
X127817476Y-140771619D01*
X127769857Y-140866857D01*
X127769857Y-141009714D01*
X127817476Y-141104952D01*
X127865095Y-141152571D01*
X127960333Y-141200190D01*
X128341285Y-141200190D01*
X127436523Y-140676380D02*
X126817476Y-140676380D01*
X127150809Y-141057333D01*
X127007952Y-141057333D01*
X126912714Y-141104952D01*
X126865095Y-141152571D01*
X126817476Y-141247809D01*
X126817476Y-141485904D01*
X126865095Y-141581142D01*
X126912714Y-141628761D01*
X127007952Y-141676380D01*
X127293666Y-141676380D01*
X127388904Y-141628761D01*
X127436523Y-141581142D01*
X125960333Y-140676380D02*
X126150809Y-140676380D01*
X126246047Y-140724000D01*
X126293666Y-140771619D01*
X126388904Y-140914476D01*
X126436523Y-141104952D01*
X126436523Y-141485904D01*
X126388904Y-141581142D01*
X126341285Y-141628761D01*
X126246047Y-141676380D01*
X126055571Y-141676380D01*
X125960333Y-141628761D01*
X125912714Y-141581142D01*
X125865095Y-141485904D01*
X125865095Y-141247809D01*
X125912714Y-141152571D01*
X125960333Y-141104952D01*
X126055571Y-141057333D01*
X126246047Y-141057333D01*
X126341285Y-141104952D01*
X126388904Y-141152571D01*
X126436523Y-141247809D01*
%TO.C,N10*%
X106446580Y-133331104D02*
X105446580Y-133331104D01*
X106446580Y-133902533D01*
X105446580Y-133902533D01*
X106446580Y-134902533D02*
X106446580Y-134331104D01*
X106446580Y-134616819D02*
X105446580Y-134616819D01*
X105589438Y-134521580D01*
X105684676Y-134426342D01*
X105732295Y-134331104D01*
X105446580Y-135521580D02*
X105446580Y-135616819D01*
X105494200Y-135712057D01*
X105541819Y-135759676D01*
X105637057Y-135807295D01*
X105827533Y-135854914D01*
X106065628Y-135854914D01*
X106256104Y-135807295D01*
X106351342Y-135759676D01*
X106398961Y-135712057D01*
X106446580Y-135616819D01*
X106446580Y-135521580D01*
X106398961Y-135426342D01*
X106351342Y-135378723D01*
X106256104Y-135331104D01*
X106065628Y-135283485D01*
X105827533Y-135283485D01*
X105637057Y-135331104D01*
X105541819Y-135378723D01*
X105494200Y-135426342D01*
X105446580Y-135521580D01*
X111542580Y-125679200D02*
X111780676Y-125679200D01*
X111685438Y-125441104D02*
X111780676Y-125679200D01*
X111685438Y-125917295D01*
X111971152Y-125536342D02*
X111780676Y-125679200D01*
X111971152Y-125822057D01*
%TO.C,R48*%
X161678857Y-134310380D02*
X162012190Y-133834190D01*
X162250285Y-134310380D02*
X162250285Y-133310380D01*
X161869333Y-133310380D01*
X161774095Y-133358000D01*
X161726476Y-133405619D01*
X161678857Y-133500857D01*
X161678857Y-133643714D01*
X161726476Y-133738952D01*
X161774095Y-133786571D01*
X161869333Y-133834190D01*
X162250285Y-133834190D01*
X160821714Y-133643714D02*
X160821714Y-134310380D01*
X161059809Y-133262761D02*
X161297904Y-133977047D01*
X160678857Y-133977047D01*
X160155047Y-133738952D02*
X160250285Y-133691333D01*
X160297904Y-133643714D01*
X160345523Y-133548476D01*
X160345523Y-133500857D01*
X160297904Y-133405619D01*
X160250285Y-133358000D01*
X160155047Y-133310380D01*
X159964571Y-133310380D01*
X159869333Y-133358000D01*
X159821714Y-133405619D01*
X159774095Y-133500857D01*
X159774095Y-133548476D01*
X159821714Y-133643714D01*
X159869333Y-133691333D01*
X159964571Y-133738952D01*
X160155047Y-133738952D01*
X160250285Y-133786571D01*
X160297904Y-133834190D01*
X160345523Y-133929428D01*
X160345523Y-134119904D01*
X160297904Y-134215142D01*
X160250285Y-134262761D01*
X160155047Y-134310380D01*
X159964571Y-134310380D01*
X159869333Y-134262761D01*
X159821714Y-134215142D01*
X159774095Y-134119904D01*
X159774095Y-133929428D01*
X159821714Y-133834190D01*
X159869333Y-133786571D01*
X159964571Y-133738952D01*
%TO.C,C25*%
X165234857Y-120101142D02*
X165282476Y-120148761D01*
X165425333Y-120196380D01*
X165520571Y-120196380D01*
X165663428Y-120148761D01*
X165758666Y-120053523D01*
X165806285Y-119958285D01*
X165853904Y-119767809D01*
X165853904Y-119624952D01*
X165806285Y-119434476D01*
X165758666Y-119339238D01*
X165663428Y-119244000D01*
X165520571Y-119196380D01*
X165425333Y-119196380D01*
X165282476Y-119244000D01*
X165234857Y-119291619D01*
X164853904Y-119291619D02*
X164806285Y-119244000D01*
X164711047Y-119196380D01*
X164472952Y-119196380D01*
X164377714Y-119244000D01*
X164330095Y-119291619D01*
X164282476Y-119386857D01*
X164282476Y-119482095D01*
X164330095Y-119624952D01*
X164901523Y-120196380D01*
X164282476Y-120196380D01*
X163377714Y-119196380D02*
X163853904Y-119196380D01*
X163901523Y-119672571D01*
X163853904Y-119624952D01*
X163758666Y-119577333D01*
X163520571Y-119577333D01*
X163425333Y-119624952D01*
X163377714Y-119672571D01*
X163330095Y-119767809D01*
X163330095Y-120005904D01*
X163377714Y-120101142D01*
X163425333Y-120148761D01*
X163520571Y-120196380D01*
X163758666Y-120196380D01*
X163853904Y-120148761D01*
X163901523Y-120101142D01*
%TO.C,U9*%
X138771380Y-132461095D02*
X139580904Y-132461095D01*
X139676142Y-132508714D01*
X139723761Y-132556333D01*
X139771380Y-132651571D01*
X139771380Y-132842047D01*
X139723761Y-132937285D01*
X139676142Y-132984904D01*
X139580904Y-133032523D01*
X138771380Y-133032523D01*
X139771380Y-133556333D02*
X139771380Y-133746809D01*
X139723761Y-133842047D01*
X139676142Y-133889666D01*
X139533285Y-133984904D01*
X139342809Y-134032523D01*
X138961857Y-134032523D01*
X138866619Y-133984904D01*
X138819000Y-133937285D01*
X138771380Y-133842047D01*
X138771380Y-133651571D01*
X138819000Y-133556333D01*
X138866619Y-133508714D01*
X138961857Y-133461095D01*
X139199952Y-133461095D01*
X139295190Y-133508714D01*
X139342809Y-133556333D01*
X139390428Y-133651571D01*
X139390428Y-133842047D01*
X139342809Y-133937285D01*
X139295190Y-133984904D01*
X139199952Y-134032523D01*
%TO.C,C23*%
X115921757Y-128816642D02*
X115969376Y-128864261D01*
X116112233Y-128911880D01*
X116207471Y-128911880D01*
X116350328Y-128864261D01*
X116445566Y-128769023D01*
X116493185Y-128673785D01*
X116540804Y-128483309D01*
X116540804Y-128340452D01*
X116493185Y-128149976D01*
X116445566Y-128054738D01*
X116350328Y-127959500D01*
X116207471Y-127911880D01*
X116112233Y-127911880D01*
X115969376Y-127959500D01*
X115921757Y-128007119D01*
X115540804Y-128007119D02*
X115493185Y-127959500D01*
X115397947Y-127911880D01*
X115159852Y-127911880D01*
X115064614Y-127959500D01*
X115016995Y-128007119D01*
X114969376Y-128102357D01*
X114969376Y-128197595D01*
X115016995Y-128340452D01*
X115588423Y-128911880D01*
X114969376Y-128911880D01*
X114636042Y-127911880D02*
X114016995Y-127911880D01*
X114350328Y-128292833D01*
X114207471Y-128292833D01*
X114112233Y-128340452D01*
X114064614Y-128388071D01*
X114016995Y-128483309D01*
X114016995Y-128721404D01*
X114064614Y-128816642D01*
X114112233Y-128864261D01*
X114207471Y-128911880D01*
X114493185Y-128911880D01*
X114588423Y-128864261D01*
X114636042Y-128816642D01*
%TO.C,R47*%
X160408857Y-132913380D02*
X160742190Y-132437190D01*
X160980285Y-132913380D02*
X160980285Y-131913380D01*
X160599333Y-131913380D01*
X160504095Y-131961000D01*
X160456476Y-132008619D01*
X160408857Y-132103857D01*
X160408857Y-132246714D01*
X160456476Y-132341952D01*
X160504095Y-132389571D01*
X160599333Y-132437190D01*
X160980285Y-132437190D01*
X159551714Y-132246714D02*
X159551714Y-132913380D01*
X159789809Y-131865761D02*
X160027904Y-132580047D01*
X159408857Y-132580047D01*
X159123142Y-131913380D02*
X158456476Y-131913380D01*
X158885047Y-132913380D01*
%TO.C,R35*%
X96872380Y-102100142D02*
X96396190Y-101766809D01*
X96872380Y-101528714D02*
X95872380Y-101528714D01*
X95872380Y-101909666D01*
X95920000Y-102004904D01*
X95967619Y-102052523D01*
X96062857Y-102100142D01*
X96205714Y-102100142D01*
X96300952Y-102052523D01*
X96348571Y-102004904D01*
X96396190Y-101909666D01*
X96396190Y-101528714D01*
X95872380Y-102433476D02*
X95872380Y-103052523D01*
X96253333Y-102719190D01*
X96253333Y-102862047D01*
X96300952Y-102957285D01*
X96348571Y-103004904D01*
X96443809Y-103052523D01*
X96681904Y-103052523D01*
X96777142Y-103004904D01*
X96824761Y-102957285D01*
X96872380Y-102862047D01*
X96872380Y-102576333D01*
X96824761Y-102481095D01*
X96777142Y-102433476D01*
X95872380Y-103957285D02*
X95872380Y-103481095D01*
X96348571Y-103433476D01*
X96300952Y-103481095D01*
X96253333Y-103576333D01*
X96253333Y-103814428D01*
X96300952Y-103909666D01*
X96348571Y-103957285D01*
X96443809Y-104004904D01*
X96681904Y-104004904D01*
X96777142Y-103957285D01*
X96824761Y-103909666D01*
X96872380Y-103814428D01*
X96872380Y-103576333D01*
X96824761Y-103481095D01*
X96777142Y-103433476D01*
%TO.C,R32*%
X129420857Y-131643380D02*
X129754190Y-131167190D01*
X129992285Y-131643380D02*
X129992285Y-130643380D01*
X129611333Y-130643380D01*
X129516095Y-130691000D01*
X129468476Y-130738619D01*
X129420857Y-130833857D01*
X129420857Y-130976714D01*
X129468476Y-131071952D01*
X129516095Y-131119571D01*
X129611333Y-131167190D01*
X129992285Y-131167190D01*
X129087523Y-130643380D02*
X128468476Y-130643380D01*
X128801809Y-131024333D01*
X128658952Y-131024333D01*
X128563714Y-131071952D01*
X128516095Y-131119571D01*
X128468476Y-131214809D01*
X128468476Y-131452904D01*
X128516095Y-131548142D01*
X128563714Y-131595761D01*
X128658952Y-131643380D01*
X128944666Y-131643380D01*
X129039904Y-131595761D01*
X129087523Y-131548142D01*
X128087523Y-130738619D02*
X128039904Y-130691000D01*
X127944666Y-130643380D01*
X127706571Y-130643380D01*
X127611333Y-130691000D01*
X127563714Y-130738619D01*
X127516095Y-130833857D01*
X127516095Y-130929095D01*
X127563714Y-131071952D01*
X128135142Y-131643380D01*
X127516095Y-131643380D01*
%TO.C,U13*%
X162139380Y-126142904D02*
X162948904Y-126142904D01*
X163044142Y-126190523D01*
X163091761Y-126238142D01*
X163139380Y-126333380D01*
X163139380Y-126523857D01*
X163091761Y-126619095D01*
X163044142Y-126666714D01*
X162948904Y-126714333D01*
X162139380Y-126714333D01*
X163139380Y-127714333D02*
X163139380Y-127142904D01*
X163139380Y-127428619D02*
X162139380Y-127428619D01*
X162282238Y-127333380D01*
X162377476Y-127238142D01*
X162425095Y-127142904D01*
X162139380Y-128047666D02*
X162139380Y-128666714D01*
X162520333Y-128333380D01*
X162520333Y-128476238D01*
X162567952Y-128571476D01*
X162615571Y-128619095D01*
X162710809Y-128666714D01*
X162948904Y-128666714D01*
X163044142Y-128619095D01*
X163091761Y-128571476D01*
X163139380Y-128476238D01*
X163139380Y-128190523D01*
X163091761Y-128095285D01*
X163044142Y-128047666D01*
%TO.C,D6*%
X132818095Y-144089380D02*
X132818095Y-143089380D01*
X132580000Y-143089380D01*
X132437142Y-143137000D01*
X132341904Y-143232238D01*
X132294285Y-143327476D01*
X132246666Y-143517952D01*
X132246666Y-143660809D01*
X132294285Y-143851285D01*
X132341904Y-143946523D01*
X132437142Y-144041761D01*
X132580000Y-144089380D01*
X132818095Y-144089380D01*
X131389523Y-143089380D02*
X131580000Y-143089380D01*
X131675238Y-143137000D01*
X131722857Y-143184619D01*
X131818095Y-143327476D01*
X131865714Y-143517952D01*
X131865714Y-143898904D01*
X131818095Y-143994142D01*
X131770476Y-144041761D01*
X131675238Y-144089380D01*
X131484761Y-144089380D01*
X131389523Y-144041761D01*
X131341904Y-143994142D01*
X131294285Y-143898904D01*
X131294285Y-143660809D01*
X131341904Y-143565571D01*
X131389523Y-143517952D01*
X131484761Y-143470333D01*
X131675238Y-143470333D01*
X131770476Y-143517952D01*
X131818095Y-143565571D01*
X131865714Y-143660809D01*
%TO.C,N9*%
X108788104Y-98242380D02*
X108788104Y-97242380D01*
X108216676Y-98242380D01*
X108216676Y-97242380D01*
X107692866Y-98242380D02*
X107502390Y-98242380D01*
X107407152Y-98194761D01*
X107359533Y-98147142D01*
X107264295Y-98004285D01*
X107216676Y-97813809D01*
X107216676Y-97432857D01*
X107264295Y-97337619D01*
X107311914Y-97290000D01*
X107407152Y-97242380D01*
X107597628Y-97242380D01*
X107692866Y-97290000D01*
X107740485Y-97337619D01*
X107788104Y-97432857D01*
X107788104Y-97670952D01*
X107740485Y-97766190D01*
X107692866Y-97813809D01*
X107597628Y-97861428D01*
X107407152Y-97861428D01*
X107311914Y-97813809D01*
X107264295Y-97766190D01*
X107216676Y-97670952D01*
X116916200Y-103338380D02*
X116916200Y-103576476D01*
X117154295Y-103481238D02*
X116916200Y-103576476D01*
X116678104Y-103481238D01*
X117059057Y-103766952D02*
X116916200Y-103576476D01*
X116773342Y-103766952D01*
%TO.C,R43*%
X160726380Y-116959142D02*
X160250190Y-116625809D01*
X160726380Y-116387714D02*
X159726380Y-116387714D01*
X159726380Y-116768666D01*
X159774000Y-116863904D01*
X159821619Y-116911523D01*
X159916857Y-116959142D01*
X160059714Y-116959142D01*
X160154952Y-116911523D01*
X160202571Y-116863904D01*
X160250190Y-116768666D01*
X160250190Y-116387714D01*
X160059714Y-117816285D02*
X160726380Y-117816285D01*
X159678761Y-117578190D02*
X160393047Y-117340095D01*
X160393047Y-117959142D01*
X159726380Y-118244857D02*
X159726380Y-118863904D01*
X160107333Y-118530571D01*
X160107333Y-118673428D01*
X160154952Y-118768666D01*
X160202571Y-118816285D01*
X160297809Y-118863904D01*
X160535904Y-118863904D01*
X160631142Y-118816285D01*
X160678761Y-118768666D01*
X160726380Y-118673428D01*
X160726380Y-118387714D01*
X160678761Y-118292476D01*
X160631142Y-118244857D01*
%TO.C,CL3*%
X163171142Y-103187571D02*
X163218761Y-103139952D01*
X163266380Y-102997095D01*
X163266380Y-102901857D01*
X163218761Y-102759000D01*
X163123523Y-102663761D01*
X163028285Y-102616142D01*
X162837809Y-102568523D01*
X162694952Y-102568523D01*
X162504476Y-102616142D01*
X162409238Y-102663761D01*
X162314000Y-102759000D01*
X162266380Y-102901857D01*
X162266380Y-102997095D01*
X162314000Y-103139952D01*
X162361619Y-103187571D01*
X163266380Y-104092333D02*
X163266380Y-103616142D01*
X162266380Y-103616142D01*
X162266380Y-104330428D02*
X162266380Y-104949476D01*
X162647333Y-104616142D01*
X162647333Y-104759000D01*
X162694952Y-104854238D01*
X162742571Y-104901857D01*
X162837809Y-104949476D01*
X163075904Y-104949476D01*
X163171142Y-104901857D01*
X163218761Y-104854238D01*
X163266380Y-104759000D01*
X163266380Y-104473285D01*
X163218761Y-104378047D01*
X163171142Y-104330428D01*
%TO.C,CL4*%
X170212142Y-100520571D02*
X170259761Y-100472952D01*
X170307380Y-100330095D01*
X170307380Y-100234857D01*
X170259761Y-100092000D01*
X170164523Y-99996761D01*
X170069285Y-99949142D01*
X169878809Y-99901523D01*
X169735952Y-99901523D01*
X169545476Y-99949142D01*
X169450238Y-99996761D01*
X169355000Y-100092000D01*
X169307380Y-100234857D01*
X169307380Y-100330095D01*
X169355000Y-100472952D01*
X169402619Y-100520571D01*
X170307380Y-101425333D02*
X170307380Y-100949142D01*
X169307380Y-100949142D01*
X169640714Y-102187238D02*
X170307380Y-102187238D01*
X169259761Y-101949142D02*
X169974047Y-101711047D01*
X169974047Y-102330095D01*
%TO.C,U10*%
X115149380Y-124491904D02*
X115958904Y-124491904D01*
X116054142Y-124539523D01*
X116101761Y-124587142D01*
X116149380Y-124682380D01*
X116149380Y-124872857D01*
X116101761Y-124968095D01*
X116054142Y-125015714D01*
X115958904Y-125063333D01*
X115149380Y-125063333D01*
X116149380Y-126063333D02*
X116149380Y-125491904D01*
X116149380Y-125777619D02*
X115149380Y-125777619D01*
X115292238Y-125682380D01*
X115387476Y-125587142D01*
X115435095Y-125491904D01*
X115149380Y-126682380D02*
X115149380Y-126777619D01*
X115197000Y-126872857D01*
X115244619Y-126920476D01*
X115339857Y-126968095D01*
X115530333Y-127015714D01*
X115768428Y-127015714D01*
X115958904Y-126968095D01*
X116054142Y-126920476D01*
X116101761Y-126872857D01*
X116149380Y-126777619D01*
X116149380Y-126682380D01*
X116101761Y-126587142D01*
X116054142Y-126539523D01*
X115958904Y-126491904D01*
X115768428Y-126444285D01*
X115530333Y-126444285D01*
X115339857Y-126491904D01*
X115244619Y-126539523D01*
X115197000Y-126587142D01*
X115149380Y-126682380D01*
%TO.C,U11*%
X117714780Y-133416904D02*
X118524304Y-133416904D01*
X118619542Y-133464523D01*
X118667161Y-133512142D01*
X118714780Y-133607380D01*
X118714780Y-133797857D01*
X118667161Y-133893095D01*
X118619542Y-133940714D01*
X118524304Y-133988333D01*
X117714780Y-133988333D01*
X118714780Y-134988333D02*
X118714780Y-134416904D01*
X118714780Y-134702619D02*
X117714780Y-134702619D01*
X117857638Y-134607380D01*
X117952876Y-134512142D01*
X118000495Y-134416904D01*
X118714780Y-135940714D02*
X118714780Y-135369285D01*
X118714780Y-135655000D02*
X117714780Y-135655000D01*
X117857638Y-135559761D01*
X117952876Y-135464523D01*
X118000495Y-135369285D01*
%TO.C,C17*%
X126372857Y-138296142D02*
X126420476Y-138343761D01*
X126563333Y-138391380D01*
X126658571Y-138391380D01*
X126801428Y-138343761D01*
X126896666Y-138248523D01*
X126944285Y-138153285D01*
X126991904Y-137962809D01*
X126991904Y-137819952D01*
X126944285Y-137629476D01*
X126896666Y-137534238D01*
X126801428Y-137439000D01*
X126658571Y-137391380D01*
X126563333Y-137391380D01*
X126420476Y-137439000D01*
X126372857Y-137486619D01*
X125420476Y-138391380D02*
X125991904Y-138391380D01*
X125706190Y-138391380D02*
X125706190Y-137391380D01*
X125801428Y-137534238D01*
X125896666Y-137629476D01*
X125991904Y-137677095D01*
X125087142Y-137391380D02*
X124420476Y-137391380D01*
X124849047Y-138391380D01*
%TO.C,D9*%
X169489380Y-97686904D02*
X168489380Y-97686904D01*
X168489380Y-97925000D01*
X168537000Y-98067857D01*
X168632238Y-98163095D01*
X168727476Y-98210714D01*
X168917952Y-98258333D01*
X169060809Y-98258333D01*
X169251285Y-98210714D01*
X169346523Y-98163095D01*
X169441761Y-98067857D01*
X169489380Y-97925000D01*
X169489380Y-97686904D01*
X169489380Y-98734523D02*
X169489380Y-98925000D01*
X169441761Y-99020238D01*
X169394142Y-99067857D01*
X169251285Y-99163095D01*
X169060809Y-99210714D01*
X168679857Y-99210714D01*
X168584619Y-99163095D01*
X168537000Y-99115476D01*
X168489380Y-99020238D01*
X168489380Y-98829761D01*
X168537000Y-98734523D01*
X168584619Y-98686904D01*
X168679857Y-98639285D01*
X168917952Y-98639285D01*
X169013190Y-98686904D01*
X169060809Y-98734523D01*
X169108428Y-98829761D01*
X169108428Y-99020238D01*
X169060809Y-99115476D01*
X169013190Y-99163095D01*
X168917952Y-99210714D01*
%TO.C,R41*%
X115133380Y-136644142D02*
X114657190Y-136310809D01*
X115133380Y-136072714D02*
X114133380Y-136072714D01*
X114133380Y-136453666D01*
X114181000Y-136548904D01*
X114228619Y-136596523D01*
X114323857Y-136644142D01*
X114466714Y-136644142D01*
X114561952Y-136596523D01*
X114609571Y-136548904D01*
X114657190Y-136453666D01*
X114657190Y-136072714D01*
X114466714Y-137501285D02*
X115133380Y-137501285D01*
X114085761Y-137263190D02*
X114800047Y-137025095D01*
X114800047Y-137644142D01*
X115133380Y-138548904D02*
X115133380Y-137977476D01*
X115133380Y-138263190D02*
X114133380Y-138263190D01*
X114276238Y-138167952D01*
X114371476Y-138072714D01*
X114419095Y-137977476D01*
%TO.C,N11*%
X147872295Y-114549180D02*
X147872295Y-113549180D01*
X147300866Y-114549180D01*
X147300866Y-113549180D01*
X146300866Y-114549180D02*
X146872295Y-114549180D01*
X146586580Y-114549180D02*
X146586580Y-113549180D01*
X146681819Y-113692038D01*
X146777057Y-113787276D01*
X146872295Y-113834895D01*
X145348485Y-114549180D02*
X145919914Y-114549180D01*
X145634200Y-114549180D02*
X145634200Y-113549180D01*
X145729438Y-113692038D01*
X145824676Y-113787276D01*
X145919914Y-113834895D01*
X137744200Y-107453180D02*
X137744200Y-107691276D01*
X137982295Y-107596038D02*
X137744200Y-107691276D01*
X137506104Y-107596038D01*
X137887057Y-107881752D02*
X137744200Y-107691276D01*
X137601342Y-107881752D01*
%TO.C,C22*%
X114911142Y-130040142D02*
X114958761Y-129992523D01*
X115006380Y-129849666D01*
X115006380Y-129754428D01*
X114958761Y-129611571D01*
X114863523Y-129516333D01*
X114768285Y-129468714D01*
X114577809Y-129421095D01*
X114434952Y-129421095D01*
X114244476Y-129468714D01*
X114149238Y-129516333D01*
X114054000Y-129611571D01*
X114006380Y-129754428D01*
X114006380Y-129849666D01*
X114054000Y-129992523D01*
X114101619Y-130040142D01*
X114101619Y-130421095D02*
X114054000Y-130468714D01*
X114006380Y-130563952D01*
X114006380Y-130802047D01*
X114054000Y-130897285D01*
X114101619Y-130944904D01*
X114196857Y-130992523D01*
X114292095Y-130992523D01*
X114434952Y-130944904D01*
X115006380Y-130373476D01*
X115006380Y-130992523D01*
X114101619Y-131373476D02*
X114054000Y-131421095D01*
X114006380Y-131516333D01*
X114006380Y-131754428D01*
X114054000Y-131849666D01*
X114101619Y-131897285D01*
X114196857Y-131944904D01*
X114292095Y-131944904D01*
X114434952Y-131897285D01*
X115006380Y-131325857D01*
X115006380Y-131944904D01*
%TO.C,N14*%
X154884380Y-76104904D02*
X153884380Y-76104904D01*
X154884380Y-76676333D01*
X153884380Y-76676333D01*
X154884380Y-77676333D02*
X154884380Y-77104904D01*
X154884380Y-77390619D02*
X153884380Y-77390619D01*
X154027238Y-77295380D01*
X154122476Y-77200142D01*
X154170095Y-77104904D01*
X154217714Y-78533476D02*
X154884380Y-78533476D01*
X153836761Y-78295380D02*
X154551047Y-78057285D01*
X154551047Y-78676333D01*
X147788380Y-86233000D02*
X148026476Y-86233000D01*
X147931238Y-85994904D02*
X148026476Y-86233000D01*
X147931238Y-86471095D01*
X148216952Y-86090142D02*
X148026476Y-86233000D01*
X148216952Y-86375857D01*
%TO.C,C30*%
X164385142Y-112712142D02*
X164432761Y-112664523D01*
X164480380Y-112521666D01*
X164480380Y-112426428D01*
X164432761Y-112283571D01*
X164337523Y-112188333D01*
X164242285Y-112140714D01*
X164051809Y-112093095D01*
X163908952Y-112093095D01*
X163718476Y-112140714D01*
X163623238Y-112188333D01*
X163528000Y-112283571D01*
X163480380Y-112426428D01*
X163480380Y-112521666D01*
X163528000Y-112664523D01*
X163575619Y-112712142D01*
X163480380Y-113045476D02*
X163480380Y-113664523D01*
X163861333Y-113331190D01*
X163861333Y-113474047D01*
X163908952Y-113569285D01*
X163956571Y-113616904D01*
X164051809Y-113664523D01*
X164289904Y-113664523D01*
X164385142Y-113616904D01*
X164432761Y-113569285D01*
X164480380Y-113474047D01*
X164480380Y-113188333D01*
X164432761Y-113093095D01*
X164385142Y-113045476D01*
X163480380Y-114283571D02*
X163480380Y-114378809D01*
X163528000Y-114474047D01*
X163575619Y-114521666D01*
X163670857Y-114569285D01*
X163861333Y-114616904D01*
X164099428Y-114616904D01*
X164289904Y-114569285D01*
X164385142Y-114521666D01*
X164432761Y-114474047D01*
X164480380Y-114378809D01*
X164480380Y-114283571D01*
X164432761Y-114188333D01*
X164385142Y-114140714D01*
X164289904Y-114093095D01*
X164099428Y-114045476D01*
X163861333Y-114045476D01*
X163670857Y-114093095D01*
X163575619Y-114140714D01*
X163528000Y-114188333D01*
X163480380Y-114283571D01*
%TO.C,C20*%
X150248857Y-142216142D02*
X150296476Y-142263761D01*
X150439333Y-142311380D01*
X150534571Y-142311380D01*
X150677428Y-142263761D01*
X150772666Y-142168523D01*
X150820285Y-142073285D01*
X150867904Y-141882809D01*
X150867904Y-141739952D01*
X150820285Y-141549476D01*
X150772666Y-141454238D01*
X150677428Y-141359000D01*
X150534571Y-141311380D01*
X150439333Y-141311380D01*
X150296476Y-141359000D01*
X150248857Y-141406619D01*
X149867904Y-141406619D02*
X149820285Y-141359000D01*
X149725047Y-141311380D01*
X149486952Y-141311380D01*
X149391714Y-141359000D01*
X149344095Y-141406619D01*
X149296476Y-141501857D01*
X149296476Y-141597095D01*
X149344095Y-141739952D01*
X149915523Y-142311380D01*
X149296476Y-142311380D01*
X148677428Y-141311380D02*
X148582190Y-141311380D01*
X148486952Y-141359000D01*
X148439333Y-141406619D01*
X148391714Y-141501857D01*
X148344095Y-141692333D01*
X148344095Y-141930428D01*
X148391714Y-142120904D01*
X148439333Y-142216142D01*
X148486952Y-142263761D01*
X148582190Y-142311380D01*
X148677428Y-142311380D01*
X148772666Y-142263761D01*
X148820285Y-142216142D01*
X148867904Y-142120904D01*
X148915523Y-141930428D01*
X148915523Y-141692333D01*
X148867904Y-141501857D01*
X148820285Y-141406619D01*
X148772666Y-141359000D01*
X148677428Y-141311380D01*
%TO.C,R49*%
X133548380Y-115308142D02*
X133072190Y-114974809D01*
X133548380Y-114736714D02*
X132548380Y-114736714D01*
X132548380Y-115117666D01*
X132596000Y-115212904D01*
X132643619Y-115260523D01*
X132738857Y-115308142D01*
X132881714Y-115308142D01*
X132976952Y-115260523D01*
X133024571Y-115212904D01*
X133072190Y-115117666D01*
X133072190Y-114736714D01*
X132881714Y-116165285D02*
X133548380Y-116165285D01*
X132500761Y-115927190D02*
X133215047Y-115689095D01*
X133215047Y-116308142D01*
X133548380Y-116736714D02*
X133548380Y-116927190D01*
X133500761Y-117022428D01*
X133453142Y-117070047D01*
X133310285Y-117165285D01*
X133119809Y-117212904D01*
X132738857Y-117212904D01*
X132643619Y-117165285D01*
X132596000Y-117117666D01*
X132548380Y-117022428D01*
X132548380Y-116831952D01*
X132596000Y-116736714D01*
X132643619Y-116689095D01*
X132738857Y-116641476D01*
X132976952Y-116641476D01*
X133072190Y-116689095D01*
X133119809Y-116736714D01*
X133167428Y-116831952D01*
X133167428Y-117022428D01*
X133119809Y-117117666D01*
X133072190Y-117165285D01*
X132976952Y-117212904D01*
%TO.C,N15*%
X109213495Y-113126780D02*
X109213495Y-112126780D01*
X108642066Y-113126780D01*
X108642066Y-112126780D01*
X107642066Y-113126780D02*
X108213495Y-113126780D01*
X107927780Y-113126780D02*
X107927780Y-112126780D01*
X108023019Y-112269638D01*
X108118257Y-112364876D01*
X108213495Y-112412495D01*
X106737304Y-112126780D02*
X107213495Y-112126780D01*
X107261114Y-112602971D01*
X107213495Y-112555352D01*
X107118257Y-112507733D01*
X106880161Y-112507733D01*
X106784923Y-112555352D01*
X106737304Y-112602971D01*
X106689685Y-112698209D01*
X106689685Y-112936304D01*
X106737304Y-113031542D01*
X106784923Y-113079161D01*
X106880161Y-113126780D01*
X107118257Y-113126780D01*
X107213495Y-113079161D01*
X107261114Y-113031542D01*
X116865400Y-118222780D02*
X116865400Y-118460876D01*
X117103495Y-118365638D02*
X116865400Y-118460876D01*
X116627304Y-118365638D01*
X117008257Y-118651352D02*
X116865400Y-118460876D01*
X116722542Y-118651352D01*
%TO.C,U14*%
X168785380Y-106909904D02*
X169594904Y-106909904D01*
X169690142Y-106957523D01*
X169737761Y-107005142D01*
X169785380Y-107100380D01*
X169785380Y-107290857D01*
X169737761Y-107386095D01*
X169690142Y-107433714D01*
X169594904Y-107481333D01*
X168785380Y-107481333D01*
X169785380Y-108481333D02*
X169785380Y-107909904D01*
X169785380Y-108195619D02*
X168785380Y-108195619D01*
X168928238Y-108100380D01*
X169023476Y-108005142D01*
X169071095Y-107909904D01*
X169118714Y-109338476D02*
X169785380Y-109338476D01*
X168737761Y-109100380D02*
X169452047Y-108862285D01*
X169452047Y-109481333D01*
%TO.C,C27*%
X154281142Y-126611142D02*
X154328761Y-126563523D01*
X154376380Y-126420666D01*
X154376380Y-126325428D01*
X154328761Y-126182571D01*
X154233523Y-126087333D01*
X154138285Y-126039714D01*
X153947809Y-125992095D01*
X153804952Y-125992095D01*
X153614476Y-126039714D01*
X153519238Y-126087333D01*
X153424000Y-126182571D01*
X153376380Y-126325428D01*
X153376380Y-126420666D01*
X153424000Y-126563523D01*
X153471619Y-126611142D01*
X153471619Y-126992095D02*
X153424000Y-127039714D01*
X153376380Y-127134952D01*
X153376380Y-127373047D01*
X153424000Y-127468285D01*
X153471619Y-127515904D01*
X153566857Y-127563523D01*
X153662095Y-127563523D01*
X153804952Y-127515904D01*
X154376380Y-126944476D01*
X154376380Y-127563523D01*
X153376380Y-127896857D02*
X153376380Y-128563523D01*
X154376380Y-128134952D01*
%TO.C,Y4*%
X167362190Y-122967809D02*
X167838380Y-122967809D01*
X166838380Y-122634476D02*
X167362190Y-122967809D01*
X166838380Y-123301142D01*
X167171714Y-124063047D02*
X167838380Y-124063047D01*
X166790761Y-123824952D02*
X167505047Y-123586857D01*
X167505047Y-124205904D01*
%TO.C,R34*%
X97226380Y-95623142D02*
X96750190Y-95289809D01*
X97226380Y-95051714D02*
X96226380Y-95051714D01*
X96226380Y-95432666D01*
X96274000Y-95527904D01*
X96321619Y-95575523D01*
X96416857Y-95623142D01*
X96559714Y-95623142D01*
X96654952Y-95575523D01*
X96702571Y-95527904D01*
X96750190Y-95432666D01*
X96750190Y-95051714D01*
X96226380Y-95956476D02*
X96226380Y-96575523D01*
X96607333Y-96242190D01*
X96607333Y-96385047D01*
X96654952Y-96480285D01*
X96702571Y-96527904D01*
X96797809Y-96575523D01*
X97035904Y-96575523D01*
X97131142Y-96527904D01*
X97178761Y-96480285D01*
X97226380Y-96385047D01*
X97226380Y-96099333D01*
X97178761Y-96004095D01*
X97131142Y-95956476D01*
X96559714Y-97432666D02*
X97226380Y-97432666D01*
X96178761Y-97194571D02*
X96893047Y-96956476D01*
X96893047Y-97575523D01*
%TO.C,R33*%
X129674857Y-140025380D02*
X130008190Y-139549190D01*
X130246285Y-140025380D02*
X130246285Y-139025380D01*
X129865333Y-139025380D01*
X129770095Y-139073000D01*
X129722476Y-139120619D01*
X129674857Y-139215857D01*
X129674857Y-139358714D01*
X129722476Y-139453952D01*
X129770095Y-139501571D01*
X129865333Y-139549190D01*
X130246285Y-139549190D01*
X129341523Y-139025380D02*
X128722476Y-139025380D01*
X129055809Y-139406333D01*
X128912952Y-139406333D01*
X128817714Y-139453952D01*
X128770095Y-139501571D01*
X128722476Y-139596809D01*
X128722476Y-139834904D01*
X128770095Y-139930142D01*
X128817714Y-139977761D01*
X128912952Y-140025380D01*
X129198666Y-140025380D01*
X129293904Y-139977761D01*
X129341523Y-139930142D01*
X128389142Y-139025380D02*
X127770095Y-139025380D01*
X128103428Y-139406333D01*
X127960571Y-139406333D01*
X127865333Y-139453952D01*
X127817714Y-139501571D01*
X127770095Y-139596809D01*
X127770095Y-139834904D01*
X127817714Y-139930142D01*
X127865333Y-139977761D01*
X127960571Y-140025380D01*
X128246285Y-140025380D01*
X128341523Y-139977761D01*
X128389142Y-139930142D01*
%TO.C,C28*%
X159615142Y-107585142D02*
X159662761Y-107537523D01*
X159710380Y-107394666D01*
X159710380Y-107299428D01*
X159662761Y-107156571D01*
X159567523Y-107061333D01*
X159472285Y-107013714D01*
X159281809Y-106966095D01*
X159138952Y-106966095D01*
X158948476Y-107013714D01*
X158853238Y-107061333D01*
X158758000Y-107156571D01*
X158710380Y-107299428D01*
X158710380Y-107394666D01*
X158758000Y-107537523D01*
X158805619Y-107585142D01*
X158805619Y-107966095D02*
X158758000Y-108013714D01*
X158710380Y-108108952D01*
X158710380Y-108347047D01*
X158758000Y-108442285D01*
X158805619Y-108489904D01*
X158900857Y-108537523D01*
X158996095Y-108537523D01*
X159138952Y-108489904D01*
X159710380Y-107918476D01*
X159710380Y-108537523D01*
X159138952Y-109108952D02*
X159091333Y-109013714D01*
X159043714Y-108966095D01*
X158948476Y-108918476D01*
X158900857Y-108918476D01*
X158805619Y-108966095D01*
X158758000Y-109013714D01*
X158710380Y-109108952D01*
X158710380Y-109299428D01*
X158758000Y-109394666D01*
X158805619Y-109442285D01*
X158900857Y-109489904D01*
X158948476Y-109489904D01*
X159043714Y-109442285D01*
X159091333Y-109394666D01*
X159138952Y-109299428D01*
X159138952Y-109108952D01*
X159186571Y-109013714D01*
X159234190Y-108966095D01*
X159329428Y-108918476D01*
X159519904Y-108918476D01*
X159615142Y-108966095D01*
X159662761Y-109013714D01*
X159710380Y-109108952D01*
X159710380Y-109299428D01*
X159662761Y-109394666D01*
X159615142Y-109442285D01*
X159519904Y-109489904D01*
X159329428Y-109489904D01*
X159234190Y-109442285D01*
X159186571Y-109394666D01*
X159138952Y-109299428D01*
%TO.C,R50*%
X133421380Y-105529142D02*
X132945190Y-105195809D01*
X133421380Y-104957714D02*
X132421380Y-104957714D01*
X132421380Y-105338666D01*
X132469000Y-105433904D01*
X132516619Y-105481523D01*
X132611857Y-105529142D01*
X132754714Y-105529142D01*
X132849952Y-105481523D01*
X132897571Y-105433904D01*
X132945190Y-105338666D01*
X132945190Y-104957714D01*
X132421380Y-106433904D02*
X132421380Y-105957714D01*
X132897571Y-105910095D01*
X132849952Y-105957714D01*
X132802333Y-106052952D01*
X132802333Y-106291047D01*
X132849952Y-106386285D01*
X132897571Y-106433904D01*
X132992809Y-106481523D01*
X133230904Y-106481523D01*
X133326142Y-106433904D01*
X133373761Y-106386285D01*
X133421380Y-106291047D01*
X133421380Y-106052952D01*
X133373761Y-105957714D01*
X133326142Y-105910095D01*
X132421380Y-107100571D02*
X132421380Y-107195809D01*
X132469000Y-107291047D01*
X132516619Y-107338666D01*
X132611857Y-107386285D01*
X132802333Y-107433904D01*
X133040428Y-107433904D01*
X133230904Y-107386285D01*
X133326142Y-107338666D01*
X133373761Y-107291047D01*
X133421380Y-107195809D01*
X133421380Y-107100571D01*
X133373761Y-107005333D01*
X133326142Y-106957714D01*
X133230904Y-106910095D01*
X133040428Y-106862476D01*
X132802333Y-106862476D01*
X132611857Y-106910095D01*
X132516619Y-106957714D01*
X132469000Y-107005333D01*
X132421380Y-107100571D01*
%TO.C,C16*%
X123959857Y-131421142D02*
X124007476Y-131468761D01*
X124150333Y-131516380D01*
X124245571Y-131516380D01*
X124388428Y-131468761D01*
X124483666Y-131373523D01*
X124531285Y-131278285D01*
X124578904Y-131087809D01*
X124578904Y-130944952D01*
X124531285Y-130754476D01*
X124483666Y-130659238D01*
X124388428Y-130564000D01*
X124245571Y-130516380D01*
X124150333Y-130516380D01*
X124007476Y-130564000D01*
X123959857Y-130611619D01*
X123007476Y-131516380D02*
X123578904Y-131516380D01*
X123293190Y-131516380D02*
X123293190Y-130516380D01*
X123388428Y-130659238D01*
X123483666Y-130754476D01*
X123578904Y-130802095D01*
X122150333Y-130516380D02*
X122340809Y-130516380D01*
X122436047Y-130564000D01*
X122483666Y-130611619D01*
X122578904Y-130754476D01*
X122626523Y-130944952D01*
X122626523Y-131325904D01*
X122578904Y-131421142D01*
X122531285Y-131468761D01*
X122436047Y-131516380D01*
X122245571Y-131516380D01*
X122150333Y-131468761D01*
X122102714Y-131421142D01*
X122055095Y-131325904D01*
X122055095Y-131087809D01*
X122102714Y-130992571D01*
X122150333Y-130944952D01*
X122245571Y-130897333D01*
X122436047Y-130897333D01*
X122531285Y-130944952D01*
X122578904Y-130992571D01*
X122626523Y-131087809D01*
%TO.C,C19*%
X149201142Y-126992142D02*
X149248761Y-126944523D01*
X149296380Y-126801666D01*
X149296380Y-126706428D01*
X149248761Y-126563571D01*
X149153523Y-126468333D01*
X149058285Y-126420714D01*
X148867809Y-126373095D01*
X148724952Y-126373095D01*
X148534476Y-126420714D01*
X148439238Y-126468333D01*
X148344000Y-126563571D01*
X148296380Y-126706428D01*
X148296380Y-126801666D01*
X148344000Y-126944523D01*
X148391619Y-126992142D01*
X149296380Y-127944523D02*
X149296380Y-127373095D01*
X149296380Y-127658809D02*
X148296380Y-127658809D01*
X148439238Y-127563571D01*
X148534476Y-127468333D01*
X148582095Y-127373095D01*
X149296380Y-128420714D02*
X149296380Y-128611190D01*
X149248761Y-128706428D01*
X149201142Y-128754047D01*
X149058285Y-128849285D01*
X148867809Y-128896904D01*
X148486857Y-128896904D01*
X148391619Y-128849285D01*
X148344000Y-128801666D01*
X148296380Y-128706428D01*
X148296380Y-128515952D01*
X148344000Y-128420714D01*
X148391619Y-128373095D01*
X148486857Y-128325476D01*
X148724952Y-128325476D01*
X148820190Y-128373095D01*
X148867809Y-128420714D01*
X148915428Y-128515952D01*
X148915428Y-128706428D01*
X148867809Y-128801666D01*
X148820190Y-128849285D01*
X148724952Y-128896904D01*
%TO.C,C21*%
X151137857Y-133834142D02*
X151185476Y-133881761D01*
X151328333Y-133929380D01*
X151423571Y-133929380D01*
X151566428Y-133881761D01*
X151661666Y-133786523D01*
X151709285Y-133691285D01*
X151756904Y-133500809D01*
X151756904Y-133357952D01*
X151709285Y-133167476D01*
X151661666Y-133072238D01*
X151566428Y-132977000D01*
X151423571Y-132929380D01*
X151328333Y-132929380D01*
X151185476Y-132977000D01*
X151137857Y-133024619D01*
X150756904Y-133024619D02*
X150709285Y-132977000D01*
X150614047Y-132929380D01*
X150375952Y-132929380D01*
X150280714Y-132977000D01*
X150233095Y-133024619D01*
X150185476Y-133119857D01*
X150185476Y-133215095D01*
X150233095Y-133357952D01*
X150804523Y-133929380D01*
X150185476Y-133929380D01*
X149233095Y-133929380D02*
X149804523Y-133929380D01*
X149518809Y-133929380D02*
X149518809Y-132929380D01*
X149614047Y-133072238D01*
X149709285Y-133167476D01*
X149804523Y-133215095D01*
%TO.C,R40*%
X116047780Y-140581142D02*
X115571590Y-140247809D01*
X116047780Y-140009714D02*
X115047780Y-140009714D01*
X115047780Y-140390666D01*
X115095400Y-140485904D01*
X115143019Y-140533523D01*
X115238257Y-140581142D01*
X115381114Y-140581142D01*
X115476352Y-140533523D01*
X115523971Y-140485904D01*
X115571590Y-140390666D01*
X115571590Y-140009714D01*
X115381114Y-141438285D02*
X116047780Y-141438285D01*
X115000161Y-141200190D02*
X115714447Y-140962095D01*
X115714447Y-141581142D01*
X115047780Y-142152571D02*
X115047780Y-142247809D01*
X115095400Y-142343047D01*
X115143019Y-142390666D01*
X115238257Y-142438285D01*
X115428733Y-142485904D01*
X115666828Y-142485904D01*
X115857304Y-142438285D01*
X115952542Y-142390666D01*
X116000161Y-142343047D01*
X116047780Y-142247809D01*
X116047780Y-142152571D01*
X116000161Y-142057333D01*
X115952542Y-142009714D01*
X115857304Y-141962095D01*
X115666828Y-141914476D01*
X115428733Y-141914476D01*
X115238257Y-141962095D01*
X115143019Y-142009714D01*
X115095400Y-142057333D01*
X115047780Y-142152571D01*
%TO.C,N16*%
X138882380Y-75723904D02*
X137882380Y-75723904D01*
X138882380Y-76295333D01*
X137882380Y-76295333D01*
X138882380Y-77295333D02*
X138882380Y-76723904D01*
X138882380Y-77009619D02*
X137882380Y-77009619D01*
X138025238Y-76914380D01*
X138120476Y-76819142D01*
X138168095Y-76723904D01*
X137882380Y-78152476D02*
X137882380Y-77962000D01*
X137930000Y-77866761D01*
X137977619Y-77819142D01*
X138120476Y-77723904D01*
X138310952Y-77676285D01*
X138691904Y-77676285D01*
X138787142Y-77723904D01*
X138834761Y-77771523D01*
X138882380Y-77866761D01*
X138882380Y-78057238D01*
X138834761Y-78152476D01*
X138787142Y-78200095D01*
X138691904Y-78247714D01*
X138453809Y-78247714D01*
X138358571Y-78200095D01*
X138310952Y-78152476D01*
X138263333Y-78057238D01*
X138263333Y-77866761D01*
X138310952Y-77771523D01*
X138358571Y-77723904D01*
X138453809Y-77676285D01*
X131786380Y-85852000D02*
X132024476Y-85852000D01*
X131929238Y-85613904D02*
X132024476Y-85852000D01*
X131929238Y-86090095D01*
X132214952Y-85709142D02*
X132024476Y-85852000D01*
X132214952Y-85994857D01*
%TO.C,D8*%
X163115095Y-98241380D02*
X163115095Y-97241380D01*
X162877000Y-97241380D01*
X162734142Y-97289000D01*
X162638904Y-97384238D01*
X162591285Y-97479476D01*
X162543666Y-97669952D01*
X162543666Y-97812809D01*
X162591285Y-98003285D01*
X162638904Y-98098523D01*
X162734142Y-98193761D01*
X162877000Y-98241380D01*
X163115095Y-98241380D01*
X161972238Y-97669952D02*
X162067476Y-97622333D01*
X162115095Y-97574714D01*
X162162714Y-97479476D01*
X162162714Y-97431857D01*
X162115095Y-97336619D01*
X162067476Y-97289000D01*
X161972238Y-97241380D01*
X161781761Y-97241380D01*
X161686523Y-97289000D01*
X161638904Y-97336619D01*
X161591285Y-97431857D01*
X161591285Y-97479476D01*
X161638904Y-97574714D01*
X161686523Y-97622333D01*
X161781761Y-97669952D01*
X161972238Y-97669952D01*
X162067476Y-97717571D01*
X162115095Y-97765190D01*
X162162714Y-97860428D01*
X162162714Y-98050904D01*
X162115095Y-98146142D01*
X162067476Y-98193761D01*
X161972238Y-98241380D01*
X161781761Y-98241380D01*
X161686523Y-98193761D01*
X161638904Y-98146142D01*
X161591285Y-98050904D01*
X161591285Y-97860428D01*
X161638904Y-97765190D01*
X161686523Y-97717571D01*
X161781761Y-97669952D01*
%TO.C,J8*%
X164425380Y-127555666D02*
X165139666Y-127555666D01*
X165282523Y-127508047D01*
X165377761Y-127412809D01*
X165425380Y-127269952D01*
X165425380Y-127174714D01*
X164853952Y-128174714D02*
X164806333Y-128079476D01*
X164758714Y-128031857D01*
X164663476Y-127984238D01*
X164615857Y-127984238D01*
X164520619Y-128031857D01*
X164473000Y-128079476D01*
X164425380Y-128174714D01*
X164425380Y-128365190D01*
X164473000Y-128460428D01*
X164520619Y-128508047D01*
X164615857Y-128555666D01*
X164663476Y-128555666D01*
X164758714Y-128508047D01*
X164806333Y-128460428D01*
X164853952Y-128365190D01*
X164853952Y-128174714D01*
X164901571Y-128079476D01*
X164949190Y-128031857D01*
X165044428Y-127984238D01*
X165234904Y-127984238D01*
X165330142Y-128031857D01*
X165377761Y-128079476D01*
X165425380Y-128174714D01*
X165425380Y-128365190D01*
X165377761Y-128460428D01*
X165330142Y-128508047D01*
X165234904Y-128555666D01*
X165044428Y-128555666D01*
X164949190Y-128508047D01*
X164901571Y-128460428D01*
X164853952Y-128365190D01*
D10*
%TO.C,R39*%
X121057400Y-139726641D02*
X121057400Y-139419359D01*
X121817400Y-139726641D02*
X121817400Y-139419359D01*
%TO.C,CH4*%
X162921836Y-102031000D02*
X162706164Y-102031000D01*
X162921836Y-101311000D02*
X162706164Y-101311000D01*
D13*
%TO.C,FL2*%
X166795000Y-102815000D02*
X164410000Y-102815000D01*
X166440000Y-101035000D02*
X164410000Y-101035000D01*
D10*
%TO.C,U16*%
X126525600Y-105156000D02*
X126525600Y-101556000D01*
X131995600Y-105156000D02*
X131995600Y-107356000D01*
X126525600Y-105156000D02*
X126525600Y-107356000D01*
X131995600Y-105156000D02*
X131995600Y-102956000D01*
%TO.C,R25*%
X159384000Y-120295641D02*
X159384000Y-119988359D01*
X158624000Y-120295641D02*
X158624000Y-119988359D01*
%TO.C,C26*%
X164484164Y-125878000D02*
X164699836Y-125878000D01*
X164484164Y-126598000D02*
X164699836Y-126598000D01*
%TO.C,Y3*%
X127380000Y-131985000D02*
X127380000Y-135985000D01*
X124080000Y-131985000D02*
X127380000Y-131985000D01*
%TO.C,R46*%
X160300641Y-123316000D02*
X159993359Y-123316000D01*
X160300641Y-122556000D02*
X159993359Y-122556000D01*
%TO.C,R31*%
X129920000Y-136424641D02*
X129920000Y-136117359D01*
X129160000Y-136424641D02*
X129160000Y-136117359D01*
%TO.C,N12*%
X136779000Y-105054400D02*
X136779000Y-106324400D01*
X155067000Y-92100400D02*
X153797000Y-92100400D01*
X155067000Y-93370400D02*
X155067000Y-92100400D01*
X136779000Y-106324400D02*
X138049000Y-106324400D01*
X136779000Y-93370400D02*
X136779000Y-92100400D01*
X136779000Y-92100400D02*
X138049000Y-92100400D01*
X155067000Y-105054400D02*
X155067000Y-106324400D01*
X155067000Y-106324400D02*
X153797000Y-106324400D01*
%TO.C,R38*%
X117591541Y-139763500D02*
X117284259Y-139763500D01*
X117591541Y-140523500D02*
X117284259Y-140523500D01*
%TO.C,R42*%
X119914400Y-139419359D02*
X119914400Y-139726641D01*
X120674400Y-139419359D02*
X120674400Y-139726641D01*
%TO.C,U15*%
X127889000Y-119625800D02*
X130089000Y-119625800D01*
X127889000Y-114155800D02*
X131489000Y-114155800D01*
X127889000Y-114155800D02*
X125689000Y-114155800D01*
X127889000Y-119625800D02*
X125689000Y-119625800D01*
%TO.C,C18*%
X128037000Y-136163164D02*
X128037000Y-136378836D01*
X128757000Y-136163164D02*
X128757000Y-136378836D01*
%TO.C,C29*%
X155935000Y-133877164D02*
X155935000Y-134092836D01*
X155215000Y-133877164D02*
X155215000Y-134092836D01*
%TO.C,L2*%
X150516000Y-136705758D02*
X150516000Y-138376242D01*
X148696000Y-136705758D02*
X148696000Y-138376242D01*
%TO.C,R37*%
X117589541Y-143000000D02*
X117282259Y-143000000D01*
X117589541Y-142240000D02*
X117282259Y-142240000D01*
%TO.C,CH3*%
X166714164Y-103216000D02*
X166929836Y-103216000D01*
X166714164Y-103936000D02*
X166929836Y-103936000D01*
%TO.C,N13*%
X115062000Y-88265000D02*
X115062000Y-86995000D01*
X128016000Y-69977000D02*
X129286000Y-69977000D01*
X115062000Y-69977000D02*
X115062000Y-71247000D01*
X116332000Y-69977000D02*
X115062000Y-69977000D01*
X129286000Y-69977000D02*
X129286000Y-71247000D01*
X128016000Y-88265000D02*
X129286000Y-88265000D01*
X129286000Y-88265000D02*
X129286000Y-86995000D01*
X116332000Y-88265000D02*
X115062000Y-88265000D01*
%TO.C,R36*%
X130301000Y-141705359D02*
X130301000Y-142012641D01*
X129541000Y-141705359D02*
X129541000Y-142012641D01*
%TO.C,N10*%
X111582200Y-124663200D02*
X112852200Y-124663200D01*
X99898200Y-142951200D02*
X98628200Y-142951200D01*
X112852200Y-142951200D02*
X112852200Y-141681200D01*
X111582200Y-142951200D02*
X112852200Y-142951200D01*
X98628200Y-142951200D02*
X98628200Y-141681200D01*
X99898200Y-124663200D02*
X98628200Y-124663200D01*
X112852200Y-124663200D02*
X112852200Y-125933200D01*
X98628200Y-124663200D02*
X98628200Y-125933200D01*
%TO.C,R48*%
X157379641Y-133224000D02*
X157072359Y-133224000D01*
X157379641Y-133984000D02*
X157072359Y-133984000D01*
%TO.C,C25*%
X164699836Y-120544000D02*
X164484164Y-120544000D01*
X164699836Y-121264000D02*
X164484164Y-121264000D01*
D11*
%TO.C,U9*%
X132144000Y-125921000D02*
X132819000Y-125921000D01*
X132144000Y-140271000D02*
X132819000Y-140271000D01*
X146494000Y-125921000D02*
X145819000Y-125921000D01*
X132144000Y-125921000D02*
X132144000Y-126596000D01*
X146494000Y-125921000D02*
X146494000Y-126596000D01*
X146494000Y-140271000D02*
X146494000Y-139596000D01*
X132144000Y-140271000D02*
X132144000Y-139596000D01*
X145919000Y-140271000D02*
X145919000Y-141546000D01*
X146494000Y-140271000D02*
X145919000Y-140271000D01*
D10*
%TO.C,C23*%
X119645820Y-130493500D02*
X119926980Y-130493500D01*
X119645820Y-129473500D02*
X119926980Y-129473500D01*
%TO.C,R47*%
X157072359Y-132841000D02*
X157379641Y-132841000D01*
X157072359Y-132081000D02*
X157379641Y-132081000D01*
%TO.C,R35*%
X95630000Y-102896641D02*
X95630000Y-102589359D01*
X94870000Y-102896641D02*
X94870000Y-102589359D01*
%TO.C,R32*%
X128271000Y-133323359D02*
X128271000Y-133630641D01*
X129031000Y-133323359D02*
X129031000Y-133630641D01*
%TO.C,U13*%
X154857000Y-127381000D02*
X154857000Y-123781000D01*
X154857000Y-127381000D02*
X154857000Y-129581000D01*
X161627000Y-127381000D02*
X161627000Y-129581000D01*
X161627000Y-127381000D02*
X161627000Y-125181000D01*
%TO.C,G\u002A\u002A\u002A*%
G36*
X128057811Y-124834107D02*
G01*
X127912002Y-124728842D01*
X127750147Y-124611441D01*
X127680748Y-124561924D01*
X127549970Y-124480737D01*
X127424106Y-124430920D01*
X127267608Y-124400727D01*
X127044928Y-124378411D01*
X126930561Y-124370360D01*
X126627448Y-124368463D01*
X126412296Y-124401568D01*
X126389540Y-124407583D01*
X126244236Y-124433606D01*
X126028861Y-124461195D01*
X125768604Y-124487411D01*
X125488657Y-124509316D01*
X125144919Y-124533302D01*
X124708218Y-124568554D01*
X124353638Y-124604911D01*
X124069400Y-124644437D01*
X123843726Y-124689197D01*
X123664836Y-124741259D01*
X123520953Y-124802686D01*
X123400298Y-124875546D01*
X123341320Y-124925661D01*
X123210903Y-125074257D01*
X123073550Y-125266695D01*
X122951375Y-125470720D01*
X122866490Y-125654081D01*
X122811438Y-125805843D01*
X122807419Y-125638961D01*
X122829150Y-125496405D01*
X122900489Y-125295235D01*
X123004602Y-125083252D01*
X123123999Y-124895600D01*
X123241189Y-124767421D01*
X123271647Y-124744721D01*
X123402012Y-124670371D01*
X123571050Y-124608216D01*
X123791386Y-124555665D01*
X124075646Y-124510127D01*
X124436455Y-124469010D01*
X124886440Y-124429722D01*
X125196486Y-124404580D01*
X125534755Y-124375588D01*
X125846161Y-124347377D01*
X125927755Y-124339467D01*
X127708922Y-124339467D01*
X127776404Y-124412211D01*
X127933063Y-124527741D01*
X128224443Y-124725791D01*
X128015024Y-124509952D01*
X127918877Y-124420236D01*
X127801993Y-124336686D01*
X127723644Y-124311902D01*
X127708922Y-124339467D01*
X125927755Y-124339467D01*
X126105818Y-124322205D01*
X126288839Y-124302335D01*
X126485888Y-124284283D01*
X126762098Y-124268224D01*
X127068096Y-124257343D01*
X127366536Y-124253338D01*
X128038354Y-124253338D01*
X128220069Y-124465632D01*
X128322417Y-124593350D01*
X128426224Y-124755948D01*
X128501924Y-124932266D01*
X128553589Y-125139862D01*
X128585290Y-125396292D01*
X128601099Y-125719115D01*
X128605089Y-126125889D01*
X128602327Y-126448967D01*
X128590589Y-126768396D01*
X128566375Y-127013531D01*
X128526191Y-127199476D01*
X128466543Y-127341338D01*
X128444766Y-127371097D01*
X128383936Y-127454222D01*
X128274875Y-127553231D01*
X128263581Y-127562000D01*
X128209759Y-127597986D01*
X128146110Y-127624326D01*
X128057305Y-127642517D01*
X127928015Y-127654058D01*
X127742911Y-127660446D01*
X127486663Y-127663181D01*
X127143944Y-127663759D01*
X126806181Y-127664441D01*
X126546818Y-127667447D01*
X126359271Y-127674155D01*
X126228383Y-127685943D01*
X126138997Y-127704188D01*
X126075956Y-127730269D01*
X126024104Y-127765563D01*
X125892527Y-127834344D01*
X125736115Y-127864373D01*
X125644245Y-127859889D01*
X125618570Y-127842442D01*
X125673446Y-127800746D01*
X125734387Y-127760896D01*
X125906148Y-127628522D01*
X126007404Y-127514459D01*
X126026977Y-127430414D01*
X126009705Y-127397223D01*
X125896195Y-127301894D01*
X125718912Y-127237861D01*
X125504724Y-127209450D01*
X125280501Y-127220988D01*
X125073110Y-127276802D01*
X124973840Y-127323069D01*
X124879977Y-127400978D01*
X124872565Y-127498940D01*
X124942989Y-127641079D01*
X124999696Y-127725031D01*
X125064486Y-127780887D01*
X125121398Y-127763932D01*
X125126485Y-127759999D01*
X125226610Y-127726987D01*
X125358002Y-127726046D01*
X125476937Y-127753017D01*
X125539695Y-127803739D01*
X125540619Y-127807022D01*
X125516934Y-127842249D01*
X125417014Y-127861513D01*
X125228365Y-127867366D01*
X125159565Y-127866852D01*
X124991009Y-127856202D01*
X124889716Y-127827099D01*
X124829634Y-127773405D01*
X124814946Y-127755663D01*
X124734804Y-127706086D01*
X124593863Y-127670890D01*
X124371641Y-127644301D01*
X124257747Y-127632795D01*
X123795883Y-127553134D01*
X123423341Y-127427967D01*
X123138312Y-127256530D01*
X122938988Y-127038059D01*
X122835112Y-126824213D01*
X122805782Y-126597358D01*
X122808163Y-126365763D01*
X122899083Y-126598108D01*
X122943815Y-126704741D01*
X123092921Y-126962237D01*
X123288242Y-127157182D01*
X123556112Y-127318449D01*
X123783883Y-127416176D01*
X124005110Y-127472549D01*
X124271981Y-127500123D01*
X124423893Y-127508267D01*
X124564275Y-127509637D01*
X124645238Y-127493953D01*
X124691286Y-127455125D01*
X124726919Y-127387066D01*
X124775229Y-127312547D01*
X124935638Y-127195796D01*
X125172971Y-127121445D01*
X125474896Y-127094319D01*
X125647286Y-127102110D01*
X125888893Y-127153482D01*
X126057528Y-127248554D01*
X126141651Y-127382341D01*
X126154885Y-127426479D01*
X126179552Y-127460511D01*
X126230133Y-127484287D01*
X126321796Y-127500413D01*
X126469714Y-127511496D01*
X126689057Y-127520142D01*
X126994994Y-127528957D01*
X127170838Y-127533915D01*
X127441031Y-127541980D01*
X127669035Y-127549332D01*
X127834988Y-127555320D01*
X127919032Y-127559290D01*
X127946957Y-127557028D01*
X128056376Y-127501323D01*
X128171993Y-127395950D01*
X128263552Y-127272387D01*
X128300796Y-127162115D01*
X128283885Y-127109961D01*
X128208136Y-126999327D01*
X128092166Y-126876259D01*
X128029148Y-126816498D01*
X127939022Y-126713416D01*
X127906036Y-126626687D01*
X127911676Y-126555077D01*
X128047559Y-126555077D01*
X128066690Y-126580801D01*
X128139117Y-126662909D01*
X128246799Y-126779050D01*
X128444766Y-126988729D01*
X128500035Y-126769235D01*
X128512199Y-126714762D01*
X128542976Y-126505246D01*
X128555305Y-126298662D01*
X128555305Y-126047582D01*
X128300796Y-126294183D01*
X128292981Y-126301762D01*
X128168587Y-126424566D01*
X128080575Y-126515396D01*
X128047559Y-126555077D01*
X127911676Y-126555077D01*
X127914084Y-126524495D01*
X127922074Y-126493824D01*
X128003942Y-126342045D01*
X128143520Y-126187607D01*
X128212226Y-126122611D01*
X128327925Y-125996839D01*
X128397954Y-125898268D01*
X128444266Y-125731738D01*
X128440075Y-125499497D01*
X128382106Y-125259016D01*
X128279333Y-125045346D01*
X128224443Y-124985228D01*
X128140729Y-124893541D01*
X128057811Y-124834107D01*
G37*
G36*
X125068209Y-125261301D02*
G01*
X124970363Y-125191386D01*
X124912918Y-125108172D01*
X124909047Y-125042316D01*
X125093982Y-125042316D01*
X125119433Y-125067767D01*
X125144884Y-125042316D01*
X125119433Y-125016865D01*
X125093982Y-125042316D01*
X124909047Y-125042316D01*
X124905994Y-124990376D01*
X124978879Y-124900155D01*
X125119433Y-124864160D01*
X125168848Y-124868708D01*
X125282717Y-124925325D01*
X125341667Y-125022784D01*
X125334504Y-125130698D01*
X125250034Y-125218682D01*
X125171796Y-125254847D01*
X125119433Y-125258109D01*
X125068209Y-125261301D01*
G37*
G36*
X123705188Y-127230134D02*
G01*
X123459785Y-127091023D01*
X123281419Y-126935824D01*
X123232062Y-126871560D01*
X123121793Y-126700115D01*
X123025058Y-126518469D01*
X122981566Y-126415752D01*
X122909348Y-126108272D01*
X122924308Y-125937020D01*
X123057213Y-125937020D01*
X123057990Y-126116794D01*
X123129912Y-126329253D01*
X123272943Y-126594497D01*
X123305400Y-126646763D01*
X123484422Y-126866877D01*
X123717706Y-127039888D01*
X123756324Y-127062572D01*
X123948250Y-127160693D01*
X124083857Y-127203417D01*
X124154499Y-127189217D01*
X124151529Y-127116565D01*
X124141129Y-127090604D01*
X124083616Y-126890618D01*
X124047579Y-126637391D01*
X124031488Y-126315206D01*
X124033811Y-125908344D01*
X124035352Y-125836692D01*
X124037404Y-125594817D01*
X124034216Y-125399133D01*
X124026315Y-125268155D01*
X124014228Y-125220400D01*
X123913552Y-125240080D01*
X123747088Y-125303731D01*
X123561995Y-125394710D01*
X123392978Y-125495702D01*
X123274744Y-125589387D01*
X123269236Y-125595119D01*
X123127616Y-125769829D01*
X123057213Y-125937020D01*
X122924308Y-125937020D01*
X122933940Y-125826753D01*
X123054431Y-125575510D01*
X123269909Y-125358856D01*
X123306037Y-125333040D01*
X123472842Y-125238341D01*
X123661020Y-125160255D01*
X123851421Y-125102722D01*
X124024899Y-125069676D01*
X124162306Y-125065057D01*
X124244495Y-125092801D01*
X124252316Y-125156845D01*
X124244651Y-125176440D01*
X124204099Y-125339728D01*
X124171189Y-125567177D01*
X124148821Y-125826824D01*
X124139892Y-126086706D01*
X124147302Y-126314861D01*
X124172143Y-126552078D01*
X124222985Y-126820612D01*
X124299843Y-127037735D01*
X124411082Y-127232550D01*
X124541156Y-127424225D01*
X124263561Y-127395575D01*
X124258040Y-127394991D01*
X124083857Y-127358209D01*
X123982862Y-127336882D01*
X123705188Y-127230134D01*
G37*
G36*
X125223417Y-125736087D02*
G01*
X124997546Y-125695767D01*
X124793351Y-125586799D01*
X124633805Y-125408883D01*
X124597554Y-125344108D01*
X124538583Y-125148209D01*
X124551800Y-125080243D01*
X124699484Y-125080243D01*
X124707383Y-125203557D01*
X124797118Y-125347031D01*
X124841580Y-125399300D01*
X125030538Y-125544074D01*
X125232998Y-125591497D01*
X125436954Y-125540925D01*
X125630401Y-125391715D01*
X125700606Y-125295197D01*
X125752064Y-125113886D01*
X125716942Y-124937585D01*
X125602092Y-124788575D01*
X125414366Y-124689137D01*
X125283709Y-124678533D01*
X125094476Y-124719559D01*
X124913939Y-124805068D01*
X124785684Y-124919116D01*
X124772382Y-124938126D01*
X124699484Y-125080243D01*
X124551800Y-125080243D01*
X124574181Y-124965148D01*
X124706486Y-124776322D01*
X124735334Y-124745167D01*
X124827774Y-124657712D01*
X124919877Y-124607883D01*
X125045681Y-124582358D01*
X125239224Y-124567816D01*
X125321791Y-124563393D01*
X125483155Y-124560491D01*
X125587471Y-124577006D01*
X125666993Y-124621340D01*
X125753975Y-124701893D01*
X125772860Y-124721648D01*
X125886688Y-124916263D01*
X125906460Y-125142906D01*
X125831236Y-125393173D01*
X125801367Y-125448177D01*
X125648301Y-125611990D01*
X125447993Y-125708061D01*
X125232998Y-125734891D01*
X125223417Y-125736087D01*
G37*
D13*
%TO.C,D6*%
X131040000Y-142367000D02*
G75*
G03*
X131040000Y-142367000I-50000J0D01*
G01*
D10*
%TO.C,N9*%
X117932200Y-103378000D02*
X117932200Y-104648000D01*
X99644200Y-104648000D02*
X100914200Y-104648000D01*
X117932200Y-104648000D02*
X116662200Y-104648000D01*
X99644200Y-90424000D02*
X100914200Y-90424000D01*
X99644200Y-91694000D02*
X99644200Y-90424000D01*
X117932200Y-91694000D02*
X117932200Y-90424000D01*
X117932200Y-90424000D02*
X116662200Y-90424000D01*
X99644200Y-103378000D02*
X99644200Y-104648000D01*
%TO.C,R43*%
X160654000Y-119988359D02*
X160654000Y-120295641D01*
X159894000Y-119988359D02*
X159894000Y-120295641D01*
%TO.C,CL3*%
X164897836Y-103216000D02*
X164682164Y-103216000D01*
X164897836Y-103936000D02*
X164682164Y-103936000D01*
%TO.C,CL4*%
X167913164Y-101904000D02*
X168128836Y-101904000D01*
X167913164Y-101184000D02*
X168128836Y-101184000D01*
%TO.C,U10*%
X121257400Y-124832000D02*
X119947400Y-124832000D01*
X121027400Y-128692000D02*
X121027400Y-127552000D01*
X121257400Y-127552000D02*
X121257400Y-124832000D01*
X116537400Y-124832000D02*
X116537400Y-127552000D01*
X121257400Y-127552000D02*
X121027400Y-127552000D01*
X116537400Y-127552000D02*
X116767400Y-127552000D01*
X117847400Y-124832000D02*
X116537400Y-124832000D01*
%TO.C,U11*%
X120949400Y-134655000D02*
X120949400Y-138105000D01*
X115829400Y-134655000D02*
X115829400Y-136605000D01*
X120949400Y-134655000D02*
X120949400Y-132705000D01*
X115829400Y-134655000D02*
X115829400Y-132705000D01*
%TO.C,C17*%
X125622164Y-136419000D02*
X125837836Y-136419000D01*
X125622164Y-137139000D02*
X125837836Y-137139000D01*
%TO.C,D9*%
X166459800Y-100153600D02*
X166459800Y-97603600D01*
X168159800Y-100153600D02*
X166459800Y-100153600D01*
X168159800Y-100153600D02*
X168159800Y-97603600D01*
%TO.C,R41*%
X117284259Y-139380500D02*
X117591541Y-139380500D01*
X117284259Y-138620500D02*
X117591541Y-138620500D01*
%TO.C,N11*%
X155016200Y-121462800D02*
X153746200Y-121462800D01*
X155016200Y-107238800D02*
X153746200Y-107238800D01*
X155016200Y-120192800D02*
X155016200Y-121462800D01*
X136728200Y-121462800D02*
X137998200Y-121462800D01*
X136728200Y-107238800D02*
X137998200Y-107238800D01*
X136728200Y-108508800D02*
X136728200Y-107238800D01*
X136728200Y-120192800D02*
X136728200Y-121462800D01*
X155016200Y-108508800D02*
X155016200Y-107238800D01*
%TO.C,C22*%
X116816480Y-130493500D02*
X116535320Y-130493500D01*
X116816480Y-129473500D02*
X116535320Y-129473500D01*
%TO.C,N14*%
X160528000Y-87249000D02*
X161798000Y-87249000D01*
X147574000Y-87249000D02*
X147574000Y-85979000D01*
X161798000Y-68961000D02*
X161798000Y-70231000D01*
X148844000Y-87249000D02*
X147574000Y-87249000D01*
X160528000Y-68961000D02*
X161798000Y-68961000D01*
X148844000Y-68961000D02*
X147574000Y-68961000D01*
X147574000Y-68961000D02*
X147574000Y-70231000D01*
X161798000Y-87249000D02*
X161798000Y-85979000D01*
%TO.C,C30*%
X165658000Y-112866164D02*
X165658000Y-113081836D01*
X164938000Y-112866164D02*
X164938000Y-113081836D01*
%TO.C,C20*%
X149498164Y-140229000D02*
X149713836Y-140229000D01*
X149498164Y-140949000D02*
X149713836Y-140949000D01*
%TO.C,R49*%
X132589000Y-118771641D02*
X132589000Y-118464359D01*
X133349000Y-118771641D02*
X133349000Y-118464359D01*
%TO.C,N15*%
X99593400Y-105308400D02*
X100863400Y-105308400D01*
X99593400Y-119532400D02*
X100863400Y-119532400D01*
X117881400Y-105308400D02*
X116611400Y-105308400D01*
X99593400Y-106578400D02*
X99593400Y-105308400D01*
X117881400Y-118262400D02*
X117881400Y-119532400D01*
X117881400Y-119532400D02*
X116611400Y-119532400D01*
X117881400Y-106578400D02*
X117881400Y-105308400D01*
X99593400Y-118262400D02*
X99593400Y-119532400D01*
%TO.C,U14*%
X163373000Y-108148000D02*
X163373000Y-110098000D01*
X168493000Y-108148000D02*
X168493000Y-111598000D01*
X168493000Y-108148000D02*
X168493000Y-106198000D01*
X163373000Y-108148000D02*
X163373000Y-106198000D01*
%TO.C,C27*%
X153691000Y-129802836D02*
X153691000Y-129587164D01*
X154411000Y-129802836D02*
X154411000Y-129587164D01*
%TO.C,Y4*%
X162942000Y-125571000D02*
X162942000Y-121571000D01*
X166242000Y-125571000D02*
X162942000Y-125571000D01*
%TO.C,R34*%
X97154000Y-98652359D02*
X97154000Y-98959641D01*
X96394000Y-98652359D02*
X96394000Y-98959641D01*
%TO.C,R33*%
X129566641Y-138683000D02*
X129259359Y-138683000D01*
X129566641Y-137923000D02*
X129259359Y-137923000D01*
%TO.C,C28*%
X162477000Y-107966748D02*
X162477000Y-108489252D01*
X161007000Y-107966748D02*
X161007000Y-108489252D01*
%TO.C,R50*%
X132462000Y-103605359D02*
X132462000Y-103912641D01*
X133222000Y-103605359D02*
X133222000Y-103912641D01*
%TO.C,C16*%
X125837836Y-131551000D02*
X125622164Y-131551000D01*
X125837836Y-130831000D02*
X125622164Y-130831000D01*
%TO.C,C19*%
X148357000Y-129940164D02*
X148357000Y-130155836D01*
X149077000Y-129940164D02*
X149077000Y-130155836D01*
%TO.C,C21*%
X151230000Y-130675748D02*
X151230000Y-131198252D01*
X149760000Y-130675748D02*
X149760000Y-131198252D01*
%TO.C,R40*%
X117282259Y-141097000D02*
X117589541Y-141097000D01*
X117282259Y-141857000D02*
X117589541Y-141857000D01*
%TO.C,N16*%
X132842000Y-68580000D02*
X131572000Y-68580000D01*
X145796000Y-68580000D02*
X145796000Y-69850000D01*
X132842000Y-86868000D02*
X131572000Y-86868000D01*
X145796000Y-86868000D02*
X145796000Y-85598000D01*
X131572000Y-68580000D02*
X131572000Y-69850000D01*
X131572000Y-86868000D02*
X131572000Y-85598000D01*
X144526000Y-86868000D02*
X145796000Y-86868000D01*
X144526000Y-68580000D02*
X145796000Y-68580000D01*
%TO.C,D8*%
X163877000Y-98789000D02*
X163877000Y-100489000D01*
X163877000Y-100489000D02*
X161327000Y-100489000D01*
X163877000Y-98789000D02*
X161327000Y-98789000D01*
%TO.C,J8*%
X163835000Y-130006000D02*
X163835000Y-131331000D01*
X167635000Y-134861000D02*
X167700000Y-134861000D01*
X163770000Y-131331000D02*
X163835000Y-131331000D01*
X167635000Y-131331000D02*
X167700000Y-131331000D01*
X163770000Y-134861000D02*
X163835000Y-134861000D01*
X167700000Y-131331000D02*
X167700000Y-134861000D01*
X163770000Y-131331000D02*
X163770000Y-134861000D01*
%TD*%
M02*
