%TF.GenerationSoftware,KiCad,Pcbnew,(6.0.0-rc1-310-gf24bdf4067)*%
%TF.CreationDate,2021-12-08T00:21:50+09:00*%
%TF.ProjectId,ykts-mcu-node,796b7473-2d6d-4637-952d-6e6f64652e6b,rev?*%
%TF.SameCoordinates,Original*%
%TF.FileFunction,Paste,Top*%
%TF.FilePolarity,Positive*%
%FSLAX46Y46*%
G04 Gerber Fmt 4.6, Leading zero omitted, Abs format (unit mm)*
G04 Created by KiCad (PCBNEW (6.0.0-rc1-310-gf24bdf4067)) date 2021-12-08 00:21:50*
%MOMM*%
%LPD*%
G01*
G04 APERTURE LIST*
G04 Aperture macros list*
%AMRoundRect*
0 Rectangle with rounded corners*
0 $1 Rounding radius*
0 $2 $3 $4 $5 $6 $7 $8 $9 X,Y pos of 4 corners*
0 Add a 4 corners polygon primitive as box body*
4,1,4,$2,$3,$4,$5,$6,$7,$8,$9,$2,$3,0*
0 Add four circle primitives for the rounded corners*
1,1,$1+$1,$2,$3*
1,1,$1+$1,$4,$5*
1,1,$1+$1,$6,$7*
1,1,$1+$1,$8,$9*
0 Add four rect primitives between the rounded corners*
20,1,$1+$1,$2,$3,$4,$5,0*
20,1,$1+$1,$4,$5,$6,$7,0*
20,1,$1+$1,$6,$7,$8,$9,0*
20,1,$1+$1,$8,$9,$2,$3,0*%
G04 Aperture macros list end*
%ADD10RoundRect,0.225000X0.225000X0.250000X-0.225000X0.250000X-0.225000X-0.250000X0.225000X-0.250000X0*%
%ADD11RoundRect,0.140000X0.140000X0.170000X-0.140000X0.170000X-0.140000X-0.170000X0.140000X-0.170000X0*%
%ADD12RoundRect,0.140000X0.170000X-0.140000X0.170000X0.140000X-0.170000X0.140000X-0.170000X-0.140000X0*%
%ADD13RoundRect,0.147500X0.147500X0.172500X-0.147500X0.172500X-0.147500X-0.172500X0.147500X-0.172500X0*%
%ADD14R,0.850000X1.700000*%
%ADD15RoundRect,0.135000X0.185000X-0.135000X0.185000X0.135000X-0.185000X0.135000X-0.185000X-0.135000X0*%
%ADD16R,0.650000X1.060000*%
%ADD17RoundRect,0.207500X0.207500X-0.207500X0.207500X0.207500X-0.207500X0.207500X-0.207500X-0.207500X0*%
%ADD18RoundRect,0.062500X0.062500X-0.375000X0.062500X0.375000X-0.062500X0.375000X-0.062500X-0.375000X0*%
%ADD19RoundRect,0.062500X0.375000X-0.062500X0.375000X0.062500X-0.375000X0.062500X-0.375000X-0.062500X0*%
%ADD20R,1.400000X1.200000*%
%ADD21RoundRect,0.140000X-0.170000X0.140000X-0.170000X-0.140000X0.170000X-0.140000X0.170000X0.140000X0*%
%ADD22R,1.000000X1.700000*%
%ADD23RoundRect,0.135000X-0.135000X-0.185000X0.135000X-0.185000X0.135000X0.185000X-0.135000X0.185000X0*%
%ADD24R,0.700000X0.450000*%
G04 APERTURE END LIST*
D10*
%TO.C,C1*%
X117107000Y-78740000D03*
X115557000Y-78740000D03*
%TD*%
D11*
%TO.C,C2*%
X109319000Y-78167000D03*
X108359000Y-78167000D03*
%TD*%
D12*
%TO.C,C4*%
X104394000Y-88299000D03*
X104394000Y-87339000D03*
%TD*%
D13*
%TO.C,D1*%
X116055000Y-84328000D03*
X115085000Y-84328000D03*
%TD*%
D14*
%TO.C,J2*%
X102533000Y-84836000D03*
%TD*%
%TO.C,J3*%
X102533000Y-82296000D03*
%TD*%
%TO.C,J5*%
X119463000Y-87376000D03*
%TD*%
%TO.C,J6*%
X119463000Y-84836000D03*
%TD*%
%TO.C,J7*%
X119463000Y-82296000D03*
%TD*%
%TO.C,J8*%
X119463000Y-79756000D03*
%TD*%
D15*
%TO.C,R1*%
X103886000Y-82552000D03*
X103886000Y-81532000D03*
%TD*%
%TO.C,R4*%
X117348000Y-85346000D03*
X117348000Y-84326000D03*
%TD*%
D16*
%TO.C,SW1*%
X115382000Y-82888000D03*
X116332000Y-82888000D03*
X117282000Y-82888000D03*
X117282000Y-80688000D03*
X116332000Y-80688000D03*
X115382000Y-80688000D03*
%TD*%
D17*
%TO.C,U1*%
X108562000Y-83201000D03*
X107532000Y-82171000D03*
X107532000Y-81141000D03*
X109592000Y-81141000D03*
X109592000Y-83201000D03*
X109592000Y-82171000D03*
X107532000Y-83201000D03*
X108562000Y-82171000D03*
X108562000Y-81141000D03*
D18*
X106812000Y-84608500D03*
X107312000Y-84608500D03*
X107812000Y-84608500D03*
X108312000Y-84608500D03*
X108812000Y-84608500D03*
X109312000Y-84608500D03*
X109812000Y-84608500D03*
X110312000Y-84608500D03*
D19*
X110999500Y-83921000D03*
X110999500Y-83421000D03*
X110999500Y-82921000D03*
X110999500Y-82421000D03*
X110999500Y-81921000D03*
X110999500Y-81421000D03*
X110999500Y-80921000D03*
X110999500Y-80421000D03*
D18*
X110312000Y-79733500D03*
X109812000Y-79733500D03*
X109312000Y-79733500D03*
X108812000Y-79733500D03*
X108312000Y-79733500D03*
X107812000Y-79733500D03*
X107312000Y-79733500D03*
X106812000Y-79733500D03*
D19*
X106124500Y-80421000D03*
X106124500Y-80921000D03*
X106124500Y-81421000D03*
X106124500Y-81921000D03*
X106124500Y-82421000D03*
X106124500Y-82921000D03*
X106124500Y-83421000D03*
X106124500Y-83921000D03*
%TD*%
D20*
%TO.C,Y1*%
X106088000Y-88669000D03*
X108288000Y-88669000D03*
X108288000Y-86969000D03*
X106088000Y-86969000D03*
%TD*%
D14*
%TO.C,J4*%
X102533000Y-79756000D03*
%TD*%
D21*
%TO.C,C3*%
X109982000Y-86831000D03*
X109982000Y-87791000D03*
%TD*%
D22*
%TO.C,J1*%
X102608000Y-87376000D03*
%TD*%
D23*
%TO.C,R2*%
X115314000Y-86106000D03*
X116334000Y-86106000D03*
%TD*%
D24*
%TO.C,Q2*%
X111776000Y-87488000D03*
X111776000Y-88788000D03*
X113776000Y-88138000D03*
%TD*%
%TO.C,Q1*%
X115586000Y-87488000D03*
X115586000Y-88788000D03*
X117586000Y-88138000D03*
%TD*%
D23*
%TO.C,R3*%
X111504000Y-86106000D03*
X112524000Y-86106000D03*
%TD*%
M02*
