%TF.GenerationSoftware,KiCad,Pcbnew,(6.0.0-rc1-310-gf24bdf4067)*%
%TF.CreationDate,2021-12-08T00:21:50+09:00*%
%TF.ProjectId,ykts-mcu-node,796b7473-2d6d-4637-952d-6e6f64652e6b,rev?*%
%TF.SameCoordinates,Original*%
%TF.FileFunction,Copper,L2,Bot*%
%TF.FilePolarity,Positive*%
%FSLAX46Y46*%
G04 Gerber Fmt 4.6, Leading zero omitted, Abs format (unit mm)*
G04 Created by KiCad (PCBNEW (6.0.0-rc1-310-gf24bdf4067)) date 2021-12-08 00:21:50*
%MOMM*%
%LPD*%
G01*
G04 APERTURE LIST*
%TA.AperFunction,ComponentPad*%
%ADD10C,1.003000*%
%TD*%
%TA.AperFunction,SMDPad,CuDef*%
%ADD11R,0.850000X1.700000*%
%TD*%
%TA.AperFunction,SMDPad,CuDef*%
%ADD12R,1.000000X1.700000*%
%TD*%
%TA.AperFunction,ViaPad*%
%ADD13C,0.600000*%
%TD*%
%TA.AperFunction,Conductor*%
%ADD14C,0.250000*%
%TD*%
%TA.AperFunction,Conductor*%
%ADD15C,0.200000*%
%TD*%
G04 APERTURE END LIST*
D10*
%TO.P,J2,1,1*%
%TO.N,/UART0_RX*%
X102108000Y-84836000D03*
D11*
X102533000Y-84836000D03*
%TD*%
D10*
%TO.P,J3,1,1*%
%TO.N,/ISP_RESET*%
X102108000Y-82296000D03*
D11*
X102533000Y-82296000D03*
%TD*%
%TO.P,J5,1,1*%
%TO.N,/SDA*%
X119463000Y-87376000D03*
D10*
X119888000Y-87376000D03*
%TD*%
%TO.P,J6,1,1*%
%TO.N,/SCL*%
X119888000Y-84836000D03*
D11*
X119463000Y-84836000D03*
%TD*%
%TO.P,J7,1,1*%
%TO.N,+5V*%
X119463000Y-82296000D03*
D10*
X119888000Y-82296000D03*
%TD*%
D11*
%TO.P,J8,1,1*%
%TO.N,GND*%
X119463000Y-79756000D03*
D10*
X119888000Y-79756000D03*
%TD*%
%TO.P,J4,1,1*%
%TO.N,/PWEN*%
X102108000Y-79756000D03*
D11*
X102533000Y-79756000D03*
%TD*%
D12*
%TO.P,J1,1,1*%
%TO.N,/UART0_TX*%
X102608000Y-87376000D03*
D10*
X102108000Y-87376000D03*
%TD*%
D13*
%TO.N,GND*%
X103632000Y-77659000D03*
X118364000Y-77978000D03*
X108572500Y-82181500D03*
X103505000Y-89281000D03*
X103632000Y-85533000D03*
X114046000Y-82042000D03*
X110236000Y-78232000D03*
X114046000Y-79756000D03*
X105791000Y-84963000D03*
X118364000Y-83566000D03*
X118237000Y-89281000D03*
X110363000Y-89027000D03*
X113792000Y-86106000D03*
X115824000Y-77724000D03*
X106934000Y-78421000D03*
%TO.N,Net-(C2-Pad1)*%
X111252000Y-84673500D03*
X106680000Y-85598000D03*
%TO.N,/PWEN*%
X117348000Y-79756000D03*
X104351089Y-79205089D03*
%TO.N,Net-(Q1-Pad1)*%
X114808000Y-85344000D03*
X105918000Y-79502000D03*
%TO.N,Net-(Q2-Pad1)*%
X104902000Y-81534000D03*
X111870265Y-85180404D03*
%TD*%
D14*
%TO.N,Net-(C2-Pad1)*%
X111252000Y-84673500D02*
X110327500Y-85598000D01*
X110327500Y-85598000D02*
X106680000Y-85598000D01*
D15*
%TO.N,/PWEN*%
X104886851Y-78669327D02*
X106334489Y-78669327D01*
X106685673Y-79020511D02*
X116612511Y-79020511D01*
X116612511Y-79020511D02*
X117348000Y-79756000D01*
X104351089Y-79205089D02*
X104886851Y-78669327D01*
X106334489Y-78669327D02*
X106685673Y-79020511D01*
%TO.N,Net-(Q1-Pad1)*%
X108966000Y-79502000D02*
X114808000Y-85344000D01*
X105918000Y-79502000D02*
X108966000Y-79502000D01*
%TO.N,Net-(Q2-Pad1)*%
X104648000Y-83312000D02*
X105410000Y-83312000D01*
X105410000Y-83312000D02*
X110738338Y-83312000D01*
X104902000Y-81534000D02*
X104394000Y-81534000D01*
X111851511Y-84425173D02*
X111851511Y-85161650D01*
X104140000Y-82804000D02*
X104648000Y-83312000D01*
X104394000Y-81534000D02*
X104140000Y-81788000D01*
X111851511Y-85161650D02*
X111870265Y-85180404D01*
X110738338Y-83312000D02*
X111851511Y-84425173D01*
X104140000Y-81788000D02*
X104140000Y-82804000D01*
%TD*%
%TA.AperFunction,Conductor*%
%TO.N,GND*%
G36*
X119576121Y-76982002D02*
G01*
X119622614Y-77035658D01*
X119634000Y-77088000D01*
X119634000Y-81065500D01*
X119613998Y-81133621D01*
X119560342Y-81180114D01*
X119508000Y-81191500D01*
X119042012Y-81191501D01*
X119012934Y-81191501D01*
X118977182Y-81198612D01*
X118950874Y-81203844D01*
X118950872Y-81203845D01*
X118938699Y-81206266D01*
X118928379Y-81213161D01*
X118928378Y-81213162D01*
X118893414Y-81236525D01*
X118854516Y-81262516D01*
X118798266Y-81346699D01*
X118783500Y-81420933D01*
X118783501Y-83171066D01*
X118798266Y-83245301D01*
X118854516Y-83329484D01*
X118938699Y-83385734D01*
X119012933Y-83400500D01*
X119042002Y-83400500D01*
X119508001Y-83400499D01*
X119576121Y-83420501D01*
X119622614Y-83474156D01*
X119634000Y-83526499D01*
X119634000Y-83605500D01*
X119613998Y-83673621D01*
X119560342Y-83720114D01*
X119508000Y-83731500D01*
X119042012Y-83731501D01*
X119012934Y-83731501D01*
X118977182Y-83738612D01*
X118950874Y-83743844D01*
X118950872Y-83743845D01*
X118938699Y-83746266D01*
X118928379Y-83753161D01*
X118928378Y-83753162D01*
X118867985Y-83793516D01*
X118854516Y-83802516D01*
X118798266Y-83886699D01*
X118783500Y-83960933D01*
X118783501Y-85711066D01*
X118798266Y-85785301D01*
X118805161Y-85795620D01*
X118805162Y-85795622D01*
X118845516Y-85856015D01*
X118854516Y-85869484D01*
X118938699Y-85925734D01*
X119012933Y-85940500D01*
X119042002Y-85940500D01*
X119508001Y-85940499D01*
X119576121Y-85960501D01*
X119622614Y-86014156D01*
X119634000Y-86066499D01*
X119634000Y-86145500D01*
X119613998Y-86213621D01*
X119560342Y-86260114D01*
X119508000Y-86271500D01*
X119042012Y-86271501D01*
X119012934Y-86271501D01*
X118977182Y-86278612D01*
X118950874Y-86283844D01*
X118950872Y-86283845D01*
X118938699Y-86286266D01*
X118928379Y-86293161D01*
X118928378Y-86293162D01*
X118867985Y-86333516D01*
X118854516Y-86342516D01*
X118798266Y-86426699D01*
X118783500Y-86500933D01*
X118783501Y-88251066D01*
X118798266Y-88325301D01*
X118854516Y-88409484D01*
X118938699Y-88465734D01*
X119012933Y-88480500D01*
X119042002Y-88480500D01*
X119508001Y-88480499D01*
X119576121Y-88500501D01*
X119622614Y-88554156D01*
X119634000Y-88606499D01*
X119634000Y-90044000D01*
X119613998Y-90112121D01*
X119560342Y-90158614D01*
X119508000Y-90170000D01*
X102488000Y-90170000D01*
X102419879Y-90149998D01*
X102373386Y-90096342D01*
X102362000Y-90044000D01*
X102362000Y-88606500D01*
X102382002Y-88538379D01*
X102435658Y-88491886D01*
X102488000Y-88480500D01*
X103096965Y-88480499D01*
X103133066Y-88480499D01*
X103168818Y-88473388D01*
X103195126Y-88468156D01*
X103195128Y-88468155D01*
X103207301Y-88465734D01*
X103217621Y-88458839D01*
X103217622Y-88458838D01*
X103281168Y-88416377D01*
X103291484Y-88409484D01*
X103347734Y-88325301D01*
X103362500Y-88251067D01*
X103362499Y-86500934D01*
X103347734Y-86426699D01*
X103291484Y-86342516D01*
X103207301Y-86286266D01*
X103133067Y-86271500D01*
X103096977Y-86271500D01*
X102487999Y-86271501D01*
X102419879Y-86251499D01*
X102373386Y-86197843D01*
X102362000Y-86145501D01*
X102362000Y-86066500D01*
X102382002Y-85998379D01*
X102435658Y-85951886D01*
X102488000Y-85940500D01*
X102953988Y-85940499D01*
X102983066Y-85940499D01*
X103018818Y-85933388D01*
X103045126Y-85928156D01*
X103045128Y-85928155D01*
X103057301Y-85925734D01*
X103067621Y-85918839D01*
X103067622Y-85918838D01*
X103131168Y-85876377D01*
X103141484Y-85869484D01*
X103197734Y-85785301D01*
X103212500Y-85711067D01*
X103212499Y-83960934D01*
X103197734Y-83886699D01*
X103141484Y-83802516D01*
X103057301Y-83746266D01*
X102983067Y-83731500D01*
X102953998Y-83731500D01*
X102487999Y-83731501D01*
X102419879Y-83711499D01*
X102373386Y-83657844D01*
X102362000Y-83605501D01*
X102362000Y-83526500D01*
X102382002Y-83458379D01*
X102435658Y-83411886D01*
X102488000Y-83400500D01*
X102953988Y-83400499D01*
X102983066Y-83400499D01*
X103018818Y-83393388D01*
X103045126Y-83388156D01*
X103045128Y-83388155D01*
X103057301Y-83385734D01*
X103067621Y-83378839D01*
X103067622Y-83378838D01*
X103131168Y-83336377D01*
X103141484Y-83329484D01*
X103197734Y-83245301D01*
X103212500Y-83171067D01*
X103212500Y-82787070D01*
X103780997Y-82787070D01*
X103782221Y-82797408D01*
X103784627Y-82817737D01*
X103784942Y-82823083D01*
X103785072Y-82823072D01*
X103785500Y-82828252D01*
X103785500Y-82833451D01*
X103786353Y-82838575D01*
X103786354Y-82838588D01*
X103788427Y-82851041D01*
X103789264Y-82856916D01*
X103794869Y-82904270D01*
X103798570Y-82911978D01*
X103799975Y-82920417D01*
X103822629Y-82962401D01*
X103825310Y-82967664D01*
X103845955Y-83010658D01*
X103849311Y-83014650D01*
X103851258Y-83016597D01*
X103852748Y-83018222D01*
X103852981Y-83018654D01*
X103852945Y-83018687D01*
X103853084Y-83018845D01*
X103856017Y-83024280D01*
X103863664Y-83031349D01*
X103892881Y-83058357D01*
X103896447Y-83061786D01*
X104361084Y-83526423D01*
X104373592Y-83541909D01*
X104376526Y-83545134D01*
X104382175Y-83553882D01*
X104390352Y-83560328D01*
X104406430Y-83573003D01*
X104410431Y-83576559D01*
X104410516Y-83576459D01*
X104414473Y-83579812D01*
X104418155Y-83583494D01*
X104432691Y-83593882D01*
X104437378Y-83597401D01*
X104474857Y-83626946D01*
X104482925Y-83629779D01*
X104489885Y-83634753D01*
X104499863Y-83637737D01*
X104535560Y-83648413D01*
X104541203Y-83650247D01*
X104578723Y-83663422D01*
X104578727Y-83663423D01*
X104586208Y-83666050D01*
X104591404Y-83666500D01*
X104594111Y-83666500D01*
X104596369Y-83666597D01*
X104596841Y-83666739D01*
X104596839Y-83666785D01*
X104597038Y-83666798D01*
X104602955Y-83668567D01*
X104653099Y-83666597D01*
X104658045Y-83666500D01*
X110539309Y-83666500D01*
X110607430Y-83686502D01*
X110628404Y-83703405D01*
X110950990Y-84025991D01*
X110985016Y-84088303D01*
X110979951Y-84159118D01*
X110938599Y-84215048D01*
X110863076Y-84272999D01*
X110863072Y-84273003D01*
X110856526Y-84278026D01*
X110767645Y-84393858D01*
X110764486Y-84401484D01*
X110764485Y-84401486D01*
X110760364Y-84411436D01*
X110711772Y-84528746D01*
X110710695Y-84536930D01*
X110710694Y-84536932D01*
X110694873Y-84657111D01*
X110666151Y-84722038D01*
X110659046Y-84729760D01*
X110207211Y-85181595D01*
X110144899Y-85215621D01*
X110118116Y-85218500D01*
X107139062Y-85218500D01*
X107070941Y-85198498D01*
X107062374Y-85192474D01*
X106959643Y-85113645D01*
X106824754Y-85057772D01*
X106680000Y-85038715D01*
X106671812Y-85039793D01*
X106543432Y-85056694D01*
X106543430Y-85056695D01*
X106535246Y-85057772D01*
X106519346Y-85064358D01*
X106407986Y-85110485D01*
X106407984Y-85110486D01*
X106400358Y-85113645D01*
X106284526Y-85202526D01*
X106195645Y-85318358D01*
X106192486Y-85325984D01*
X106192485Y-85325986D01*
X106159578Y-85405430D01*
X106139772Y-85453246D01*
X106138695Y-85461430D01*
X106138694Y-85461432D01*
X106127263Y-85548259D01*
X106120715Y-85598000D01*
X106121793Y-85606188D01*
X106138478Y-85732923D01*
X106139772Y-85742754D01*
X106157396Y-85785301D01*
X106192266Y-85869484D01*
X106195645Y-85877642D01*
X106219850Y-85909186D01*
X106274225Y-85980049D01*
X106284526Y-85993474D01*
X106291076Y-85998500D01*
X106291079Y-85998503D01*
X106393804Y-86077327D01*
X106400357Y-86082355D01*
X106535246Y-86138228D01*
X106543434Y-86139306D01*
X106607623Y-86147756D01*
X106680000Y-86157285D01*
X106688188Y-86156207D01*
X106816566Y-86139306D01*
X106824754Y-86138228D01*
X106959643Y-86082355D01*
X107062360Y-86003537D01*
X107128578Y-85977937D01*
X107139062Y-85977500D01*
X110273580Y-85977500D01*
X110297528Y-85980049D01*
X110299193Y-85980128D01*
X110309376Y-85982320D01*
X110319717Y-85981096D01*
X110342723Y-85978373D01*
X110348654Y-85978023D01*
X110348646Y-85977928D01*
X110353824Y-85977500D01*
X110359024Y-85977500D01*
X110364153Y-85976646D01*
X110364156Y-85976646D01*
X110378065Y-85974331D01*
X110383943Y-85973494D01*
X110424501Y-85968694D01*
X110424502Y-85968694D01*
X110434841Y-85967470D01*
X110443093Y-85963507D01*
X110452126Y-85962004D01*
X110461295Y-85957057D01*
X110461297Y-85957056D01*
X110497232Y-85937666D01*
X110502525Y-85934969D01*
X110541582Y-85916215D01*
X110541586Y-85916212D01*
X110548732Y-85912781D01*
X110553008Y-85909186D01*
X110554931Y-85907263D01*
X110556863Y-85905491D01*
X110556942Y-85905448D01*
X110557055Y-85905572D01*
X110557595Y-85905096D01*
X110563314Y-85902010D01*
X110599917Y-85862413D01*
X110603346Y-85858848D01*
X111140167Y-85322027D01*
X111202479Y-85288001D01*
X111273294Y-85293066D01*
X111330130Y-85335613D01*
X111345670Y-85362903D01*
X111382746Y-85452411D01*
X111382750Y-85452418D01*
X111385910Y-85460046D01*
X111474791Y-85575878D01*
X111481341Y-85580904D01*
X111481344Y-85580907D01*
X111584069Y-85659731D01*
X111590622Y-85664759D01*
X111702417Y-85711066D01*
X111717069Y-85717135D01*
X111725511Y-85720632D01*
X111870265Y-85739689D01*
X111878453Y-85738611D01*
X112006831Y-85721710D01*
X112015019Y-85720632D01*
X112023462Y-85717135D01*
X112038113Y-85711066D01*
X112149908Y-85664759D01*
X112156461Y-85659731D01*
X112259186Y-85580907D01*
X112259189Y-85580904D01*
X112265739Y-85575878D01*
X112354620Y-85460046D01*
X112362101Y-85441987D01*
X112407334Y-85332784D01*
X112410493Y-85325158D01*
X112412155Y-85312539D01*
X112428472Y-85188592D01*
X112429550Y-85180404D01*
X112415277Y-85071986D01*
X112411571Y-85043836D01*
X112411570Y-85043834D01*
X112410493Y-85035650D01*
X112354620Y-84900762D01*
X112265739Y-84784930D01*
X112259184Y-84779900D01*
X112255306Y-84776924D01*
X112213439Y-84719586D01*
X112206011Y-84676963D01*
X112206011Y-84476430D01*
X112208117Y-84456636D01*
X112208322Y-84452283D01*
X112210514Y-84442103D01*
X112206884Y-84411433D01*
X112206569Y-84406090D01*
X112206439Y-84406101D01*
X112206011Y-84400921D01*
X112206011Y-84395722D01*
X112205158Y-84390598D01*
X112205157Y-84390585D01*
X112203084Y-84378132D01*
X112202247Y-84372257D01*
X112197866Y-84335244D01*
X112196642Y-84324903D01*
X112192941Y-84317195D01*
X112191536Y-84308756D01*
X112168893Y-84266792D01*
X112166197Y-84261501D01*
X112148988Y-84225663D01*
X112148986Y-84225659D01*
X112145555Y-84218515D01*
X112142200Y-84214523D01*
X112140273Y-84212596D01*
X112138761Y-84210947D01*
X112138526Y-84210512D01*
X112138561Y-84210480D01*
X112138426Y-84210327D01*
X112135494Y-84204893D01*
X112098630Y-84170816D01*
X112095064Y-84167387D01*
X111561588Y-83633911D01*
X111025256Y-83097580D01*
X111012751Y-83082098D01*
X111009815Y-83078871D01*
X111004163Y-83070118D01*
X110979900Y-83050991D01*
X110975905Y-83047441D01*
X110975821Y-83047540D01*
X110971858Y-83044182D01*
X110968182Y-83040506D01*
X110955369Y-83031349D01*
X110953686Y-83030146D01*
X110948943Y-83026585D01*
X110919663Y-83003503D01*
X110919659Y-83003501D01*
X110911481Y-82997054D01*
X110903413Y-82994221D01*
X110896453Y-82989247D01*
X110850752Y-82975580D01*
X110845103Y-82973744D01*
X110807607Y-82960576D01*
X110807608Y-82960576D01*
X110800130Y-82957950D01*
X110794934Y-82957500D01*
X110792229Y-82957500D01*
X110789973Y-82957403D01*
X110789497Y-82957260D01*
X110789499Y-82957214D01*
X110789300Y-82957201D01*
X110783383Y-82955432D01*
X110733749Y-82957382D01*
X110733214Y-82957403D01*
X110728268Y-82957500D01*
X104847028Y-82957500D01*
X104778907Y-82937498D01*
X104757933Y-82920595D01*
X104531405Y-82694067D01*
X104497379Y-82631755D01*
X104494500Y-82604972D01*
X104494500Y-82153967D01*
X104514502Y-82085846D01*
X104568158Y-82039353D01*
X104638432Y-82029249D01*
X104668713Y-82037556D01*
X104757246Y-82074228D01*
X104902000Y-82093285D01*
X104910188Y-82092207D01*
X105038566Y-82075306D01*
X105046754Y-82074228D01*
X105181643Y-82018355D01*
X105188196Y-82013327D01*
X105290921Y-81934503D01*
X105290924Y-81934500D01*
X105297474Y-81929474D01*
X105386355Y-81813642D01*
X105392806Y-81798070D01*
X105439069Y-81686380D01*
X105442228Y-81678754D01*
X105450715Y-81614292D01*
X105460207Y-81542188D01*
X105461285Y-81534000D01*
X105446400Y-81420933D01*
X105443306Y-81397432D01*
X105443305Y-81397430D01*
X105442228Y-81389246D01*
X105400578Y-81288695D01*
X105389515Y-81261986D01*
X105389514Y-81261984D01*
X105386355Y-81254358D01*
X105329386Y-81180114D01*
X105302501Y-81145077D01*
X105302500Y-81145076D01*
X105297474Y-81138526D01*
X105290924Y-81133500D01*
X105290921Y-81133497D01*
X105188196Y-81054673D01*
X105188194Y-81054672D01*
X105181643Y-81049645D01*
X105046754Y-80993772D01*
X104902000Y-80974715D01*
X104893812Y-80975793D01*
X104765432Y-80992694D01*
X104765430Y-80992695D01*
X104757246Y-80993772D01*
X104709430Y-81013578D01*
X104629986Y-81046485D01*
X104629984Y-81046486D01*
X104622358Y-81049645D01*
X104601694Y-81065501D01*
X104513078Y-81133498D01*
X104513076Y-81133500D01*
X104506526Y-81138526D01*
X104504560Y-81141088D01*
X104444295Y-81173998D01*
X104416934Y-81176290D01*
X104410930Y-81174997D01*
X104380260Y-81178627D01*
X104374917Y-81178942D01*
X104374928Y-81179072D01*
X104369748Y-81179500D01*
X104364549Y-81179500D01*
X104359425Y-81180353D01*
X104359412Y-81180354D01*
X104346959Y-81182427D01*
X104341084Y-81183264D01*
X104304071Y-81187645D01*
X104293730Y-81188869D01*
X104286022Y-81192570D01*
X104277583Y-81193975D01*
X104235599Y-81216629D01*
X104230336Y-81219310D01*
X104187342Y-81239955D01*
X104183350Y-81243311D01*
X104181403Y-81245258D01*
X104179778Y-81246748D01*
X104179346Y-81246981D01*
X104179313Y-81246946D01*
X104179158Y-81247083D01*
X104173720Y-81250017D01*
X104139642Y-81286883D01*
X104136212Y-81290450D01*
X103925580Y-81501082D01*
X103910098Y-81513587D01*
X103906871Y-81516523D01*
X103898118Y-81522175D01*
X103878991Y-81546438D01*
X103875441Y-81550433D01*
X103875540Y-81550517D01*
X103872182Y-81554480D01*
X103868506Y-81558156D01*
X103865483Y-81562385D01*
X103865483Y-81562386D01*
X103858146Y-81572652D01*
X103854585Y-81577395D01*
X103831503Y-81606675D01*
X103831501Y-81606679D01*
X103825054Y-81614857D01*
X103822221Y-81622925D01*
X103817247Y-81629885D01*
X103814263Y-81639863D01*
X103803580Y-81675586D01*
X103801744Y-81681235D01*
X103785950Y-81726208D01*
X103785500Y-81731404D01*
X103785500Y-81734109D01*
X103785403Y-81736365D01*
X103785260Y-81736841D01*
X103785214Y-81736839D01*
X103785201Y-81737038D01*
X103783432Y-81742955D01*
X103783841Y-81753359D01*
X103785403Y-81793124D01*
X103785500Y-81798070D01*
X103785500Y-82752743D01*
X103783394Y-82772537D01*
X103783189Y-82776890D01*
X103780997Y-82787070D01*
X103212500Y-82787070D01*
X103212499Y-81420934D01*
X103197734Y-81346699D01*
X103158977Y-81288695D01*
X103148377Y-81272832D01*
X103141484Y-81262516D01*
X103102586Y-81236525D01*
X103067620Y-81213161D01*
X103057301Y-81206266D01*
X102983067Y-81191500D01*
X102953998Y-81191500D01*
X102487999Y-81191501D01*
X102419879Y-81171499D01*
X102373386Y-81117844D01*
X102362000Y-81065501D01*
X102362000Y-80986500D01*
X102382002Y-80918379D01*
X102435658Y-80871886D01*
X102488000Y-80860500D01*
X102953988Y-80860499D01*
X102983066Y-80860499D01*
X103018818Y-80853388D01*
X103045126Y-80848156D01*
X103045128Y-80848155D01*
X103057301Y-80845734D01*
X103067621Y-80838839D01*
X103067622Y-80838838D01*
X103131168Y-80796377D01*
X103141484Y-80789484D01*
X103197734Y-80705301D01*
X103212500Y-80631067D01*
X103212499Y-79205089D01*
X103791804Y-79205089D01*
X103810861Y-79349843D01*
X103814020Y-79357469D01*
X103863266Y-79476358D01*
X103866734Y-79484731D01*
X103955615Y-79600563D01*
X103962165Y-79605589D01*
X103962168Y-79605592D01*
X104035976Y-79662227D01*
X104071446Y-79689444D01*
X104206335Y-79745317D01*
X104214523Y-79746395D01*
X104251948Y-79751322D01*
X104351089Y-79764374D01*
X104359277Y-79763296D01*
X104487655Y-79746395D01*
X104495843Y-79745317D01*
X104630732Y-79689444D01*
X104666202Y-79662227D01*
X104740010Y-79605592D01*
X104740013Y-79605589D01*
X104746563Y-79600563D01*
X104835444Y-79484731D01*
X104838913Y-79476358D01*
X104888158Y-79357469D01*
X104891317Y-79349843D01*
X104910374Y-79205089D01*
X104909615Y-79199325D01*
X104929298Y-79132291D01*
X104946200Y-79111317D01*
X104996784Y-79060732D01*
X105059096Y-79026707D01*
X105085880Y-79023827D01*
X105331273Y-79023827D01*
X105399394Y-79043829D01*
X105445887Y-79097485D01*
X105455991Y-79167759D01*
X105440391Y-79212829D01*
X105438671Y-79215808D01*
X105433645Y-79222358D01*
X105377772Y-79357246D01*
X105376695Y-79365430D01*
X105376694Y-79365432D01*
X105369809Y-79417729D01*
X105358715Y-79502000D01*
X105377772Y-79646754D01*
X105380931Y-79654380D01*
X105426046Y-79763296D01*
X105433645Y-79781642D01*
X105438672Y-79788193D01*
X105506434Y-79876502D01*
X105522526Y-79897474D01*
X105529076Y-79902500D01*
X105529079Y-79902503D01*
X105631804Y-79981327D01*
X105638357Y-79986355D01*
X105773246Y-80042228D01*
X105918000Y-80061285D01*
X105926188Y-80060207D01*
X106054566Y-80043306D01*
X106062754Y-80042228D01*
X106197643Y-79986355D01*
X106313474Y-79897474D01*
X106317012Y-79892863D01*
X106378331Y-79859379D01*
X106405114Y-79856500D01*
X108766971Y-79856500D01*
X108835092Y-79876502D01*
X108856066Y-79893405D01*
X114212888Y-85250227D01*
X114246914Y-85312539D01*
X114249585Y-85337389D01*
X114248715Y-85344000D01*
X114249793Y-85352188D01*
X114263993Y-85460046D01*
X114267772Y-85488754D01*
X114284374Y-85528834D01*
X114313024Y-85598000D01*
X114323645Y-85623642D01*
X114328672Y-85630193D01*
X114392658Y-85713581D01*
X114412526Y-85739474D01*
X114419076Y-85744500D01*
X114419079Y-85744503D01*
X114521804Y-85823327D01*
X114528357Y-85828355D01*
X114663246Y-85884228D01*
X114808000Y-85903285D01*
X114816188Y-85902207D01*
X114817685Y-85902010D01*
X114952754Y-85884228D01*
X115087643Y-85828355D01*
X115094196Y-85823327D01*
X115196921Y-85744503D01*
X115196924Y-85744500D01*
X115203474Y-85739474D01*
X115223343Y-85713581D01*
X115287328Y-85630193D01*
X115292355Y-85623642D01*
X115302977Y-85598000D01*
X115331626Y-85528834D01*
X115348228Y-85488754D01*
X115352008Y-85460046D01*
X115366207Y-85352188D01*
X115367285Y-85344000D01*
X115361517Y-85300189D01*
X115349306Y-85207432D01*
X115349305Y-85207430D01*
X115348228Y-85199246D01*
X115314853Y-85118672D01*
X115295515Y-85071986D01*
X115295514Y-85071984D01*
X115292355Y-85064358D01*
X115247914Y-85006442D01*
X115208501Y-84955077D01*
X115208500Y-84955076D01*
X115203474Y-84948526D01*
X115196924Y-84943500D01*
X115196921Y-84943497D01*
X115094196Y-84864673D01*
X115094194Y-84864672D01*
X115087643Y-84859645D01*
X114952754Y-84803772D01*
X114808000Y-84784715D01*
X114802235Y-84785474D01*
X114735201Y-84765791D01*
X114714227Y-84748888D01*
X112250717Y-82285378D01*
X109555444Y-79590106D01*
X109521418Y-79527794D01*
X109526483Y-79456979D01*
X109569030Y-79400143D01*
X109635550Y-79375332D01*
X109644539Y-79375011D01*
X116413482Y-79375011D01*
X116481603Y-79395013D01*
X116502577Y-79411916D01*
X116752888Y-79662227D01*
X116786914Y-79724539D01*
X116789585Y-79749389D01*
X116788715Y-79756000D01*
X116789793Y-79764188D01*
X116806478Y-79890923D01*
X116807772Y-79900754D01*
X116863645Y-80035642D01*
X116952526Y-80151474D01*
X116959076Y-80156500D01*
X116959079Y-80156503D01*
X117042076Y-80220189D01*
X117068357Y-80240355D01*
X117203246Y-80296228D01*
X117348000Y-80315285D01*
X117356188Y-80314207D01*
X117484566Y-80297306D01*
X117492754Y-80296228D01*
X117627643Y-80240355D01*
X117653924Y-80220189D01*
X117736921Y-80156503D01*
X117736924Y-80156500D01*
X117743474Y-80151474D01*
X117832355Y-80035642D01*
X117888228Y-79900754D01*
X117889523Y-79890923D01*
X117906207Y-79764188D01*
X117907285Y-79756000D01*
X117888228Y-79611246D01*
X117846368Y-79510188D01*
X117835515Y-79483986D01*
X117835514Y-79483984D01*
X117832355Y-79476358D01*
X117743474Y-79360526D01*
X117736924Y-79355500D01*
X117736921Y-79355497D01*
X117634196Y-79276673D01*
X117634194Y-79276672D01*
X117627643Y-79271645D01*
X117492754Y-79215772D01*
X117473803Y-79213277D01*
X117411608Y-79205089D01*
X117348000Y-79196715D01*
X117342236Y-79197474D01*
X117275202Y-79177791D01*
X117254228Y-79160889D01*
X116899427Y-78806089D01*
X116886925Y-78790609D01*
X116883986Y-78787379D01*
X116878336Y-78778629D01*
X116854073Y-78759502D01*
X116850078Y-78755952D01*
X116849994Y-78756051D01*
X116846031Y-78752693D01*
X116842355Y-78749017D01*
X116838125Y-78745994D01*
X116827859Y-78738657D01*
X116823116Y-78735096D01*
X116793836Y-78712014D01*
X116793832Y-78712012D01*
X116785654Y-78705565D01*
X116777586Y-78702732D01*
X116770626Y-78697758D01*
X116724925Y-78684091D01*
X116719276Y-78682255D01*
X116681780Y-78669087D01*
X116681781Y-78669087D01*
X116674303Y-78666461D01*
X116669107Y-78666011D01*
X116666402Y-78666011D01*
X116664146Y-78665914D01*
X116663670Y-78665771D01*
X116663672Y-78665725D01*
X116663473Y-78665712D01*
X116657556Y-78663943D01*
X116607922Y-78665893D01*
X116607387Y-78665914D01*
X116602441Y-78666011D01*
X106884703Y-78666011D01*
X106816582Y-78646009D01*
X106795608Y-78629107D01*
X106621405Y-78454905D01*
X106608903Y-78439425D01*
X106605964Y-78436195D01*
X106600314Y-78427445D01*
X106576051Y-78408318D01*
X106572056Y-78404768D01*
X106571972Y-78404867D01*
X106568009Y-78401509D01*
X106564333Y-78397833D01*
X106557558Y-78392991D01*
X106549837Y-78387473D01*
X106545094Y-78383912D01*
X106515814Y-78360830D01*
X106515810Y-78360828D01*
X106507632Y-78354381D01*
X106499564Y-78351548D01*
X106492604Y-78346574D01*
X106446903Y-78332907D01*
X106441254Y-78331071D01*
X106405717Y-78318591D01*
X106396281Y-78315277D01*
X106391085Y-78314827D01*
X106388380Y-78314827D01*
X106386124Y-78314730D01*
X106385648Y-78314587D01*
X106385650Y-78314541D01*
X106385451Y-78314528D01*
X106379534Y-78312759D01*
X106329900Y-78314709D01*
X106329365Y-78314730D01*
X106324419Y-78314827D01*
X104938108Y-78314827D01*
X104918314Y-78312721D01*
X104913961Y-78312516D01*
X104903781Y-78310324D01*
X104873111Y-78313954D01*
X104867768Y-78314269D01*
X104867779Y-78314399D01*
X104862599Y-78314827D01*
X104857400Y-78314827D01*
X104852276Y-78315680D01*
X104852263Y-78315681D01*
X104839810Y-78317754D01*
X104833935Y-78318591D01*
X104796922Y-78322972D01*
X104786581Y-78324196D01*
X104778873Y-78327897D01*
X104770434Y-78329302D01*
X104728450Y-78351956D01*
X104723187Y-78354637D01*
X104680193Y-78375282D01*
X104676201Y-78378638D01*
X104674254Y-78380585D01*
X104672629Y-78382075D01*
X104672197Y-78382308D01*
X104672164Y-78382272D01*
X104672006Y-78382411D01*
X104666571Y-78385344D01*
X104659502Y-78392991D01*
X104632493Y-78422209D01*
X104629064Y-78425775D01*
X104444862Y-78609977D01*
X104382550Y-78644003D01*
X104357700Y-78646674D01*
X104351089Y-78645804D01*
X104342901Y-78646882D01*
X104214521Y-78663783D01*
X104214519Y-78663784D01*
X104206335Y-78664861D01*
X104164343Y-78682255D01*
X104079075Y-78717574D01*
X104079073Y-78717575D01*
X104071447Y-78720734D01*
X103955615Y-78809615D01*
X103866734Y-78925447D01*
X103810861Y-79060335D01*
X103809784Y-79068519D01*
X103809783Y-79068521D01*
X103795398Y-79177791D01*
X103791804Y-79205089D01*
X103212499Y-79205089D01*
X103212499Y-78880934D01*
X103197734Y-78806699D01*
X103141484Y-78722516D01*
X103057301Y-78666266D01*
X102983067Y-78651500D01*
X102953998Y-78651500D01*
X102487999Y-78651501D01*
X102419879Y-78631499D01*
X102373386Y-78577844D01*
X102362000Y-78525501D01*
X102362000Y-77088000D01*
X102382002Y-77019879D01*
X102435658Y-76973386D01*
X102488000Y-76962000D01*
X119508000Y-76962000D01*
X119576121Y-76982002D01*
G37*
%TD.AperFunction*%
%TD*%
M02*
