%TF.GenerationSoftware,KiCad,Pcbnew,(5.1.8)-1*%
%TF.CreationDate,2021-10-29T19:36:58+09:00*%
%TF.ProjectId,ykts-mcu-node,796b7473-2d6d-4637-952d-6e6f64652e6b,rev?*%
%TF.SameCoordinates,PX6258c20PY49658d0*%
%TF.FileFunction,Legend,Bot*%
%TF.FilePolarity,Positive*%
%FSLAX46Y46*%
G04 Gerber Fmt 4.6, Leading zero omitted, Abs format (unit mm)*
G04 Created by KiCad (PCBNEW (5.1.8)-1) date 2021-10-29 19:36:58*
%MOMM*%
%LPD*%
G01*
G04 APERTURE LIST*
%ADD10C,0.150000*%
G04 APERTURE END LIST*
D10*
X14731904Y-2040000D02*
X14827142Y-1992380D01*
X14970000Y-1992380D01*
X15112857Y-2040000D01*
X15208095Y-2135238D01*
X15255714Y-2230476D01*
X15303333Y-2420952D01*
X15303333Y-2563809D01*
X15255714Y-2754285D01*
X15208095Y-2849523D01*
X15112857Y-2944761D01*
X14970000Y-2992380D01*
X14874761Y-2992380D01*
X14731904Y-2944761D01*
X14684285Y-2897142D01*
X14684285Y-2563809D01*
X14874761Y-2563809D01*
X14255714Y-2992380D02*
X14255714Y-1992380D01*
X13684285Y-2992380D01*
X13684285Y-1992380D01*
X13208095Y-2992380D02*
X13208095Y-1992380D01*
X12970000Y-1992380D01*
X12827142Y-2040000D01*
X12731904Y-2135238D01*
X12684285Y-2230476D01*
X12636666Y-2420952D01*
X12636666Y-2563809D01*
X12684285Y-2754285D01*
X12731904Y-2849523D01*
X12827142Y-2944761D01*
X12970000Y-2992380D01*
X13208095Y-2992380D01*
X15303333Y-4532380D02*
X14970000Y-5532380D01*
X14636666Y-4532380D01*
X13731904Y-5437142D02*
X13779523Y-5484761D01*
X13922380Y-5532380D01*
X14017619Y-5532380D01*
X14160476Y-5484761D01*
X14255714Y-5389523D01*
X14303333Y-5294285D01*
X14350952Y-5103809D01*
X14350952Y-4960952D01*
X14303333Y-4770476D01*
X14255714Y-4675238D01*
X14160476Y-4580000D01*
X14017619Y-4532380D01*
X13922380Y-4532380D01*
X13779523Y-4580000D01*
X13731904Y-4627619D01*
X12731904Y-5437142D02*
X12779523Y-5484761D01*
X12922380Y-5532380D01*
X13017619Y-5532380D01*
X13160476Y-5484761D01*
X13255714Y-5389523D01*
X13303333Y-5294285D01*
X13350952Y-5103809D01*
X13350952Y-4960952D01*
X13303333Y-4770476D01*
X13255714Y-4675238D01*
X13160476Y-4580000D01*
X13017619Y-4532380D01*
X12922380Y-4532380D01*
X12779523Y-4580000D01*
X12731904Y-4627619D01*
X15303333Y-7580380D02*
X14970000Y-8580380D01*
X14636666Y-7580380D01*
X13731904Y-8485142D02*
X13779523Y-8532761D01*
X13922380Y-8580380D01*
X14017619Y-8580380D01*
X14160476Y-8532761D01*
X14255714Y-8437523D01*
X14303333Y-8342285D01*
X14350952Y-8151809D01*
X14350952Y-8008952D01*
X14303333Y-7818476D01*
X14255714Y-7723238D01*
X14160476Y-7628000D01*
X14017619Y-7580380D01*
X13922380Y-7580380D01*
X13779523Y-7628000D01*
X13731904Y-7675619D01*
X12731904Y-8485142D02*
X12779523Y-8532761D01*
X12922380Y-8580380D01*
X13017619Y-8580380D01*
X13160476Y-8532761D01*
X13255714Y-8437523D01*
X13303333Y-8342285D01*
X13350952Y-8151809D01*
X13350952Y-8008952D01*
X13303333Y-7818476D01*
X13255714Y-7723238D01*
X13160476Y-7628000D01*
X13017619Y-7580380D01*
X12922380Y-7580380D01*
X12779523Y-7628000D01*
X12731904Y-7675619D01*
X14731904Y-10422000D02*
X14827142Y-10374380D01*
X14970000Y-10374380D01*
X15112857Y-10422000D01*
X15208095Y-10517238D01*
X15255714Y-10612476D01*
X15303333Y-10802952D01*
X15303333Y-10945809D01*
X15255714Y-11136285D01*
X15208095Y-11231523D01*
X15112857Y-11326761D01*
X14970000Y-11374380D01*
X14874761Y-11374380D01*
X14731904Y-11326761D01*
X14684285Y-11279142D01*
X14684285Y-10945809D01*
X14874761Y-10945809D01*
X14255714Y-11374380D02*
X14255714Y-10374380D01*
X13684285Y-11374380D01*
X13684285Y-10374380D01*
X13208095Y-11374380D02*
X13208095Y-10374380D01*
X12970000Y-10374380D01*
X12827142Y-10422000D01*
X12731904Y-10517238D01*
X12684285Y-10612476D01*
X12636666Y-10802952D01*
X12636666Y-10945809D01*
X12684285Y-11136285D01*
X12731904Y-11231523D01*
X12827142Y-11326761D01*
X12970000Y-11374380D01*
X13208095Y-11374380D01*
X1436857Y-3455000D02*
X2436857Y-3455000D01*
X2246380Y-2087619D02*
X1913047Y-2563809D01*
X1674952Y-2087619D02*
X1674952Y-3087619D01*
X2055904Y-3087619D01*
X2151142Y-3040000D01*
X2198761Y-2992380D01*
X2246380Y-2897142D01*
X2246380Y-2754285D01*
X2198761Y-2659047D01*
X2151142Y-2611428D01*
X2055904Y-2563809D01*
X1674952Y-2563809D01*
X2436857Y-3455000D02*
X3389238Y-3455000D01*
X2627333Y-2135238D02*
X2770190Y-2087619D01*
X3008285Y-2087619D01*
X3103523Y-2135238D01*
X3151142Y-2182857D01*
X3198761Y-2278095D01*
X3198761Y-2373333D01*
X3151142Y-2468571D01*
X3103523Y-2516190D01*
X3008285Y-2563809D01*
X2817809Y-2611428D01*
X2722571Y-2659047D01*
X2674952Y-2706666D01*
X2627333Y-2801904D01*
X2627333Y-2897142D01*
X2674952Y-2992380D01*
X2722571Y-3040000D01*
X2817809Y-3087619D01*
X3055904Y-3087619D01*
X3198761Y-3040000D01*
X3389238Y-3455000D02*
X4151142Y-3455000D01*
X3484476Y-3087619D02*
X4055904Y-3087619D01*
X3770190Y-2087619D02*
X3770190Y-3087619D01*
X2119333Y-4881619D02*
X1786000Y-5357809D01*
X1547904Y-4881619D02*
X1547904Y-5881619D01*
X1928857Y-5881619D01*
X2024095Y-5834000D01*
X2071714Y-5786380D01*
X2119333Y-5691142D01*
X2119333Y-5548285D01*
X2071714Y-5453047D01*
X2024095Y-5405428D01*
X1928857Y-5357809D01*
X1547904Y-5357809D01*
X2452666Y-5881619D02*
X3119333Y-4881619D01*
X3119333Y-5881619D02*
X2452666Y-4881619D01*
X1524095Y-8675619D02*
X2095523Y-8675619D01*
X1809809Y-7675619D02*
X1809809Y-8675619D01*
X2333619Y-8675619D02*
X3000285Y-7675619D01*
X3000285Y-8675619D02*
X2333619Y-7675619D01*
X1492476Y-10469619D02*
X1492476Y-11469619D01*
X1873428Y-11469619D01*
X1968666Y-11422000D01*
X2016285Y-11374380D01*
X2063904Y-11279142D01*
X2063904Y-11136285D01*
X2016285Y-11041047D01*
X1968666Y-10993428D01*
X1873428Y-10945809D01*
X1492476Y-10945809D01*
X2397238Y-11469619D02*
X2635333Y-10469619D01*
X2825809Y-11183904D01*
X3016285Y-10469619D01*
X3254380Y-11469619D01*
X3635333Y-10993428D02*
X3968666Y-10993428D01*
X4111523Y-10469619D02*
X3635333Y-10469619D01*
X3635333Y-11469619D01*
X4111523Y-11469619D01*
X4540095Y-10469619D02*
X4540095Y-11469619D01*
X5111523Y-10469619D01*
X5111523Y-11469619D01*
M02*
