%TF.GenerationSoftware,KiCad,Pcbnew,(5.1.8)-1*%
%TF.CreationDate,2021-10-29T19:36:58+09:00*%
%TF.ProjectId,ykts-mcu-node,796b7473-2d6d-4637-952d-6e6f64652e6b,rev?*%
%TF.SameCoordinates,PX6258c20PY49658d0*%
%TF.FileFunction,Copper,L2,Bot*%
%TF.FilePolarity,Positive*%
%FSLAX46Y46*%
G04 Gerber Fmt 4.6, Leading zero omitted, Abs format (unit mm)*
G04 Created by KiCad (PCBNEW (5.1.8)-1) date 2021-10-29 19:36:58*
%MOMM*%
%LPD*%
G01*
G04 APERTURE LIST*
%TA.AperFunction,SMDPad,CuDef*%
%ADD10R,1.000000X1.000000*%
%TD*%
%TA.AperFunction,ComponentPad*%
%ADD11C,0.603000*%
%TD*%
%TA.AperFunction,ViaPad*%
%ADD12C,0.600000*%
%TD*%
%TA.AperFunction,Conductor*%
%ADD13C,0.200000*%
%TD*%
%TA.AperFunction,Conductor*%
%ADD14C,0.254000*%
%TD*%
%TA.AperFunction,Conductor*%
%ADD15C,0.100000*%
%TD*%
G04 APERTURE END LIST*
D10*
%TO.P,J4,1*%
%TO.N,/ISP_RESET*%
X500000Y-2540000D03*
D11*
X0Y-2540000D03*
%TD*%
D10*
%TO.P,J8,1*%
%TO.N,GND*%
X16264000Y-2540000D03*
D11*
X16764000Y-2540000D03*
%TD*%
D10*
%TO.P,J7,1*%
%TO.N,+5V*%
X16264000Y-5080000D03*
D11*
X16764000Y-5080000D03*
%TD*%
D10*
%TO.P,J6,1*%
%TO.N,+5V*%
X16264000Y-8128000D03*
D11*
X16764000Y-8128000D03*
%TD*%
D10*
%TO.P,J5,1*%
%TO.N,GND*%
X16264000Y-10922000D03*
D11*
X16764000Y-10922000D03*
%TD*%
D10*
%TO.P,J3,1*%
%TO.N,/UART0_RX*%
X508000Y-5334000D03*
D11*
X8000Y-5334000D03*
%TD*%
D10*
%TO.P,J2,1*%
%TO.N,/UART0_TX*%
X500000Y-8128000D03*
D11*
X0Y-8128000D03*
%TD*%
D10*
%TO.P,J1,1*%
%TO.N,Net-(J1-Pad1)*%
X500000Y-10922000D03*
D11*
X0Y-10922000D03*
%TD*%
D12*
%TO.N,GND*%
X10668000Y-11684000D03*
X3302000Y-9398000D03*
X2286000Y-11684000D03*
X1524000Y-1270000D03*
X4572000Y-1270000D03*
X12700000Y-2794000D03*
X14478000Y-1524000D03*
%TO.N,Net-(C2-Pad1)*%
X11430000Y-10160000D03*
X5473734Y-8775734D03*
%TO.N,Net-(J1-Pad1)*%
X14478000Y-7874000D03*
%TD*%
D13*
%TO.N,Net-(C2-Pad1)*%
X10045734Y-8775734D02*
X5473734Y-8775734D01*
X11430000Y-10160000D02*
X10045734Y-8775734D01*
%TO.N,Net-(J1-Pad1)*%
X3294000Y-8128000D02*
X500000Y-10922000D01*
X9963698Y-8128000D02*
X3294000Y-8128000D01*
X10979698Y-9144000D02*
X9963698Y-8128000D01*
X13716000Y-9144000D02*
X10979698Y-9144000D01*
X14478000Y-8382000D02*
X13716000Y-9144000D01*
X14478000Y-7874000D02*
X14478000Y-8382000D01*
%TD*%
D14*
%TO.N,GND*%
X16358001Y-4197157D02*
X15764000Y-4197157D01*
X15689311Y-4204513D01*
X15617492Y-4226299D01*
X15551304Y-4261678D01*
X15493289Y-4309289D01*
X15445678Y-4367304D01*
X15410299Y-4433492D01*
X15388513Y-4505311D01*
X15381157Y-4580000D01*
X15381157Y-5580000D01*
X15388513Y-5654689D01*
X15410299Y-5726508D01*
X15445678Y-5792696D01*
X15493289Y-5850711D01*
X15551304Y-5898322D01*
X15617492Y-5933701D01*
X15689311Y-5955487D01*
X15764000Y-5962843D01*
X16358001Y-5962843D01*
X16358000Y-7245157D01*
X15764000Y-7245157D01*
X15689311Y-7252513D01*
X15617492Y-7274299D01*
X15551304Y-7309678D01*
X15493289Y-7357289D01*
X15445678Y-7415304D01*
X15410299Y-7481492D01*
X15388513Y-7553311D01*
X15381157Y-7628000D01*
X15381157Y-8628000D01*
X15388513Y-8702689D01*
X15410299Y-8774508D01*
X15445678Y-8840696D01*
X15493289Y-8898711D01*
X15551304Y-8946322D01*
X15617492Y-8981701D01*
X15689311Y-9003487D01*
X15764000Y-9010843D01*
X16358000Y-9010843D01*
X16358000Y-13056000D01*
X406000Y-13056000D01*
X406000Y-11804843D01*
X1000000Y-11804843D01*
X1074689Y-11797487D01*
X1146508Y-11775701D01*
X1212696Y-11740322D01*
X1270711Y-11692711D01*
X1318322Y-11634696D01*
X1353701Y-11568508D01*
X1375487Y-11496689D01*
X1382843Y-11422000D01*
X1382843Y-10719393D01*
X3493237Y-8609000D01*
X4812558Y-8609000D01*
X4792734Y-8708661D01*
X4792734Y-8842807D01*
X4818905Y-8974374D01*
X4870240Y-9098308D01*
X4944767Y-9209846D01*
X5039622Y-9304701D01*
X5151160Y-9379228D01*
X5275094Y-9430563D01*
X5406661Y-9456734D01*
X5540807Y-9456734D01*
X5672374Y-9430563D01*
X5796308Y-9379228D01*
X5907846Y-9304701D01*
X5955813Y-9256734D01*
X9846498Y-9256734D01*
X10749000Y-10159237D01*
X10749000Y-10227073D01*
X10775171Y-10358640D01*
X10826506Y-10482574D01*
X10901033Y-10594112D01*
X10995888Y-10688967D01*
X11107426Y-10763494D01*
X11231360Y-10814829D01*
X11362927Y-10841000D01*
X11497073Y-10841000D01*
X11628640Y-10814829D01*
X11752574Y-10763494D01*
X11864112Y-10688967D01*
X11958967Y-10594112D01*
X12033494Y-10482574D01*
X12084829Y-10358640D01*
X12111000Y-10227073D01*
X12111000Y-10092927D01*
X12084829Y-9961360D01*
X12033494Y-9837426D01*
X11958967Y-9725888D01*
X11864112Y-9631033D01*
X11855083Y-9625000D01*
X13692374Y-9625000D01*
X13716000Y-9627327D01*
X13739626Y-9625000D01*
X13810292Y-9618040D01*
X13900961Y-9590536D01*
X13984522Y-9545872D01*
X14057764Y-9485764D01*
X14072830Y-9467406D01*
X14801411Y-8738826D01*
X14819764Y-8723764D01*
X14879872Y-8650522D01*
X14924536Y-8566961D01*
X14943696Y-8503797D01*
X14952040Y-8476293D01*
X14961327Y-8382000D01*
X14959000Y-8358374D01*
X14959000Y-8356079D01*
X15006967Y-8308112D01*
X15081494Y-8196574D01*
X15132829Y-8072640D01*
X15159000Y-7941073D01*
X15159000Y-7806927D01*
X15132829Y-7675360D01*
X15081494Y-7551426D01*
X15006967Y-7439888D01*
X14912112Y-7345033D01*
X14800574Y-7270506D01*
X14676640Y-7219171D01*
X14545073Y-7193000D01*
X14410927Y-7193000D01*
X14279360Y-7219171D01*
X14155426Y-7270506D01*
X14043888Y-7345033D01*
X13949033Y-7439888D01*
X13874506Y-7551426D01*
X13823171Y-7675360D01*
X13797000Y-7806927D01*
X13797000Y-7941073D01*
X13823171Y-8072640D01*
X13874506Y-8196574D01*
X13918038Y-8261725D01*
X13516764Y-8663000D01*
X11178935Y-8663000D01*
X10320528Y-7804594D01*
X10305462Y-7786236D01*
X10232220Y-7726128D01*
X10148659Y-7681464D01*
X10057990Y-7653960D01*
X9987324Y-7647000D01*
X9963698Y-7644673D01*
X9940072Y-7647000D01*
X3317626Y-7647000D01*
X3294000Y-7644673D01*
X3199707Y-7653960D01*
X3109038Y-7681464D01*
X3064374Y-7705338D01*
X3025478Y-7726128D01*
X2952236Y-7786236D01*
X2937175Y-7804588D01*
X702607Y-10039157D01*
X406000Y-10039157D01*
X406000Y-9010843D01*
X1000000Y-9010843D01*
X1074689Y-9003487D01*
X1146508Y-8981701D01*
X1212696Y-8946322D01*
X1270711Y-8898711D01*
X1318322Y-8840696D01*
X1353701Y-8774508D01*
X1375487Y-8702689D01*
X1382843Y-8628000D01*
X1382843Y-7628000D01*
X1375487Y-7553311D01*
X1353701Y-7481492D01*
X1318322Y-7415304D01*
X1270711Y-7357289D01*
X1212696Y-7309678D01*
X1146508Y-7274299D01*
X1074689Y-7252513D01*
X1000000Y-7245157D01*
X406000Y-7245157D01*
X406000Y-6216843D01*
X1008000Y-6216843D01*
X1082689Y-6209487D01*
X1154508Y-6187701D01*
X1220696Y-6152322D01*
X1278711Y-6104711D01*
X1326322Y-6046696D01*
X1361701Y-5980508D01*
X1383487Y-5908689D01*
X1390843Y-5834000D01*
X1390843Y-4834000D01*
X1383487Y-4759311D01*
X1361701Y-4687492D01*
X1326322Y-4621304D01*
X1278711Y-4563289D01*
X1220696Y-4515678D01*
X1154508Y-4480299D01*
X1082689Y-4458513D01*
X1008000Y-4451157D01*
X406000Y-4451157D01*
X406000Y-3422843D01*
X1000000Y-3422843D01*
X1074689Y-3415487D01*
X1146508Y-3393701D01*
X1212696Y-3358322D01*
X1270711Y-3310711D01*
X1318322Y-3252696D01*
X1353701Y-3186508D01*
X1375487Y-3114689D01*
X1382843Y-3040000D01*
X1382843Y-2040000D01*
X1375487Y-1965311D01*
X1353701Y-1893492D01*
X1318322Y-1827304D01*
X1270711Y-1769289D01*
X1212696Y-1721678D01*
X1146508Y-1686299D01*
X1074689Y-1664513D01*
X1000000Y-1657157D01*
X406000Y-1657157D01*
X406000Y-406000D01*
X16358001Y-406000D01*
X16358001Y-4197157D01*
%TA.AperFunction,Conductor*%
D15*
G36*
X16358001Y-4197157D02*
G01*
X15764000Y-4197157D01*
X15689311Y-4204513D01*
X15617492Y-4226299D01*
X15551304Y-4261678D01*
X15493289Y-4309289D01*
X15445678Y-4367304D01*
X15410299Y-4433492D01*
X15388513Y-4505311D01*
X15381157Y-4580000D01*
X15381157Y-5580000D01*
X15388513Y-5654689D01*
X15410299Y-5726508D01*
X15445678Y-5792696D01*
X15493289Y-5850711D01*
X15551304Y-5898322D01*
X15617492Y-5933701D01*
X15689311Y-5955487D01*
X15764000Y-5962843D01*
X16358001Y-5962843D01*
X16358000Y-7245157D01*
X15764000Y-7245157D01*
X15689311Y-7252513D01*
X15617492Y-7274299D01*
X15551304Y-7309678D01*
X15493289Y-7357289D01*
X15445678Y-7415304D01*
X15410299Y-7481492D01*
X15388513Y-7553311D01*
X15381157Y-7628000D01*
X15381157Y-8628000D01*
X15388513Y-8702689D01*
X15410299Y-8774508D01*
X15445678Y-8840696D01*
X15493289Y-8898711D01*
X15551304Y-8946322D01*
X15617492Y-8981701D01*
X15689311Y-9003487D01*
X15764000Y-9010843D01*
X16358000Y-9010843D01*
X16358000Y-13056000D01*
X406000Y-13056000D01*
X406000Y-11804843D01*
X1000000Y-11804843D01*
X1074689Y-11797487D01*
X1146508Y-11775701D01*
X1212696Y-11740322D01*
X1270711Y-11692711D01*
X1318322Y-11634696D01*
X1353701Y-11568508D01*
X1375487Y-11496689D01*
X1382843Y-11422000D01*
X1382843Y-10719393D01*
X3493237Y-8609000D01*
X4812558Y-8609000D01*
X4792734Y-8708661D01*
X4792734Y-8842807D01*
X4818905Y-8974374D01*
X4870240Y-9098308D01*
X4944767Y-9209846D01*
X5039622Y-9304701D01*
X5151160Y-9379228D01*
X5275094Y-9430563D01*
X5406661Y-9456734D01*
X5540807Y-9456734D01*
X5672374Y-9430563D01*
X5796308Y-9379228D01*
X5907846Y-9304701D01*
X5955813Y-9256734D01*
X9846498Y-9256734D01*
X10749000Y-10159237D01*
X10749000Y-10227073D01*
X10775171Y-10358640D01*
X10826506Y-10482574D01*
X10901033Y-10594112D01*
X10995888Y-10688967D01*
X11107426Y-10763494D01*
X11231360Y-10814829D01*
X11362927Y-10841000D01*
X11497073Y-10841000D01*
X11628640Y-10814829D01*
X11752574Y-10763494D01*
X11864112Y-10688967D01*
X11958967Y-10594112D01*
X12033494Y-10482574D01*
X12084829Y-10358640D01*
X12111000Y-10227073D01*
X12111000Y-10092927D01*
X12084829Y-9961360D01*
X12033494Y-9837426D01*
X11958967Y-9725888D01*
X11864112Y-9631033D01*
X11855083Y-9625000D01*
X13692374Y-9625000D01*
X13716000Y-9627327D01*
X13739626Y-9625000D01*
X13810292Y-9618040D01*
X13900961Y-9590536D01*
X13984522Y-9545872D01*
X14057764Y-9485764D01*
X14072830Y-9467406D01*
X14801411Y-8738826D01*
X14819764Y-8723764D01*
X14879872Y-8650522D01*
X14924536Y-8566961D01*
X14943696Y-8503797D01*
X14952040Y-8476293D01*
X14961327Y-8382000D01*
X14959000Y-8358374D01*
X14959000Y-8356079D01*
X15006967Y-8308112D01*
X15081494Y-8196574D01*
X15132829Y-8072640D01*
X15159000Y-7941073D01*
X15159000Y-7806927D01*
X15132829Y-7675360D01*
X15081494Y-7551426D01*
X15006967Y-7439888D01*
X14912112Y-7345033D01*
X14800574Y-7270506D01*
X14676640Y-7219171D01*
X14545073Y-7193000D01*
X14410927Y-7193000D01*
X14279360Y-7219171D01*
X14155426Y-7270506D01*
X14043888Y-7345033D01*
X13949033Y-7439888D01*
X13874506Y-7551426D01*
X13823171Y-7675360D01*
X13797000Y-7806927D01*
X13797000Y-7941073D01*
X13823171Y-8072640D01*
X13874506Y-8196574D01*
X13918038Y-8261725D01*
X13516764Y-8663000D01*
X11178935Y-8663000D01*
X10320528Y-7804594D01*
X10305462Y-7786236D01*
X10232220Y-7726128D01*
X10148659Y-7681464D01*
X10057990Y-7653960D01*
X9987324Y-7647000D01*
X9963698Y-7644673D01*
X9940072Y-7647000D01*
X3317626Y-7647000D01*
X3294000Y-7644673D01*
X3199707Y-7653960D01*
X3109038Y-7681464D01*
X3064374Y-7705338D01*
X3025478Y-7726128D01*
X2952236Y-7786236D01*
X2937175Y-7804588D01*
X702607Y-10039157D01*
X406000Y-10039157D01*
X406000Y-9010843D01*
X1000000Y-9010843D01*
X1074689Y-9003487D01*
X1146508Y-8981701D01*
X1212696Y-8946322D01*
X1270711Y-8898711D01*
X1318322Y-8840696D01*
X1353701Y-8774508D01*
X1375487Y-8702689D01*
X1382843Y-8628000D01*
X1382843Y-7628000D01*
X1375487Y-7553311D01*
X1353701Y-7481492D01*
X1318322Y-7415304D01*
X1270711Y-7357289D01*
X1212696Y-7309678D01*
X1146508Y-7274299D01*
X1074689Y-7252513D01*
X1000000Y-7245157D01*
X406000Y-7245157D01*
X406000Y-6216843D01*
X1008000Y-6216843D01*
X1082689Y-6209487D01*
X1154508Y-6187701D01*
X1220696Y-6152322D01*
X1278711Y-6104711D01*
X1326322Y-6046696D01*
X1361701Y-5980508D01*
X1383487Y-5908689D01*
X1390843Y-5834000D01*
X1390843Y-4834000D01*
X1383487Y-4759311D01*
X1361701Y-4687492D01*
X1326322Y-4621304D01*
X1278711Y-4563289D01*
X1220696Y-4515678D01*
X1154508Y-4480299D01*
X1082689Y-4458513D01*
X1008000Y-4451157D01*
X406000Y-4451157D01*
X406000Y-3422843D01*
X1000000Y-3422843D01*
X1074689Y-3415487D01*
X1146508Y-3393701D01*
X1212696Y-3358322D01*
X1270711Y-3310711D01*
X1318322Y-3252696D01*
X1353701Y-3186508D01*
X1375487Y-3114689D01*
X1382843Y-3040000D01*
X1382843Y-2040000D01*
X1375487Y-1965311D01*
X1353701Y-1893492D01*
X1318322Y-1827304D01*
X1270711Y-1769289D01*
X1212696Y-1721678D01*
X1146508Y-1686299D01*
X1074689Y-1664513D01*
X1000000Y-1657157D01*
X406000Y-1657157D01*
X406000Y-406000D01*
X16358001Y-406000D01*
X16358001Y-4197157D01*
G37*
%TD.AperFunction*%
%TD*%
M02*
