%TF.GenerationSoftware,KiCad,Pcbnew,(6.0.0-rc1-310-gf24bdf4067)*%
%TF.CreationDate,2021-12-08T00:21:50+09:00*%
%TF.ProjectId,ykts-mcu-node,796b7473-2d6d-4637-952d-6e6f64652e6b,rev?*%
%TF.SameCoordinates,Original*%
%TF.FileFunction,Legend,Top*%
%TF.FilePolarity,Positive*%
%FSLAX46Y46*%
G04 Gerber Fmt 4.6, Leading zero omitted, Abs format (unit mm)*
G04 Created by KiCad (PCBNEW (6.0.0-rc1-310-gf24bdf4067)) date 2021-12-08 00:21:50*
%MOMM*%
%LPD*%
G01*
G04 APERTURE LIST*
%ADD10C,0.150000*%
%ADD11C,0.120000*%
%ADD12C,0.100000*%
G04 APERTURE END LIST*
D10*
X102576380Y-89662000D02*
X102814476Y-89662000D01*
X102719238Y-89900095D02*
X102814476Y-89662000D01*
X102719238Y-89423904D01*
X103004952Y-89804857D02*
X102814476Y-89662000D01*
X103004952Y-89519142D01*
%TO.C,C2*%
X111609142Y-78398666D02*
X111656761Y-78446285D01*
X111704380Y-78589142D01*
X111704380Y-78684380D01*
X111656761Y-78827238D01*
X111561523Y-78922476D01*
X111466285Y-78970095D01*
X111275809Y-79017714D01*
X111132952Y-79017714D01*
X110942476Y-78970095D01*
X110847238Y-78922476D01*
X110752000Y-78827238D01*
X110704380Y-78684380D01*
X110704380Y-78589142D01*
X110752000Y-78446285D01*
X110799619Y-78398666D01*
X110799619Y-78017714D02*
X110752000Y-77970095D01*
X110704380Y-77874857D01*
X110704380Y-77636761D01*
X110752000Y-77541523D01*
X110799619Y-77493904D01*
X110894857Y-77446285D01*
X110990095Y-77446285D01*
X111132952Y-77493904D01*
X111704380Y-78065333D01*
X111704380Y-77446285D01*
%TO.C,C4*%
X103973333Y-89765142D02*
X103925714Y-89812761D01*
X103782857Y-89860380D01*
X103687619Y-89860380D01*
X103544761Y-89812761D01*
X103449523Y-89717523D01*
X103401904Y-89622285D01*
X103354285Y-89431809D01*
X103354285Y-89288952D01*
X103401904Y-89098476D01*
X103449523Y-89003238D01*
X103544761Y-88908000D01*
X103687619Y-88860380D01*
X103782857Y-88860380D01*
X103925714Y-88908000D01*
X103973333Y-88955619D01*
X104830476Y-89193714D02*
X104830476Y-89860380D01*
X104592380Y-88812761D02*
X104354285Y-89527047D01*
X104973333Y-89527047D01*
%TO.C,R1*%
X104338380Y-83986666D02*
X103862190Y-84320000D01*
X104338380Y-84558095D02*
X103338380Y-84558095D01*
X103338380Y-84177142D01*
X103386000Y-84081904D01*
X103433619Y-84034285D01*
X103528857Y-83986666D01*
X103671714Y-83986666D01*
X103766952Y-84034285D01*
X103814571Y-84081904D01*
X103862190Y-84177142D01*
X103862190Y-84558095D01*
X104338380Y-83034285D02*
X104338380Y-83605714D01*
X104338380Y-83320000D02*
X103338380Y-83320000D01*
X103481238Y-83415238D01*
X103576476Y-83510476D01*
X103624095Y-83605714D01*
%TO.C,U1*%
X105156095Y-77938380D02*
X105156095Y-78747904D01*
X105203714Y-78843142D01*
X105251333Y-78890761D01*
X105346571Y-78938380D01*
X105537047Y-78938380D01*
X105632285Y-78890761D01*
X105679904Y-78843142D01*
X105727523Y-78747904D01*
X105727523Y-77938380D01*
X106727523Y-78938380D02*
X106156095Y-78938380D01*
X106441809Y-78938380D02*
X106441809Y-77938380D01*
X106346571Y-78081238D01*
X106251333Y-78176476D01*
X106156095Y-78224095D01*
%TO.C,Y1*%
X104171809Y-85320190D02*
X104171809Y-85796380D01*
X103838476Y-84796380D02*
X104171809Y-85320190D01*
X104505142Y-84796380D01*
X105362285Y-85796380D02*
X104790857Y-85796380D01*
X105076571Y-85796380D02*
X105076571Y-84796380D01*
X104981333Y-84939238D01*
X104886095Y-85034476D01*
X104790857Y-85082095D01*
D11*
%TO.C,C1*%
X116472580Y-78230000D02*
X116191420Y-78230000D01*
X116472580Y-79250000D02*
X116191420Y-79250000D01*
%TO.C,C2*%
X108946836Y-77807000D02*
X108731164Y-77807000D01*
X108946836Y-78527000D02*
X108731164Y-78527000D01*
%TO.C,C4*%
X104754000Y-87926836D02*
X104754000Y-87711164D01*
X104034000Y-87926836D02*
X104034000Y-87711164D01*
D12*
%TO.C,D1*%
X116710000Y-84328000D02*
G75*
G03*
X116710000Y-84328000I-50000J0D01*
G01*
D11*
%TO.C,R1*%
X103506000Y-82195641D02*
X103506000Y-81888359D01*
X104266000Y-82195641D02*
X104266000Y-81888359D01*
%TO.C,R4*%
X117728000Y-84989641D02*
X117728000Y-84682359D01*
X116968000Y-84989641D02*
X116968000Y-84682359D01*
%TO.C,SW1*%
X114722000Y-80888000D02*
X114722000Y-83338000D01*
X117942000Y-82688000D02*
X117942000Y-80888000D01*
%TO.C,TP1*%
X113730000Y-80961000D02*
G75*
G03*
X113730000Y-80961000I-700000J0D01*
G01*
%TO.C,TP2*%
X113730000Y-83247000D02*
G75*
G03*
X113730000Y-83247000I-700000J0D01*
G01*
%TO.C,TP3*%
X113730000Y-78675000D02*
G75*
G03*
X113730000Y-78675000I-700000J0D01*
G01*
%TO.C,U1*%
X111172000Y-84306000D02*
X111172000Y-84781000D01*
X105952000Y-79561000D02*
X106427000Y-79561000D01*
X111172000Y-84781000D02*
X110697000Y-84781000D01*
X105952000Y-84306000D02*
X105952000Y-84781000D01*
X105952000Y-80036000D02*
X105952000Y-79561000D01*
X111172000Y-80036000D02*
X111172000Y-79561000D01*
X111172000Y-79561000D02*
X110697000Y-79561000D01*
%TO.C,Y1*%
X105188000Y-89469000D02*
X109188000Y-89469000D01*
X105188000Y-86169000D02*
X105188000Y-89469000D01*
%TO.C,C3*%
X109622000Y-87203164D02*
X109622000Y-87418836D01*
X110342000Y-87203164D02*
X110342000Y-87418836D01*
%TO.C,R2*%
X115670359Y-85726000D02*
X115977641Y-85726000D01*
X115670359Y-86486000D02*
X115977641Y-86486000D01*
%TO.C,Q2*%
X113506000Y-86978000D02*
X111476000Y-86978000D01*
X112096000Y-89298000D02*
X113506000Y-89298000D01*
X113506000Y-88638000D02*
X113506000Y-89298000D01*
X113506000Y-86978000D02*
X113506000Y-87638000D01*
%TO.C,Q1*%
X115906000Y-89298000D02*
X117316000Y-89298000D01*
X117316000Y-86978000D02*
X115286000Y-86978000D01*
X117316000Y-86978000D02*
X117316000Y-87638000D01*
X117316000Y-88638000D02*
X117316000Y-89298000D01*
%TO.C,R3*%
X111860359Y-85726000D02*
X112167641Y-85726000D01*
X111860359Y-86486000D02*
X112167641Y-86486000D01*
%TD*%
M02*
