M48
; DRILL file {KiCad (6.0.0-rc1-310-gf24bdf4067)} date Wed Dec  8 00:21:52 2021
; FORMAT={-:-/ absolute / metric / decimal}
; #@! TF.CreationDate,2021-12-08T00:21:52+09:00
; #@! TF.GenerationSoftware,Kicad,Pcbnew,(6.0.0-rc1-310-gf24bdf4067)
; #@! TF.FileFunction,Plated,1,2,PTH
FMAT,2
METRIC
; #@! TA.AperFunction,Plated,PTH,ViaDrill
T1C0.350
; #@! TA.AperFunction,Plated,PTH,ComponentDrill
T2C1.000
%
G90
G05
T1
X103.505Y-89.281
X103.632Y-77.659
X103.632Y-85.533
X104.351Y-79.205
X104.902Y-81.534
X105.791Y-84.963
X105.918Y-79.502
X106.68Y-85.598
X106.934Y-78.421
X108.572Y-82.181
X110.236Y-78.232
X110.363Y-89.027
X111.252Y-84.673
X111.87Y-85.18
X113.792Y-86.106
X114.046Y-79.756
X114.046Y-82.042
X114.808Y-85.344
X115.824Y-77.724
X117.348Y-79.756
X118.237Y-89.281
X118.364Y-77.978
X118.364Y-83.566
T2
X102.108Y-79.756
X102.108Y-82.296
X102.108Y-84.836
X102.108Y-87.376
X119.888Y-79.756
X119.888Y-82.296
X119.888Y-84.836
X119.888Y-87.376
T0
M30
