%TF.GenerationSoftware,KiCad,Pcbnew,(5.1.8)-1*%
%TF.CreationDate,2021-10-29T19:36:58+09:00*%
%TF.ProjectId,ykts-mcu-node,796b7473-2d6d-4637-952d-6e6f64652e6b,rev?*%
%TF.SameCoordinates,PX6258c20PY49658d0*%
%TF.FileFunction,Soldermask,Top*%
%TF.FilePolarity,Negative*%
%FSLAX46Y46*%
G04 Gerber Fmt 4.6, Leading zero omitted, Abs format (unit mm)*
G04 Created by KiCad (PCBNEW (5.1.8)-1) date 2021-10-29 19:36:58*
%MOMM*%
%LPD*%
G01*
G04 APERTURE LIST*
%ADD10R,0.500000X1.000000*%
%ADD11C,0.603000*%
%ADD12R,0.650000X1.060000*%
%ADD13R,1.150000X1.000000*%
%ADD14R,3.100000X3.100000*%
%ADD15C,1.000000*%
G04 APERTURE END LIST*
D10*
%TO.C,J4*%
X250000Y-2540000D03*
D11*
X0Y-2540000D03*
%TD*%
D12*
%TO.C,SW1*%
X13462000Y-6774000D03*
X12512000Y-6774000D03*
X14412000Y-6774000D03*
X14412000Y-8974000D03*
X13462000Y-8974000D03*
X12512000Y-8974000D03*
%TD*%
D13*
%TO.C,Y1*%
X6237000Y-10476000D03*
X7987000Y-10476000D03*
X7987000Y-11876000D03*
X6237000Y-11876000D03*
%TD*%
D14*
%TO.C,U1*%
X5946000Y-5020000D03*
G36*
G01*
X3883500Y-6895000D02*
X3133500Y-6895000D01*
G75*
G02*
X3071000Y-6832500I0J62500D01*
G01*
X3071000Y-6707500D01*
G75*
G02*
X3133500Y-6645000I62500J0D01*
G01*
X3883500Y-6645000D01*
G75*
G02*
X3946000Y-6707500I0J-62500D01*
G01*
X3946000Y-6832500D01*
G75*
G02*
X3883500Y-6895000I-62500J0D01*
G01*
G37*
G36*
G01*
X3883500Y-6395000D02*
X3133500Y-6395000D01*
G75*
G02*
X3071000Y-6332500I0J62500D01*
G01*
X3071000Y-6207500D01*
G75*
G02*
X3133500Y-6145000I62500J0D01*
G01*
X3883500Y-6145000D01*
G75*
G02*
X3946000Y-6207500I0J-62500D01*
G01*
X3946000Y-6332500D01*
G75*
G02*
X3883500Y-6395000I-62500J0D01*
G01*
G37*
G36*
G01*
X3883500Y-5895000D02*
X3133500Y-5895000D01*
G75*
G02*
X3071000Y-5832500I0J62500D01*
G01*
X3071000Y-5707500D01*
G75*
G02*
X3133500Y-5645000I62500J0D01*
G01*
X3883500Y-5645000D01*
G75*
G02*
X3946000Y-5707500I0J-62500D01*
G01*
X3946000Y-5832500D01*
G75*
G02*
X3883500Y-5895000I-62500J0D01*
G01*
G37*
G36*
G01*
X3883500Y-5395000D02*
X3133500Y-5395000D01*
G75*
G02*
X3071000Y-5332500I0J62500D01*
G01*
X3071000Y-5207500D01*
G75*
G02*
X3133500Y-5145000I62500J0D01*
G01*
X3883500Y-5145000D01*
G75*
G02*
X3946000Y-5207500I0J-62500D01*
G01*
X3946000Y-5332500D01*
G75*
G02*
X3883500Y-5395000I-62500J0D01*
G01*
G37*
G36*
G01*
X3883500Y-4895000D02*
X3133500Y-4895000D01*
G75*
G02*
X3071000Y-4832500I0J62500D01*
G01*
X3071000Y-4707500D01*
G75*
G02*
X3133500Y-4645000I62500J0D01*
G01*
X3883500Y-4645000D01*
G75*
G02*
X3946000Y-4707500I0J-62500D01*
G01*
X3946000Y-4832500D01*
G75*
G02*
X3883500Y-4895000I-62500J0D01*
G01*
G37*
G36*
G01*
X3883500Y-4395000D02*
X3133500Y-4395000D01*
G75*
G02*
X3071000Y-4332500I0J62500D01*
G01*
X3071000Y-4207500D01*
G75*
G02*
X3133500Y-4145000I62500J0D01*
G01*
X3883500Y-4145000D01*
G75*
G02*
X3946000Y-4207500I0J-62500D01*
G01*
X3946000Y-4332500D01*
G75*
G02*
X3883500Y-4395000I-62500J0D01*
G01*
G37*
G36*
G01*
X3883500Y-3895000D02*
X3133500Y-3895000D01*
G75*
G02*
X3071000Y-3832500I0J62500D01*
G01*
X3071000Y-3707500D01*
G75*
G02*
X3133500Y-3645000I62500J0D01*
G01*
X3883500Y-3645000D01*
G75*
G02*
X3946000Y-3707500I0J-62500D01*
G01*
X3946000Y-3832500D01*
G75*
G02*
X3883500Y-3895000I-62500J0D01*
G01*
G37*
G36*
G01*
X3883500Y-3395000D02*
X3133500Y-3395000D01*
G75*
G02*
X3071000Y-3332500I0J62500D01*
G01*
X3071000Y-3207500D01*
G75*
G02*
X3133500Y-3145000I62500J0D01*
G01*
X3883500Y-3145000D01*
G75*
G02*
X3946000Y-3207500I0J-62500D01*
G01*
X3946000Y-3332500D01*
G75*
G02*
X3883500Y-3395000I-62500J0D01*
G01*
G37*
G36*
G01*
X4258500Y-3020000D02*
X4133500Y-3020000D01*
G75*
G02*
X4071000Y-2957500I0J62500D01*
G01*
X4071000Y-2207500D01*
G75*
G02*
X4133500Y-2145000I62500J0D01*
G01*
X4258500Y-2145000D01*
G75*
G02*
X4321000Y-2207500I0J-62500D01*
G01*
X4321000Y-2957500D01*
G75*
G02*
X4258500Y-3020000I-62500J0D01*
G01*
G37*
G36*
G01*
X4758500Y-3020000D02*
X4633500Y-3020000D01*
G75*
G02*
X4571000Y-2957500I0J62500D01*
G01*
X4571000Y-2207500D01*
G75*
G02*
X4633500Y-2145000I62500J0D01*
G01*
X4758500Y-2145000D01*
G75*
G02*
X4821000Y-2207500I0J-62500D01*
G01*
X4821000Y-2957500D01*
G75*
G02*
X4758500Y-3020000I-62500J0D01*
G01*
G37*
G36*
G01*
X5258500Y-3020000D02*
X5133500Y-3020000D01*
G75*
G02*
X5071000Y-2957500I0J62500D01*
G01*
X5071000Y-2207500D01*
G75*
G02*
X5133500Y-2145000I62500J0D01*
G01*
X5258500Y-2145000D01*
G75*
G02*
X5321000Y-2207500I0J-62500D01*
G01*
X5321000Y-2957500D01*
G75*
G02*
X5258500Y-3020000I-62500J0D01*
G01*
G37*
G36*
G01*
X5758500Y-3020000D02*
X5633500Y-3020000D01*
G75*
G02*
X5571000Y-2957500I0J62500D01*
G01*
X5571000Y-2207500D01*
G75*
G02*
X5633500Y-2145000I62500J0D01*
G01*
X5758500Y-2145000D01*
G75*
G02*
X5821000Y-2207500I0J-62500D01*
G01*
X5821000Y-2957500D01*
G75*
G02*
X5758500Y-3020000I-62500J0D01*
G01*
G37*
G36*
G01*
X6258500Y-3020000D02*
X6133500Y-3020000D01*
G75*
G02*
X6071000Y-2957500I0J62500D01*
G01*
X6071000Y-2207500D01*
G75*
G02*
X6133500Y-2145000I62500J0D01*
G01*
X6258500Y-2145000D01*
G75*
G02*
X6321000Y-2207500I0J-62500D01*
G01*
X6321000Y-2957500D01*
G75*
G02*
X6258500Y-3020000I-62500J0D01*
G01*
G37*
G36*
G01*
X6758500Y-3020000D02*
X6633500Y-3020000D01*
G75*
G02*
X6571000Y-2957500I0J62500D01*
G01*
X6571000Y-2207500D01*
G75*
G02*
X6633500Y-2145000I62500J0D01*
G01*
X6758500Y-2145000D01*
G75*
G02*
X6821000Y-2207500I0J-62500D01*
G01*
X6821000Y-2957500D01*
G75*
G02*
X6758500Y-3020000I-62500J0D01*
G01*
G37*
G36*
G01*
X7258500Y-3020000D02*
X7133500Y-3020000D01*
G75*
G02*
X7071000Y-2957500I0J62500D01*
G01*
X7071000Y-2207500D01*
G75*
G02*
X7133500Y-2145000I62500J0D01*
G01*
X7258500Y-2145000D01*
G75*
G02*
X7321000Y-2207500I0J-62500D01*
G01*
X7321000Y-2957500D01*
G75*
G02*
X7258500Y-3020000I-62500J0D01*
G01*
G37*
G36*
G01*
X7758500Y-3020000D02*
X7633500Y-3020000D01*
G75*
G02*
X7571000Y-2957500I0J62500D01*
G01*
X7571000Y-2207500D01*
G75*
G02*
X7633500Y-2145000I62500J0D01*
G01*
X7758500Y-2145000D01*
G75*
G02*
X7821000Y-2207500I0J-62500D01*
G01*
X7821000Y-2957500D01*
G75*
G02*
X7758500Y-3020000I-62500J0D01*
G01*
G37*
G36*
G01*
X8758500Y-3395000D02*
X8008500Y-3395000D01*
G75*
G02*
X7946000Y-3332500I0J62500D01*
G01*
X7946000Y-3207500D01*
G75*
G02*
X8008500Y-3145000I62500J0D01*
G01*
X8758500Y-3145000D01*
G75*
G02*
X8821000Y-3207500I0J-62500D01*
G01*
X8821000Y-3332500D01*
G75*
G02*
X8758500Y-3395000I-62500J0D01*
G01*
G37*
G36*
G01*
X8758500Y-3895000D02*
X8008500Y-3895000D01*
G75*
G02*
X7946000Y-3832500I0J62500D01*
G01*
X7946000Y-3707500D01*
G75*
G02*
X8008500Y-3645000I62500J0D01*
G01*
X8758500Y-3645000D01*
G75*
G02*
X8821000Y-3707500I0J-62500D01*
G01*
X8821000Y-3832500D01*
G75*
G02*
X8758500Y-3895000I-62500J0D01*
G01*
G37*
G36*
G01*
X8758500Y-4395000D02*
X8008500Y-4395000D01*
G75*
G02*
X7946000Y-4332500I0J62500D01*
G01*
X7946000Y-4207500D01*
G75*
G02*
X8008500Y-4145000I62500J0D01*
G01*
X8758500Y-4145000D01*
G75*
G02*
X8821000Y-4207500I0J-62500D01*
G01*
X8821000Y-4332500D01*
G75*
G02*
X8758500Y-4395000I-62500J0D01*
G01*
G37*
G36*
G01*
X8758500Y-4895000D02*
X8008500Y-4895000D01*
G75*
G02*
X7946000Y-4832500I0J62500D01*
G01*
X7946000Y-4707500D01*
G75*
G02*
X8008500Y-4645000I62500J0D01*
G01*
X8758500Y-4645000D01*
G75*
G02*
X8821000Y-4707500I0J-62500D01*
G01*
X8821000Y-4832500D01*
G75*
G02*
X8758500Y-4895000I-62500J0D01*
G01*
G37*
G36*
G01*
X8758500Y-5395000D02*
X8008500Y-5395000D01*
G75*
G02*
X7946000Y-5332500I0J62500D01*
G01*
X7946000Y-5207500D01*
G75*
G02*
X8008500Y-5145000I62500J0D01*
G01*
X8758500Y-5145000D01*
G75*
G02*
X8821000Y-5207500I0J-62500D01*
G01*
X8821000Y-5332500D01*
G75*
G02*
X8758500Y-5395000I-62500J0D01*
G01*
G37*
G36*
G01*
X8758500Y-5895000D02*
X8008500Y-5895000D01*
G75*
G02*
X7946000Y-5832500I0J62500D01*
G01*
X7946000Y-5707500D01*
G75*
G02*
X8008500Y-5645000I62500J0D01*
G01*
X8758500Y-5645000D01*
G75*
G02*
X8821000Y-5707500I0J-62500D01*
G01*
X8821000Y-5832500D01*
G75*
G02*
X8758500Y-5895000I-62500J0D01*
G01*
G37*
G36*
G01*
X8758500Y-6395000D02*
X8008500Y-6395000D01*
G75*
G02*
X7946000Y-6332500I0J62500D01*
G01*
X7946000Y-6207500D01*
G75*
G02*
X8008500Y-6145000I62500J0D01*
G01*
X8758500Y-6145000D01*
G75*
G02*
X8821000Y-6207500I0J-62500D01*
G01*
X8821000Y-6332500D01*
G75*
G02*
X8758500Y-6395000I-62500J0D01*
G01*
G37*
G36*
G01*
X8758500Y-6895000D02*
X8008500Y-6895000D01*
G75*
G02*
X7946000Y-6832500I0J62500D01*
G01*
X7946000Y-6707500D01*
G75*
G02*
X8008500Y-6645000I62500J0D01*
G01*
X8758500Y-6645000D01*
G75*
G02*
X8821000Y-6707500I0J-62500D01*
G01*
X8821000Y-6832500D01*
G75*
G02*
X8758500Y-6895000I-62500J0D01*
G01*
G37*
G36*
G01*
X7758500Y-7895000D02*
X7633500Y-7895000D01*
G75*
G02*
X7571000Y-7832500I0J62500D01*
G01*
X7571000Y-7082500D01*
G75*
G02*
X7633500Y-7020000I62500J0D01*
G01*
X7758500Y-7020000D01*
G75*
G02*
X7821000Y-7082500I0J-62500D01*
G01*
X7821000Y-7832500D01*
G75*
G02*
X7758500Y-7895000I-62500J0D01*
G01*
G37*
G36*
G01*
X7258500Y-7895000D02*
X7133500Y-7895000D01*
G75*
G02*
X7071000Y-7832500I0J62500D01*
G01*
X7071000Y-7082500D01*
G75*
G02*
X7133500Y-7020000I62500J0D01*
G01*
X7258500Y-7020000D01*
G75*
G02*
X7321000Y-7082500I0J-62500D01*
G01*
X7321000Y-7832500D01*
G75*
G02*
X7258500Y-7895000I-62500J0D01*
G01*
G37*
G36*
G01*
X6758500Y-7895000D02*
X6633500Y-7895000D01*
G75*
G02*
X6571000Y-7832500I0J62500D01*
G01*
X6571000Y-7082500D01*
G75*
G02*
X6633500Y-7020000I62500J0D01*
G01*
X6758500Y-7020000D01*
G75*
G02*
X6821000Y-7082500I0J-62500D01*
G01*
X6821000Y-7832500D01*
G75*
G02*
X6758500Y-7895000I-62500J0D01*
G01*
G37*
G36*
G01*
X6258500Y-7895000D02*
X6133500Y-7895000D01*
G75*
G02*
X6071000Y-7832500I0J62500D01*
G01*
X6071000Y-7082500D01*
G75*
G02*
X6133500Y-7020000I62500J0D01*
G01*
X6258500Y-7020000D01*
G75*
G02*
X6321000Y-7082500I0J-62500D01*
G01*
X6321000Y-7832500D01*
G75*
G02*
X6258500Y-7895000I-62500J0D01*
G01*
G37*
G36*
G01*
X5758500Y-7895000D02*
X5633500Y-7895000D01*
G75*
G02*
X5571000Y-7832500I0J62500D01*
G01*
X5571000Y-7082500D01*
G75*
G02*
X5633500Y-7020000I62500J0D01*
G01*
X5758500Y-7020000D01*
G75*
G02*
X5821000Y-7082500I0J-62500D01*
G01*
X5821000Y-7832500D01*
G75*
G02*
X5758500Y-7895000I-62500J0D01*
G01*
G37*
G36*
G01*
X5258500Y-7895000D02*
X5133500Y-7895000D01*
G75*
G02*
X5071000Y-7832500I0J62500D01*
G01*
X5071000Y-7082500D01*
G75*
G02*
X5133500Y-7020000I62500J0D01*
G01*
X5258500Y-7020000D01*
G75*
G02*
X5321000Y-7082500I0J-62500D01*
G01*
X5321000Y-7832500D01*
G75*
G02*
X5258500Y-7895000I-62500J0D01*
G01*
G37*
G36*
G01*
X4758500Y-7895000D02*
X4633500Y-7895000D01*
G75*
G02*
X4571000Y-7832500I0J62500D01*
G01*
X4571000Y-7082500D01*
G75*
G02*
X4633500Y-7020000I62500J0D01*
G01*
X4758500Y-7020000D01*
G75*
G02*
X4821000Y-7082500I0J-62500D01*
G01*
X4821000Y-7832500D01*
G75*
G02*
X4758500Y-7895000I-62500J0D01*
G01*
G37*
G36*
G01*
X4258500Y-7895000D02*
X4133500Y-7895000D01*
G75*
G02*
X4071000Y-7832500I0J62500D01*
G01*
X4071000Y-7082500D01*
G75*
G02*
X4133500Y-7020000I62500J0D01*
G01*
X4258500Y-7020000D01*
G75*
G02*
X4321000Y-7082500I0J-62500D01*
G01*
X4321000Y-7832500D01*
G75*
G02*
X4258500Y-7895000I-62500J0D01*
G01*
G37*
%TD*%
D15*
%TO.C,TP3*%
X10414000Y-2794000D03*
%TD*%
%TO.C,TP2*%
X10414000Y-7366000D03*
%TD*%
%TO.C,TP1*%
X10414000Y-5080000D03*
%TD*%
%TO.C,R4*%
G36*
G01*
X13730000Y-11499000D02*
X13730000Y-11869000D01*
G75*
G02*
X13595000Y-12004000I-135000J0D01*
G01*
X13325000Y-12004000D01*
G75*
G02*
X13190000Y-11869000I0J135000D01*
G01*
X13190000Y-11499000D01*
G75*
G02*
X13325000Y-11364000I135000J0D01*
G01*
X13595000Y-11364000D01*
G75*
G02*
X13730000Y-11499000I0J-135000D01*
G01*
G37*
G36*
G01*
X14750000Y-11499000D02*
X14750000Y-11869000D01*
G75*
G02*
X14615000Y-12004000I-135000J0D01*
G01*
X14345000Y-12004000D01*
G75*
G02*
X14210000Y-11869000I0J135000D01*
G01*
X14210000Y-11499000D01*
G75*
G02*
X14345000Y-11364000I135000J0D01*
G01*
X14615000Y-11364000D01*
G75*
G02*
X14750000Y-11499000I0J-135000D01*
G01*
G37*
%TD*%
%TO.C,R3*%
G36*
G01*
X7606000Y-9075000D02*
X7606000Y-8705000D01*
G75*
G02*
X7741000Y-8570000I135000J0D01*
G01*
X8011000Y-8570000D01*
G75*
G02*
X8146000Y-8705000I0J-135000D01*
G01*
X8146000Y-9075000D01*
G75*
G02*
X8011000Y-9210000I-135000J0D01*
G01*
X7741000Y-9210000D01*
G75*
G02*
X7606000Y-9075000I0J135000D01*
G01*
G37*
G36*
G01*
X6586000Y-9075000D02*
X6586000Y-8705000D01*
G75*
G02*
X6721000Y-8570000I135000J0D01*
G01*
X6991000Y-8570000D01*
G75*
G02*
X7126000Y-8705000I0J-135000D01*
G01*
X7126000Y-9075000D01*
G75*
G02*
X6991000Y-9210000I-135000J0D01*
G01*
X6721000Y-9210000D01*
G75*
G02*
X6586000Y-9075000I0J135000D01*
G01*
G37*
%TD*%
%TO.C,R1*%
G36*
G01*
X2217000Y-4332000D02*
X1847000Y-4332000D01*
G75*
G02*
X1712000Y-4197000I0J135000D01*
G01*
X1712000Y-3927000D01*
G75*
G02*
X1847000Y-3792000I135000J0D01*
G01*
X2217000Y-3792000D01*
G75*
G02*
X2352000Y-3927000I0J-135000D01*
G01*
X2352000Y-4197000D01*
G75*
G02*
X2217000Y-4332000I-135000J0D01*
G01*
G37*
G36*
G01*
X2217000Y-5352000D02*
X1847000Y-5352000D01*
G75*
G02*
X1712000Y-5217000I0J135000D01*
G01*
X1712000Y-4947000D01*
G75*
G02*
X1847000Y-4812000I135000J0D01*
G01*
X2217000Y-4812000D01*
G75*
G02*
X2352000Y-4947000I0J-135000D01*
G01*
X2352000Y-5217000D01*
G75*
G02*
X2217000Y-5352000I-135000J0D01*
G01*
G37*
%TD*%
D10*
%TO.C,J8*%
X16514000Y-2540000D03*
D11*
X16764000Y-2540000D03*
%TD*%
D10*
%TO.C,J7*%
X16514000Y-5080000D03*
D11*
X16764000Y-5080000D03*
%TD*%
D10*
%TO.C,J6*%
X16514000Y-8128000D03*
D11*
X16764000Y-8128000D03*
%TD*%
D10*
%TO.C,J5*%
X16514000Y-10922000D03*
D11*
X16764000Y-10922000D03*
%TD*%
D10*
%TO.C,J3*%
X258000Y-5334000D03*
D11*
X8000Y-5334000D03*
%TD*%
D10*
%TO.C,J2*%
X250000Y-8128000D03*
D11*
X0Y-8128000D03*
%TD*%
D10*
%TO.C,J1*%
X250000Y-10922000D03*
D11*
X0Y-10922000D03*
%TD*%
%TO.C,D1*%
G36*
G01*
X12764000Y-10241500D02*
X12764000Y-10586500D01*
G75*
G02*
X12616500Y-10734000I-147500J0D01*
G01*
X12321500Y-10734000D01*
G75*
G02*
X12174000Y-10586500I0J147500D01*
G01*
X12174000Y-10241500D01*
G75*
G02*
X12321500Y-10094000I147500J0D01*
G01*
X12616500Y-10094000D01*
G75*
G02*
X12764000Y-10241500I0J-147500D01*
G01*
G37*
G36*
G01*
X13734000Y-10241500D02*
X13734000Y-10586500D01*
G75*
G02*
X13586500Y-10734000I-147500J0D01*
G01*
X13291500Y-10734000D01*
G75*
G02*
X13144000Y-10586500I0J147500D01*
G01*
X13144000Y-10241500D01*
G75*
G02*
X13291500Y-10094000I147500J0D01*
G01*
X13586500Y-10094000D01*
G75*
G02*
X13734000Y-10241500I0J-147500D01*
G01*
G37*
%TD*%
%TO.C,C4*%
G36*
G01*
X4118000Y-10498000D02*
X4118000Y-10838000D01*
G75*
G02*
X3978000Y-10978000I-140000J0D01*
G01*
X3698000Y-10978000D01*
G75*
G02*
X3558000Y-10838000I0J140000D01*
G01*
X3558000Y-10498000D01*
G75*
G02*
X3698000Y-10358000I140000J0D01*
G01*
X3978000Y-10358000D01*
G75*
G02*
X4118000Y-10498000I0J-140000D01*
G01*
G37*
G36*
G01*
X5078000Y-10498000D02*
X5078000Y-10838000D01*
G75*
G02*
X4938000Y-10978000I-140000J0D01*
G01*
X4658000Y-10978000D01*
G75*
G02*
X4518000Y-10838000I0J140000D01*
G01*
X4518000Y-10498000D01*
G75*
G02*
X4658000Y-10358000I140000J0D01*
G01*
X4938000Y-10358000D01*
G75*
G02*
X5078000Y-10498000I0J-140000D01*
G01*
G37*
%TD*%
%TO.C,C3*%
G36*
G01*
X9228000Y-11376000D02*
X9568000Y-11376000D01*
G75*
G02*
X9708000Y-11516000I0J-140000D01*
G01*
X9708000Y-11796000D01*
G75*
G02*
X9568000Y-11936000I-140000J0D01*
G01*
X9228000Y-11936000D01*
G75*
G02*
X9088000Y-11796000I0J140000D01*
G01*
X9088000Y-11516000D01*
G75*
G02*
X9228000Y-11376000I140000J0D01*
G01*
G37*
G36*
G01*
X9228000Y-10416000D02*
X9568000Y-10416000D01*
G75*
G02*
X9708000Y-10556000I0J-140000D01*
G01*
X9708000Y-10836000D01*
G75*
G02*
X9568000Y-10976000I-140000J0D01*
G01*
X9228000Y-10976000D01*
G75*
G02*
X9088000Y-10836000I0J140000D01*
G01*
X9088000Y-10556000D01*
G75*
G02*
X9228000Y-10416000I140000J0D01*
G01*
G37*
%TD*%
%TO.C,C2*%
G36*
G01*
X6150000Y-1100000D02*
X6150000Y-1440000D01*
G75*
G02*
X6010000Y-1580000I-140000J0D01*
G01*
X5730000Y-1580000D01*
G75*
G02*
X5590000Y-1440000I0J140000D01*
G01*
X5590000Y-1100000D01*
G75*
G02*
X5730000Y-960000I140000J0D01*
G01*
X6010000Y-960000D01*
G75*
G02*
X6150000Y-1100000I0J-140000D01*
G01*
G37*
G36*
G01*
X7110000Y-1100000D02*
X7110000Y-1440000D01*
G75*
G02*
X6970000Y-1580000I-140000J0D01*
G01*
X6690000Y-1580000D01*
G75*
G02*
X6550000Y-1440000I0J140000D01*
G01*
X6550000Y-1100000D01*
G75*
G02*
X6690000Y-960000I140000J0D01*
G01*
X6970000Y-960000D01*
G75*
G02*
X7110000Y-1100000I0J-140000D01*
G01*
G37*
%TD*%
%TO.C,C1*%
G36*
G01*
X13137000Y-4576000D02*
X13137000Y-5076000D01*
G75*
G02*
X12912000Y-5301000I-225000J0D01*
G01*
X12462000Y-5301000D01*
G75*
G02*
X12237000Y-5076000I0J225000D01*
G01*
X12237000Y-4576000D01*
G75*
G02*
X12462000Y-4351000I225000J0D01*
G01*
X12912000Y-4351000D01*
G75*
G02*
X13137000Y-4576000I0J-225000D01*
G01*
G37*
G36*
G01*
X14687000Y-4576000D02*
X14687000Y-5076000D01*
G75*
G02*
X14462000Y-5301000I-225000J0D01*
G01*
X14012000Y-5301000D01*
G75*
G02*
X13787000Y-5076000I0J225000D01*
G01*
X13787000Y-4576000D01*
G75*
G02*
X14012000Y-4351000I225000J0D01*
G01*
X14462000Y-4351000D01*
G75*
G02*
X14687000Y-4576000I0J-225000D01*
G01*
G37*
%TD*%
M02*
