%TF.GenerationSoftware,KiCad,Pcbnew,(6.0.0-rc1-310-gf24bdf4067)*%
%TF.CreationDate,2021-12-08T00:21:50+09:00*%
%TF.ProjectId,ykts-mcu-node,796b7473-2d6d-4637-952d-6e6f64652e6b,rev?*%
%TF.SameCoordinates,Original*%
%TF.FileFunction,Legend,Bot*%
%TF.FilePolarity,Positive*%
%FSLAX46Y46*%
G04 Gerber Fmt 4.6, Leading zero omitted, Abs format (unit mm)*
G04 Created by KiCad (PCBNEW (6.0.0-rc1-310-gf24bdf4067)) date 2021-12-08 00:21:50*
%MOMM*%
%LPD*%
G01*
G04 APERTURE LIST*
%ADD10C,0.150000*%
G04 APERTURE END LIST*
D10*
X104227333Y-84383619D02*
X103894000Y-84859809D01*
X103655904Y-84383619D02*
X103655904Y-85383619D01*
X104036857Y-85383619D01*
X104132095Y-85336000D01*
X104179714Y-85288380D01*
X104227333Y-85193142D01*
X104227333Y-85050285D01*
X104179714Y-84955047D01*
X104132095Y-84907428D01*
X104036857Y-84859809D01*
X103655904Y-84859809D01*
X104560666Y-85383619D02*
X105227333Y-84383619D01*
X105227333Y-85383619D02*
X104560666Y-84383619D01*
X118308285Y-87780761D02*
X118165428Y-87828380D01*
X117927333Y-87828380D01*
X117832095Y-87780761D01*
X117784476Y-87733142D01*
X117736857Y-87637904D01*
X117736857Y-87542666D01*
X117784476Y-87447428D01*
X117832095Y-87399809D01*
X117927333Y-87352190D01*
X118117809Y-87304571D01*
X118213047Y-87256952D01*
X118260666Y-87209333D01*
X118308285Y-87114095D01*
X118308285Y-87018857D01*
X118260666Y-86923619D01*
X118213047Y-86876000D01*
X118117809Y-86828380D01*
X117879714Y-86828380D01*
X117736857Y-86876000D01*
X117308285Y-87828380D02*
X117308285Y-86828380D01*
X117070190Y-86828380D01*
X116927333Y-86876000D01*
X116832095Y-86971238D01*
X116784476Y-87066476D01*
X116736857Y-87256952D01*
X116736857Y-87399809D01*
X116784476Y-87590285D01*
X116832095Y-87685523D01*
X116927333Y-87780761D01*
X117070190Y-87828380D01*
X117308285Y-87828380D01*
X116355904Y-87542666D02*
X115879714Y-87542666D01*
X116451142Y-87828380D02*
X116117809Y-86828380D01*
X115784476Y-87828380D01*
X117855904Y-79256000D02*
X117951142Y-79208380D01*
X118094000Y-79208380D01*
X118236857Y-79256000D01*
X118332095Y-79351238D01*
X118379714Y-79446476D01*
X118427333Y-79636952D01*
X118427333Y-79779809D01*
X118379714Y-79970285D01*
X118332095Y-80065523D01*
X118236857Y-80160761D01*
X118094000Y-80208380D01*
X117998761Y-80208380D01*
X117855904Y-80160761D01*
X117808285Y-80113142D01*
X117808285Y-79779809D01*
X117998761Y-79779809D01*
X117379714Y-80208380D02*
X117379714Y-79208380D01*
X116808285Y-80208380D01*
X116808285Y-79208380D01*
X116332095Y-80208380D02*
X116332095Y-79208380D01*
X116094000Y-79208380D01*
X115951142Y-79256000D01*
X115855904Y-79351238D01*
X115808285Y-79446476D01*
X115760666Y-79636952D01*
X115760666Y-79779809D01*
X115808285Y-79970285D01*
X115855904Y-80065523D01*
X115951142Y-80160761D01*
X116094000Y-80208380D01*
X116332095Y-80208380D01*
X118427333Y-81748380D02*
X118094000Y-82748380D01*
X117760666Y-81748380D01*
X116855904Y-82653142D02*
X116903523Y-82700761D01*
X117046380Y-82748380D01*
X117141619Y-82748380D01*
X117284476Y-82700761D01*
X117379714Y-82605523D01*
X117427333Y-82510285D01*
X117474952Y-82319809D01*
X117474952Y-82176952D01*
X117427333Y-81986476D01*
X117379714Y-81891238D01*
X117284476Y-81796000D01*
X117141619Y-81748380D01*
X117046380Y-81748380D01*
X116903523Y-81796000D01*
X116855904Y-81843619D01*
X115855904Y-82653142D02*
X115903523Y-82700761D01*
X116046380Y-82748380D01*
X116141619Y-82748380D01*
X116284476Y-82700761D01*
X116379714Y-82605523D01*
X116427333Y-82510285D01*
X116474952Y-82319809D01*
X116474952Y-82176952D01*
X116427333Y-81986476D01*
X116379714Y-81891238D01*
X116284476Y-81796000D01*
X116141619Y-81748380D01*
X116046380Y-81748380D01*
X115903523Y-81796000D01*
X115855904Y-81843619D01*
X103544857Y-82872000D02*
X104544857Y-82872000D01*
X104354380Y-81589619D02*
X104021047Y-82065809D01*
X103782952Y-81589619D02*
X103782952Y-82589619D01*
X104163904Y-82589619D01*
X104259142Y-82542000D01*
X104306761Y-82494380D01*
X104354380Y-82399142D01*
X104354380Y-82256285D01*
X104306761Y-82161047D01*
X104259142Y-82113428D01*
X104163904Y-82065809D01*
X103782952Y-82065809D01*
X104544857Y-82872000D02*
X105497238Y-82872000D01*
X104735333Y-81637238D02*
X104878190Y-81589619D01*
X105116285Y-81589619D01*
X105211523Y-81637238D01*
X105259142Y-81684857D01*
X105306761Y-81780095D01*
X105306761Y-81875333D01*
X105259142Y-81970571D01*
X105211523Y-82018190D01*
X105116285Y-82065809D01*
X104925809Y-82113428D01*
X104830571Y-82161047D01*
X104782952Y-82208666D01*
X104735333Y-82303904D01*
X104735333Y-82399142D01*
X104782952Y-82494380D01*
X104830571Y-82542000D01*
X104925809Y-82589619D01*
X105163904Y-82589619D01*
X105306761Y-82542000D01*
X105497238Y-82872000D02*
X106259142Y-82872000D01*
X105592476Y-82589619D02*
X106163904Y-82589619D01*
X105878190Y-81589619D02*
X105878190Y-82589619D01*
X103600476Y-79303619D02*
X103600476Y-80303619D01*
X103981428Y-80303619D01*
X104076666Y-80256000D01*
X104124285Y-80208380D01*
X104171904Y-80113142D01*
X104171904Y-79970285D01*
X104124285Y-79875047D01*
X104076666Y-79827428D01*
X103981428Y-79779809D01*
X103600476Y-79779809D01*
X104505238Y-80303619D02*
X104743333Y-79303619D01*
X104933809Y-80017904D01*
X105124285Y-79303619D01*
X105362380Y-80303619D01*
X105743333Y-79827428D02*
X106076666Y-79827428D01*
X106219523Y-79303619D02*
X105743333Y-79303619D01*
X105743333Y-80303619D01*
X106219523Y-80303619D01*
X106648095Y-79303619D02*
X106648095Y-80303619D01*
X107219523Y-79303619D01*
X107219523Y-80303619D01*
X118284476Y-85240761D02*
X118141619Y-85288380D01*
X117903523Y-85288380D01*
X117808285Y-85240761D01*
X117760666Y-85193142D01*
X117713047Y-85097904D01*
X117713047Y-85002666D01*
X117760666Y-84907428D01*
X117808285Y-84859809D01*
X117903523Y-84812190D01*
X118094000Y-84764571D01*
X118189238Y-84716952D01*
X118236857Y-84669333D01*
X118284476Y-84574095D01*
X118284476Y-84478857D01*
X118236857Y-84383619D01*
X118189238Y-84336000D01*
X118094000Y-84288380D01*
X117855904Y-84288380D01*
X117713047Y-84336000D01*
X116713047Y-85193142D02*
X116760666Y-85240761D01*
X116903523Y-85288380D01*
X116998761Y-85288380D01*
X117141619Y-85240761D01*
X117236857Y-85145523D01*
X117284476Y-85050285D01*
X117332095Y-84859809D01*
X117332095Y-84716952D01*
X117284476Y-84526476D01*
X117236857Y-84431238D01*
X117141619Y-84336000D01*
X116998761Y-84288380D01*
X116903523Y-84288380D01*
X116760666Y-84336000D01*
X116713047Y-84383619D01*
X115808285Y-85288380D02*
X116284476Y-85288380D01*
X116284476Y-84288380D01*
X103632095Y-87923619D02*
X104203523Y-87923619D01*
X103917809Y-86923619D02*
X103917809Y-87923619D01*
X104441619Y-87923619D02*
X105108285Y-86923619D01*
X105108285Y-87923619D02*
X104441619Y-86923619D01*
M02*
