G04 #@! TF.GenerationSoftware,KiCad,Pcbnew,(5.1.4)-1*
G04 #@! TF.CreationDate,2020-03-24T18:05:48+09:00*
G04 #@! TF.ProjectId,cubesat-power,63756265-7361-4742-9d70-6f7765722e6b,1*
G04 #@! TF.SameCoordinates,Original*
G04 #@! TF.FileFunction,Copper,L2,Bot*
G04 #@! TF.FilePolarity,Positive*
%FSLAX46Y46*%
G04 Gerber Fmt 4.6, Leading zero omitted, Abs format (unit mm)*
G04 Created by KiCad (PCBNEW (5.1.4)-1) date 2020-03-24 18:05:48*
%MOMM*%
%LPD*%
G04 APERTURE LIST*
%ADD10O,1.700000X1.700000*%
%ADD11R,1.700000X1.700000*%
%ADD12R,1.300000X1.300000*%
%ADD13C,1.300000*%
%ADD14C,0.500000*%
%ADD15C,0.610000*%
%ADD16C,0.800000*%
%ADD17C,1.200000*%
%ADD18C,0.500000*%
%ADD19C,1.000000*%
%ADD20C,0.300000*%
%ADD21C,0.250000*%
%ADD22C,0.254000*%
G04 APERTURE END LIST*
D10*
X150420000Y-139540000D03*
X150420000Y-137000000D03*
X152960000Y-139540000D03*
X152960000Y-137000000D03*
X155500000Y-139540000D03*
D11*
X155500000Y-137000000D03*
D10*
X123700000Y-67540000D03*
X123700000Y-65000000D03*
X121160000Y-67540000D03*
X121160000Y-65000000D03*
X118620000Y-67540000D03*
X118620000Y-65000000D03*
X116080000Y-67540000D03*
X116080000Y-65000000D03*
X113540000Y-67540000D03*
X113540000Y-65000000D03*
X111000000Y-67540000D03*
D11*
X111000000Y-65000000D03*
D10*
X178260000Y-67540000D03*
X178260000Y-65000000D03*
X175720000Y-67540000D03*
X175720000Y-65000000D03*
X173180000Y-67540000D03*
X173180000Y-65000000D03*
X170640000Y-67540000D03*
X170640000Y-65000000D03*
X168100000Y-67540000D03*
X168100000Y-65000000D03*
X165560000Y-67540000D03*
X165560000Y-65000000D03*
X163020000Y-67540000D03*
X163020000Y-65000000D03*
X160480000Y-67540000D03*
X160480000Y-65000000D03*
X157940000Y-67540000D03*
X157940000Y-65000000D03*
X155400000Y-67540000D03*
X155400000Y-65000000D03*
X152860000Y-67540000D03*
X152860000Y-65000000D03*
X150320000Y-67540000D03*
X150320000Y-65000000D03*
X147780000Y-67540000D03*
X147780000Y-65000000D03*
X145240000Y-67540000D03*
X145240000Y-65000000D03*
X142700000Y-67540000D03*
X142700000Y-65000000D03*
X140160000Y-67540000D03*
X140160000Y-65000000D03*
X137620000Y-67540000D03*
X137620000Y-65000000D03*
X135080000Y-67540000D03*
X135080000Y-65000000D03*
X132540000Y-67540000D03*
X132540000Y-65000000D03*
X130000000Y-67540000D03*
D11*
X130000000Y-65000000D03*
D12*
X178250000Y-83500000D03*
D13*
X180790000Y-83500000D03*
X179520000Y-82230000D03*
D12*
X178250000Y-76000000D03*
D13*
X180790000Y-76000000D03*
X179520000Y-74730000D03*
D12*
X170903332Y-83500000D03*
D13*
X173443332Y-83500000D03*
X172173332Y-82230000D03*
D12*
X170903332Y-76000000D03*
D13*
X173443332Y-76000000D03*
X172173332Y-74730000D03*
D10*
X159790000Y-129000000D03*
D11*
X157250000Y-129000000D03*
D10*
X150790000Y-129000000D03*
D11*
X148250000Y-129000000D03*
D10*
X186040000Y-117714284D03*
D11*
X183500000Y-117714284D03*
D10*
X186040000Y-122071426D03*
D11*
X183500000Y-122071426D03*
D10*
X186040000Y-126428568D03*
D11*
X183500000Y-126428568D03*
D10*
X186040000Y-130785710D03*
D11*
X183500000Y-130785710D03*
D10*
X159420000Y-139550000D03*
X161960000Y-139550000D03*
D11*
X164500000Y-139550000D03*
D10*
X169010000Y-139550000D03*
D11*
X171550000Y-139550000D03*
D10*
X176110000Y-139550000D03*
D11*
X178650000Y-139550000D03*
D10*
X186040000Y-97000000D03*
D11*
X183500000Y-97000000D03*
D14*
X132800000Y-135500000D03*
X133750000Y-134925000D03*
X133750000Y-136075000D03*
X134700000Y-135500000D03*
X113800000Y-135500000D03*
X114750000Y-134925000D03*
X114750000Y-136075000D03*
X115700000Y-135500000D03*
D10*
X186040000Y-107000000D03*
D11*
X183500000Y-107000000D03*
D14*
X132800000Y-120500000D03*
X133750000Y-119925000D03*
X133750000Y-121075000D03*
X134700000Y-120500000D03*
X113800000Y-120000000D03*
X114750000Y-119425000D03*
X114750000Y-120575000D03*
X115700000Y-120000000D03*
D15*
X108250000Y-78000000D03*
X116500000Y-101000000D03*
D16*
X126500000Y-90000000D03*
X121000000Y-95500000D03*
X121000000Y-97750000D03*
X139750000Y-99000000D03*
X145750000Y-105000000D03*
X142750000Y-102000000D03*
X149750000Y-93000000D03*
X170750000Y-95000000D03*
X170250000Y-98000000D03*
X170250000Y-108000000D03*
X170500000Y-105000000D03*
D15*
X120000000Y-104500000D03*
D16*
X123250000Y-102500000D03*
X142750000Y-92500000D03*
X140750000Y-84000000D03*
X145750000Y-87000000D03*
D15*
X124500000Y-74250000D03*
X129750000Y-74250000D03*
X129750000Y-79250000D03*
X149500000Y-123500000D03*
X149500000Y-114750000D03*
X153750000Y-114750000D03*
X153750000Y-123500000D03*
X153750000Y-109000000D03*
X159750000Y-109000000D03*
X139250000Y-140000000D03*
X145250000Y-140000000D03*
X116000000Y-86250000D03*
X114500000Y-82000000D03*
X118250000Y-75000000D03*
X107750000Y-88250000D03*
X106750000Y-93750000D03*
X111750000Y-96500000D03*
X111500000Y-105000000D03*
X116500000Y-114000000D03*
X108000000Y-126750000D03*
X119250000Y-126750000D03*
X121250000Y-140500000D03*
X126250000Y-140500000D03*
X159500000Y-134000000D03*
X165750000Y-134000000D03*
X179250000Y-106750000D03*
X179250000Y-96750000D03*
X158250000Y-76250000D03*
X166250000Y-76250000D03*
X166250000Y-84000000D03*
X129750000Y-138500000D03*
X133750000Y-140000000D03*
X115500000Y-108250000D03*
X133750000Y-71500000D03*
D16*
X131250000Y-102500000D03*
X125750000Y-104500000D03*
D17*
X121250000Y-106500000D03*
X130250000Y-95500000D03*
X142750000Y-87500000D03*
X158750000Y-91000000D03*
D15*
X169588155Y-95088155D03*
X165500000Y-106750000D03*
X168405000Y-108250000D03*
X169500000Y-100250000D03*
D17*
X118000000Y-70500000D03*
X108750000Y-111500000D03*
X123500000Y-80500000D03*
X127750000Y-125250000D03*
X119250000Y-111500000D03*
X108750000Y-106500000D03*
X124750000Y-131500000D03*
X124750000Y-126500000D03*
X110750000Y-93500000D03*
D15*
X113250000Y-101930000D03*
X117080000Y-97750000D03*
X149120000Y-86500000D03*
X150750000Y-89000000D03*
D16*
X151250000Y-81000000D03*
X136750000Y-82000000D03*
X151250000Y-82000000D03*
X139750000Y-82000000D03*
D15*
X113500000Y-98000000D03*
X121000000Y-108750000D03*
X130000000Y-102750000D03*
X132500000Y-105250000D03*
X128750000Y-102750000D03*
X132000000Y-106000000D03*
X123000000Y-101280000D03*
X125500000Y-101250000D03*
X172250000Y-109000000D03*
X172250000Y-99000000D03*
D17*
X168500000Y-119500000D03*
X165500000Y-116500000D03*
D16*
X173750000Y-115000000D03*
X173750000Y-102500000D03*
D17*
X120250000Y-82500000D03*
X115750000Y-73500000D03*
D15*
X121250000Y-92500000D03*
X119500000Y-90750000D03*
X125000000Y-95000000D03*
X111000000Y-89500000D03*
X125572758Y-94427242D03*
X107750000Y-83000000D03*
X168405000Y-107000000D03*
X144155010Y-105006487D03*
X167750000Y-97000000D03*
X142500000Y-105750002D03*
X142250000Y-99000000D03*
X153000000Y-133000000D03*
X146750000Y-104000000D03*
X143340656Y-99090656D03*
X151750000Y-86500000D03*
X150250000Y-87500000D03*
X144500000Y-99250000D03*
X170247995Y-95753007D03*
X151250000Y-100500000D03*
X170250000Y-106000000D03*
X151250000Y-101499978D03*
X151500000Y-103655000D03*
X167250000Y-90250000D03*
X154000000Y-105094990D03*
X166000000Y-90250000D03*
X168750000Y-90250000D03*
X170250000Y-90250000D03*
D18*
X128255001Y-101994999D02*
X125750000Y-104500000D01*
X131250000Y-102500000D02*
X130744999Y-101994999D01*
X130744999Y-101994999D02*
X128255001Y-101994999D01*
D19*
X121250000Y-106500000D02*
X121737402Y-106500000D01*
X121737402Y-106500000D02*
X130250000Y-97987402D01*
X130250000Y-97987402D02*
X130250000Y-95500000D01*
X142750000Y-87500000D02*
X143750000Y-87500000D01*
X143750000Y-87500000D02*
X147250000Y-91000000D01*
X147250000Y-91000000D02*
X158750000Y-91000000D01*
D20*
X165500000Y-91000000D02*
X158750000Y-91000000D01*
X169588155Y-95088155D02*
X165500000Y-91000000D01*
X168405000Y-108250000D02*
X167000000Y-108250000D01*
X167000000Y-108250000D02*
X165500000Y-106750000D01*
X167860002Y-91000000D02*
X165500000Y-91000000D01*
X171500001Y-94639999D02*
X167860002Y-91000000D01*
X171500001Y-95499999D02*
X171500001Y-94639999D01*
X168500000Y-98500000D02*
X171500001Y-95499999D01*
X168500000Y-99250000D02*
X168500000Y-98500000D01*
X169500000Y-100250000D02*
X168500000Y-99250000D01*
D19*
X104250000Y-107000000D02*
X108750000Y-111500000D01*
X104250000Y-76000000D02*
X104250000Y-107000000D01*
X118000000Y-70500000D02*
X109750000Y-70500000D01*
X109750000Y-70500000D02*
X104250000Y-76000000D01*
X131550001Y-88550001D02*
X131550001Y-92300001D01*
X123500000Y-80500000D02*
X131550001Y-88550001D01*
X133505001Y-94255001D02*
X133505001Y-111744999D01*
X131550001Y-92300001D02*
X133505001Y-94255001D01*
X133505001Y-111744999D02*
X127750000Y-117500000D01*
X127750000Y-117500000D02*
X127750000Y-125250000D01*
X119250000Y-111500000D02*
X113750000Y-111500000D01*
X113750000Y-111500000D02*
X108750000Y-106500000D01*
X124750000Y-131500000D02*
X124750000Y-126500000D01*
X105750000Y-103500000D02*
X105750000Y-98500000D01*
X108750000Y-106500000D02*
X105750000Y-103500000D01*
X105750000Y-98500000D02*
X110750000Y-93500000D01*
X120910000Y-67790000D02*
X121160000Y-67540000D01*
X105750000Y-88500000D02*
X105750000Y-76512598D01*
X110750000Y-93500000D02*
X105750000Y-88500000D01*
X105750000Y-76512598D02*
X110262598Y-72000000D01*
X110262598Y-72000000D02*
X120250000Y-72000000D01*
X120250000Y-72000000D02*
X120910000Y-71340000D01*
X120910000Y-71340000D02*
X120910000Y-67790000D01*
D21*
X113250000Y-101930000D02*
X113250000Y-99500000D01*
X113250000Y-99500000D02*
X115000000Y-97750000D01*
X115000000Y-97750000D02*
X117080000Y-97750000D01*
X149120000Y-86500000D02*
X149120000Y-87302402D01*
X149120000Y-87302402D02*
X149120000Y-87370000D01*
X149120000Y-87370000D02*
X150750000Y-89000000D01*
D20*
X151250000Y-81000000D02*
X137750000Y-81000000D01*
X137750000Y-81000000D02*
X136750000Y-82000000D01*
X151250000Y-82000000D02*
X139750000Y-82000000D01*
X113500000Y-98000000D02*
X112750000Y-98000000D01*
X112750000Y-98000000D02*
X112000000Y-98750000D01*
X119100598Y-108750000D02*
X121000000Y-108750000D01*
X112000000Y-98750000D02*
X112000000Y-101649402D01*
X112000000Y-101649402D02*
X119100598Y-108750000D01*
X130000000Y-102750000D02*
X132500000Y-105250000D01*
X128750000Y-102750000D02*
X132000000Y-106000000D01*
X123000000Y-101280000D02*
X125470000Y-101280000D01*
X125470000Y-101280000D02*
X125500000Y-101250000D01*
X181500000Y-109000000D02*
X183500000Y-107000000D01*
X172250000Y-109000000D02*
X181500000Y-109000000D01*
X181500000Y-99000000D02*
X183500000Y-97000000D01*
X172250000Y-99000000D02*
X181500000Y-99000000D01*
D19*
X168500000Y-119500000D02*
X165500000Y-116500000D01*
D18*
X171494999Y-104755001D02*
X173750000Y-102500000D01*
X173750000Y-115000000D02*
X171494999Y-112744999D01*
X171494999Y-112744999D02*
X171494999Y-104755001D01*
D19*
X120250000Y-82500000D02*
X115750000Y-78000000D01*
X115750000Y-78000000D02*
X115750000Y-73500000D01*
D20*
X121250000Y-92500000D02*
X119500000Y-90750000D01*
X125000000Y-95000000D02*
X119500000Y-89500000D01*
X119500000Y-89500000D02*
X111000000Y-89500000D01*
X120145508Y-88999992D02*
X119999992Y-88999992D01*
X125572758Y-94427242D02*
X120145508Y-88999992D01*
X119844999Y-88844999D02*
X112844999Y-88844999D01*
X119999992Y-88999992D02*
X119844999Y-88844999D01*
X112844999Y-88844999D02*
X107750000Y-83750000D01*
X107750000Y-83750000D02*
X107750000Y-83000000D01*
X146661497Y-102500000D02*
X144155010Y-105006487D01*
X163905000Y-102500000D02*
X146661497Y-102500000D01*
X168405000Y-107000000D02*
X163905000Y-102500000D01*
X149792878Y-97000000D02*
X142500000Y-104292878D01*
X167750000Y-97000000D02*
X149792878Y-97000000D01*
X142500000Y-104292878D02*
X142500000Y-105750002D01*
X150420000Y-135670000D02*
X150420000Y-137000000D01*
X147750000Y-133000000D02*
X150420000Y-135670000D01*
X146250000Y-133000000D02*
X147750000Y-133000000D01*
X140000000Y-126750000D02*
X146250000Y-133000000D01*
X142250000Y-99000000D02*
X140000000Y-101250000D01*
X140000000Y-101250000D02*
X140000000Y-126750000D01*
X153000000Y-133000000D02*
X150750000Y-130750000D01*
X150750000Y-130750000D02*
X147250000Y-130750000D01*
X147250000Y-130750000D02*
X142250000Y-125750000D01*
X142250000Y-125750000D02*
X146750000Y-121250000D01*
X146750000Y-121250000D02*
X146750000Y-104000000D01*
X148210000Y-132250000D02*
X152960000Y-137000000D01*
X146500000Y-132250000D02*
X148210000Y-132250000D01*
X140750000Y-126500000D02*
X146500000Y-132250000D01*
X143340656Y-99090656D02*
X140750000Y-101681312D01*
X140750000Y-101681312D02*
X140750000Y-126500000D01*
D21*
X151750000Y-86500000D02*
X151250000Y-86500000D01*
X151250000Y-86500000D02*
X150250000Y-87500000D01*
D20*
X155500000Y-137000000D02*
X150250000Y-131750000D01*
X150250000Y-131750000D02*
X150000000Y-131500000D01*
X150000000Y-131500000D02*
X147000000Y-131500000D01*
X147000000Y-131500000D02*
X141500000Y-126000000D01*
X144389998Y-99250000D02*
X144500000Y-99250000D01*
X141500000Y-126000000D02*
X141500000Y-102139998D01*
X141500000Y-102139998D02*
X144389998Y-99250000D01*
X170247995Y-95753007D02*
X165501002Y-100500000D01*
X165501002Y-100500000D02*
X151250000Y-100500000D01*
X170250000Y-106000000D02*
X165749978Y-101499978D01*
X165749978Y-101499978D02*
X151374390Y-101499978D01*
X151374390Y-101499978D02*
X151250000Y-101499978D01*
X167250000Y-90250000D02*
X171000000Y-86500000D01*
X172173332Y-76210002D02*
X172173332Y-74730000D01*
X174443333Y-78480003D02*
X172173332Y-76210002D01*
X174443333Y-83980001D02*
X174443333Y-78480003D01*
X171923334Y-86500000D02*
X174443333Y-83980001D01*
X171000000Y-86500000D02*
X171923334Y-86500000D01*
X151500000Y-103655000D02*
X152560010Y-103655000D01*
X152560010Y-103655000D02*
X154000000Y-105094990D01*
X166083334Y-90250000D02*
X166000000Y-90250000D01*
X172173332Y-82230000D02*
X172173332Y-84160002D01*
X172173332Y-84160002D02*
X166083334Y-90250000D01*
X179520000Y-79610454D02*
X175500000Y-83630454D01*
X179520000Y-74730000D02*
X179520000Y-79610454D01*
X175500000Y-83630454D02*
X175500000Y-84250000D01*
X175500000Y-84250000D02*
X172000000Y-87750000D01*
X172000000Y-87750000D02*
X171250000Y-87750000D01*
X171250000Y-87750000D02*
X168750000Y-90250000D01*
X173430002Y-90250000D02*
X170250000Y-90250000D01*
X179520000Y-82230000D02*
X179520000Y-84160002D01*
X179520000Y-84160002D02*
X173430002Y-90250000D01*
D22*
G36*
X186123000Y-65998000D02*
G01*
X186025358Y-65998000D01*
X185633746Y-66075896D01*
X185264855Y-66228696D01*
X184932863Y-66450526D01*
X184650526Y-66732863D01*
X184428696Y-67064855D01*
X184275896Y-67433746D01*
X184198000Y-67825358D01*
X184198000Y-68224642D01*
X184275896Y-68616254D01*
X184428696Y-68985145D01*
X184650526Y-69317137D01*
X184932863Y-69599474D01*
X185264855Y-69821304D01*
X185633746Y-69974104D01*
X186025358Y-70052000D01*
X186123000Y-70052000D01*
X186123000Y-139948000D01*
X186025358Y-139948000D01*
X185633746Y-140025896D01*
X185264855Y-140178696D01*
X184932863Y-140400526D01*
X184650526Y-140682863D01*
X184428696Y-141014855D01*
X184275896Y-141383746D01*
X184198000Y-141775358D01*
X184198000Y-142174642D01*
X184275896Y-142566254D01*
X184428696Y-142935145D01*
X184650526Y-143267137D01*
X184932863Y-143549474D01*
X185264855Y-143771304D01*
X185633746Y-143924104D01*
X186025358Y-144002000D01*
X186123000Y-144002000D01*
X186123000Y-146373000D01*
X103377000Y-146373000D01*
X103377000Y-144002000D01*
X103474642Y-144002000D01*
X103866254Y-143924104D01*
X104235145Y-143771304D01*
X104567137Y-143549474D01*
X104849474Y-143267137D01*
X105071304Y-142935145D01*
X105224104Y-142566254D01*
X105302000Y-142174642D01*
X105302000Y-141775358D01*
X105224104Y-141383746D01*
X105071304Y-141014855D01*
X104849474Y-140682863D01*
X104567137Y-140400526D01*
X104235145Y-140178696D01*
X103866254Y-140025896D01*
X103474642Y-139948000D01*
X103377000Y-139948000D01*
X103377000Y-126398849D01*
X123723000Y-126398849D01*
X123723000Y-126601151D01*
X123762467Y-126799565D01*
X123823001Y-126945706D01*
X123823000Y-131054296D01*
X123762467Y-131200435D01*
X123723000Y-131398849D01*
X123723000Y-131601151D01*
X123762467Y-131799565D01*
X123839885Y-131986467D01*
X123952277Y-132154674D01*
X124095326Y-132297723D01*
X124263533Y-132410115D01*
X124450435Y-132487533D01*
X124648849Y-132527000D01*
X124851151Y-132527000D01*
X125049565Y-132487533D01*
X125236467Y-132410115D01*
X125404674Y-132297723D01*
X125547723Y-132154674D01*
X125660115Y-131986467D01*
X125737533Y-131799565D01*
X125777000Y-131601151D01*
X125777000Y-131398849D01*
X125737533Y-131200435D01*
X125677000Y-131054297D01*
X125677000Y-126945703D01*
X125737533Y-126799565D01*
X125777000Y-126601151D01*
X125777000Y-126398849D01*
X125737533Y-126200435D01*
X125660115Y-126013533D01*
X125547723Y-125845326D01*
X125404674Y-125702277D01*
X125236467Y-125589885D01*
X125049565Y-125512467D01*
X124851151Y-125473000D01*
X124648849Y-125473000D01*
X124450435Y-125512467D01*
X124263533Y-125589885D01*
X124095326Y-125702277D01*
X123952277Y-125845326D01*
X123839885Y-126013533D01*
X123762467Y-126200435D01*
X123723000Y-126398849D01*
X103377000Y-126398849D01*
X103377000Y-107315519D01*
X103389420Y-107356463D01*
X103475499Y-107517505D01*
X103562312Y-107623287D01*
X103562317Y-107623292D01*
X103591342Y-107658659D01*
X103626708Y-107687684D01*
X107779351Y-111840327D01*
X107839885Y-111986467D01*
X107952277Y-112154674D01*
X108095326Y-112297723D01*
X108263533Y-112410115D01*
X108450435Y-112487533D01*
X108648849Y-112527000D01*
X108851151Y-112527000D01*
X109049565Y-112487533D01*
X109236467Y-112410115D01*
X109404674Y-112297723D01*
X109547723Y-112154674D01*
X109660115Y-111986467D01*
X109737533Y-111799565D01*
X109777000Y-111601151D01*
X109777000Y-111398849D01*
X109737533Y-111200435D01*
X109660115Y-111013533D01*
X109547723Y-110845326D01*
X109404674Y-110702277D01*
X109236467Y-110589885D01*
X109090327Y-110529351D01*
X105177000Y-106616025D01*
X105177000Y-104237975D01*
X107779351Y-106840327D01*
X107839885Y-106986467D01*
X107952277Y-107154674D01*
X108095326Y-107297723D01*
X108263533Y-107410115D01*
X108409674Y-107470649D01*
X113062316Y-112123292D01*
X113091341Y-112158659D01*
X113126708Y-112187684D01*
X113126712Y-112187688D01*
X113232494Y-112274501D01*
X113393536Y-112360580D01*
X113568276Y-112413587D01*
X113704462Y-112427000D01*
X113704473Y-112427000D01*
X113750000Y-112431484D01*
X113795527Y-112427000D01*
X118804297Y-112427000D01*
X118950435Y-112487533D01*
X119148849Y-112527000D01*
X119351151Y-112527000D01*
X119549565Y-112487533D01*
X119736467Y-112410115D01*
X119904674Y-112297723D01*
X120047723Y-112154674D01*
X120160115Y-111986467D01*
X120237533Y-111799565D01*
X120277000Y-111601151D01*
X120277000Y-111398849D01*
X120237533Y-111200435D01*
X120160115Y-111013533D01*
X120047723Y-110845326D01*
X119904674Y-110702277D01*
X119736467Y-110589885D01*
X119549565Y-110512467D01*
X119351151Y-110473000D01*
X119148849Y-110473000D01*
X118950435Y-110512467D01*
X118804297Y-110573000D01*
X114133976Y-110573000D01*
X109720649Y-106159674D01*
X109660115Y-106013533D01*
X109547723Y-105845326D01*
X109404674Y-105702277D01*
X109236467Y-105589885D01*
X109090327Y-105529351D01*
X106677000Y-103116025D01*
X106677000Y-98883975D01*
X106810975Y-98750000D01*
X111420210Y-98750000D01*
X111423000Y-98778331D01*
X111423001Y-101621061D01*
X111420210Y-101649402D01*
X111431349Y-101762513D01*
X111456891Y-101846710D01*
X111464344Y-101871278D01*
X111517922Y-101971517D01*
X111548840Y-102009190D01*
X111571963Y-102037366D01*
X111571966Y-102037369D01*
X111590027Y-102059376D01*
X111612034Y-102077437D01*
X118672563Y-109137967D01*
X118690624Y-109159974D01*
X118712631Y-109178035D01*
X118712633Y-109178037D01*
X118732578Y-109194405D01*
X118778483Y-109232079D01*
X118878722Y-109285657D01*
X118923380Y-109299204D01*
X118987486Y-109318651D01*
X119045484Y-109324363D01*
X119072262Y-109327000D01*
X119072267Y-109327000D01*
X119100598Y-109329790D01*
X119128929Y-109327000D01*
X120545976Y-109327000D01*
X120653268Y-109398690D01*
X120786483Y-109453870D01*
X120927904Y-109482000D01*
X121072096Y-109482000D01*
X121213517Y-109453870D01*
X121346732Y-109398690D01*
X121466623Y-109318582D01*
X121568582Y-109216623D01*
X121648690Y-109096732D01*
X121703870Y-108963517D01*
X121732000Y-108822096D01*
X121732000Y-108677904D01*
X121703870Y-108536483D01*
X121648690Y-108403268D01*
X121568582Y-108283377D01*
X121466623Y-108181418D01*
X121346732Y-108101310D01*
X121213517Y-108046130D01*
X121072096Y-108018000D01*
X120927904Y-108018000D01*
X120786483Y-108046130D01*
X120653268Y-108101310D01*
X120545976Y-108173000D01*
X119339600Y-108173000D01*
X117565449Y-106398849D01*
X120223000Y-106398849D01*
X120223000Y-106601151D01*
X120262467Y-106799565D01*
X120339885Y-106986467D01*
X120452277Y-107154674D01*
X120595326Y-107297723D01*
X120763533Y-107410115D01*
X120950435Y-107487533D01*
X121148849Y-107527000D01*
X121351151Y-107527000D01*
X121549565Y-107487533D01*
X121694968Y-107427305D01*
X121737402Y-107431484D01*
X121782929Y-107427000D01*
X121782940Y-107427000D01*
X121919126Y-107413587D01*
X122093866Y-107360580D01*
X122254907Y-107274501D01*
X122396061Y-107158659D01*
X122425090Y-107123287D01*
X124930288Y-104618089D01*
X124954782Y-104741227D01*
X125017123Y-104891731D01*
X125107628Y-105027181D01*
X125222819Y-105142372D01*
X125358269Y-105232877D01*
X125508773Y-105295218D01*
X125668548Y-105327000D01*
X125831452Y-105327000D01*
X125991227Y-105295218D01*
X126141731Y-105232877D01*
X126277181Y-105142372D01*
X126392372Y-105027181D01*
X126482877Y-104891731D01*
X126545218Y-104741227D01*
X126564840Y-104642582D01*
X128105067Y-103102355D01*
X128181418Y-103216623D01*
X128283377Y-103318582D01*
X128403268Y-103398690D01*
X128536483Y-103453870D01*
X128663043Y-103479044D01*
X131270956Y-106086958D01*
X131296130Y-106213517D01*
X131351310Y-106346732D01*
X131431418Y-106466623D01*
X131533377Y-106568582D01*
X131653268Y-106648690D01*
X131786483Y-106703870D01*
X131927904Y-106732000D01*
X132072096Y-106732000D01*
X132213517Y-106703870D01*
X132346732Y-106648690D01*
X132466623Y-106568582D01*
X132568582Y-106466623D01*
X132578002Y-106452525D01*
X132578002Y-111361022D01*
X127126713Y-116812312D01*
X127091341Y-116841341D01*
X127062313Y-116876712D01*
X127062312Y-116876713D01*
X126975499Y-116982495D01*
X126973376Y-116986467D01*
X126889420Y-117143537D01*
X126836413Y-117318277D01*
X126823000Y-117454463D01*
X126823000Y-117454473D01*
X126818516Y-117500000D01*
X126823000Y-117545527D01*
X126823001Y-124804294D01*
X126762467Y-124950435D01*
X126723000Y-125148849D01*
X126723000Y-125351151D01*
X126762467Y-125549565D01*
X126839885Y-125736467D01*
X126952277Y-125904674D01*
X127095326Y-126047723D01*
X127263533Y-126160115D01*
X127450435Y-126237533D01*
X127648849Y-126277000D01*
X127851151Y-126277000D01*
X128049565Y-126237533D01*
X128236467Y-126160115D01*
X128404674Y-126047723D01*
X128547723Y-125904674D01*
X128660115Y-125736467D01*
X128737533Y-125549565D01*
X128777000Y-125351151D01*
X128777000Y-125148849D01*
X128737533Y-124950435D01*
X128677000Y-124804297D01*
X128677000Y-117883975D01*
X134128293Y-112432683D01*
X134163660Y-112403658D01*
X134192685Y-112368291D01*
X134192688Y-112368288D01*
X134279502Y-112262505D01*
X134337139Y-112154674D01*
X134365581Y-112101463D01*
X134418588Y-111926723D01*
X134432001Y-111790537D01*
X134432001Y-111790525D01*
X134436485Y-111745000D01*
X134432001Y-111699475D01*
X134432001Y-101250000D01*
X139420210Y-101250000D01*
X139423000Y-101278331D01*
X139423001Y-126721659D01*
X139420210Y-126750000D01*
X139431349Y-126863111D01*
X139464344Y-126971876D01*
X139517922Y-127072115D01*
X139524222Y-127079791D01*
X139571963Y-127137964D01*
X139571966Y-127137967D01*
X139590027Y-127159974D01*
X139612034Y-127178035D01*
X145821961Y-133387962D01*
X145840026Y-133409974D01*
X145927885Y-133482079D01*
X146028124Y-133535657D01*
X146072782Y-133549204D01*
X146136888Y-133568651D01*
X146194886Y-133574363D01*
X146221664Y-133577000D01*
X146221669Y-133577000D01*
X146250000Y-133579790D01*
X146278331Y-133577000D01*
X147510999Y-133577000D01*
X149811352Y-135877354D01*
X149707104Y-135933076D01*
X149512656Y-136092656D01*
X149353076Y-136287104D01*
X149234498Y-136508949D01*
X149161478Y-136749664D01*
X149136822Y-137000000D01*
X149161478Y-137250336D01*
X149234498Y-137491051D01*
X149353076Y-137712896D01*
X149512656Y-137907344D01*
X149707104Y-138066924D01*
X149928949Y-138185502D01*
X150169664Y-138258522D01*
X150357274Y-138277000D01*
X150482726Y-138277000D01*
X150670336Y-138258522D01*
X150911051Y-138185502D01*
X151132896Y-138066924D01*
X151327344Y-137907344D01*
X151486924Y-137712896D01*
X151605502Y-137491051D01*
X151678522Y-137250336D01*
X151690000Y-137133798D01*
X151701478Y-137250336D01*
X151774498Y-137491051D01*
X151893076Y-137712896D01*
X152052656Y-137907344D01*
X152247104Y-138066924D01*
X152468949Y-138185502D01*
X152709664Y-138258522D01*
X152826202Y-138270000D01*
X152709664Y-138281478D01*
X152468949Y-138354498D01*
X152247104Y-138473076D01*
X152052656Y-138632656D01*
X151893076Y-138827104D01*
X151774498Y-139048949D01*
X151701478Y-139289664D01*
X151676822Y-139540000D01*
X151701478Y-139790336D01*
X151774498Y-140031051D01*
X151893076Y-140252896D01*
X152052656Y-140447344D01*
X152247104Y-140606924D01*
X152468949Y-140725502D01*
X152709664Y-140798522D01*
X152897274Y-140817000D01*
X153022726Y-140817000D01*
X153210336Y-140798522D01*
X153451051Y-140725502D01*
X153672896Y-140606924D01*
X153867344Y-140447344D01*
X154026924Y-140252896D01*
X154145502Y-140031051D01*
X154218522Y-139790336D01*
X154230000Y-139673798D01*
X154241478Y-139790336D01*
X154314498Y-140031051D01*
X154433076Y-140252896D01*
X154592656Y-140447344D01*
X154787104Y-140606924D01*
X155008949Y-140725502D01*
X155249664Y-140798522D01*
X155437274Y-140817000D01*
X155562726Y-140817000D01*
X155750336Y-140798522D01*
X155991051Y-140725502D01*
X156212896Y-140606924D01*
X156407344Y-140447344D01*
X156566924Y-140252896D01*
X156685502Y-140031051D01*
X156758522Y-139790336D01*
X156782193Y-139550000D01*
X160676822Y-139550000D01*
X160701478Y-139800336D01*
X160774498Y-140041051D01*
X160893076Y-140262896D01*
X161052656Y-140457344D01*
X161247104Y-140616924D01*
X161468949Y-140735502D01*
X161709664Y-140808522D01*
X161897274Y-140827000D01*
X162022726Y-140827000D01*
X162210336Y-140808522D01*
X162451051Y-140735502D01*
X162672896Y-140616924D01*
X162867344Y-140457344D01*
X163026924Y-140262896D01*
X163145502Y-140041051D01*
X163218522Y-139800336D01*
X163220934Y-139775847D01*
X163220934Y-140400000D01*
X163229178Y-140483707D01*
X163253595Y-140564196D01*
X163293245Y-140638376D01*
X163346605Y-140703395D01*
X163411624Y-140756755D01*
X163485804Y-140796405D01*
X163566293Y-140820822D01*
X163650000Y-140829066D01*
X165350000Y-140829066D01*
X165433707Y-140820822D01*
X165514196Y-140796405D01*
X165588376Y-140756755D01*
X165653395Y-140703395D01*
X165706755Y-140638376D01*
X165746405Y-140564196D01*
X165770822Y-140483707D01*
X165779066Y-140400000D01*
X165779066Y-139550000D01*
X167726822Y-139550000D01*
X167751478Y-139800336D01*
X167824498Y-140041051D01*
X167943076Y-140262896D01*
X168102656Y-140457344D01*
X168297104Y-140616924D01*
X168518949Y-140735502D01*
X168759664Y-140808522D01*
X168947274Y-140827000D01*
X169072726Y-140827000D01*
X169260336Y-140808522D01*
X169501051Y-140735502D01*
X169722896Y-140616924D01*
X169917344Y-140457344D01*
X170076924Y-140262896D01*
X170195502Y-140041051D01*
X170268522Y-139800336D01*
X170293178Y-139550000D01*
X174826822Y-139550000D01*
X174851478Y-139800336D01*
X174924498Y-140041051D01*
X175043076Y-140262896D01*
X175202656Y-140457344D01*
X175397104Y-140616924D01*
X175618949Y-140735502D01*
X175859664Y-140808522D01*
X176047274Y-140827000D01*
X176172726Y-140827000D01*
X176360336Y-140808522D01*
X176601051Y-140735502D01*
X176822896Y-140616924D01*
X177017344Y-140457344D01*
X177176924Y-140262896D01*
X177295502Y-140041051D01*
X177368522Y-139800336D01*
X177393178Y-139550000D01*
X177368522Y-139299664D01*
X177295502Y-139058949D01*
X177176924Y-138837104D01*
X177017344Y-138642656D01*
X176822896Y-138483076D01*
X176601051Y-138364498D01*
X176360336Y-138291478D01*
X176172726Y-138273000D01*
X176047274Y-138273000D01*
X175859664Y-138291478D01*
X175618949Y-138364498D01*
X175397104Y-138483076D01*
X175202656Y-138642656D01*
X175043076Y-138837104D01*
X174924498Y-139058949D01*
X174851478Y-139299664D01*
X174826822Y-139550000D01*
X170293178Y-139550000D01*
X170268522Y-139299664D01*
X170195502Y-139058949D01*
X170076924Y-138837104D01*
X169917344Y-138642656D01*
X169722896Y-138483076D01*
X169501051Y-138364498D01*
X169260336Y-138291478D01*
X169072726Y-138273000D01*
X168947274Y-138273000D01*
X168759664Y-138291478D01*
X168518949Y-138364498D01*
X168297104Y-138483076D01*
X168102656Y-138642656D01*
X167943076Y-138837104D01*
X167824498Y-139058949D01*
X167751478Y-139299664D01*
X167726822Y-139550000D01*
X165779066Y-139550000D01*
X165779066Y-138700000D01*
X165770822Y-138616293D01*
X165746405Y-138535804D01*
X165706755Y-138461624D01*
X165653395Y-138396605D01*
X165588376Y-138343245D01*
X165514196Y-138303595D01*
X165433707Y-138279178D01*
X165350000Y-138270934D01*
X163650000Y-138270934D01*
X163566293Y-138279178D01*
X163485804Y-138303595D01*
X163411624Y-138343245D01*
X163346605Y-138396605D01*
X163293245Y-138461624D01*
X163253595Y-138535804D01*
X163229178Y-138616293D01*
X163220934Y-138700000D01*
X163220934Y-139324153D01*
X163218522Y-139299664D01*
X163145502Y-139058949D01*
X163026924Y-138837104D01*
X162867344Y-138642656D01*
X162672896Y-138483076D01*
X162451051Y-138364498D01*
X162210336Y-138291478D01*
X162022726Y-138273000D01*
X161897274Y-138273000D01*
X161709664Y-138291478D01*
X161468949Y-138364498D01*
X161247104Y-138483076D01*
X161052656Y-138642656D01*
X160893076Y-138837104D01*
X160774498Y-139058949D01*
X160701478Y-139299664D01*
X160676822Y-139550000D01*
X156782193Y-139550000D01*
X156783178Y-139540000D01*
X156758522Y-139289664D01*
X156685502Y-139048949D01*
X156566924Y-138827104D01*
X156407344Y-138632656D01*
X156212896Y-138473076D01*
X155991051Y-138354498D01*
X155750336Y-138281478D01*
X155725847Y-138279066D01*
X156350000Y-138279066D01*
X156433707Y-138270822D01*
X156514196Y-138246405D01*
X156588376Y-138206755D01*
X156653395Y-138153395D01*
X156706755Y-138088376D01*
X156746405Y-138014196D01*
X156770822Y-137933707D01*
X156779066Y-137850000D01*
X156779066Y-136150000D01*
X156770822Y-136066293D01*
X156746405Y-135985804D01*
X156706755Y-135911624D01*
X156653395Y-135846605D01*
X156588376Y-135793245D01*
X156514196Y-135753595D01*
X156433707Y-135729178D01*
X156350000Y-135720934D01*
X155036936Y-135720934D01*
X153048001Y-133732000D01*
X153072096Y-133732000D01*
X153213517Y-133703870D01*
X153346732Y-133648690D01*
X153466623Y-133568582D01*
X153568582Y-133466623D01*
X153648690Y-133346732D01*
X153703870Y-133213517D01*
X153732000Y-133072096D01*
X153732000Y-132927904D01*
X153703870Y-132786483D01*
X153648690Y-132653268D01*
X153568582Y-132533377D01*
X153466623Y-132431418D01*
X153346732Y-132351310D01*
X153213517Y-132296130D01*
X153086957Y-132270956D01*
X151178037Y-130362036D01*
X151159974Y-130340026D01*
X151072115Y-130267921D01*
X151049391Y-130255775D01*
X151281051Y-130185502D01*
X151502896Y-130066924D01*
X151697344Y-129907344D01*
X151856924Y-129712896D01*
X151975502Y-129491051D01*
X152048522Y-129250336D01*
X152073178Y-129000000D01*
X152048522Y-128749664D01*
X151975502Y-128508949D01*
X151856924Y-128287104D01*
X151744406Y-128150000D01*
X155970934Y-128150000D01*
X155970934Y-129850000D01*
X155979178Y-129933707D01*
X156003595Y-130014196D01*
X156043245Y-130088376D01*
X156096605Y-130153395D01*
X156161624Y-130206755D01*
X156235804Y-130246405D01*
X156316293Y-130270822D01*
X156400000Y-130279066D01*
X158100000Y-130279066D01*
X158183707Y-130270822D01*
X158264196Y-130246405D01*
X158338376Y-130206755D01*
X158403395Y-130153395D01*
X158456755Y-130088376D01*
X158496405Y-130014196D01*
X158520822Y-129933707D01*
X158529066Y-129850000D01*
X158529066Y-129225847D01*
X158531478Y-129250336D01*
X158604498Y-129491051D01*
X158723076Y-129712896D01*
X158882656Y-129907344D01*
X159077104Y-130066924D01*
X159298949Y-130185502D01*
X159539664Y-130258522D01*
X159727274Y-130277000D01*
X159852726Y-130277000D01*
X160040336Y-130258522D01*
X160281051Y-130185502D01*
X160502896Y-130066924D01*
X160662780Y-129935710D01*
X182220934Y-129935710D01*
X182220934Y-131635710D01*
X182229178Y-131719417D01*
X182253595Y-131799906D01*
X182293245Y-131874086D01*
X182346605Y-131939105D01*
X182411624Y-131992465D01*
X182485804Y-132032115D01*
X182566293Y-132056532D01*
X182650000Y-132064776D01*
X184350000Y-132064776D01*
X184433707Y-132056532D01*
X184514196Y-132032115D01*
X184588376Y-131992465D01*
X184653395Y-131939105D01*
X184706755Y-131874086D01*
X184746405Y-131799906D01*
X184770822Y-131719417D01*
X184779066Y-131635710D01*
X184779066Y-129935710D01*
X184770822Y-129852003D01*
X184746405Y-129771514D01*
X184706755Y-129697334D01*
X184653395Y-129632315D01*
X184588376Y-129578955D01*
X184514196Y-129539305D01*
X184433707Y-129514888D01*
X184350000Y-129506644D01*
X182650000Y-129506644D01*
X182566293Y-129514888D01*
X182485804Y-129539305D01*
X182411624Y-129578955D01*
X182346605Y-129632315D01*
X182293245Y-129697334D01*
X182253595Y-129771514D01*
X182229178Y-129852003D01*
X182220934Y-129935710D01*
X160662780Y-129935710D01*
X160697344Y-129907344D01*
X160856924Y-129712896D01*
X160975502Y-129491051D01*
X161048522Y-129250336D01*
X161073178Y-129000000D01*
X161048522Y-128749664D01*
X160975502Y-128508949D01*
X160856924Y-128287104D01*
X160697344Y-128092656D01*
X160502896Y-127933076D01*
X160281051Y-127814498D01*
X160040336Y-127741478D01*
X159852726Y-127723000D01*
X159727274Y-127723000D01*
X159539664Y-127741478D01*
X159298949Y-127814498D01*
X159077104Y-127933076D01*
X158882656Y-128092656D01*
X158723076Y-128287104D01*
X158604498Y-128508949D01*
X158531478Y-128749664D01*
X158529066Y-128774153D01*
X158529066Y-128150000D01*
X158520822Y-128066293D01*
X158496405Y-127985804D01*
X158456755Y-127911624D01*
X158403395Y-127846605D01*
X158338376Y-127793245D01*
X158264196Y-127753595D01*
X158183707Y-127729178D01*
X158100000Y-127720934D01*
X156400000Y-127720934D01*
X156316293Y-127729178D01*
X156235804Y-127753595D01*
X156161624Y-127793245D01*
X156096605Y-127846605D01*
X156043245Y-127911624D01*
X156003595Y-127985804D01*
X155979178Y-128066293D01*
X155970934Y-128150000D01*
X151744406Y-128150000D01*
X151697344Y-128092656D01*
X151502896Y-127933076D01*
X151281051Y-127814498D01*
X151040336Y-127741478D01*
X150852726Y-127723000D01*
X150727274Y-127723000D01*
X150539664Y-127741478D01*
X150298949Y-127814498D01*
X150077104Y-127933076D01*
X149882656Y-128092656D01*
X149723076Y-128287104D01*
X149604498Y-128508949D01*
X149531478Y-128749664D01*
X149529066Y-128774153D01*
X149529066Y-128150000D01*
X149520822Y-128066293D01*
X149496405Y-127985804D01*
X149456755Y-127911624D01*
X149403395Y-127846605D01*
X149338376Y-127793245D01*
X149264196Y-127753595D01*
X149183707Y-127729178D01*
X149100000Y-127720934D01*
X147400000Y-127720934D01*
X147316293Y-127729178D01*
X147235804Y-127753595D01*
X147161624Y-127793245D01*
X147096605Y-127846605D01*
X147043245Y-127911624D01*
X147003595Y-127985804D01*
X146979178Y-128066293D01*
X146970934Y-128150000D01*
X146970934Y-129654933D01*
X143066001Y-125750000D01*
X143237433Y-125578568D01*
X182220934Y-125578568D01*
X182220934Y-127278568D01*
X182229178Y-127362275D01*
X182253595Y-127442764D01*
X182293245Y-127516944D01*
X182346605Y-127581963D01*
X182411624Y-127635323D01*
X182485804Y-127674973D01*
X182566293Y-127699390D01*
X182650000Y-127707634D01*
X184350000Y-127707634D01*
X184433707Y-127699390D01*
X184514196Y-127674973D01*
X184588376Y-127635323D01*
X184653395Y-127581963D01*
X184706755Y-127516944D01*
X184746405Y-127442764D01*
X184770822Y-127362275D01*
X184779066Y-127278568D01*
X184779066Y-125578568D01*
X184770822Y-125494861D01*
X184746405Y-125414372D01*
X184706755Y-125340192D01*
X184653395Y-125275173D01*
X184588376Y-125221813D01*
X184514196Y-125182163D01*
X184433707Y-125157746D01*
X184350000Y-125149502D01*
X182650000Y-125149502D01*
X182566293Y-125157746D01*
X182485804Y-125182163D01*
X182411624Y-125221813D01*
X182346605Y-125275173D01*
X182293245Y-125340192D01*
X182253595Y-125414372D01*
X182229178Y-125494861D01*
X182220934Y-125578568D01*
X143237433Y-125578568D01*
X147137969Y-121678033D01*
X147159974Y-121659974D01*
X147232079Y-121572115D01*
X147285657Y-121471876D01*
X147299204Y-121427218D01*
X147318651Y-121363112D01*
X147329790Y-121250001D01*
X147327000Y-121221670D01*
X147327000Y-121221426D01*
X182220934Y-121221426D01*
X182220934Y-122921426D01*
X182229178Y-123005133D01*
X182253595Y-123085622D01*
X182293245Y-123159802D01*
X182346605Y-123224821D01*
X182411624Y-123278181D01*
X182485804Y-123317831D01*
X182566293Y-123342248D01*
X182650000Y-123350492D01*
X184350000Y-123350492D01*
X184433707Y-123342248D01*
X184514196Y-123317831D01*
X184588376Y-123278181D01*
X184653395Y-123224821D01*
X184706755Y-123159802D01*
X184746405Y-123085622D01*
X184770822Y-123005133D01*
X184779066Y-122921426D01*
X184779066Y-121221426D01*
X184770822Y-121137719D01*
X184746405Y-121057230D01*
X184706755Y-120983050D01*
X184653395Y-120918031D01*
X184588376Y-120864671D01*
X184514196Y-120825021D01*
X184433707Y-120800604D01*
X184350000Y-120792360D01*
X182650000Y-120792360D01*
X182566293Y-120800604D01*
X182485804Y-120825021D01*
X182411624Y-120864671D01*
X182346605Y-120918031D01*
X182293245Y-120983050D01*
X182253595Y-121057230D01*
X182229178Y-121137719D01*
X182220934Y-121221426D01*
X147327000Y-121221426D01*
X147327000Y-116398849D01*
X164473000Y-116398849D01*
X164473000Y-116601151D01*
X164512467Y-116799565D01*
X164589885Y-116986467D01*
X164702277Y-117154674D01*
X164845326Y-117297723D01*
X165013533Y-117410115D01*
X165159674Y-117470649D01*
X167529351Y-119840327D01*
X167589885Y-119986467D01*
X167702277Y-120154674D01*
X167845326Y-120297723D01*
X168013533Y-120410115D01*
X168200435Y-120487533D01*
X168398849Y-120527000D01*
X168601151Y-120527000D01*
X168799565Y-120487533D01*
X168986467Y-120410115D01*
X169154674Y-120297723D01*
X169297723Y-120154674D01*
X169410115Y-119986467D01*
X169487533Y-119799565D01*
X169527000Y-119601151D01*
X169527000Y-119398849D01*
X169487533Y-119200435D01*
X169410115Y-119013533D01*
X169297723Y-118845326D01*
X169154674Y-118702277D01*
X168986467Y-118589885D01*
X168840327Y-118529351D01*
X167175260Y-116864284D01*
X182220934Y-116864284D01*
X182220934Y-118564284D01*
X182229178Y-118647991D01*
X182253595Y-118728480D01*
X182293245Y-118802660D01*
X182346605Y-118867679D01*
X182411624Y-118921039D01*
X182485804Y-118960689D01*
X182566293Y-118985106D01*
X182650000Y-118993350D01*
X184350000Y-118993350D01*
X184433707Y-118985106D01*
X184514196Y-118960689D01*
X184588376Y-118921039D01*
X184653395Y-118867679D01*
X184706755Y-118802660D01*
X184746405Y-118728480D01*
X184770822Y-118647991D01*
X184779066Y-118564284D01*
X184779066Y-116864284D01*
X184770822Y-116780577D01*
X184746405Y-116700088D01*
X184706755Y-116625908D01*
X184653395Y-116560889D01*
X184588376Y-116507529D01*
X184514196Y-116467879D01*
X184433707Y-116443462D01*
X184350000Y-116435218D01*
X182650000Y-116435218D01*
X182566293Y-116443462D01*
X182485804Y-116467879D01*
X182411624Y-116507529D01*
X182346605Y-116560889D01*
X182293245Y-116625908D01*
X182253595Y-116700088D01*
X182229178Y-116780577D01*
X182220934Y-116864284D01*
X167175260Y-116864284D01*
X166470649Y-116159674D01*
X166410115Y-116013533D01*
X166297723Y-115845326D01*
X166154674Y-115702277D01*
X165986467Y-115589885D01*
X165799565Y-115512467D01*
X165601151Y-115473000D01*
X165398849Y-115473000D01*
X165200435Y-115512467D01*
X165013533Y-115589885D01*
X164845326Y-115702277D01*
X164702277Y-115845326D01*
X164589885Y-116013533D01*
X164512467Y-116200435D01*
X164473000Y-116398849D01*
X147327000Y-116398849D01*
X147327000Y-104454024D01*
X147398690Y-104346732D01*
X147453870Y-104213517D01*
X147482000Y-104072096D01*
X147482000Y-103927904D01*
X147453870Y-103786483D01*
X147398690Y-103653268D01*
X147318582Y-103533377D01*
X147216623Y-103431418D01*
X147096732Y-103351310D01*
X146963517Y-103296130D01*
X146822096Y-103268000D01*
X146709498Y-103268000D01*
X146900498Y-103077000D01*
X151047472Y-103077000D01*
X151033377Y-103086418D01*
X150931418Y-103188377D01*
X150851310Y-103308268D01*
X150796130Y-103441483D01*
X150768000Y-103582904D01*
X150768000Y-103727096D01*
X150796130Y-103868517D01*
X150851310Y-104001732D01*
X150931418Y-104121623D01*
X151033377Y-104223582D01*
X151153268Y-104303690D01*
X151286483Y-104358870D01*
X151427904Y-104387000D01*
X151572096Y-104387000D01*
X151713517Y-104358870D01*
X151846732Y-104303690D01*
X151954024Y-104232000D01*
X152321009Y-104232000D01*
X153270956Y-105181947D01*
X153296130Y-105308507D01*
X153351310Y-105441722D01*
X153431418Y-105561613D01*
X153533377Y-105663572D01*
X153653268Y-105743680D01*
X153786483Y-105798860D01*
X153927904Y-105826990D01*
X154072096Y-105826990D01*
X154213517Y-105798860D01*
X154346732Y-105743680D01*
X154466623Y-105663572D01*
X154568582Y-105561613D01*
X154648690Y-105441722D01*
X154703870Y-105308507D01*
X154732000Y-105167086D01*
X154732000Y-105022894D01*
X154703870Y-104881473D01*
X154648690Y-104748258D01*
X154568582Y-104628367D01*
X154466623Y-104526408D01*
X154346732Y-104446300D01*
X154213517Y-104391120D01*
X154086957Y-104365946D01*
X152988049Y-103267038D01*
X152969984Y-103245026D01*
X152882125Y-103172921D01*
X152781886Y-103119343D01*
X152717780Y-103099897D01*
X152673121Y-103086349D01*
X152618055Y-103080926D01*
X152588346Y-103078000D01*
X152588341Y-103078000D01*
X152578187Y-103077000D01*
X163665999Y-103077000D01*
X167675956Y-107086958D01*
X167701130Y-107213517D01*
X167756310Y-107346732D01*
X167836418Y-107466623D01*
X167938377Y-107568582D01*
X168022813Y-107625000D01*
X167950976Y-107673000D01*
X167239001Y-107673000D01*
X166229044Y-106663043D01*
X166203870Y-106536483D01*
X166148690Y-106403268D01*
X166068582Y-106283377D01*
X165966623Y-106181418D01*
X165846732Y-106101310D01*
X165713517Y-106046130D01*
X165572096Y-106018000D01*
X165427904Y-106018000D01*
X165286483Y-106046130D01*
X165153268Y-106101310D01*
X165033377Y-106181418D01*
X164931418Y-106283377D01*
X164851310Y-106403268D01*
X164796130Y-106536483D01*
X164768000Y-106677904D01*
X164768000Y-106822096D01*
X164796130Y-106963517D01*
X164851310Y-107096732D01*
X164931418Y-107216623D01*
X165033377Y-107318582D01*
X165153268Y-107398690D01*
X165286483Y-107453870D01*
X165413043Y-107479044D01*
X166571961Y-108637962D01*
X166590026Y-108659974D01*
X166677885Y-108732079D01*
X166778124Y-108785657D01*
X166886888Y-108818650D01*
X166971664Y-108827000D01*
X166971670Y-108827000D01*
X166999999Y-108829790D01*
X167028328Y-108827000D01*
X167950976Y-108827000D01*
X168058268Y-108898690D01*
X168191483Y-108953870D01*
X168332904Y-108982000D01*
X168477096Y-108982000D01*
X168618517Y-108953870D01*
X168751732Y-108898690D01*
X168871623Y-108818582D01*
X168973582Y-108716623D01*
X169053690Y-108596732D01*
X169108870Y-108463517D01*
X169137000Y-108322096D01*
X169137000Y-108177904D01*
X169108870Y-108036483D01*
X169053690Y-107903268D01*
X168973582Y-107783377D01*
X168871623Y-107681418D01*
X168787187Y-107625000D01*
X168871623Y-107568582D01*
X168973582Y-107466623D01*
X169053690Y-107346732D01*
X169108870Y-107213517D01*
X169137000Y-107072096D01*
X169137000Y-106927904D01*
X169108870Y-106786483D01*
X169053690Y-106653268D01*
X168973582Y-106533377D01*
X168871623Y-106431418D01*
X168751732Y-106351310D01*
X168618517Y-106296130D01*
X168491958Y-106270956D01*
X164333039Y-102112038D01*
X164314974Y-102090026D01*
X164299075Y-102076978D01*
X165510977Y-102076978D01*
X169520956Y-106086958D01*
X169546130Y-106213517D01*
X169601310Y-106346732D01*
X169681418Y-106466623D01*
X169783377Y-106568582D01*
X169903268Y-106648690D01*
X170036483Y-106703870D01*
X170177904Y-106732000D01*
X170322096Y-106732000D01*
X170463517Y-106703870D01*
X170596732Y-106648690D01*
X170716623Y-106568582D01*
X170818000Y-106467205D01*
X170817999Y-112711754D01*
X170814725Y-112744999D01*
X170817999Y-112778244D01*
X170817999Y-112778250D01*
X170827795Y-112877713D01*
X170866507Y-113005328D01*
X170929371Y-113122939D01*
X171013972Y-113226025D01*
X171039799Y-113247221D01*
X172935160Y-115142583D01*
X172954782Y-115241227D01*
X173017123Y-115391731D01*
X173107628Y-115527181D01*
X173222819Y-115642372D01*
X173358269Y-115732877D01*
X173508773Y-115795218D01*
X173668548Y-115827000D01*
X173831452Y-115827000D01*
X173991227Y-115795218D01*
X174141731Y-115732877D01*
X174277181Y-115642372D01*
X174392372Y-115527181D01*
X174482877Y-115391731D01*
X174545218Y-115241227D01*
X174577000Y-115081452D01*
X174577000Y-114918548D01*
X174545218Y-114758773D01*
X174482877Y-114608269D01*
X174392372Y-114472819D01*
X174277181Y-114357628D01*
X174141731Y-114267123D01*
X173991227Y-114204782D01*
X173892583Y-114185160D01*
X172171999Y-112464577D01*
X172171999Y-109730825D01*
X172177904Y-109732000D01*
X172322096Y-109732000D01*
X172463517Y-109703870D01*
X172596732Y-109648690D01*
X172704024Y-109577000D01*
X181471669Y-109577000D01*
X181500000Y-109579790D01*
X181528331Y-109577000D01*
X181528336Y-109577000D01*
X181558045Y-109574074D01*
X181613111Y-109568651D01*
X181657770Y-109555103D01*
X181721876Y-109535657D01*
X181822115Y-109482079D01*
X181909974Y-109409974D01*
X181928039Y-109387962D01*
X183036936Y-108279066D01*
X184350000Y-108279066D01*
X184433707Y-108270822D01*
X184514196Y-108246405D01*
X184588376Y-108206755D01*
X184653395Y-108153395D01*
X184706755Y-108088376D01*
X184746405Y-108014196D01*
X184770822Y-107933707D01*
X184779066Y-107850000D01*
X184779066Y-106150000D01*
X184770822Y-106066293D01*
X184746405Y-105985804D01*
X184706755Y-105911624D01*
X184653395Y-105846605D01*
X184588376Y-105793245D01*
X184514196Y-105753595D01*
X184433707Y-105729178D01*
X184350000Y-105720934D01*
X182650000Y-105720934D01*
X182566293Y-105729178D01*
X182485804Y-105753595D01*
X182411624Y-105793245D01*
X182346605Y-105846605D01*
X182293245Y-105911624D01*
X182253595Y-105985804D01*
X182229178Y-106066293D01*
X182220934Y-106150000D01*
X182220934Y-107463064D01*
X181260999Y-108423000D01*
X172704024Y-108423000D01*
X172596732Y-108351310D01*
X172463517Y-108296130D01*
X172322096Y-108268000D01*
X172177904Y-108268000D01*
X172171999Y-108269175D01*
X172171999Y-105035423D01*
X173892583Y-103314840D01*
X173991227Y-103295218D01*
X174141731Y-103232877D01*
X174277181Y-103142372D01*
X174392372Y-103027181D01*
X174482877Y-102891731D01*
X174545218Y-102741227D01*
X174577000Y-102581452D01*
X174577000Y-102418548D01*
X174545218Y-102258773D01*
X174482877Y-102108269D01*
X174392372Y-101972819D01*
X174277181Y-101857628D01*
X174141731Y-101767123D01*
X173991227Y-101704782D01*
X173831452Y-101673000D01*
X173668548Y-101673000D01*
X173508773Y-101704782D01*
X173358269Y-101767123D01*
X173222819Y-101857628D01*
X173107628Y-101972819D01*
X173017123Y-102108269D01*
X172954782Y-102258773D01*
X172935160Y-102357417D01*
X171039799Y-104252779D01*
X171013973Y-104273974D01*
X170992778Y-104299800D01*
X170992775Y-104299803D01*
X170929371Y-104377061D01*
X170866507Y-104494672D01*
X170827795Y-104622287D01*
X170814725Y-104755001D01*
X170818000Y-104788256D01*
X170818000Y-105532795D01*
X170716623Y-105431418D01*
X170596732Y-105351310D01*
X170463517Y-105296130D01*
X170336958Y-105270956D01*
X166178017Y-101112016D01*
X166159952Y-101090004D01*
X166072093Y-101017899D01*
X165971854Y-100964321D01*
X165907748Y-100944875D01*
X165879056Y-100936171D01*
X165910976Y-100909974D01*
X165929041Y-100887962D01*
X167923000Y-98894003D01*
X167923000Y-99221669D01*
X167920210Y-99250000D01*
X167931349Y-99363111D01*
X167946414Y-99412770D01*
X167964343Y-99471875D01*
X168017921Y-99572114D01*
X168090026Y-99659974D01*
X168112038Y-99678039D01*
X168770956Y-100336957D01*
X168796130Y-100463517D01*
X168851310Y-100596732D01*
X168931418Y-100716623D01*
X169033377Y-100818582D01*
X169153268Y-100898690D01*
X169286483Y-100953870D01*
X169427904Y-100982000D01*
X169572096Y-100982000D01*
X169713517Y-100953870D01*
X169846732Y-100898690D01*
X169966623Y-100818582D01*
X170068582Y-100716623D01*
X170148690Y-100596732D01*
X170203870Y-100463517D01*
X170232000Y-100322096D01*
X170232000Y-100177904D01*
X170203870Y-100036483D01*
X170148690Y-99903268D01*
X170068582Y-99783377D01*
X169966623Y-99681418D01*
X169846732Y-99601310D01*
X169713517Y-99546130D01*
X169586957Y-99520956D01*
X169077000Y-99010999D01*
X169077000Y-98927904D01*
X171518000Y-98927904D01*
X171518000Y-99072096D01*
X171546130Y-99213517D01*
X171601310Y-99346732D01*
X171681418Y-99466623D01*
X171783377Y-99568582D01*
X171903268Y-99648690D01*
X172036483Y-99703870D01*
X172177904Y-99732000D01*
X172322096Y-99732000D01*
X172463517Y-99703870D01*
X172596732Y-99648690D01*
X172704024Y-99577000D01*
X181471669Y-99577000D01*
X181500000Y-99579790D01*
X181528331Y-99577000D01*
X181528336Y-99577000D01*
X181558045Y-99574074D01*
X181613111Y-99568651D01*
X181657770Y-99555103D01*
X181721876Y-99535657D01*
X181822115Y-99482079D01*
X181909974Y-99409974D01*
X181928039Y-99387962D01*
X183036936Y-98279066D01*
X184350000Y-98279066D01*
X184433707Y-98270822D01*
X184514196Y-98246405D01*
X184588376Y-98206755D01*
X184653395Y-98153395D01*
X184706755Y-98088376D01*
X184746405Y-98014196D01*
X184770822Y-97933707D01*
X184779066Y-97850000D01*
X184779066Y-96150000D01*
X184770822Y-96066293D01*
X184746405Y-95985804D01*
X184706755Y-95911624D01*
X184653395Y-95846605D01*
X184588376Y-95793245D01*
X184514196Y-95753595D01*
X184433707Y-95729178D01*
X184350000Y-95720934D01*
X182650000Y-95720934D01*
X182566293Y-95729178D01*
X182485804Y-95753595D01*
X182411624Y-95793245D01*
X182346605Y-95846605D01*
X182293245Y-95911624D01*
X182253595Y-95985804D01*
X182229178Y-96066293D01*
X182220934Y-96150000D01*
X182220934Y-97463064D01*
X181260999Y-98423000D01*
X172704024Y-98423000D01*
X172596732Y-98351310D01*
X172463517Y-98296130D01*
X172322096Y-98268000D01*
X172177904Y-98268000D01*
X172036483Y-98296130D01*
X171903268Y-98351310D01*
X171783377Y-98431418D01*
X171681418Y-98533377D01*
X171601310Y-98653268D01*
X171546130Y-98786483D01*
X171518000Y-98927904D01*
X169077000Y-98927904D01*
X169077000Y-98739001D01*
X171887969Y-95928032D01*
X171909975Y-95909973D01*
X171982080Y-95822114D01*
X172035658Y-95721875D01*
X172068651Y-95613111D01*
X172077001Y-95528335D01*
X172077001Y-95528329D01*
X172079791Y-95500000D01*
X172077001Y-95471671D01*
X172077001Y-94668330D01*
X172079791Y-94639999D01*
X172068652Y-94526887D01*
X172042132Y-94439465D01*
X172035658Y-94418123D01*
X171982080Y-94317884D01*
X171909975Y-94230025D01*
X171887968Y-94211964D01*
X168653062Y-90977059D01*
X168677904Y-90982000D01*
X168822096Y-90982000D01*
X168963517Y-90953870D01*
X169096732Y-90898690D01*
X169216623Y-90818582D01*
X169318582Y-90716623D01*
X169398690Y-90596732D01*
X169453870Y-90463517D01*
X169479044Y-90336957D01*
X169518000Y-90298001D01*
X169518000Y-90322096D01*
X169546130Y-90463517D01*
X169601310Y-90596732D01*
X169681418Y-90716623D01*
X169783377Y-90818582D01*
X169903268Y-90898690D01*
X170036483Y-90953870D01*
X170177904Y-90982000D01*
X170322096Y-90982000D01*
X170463517Y-90953870D01*
X170596732Y-90898690D01*
X170704024Y-90827000D01*
X173401671Y-90827000D01*
X173430002Y-90829790D01*
X173458333Y-90827000D01*
X173458338Y-90827000D01*
X173488047Y-90824074D01*
X173543113Y-90818651D01*
X173587772Y-90805103D01*
X173651878Y-90785657D01*
X173752117Y-90732079D01*
X173839976Y-90659974D01*
X173858041Y-90637962D01*
X179907962Y-84588041D01*
X179929974Y-84569976D01*
X180002079Y-84482117D01*
X180055657Y-84381878D01*
X180076188Y-84314196D01*
X180088651Y-84273114D01*
X180095666Y-84201877D01*
X180097000Y-84188338D01*
X180097000Y-84188333D01*
X180099790Y-84160002D01*
X180097000Y-84131671D01*
X180097000Y-83139758D01*
X180206547Y-83066560D01*
X180356560Y-82916547D01*
X180474425Y-82740151D01*
X180555611Y-82544149D01*
X180597000Y-82336075D01*
X180597000Y-82123925D01*
X180555611Y-81915851D01*
X180474425Y-81719849D01*
X180356560Y-81543453D01*
X180206547Y-81393440D01*
X180030151Y-81275575D01*
X179834149Y-81194389D01*
X179626075Y-81153000D01*
X179413925Y-81153000D01*
X179205851Y-81194389D01*
X179009849Y-81275575D01*
X178833453Y-81393440D01*
X178683440Y-81543453D01*
X178565575Y-81719849D01*
X178484389Y-81915851D01*
X178443000Y-82123925D01*
X178443000Y-82336075D01*
X178459880Y-82420934D01*
X177600000Y-82420934D01*
X177517384Y-82429071D01*
X179907962Y-80038493D01*
X179929974Y-80020428D01*
X180002079Y-79932569D01*
X180050841Y-79841341D01*
X180055657Y-79832331D01*
X180088651Y-79723566D01*
X180099791Y-79610454D01*
X180097000Y-79582115D01*
X180097000Y-75639758D01*
X180206547Y-75566560D01*
X180356560Y-75416547D01*
X180474425Y-75240151D01*
X180555611Y-75044149D01*
X180597000Y-74836075D01*
X180597000Y-74623925D01*
X180555611Y-74415851D01*
X180474425Y-74219849D01*
X180356560Y-74043453D01*
X180206547Y-73893440D01*
X180030151Y-73775575D01*
X179834149Y-73694389D01*
X179626075Y-73653000D01*
X179413925Y-73653000D01*
X179205851Y-73694389D01*
X179009849Y-73775575D01*
X178833453Y-73893440D01*
X178683440Y-74043453D01*
X178565575Y-74219849D01*
X178484389Y-74415851D01*
X178443000Y-74623925D01*
X178443000Y-74836075D01*
X178459880Y-74920934D01*
X177600000Y-74920934D01*
X177516293Y-74929178D01*
X177435804Y-74953595D01*
X177361624Y-74993245D01*
X177296605Y-75046605D01*
X177243245Y-75111624D01*
X177203595Y-75185804D01*
X177179178Y-75266293D01*
X177170934Y-75350000D01*
X177170934Y-76650000D01*
X177179178Y-76733707D01*
X177203595Y-76814196D01*
X177243245Y-76888376D01*
X177296605Y-76953395D01*
X177361624Y-77006755D01*
X177435804Y-77046405D01*
X177516293Y-77070822D01*
X177600000Y-77079066D01*
X178900000Y-77079066D01*
X178943000Y-77074831D01*
X178943001Y-79371452D01*
X175112038Y-83202415D01*
X175090026Y-83220480D01*
X175020333Y-83305401D01*
X175020333Y-78508331D01*
X175023123Y-78480002D01*
X175020333Y-78451673D01*
X175020333Y-78451667D01*
X175011983Y-78366891D01*
X174978990Y-78258127D01*
X174925412Y-78157888D01*
X174853307Y-78070029D01*
X174831300Y-78051968D01*
X172750332Y-75971001D01*
X172750332Y-75639758D01*
X172859879Y-75566560D01*
X173009892Y-75416547D01*
X173127757Y-75240151D01*
X173208943Y-75044149D01*
X173250332Y-74836075D01*
X173250332Y-74623925D01*
X173208943Y-74415851D01*
X173127757Y-74219849D01*
X173009892Y-74043453D01*
X172859879Y-73893440D01*
X172683483Y-73775575D01*
X172487481Y-73694389D01*
X172279407Y-73653000D01*
X172067257Y-73653000D01*
X171859183Y-73694389D01*
X171663181Y-73775575D01*
X171486785Y-73893440D01*
X171336772Y-74043453D01*
X171218907Y-74219849D01*
X171137721Y-74415851D01*
X171096332Y-74623925D01*
X171096332Y-74836075D01*
X171113212Y-74920934D01*
X170253332Y-74920934D01*
X170169625Y-74929178D01*
X170089136Y-74953595D01*
X170014956Y-74993245D01*
X169949937Y-75046605D01*
X169896577Y-75111624D01*
X169856927Y-75185804D01*
X169832510Y-75266293D01*
X169824266Y-75350000D01*
X169824266Y-76650000D01*
X169832510Y-76733707D01*
X169856927Y-76814196D01*
X169896577Y-76888376D01*
X169949937Y-76953395D01*
X170014956Y-77006755D01*
X170089136Y-77046405D01*
X170169625Y-77070822D01*
X170253332Y-77079066D01*
X171553332Y-77079066D01*
X171637039Y-77070822D01*
X171717528Y-77046405D01*
X171791708Y-77006755D01*
X171856727Y-76953395D01*
X171910087Y-76888376D01*
X171949737Y-76814196D01*
X171952481Y-76805152D01*
X173866334Y-78719006D01*
X173866333Y-83741000D01*
X171684333Y-85923000D01*
X171226335Y-85923000D01*
X172561294Y-84588041D01*
X172583306Y-84569976D01*
X172655411Y-84482117D01*
X172708989Y-84381878D01*
X172729520Y-84314196D01*
X172741983Y-84273114D01*
X172748998Y-84201877D01*
X172750332Y-84188338D01*
X172750332Y-84188333D01*
X172753122Y-84160002D01*
X172750332Y-84131671D01*
X172750332Y-83139758D01*
X172859879Y-83066560D01*
X173009892Y-82916547D01*
X173127757Y-82740151D01*
X173208943Y-82544149D01*
X173250332Y-82336075D01*
X173250332Y-82123925D01*
X173208943Y-81915851D01*
X173127757Y-81719849D01*
X173009892Y-81543453D01*
X172859879Y-81393440D01*
X172683483Y-81275575D01*
X172487481Y-81194389D01*
X172279407Y-81153000D01*
X172067257Y-81153000D01*
X171859183Y-81194389D01*
X171663181Y-81275575D01*
X171486785Y-81393440D01*
X171336772Y-81543453D01*
X171218907Y-81719849D01*
X171137721Y-81915851D01*
X171096332Y-82123925D01*
X171096332Y-82336075D01*
X171113212Y-82420934D01*
X170253332Y-82420934D01*
X170169625Y-82429178D01*
X170089136Y-82453595D01*
X170014956Y-82493245D01*
X169949937Y-82546605D01*
X169896577Y-82611624D01*
X169856927Y-82685804D01*
X169832510Y-82766293D01*
X169824266Y-82850000D01*
X169824266Y-84150000D01*
X169832510Y-84233707D01*
X169856927Y-84314196D01*
X169896577Y-84388376D01*
X169949937Y-84453395D01*
X170014956Y-84506755D01*
X170089136Y-84546405D01*
X170169625Y-84570822D01*
X170253332Y-84579066D01*
X170938267Y-84579066D01*
X165999333Y-89518000D01*
X165927904Y-89518000D01*
X165786483Y-89546130D01*
X165653268Y-89601310D01*
X165533377Y-89681418D01*
X165431418Y-89783377D01*
X165351310Y-89903268D01*
X165296130Y-90036483D01*
X165268000Y-90177904D01*
X165268000Y-90322096D01*
X165288071Y-90423000D01*
X159599623Y-90423000D01*
X159547723Y-90345326D01*
X159404674Y-90202277D01*
X159236467Y-90089885D01*
X159049565Y-90012467D01*
X158851151Y-89973000D01*
X158648849Y-89973000D01*
X158450435Y-90012467D01*
X158304297Y-90073000D01*
X147633976Y-90073000D01*
X144437688Y-86876713D01*
X144408659Y-86841341D01*
X144267505Y-86725499D01*
X144106464Y-86639420D01*
X143931724Y-86586413D01*
X143795538Y-86573000D01*
X143795527Y-86573000D01*
X143750000Y-86568516D01*
X143704473Y-86573000D01*
X143195703Y-86573000D01*
X143049565Y-86512467D01*
X142851151Y-86473000D01*
X142648849Y-86473000D01*
X142450435Y-86512467D01*
X142263533Y-86589885D01*
X142095326Y-86702277D01*
X141952277Y-86845326D01*
X141839885Y-87013533D01*
X141762467Y-87200435D01*
X141723000Y-87398849D01*
X141723000Y-87601151D01*
X141762467Y-87799565D01*
X141839885Y-87986467D01*
X141952277Y-88154674D01*
X142095326Y-88297723D01*
X142263533Y-88410115D01*
X142450435Y-88487533D01*
X142648849Y-88527000D01*
X142851151Y-88527000D01*
X143049565Y-88487533D01*
X143195703Y-88427000D01*
X143366025Y-88427000D01*
X146562316Y-91623292D01*
X146591341Y-91658659D01*
X146626708Y-91687684D01*
X146626711Y-91687687D01*
X146732494Y-91774501D01*
X146818573Y-91820511D01*
X146893536Y-91860580D01*
X147068276Y-91913587D01*
X147204462Y-91927000D01*
X147204474Y-91927000D01*
X147249999Y-91931484D01*
X147295524Y-91927000D01*
X158304297Y-91927000D01*
X158450435Y-91987533D01*
X158648849Y-92027000D01*
X158851151Y-92027000D01*
X159049565Y-91987533D01*
X159236467Y-91910115D01*
X159404674Y-91797723D01*
X159547723Y-91654674D01*
X159599623Y-91577000D01*
X165260999Y-91577000D01*
X168859111Y-95175113D01*
X168884285Y-95301672D01*
X168939465Y-95434887D01*
X169019573Y-95554778D01*
X169121532Y-95656737D01*
X169241423Y-95736845D01*
X169374638Y-95792025D01*
X169389934Y-95795067D01*
X168437658Y-96747343D01*
X168398690Y-96653268D01*
X168318582Y-96533377D01*
X168216623Y-96431418D01*
X168096732Y-96351310D01*
X167963517Y-96296130D01*
X167822096Y-96268000D01*
X167677904Y-96268000D01*
X167536483Y-96296130D01*
X167403268Y-96351310D01*
X167295976Y-96423000D01*
X149821209Y-96423000D01*
X149792878Y-96420210D01*
X149764547Y-96423000D01*
X149764542Y-96423000D01*
X149737764Y-96425637D01*
X149679766Y-96431349D01*
X149615660Y-96450796D01*
X149571002Y-96464343D01*
X149470763Y-96517921D01*
X149417600Y-96561552D01*
X149404913Y-96571963D01*
X149404911Y-96571965D01*
X149382904Y-96590026D01*
X149364843Y-96612033D01*
X142112038Y-103864839D01*
X142090026Y-103882904D01*
X142077000Y-103898776D01*
X142077000Y-102378999D01*
X144473999Y-99982000D01*
X144572096Y-99982000D01*
X144713517Y-99953870D01*
X144846732Y-99898690D01*
X144966623Y-99818582D01*
X145068582Y-99716623D01*
X145148690Y-99596732D01*
X145203870Y-99463517D01*
X145232000Y-99322096D01*
X145232000Y-99177904D01*
X145203870Y-99036483D01*
X145148690Y-98903268D01*
X145068582Y-98783377D01*
X144966623Y-98681418D01*
X144846732Y-98601310D01*
X144713517Y-98546130D01*
X144572096Y-98518000D01*
X144427904Y-98518000D01*
X144286483Y-98546130D01*
X144153268Y-98601310D01*
X144033377Y-98681418D01*
X143981946Y-98732849D01*
X143909238Y-98624033D01*
X143807279Y-98522074D01*
X143687388Y-98441966D01*
X143554173Y-98386786D01*
X143412752Y-98358656D01*
X143268560Y-98358656D01*
X143127139Y-98386786D01*
X142993924Y-98441966D01*
X142874033Y-98522074D01*
X142836265Y-98559842D01*
X142818582Y-98533377D01*
X142716623Y-98431418D01*
X142596732Y-98351310D01*
X142463517Y-98296130D01*
X142322096Y-98268000D01*
X142177904Y-98268000D01*
X142036483Y-98296130D01*
X141903268Y-98351310D01*
X141783377Y-98431418D01*
X141681418Y-98533377D01*
X141601310Y-98653268D01*
X141546130Y-98786483D01*
X141520956Y-98913043D01*
X139612038Y-100821961D01*
X139590026Y-100840026D01*
X139517921Y-100927886D01*
X139464343Y-101028125D01*
X139461808Y-101036483D01*
X139431349Y-101136889D01*
X139428395Y-101166888D01*
X139424356Y-101207904D01*
X139420210Y-101250000D01*
X134432001Y-101250000D01*
X134432001Y-94300528D01*
X134436485Y-94255001D01*
X134432001Y-94209474D01*
X134432001Y-94209463D01*
X134418588Y-94073277D01*
X134365581Y-93898537D01*
X134344266Y-93858660D01*
X134279503Y-93737496D01*
X134192689Y-93631713D01*
X134192685Y-93631709D01*
X134163660Y-93596342D01*
X134128294Y-93567318D01*
X132477001Y-91916026D01*
X132477001Y-88595528D01*
X132481485Y-88550001D01*
X132477001Y-88504474D01*
X132477001Y-88504463D01*
X132463588Y-88368277D01*
X132410581Y-88193537D01*
X132386610Y-88148690D01*
X132324503Y-88032495D01*
X132237689Y-87926713D01*
X132237685Y-87926709D01*
X132208660Y-87891342D01*
X132173295Y-87862319D01*
X130738880Y-86427904D01*
X148388000Y-86427904D01*
X148388000Y-86572096D01*
X148416130Y-86713517D01*
X148471310Y-86846732D01*
X148551418Y-86966623D01*
X148568000Y-86983205D01*
X148568000Y-87342894D01*
X148565330Y-87370000D01*
X148568000Y-87397106D01*
X148568000Y-87397109D01*
X148575988Y-87478211D01*
X148607552Y-87582263D01*
X148658809Y-87678158D01*
X148727789Y-87762211D01*
X148748855Y-87779499D01*
X150018000Y-89048646D01*
X150018000Y-89072096D01*
X150046130Y-89213517D01*
X150101310Y-89346732D01*
X150181418Y-89466623D01*
X150283377Y-89568582D01*
X150403268Y-89648690D01*
X150536483Y-89703870D01*
X150677904Y-89732000D01*
X150822096Y-89732000D01*
X150963517Y-89703870D01*
X151096732Y-89648690D01*
X151216623Y-89568582D01*
X151318582Y-89466623D01*
X151398690Y-89346732D01*
X151453870Y-89213517D01*
X151482000Y-89072096D01*
X151482000Y-88927904D01*
X151453870Y-88786483D01*
X151398690Y-88653268D01*
X151318582Y-88533377D01*
X151216623Y-88431418D01*
X151096732Y-88351310D01*
X150963517Y-88296130D01*
X150822096Y-88268000D01*
X150798646Y-88268000D01*
X150646249Y-88115604D01*
X150716623Y-88068582D01*
X150818582Y-87966623D01*
X150898690Y-87846732D01*
X150953870Y-87713517D01*
X150982000Y-87572096D01*
X150982000Y-87548645D01*
X151390492Y-87140153D01*
X151403268Y-87148690D01*
X151536483Y-87203870D01*
X151677904Y-87232000D01*
X151822096Y-87232000D01*
X151963517Y-87203870D01*
X152096732Y-87148690D01*
X152216623Y-87068582D01*
X152318582Y-86966623D01*
X152398690Y-86846732D01*
X152453870Y-86713517D01*
X152482000Y-86572096D01*
X152482000Y-86427904D01*
X152453870Y-86286483D01*
X152398690Y-86153268D01*
X152318582Y-86033377D01*
X152216623Y-85931418D01*
X152096732Y-85851310D01*
X151963517Y-85796130D01*
X151822096Y-85768000D01*
X151677904Y-85768000D01*
X151536483Y-85796130D01*
X151403268Y-85851310D01*
X151283377Y-85931418D01*
X151267720Y-85947075D01*
X151250000Y-85945330D01*
X151222891Y-85948000D01*
X151141789Y-85955988D01*
X151037737Y-85987552D01*
X150941842Y-86038809D01*
X150857789Y-86107789D01*
X150840508Y-86128846D01*
X150201355Y-86768000D01*
X150177904Y-86768000D01*
X150036483Y-86796130D01*
X149903268Y-86851310D01*
X149783377Y-86931418D01*
X149681418Y-87033377D01*
X149672000Y-87047472D01*
X149672000Y-86983205D01*
X149688582Y-86966623D01*
X149768690Y-86846732D01*
X149823870Y-86713517D01*
X149852000Y-86572096D01*
X149852000Y-86427904D01*
X149823870Y-86286483D01*
X149768690Y-86153268D01*
X149688582Y-86033377D01*
X149586623Y-85931418D01*
X149466732Y-85851310D01*
X149333517Y-85796130D01*
X149192096Y-85768000D01*
X149047904Y-85768000D01*
X148906483Y-85796130D01*
X148773268Y-85851310D01*
X148653377Y-85931418D01*
X148551418Y-86033377D01*
X148471310Y-86153268D01*
X148416130Y-86286483D01*
X148388000Y-86427904D01*
X130738880Y-86427904D01*
X126229524Y-81918548D01*
X135923000Y-81918548D01*
X135923000Y-82081452D01*
X135954782Y-82241227D01*
X136017123Y-82391731D01*
X136107628Y-82527181D01*
X136222819Y-82642372D01*
X136358269Y-82732877D01*
X136508773Y-82795218D01*
X136668548Y-82827000D01*
X136831452Y-82827000D01*
X136991227Y-82795218D01*
X137141731Y-82732877D01*
X137277181Y-82642372D01*
X137392372Y-82527181D01*
X137482877Y-82391731D01*
X137545218Y-82241227D01*
X137577000Y-82081452D01*
X137577000Y-81989001D01*
X137989001Y-81577000D01*
X139038016Y-81577000D01*
X139017123Y-81608269D01*
X138954782Y-81758773D01*
X138923000Y-81918548D01*
X138923000Y-82081452D01*
X138954782Y-82241227D01*
X139017123Y-82391731D01*
X139107628Y-82527181D01*
X139222819Y-82642372D01*
X139358269Y-82732877D01*
X139508773Y-82795218D01*
X139668548Y-82827000D01*
X139831452Y-82827000D01*
X139991227Y-82795218D01*
X140141731Y-82732877D01*
X140277181Y-82642372D01*
X140342553Y-82577000D01*
X150657447Y-82577000D01*
X150722819Y-82642372D01*
X150858269Y-82732877D01*
X151008773Y-82795218D01*
X151168548Y-82827000D01*
X151331452Y-82827000D01*
X151491227Y-82795218D01*
X151641731Y-82732877D01*
X151777181Y-82642372D01*
X151892372Y-82527181D01*
X151982877Y-82391731D01*
X152045218Y-82241227D01*
X152077000Y-82081452D01*
X152077000Y-81918548D01*
X152045218Y-81758773D01*
X151982877Y-81608269D01*
X151910534Y-81500000D01*
X151982877Y-81391731D01*
X152045218Y-81241227D01*
X152077000Y-81081452D01*
X152077000Y-80918548D01*
X152045218Y-80758773D01*
X151982877Y-80608269D01*
X151892372Y-80472819D01*
X151777181Y-80357628D01*
X151641731Y-80267123D01*
X151491227Y-80204782D01*
X151331452Y-80173000D01*
X151168548Y-80173000D01*
X151008773Y-80204782D01*
X150858269Y-80267123D01*
X150722819Y-80357628D01*
X150657447Y-80423000D01*
X137778339Y-80423000D01*
X137750000Y-80420209D01*
X137636888Y-80431349D01*
X137528123Y-80464343D01*
X137512266Y-80472819D01*
X137427885Y-80517921D01*
X137340026Y-80590026D01*
X137321961Y-80612038D01*
X136760999Y-81173000D01*
X136668548Y-81173000D01*
X136508773Y-81204782D01*
X136358269Y-81267123D01*
X136222819Y-81357628D01*
X136107628Y-81472819D01*
X136017123Y-81608269D01*
X135954782Y-81758773D01*
X135923000Y-81918548D01*
X126229524Y-81918548D01*
X124470649Y-80159674D01*
X124410115Y-80013533D01*
X124297723Y-79845326D01*
X124154674Y-79702277D01*
X123986467Y-79589885D01*
X123799565Y-79512467D01*
X123601151Y-79473000D01*
X123398849Y-79473000D01*
X123200435Y-79512467D01*
X123013533Y-79589885D01*
X122845326Y-79702277D01*
X122702277Y-79845326D01*
X122589885Y-80013533D01*
X122512467Y-80200435D01*
X122473000Y-80398849D01*
X122473000Y-80601151D01*
X122512467Y-80799565D01*
X122589885Y-80986467D01*
X122702277Y-81154674D01*
X122845326Y-81297723D01*
X123013533Y-81410115D01*
X123159674Y-81470649D01*
X130623001Y-88933977D01*
X130623002Y-92254464D01*
X130618517Y-92300001D01*
X130623002Y-92345538D01*
X130623002Y-92345539D01*
X130627075Y-92386888D01*
X130636415Y-92481724D01*
X130689421Y-92656464D01*
X130775500Y-92817506D01*
X130862313Y-92923288D01*
X130862318Y-92923293D01*
X130891343Y-92958660D01*
X130926709Y-92987684D01*
X132578001Y-94638977D01*
X132578002Y-104512001D01*
X131382789Y-103316788D01*
X131491227Y-103295218D01*
X131641731Y-103232877D01*
X131777181Y-103142372D01*
X131892372Y-103027181D01*
X131982877Y-102891731D01*
X132045218Y-102741227D01*
X132077000Y-102581452D01*
X132077000Y-102418548D01*
X132045218Y-102258773D01*
X131982877Y-102108269D01*
X131892372Y-101972819D01*
X131777181Y-101857628D01*
X131641731Y-101767123D01*
X131491227Y-101704782D01*
X131392582Y-101685160D01*
X131247225Y-101539803D01*
X131226026Y-101513972D01*
X131122940Y-101429371D01*
X131005329Y-101366507D01*
X130877714Y-101327795D01*
X130778251Y-101317999D01*
X130778244Y-101317999D01*
X130744999Y-101314725D01*
X130711754Y-101317999D01*
X128288242Y-101317999D01*
X128255000Y-101314725D01*
X128231321Y-101317057D01*
X130873294Y-98675084D01*
X130908659Y-98646061D01*
X130937684Y-98610694D01*
X130937688Y-98610690D01*
X131024502Y-98504907D01*
X131110580Y-98343866D01*
X131123280Y-98302000D01*
X131163587Y-98169126D01*
X131177000Y-98032940D01*
X131177000Y-98032929D01*
X131181484Y-97987402D01*
X131177000Y-97941875D01*
X131177000Y-95945703D01*
X131237533Y-95799565D01*
X131277000Y-95601151D01*
X131277000Y-95398849D01*
X131237533Y-95200435D01*
X131160115Y-95013533D01*
X131047723Y-94845326D01*
X130904674Y-94702277D01*
X130736467Y-94589885D01*
X130549565Y-94512467D01*
X130351151Y-94473000D01*
X130148849Y-94473000D01*
X129950435Y-94512467D01*
X129763533Y-94589885D01*
X129595326Y-94702277D01*
X129452277Y-94845326D01*
X129339885Y-95013533D01*
X129262467Y-95200435D01*
X129223000Y-95398849D01*
X129223000Y-95601151D01*
X129262467Y-95799565D01*
X129323001Y-95945705D01*
X129323000Y-97603426D01*
X126098409Y-100828017D01*
X126068582Y-100783377D01*
X125966623Y-100681418D01*
X125846732Y-100601310D01*
X125713517Y-100546130D01*
X125572096Y-100518000D01*
X125427904Y-100518000D01*
X125286483Y-100546130D01*
X125153268Y-100601310D01*
X125033377Y-100681418D01*
X125011795Y-100703000D01*
X123454024Y-100703000D01*
X123346732Y-100631310D01*
X123213517Y-100576130D01*
X123072096Y-100548000D01*
X122927904Y-100548000D01*
X122786483Y-100576130D01*
X122653268Y-100631310D01*
X122533377Y-100711418D01*
X122431418Y-100813377D01*
X122351310Y-100933268D01*
X122296130Y-101066483D01*
X122268000Y-101207904D01*
X122268000Y-101352096D01*
X122296130Y-101493517D01*
X122351310Y-101626732D01*
X122431418Y-101746623D01*
X122533377Y-101848582D01*
X122653268Y-101928690D01*
X122786483Y-101983870D01*
X122927904Y-102012000D01*
X123072096Y-102012000D01*
X123213517Y-101983870D01*
X123346732Y-101928690D01*
X123454024Y-101857000D01*
X125069427Y-101857000D01*
X121436458Y-105489969D01*
X121351151Y-105473000D01*
X121148849Y-105473000D01*
X120950435Y-105512467D01*
X120763533Y-105589885D01*
X120595326Y-105702277D01*
X120452277Y-105845326D01*
X120339885Y-106013533D01*
X120262467Y-106200435D01*
X120223000Y-106398849D01*
X117565449Y-106398849D01*
X113685786Y-102519187D01*
X113716623Y-102498582D01*
X113818582Y-102396623D01*
X113898690Y-102276732D01*
X113953870Y-102143517D01*
X113982000Y-102002096D01*
X113982000Y-101857904D01*
X113953870Y-101716483D01*
X113898690Y-101583268D01*
X113818582Y-101463377D01*
X113802000Y-101446795D01*
X113802000Y-99728644D01*
X115228646Y-98302000D01*
X116596795Y-98302000D01*
X116613377Y-98318582D01*
X116733268Y-98398690D01*
X116866483Y-98453870D01*
X117007904Y-98482000D01*
X117152096Y-98482000D01*
X117293517Y-98453870D01*
X117426732Y-98398690D01*
X117546623Y-98318582D01*
X117648582Y-98216623D01*
X117728690Y-98096732D01*
X117783870Y-97963517D01*
X117812000Y-97822096D01*
X117812000Y-97677904D01*
X117783870Y-97536483D01*
X117728690Y-97403268D01*
X117648582Y-97283377D01*
X117546623Y-97181418D01*
X117426732Y-97101310D01*
X117293517Y-97046130D01*
X117152096Y-97018000D01*
X117007904Y-97018000D01*
X116866483Y-97046130D01*
X116733268Y-97101310D01*
X116613377Y-97181418D01*
X116596795Y-97198000D01*
X115027108Y-97198000D01*
X115000000Y-97195330D01*
X114972891Y-97198000D01*
X114891789Y-97205988D01*
X114787737Y-97237552D01*
X114691842Y-97288809D01*
X114607789Y-97357789D01*
X114590508Y-97378846D01*
X114197720Y-97771635D01*
X114148690Y-97653268D01*
X114068582Y-97533377D01*
X113966623Y-97431418D01*
X113846732Y-97351310D01*
X113713517Y-97296130D01*
X113572096Y-97268000D01*
X113427904Y-97268000D01*
X113286483Y-97296130D01*
X113153268Y-97351310D01*
X113045976Y-97423000D01*
X112778328Y-97423000D01*
X112749999Y-97420210D01*
X112721670Y-97423000D01*
X112721664Y-97423000D01*
X112636888Y-97431350D01*
X112528124Y-97464343D01*
X112427885Y-97517921D01*
X112381980Y-97555595D01*
X112362035Y-97571963D01*
X112362033Y-97571965D01*
X112340026Y-97590026D01*
X112321965Y-97612033D01*
X111612038Y-98321961D01*
X111590026Y-98340026D01*
X111517921Y-98427886D01*
X111464343Y-98528125D01*
X111456191Y-98555000D01*
X111431349Y-98636889D01*
X111420210Y-98750000D01*
X106810975Y-98750000D01*
X111090327Y-94470649D01*
X111236467Y-94410115D01*
X111404674Y-94297723D01*
X111547723Y-94154674D01*
X111660115Y-93986467D01*
X111737533Y-93799565D01*
X111777000Y-93601151D01*
X111777000Y-93398849D01*
X111737533Y-93200435D01*
X111660115Y-93013533D01*
X111547723Y-92845326D01*
X111404674Y-92702277D01*
X111236467Y-92589885D01*
X111090327Y-92529351D01*
X106677000Y-88116025D01*
X106677000Y-82927904D01*
X107018000Y-82927904D01*
X107018000Y-83072096D01*
X107046130Y-83213517D01*
X107101310Y-83346732D01*
X107173000Y-83454024D01*
X107173000Y-83721669D01*
X107170210Y-83750000D01*
X107181349Y-83863111D01*
X107200796Y-83927217D01*
X107214343Y-83971875D01*
X107267921Y-84072114D01*
X107340026Y-84159974D01*
X107362038Y-84178039D01*
X112106999Y-88923000D01*
X111454024Y-88923000D01*
X111346732Y-88851310D01*
X111213517Y-88796130D01*
X111072096Y-88768000D01*
X110927904Y-88768000D01*
X110786483Y-88796130D01*
X110653268Y-88851310D01*
X110533377Y-88931418D01*
X110431418Y-89033377D01*
X110351310Y-89153268D01*
X110296130Y-89286483D01*
X110268000Y-89427904D01*
X110268000Y-89572096D01*
X110296130Y-89713517D01*
X110351310Y-89846732D01*
X110431418Y-89966623D01*
X110533377Y-90068582D01*
X110653268Y-90148690D01*
X110786483Y-90203870D01*
X110927904Y-90232000D01*
X111072096Y-90232000D01*
X111213517Y-90203870D01*
X111346732Y-90148690D01*
X111454024Y-90077000D01*
X119211957Y-90077000D01*
X119153268Y-90101310D01*
X119033377Y-90181418D01*
X118931418Y-90283377D01*
X118851310Y-90403268D01*
X118796130Y-90536483D01*
X118768000Y-90677904D01*
X118768000Y-90822096D01*
X118796130Y-90963517D01*
X118851310Y-91096732D01*
X118931418Y-91216623D01*
X119033377Y-91318582D01*
X119153268Y-91398690D01*
X119286483Y-91453870D01*
X119413043Y-91479044D01*
X120520956Y-92586957D01*
X120546130Y-92713517D01*
X120601310Y-92846732D01*
X120681418Y-92966623D01*
X120783377Y-93068582D01*
X120903268Y-93148690D01*
X121036483Y-93203870D01*
X121177904Y-93232000D01*
X121322096Y-93232000D01*
X121463517Y-93203870D01*
X121596732Y-93148690D01*
X121716623Y-93068582D01*
X121818582Y-92966623D01*
X121898690Y-92846732D01*
X121937364Y-92753365D01*
X124270956Y-95086957D01*
X124296130Y-95213517D01*
X124351310Y-95346732D01*
X124431418Y-95466623D01*
X124533377Y-95568582D01*
X124653268Y-95648690D01*
X124786483Y-95703870D01*
X124927904Y-95732000D01*
X125072096Y-95732000D01*
X125213517Y-95703870D01*
X125346732Y-95648690D01*
X125466623Y-95568582D01*
X125568582Y-95466623D01*
X125648690Y-95346732D01*
X125703870Y-95213517D01*
X125717542Y-95144784D01*
X125786275Y-95131112D01*
X125919490Y-95075932D01*
X126039381Y-94995824D01*
X126141340Y-94893865D01*
X126221448Y-94773974D01*
X126276628Y-94640759D01*
X126304758Y-94499338D01*
X126304758Y-94355146D01*
X126276628Y-94213725D01*
X126221448Y-94080510D01*
X126141340Y-93960619D01*
X126039381Y-93858660D01*
X125919490Y-93778552D01*
X125786275Y-93723372D01*
X125659715Y-93698198D01*
X120573545Y-88612028D01*
X120555482Y-88590018D01*
X120467623Y-88517913D01*
X120367384Y-88464335D01*
X120303278Y-88444889D01*
X120258619Y-88431341D01*
X120249375Y-88430431D01*
X120167114Y-88362920D01*
X120066875Y-88309342D01*
X119988796Y-88285657D01*
X119958110Y-88276348D01*
X119903044Y-88270925D01*
X119873335Y-88267999D01*
X119873330Y-88267999D01*
X119844999Y-88265209D01*
X119816668Y-88267999D01*
X113084000Y-88267999D01*
X108327000Y-83510999D01*
X108327000Y-83454024D01*
X108398690Y-83346732D01*
X108453870Y-83213517D01*
X108482000Y-83072096D01*
X108482000Y-82927904D01*
X108453870Y-82786483D01*
X108398690Y-82653268D01*
X108318582Y-82533377D01*
X108216623Y-82431418D01*
X108096732Y-82351310D01*
X107963517Y-82296130D01*
X107822096Y-82268000D01*
X107677904Y-82268000D01*
X107536483Y-82296130D01*
X107403268Y-82351310D01*
X107283377Y-82431418D01*
X107181418Y-82533377D01*
X107101310Y-82653268D01*
X107046130Y-82786483D01*
X107018000Y-82927904D01*
X106677000Y-82927904D01*
X106677000Y-77927904D01*
X107518000Y-77927904D01*
X107518000Y-78072096D01*
X107546130Y-78213517D01*
X107601310Y-78346732D01*
X107681418Y-78466623D01*
X107783377Y-78568582D01*
X107903268Y-78648690D01*
X108036483Y-78703870D01*
X108177904Y-78732000D01*
X108322096Y-78732000D01*
X108463517Y-78703870D01*
X108596732Y-78648690D01*
X108716623Y-78568582D01*
X108818582Y-78466623D01*
X108898690Y-78346732D01*
X108953870Y-78213517D01*
X108982000Y-78072096D01*
X108982000Y-77927904D01*
X108953870Y-77786483D01*
X108898690Y-77653268D01*
X108818582Y-77533377D01*
X108716623Y-77431418D01*
X108596732Y-77351310D01*
X108463517Y-77296130D01*
X108322096Y-77268000D01*
X108177904Y-77268000D01*
X108036483Y-77296130D01*
X107903268Y-77351310D01*
X107783377Y-77431418D01*
X107681418Y-77533377D01*
X107601310Y-77653268D01*
X107546130Y-77786483D01*
X107518000Y-77927904D01*
X106677000Y-77927904D01*
X106677000Y-76896573D01*
X110646574Y-72927000D01*
X114897704Y-72927000D01*
X114839885Y-73013533D01*
X114762467Y-73200435D01*
X114723000Y-73398849D01*
X114723000Y-73601151D01*
X114762467Y-73799565D01*
X114823001Y-73945706D01*
X114823000Y-77954473D01*
X114818516Y-78000000D01*
X114823000Y-78045527D01*
X114823000Y-78045537D01*
X114836413Y-78181723D01*
X114886468Y-78346732D01*
X114889420Y-78356463D01*
X114975499Y-78517505D01*
X115017417Y-78568582D01*
X115091341Y-78658659D01*
X115126713Y-78687688D01*
X119279351Y-82840327D01*
X119339885Y-82986467D01*
X119452277Y-83154674D01*
X119595326Y-83297723D01*
X119763533Y-83410115D01*
X119950435Y-83487533D01*
X120148849Y-83527000D01*
X120351151Y-83527000D01*
X120549565Y-83487533D01*
X120736467Y-83410115D01*
X120904674Y-83297723D01*
X121047723Y-83154674D01*
X121160115Y-82986467D01*
X121237533Y-82799565D01*
X121277000Y-82601151D01*
X121277000Y-82398849D01*
X121237533Y-82200435D01*
X121160115Y-82013533D01*
X121047723Y-81845326D01*
X120904674Y-81702277D01*
X120736467Y-81589885D01*
X120590327Y-81529351D01*
X116677000Y-77616025D01*
X116677000Y-73945703D01*
X116737533Y-73799565D01*
X116777000Y-73601151D01*
X116777000Y-73398849D01*
X116737533Y-73200435D01*
X116660115Y-73013533D01*
X116602296Y-72927000D01*
X120204473Y-72927000D01*
X120250000Y-72931484D01*
X120295527Y-72927000D01*
X120295538Y-72927000D01*
X120431724Y-72913587D01*
X120606464Y-72860580D01*
X120767505Y-72774501D01*
X120908659Y-72658659D01*
X120937688Y-72623287D01*
X121533293Y-72027683D01*
X121568659Y-71998659D01*
X121597684Y-71963292D01*
X121597688Y-71963288D01*
X121684501Y-71857506D01*
X121770580Y-71696464D01*
X121786635Y-71643537D01*
X121823587Y-71521724D01*
X121837000Y-71385538D01*
X121837000Y-71385527D01*
X121841484Y-71340000D01*
X121837000Y-71294473D01*
X121837000Y-68626111D01*
X121872896Y-68606924D01*
X122067344Y-68447344D01*
X122226924Y-68252896D01*
X122345502Y-68031051D01*
X122418522Y-67790336D01*
X122430000Y-67673798D01*
X122441478Y-67790336D01*
X122514498Y-68031051D01*
X122633076Y-68252896D01*
X122792656Y-68447344D01*
X122987104Y-68606924D01*
X123208949Y-68725502D01*
X123449664Y-68798522D01*
X123637274Y-68817000D01*
X123762726Y-68817000D01*
X123950336Y-68798522D01*
X124191051Y-68725502D01*
X124412896Y-68606924D01*
X124607344Y-68447344D01*
X124766924Y-68252896D01*
X124885502Y-68031051D01*
X124958522Y-67790336D01*
X124983178Y-67540000D01*
X128716822Y-67540000D01*
X128741478Y-67790336D01*
X128814498Y-68031051D01*
X128933076Y-68252896D01*
X129092656Y-68447344D01*
X129287104Y-68606924D01*
X129508949Y-68725502D01*
X129749664Y-68798522D01*
X129937274Y-68817000D01*
X130062726Y-68817000D01*
X130250336Y-68798522D01*
X130491051Y-68725502D01*
X130712896Y-68606924D01*
X130907344Y-68447344D01*
X131066924Y-68252896D01*
X131185502Y-68031051D01*
X131258522Y-67790336D01*
X131270000Y-67673798D01*
X131281478Y-67790336D01*
X131354498Y-68031051D01*
X131473076Y-68252896D01*
X131632656Y-68447344D01*
X131827104Y-68606924D01*
X132048949Y-68725502D01*
X132289664Y-68798522D01*
X132477274Y-68817000D01*
X132602726Y-68817000D01*
X132790336Y-68798522D01*
X133031051Y-68725502D01*
X133252896Y-68606924D01*
X133447344Y-68447344D01*
X133606924Y-68252896D01*
X133725502Y-68031051D01*
X133798522Y-67790336D01*
X133810000Y-67673798D01*
X133821478Y-67790336D01*
X133894498Y-68031051D01*
X134013076Y-68252896D01*
X134172656Y-68447344D01*
X134367104Y-68606924D01*
X134588949Y-68725502D01*
X134829664Y-68798522D01*
X135017274Y-68817000D01*
X135142726Y-68817000D01*
X135330336Y-68798522D01*
X135571051Y-68725502D01*
X135792896Y-68606924D01*
X135987344Y-68447344D01*
X136146924Y-68252896D01*
X136265502Y-68031051D01*
X136338522Y-67790336D01*
X136350000Y-67673798D01*
X136361478Y-67790336D01*
X136434498Y-68031051D01*
X136553076Y-68252896D01*
X136712656Y-68447344D01*
X136907104Y-68606924D01*
X137128949Y-68725502D01*
X137369664Y-68798522D01*
X137557274Y-68817000D01*
X137682726Y-68817000D01*
X137870336Y-68798522D01*
X138111051Y-68725502D01*
X138332896Y-68606924D01*
X138527344Y-68447344D01*
X138686924Y-68252896D01*
X138805502Y-68031051D01*
X138878522Y-67790336D01*
X138890000Y-67673798D01*
X138901478Y-67790336D01*
X138974498Y-68031051D01*
X139093076Y-68252896D01*
X139252656Y-68447344D01*
X139447104Y-68606924D01*
X139668949Y-68725502D01*
X139909664Y-68798522D01*
X140097274Y-68817000D01*
X140222726Y-68817000D01*
X140410336Y-68798522D01*
X140651051Y-68725502D01*
X140872896Y-68606924D01*
X141067344Y-68447344D01*
X141226924Y-68252896D01*
X141345502Y-68031051D01*
X141418522Y-67790336D01*
X141430000Y-67673798D01*
X141441478Y-67790336D01*
X141514498Y-68031051D01*
X141633076Y-68252896D01*
X141792656Y-68447344D01*
X141987104Y-68606924D01*
X142208949Y-68725502D01*
X142449664Y-68798522D01*
X142637274Y-68817000D01*
X142762726Y-68817000D01*
X142950336Y-68798522D01*
X143191051Y-68725502D01*
X143412896Y-68606924D01*
X143607344Y-68447344D01*
X143766924Y-68252896D01*
X143885502Y-68031051D01*
X143958522Y-67790336D01*
X143970000Y-67673798D01*
X143981478Y-67790336D01*
X144054498Y-68031051D01*
X144173076Y-68252896D01*
X144332656Y-68447344D01*
X144527104Y-68606924D01*
X144748949Y-68725502D01*
X144989664Y-68798522D01*
X145177274Y-68817000D01*
X145302726Y-68817000D01*
X145490336Y-68798522D01*
X145731051Y-68725502D01*
X145952896Y-68606924D01*
X146147344Y-68447344D01*
X146306924Y-68252896D01*
X146425502Y-68031051D01*
X146498522Y-67790336D01*
X146510000Y-67673798D01*
X146521478Y-67790336D01*
X146594498Y-68031051D01*
X146713076Y-68252896D01*
X146872656Y-68447344D01*
X147067104Y-68606924D01*
X147288949Y-68725502D01*
X147529664Y-68798522D01*
X147717274Y-68817000D01*
X147842726Y-68817000D01*
X148030336Y-68798522D01*
X148271051Y-68725502D01*
X148492896Y-68606924D01*
X148687344Y-68447344D01*
X148846924Y-68252896D01*
X148965502Y-68031051D01*
X149038522Y-67790336D01*
X149050000Y-67673798D01*
X149061478Y-67790336D01*
X149134498Y-68031051D01*
X149253076Y-68252896D01*
X149412656Y-68447344D01*
X149607104Y-68606924D01*
X149828949Y-68725502D01*
X150069664Y-68798522D01*
X150257274Y-68817000D01*
X150382726Y-68817000D01*
X150570336Y-68798522D01*
X150811051Y-68725502D01*
X151032896Y-68606924D01*
X151227344Y-68447344D01*
X151386924Y-68252896D01*
X151505502Y-68031051D01*
X151578522Y-67790336D01*
X151590000Y-67673798D01*
X151601478Y-67790336D01*
X151674498Y-68031051D01*
X151793076Y-68252896D01*
X151952656Y-68447344D01*
X152147104Y-68606924D01*
X152368949Y-68725502D01*
X152609664Y-68798522D01*
X152797274Y-68817000D01*
X152922726Y-68817000D01*
X153110336Y-68798522D01*
X153351051Y-68725502D01*
X153572896Y-68606924D01*
X153767344Y-68447344D01*
X153926924Y-68252896D01*
X154045502Y-68031051D01*
X154118522Y-67790336D01*
X154130000Y-67673798D01*
X154141478Y-67790336D01*
X154214498Y-68031051D01*
X154333076Y-68252896D01*
X154492656Y-68447344D01*
X154687104Y-68606924D01*
X154908949Y-68725502D01*
X155149664Y-68798522D01*
X155337274Y-68817000D01*
X155462726Y-68817000D01*
X155650336Y-68798522D01*
X155891051Y-68725502D01*
X156112896Y-68606924D01*
X156307344Y-68447344D01*
X156466924Y-68252896D01*
X156585502Y-68031051D01*
X156658522Y-67790336D01*
X156670000Y-67673798D01*
X156681478Y-67790336D01*
X156754498Y-68031051D01*
X156873076Y-68252896D01*
X157032656Y-68447344D01*
X157227104Y-68606924D01*
X157448949Y-68725502D01*
X157689664Y-68798522D01*
X157877274Y-68817000D01*
X158002726Y-68817000D01*
X158190336Y-68798522D01*
X158431051Y-68725502D01*
X158652896Y-68606924D01*
X158847344Y-68447344D01*
X159006924Y-68252896D01*
X159125502Y-68031051D01*
X159198522Y-67790336D01*
X159210000Y-67673798D01*
X159221478Y-67790336D01*
X159294498Y-68031051D01*
X159413076Y-68252896D01*
X159572656Y-68447344D01*
X159767104Y-68606924D01*
X159988949Y-68725502D01*
X160229664Y-68798522D01*
X160417274Y-68817000D01*
X160542726Y-68817000D01*
X160730336Y-68798522D01*
X160971051Y-68725502D01*
X161192896Y-68606924D01*
X161387344Y-68447344D01*
X161546924Y-68252896D01*
X161665502Y-68031051D01*
X161738522Y-67790336D01*
X161750000Y-67673798D01*
X161761478Y-67790336D01*
X161834498Y-68031051D01*
X161953076Y-68252896D01*
X162112656Y-68447344D01*
X162307104Y-68606924D01*
X162528949Y-68725502D01*
X162769664Y-68798522D01*
X162957274Y-68817000D01*
X163082726Y-68817000D01*
X163270336Y-68798522D01*
X163511051Y-68725502D01*
X163732896Y-68606924D01*
X163927344Y-68447344D01*
X164086924Y-68252896D01*
X164205502Y-68031051D01*
X164278522Y-67790336D01*
X164290000Y-67673798D01*
X164301478Y-67790336D01*
X164374498Y-68031051D01*
X164493076Y-68252896D01*
X164652656Y-68447344D01*
X164847104Y-68606924D01*
X165068949Y-68725502D01*
X165309664Y-68798522D01*
X165497274Y-68817000D01*
X165622726Y-68817000D01*
X165810336Y-68798522D01*
X166051051Y-68725502D01*
X166272896Y-68606924D01*
X166467344Y-68447344D01*
X166626924Y-68252896D01*
X166745502Y-68031051D01*
X166818522Y-67790336D01*
X166830000Y-67673798D01*
X166841478Y-67790336D01*
X166914498Y-68031051D01*
X167033076Y-68252896D01*
X167192656Y-68447344D01*
X167387104Y-68606924D01*
X167608949Y-68725502D01*
X167849664Y-68798522D01*
X168037274Y-68817000D01*
X168162726Y-68817000D01*
X168350336Y-68798522D01*
X168591051Y-68725502D01*
X168812896Y-68606924D01*
X169007344Y-68447344D01*
X169166924Y-68252896D01*
X169285502Y-68031051D01*
X169358522Y-67790336D01*
X169370000Y-67673798D01*
X169381478Y-67790336D01*
X169454498Y-68031051D01*
X169573076Y-68252896D01*
X169732656Y-68447344D01*
X169927104Y-68606924D01*
X170148949Y-68725502D01*
X170389664Y-68798522D01*
X170577274Y-68817000D01*
X170702726Y-68817000D01*
X170890336Y-68798522D01*
X171131051Y-68725502D01*
X171352896Y-68606924D01*
X171547344Y-68447344D01*
X171706924Y-68252896D01*
X171825502Y-68031051D01*
X171898522Y-67790336D01*
X171910000Y-67673798D01*
X171921478Y-67790336D01*
X171994498Y-68031051D01*
X172113076Y-68252896D01*
X172272656Y-68447344D01*
X172467104Y-68606924D01*
X172688949Y-68725502D01*
X172929664Y-68798522D01*
X173117274Y-68817000D01*
X173242726Y-68817000D01*
X173430336Y-68798522D01*
X173671051Y-68725502D01*
X173892896Y-68606924D01*
X174087344Y-68447344D01*
X174246924Y-68252896D01*
X174365502Y-68031051D01*
X174438522Y-67790336D01*
X174450000Y-67673798D01*
X174461478Y-67790336D01*
X174534498Y-68031051D01*
X174653076Y-68252896D01*
X174812656Y-68447344D01*
X175007104Y-68606924D01*
X175228949Y-68725502D01*
X175469664Y-68798522D01*
X175657274Y-68817000D01*
X175782726Y-68817000D01*
X175970336Y-68798522D01*
X176211051Y-68725502D01*
X176432896Y-68606924D01*
X176627344Y-68447344D01*
X176786924Y-68252896D01*
X176905502Y-68031051D01*
X176978522Y-67790336D01*
X176990000Y-67673798D01*
X177001478Y-67790336D01*
X177074498Y-68031051D01*
X177193076Y-68252896D01*
X177352656Y-68447344D01*
X177547104Y-68606924D01*
X177768949Y-68725502D01*
X178009664Y-68798522D01*
X178197274Y-68817000D01*
X178322726Y-68817000D01*
X178510336Y-68798522D01*
X178751051Y-68725502D01*
X178972896Y-68606924D01*
X179167344Y-68447344D01*
X179326924Y-68252896D01*
X179445502Y-68031051D01*
X179518522Y-67790336D01*
X179543178Y-67540000D01*
X179518522Y-67289664D01*
X179445502Y-67048949D01*
X179326924Y-66827104D01*
X179167344Y-66632656D01*
X178972896Y-66473076D01*
X178751051Y-66354498D01*
X178510336Y-66281478D01*
X178393798Y-66270000D01*
X178510336Y-66258522D01*
X178751051Y-66185502D01*
X178972896Y-66066924D01*
X179167344Y-65907344D01*
X179326924Y-65712896D01*
X179445502Y-65491051D01*
X179518522Y-65250336D01*
X179543178Y-65000000D01*
X179518522Y-64749664D01*
X179445502Y-64508949D01*
X179326924Y-64287104D01*
X179167344Y-64092656D01*
X178972896Y-63933076D01*
X178751051Y-63814498D01*
X178510336Y-63741478D01*
X178322726Y-63723000D01*
X178197274Y-63723000D01*
X178009664Y-63741478D01*
X177768949Y-63814498D01*
X177547104Y-63933076D01*
X177352656Y-64092656D01*
X177193076Y-64287104D01*
X177074498Y-64508949D01*
X177001478Y-64749664D01*
X176990000Y-64866202D01*
X176978522Y-64749664D01*
X176905502Y-64508949D01*
X176786924Y-64287104D01*
X176627344Y-64092656D01*
X176432896Y-63933076D01*
X176211051Y-63814498D01*
X175970336Y-63741478D01*
X175782726Y-63723000D01*
X175657274Y-63723000D01*
X175469664Y-63741478D01*
X175228949Y-63814498D01*
X175007104Y-63933076D01*
X174812656Y-64092656D01*
X174653076Y-64287104D01*
X174534498Y-64508949D01*
X174461478Y-64749664D01*
X174450000Y-64866202D01*
X174438522Y-64749664D01*
X174365502Y-64508949D01*
X174246924Y-64287104D01*
X174087344Y-64092656D01*
X173892896Y-63933076D01*
X173671051Y-63814498D01*
X173430336Y-63741478D01*
X173242726Y-63723000D01*
X173117274Y-63723000D01*
X172929664Y-63741478D01*
X172688949Y-63814498D01*
X172467104Y-63933076D01*
X172272656Y-64092656D01*
X172113076Y-64287104D01*
X171994498Y-64508949D01*
X171921478Y-64749664D01*
X171910000Y-64866202D01*
X171898522Y-64749664D01*
X171825502Y-64508949D01*
X171706924Y-64287104D01*
X171547344Y-64092656D01*
X171352896Y-63933076D01*
X171131051Y-63814498D01*
X170890336Y-63741478D01*
X170702726Y-63723000D01*
X170577274Y-63723000D01*
X170389664Y-63741478D01*
X170148949Y-63814498D01*
X169927104Y-63933076D01*
X169732656Y-64092656D01*
X169573076Y-64287104D01*
X169454498Y-64508949D01*
X169381478Y-64749664D01*
X169370000Y-64866202D01*
X169358522Y-64749664D01*
X169285502Y-64508949D01*
X169166924Y-64287104D01*
X169007344Y-64092656D01*
X168812896Y-63933076D01*
X168591051Y-63814498D01*
X168350336Y-63741478D01*
X168162726Y-63723000D01*
X168037274Y-63723000D01*
X167849664Y-63741478D01*
X167608949Y-63814498D01*
X167387104Y-63933076D01*
X167192656Y-64092656D01*
X167033076Y-64287104D01*
X166914498Y-64508949D01*
X166841478Y-64749664D01*
X166830000Y-64866202D01*
X166818522Y-64749664D01*
X166745502Y-64508949D01*
X166626924Y-64287104D01*
X166467344Y-64092656D01*
X166272896Y-63933076D01*
X166051051Y-63814498D01*
X165810336Y-63741478D01*
X165622726Y-63723000D01*
X165497274Y-63723000D01*
X165309664Y-63741478D01*
X165068949Y-63814498D01*
X164847104Y-63933076D01*
X164652656Y-64092656D01*
X164493076Y-64287104D01*
X164374498Y-64508949D01*
X164301478Y-64749664D01*
X164290000Y-64866202D01*
X164278522Y-64749664D01*
X164205502Y-64508949D01*
X164086924Y-64287104D01*
X163927344Y-64092656D01*
X163732896Y-63933076D01*
X163511051Y-63814498D01*
X163270336Y-63741478D01*
X163082726Y-63723000D01*
X162957274Y-63723000D01*
X162769664Y-63741478D01*
X162528949Y-63814498D01*
X162307104Y-63933076D01*
X162112656Y-64092656D01*
X161953076Y-64287104D01*
X161834498Y-64508949D01*
X161761478Y-64749664D01*
X161750000Y-64866202D01*
X161738522Y-64749664D01*
X161665502Y-64508949D01*
X161546924Y-64287104D01*
X161387344Y-64092656D01*
X161192896Y-63933076D01*
X160971051Y-63814498D01*
X160730336Y-63741478D01*
X160542726Y-63723000D01*
X160417274Y-63723000D01*
X160229664Y-63741478D01*
X159988949Y-63814498D01*
X159767104Y-63933076D01*
X159572656Y-64092656D01*
X159413076Y-64287104D01*
X159294498Y-64508949D01*
X159221478Y-64749664D01*
X159210000Y-64866202D01*
X159198522Y-64749664D01*
X159125502Y-64508949D01*
X159006924Y-64287104D01*
X158847344Y-64092656D01*
X158652896Y-63933076D01*
X158431051Y-63814498D01*
X158190336Y-63741478D01*
X158002726Y-63723000D01*
X157877274Y-63723000D01*
X157689664Y-63741478D01*
X157448949Y-63814498D01*
X157227104Y-63933076D01*
X157032656Y-64092656D01*
X156873076Y-64287104D01*
X156754498Y-64508949D01*
X156681478Y-64749664D01*
X156670000Y-64866202D01*
X156658522Y-64749664D01*
X156585502Y-64508949D01*
X156466924Y-64287104D01*
X156307344Y-64092656D01*
X156112896Y-63933076D01*
X155891051Y-63814498D01*
X155650336Y-63741478D01*
X155462726Y-63723000D01*
X155337274Y-63723000D01*
X155149664Y-63741478D01*
X154908949Y-63814498D01*
X154687104Y-63933076D01*
X154492656Y-64092656D01*
X154333076Y-64287104D01*
X154214498Y-64508949D01*
X154141478Y-64749664D01*
X154130000Y-64866202D01*
X154118522Y-64749664D01*
X154045502Y-64508949D01*
X153926924Y-64287104D01*
X153767344Y-64092656D01*
X153572896Y-63933076D01*
X153351051Y-63814498D01*
X153110336Y-63741478D01*
X152922726Y-63723000D01*
X152797274Y-63723000D01*
X152609664Y-63741478D01*
X152368949Y-63814498D01*
X152147104Y-63933076D01*
X151952656Y-64092656D01*
X151793076Y-64287104D01*
X151674498Y-64508949D01*
X151601478Y-64749664D01*
X151590000Y-64866202D01*
X151578522Y-64749664D01*
X151505502Y-64508949D01*
X151386924Y-64287104D01*
X151227344Y-64092656D01*
X151032896Y-63933076D01*
X150811051Y-63814498D01*
X150570336Y-63741478D01*
X150382726Y-63723000D01*
X150257274Y-63723000D01*
X150069664Y-63741478D01*
X149828949Y-63814498D01*
X149607104Y-63933076D01*
X149412656Y-64092656D01*
X149253076Y-64287104D01*
X149134498Y-64508949D01*
X149061478Y-64749664D01*
X149050000Y-64866202D01*
X149038522Y-64749664D01*
X148965502Y-64508949D01*
X148846924Y-64287104D01*
X148687344Y-64092656D01*
X148492896Y-63933076D01*
X148271051Y-63814498D01*
X148030336Y-63741478D01*
X147842726Y-63723000D01*
X147717274Y-63723000D01*
X147529664Y-63741478D01*
X147288949Y-63814498D01*
X147067104Y-63933076D01*
X146872656Y-64092656D01*
X146713076Y-64287104D01*
X146594498Y-64508949D01*
X146521478Y-64749664D01*
X146510000Y-64866202D01*
X146498522Y-64749664D01*
X146425502Y-64508949D01*
X146306924Y-64287104D01*
X146147344Y-64092656D01*
X145952896Y-63933076D01*
X145731051Y-63814498D01*
X145490336Y-63741478D01*
X145302726Y-63723000D01*
X145177274Y-63723000D01*
X144989664Y-63741478D01*
X144748949Y-63814498D01*
X144527104Y-63933076D01*
X144332656Y-64092656D01*
X144173076Y-64287104D01*
X144054498Y-64508949D01*
X143981478Y-64749664D01*
X143970000Y-64866202D01*
X143958522Y-64749664D01*
X143885502Y-64508949D01*
X143766924Y-64287104D01*
X143607344Y-64092656D01*
X143412896Y-63933076D01*
X143191051Y-63814498D01*
X142950336Y-63741478D01*
X142762726Y-63723000D01*
X142637274Y-63723000D01*
X142449664Y-63741478D01*
X142208949Y-63814498D01*
X141987104Y-63933076D01*
X141792656Y-64092656D01*
X141633076Y-64287104D01*
X141514498Y-64508949D01*
X141441478Y-64749664D01*
X141430000Y-64866202D01*
X141418522Y-64749664D01*
X141345502Y-64508949D01*
X141226924Y-64287104D01*
X141067344Y-64092656D01*
X140872896Y-63933076D01*
X140651051Y-63814498D01*
X140410336Y-63741478D01*
X140222726Y-63723000D01*
X140097274Y-63723000D01*
X139909664Y-63741478D01*
X139668949Y-63814498D01*
X139447104Y-63933076D01*
X139252656Y-64092656D01*
X139093076Y-64287104D01*
X138974498Y-64508949D01*
X138901478Y-64749664D01*
X138890000Y-64866202D01*
X138878522Y-64749664D01*
X138805502Y-64508949D01*
X138686924Y-64287104D01*
X138527344Y-64092656D01*
X138332896Y-63933076D01*
X138111051Y-63814498D01*
X137870336Y-63741478D01*
X137682726Y-63723000D01*
X137557274Y-63723000D01*
X137369664Y-63741478D01*
X137128949Y-63814498D01*
X136907104Y-63933076D01*
X136712656Y-64092656D01*
X136553076Y-64287104D01*
X136434498Y-64508949D01*
X136361478Y-64749664D01*
X136350000Y-64866202D01*
X136338522Y-64749664D01*
X136265502Y-64508949D01*
X136146924Y-64287104D01*
X135987344Y-64092656D01*
X135792896Y-63933076D01*
X135571051Y-63814498D01*
X135330336Y-63741478D01*
X135142726Y-63723000D01*
X135017274Y-63723000D01*
X134829664Y-63741478D01*
X134588949Y-63814498D01*
X134367104Y-63933076D01*
X134172656Y-64092656D01*
X134013076Y-64287104D01*
X133894498Y-64508949D01*
X133821478Y-64749664D01*
X133810000Y-64866202D01*
X133798522Y-64749664D01*
X133725502Y-64508949D01*
X133606924Y-64287104D01*
X133447344Y-64092656D01*
X133252896Y-63933076D01*
X133031051Y-63814498D01*
X132790336Y-63741478D01*
X132602726Y-63723000D01*
X132477274Y-63723000D01*
X132289664Y-63741478D01*
X132048949Y-63814498D01*
X131827104Y-63933076D01*
X131632656Y-64092656D01*
X131473076Y-64287104D01*
X131354498Y-64508949D01*
X131281478Y-64749664D01*
X131279066Y-64774153D01*
X131279066Y-64150000D01*
X131270822Y-64066293D01*
X131246405Y-63985804D01*
X131206755Y-63911624D01*
X131153395Y-63846605D01*
X131088376Y-63793245D01*
X131014196Y-63753595D01*
X130933707Y-63729178D01*
X130850000Y-63720934D01*
X129150000Y-63720934D01*
X129066293Y-63729178D01*
X128985804Y-63753595D01*
X128911624Y-63793245D01*
X128846605Y-63846605D01*
X128793245Y-63911624D01*
X128753595Y-63985804D01*
X128729178Y-64066293D01*
X128720934Y-64150000D01*
X128720934Y-65850000D01*
X128729178Y-65933707D01*
X128753595Y-66014196D01*
X128793245Y-66088376D01*
X128846605Y-66153395D01*
X128911624Y-66206755D01*
X128985804Y-66246405D01*
X129066293Y-66270822D01*
X129150000Y-66279066D01*
X129774153Y-66279066D01*
X129749664Y-66281478D01*
X129508949Y-66354498D01*
X129287104Y-66473076D01*
X129092656Y-66632656D01*
X128933076Y-66827104D01*
X128814498Y-67048949D01*
X128741478Y-67289664D01*
X128716822Y-67540000D01*
X124983178Y-67540000D01*
X124958522Y-67289664D01*
X124885502Y-67048949D01*
X124766924Y-66827104D01*
X124607344Y-66632656D01*
X124412896Y-66473076D01*
X124191051Y-66354498D01*
X123950336Y-66281478D01*
X123762726Y-66263000D01*
X123637274Y-66263000D01*
X123449664Y-66281478D01*
X123208949Y-66354498D01*
X122987104Y-66473076D01*
X122792656Y-66632656D01*
X122633076Y-66827104D01*
X122514498Y-67048949D01*
X122441478Y-67289664D01*
X122430000Y-67406202D01*
X122418522Y-67289664D01*
X122345502Y-67048949D01*
X122226924Y-66827104D01*
X122067344Y-66632656D01*
X121872896Y-66473076D01*
X121651051Y-66354498D01*
X121410336Y-66281478D01*
X121222726Y-66263000D01*
X121097274Y-66263000D01*
X120909664Y-66281478D01*
X120668949Y-66354498D01*
X120447104Y-66473076D01*
X120252656Y-66632656D01*
X120093076Y-66827104D01*
X119974498Y-67048949D01*
X119901478Y-67289664D01*
X119890000Y-67406202D01*
X119878522Y-67289664D01*
X119805502Y-67048949D01*
X119686924Y-66827104D01*
X119527344Y-66632656D01*
X119332896Y-66473076D01*
X119111051Y-66354498D01*
X118870336Y-66281478D01*
X118682726Y-66263000D01*
X118557274Y-66263000D01*
X118369664Y-66281478D01*
X118128949Y-66354498D01*
X117907104Y-66473076D01*
X117712656Y-66632656D01*
X117553076Y-66827104D01*
X117434498Y-67048949D01*
X117361478Y-67289664D01*
X117350000Y-67406202D01*
X117338522Y-67289664D01*
X117265502Y-67048949D01*
X117146924Y-66827104D01*
X116987344Y-66632656D01*
X116792896Y-66473076D01*
X116571051Y-66354498D01*
X116330336Y-66281478D01*
X116142726Y-66263000D01*
X116017274Y-66263000D01*
X115829664Y-66281478D01*
X115588949Y-66354498D01*
X115367104Y-66473076D01*
X115172656Y-66632656D01*
X115013076Y-66827104D01*
X114894498Y-67048949D01*
X114821478Y-67289664D01*
X114810000Y-67406202D01*
X114798522Y-67289664D01*
X114725502Y-67048949D01*
X114606924Y-66827104D01*
X114447344Y-66632656D01*
X114252896Y-66473076D01*
X114031051Y-66354498D01*
X113790336Y-66281478D01*
X113602726Y-66263000D01*
X113477274Y-66263000D01*
X113289664Y-66281478D01*
X113048949Y-66354498D01*
X112827104Y-66473076D01*
X112632656Y-66632656D01*
X112473076Y-66827104D01*
X112354498Y-67048949D01*
X112281478Y-67289664D01*
X112270000Y-67406202D01*
X112258522Y-67289664D01*
X112185502Y-67048949D01*
X112066924Y-66827104D01*
X111907344Y-66632656D01*
X111712896Y-66473076D01*
X111491051Y-66354498D01*
X111250336Y-66281478D01*
X111062726Y-66263000D01*
X110937274Y-66263000D01*
X110749664Y-66281478D01*
X110508949Y-66354498D01*
X110287104Y-66473076D01*
X110092656Y-66632656D01*
X109933076Y-66827104D01*
X109814498Y-67048949D01*
X109741478Y-67289664D01*
X109716822Y-67540000D01*
X109741478Y-67790336D01*
X109814498Y-68031051D01*
X109933076Y-68252896D01*
X110092656Y-68447344D01*
X110287104Y-68606924D01*
X110508949Y-68725502D01*
X110749664Y-68798522D01*
X110937274Y-68817000D01*
X111062726Y-68817000D01*
X111250336Y-68798522D01*
X111491051Y-68725502D01*
X111712896Y-68606924D01*
X111907344Y-68447344D01*
X112066924Y-68252896D01*
X112185502Y-68031051D01*
X112258522Y-67790336D01*
X112270000Y-67673798D01*
X112281478Y-67790336D01*
X112354498Y-68031051D01*
X112473076Y-68252896D01*
X112632656Y-68447344D01*
X112827104Y-68606924D01*
X113048949Y-68725502D01*
X113289664Y-68798522D01*
X113477274Y-68817000D01*
X113602726Y-68817000D01*
X113790336Y-68798522D01*
X114031051Y-68725502D01*
X114252896Y-68606924D01*
X114447344Y-68447344D01*
X114606924Y-68252896D01*
X114725502Y-68031051D01*
X114798522Y-67790336D01*
X114810000Y-67673798D01*
X114821478Y-67790336D01*
X114894498Y-68031051D01*
X115013076Y-68252896D01*
X115172656Y-68447344D01*
X115367104Y-68606924D01*
X115588949Y-68725502D01*
X115829664Y-68798522D01*
X116017274Y-68817000D01*
X116142726Y-68817000D01*
X116330336Y-68798522D01*
X116571051Y-68725502D01*
X116792896Y-68606924D01*
X116987344Y-68447344D01*
X117146924Y-68252896D01*
X117265502Y-68031051D01*
X117338522Y-67790336D01*
X117350000Y-67673798D01*
X117361478Y-67790336D01*
X117434498Y-68031051D01*
X117553076Y-68252896D01*
X117712656Y-68447344D01*
X117907104Y-68606924D01*
X118128949Y-68725502D01*
X118369664Y-68798522D01*
X118557274Y-68817000D01*
X118682726Y-68817000D01*
X118870336Y-68798522D01*
X119111051Y-68725502D01*
X119332896Y-68606924D01*
X119527344Y-68447344D01*
X119686924Y-68252896D01*
X119805502Y-68031051D01*
X119878522Y-67790336D01*
X119890000Y-67673798D01*
X119901478Y-67790336D01*
X119974498Y-68031051D01*
X119983001Y-68046959D01*
X119983000Y-70956024D01*
X119866025Y-71073000D01*
X118852296Y-71073000D01*
X118910115Y-70986467D01*
X118987533Y-70799565D01*
X119027000Y-70601151D01*
X119027000Y-70398849D01*
X118987533Y-70200435D01*
X118910115Y-70013533D01*
X118797723Y-69845326D01*
X118654674Y-69702277D01*
X118486467Y-69589885D01*
X118299565Y-69512467D01*
X118101151Y-69473000D01*
X117898849Y-69473000D01*
X117700435Y-69512467D01*
X117554297Y-69573000D01*
X109795527Y-69573000D01*
X109750000Y-69568516D01*
X109704473Y-69573000D01*
X109704462Y-69573000D01*
X109568276Y-69586413D01*
X109393536Y-69639420D01*
X109232494Y-69725498D01*
X109126712Y-69812312D01*
X109126708Y-69812316D01*
X109091341Y-69841341D01*
X109062316Y-69876708D01*
X103626713Y-75312312D01*
X103591341Y-75341341D01*
X103562313Y-75376712D01*
X103562312Y-75376713D01*
X103475499Y-75482495D01*
X103413220Y-75599011D01*
X103389420Y-75643537D01*
X103377000Y-75684480D01*
X103377000Y-70052000D01*
X103474642Y-70052000D01*
X103866254Y-69974104D01*
X104235145Y-69821304D01*
X104567137Y-69599474D01*
X104849474Y-69317137D01*
X105071304Y-68985145D01*
X105224104Y-68616254D01*
X105302000Y-68224642D01*
X105302000Y-67825358D01*
X105224104Y-67433746D01*
X105071304Y-67064855D01*
X104849474Y-66732863D01*
X104567137Y-66450526D01*
X104235145Y-66228696D01*
X103866254Y-66075896D01*
X103474642Y-65998000D01*
X103377000Y-65998000D01*
X103377000Y-63627000D01*
X186123000Y-63627000D01*
X186123000Y-65998000D01*
X186123000Y-65998000D01*
G37*
X186123000Y-65998000D02*
X186025358Y-65998000D01*
X185633746Y-66075896D01*
X185264855Y-66228696D01*
X184932863Y-66450526D01*
X184650526Y-66732863D01*
X184428696Y-67064855D01*
X184275896Y-67433746D01*
X184198000Y-67825358D01*
X184198000Y-68224642D01*
X184275896Y-68616254D01*
X184428696Y-68985145D01*
X184650526Y-69317137D01*
X184932863Y-69599474D01*
X185264855Y-69821304D01*
X185633746Y-69974104D01*
X186025358Y-70052000D01*
X186123000Y-70052000D01*
X186123000Y-139948000D01*
X186025358Y-139948000D01*
X185633746Y-140025896D01*
X185264855Y-140178696D01*
X184932863Y-140400526D01*
X184650526Y-140682863D01*
X184428696Y-141014855D01*
X184275896Y-141383746D01*
X184198000Y-141775358D01*
X184198000Y-142174642D01*
X184275896Y-142566254D01*
X184428696Y-142935145D01*
X184650526Y-143267137D01*
X184932863Y-143549474D01*
X185264855Y-143771304D01*
X185633746Y-143924104D01*
X186025358Y-144002000D01*
X186123000Y-144002000D01*
X186123000Y-146373000D01*
X103377000Y-146373000D01*
X103377000Y-144002000D01*
X103474642Y-144002000D01*
X103866254Y-143924104D01*
X104235145Y-143771304D01*
X104567137Y-143549474D01*
X104849474Y-143267137D01*
X105071304Y-142935145D01*
X105224104Y-142566254D01*
X105302000Y-142174642D01*
X105302000Y-141775358D01*
X105224104Y-141383746D01*
X105071304Y-141014855D01*
X104849474Y-140682863D01*
X104567137Y-140400526D01*
X104235145Y-140178696D01*
X103866254Y-140025896D01*
X103474642Y-139948000D01*
X103377000Y-139948000D01*
X103377000Y-126398849D01*
X123723000Y-126398849D01*
X123723000Y-126601151D01*
X123762467Y-126799565D01*
X123823001Y-126945706D01*
X123823000Y-131054296D01*
X123762467Y-131200435D01*
X123723000Y-131398849D01*
X123723000Y-131601151D01*
X123762467Y-131799565D01*
X123839885Y-131986467D01*
X123952277Y-132154674D01*
X124095326Y-132297723D01*
X124263533Y-132410115D01*
X124450435Y-132487533D01*
X124648849Y-132527000D01*
X124851151Y-132527000D01*
X125049565Y-132487533D01*
X125236467Y-132410115D01*
X125404674Y-132297723D01*
X125547723Y-132154674D01*
X125660115Y-131986467D01*
X125737533Y-131799565D01*
X125777000Y-131601151D01*
X125777000Y-131398849D01*
X125737533Y-131200435D01*
X125677000Y-131054297D01*
X125677000Y-126945703D01*
X125737533Y-126799565D01*
X125777000Y-126601151D01*
X125777000Y-126398849D01*
X125737533Y-126200435D01*
X125660115Y-126013533D01*
X125547723Y-125845326D01*
X125404674Y-125702277D01*
X125236467Y-125589885D01*
X125049565Y-125512467D01*
X124851151Y-125473000D01*
X124648849Y-125473000D01*
X124450435Y-125512467D01*
X124263533Y-125589885D01*
X124095326Y-125702277D01*
X123952277Y-125845326D01*
X123839885Y-126013533D01*
X123762467Y-126200435D01*
X123723000Y-126398849D01*
X103377000Y-126398849D01*
X103377000Y-107315519D01*
X103389420Y-107356463D01*
X103475499Y-107517505D01*
X103562312Y-107623287D01*
X103562317Y-107623292D01*
X103591342Y-107658659D01*
X103626708Y-107687684D01*
X107779351Y-111840327D01*
X107839885Y-111986467D01*
X107952277Y-112154674D01*
X108095326Y-112297723D01*
X108263533Y-112410115D01*
X108450435Y-112487533D01*
X108648849Y-112527000D01*
X108851151Y-112527000D01*
X109049565Y-112487533D01*
X109236467Y-112410115D01*
X109404674Y-112297723D01*
X109547723Y-112154674D01*
X109660115Y-111986467D01*
X109737533Y-111799565D01*
X109777000Y-111601151D01*
X109777000Y-111398849D01*
X109737533Y-111200435D01*
X109660115Y-111013533D01*
X109547723Y-110845326D01*
X109404674Y-110702277D01*
X109236467Y-110589885D01*
X109090327Y-110529351D01*
X105177000Y-106616025D01*
X105177000Y-104237975D01*
X107779351Y-106840327D01*
X107839885Y-106986467D01*
X107952277Y-107154674D01*
X108095326Y-107297723D01*
X108263533Y-107410115D01*
X108409674Y-107470649D01*
X113062316Y-112123292D01*
X113091341Y-112158659D01*
X113126708Y-112187684D01*
X113126712Y-112187688D01*
X113232494Y-112274501D01*
X113393536Y-112360580D01*
X113568276Y-112413587D01*
X113704462Y-112427000D01*
X113704473Y-112427000D01*
X113750000Y-112431484D01*
X113795527Y-112427000D01*
X118804297Y-112427000D01*
X118950435Y-112487533D01*
X119148849Y-112527000D01*
X119351151Y-112527000D01*
X119549565Y-112487533D01*
X119736467Y-112410115D01*
X119904674Y-112297723D01*
X120047723Y-112154674D01*
X120160115Y-111986467D01*
X120237533Y-111799565D01*
X120277000Y-111601151D01*
X120277000Y-111398849D01*
X120237533Y-111200435D01*
X120160115Y-111013533D01*
X120047723Y-110845326D01*
X119904674Y-110702277D01*
X119736467Y-110589885D01*
X119549565Y-110512467D01*
X119351151Y-110473000D01*
X119148849Y-110473000D01*
X118950435Y-110512467D01*
X118804297Y-110573000D01*
X114133976Y-110573000D01*
X109720649Y-106159674D01*
X109660115Y-106013533D01*
X109547723Y-105845326D01*
X109404674Y-105702277D01*
X109236467Y-105589885D01*
X109090327Y-105529351D01*
X106677000Y-103116025D01*
X106677000Y-98883975D01*
X106810975Y-98750000D01*
X111420210Y-98750000D01*
X111423000Y-98778331D01*
X111423001Y-101621061D01*
X111420210Y-101649402D01*
X111431349Y-101762513D01*
X111456891Y-101846710D01*
X111464344Y-101871278D01*
X111517922Y-101971517D01*
X111548840Y-102009190D01*
X111571963Y-102037366D01*
X111571966Y-102037369D01*
X111590027Y-102059376D01*
X111612034Y-102077437D01*
X118672563Y-109137967D01*
X118690624Y-109159974D01*
X118712631Y-109178035D01*
X118712633Y-109178037D01*
X118732578Y-109194405D01*
X118778483Y-109232079D01*
X118878722Y-109285657D01*
X118923380Y-109299204D01*
X118987486Y-109318651D01*
X119045484Y-109324363D01*
X119072262Y-109327000D01*
X119072267Y-109327000D01*
X119100598Y-109329790D01*
X119128929Y-109327000D01*
X120545976Y-109327000D01*
X120653268Y-109398690D01*
X120786483Y-109453870D01*
X120927904Y-109482000D01*
X121072096Y-109482000D01*
X121213517Y-109453870D01*
X121346732Y-109398690D01*
X121466623Y-109318582D01*
X121568582Y-109216623D01*
X121648690Y-109096732D01*
X121703870Y-108963517D01*
X121732000Y-108822096D01*
X121732000Y-108677904D01*
X121703870Y-108536483D01*
X121648690Y-108403268D01*
X121568582Y-108283377D01*
X121466623Y-108181418D01*
X121346732Y-108101310D01*
X121213517Y-108046130D01*
X121072096Y-108018000D01*
X120927904Y-108018000D01*
X120786483Y-108046130D01*
X120653268Y-108101310D01*
X120545976Y-108173000D01*
X119339600Y-108173000D01*
X117565449Y-106398849D01*
X120223000Y-106398849D01*
X120223000Y-106601151D01*
X120262467Y-106799565D01*
X120339885Y-106986467D01*
X120452277Y-107154674D01*
X120595326Y-107297723D01*
X120763533Y-107410115D01*
X120950435Y-107487533D01*
X121148849Y-107527000D01*
X121351151Y-107527000D01*
X121549565Y-107487533D01*
X121694968Y-107427305D01*
X121737402Y-107431484D01*
X121782929Y-107427000D01*
X121782940Y-107427000D01*
X121919126Y-107413587D01*
X122093866Y-107360580D01*
X122254907Y-107274501D01*
X122396061Y-107158659D01*
X122425090Y-107123287D01*
X124930288Y-104618089D01*
X124954782Y-104741227D01*
X125017123Y-104891731D01*
X125107628Y-105027181D01*
X125222819Y-105142372D01*
X125358269Y-105232877D01*
X125508773Y-105295218D01*
X125668548Y-105327000D01*
X125831452Y-105327000D01*
X125991227Y-105295218D01*
X126141731Y-105232877D01*
X126277181Y-105142372D01*
X126392372Y-105027181D01*
X126482877Y-104891731D01*
X126545218Y-104741227D01*
X126564840Y-104642582D01*
X128105067Y-103102355D01*
X128181418Y-103216623D01*
X128283377Y-103318582D01*
X128403268Y-103398690D01*
X128536483Y-103453870D01*
X128663043Y-103479044D01*
X131270956Y-106086958D01*
X131296130Y-106213517D01*
X131351310Y-106346732D01*
X131431418Y-106466623D01*
X131533377Y-106568582D01*
X131653268Y-106648690D01*
X131786483Y-106703870D01*
X131927904Y-106732000D01*
X132072096Y-106732000D01*
X132213517Y-106703870D01*
X132346732Y-106648690D01*
X132466623Y-106568582D01*
X132568582Y-106466623D01*
X132578002Y-106452525D01*
X132578002Y-111361022D01*
X127126713Y-116812312D01*
X127091341Y-116841341D01*
X127062313Y-116876712D01*
X127062312Y-116876713D01*
X126975499Y-116982495D01*
X126973376Y-116986467D01*
X126889420Y-117143537D01*
X126836413Y-117318277D01*
X126823000Y-117454463D01*
X126823000Y-117454473D01*
X126818516Y-117500000D01*
X126823000Y-117545527D01*
X126823001Y-124804294D01*
X126762467Y-124950435D01*
X126723000Y-125148849D01*
X126723000Y-125351151D01*
X126762467Y-125549565D01*
X126839885Y-125736467D01*
X126952277Y-125904674D01*
X127095326Y-126047723D01*
X127263533Y-126160115D01*
X127450435Y-126237533D01*
X127648849Y-126277000D01*
X127851151Y-126277000D01*
X128049565Y-126237533D01*
X128236467Y-126160115D01*
X128404674Y-126047723D01*
X128547723Y-125904674D01*
X128660115Y-125736467D01*
X128737533Y-125549565D01*
X128777000Y-125351151D01*
X128777000Y-125148849D01*
X128737533Y-124950435D01*
X128677000Y-124804297D01*
X128677000Y-117883975D01*
X134128293Y-112432683D01*
X134163660Y-112403658D01*
X134192685Y-112368291D01*
X134192688Y-112368288D01*
X134279502Y-112262505D01*
X134337139Y-112154674D01*
X134365581Y-112101463D01*
X134418588Y-111926723D01*
X134432001Y-111790537D01*
X134432001Y-111790525D01*
X134436485Y-111745000D01*
X134432001Y-111699475D01*
X134432001Y-101250000D01*
X139420210Y-101250000D01*
X139423000Y-101278331D01*
X139423001Y-126721659D01*
X139420210Y-126750000D01*
X139431349Y-126863111D01*
X139464344Y-126971876D01*
X139517922Y-127072115D01*
X139524222Y-127079791D01*
X139571963Y-127137964D01*
X139571966Y-127137967D01*
X139590027Y-127159974D01*
X139612034Y-127178035D01*
X145821961Y-133387962D01*
X145840026Y-133409974D01*
X145927885Y-133482079D01*
X146028124Y-133535657D01*
X146072782Y-133549204D01*
X146136888Y-133568651D01*
X146194886Y-133574363D01*
X146221664Y-133577000D01*
X146221669Y-133577000D01*
X146250000Y-133579790D01*
X146278331Y-133577000D01*
X147510999Y-133577000D01*
X149811352Y-135877354D01*
X149707104Y-135933076D01*
X149512656Y-136092656D01*
X149353076Y-136287104D01*
X149234498Y-136508949D01*
X149161478Y-136749664D01*
X149136822Y-137000000D01*
X149161478Y-137250336D01*
X149234498Y-137491051D01*
X149353076Y-137712896D01*
X149512656Y-137907344D01*
X149707104Y-138066924D01*
X149928949Y-138185502D01*
X150169664Y-138258522D01*
X150357274Y-138277000D01*
X150482726Y-138277000D01*
X150670336Y-138258522D01*
X150911051Y-138185502D01*
X151132896Y-138066924D01*
X151327344Y-137907344D01*
X151486924Y-137712896D01*
X151605502Y-137491051D01*
X151678522Y-137250336D01*
X151690000Y-137133798D01*
X151701478Y-137250336D01*
X151774498Y-137491051D01*
X151893076Y-137712896D01*
X152052656Y-137907344D01*
X152247104Y-138066924D01*
X152468949Y-138185502D01*
X152709664Y-138258522D01*
X152826202Y-138270000D01*
X152709664Y-138281478D01*
X152468949Y-138354498D01*
X152247104Y-138473076D01*
X152052656Y-138632656D01*
X151893076Y-138827104D01*
X151774498Y-139048949D01*
X151701478Y-139289664D01*
X151676822Y-139540000D01*
X151701478Y-139790336D01*
X151774498Y-140031051D01*
X151893076Y-140252896D01*
X152052656Y-140447344D01*
X152247104Y-140606924D01*
X152468949Y-140725502D01*
X152709664Y-140798522D01*
X152897274Y-140817000D01*
X153022726Y-140817000D01*
X153210336Y-140798522D01*
X153451051Y-140725502D01*
X153672896Y-140606924D01*
X153867344Y-140447344D01*
X154026924Y-140252896D01*
X154145502Y-140031051D01*
X154218522Y-139790336D01*
X154230000Y-139673798D01*
X154241478Y-139790336D01*
X154314498Y-140031051D01*
X154433076Y-140252896D01*
X154592656Y-140447344D01*
X154787104Y-140606924D01*
X155008949Y-140725502D01*
X155249664Y-140798522D01*
X155437274Y-140817000D01*
X155562726Y-140817000D01*
X155750336Y-140798522D01*
X155991051Y-140725502D01*
X156212896Y-140606924D01*
X156407344Y-140447344D01*
X156566924Y-140252896D01*
X156685502Y-140031051D01*
X156758522Y-139790336D01*
X156782193Y-139550000D01*
X160676822Y-139550000D01*
X160701478Y-139800336D01*
X160774498Y-140041051D01*
X160893076Y-140262896D01*
X161052656Y-140457344D01*
X161247104Y-140616924D01*
X161468949Y-140735502D01*
X161709664Y-140808522D01*
X161897274Y-140827000D01*
X162022726Y-140827000D01*
X162210336Y-140808522D01*
X162451051Y-140735502D01*
X162672896Y-140616924D01*
X162867344Y-140457344D01*
X163026924Y-140262896D01*
X163145502Y-140041051D01*
X163218522Y-139800336D01*
X163220934Y-139775847D01*
X163220934Y-140400000D01*
X163229178Y-140483707D01*
X163253595Y-140564196D01*
X163293245Y-140638376D01*
X163346605Y-140703395D01*
X163411624Y-140756755D01*
X163485804Y-140796405D01*
X163566293Y-140820822D01*
X163650000Y-140829066D01*
X165350000Y-140829066D01*
X165433707Y-140820822D01*
X165514196Y-140796405D01*
X165588376Y-140756755D01*
X165653395Y-140703395D01*
X165706755Y-140638376D01*
X165746405Y-140564196D01*
X165770822Y-140483707D01*
X165779066Y-140400000D01*
X165779066Y-139550000D01*
X167726822Y-139550000D01*
X167751478Y-139800336D01*
X167824498Y-140041051D01*
X167943076Y-140262896D01*
X168102656Y-140457344D01*
X168297104Y-140616924D01*
X168518949Y-140735502D01*
X168759664Y-140808522D01*
X168947274Y-140827000D01*
X169072726Y-140827000D01*
X169260336Y-140808522D01*
X169501051Y-140735502D01*
X169722896Y-140616924D01*
X169917344Y-140457344D01*
X170076924Y-140262896D01*
X170195502Y-140041051D01*
X170268522Y-139800336D01*
X170293178Y-139550000D01*
X174826822Y-139550000D01*
X174851478Y-139800336D01*
X174924498Y-140041051D01*
X175043076Y-140262896D01*
X175202656Y-140457344D01*
X175397104Y-140616924D01*
X175618949Y-140735502D01*
X175859664Y-140808522D01*
X176047274Y-140827000D01*
X176172726Y-140827000D01*
X176360336Y-140808522D01*
X176601051Y-140735502D01*
X176822896Y-140616924D01*
X177017344Y-140457344D01*
X177176924Y-140262896D01*
X177295502Y-140041051D01*
X177368522Y-139800336D01*
X177393178Y-139550000D01*
X177368522Y-139299664D01*
X177295502Y-139058949D01*
X177176924Y-138837104D01*
X177017344Y-138642656D01*
X176822896Y-138483076D01*
X176601051Y-138364498D01*
X176360336Y-138291478D01*
X176172726Y-138273000D01*
X176047274Y-138273000D01*
X175859664Y-138291478D01*
X175618949Y-138364498D01*
X175397104Y-138483076D01*
X175202656Y-138642656D01*
X175043076Y-138837104D01*
X174924498Y-139058949D01*
X174851478Y-139299664D01*
X174826822Y-139550000D01*
X170293178Y-139550000D01*
X170268522Y-139299664D01*
X170195502Y-139058949D01*
X170076924Y-138837104D01*
X169917344Y-138642656D01*
X169722896Y-138483076D01*
X169501051Y-138364498D01*
X169260336Y-138291478D01*
X169072726Y-138273000D01*
X168947274Y-138273000D01*
X168759664Y-138291478D01*
X168518949Y-138364498D01*
X168297104Y-138483076D01*
X168102656Y-138642656D01*
X167943076Y-138837104D01*
X167824498Y-139058949D01*
X167751478Y-139299664D01*
X167726822Y-139550000D01*
X165779066Y-139550000D01*
X165779066Y-138700000D01*
X165770822Y-138616293D01*
X165746405Y-138535804D01*
X165706755Y-138461624D01*
X165653395Y-138396605D01*
X165588376Y-138343245D01*
X165514196Y-138303595D01*
X165433707Y-138279178D01*
X165350000Y-138270934D01*
X163650000Y-138270934D01*
X163566293Y-138279178D01*
X163485804Y-138303595D01*
X163411624Y-138343245D01*
X163346605Y-138396605D01*
X163293245Y-138461624D01*
X163253595Y-138535804D01*
X163229178Y-138616293D01*
X163220934Y-138700000D01*
X163220934Y-139324153D01*
X163218522Y-139299664D01*
X163145502Y-139058949D01*
X163026924Y-138837104D01*
X162867344Y-138642656D01*
X162672896Y-138483076D01*
X162451051Y-138364498D01*
X162210336Y-138291478D01*
X162022726Y-138273000D01*
X161897274Y-138273000D01*
X161709664Y-138291478D01*
X161468949Y-138364498D01*
X161247104Y-138483076D01*
X161052656Y-138642656D01*
X160893076Y-138837104D01*
X160774498Y-139058949D01*
X160701478Y-139299664D01*
X160676822Y-139550000D01*
X156782193Y-139550000D01*
X156783178Y-139540000D01*
X156758522Y-139289664D01*
X156685502Y-139048949D01*
X156566924Y-138827104D01*
X156407344Y-138632656D01*
X156212896Y-138473076D01*
X155991051Y-138354498D01*
X155750336Y-138281478D01*
X155725847Y-138279066D01*
X156350000Y-138279066D01*
X156433707Y-138270822D01*
X156514196Y-138246405D01*
X156588376Y-138206755D01*
X156653395Y-138153395D01*
X156706755Y-138088376D01*
X156746405Y-138014196D01*
X156770822Y-137933707D01*
X156779066Y-137850000D01*
X156779066Y-136150000D01*
X156770822Y-136066293D01*
X156746405Y-135985804D01*
X156706755Y-135911624D01*
X156653395Y-135846605D01*
X156588376Y-135793245D01*
X156514196Y-135753595D01*
X156433707Y-135729178D01*
X156350000Y-135720934D01*
X155036936Y-135720934D01*
X153048001Y-133732000D01*
X153072096Y-133732000D01*
X153213517Y-133703870D01*
X153346732Y-133648690D01*
X153466623Y-133568582D01*
X153568582Y-133466623D01*
X153648690Y-133346732D01*
X153703870Y-133213517D01*
X153732000Y-133072096D01*
X153732000Y-132927904D01*
X153703870Y-132786483D01*
X153648690Y-132653268D01*
X153568582Y-132533377D01*
X153466623Y-132431418D01*
X153346732Y-132351310D01*
X153213517Y-132296130D01*
X153086957Y-132270956D01*
X151178037Y-130362036D01*
X151159974Y-130340026D01*
X151072115Y-130267921D01*
X151049391Y-130255775D01*
X151281051Y-130185502D01*
X151502896Y-130066924D01*
X151697344Y-129907344D01*
X151856924Y-129712896D01*
X151975502Y-129491051D01*
X152048522Y-129250336D01*
X152073178Y-129000000D01*
X152048522Y-128749664D01*
X151975502Y-128508949D01*
X151856924Y-128287104D01*
X151744406Y-128150000D01*
X155970934Y-128150000D01*
X155970934Y-129850000D01*
X155979178Y-129933707D01*
X156003595Y-130014196D01*
X156043245Y-130088376D01*
X156096605Y-130153395D01*
X156161624Y-130206755D01*
X156235804Y-130246405D01*
X156316293Y-130270822D01*
X156400000Y-130279066D01*
X158100000Y-130279066D01*
X158183707Y-130270822D01*
X158264196Y-130246405D01*
X158338376Y-130206755D01*
X158403395Y-130153395D01*
X158456755Y-130088376D01*
X158496405Y-130014196D01*
X158520822Y-129933707D01*
X158529066Y-129850000D01*
X158529066Y-129225847D01*
X158531478Y-129250336D01*
X158604498Y-129491051D01*
X158723076Y-129712896D01*
X158882656Y-129907344D01*
X159077104Y-130066924D01*
X159298949Y-130185502D01*
X159539664Y-130258522D01*
X159727274Y-130277000D01*
X159852726Y-130277000D01*
X160040336Y-130258522D01*
X160281051Y-130185502D01*
X160502896Y-130066924D01*
X160662780Y-129935710D01*
X182220934Y-129935710D01*
X182220934Y-131635710D01*
X182229178Y-131719417D01*
X182253595Y-131799906D01*
X182293245Y-131874086D01*
X182346605Y-131939105D01*
X182411624Y-131992465D01*
X182485804Y-132032115D01*
X182566293Y-132056532D01*
X182650000Y-132064776D01*
X184350000Y-132064776D01*
X184433707Y-132056532D01*
X184514196Y-132032115D01*
X184588376Y-131992465D01*
X184653395Y-131939105D01*
X184706755Y-131874086D01*
X184746405Y-131799906D01*
X184770822Y-131719417D01*
X184779066Y-131635710D01*
X184779066Y-129935710D01*
X184770822Y-129852003D01*
X184746405Y-129771514D01*
X184706755Y-129697334D01*
X184653395Y-129632315D01*
X184588376Y-129578955D01*
X184514196Y-129539305D01*
X184433707Y-129514888D01*
X184350000Y-129506644D01*
X182650000Y-129506644D01*
X182566293Y-129514888D01*
X182485804Y-129539305D01*
X182411624Y-129578955D01*
X182346605Y-129632315D01*
X182293245Y-129697334D01*
X182253595Y-129771514D01*
X182229178Y-129852003D01*
X182220934Y-129935710D01*
X160662780Y-129935710D01*
X160697344Y-129907344D01*
X160856924Y-129712896D01*
X160975502Y-129491051D01*
X161048522Y-129250336D01*
X161073178Y-129000000D01*
X161048522Y-128749664D01*
X160975502Y-128508949D01*
X160856924Y-128287104D01*
X160697344Y-128092656D01*
X160502896Y-127933076D01*
X160281051Y-127814498D01*
X160040336Y-127741478D01*
X159852726Y-127723000D01*
X159727274Y-127723000D01*
X159539664Y-127741478D01*
X159298949Y-127814498D01*
X159077104Y-127933076D01*
X158882656Y-128092656D01*
X158723076Y-128287104D01*
X158604498Y-128508949D01*
X158531478Y-128749664D01*
X158529066Y-128774153D01*
X158529066Y-128150000D01*
X158520822Y-128066293D01*
X158496405Y-127985804D01*
X158456755Y-127911624D01*
X158403395Y-127846605D01*
X158338376Y-127793245D01*
X158264196Y-127753595D01*
X158183707Y-127729178D01*
X158100000Y-127720934D01*
X156400000Y-127720934D01*
X156316293Y-127729178D01*
X156235804Y-127753595D01*
X156161624Y-127793245D01*
X156096605Y-127846605D01*
X156043245Y-127911624D01*
X156003595Y-127985804D01*
X155979178Y-128066293D01*
X155970934Y-128150000D01*
X151744406Y-128150000D01*
X151697344Y-128092656D01*
X151502896Y-127933076D01*
X151281051Y-127814498D01*
X151040336Y-127741478D01*
X150852726Y-127723000D01*
X150727274Y-127723000D01*
X150539664Y-127741478D01*
X150298949Y-127814498D01*
X150077104Y-127933076D01*
X149882656Y-128092656D01*
X149723076Y-128287104D01*
X149604498Y-128508949D01*
X149531478Y-128749664D01*
X149529066Y-128774153D01*
X149529066Y-128150000D01*
X149520822Y-128066293D01*
X149496405Y-127985804D01*
X149456755Y-127911624D01*
X149403395Y-127846605D01*
X149338376Y-127793245D01*
X149264196Y-127753595D01*
X149183707Y-127729178D01*
X149100000Y-127720934D01*
X147400000Y-127720934D01*
X147316293Y-127729178D01*
X147235804Y-127753595D01*
X147161624Y-127793245D01*
X147096605Y-127846605D01*
X147043245Y-127911624D01*
X147003595Y-127985804D01*
X146979178Y-128066293D01*
X146970934Y-128150000D01*
X146970934Y-129654933D01*
X143066001Y-125750000D01*
X143237433Y-125578568D01*
X182220934Y-125578568D01*
X182220934Y-127278568D01*
X182229178Y-127362275D01*
X182253595Y-127442764D01*
X182293245Y-127516944D01*
X182346605Y-127581963D01*
X182411624Y-127635323D01*
X182485804Y-127674973D01*
X182566293Y-127699390D01*
X182650000Y-127707634D01*
X184350000Y-127707634D01*
X184433707Y-127699390D01*
X184514196Y-127674973D01*
X184588376Y-127635323D01*
X184653395Y-127581963D01*
X184706755Y-127516944D01*
X184746405Y-127442764D01*
X184770822Y-127362275D01*
X184779066Y-127278568D01*
X184779066Y-125578568D01*
X184770822Y-125494861D01*
X184746405Y-125414372D01*
X184706755Y-125340192D01*
X184653395Y-125275173D01*
X184588376Y-125221813D01*
X184514196Y-125182163D01*
X184433707Y-125157746D01*
X184350000Y-125149502D01*
X182650000Y-125149502D01*
X182566293Y-125157746D01*
X182485804Y-125182163D01*
X182411624Y-125221813D01*
X182346605Y-125275173D01*
X182293245Y-125340192D01*
X182253595Y-125414372D01*
X182229178Y-125494861D01*
X182220934Y-125578568D01*
X143237433Y-125578568D01*
X147137969Y-121678033D01*
X147159974Y-121659974D01*
X147232079Y-121572115D01*
X147285657Y-121471876D01*
X147299204Y-121427218D01*
X147318651Y-121363112D01*
X147329790Y-121250001D01*
X147327000Y-121221670D01*
X147327000Y-121221426D01*
X182220934Y-121221426D01*
X182220934Y-122921426D01*
X182229178Y-123005133D01*
X182253595Y-123085622D01*
X182293245Y-123159802D01*
X182346605Y-123224821D01*
X182411624Y-123278181D01*
X182485804Y-123317831D01*
X182566293Y-123342248D01*
X182650000Y-123350492D01*
X184350000Y-123350492D01*
X184433707Y-123342248D01*
X184514196Y-123317831D01*
X184588376Y-123278181D01*
X184653395Y-123224821D01*
X184706755Y-123159802D01*
X184746405Y-123085622D01*
X184770822Y-123005133D01*
X184779066Y-122921426D01*
X184779066Y-121221426D01*
X184770822Y-121137719D01*
X184746405Y-121057230D01*
X184706755Y-120983050D01*
X184653395Y-120918031D01*
X184588376Y-120864671D01*
X184514196Y-120825021D01*
X184433707Y-120800604D01*
X184350000Y-120792360D01*
X182650000Y-120792360D01*
X182566293Y-120800604D01*
X182485804Y-120825021D01*
X182411624Y-120864671D01*
X182346605Y-120918031D01*
X182293245Y-120983050D01*
X182253595Y-121057230D01*
X182229178Y-121137719D01*
X182220934Y-121221426D01*
X147327000Y-121221426D01*
X147327000Y-116398849D01*
X164473000Y-116398849D01*
X164473000Y-116601151D01*
X164512467Y-116799565D01*
X164589885Y-116986467D01*
X164702277Y-117154674D01*
X164845326Y-117297723D01*
X165013533Y-117410115D01*
X165159674Y-117470649D01*
X167529351Y-119840327D01*
X167589885Y-119986467D01*
X167702277Y-120154674D01*
X167845326Y-120297723D01*
X168013533Y-120410115D01*
X168200435Y-120487533D01*
X168398849Y-120527000D01*
X168601151Y-120527000D01*
X168799565Y-120487533D01*
X168986467Y-120410115D01*
X169154674Y-120297723D01*
X169297723Y-120154674D01*
X169410115Y-119986467D01*
X169487533Y-119799565D01*
X169527000Y-119601151D01*
X169527000Y-119398849D01*
X169487533Y-119200435D01*
X169410115Y-119013533D01*
X169297723Y-118845326D01*
X169154674Y-118702277D01*
X168986467Y-118589885D01*
X168840327Y-118529351D01*
X167175260Y-116864284D01*
X182220934Y-116864284D01*
X182220934Y-118564284D01*
X182229178Y-118647991D01*
X182253595Y-118728480D01*
X182293245Y-118802660D01*
X182346605Y-118867679D01*
X182411624Y-118921039D01*
X182485804Y-118960689D01*
X182566293Y-118985106D01*
X182650000Y-118993350D01*
X184350000Y-118993350D01*
X184433707Y-118985106D01*
X184514196Y-118960689D01*
X184588376Y-118921039D01*
X184653395Y-118867679D01*
X184706755Y-118802660D01*
X184746405Y-118728480D01*
X184770822Y-118647991D01*
X184779066Y-118564284D01*
X184779066Y-116864284D01*
X184770822Y-116780577D01*
X184746405Y-116700088D01*
X184706755Y-116625908D01*
X184653395Y-116560889D01*
X184588376Y-116507529D01*
X184514196Y-116467879D01*
X184433707Y-116443462D01*
X184350000Y-116435218D01*
X182650000Y-116435218D01*
X182566293Y-116443462D01*
X182485804Y-116467879D01*
X182411624Y-116507529D01*
X182346605Y-116560889D01*
X182293245Y-116625908D01*
X182253595Y-116700088D01*
X182229178Y-116780577D01*
X182220934Y-116864284D01*
X167175260Y-116864284D01*
X166470649Y-116159674D01*
X166410115Y-116013533D01*
X166297723Y-115845326D01*
X166154674Y-115702277D01*
X165986467Y-115589885D01*
X165799565Y-115512467D01*
X165601151Y-115473000D01*
X165398849Y-115473000D01*
X165200435Y-115512467D01*
X165013533Y-115589885D01*
X164845326Y-115702277D01*
X164702277Y-115845326D01*
X164589885Y-116013533D01*
X164512467Y-116200435D01*
X164473000Y-116398849D01*
X147327000Y-116398849D01*
X147327000Y-104454024D01*
X147398690Y-104346732D01*
X147453870Y-104213517D01*
X147482000Y-104072096D01*
X147482000Y-103927904D01*
X147453870Y-103786483D01*
X147398690Y-103653268D01*
X147318582Y-103533377D01*
X147216623Y-103431418D01*
X147096732Y-103351310D01*
X146963517Y-103296130D01*
X146822096Y-103268000D01*
X146709498Y-103268000D01*
X146900498Y-103077000D01*
X151047472Y-103077000D01*
X151033377Y-103086418D01*
X150931418Y-103188377D01*
X150851310Y-103308268D01*
X150796130Y-103441483D01*
X150768000Y-103582904D01*
X150768000Y-103727096D01*
X150796130Y-103868517D01*
X150851310Y-104001732D01*
X150931418Y-104121623D01*
X151033377Y-104223582D01*
X151153268Y-104303690D01*
X151286483Y-104358870D01*
X151427904Y-104387000D01*
X151572096Y-104387000D01*
X151713517Y-104358870D01*
X151846732Y-104303690D01*
X151954024Y-104232000D01*
X152321009Y-104232000D01*
X153270956Y-105181947D01*
X153296130Y-105308507D01*
X153351310Y-105441722D01*
X153431418Y-105561613D01*
X153533377Y-105663572D01*
X153653268Y-105743680D01*
X153786483Y-105798860D01*
X153927904Y-105826990D01*
X154072096Y-105826990D01*
X154213517Y-105798860D01*
X154346732Y-105743680D01*
X154466623Y-105663572D01*
X154568582Y-105561613D01*
X154648690Y-105441722D01*
X154703870Y-105308507D01*
X154732000Y-105167086D01*
X154732000Y-105022894D01*
X154703870Y-104881473D01*
X154648690Y-104748258D01*
X154568582Y-104628367D01*
X154466623Y-104526408D01*
X154346732Y-104446300D01*
X154213517Y-104391120D01*
X154086957Y-104365946D01*
X152988049Y-103267038D01*
X152969984Y-103245026D01*
X152882125Y-103172921D01*
X152781886Y-103119343D01*
X152717780Y-103099897D01*
X152673121Y-103086349D01*
X152618055Y-103080926D01*
X152588346Y-103078000D01*
X152588341Y-103078000D01*
X152578187Y-103077000D01*
X163665999Y-103077000D01*
X167675956Y-107086958D01*
X167701130Y-107213517D01*
X167756310Y-107346732D01*
X167836418Y-107466623D01*
X167938377Y-107568582D01*
X168022813Y-107625000D01*
X167950976Y-107673000D01*
X167239001Y-107673000D01*
X166229044Y-106663043D01*
X166203870Y-106536483D01*
X166148690Y-106403268D01*
X166068582Y-106283377D01*
X165966623Y-106181418D01*
X165846732Y-106101310D01*
X165713517Y-106046130D01*
X165572096Y-106018000D01*
X165427904Y-106018000D01*
X165286483Y-106046130D01*
X165153268Y-106101310D01*
X165033377Y-106181418D01*
X164931418Y-106283377D01*
X164851310Y-106403268D01*
X164796130Y-106536483D01*
X164768000Y-106677904D01*
X164768000Y-106822096D01*
X164796130Y-106963517D01*
X164851310Y-107096732D01*
X164931418Y-107216623D01*
X165033377Y-107318582D01*
X165153268Y-107398690D01*
X165286483Y-107453870D01*
X165413043Y-107479044D01*
X166571961Y-108637962D01*
X166590026Y-108659974D01*
X166677885Y-108732079D01*
X166778124Y-108785657D01*
X166886888Y-108818650D01*
X166971664Y-108827000D01*
X166971670Y-108827000D01*
X166999999Y-108829790D01*
X167028328Y-108827000D01*
X167950976Y-108827000D01*
X168058268Y-108898690D01*
X168191483Y-108953870D01*
X168332904Y-108982000D01*
X168477096Y-108982000D01*
X168618517Y-108953870D01*
X168751732Y-108898690D01*
X168871623Y-108818582D01*
X168973582Y-108716623D01*
X169053690Y-108596732D01*
X169108870Y-108463517D01*
X169137000Y-108322096D01*
X169137000Y-108177904D01*
X169108870Y-108036483D01*
X169053690Y-107903268D01*
X168973582Y-107783377D01*
X168871623Y-107681418D01*
X168787187Y-107625000D01*
X168871623Y-107568582D01*
X168973582Y-107466623D01*
X169053690Y-107346732D01*
X169108870Y-107213517D01*
X169137000Y-107072096D01*
X169137000Y-106927904D01*
X169108870Y-106786483D01*
X169053690Y-106653268D01*
X168973582Y-106533377D01*
X168871623Y-106431418D01*
X168751732Y-106351310D01*
X168618517Y-106296130D01*
X168491958Y-106270956D01*
X164333039Y-102112038D01*
X164314974Y-102090026D01*
X164299075Y-102076978D01*
X165510977Y-102076978D01*
X169520956Y-106086958D01*
X169546130Y-106213517D01*
X169601310Y-106346732D01*
X169681418Y-106466623D01*
X169783377Y-106568582D01*
X169903268Y-106648690D01*
X170036483Y-106703870D01*
X170177904Y-106732000D01*
X170322096Y-106732000D01*
X170463517Y-106703870D01*
X170596732Y-106648690D01*
X170716623Y-106568582D01*
X170818000Y-106467205D01*
X170817999Y-112711754D01*
X170814725Y-112744999D01*
X170817999Y-112778244D01*
X170817999Y-112778250D01*
X170827795Y-112877713D01*
X170866507Y-113005328D01*
X170929371Y-113122939D01*
X171013972Y-113226025D01*
X171039799Y-113247221D01*
X172935160Y-115142583D01*
X172954782Y-115241227D01*
X173017123Y-115391731D01*
X173107628Y-115527181D01*
X173222819Y-115642372D01*
X173358269Y-115732877D01*
X173508773Y-115795218D01*
X173668548Y-115827000D01*
X173831452Y-115827000D01*
X173991227Y-115795218D01*
X174141731Y-115732877D01*
X174277181Y-115642372D01*
X174392372Y-115527181D01*
X174482877Y-115391731D01*
X174545218Y-115241227D01*
X174577000Y-115081452D01*
X174577000Y-114918548D01*
X174545218Y-114758773D01*
X174482877Y-114608269D01*
X174392372Y-114472819D01*
X174277181Y-114357628D01*
X174141731Y-114267123D01*
X173991227Y-114204782D01*
X173892583Y-114185160D01*
X172171999Y-112464577D01*
X172171999Y-109730825D01*
X172177904Y-109732000D01*
X172322096Y-109732000D01*
X172463517Y-109703870D01*
X172596732Y-109648690D01*
X172704024Y-109577000D01*
X181471669Y-109577000D01*
X181500000Y-109579790D01*
X181528331Y-109577000D01*
X181528336Y-109577000D01*
X181558045Y-109574074D01*
X181613111Y-109568651D01*
X181657770Y-109555103D01*
X181721876Y-109535657D01*
X181822115Y-109482079D01*
X181909974Y-109409974D01*
X181928039Y-109387962D01*
X183036936Y-108279066D01*
X184350000Y-108279066D01*
X184433707Y-108270822D01*
X184514196Y-108246405D01*
X184588376Y-108206755D01*
X184653395Y-108153395D01*
X184706755Y-108088376D01*
X184746405Y-108014196D01*
X184770822Y-107933707D01*
X184779066Y-107850000D01*
X184779066Y-106150000D01*
X184770822Y-106066293D01*
X184746405Y-105985804D01*
X184706755Y-105911624D01*
X184653395Y-105846605D01*
X184588376Y-105793245D01*
X184514196Y-105753595D01*
X184433707Y-105729178D01*
X184350000Y-105720934D01*
X182650000Y-105720934D01*
X182566293Y-105729178D01*
X182485804Y-105753595D01*
X182411624Y-105793245D01*
X182346605Y-105846605D01*
X182293245Y-105911624D01*
X182253595Y-105985804D01*
X182229178Y-106066293D01*
X182220934Y-106150000D01*
X182220934Y-107463064D01*
X181260999Y-108423000D01*
X172704024Y-108423000D01*
X172596732Y-108351310D01*
X172463517Y-108296130D01*
X172322096Y-108268000D01*
X172177904Y-108268000D01*
X172171999Y-108269175D01*
X172171999Y-105035423D01*
X173892583Y-103314840D01*
X173991227Y-103295218D01*
X174141731Y-103232877D01*
X174277181Y-103142372D01*
X174392372Y-103027181D01*
X174482877Y-102891731D01*
X174545218Y-102741227D01*
X174577000Y-102581452D01*
X174577000Y-102418548D01*
X174545218Y-102258773D01*
X174482877Y-102108269D01*
X174392372Y-101972819D01*
X174277181Y-101857628D01*
X174141731Y-101767123D01*
X173991227Y-101704782D01*
X173831452Y-101673000D01*
X173668548Y-101673000D01*
X173508773Y-101704782D01*
X173358269Y-101767123D01*
X173222819Y-101857628D01*
X173107628Y-101972819D01*
X173017123Y-102108269D01*
X172954782Y-102258773D01*
X172935160Y-102357417D01*
X171039799Y-104252779D01*
X171013973Y-104273974D01*
X170992778Y-104299800D01*
X170992775Y-104299803D01*
X170929371Y-104377061D01*
X170866507Y-104494672D01*
X170827795Y-104622287D01*
X170814725Y-104755001D01*
X170818000Y-104788256D01*
X170818000Y-105532795D01*
X170716623Y-105431418D01*
X170596732Y-105351310D01*
X170463517Y-105296130D01*
X170336958Y-105270956D01*
X166178017Y-101112016D01*
X166159952Y-101090004D01*
X166072093Y-101017899D01*
X165971854Y-100964321D01*
X165907748Y-100944875D01*
X165879056Y-100936171D01*
X165910976Y-100909974D01*
X165929041Y-100887962D01*
X167923000Y-98894003D01*
X167923000Y-99221669D01*
X167920210Y-99250000D01*
X167931349Y-99363111D01*
X167946414Y-99412770D01*
X167964343Y-99471875D01*
X168017921Y-99572114D01*
X168090026Y-99659974D01*
X168112038Y-99678039D01*
X168770956Y-100336957D01*
X168796130Y-100463517D01*
X168851310Y-100596732D01*
X168931418Y-100716623D01*
X169033377Y-100818582D01*
X169153268Y-100898690D01*
X169286483Y-100953870D01*
X169427904Y-100982000D01*
X169572096Y-100982000D01*
X169713517Y-100953870D01*
X169846732Y-100898690D01*
X169966623Y-100818582D01*
X170068582Y-100716623D01*
X170148690Y-100596732D01*
X170203870Y-100463517D01*
X170232000Y-100322096D01*
X170232000Y-100177904D01*
X170203870Y-100036483D01*
X170148690Y-99903268D01*
X170068582Y-99783377D01*
X169966623Y-99681418D01*
X169846732Y-99601310D01*
X169713517Y-99546130D01*
X169586957Y-99520956D01*
X169077000Y-99010999D01*
X169077000Y-98927904D01*
X171518000Y-98927904D01*
X171518000Y-99072096D01*
X171546130Y-99213517D01*
X171601310Y-99346732D01*
X171681418Y-99466623D01*
X171783377Y-99568582D01*
X171903268Y-99648690D01*
X172036483Y-99703870D01*
X172177904Y-99732000D01*
X172322096Y-99732000D01*
X172463517Y-99703870D01*
X172596732Y-99648690D01*
X172704024Y-99577000D01*
X181471669Y-99577000D01*
X181500000Y-99579790D01*
X181528331Y-99577000D01*
X181528336Y-99577000D01*
X181558045Y-99574074D01*
X181613111Y-99568651D01*
X181657770Y-99555103D01*
X181721876Y-99535657D01*
X181822115Y-99482079D01*
X181909974Y-99409974D01*
X181928039Y-99387962D01*
X183036936Y-98279066D01*
X184350000Y-98279066D01*
X184433707Y-98270822D01*
X184514196Y-98246405D01*
X184588376Y-98206755D01*
X184653395Y-98153395D01*
X184706755Y-98088376D01*
X184746405Y-98014196D01*
X184770822Y-97933707D01*
X184779066Y-97850000D01*
X184779066Y-96150000D01*
X184770822Y-96066293D01*
X184746405Y-95985804D01*
X184706755Y-95911624D01*
X184653395Y-95846605D01*
X184588376Y-95793245D01*
X184514196Y-95753595D01*
X184433707Y-95729178D01*
X184350000Y-95720934D01*
X182650000Y-95720934D01*
X182566293Y-95729178D01*
X182485804Y-95753595D01*
X182411624Y-95793245D01*
X182346605Y-95846605D01*
X182293245Y-95911624D01*
X182253595Y-95985804D01*
X182229178Y-96066293D01*
X182220934Y-96150000D01*
X182220934Y-97463064D01*
X181260999Y-98423000D01*
X172704024Y-98423000D01*
X172596732Y-98351310D01*
X172463517Y-98296130D01*
X172322096Y-98268000D01*
X172177904Y-98268000D01*
X172036483Y-98296130D01*
X171903268Y-98351310D01*
X171783377Y-98431418D01*
X171681418Y-98533377D01*
X171601310Y-98653268D01*
X171546130Y-98786483D01*
X171518000Y-98927904D01*
X169077000Y-98927904D01*
X169077000Y-98739001D01*
X171887969Y-95928032D01*
X171909975Y-95909973D01*
X171982080Y-95822114D01*
X172035658Y-95721875D01*
X172068651Y-95613111D01*
X172077001Y-95528335D01*
X172077001Y-95528329D01*
X172079791Y-95500000D01*
X172077001Y-95471671D01*
X172077001Y-94668330D01*
X172079791Y-94639999D01*
X172068652Y-94526887D01*
X172042132Y-94439465D01*
X172035658Y-94418123D01*
X171982080Y-94317884D01*
X171909975Y-94230025D01*
X171887968Y-94211964D01*
X168653062Y-90977059D01*
X168677904Y-90982000D01*
X168822096Y-90982000D01*
X168963517Y-90953870D01*
X169096732Y-90898690D01*
X169216623Y-90818582D01*
X169318582Y-90716623D01*
X169398690Y-90596732D01*
X169453870Y-90463517D01*
X169479044Y-90336957D01*
X169518000Y-90298001D01*
X169518000Y-90322096D01*
X169546130Y-90463517D01*
X169601310Y-90596732D01*
X169681418Y-90716623D01*
X169783377Y-90818582D01*
X169903268Y-90898690D01*
X170036483Y-90953870D01*
X170177904Y-90982000D01*
X170322096Y-90982000D01*
X170463517Y-90953870D01*
X170596732Y-90898690D01*
X170704024Y-90827000D01*
X173401671Y-90827000D01*
X173430002Y-90829790D01*
X173458333Y-90827000D01*
X173458338Y-90827000D01*
X173488047Y-90824074D01*
X173543113Y-90818651D01*
X173587772Y-90805103D01*
X173651878Y-90785657D01*
X173752117Y-90732079D01*
X173839976Y-90659974D01*
X173858041Y-90637962D01*
X179907962Y-84588041D01*
X179929974Y-84569976D01*
X180002079Y-84482117D01*
X180055657Y-84381878D01*
X180076188Y-84314196D01*
X180088651Y-84273114D01*
X180095666Y-84201877D01*
X180097000Y-84188338D01*
X180097000Y-84188333D01*
X180099790Y-84160002D01*
X180097000Y-84131671D01*
X180097000Y-83139758D01*
X180206547Y-83066560D01*
X180356560Y-82916547D01*
X180474425Y-82740151D01*
X180555611Y-82544149D01*
X180597000Y-82336075D01*
X180597000Y-82123925D01*
X180555611Y-81915851D01*
X180474425Y-81719849D01*
X180356560Y-81543453D01*
X180206547Y-81393440D01*
X180030151Y-81275575D01*
X179834149Y-81194389D01*
X179626075Y-81153000D01*
X179413925Y-81153000D01*
X179205851Y-81194389D01*
X179009849Y-81275575D01*
X178833453Y-81393440D01*
X178683440Y-81543453D01*
X178565575Y-81719849D01*
X178484389Y-81915851D01*
X178443000Y-82123925D01*
X178443000Y-82336075D01*
X178459880Y-82420934D01*
X177600000Y-82420934D01*
X177517384Y-82429071D01*
X179907962Y-80038493D01*
X179929974Y-80020428D01*
X180002079Y-79932569D01*
X180050841Y-79841341D01*
X180055657Y-79832331D01*
X180088651Y-79723566D01*
X180099791Y-79610454D01*
X180097000Y-79582115D01*
X180097000Y-75639758D01*
X180206547Y-75566560D01*
X180356560Y-75416547D01*
X180474425Y-75240151D01*
X180555611Y-75044149D01*
X180597000Y-74836075D01*
X180597000Y-74623925D01*
X180555611Y-74415851D01*
X180474425Y-74219849D01*
X180356560Y-74043453D01*
X180206547Y-73893440D01*
X180030151Y-73775575D01*
X179834149Y-73694389D01*
X179626075Y-73653000D01*
X179413925Y-73653000D01*
X179205851Y-73694389D01*
X179009849Y-73775575D01*
X178833453Y-73893440D01*
X178683440Y-74043453D01*
X178565575Y-74219849D01*
X178484389Y-74415851D01*
X178443000Y-74623925D01*
X178443000Y-74836075D01*
X178459880Y-74920934D01*
X177600000Y-74920934D01*
X177516293Y-74929178D01*
X177435804Y-74953595D01*
X177361624Y-74993245D01*
X177296605Y-75046605D01*
X177243245Y-75111624D01*
X177203595Y-75185804D01*
X177179178Y-75266293D01*
X177170934Y-75350000D01*
X177170934Y-76650000D01*
X177179178Y-76733707D01*
X177203595Y-76814196D01*
X177243245Y-76888376D01*
X177296605Y-76953395D01*
X177361624Y-77006755D01*
X177435804Y-77046405D01*
X177516293Y-77070822D01*
X177600000Y-77079066D01*
X178900000Y-77079066D01*
X178943000Y-77074831D01*
X178943001Y-79371452D01*
X175112038Y-83202415D01*
X175090026Y-83220480D01*
X175020333Y-83305401D01*
X175020333Y-78508331D01*
X175023123Y-78480002D01*
X175020333Y-78451673D01*
X175020333Y-78451667D01*
X175011983Y-78366891D01*
X174978990Y-78258127D01*
X174925412Y-78157888D01*
X174853307Y-78070029D01*
X174831300Y-78051968D01*
X172750332Y-75971001D01*
X172750332Y-75639758D01*
X172859879Y-75566560D01*
X173009892Y-75416547D01*
X173127757Y-75240151D01*
X173208943Y-75044149D01*
X173250332Y-74836075D01*
X173250332Y-74623925D01*
X173208943Y-74415851D01*
X173127757Y-74219849D01*
X173009892Y-74043453D01*
X172859879Y-73893440D01*
X172683483Y-73775575D01*
X172487481Y-73694389D01*
X172279407Y-73653000D01*
X172067257Y-73653000D01*
X171859183Y-73694389D01*
X171663181Y-73775575D01*
X171486785Y-73893440D01*
X171336772Y-74043453D01*
X171218907Y-74219849D01*
X171137721Y-74415851D01*
X171096332Y-74623925D01*
X171096332Y-74836075D01*
X171113212Y-74920934D01*
X170253332Y-74920934D01*
X170169625Y-74929178D01*
X170089136Y-74953595D01*
X170014956Y-74993245D01*
X169949937Y-75046605D01*
X169896577Y-75111624D01*
X169856927Y-75185804D01*
X169832510Y-75266293D01*
X169824266Y-75350000D01*
X169824266Y-76650000D01*
X169832510Y-76733707D01*
X169856927Y-76814196D01*
X169896577Y-76888376D01*
X169949937Y-76953395D01*
X170014956Y-77006755D01*
X170089136Y-77046405D01*
X170169625Y-77070822D01*
X170253332Y-77079066D01*
X171553332Y-77079066D01*
X171637039Y-77070822D01*
X171717528Y-77046405D01*
X171791708Y-77006755D01*
X171856727Y-76953395D01*
X171910087Y-76888376D01*
X171949737Y-76814196D01*
X171952481Y-76805152D01*
X173866334Y-78719006D01*
X173866333Y-83741000D01*
X171684333Y-85923000D01*
X171226335Y-85923000D01*
X172561294Y-84588041D01*
X172583306Y-84569976D01*
X172655411Y-84482117D01*
X172708989Y-84381878D01*
X172729520Y-84314196D01*
X172741983Y-84273114D01*
X172748998Y-84201877D01*
X172750332Y-84188338D01*
X172750332Y-84188333D01*
X172753122Y-84160002D01*
X172750332Y-84131671D01*
X172750332Y-83139758D01*
X172859879Y-83066560D01*
X173009892Y-82916547D01*
X173127757Y-82740151D01*
X173208943Y-82544149D01*
X173250332Y-82336075D01*
X173250332Y-82123925D01*
X173208943Y-81915851D01*
X173127757Y-81719849D01*
X173009892Y-81543453D01*
X172859879Y-81393440D01*
X172683483Y-81275575D01*
X172487481Y-81194389D01*
X172279407Y-81153000D01*
X172067257Y-81153000D01*
X171859183Y-81194389D01*
X171663181Y-81275575D01*
X171486785Y-81393440D01*
X171336772Y-81543453D01*
X171218907Y-81719849D01*
X171137721Y-81915851D01*
X171096332Y-82123925D01*
X171096332Y-82336075D01*
X171113212Y-82420934D01*
X170253332Y-82420934D01*
X170169625Y-82429178D01*
X170089136Y-82453595D01*
X170014956Y-82493245D01*
X169949937Y-82546605D01*
X169896577Y-82611624D01*
X169856927Y-82685804D01*
X169832510Y-82766293D01*
X169824266Y-82850000D01*
X169824266Y-84150000D01*
X169832510Y-84233707D01*
X169856927Y-84314196D01*
X169896577Y-84388376D01*
X169949937Y-84453395D01*
X170014956Y-84506755D01*
X170089136Y-84546405D01*
X170169625Y-84570822D01*
X170253332Y-84579066D01*
X170938267Y-84579066D01*
X165999333Y-89518000D01*
X165927904Y-89518000D01*
X165786483Y-89546130D01*
X165653268Y-89601310D01*
X165533377Y-89681418D01*
X165431418Y-89783377D01*
X165351310Y-89903268D01*
X165296130Y-90036483D01*
X165268000Y-90177904D01*
X165268000Y-90322096D01*
X165288071Y-90423000D01*
X159599623Y-90423000D01*
X159547723Y-90345326D01*
X159404674Y-90202277D01*
X159236467Y-90089885D01*
X159049565Y-90012467D01*
X158851151Y-89973000D01*
X158648849Y-89973000D01*
X158450435Y-90012467D01*
X158304297Y-90073000D01*
X147633976Y-90073000D01*
X144437688Y-86876713D01*
X144408659Y-86841341D01*
X144267505Y-86725499D01*
X144106464Y-86639420D01*
X143931724Y-86586413D01*
X143795538Y-86573000D01*
X143795527Y-86573000D01*
X143750000Y-86568516D01*
X143704473Y-86573000D01*
X143195703Y-86573000D01*
X143049565Y-86512467D01*
X142851151Y-86473000D01*
X142648849Y-86473000D01*
X142450435Y-86512467D01*
X142263533Y-86589885D01*
X142095326Y-86702277D01*
X141952277Y-86845326D01*
X141839885Y-87013533D01*
X141762467Y-87200435D01*
X141723000Y-87398849D01*
X141723000Y-87601151D01*
X141762467Y-87799565D01*
X141839885Y-87986467D01*
X141952277Y-88154674D01*
X142095326Y-88297723D01*
X142263533Y-88410115D01*
X142450435Y-88487533D01*
X142648849Y-88527000D01*
X142851151Y-88527000D01*
X143049565Y-88487533D01*
X143195703Y-88427000D01*
X143366025Y-88427000D01*
X146562316Y-91623292D01*
X146591341Y-91658659D01*
X146626708Y-91687684D01*
X146626711Y-91687687D01*
X146732494Y-91774501D01*
X146818573Y-91820511D01*
X146893536Y-91860580D01*
X147068276Y-91913587D01*
X147204462Y-91927000D01*
X147204474Y-91927000D01*
X147249999Y-91931484D01*
X147295524Y-91927000D01*
X158304297Y-91927000D01*
X158450435Y-91987533D01*
X158648849Y-92027000D01*
X158851151Y-92027000D01*
X159049565Y-91987533D01*
X159236467Y-91910115D01*
X159404674Y-91797723D01*
X159547723Y-91654674D01*
X159599623Y-91577000D01*
X165260999Y-91577000D01*
X168859111Y-95175113D01*
X168884285Y-95301672D01*
X168939465Y-95434887D01*
X169019573Y-95554778D01*
X169121532Y-95656737D01*
X169241423Y-95736845D01*
X169374638Y-95792025D01*
X169389934Y-95795067D01*
X168437658Y-96747343D01*
X168398690Y-96653268D01*
X168318582Y-96533377D01*
X168216623Y-96431418D01*
X168096732Y-96351310D01*
X167963517Y-96296130D01*
X167822096Y-96268000D01*
X167677904Y-96268000D01*
X167536483Y-96296130D01*
X167403268Y-96351310D01*
X167295976Y-96423000D01*
X149821209Y-96423000D01*
X149792878Y-96420210D01*
X149764547Y-96423000D01*
X149764542Y-96423000D01*
X149737764Y-96425637D01*
X149679766Y-96431349D01*
X149615660Y-96450796D01*
X149571002Y-96464343D01*
X149470763Y-96517921D01*
X149417600Y-96561552D01*
X149404913Y-96571963D01*
X149404911Y-96571965D01*
X149382904Y-96590026D01*
X149364843Y-96612033D01*
X142112038Y-103864839D01*
X142090026Y-103882904D01*
X142077000Y-103898776D01*
X142077000Y-102378999D01*
X144473999Y-99982000D01*
X144572096Y-99982000D01*
X144713517Y-99953870D01*
X144846732Y-99898690D01*
X144966623Y-99818582D01*
X145068582Y-99716623D01*
X145148690Y-99596732D01*
X145203870Y-99463517D01*
X145232000Y-99322096D01*
X145232000Y-99177904D01*
X145203870Y-99036483D01*
X145148690Y-98903268D01*
X145068582Y-98783377D01*
X144966623Y-98681418D01*
X144846732Y-98601310D01*
X144713517Y-98546130D01*
X144572096Y-98518000D01*
X144427904Y-98518000D01*
X144286483Y-98546130D01*
X144153268Y-98601310D01*
X144033377Y-98681418D01*
X143981946Y-98732849D01*
X143909238Y-98624033D01*
X143807279Y-98522074D01*
X143687388Y-98441966D01*
X143554173Y-98386786D01*
X143412752Y-98358656D01*
X143268560Y-98358656D01*
X143127139Y-98386786D01*
X142993924Y-98441966D01*
X142874033Y-98522074D01*
X142836265Y-98559842D01*
X142818582Y-98533377D01*
X142716623Y-98431418D01*
X142596732Y-98351310D01*
X142463517Y-98296130D01*
X142322096Y-98268000D01*
X142177904Y-98268000D01*
X142036483Y-98296130D01*
X141903268Y-98351310D01*
X141783377Y-98431418D01*
X141681418Y-98533377D01*
X141601310Y-98653268D01*
X141546130Y-98786483D01*
X141520956Y-98913043D01*
X139612038Y-100821961D01*
X139590026Y-100840026D01*
X139517921Y-100927886D01*
X139464343Y-101028125D01*
X139461808Y-101036483D01*
X139431349Y-101136889D01*
X139428395Y-101166888D01*
X139424356Y-101207904D01*
X139420210Y-101250000D01*
X134432001Y-101250000D01*
X134432001Y-94300528D01*
X134436485Y-94255001D01*
X134432001Y-94209474D01*
X134432001Y-94209463D01*
X134418588Y-94073277D01*
X134365581Y-93898537D01*
X134344266Y-93858660D01*
X134279503Y-93737496D01*
X134192689Y-93631713D01*
X134192685Y-93631709D01*
X134163660Y-93596342D01*
X134128294Y-93567318D01*
X132477001Y-91916026D01*
X132477001Y-88595528D01*
X132481485Y-88550001D01*
X132477001Y-88504474D01*
X132477001Y-88504463D01*
X132463588Y-88368277D01*
X132410581Y-88193537D01*
X132386610Y-88148690D01*
X132324503Y-88032495D01*
X132237689Y-87926713D01*
X132237685Y-87926709D01*
X132208660Y-87891342D01*
X132173295Y-87862319D01*
X130738880Y-86427904D01*
X148388000Y-86427904D01*
X148388000Y-86572096D01*
X148416130Y-86713517D01*
X148471310Y-86846732D01*
X148551418Y-86966623D01*
X148568000Y-86983205D01*
X148568000Y-87342894D01*
X148565330Y-87370000D01*
X148568000Y-87397106D01*
X148568000Y-87397109D01*
X148575988Y-87478211D01*
X148607552Y-87582263D01*
X148658809Y-87678158D01*
X148727789Y-87762211D01*
X148748855Y-87779499D01*
X150018000Y-89048646D01*
X150018000Y-89072096D01*
X150046130Y-89213517D01*
X150101310Y-89346732D01*
X150181418Y-89466623D01*
X150283377Y-89568582D01*
X150403268Y-89648690D01*
X150536483Y-89703870D01*
X150677904Y-89732000D01*
X150822096Y-89732000D01*
X150963517Y-89703870D01*
X151096732Y-89648690D01*
X151216623Y-89568582D01*
X151318582Y-89466623D01*
X151398690Y-89346732D01*
X151453870Y-89213517D01*
X151482000Y-89072096D01*
X151482000Y-88927904D01*
X151453870Y-88786483D01*
X151398690Y-88653268D01*
X151318582Y-88533377D01*
X151216623Y-88431418D01*
X151096732Y-88351310D01*
X150963517Y-88296130D01*
X150822096Y-88268000D01*
X150798646Y-88268000D01*
X150646249Y-88115604D01*
X150716623Y-88068582D01*
X150818582Y-87966623D01*
X150898690Y-87846732D01*
X150953870Y-87713517D01*
X150982000Y-87572096D01*
X150982000Y-87548645D01*
X151390492Y-87140153D01*
X151403268Y-87148690D01*
X151536483Y-87203870D01*
X151677904Y-87232000D01*
X151822096Y-87232000D01*
X151963517Y-87203870D01*
X152096732Y-87148690D01*
X152216623Y-87068582D01*
X152318582Y-86966623D01*
X152398690Y-86846732D01*
X152453870Y-86713517D01*
X152482000Y-86572096D01*
X152482000Y-86427904D01*
X152453870Y-86286483D01*
X152398690Y-86153268D01*
X152318582Y-86033377D01*
X152216623Y-85931418D01*
X152096732Y-85851310D01*
X151963517Y-85796130D01*
X151822096Y-85768000D01*
X151677904Y-85768000D01*
X151536483Y-85796130D01*
X151403268Y-85851310D01*
X151283377Y-85931418D01*
X151267720Y-85947075D01*
X151250000Y-85945330D01*
X151222891Y-85948000D01*
X151141789Y-85955988D01*
X151037737Y-85987552D01*
X150941842Y-86038809D01*
X150857789Y-86107789D01*
X150840508Y-86128846D01*
X150201355Y-86768000D01*
X150177904Y-86768000D01*
X150036483Y-86796130D01*
X149903268Y-86851310D01*
X149783377Y-86931418D01*
X149681418Y-87033377D01*
X149672000Y-87047472D01*
X149672000Y-86983205D01*
X149688582Y-86966623D01*
X149768690Y-86846732D01*
X149823870Y-86713517D01*
X149852000Y-86572096D01*
X149852000Y-86427904D01*
X149823870Y-86286483D01*
X149768690Y-86153268D01*
X149688582Y-86033377D01*
X149586623Y-85931418D01*
X149466732Y-85851310D01*
X149333517Y-85796130D01*
X149192096Y-85768000D01*
X149047904Y-85768000D01*
X148906483Y-85796130D01*
X148773268Y-85851310D01*
X148653377Y-85931418D01*
X148551418Y-86033377D01*
X148471310Y-86153268D01*
X148416130Y-86286483D01*
X148388000Y-86427904D01*
X130738880Y-86427904D01*
X126229524Y-81918548D01*
X135923000Y-81918548D01*
X135923000Y-82081452D01*
X135954782Y-82241227D01*
X136017123Y-82391731D01*
X136107628Y-82527181D01*
X136222819Y-82642372D01*
X136358269Y-82732877D01*
X136508773Y-82795218D01*
X136668548Y-82827000D01*
X136831452Y-82827000D01*
X136991227Y-82795218D01*
X137141731Y-82732877D01*
X137277181Y-82642372D01*
X137392372Y-82527181D01*
X137482877Y-82391731D01*
X137545218Y-82241227D01*
X137577000Y-82081452D01*
X137577000Y-81989001D01*
X137989001Y-81577000D01*
X139038016Y-81577000D01*
X139017123Y-81608269D01*
X138954782Y-81758773D01*
X138923000Y-81918548D01*
X138923000Y-82081452D01*
X138954782Y-82241227D01*
X139017123Y-82391731D01*
X139107628Y-82527181D01*
X139222819Y-82642372D01*
X139358269Y-82732877D01*
X139508773Y-82795218D01*
X139668548Y-82827000D01*
X139831452Y-82827000D01*
X139991227Y-82795218D01*
X140141731Y-82732877D01*
X140277181Y-82642372D01*
X140342553Y-82577000D01*
X150657447Y-82577000D01*
X150722819Y-82642372D01*
X150858269Y-82732877D01*
X151008773Y-82795218D01*
X151168548Y-82827000D01*
X151331452Y-82827000D01*
X151491227Y-82795218D01*
X151641731Y-82732877D01*
X151777181Y-82642372D01*
X151892372Y-82527181D01*
X151982877Y-82391731D01*
X152045218Y-82241227D01*
X152077000Y-82081452D01*
X152077000Y-81918548D01*
X152045218Y-81758773D01*
X151982877Y-81608269D01*
X151910534Y-81500000D01*
X151982877Y-81391731D01*
X152045218Y-81241227D01*
X152077000Y-81081452D01*
X152077000Y-80918548D01*
X152045218Y-80758773D01*
X151982877Y-80608269D01*
X151892372Y-80472819D01*
X151777181Y-80357628D01*
X151641731Y-80267123D01*
X151491227Y-80204782D01*
X151331452Y-80173000D01*
X151168548Y-80173000D01*
X151008773Y-80204782D01*
X150858269Y-80267123D01*
X150722819Y-80357628D01*
X150657447Y-80423000D01*
X137778339Y-80423000D01*
X137750000Y-80420209D01*
X137636888Y-80431349D01*
X137528123Y-80464343D01*
X137512266Y-80472819D01*
X137427885Y-80517921D01*
X137340026Y-80590026D01*
X137321961Y-80612038D01*
X136760999Y-81173000D01*
X136668548Y-81173000D01*
X136508773Y-81204782D01*
X136358269Y-81267123D01*
X136222819Y-81357628D01*
X136107628Y-81472819D01*
X136017123Y-81608269D01*
X135954782Y-81758773D01*
X135923000Y-81918548D01*
X126229524Y-81918548D01*
X124470649Y-80159674D01*
X124410115Y-80013533D01*
X124297723Y-79845326D01*
X124154674Y-79702277D01*
X123986467Y-79589885D01*
X123799565Y-79512467D01*
X123601151Y-79473000D01*
X123398849Y-79473000D01*
X123200435Y-79512467D01*
X123013533Y-79589885D01*
X122845326Y-79702277D01*
X122702277Y-79845326D01*
X122589885Y-80013533D01*
X122512467Y-80200435D01*
X122473000Y-80398849D01*
X122473000Y-80601151D01*
X122512467Y-80799565D01*
X122589885Y-80986467D01*
X122702277Y-81154674D01*
X122845326Y-81297723D01*
X123013533Y-81410115D01*
X123159674Y-81470649D01*
X130623001Y-88933977D01*
X130623002Y-92254464D01*
X130618517Y-92300001D01*
X130623002Y-92345538D01*
X130623002Y-92345539D01*
X130627075Y-92386888D01*
X130636415Y-92481724D01*
X130689421Y-92656464D01*
X130775500Y-92817506D01*
X130862313Y-92923288D01*
X130862318Y-92923293D01*
X130891343Y-92958660D01*
X130926709Y-92987684D01*
X132578001Y-94638977D01*
X132578002Y-104512001D01*
X131382789Y-103316788D01*
X131491227Y-103295218D01*
X131641731Y-103232877D01*
X131777181Y-103142372D01*
X131892372Y-103027181D01*
X131982877Y-102891731D01*
X132045218Y-102741227D01*
X132077000Y-102581452D01*
X132077000Y-102418548D01*
X132045218Y-102258773D01*
X131982877Y-102108269D01*
X131892372Y-101972819D01*
X131777181Y-101857628D01*
X131641731Y-101767123D01*
X131491227Y-101704782D01*
X131392582Y-101685160D01*
X131247225Y-101539803D01*
X131226026Y-101513972D01*
X131122940Y-101429371D01*
X131005329Y-101366507D01*
X130877714Y-101327795D01*
X130778251Y-101317999D01*
X130778244Y-101317999D01*
X130744999Y-101314725D01*
X130711754Y-101317999D01*
X128288242Y-101317999D01*
X128255000Y-101314725D01*
X128231321Y-101317057D01*
X130873294Y-98675084D01*
X130908659Y-98646061D01*
X130937684Y-98610694D01*
X130937688Y-98610690D01*
X131024502Y-98504907D01*
X131110580Y-98343866D01*
X131123280Y-98302000D01*
X131163587Y-98169126D01*
X131177000Y-98032940D01*
X131177000Y-98032929D01*
X131181484Y-97987402D01*
X131177000Y-97941875D01*
X131177000Y-95945703D01*
X131237533Y-95799565D01*
X131277000Y-95601151D01*
X131277000Y-95398849D01*
X131237533Y-95200435D01*
X131160115Y-95013533D01*
X131047723Y-94845326D01*
X130904674Y-94702277D01*
X130736467Y-94589885D01*
X130549565Y-94512467D01*
X130351151Y-94473000D01*
X130148849Y-94473000D01*
X129950435Y-94512467D01*
X129763533Y-94589885D01*
X129595326Y-94702277D01*
X129452277Y-94845326D01*
X129339885Y-95013533D01*
X129262467Y-95200435D01*
X129223000Y-95398849D01*
X129223000Y-95601151D01*
X129262467Y-95799565D01*
X129323001Y-95945705D01*
X129323000Y-97603426D01*
X126098409Y-100828017D01*
X126068582Y-100783377D01*
X125966623Y-100681418D01*
X125846732Y-100601310D01*
X125713517Y-100546130D01*
X125572096Y-100518000D01*
X125427904Y-100518000D01*
X125286483Y-100546130D01*
X125153268Y-100601310D01*
X125033377Y-100681418D01*
X125011795Y-100703000D01*
X123454024Y-100703000D01*
X123346732Y-100631310D01*
X123213517Y-100576130D01*
X123072096Y-100548000D01*
X122927904Y-100548000D01*
X122786483Y-100576130D01*
X122653268Y-100631310D01*
X122533377Y-100711418D01*
X122431418Y-100813377D01*
X122351310Y-100933268D01*
X122296130Y-101066483D01*
X122268000Y-101207904D01*
X122268000Y-101352096D01*
X122296130Y-101493517D01*
X122351310Y-101626732D01*
X122431418Y-101746623D01*
X122533377Y-101848582D01*
X122653268Y-101928690D01*
X122786483Y-101983870D01*
X122927904Y-102012000D01*
X123072096Y-102012000D01*
X123213517Y-101983870D01*
X123346732Y-101928690D01*
X123454024Y-101857000D01*
X125069427Y-101857000D01*
X121436458Y-105489969D01*
X121351151Y-105473000D01*
X121148849Y-105473000D01*
X120950435Y-105512467D01*
X120763533Y-105589885D01*
X120595326Y-105702277D01*
X120452277Y-105845326D01*
X120339885Y-106013533D01*
X120262467Y-106200435D01*
X120223000Y-106398849D01*
X117565449Y-106398849D01*
X113685786Y-102519187D01*
X113716623Y-102498582D01*
X113818582Y-102396623D01*
X113898690Y-102276732D01*
X113953870Y-102143517D01*
X113982000Y-102002096D01*
X113982000Y-101857904D01*
X113953870Y-101716483D01*
X113898690Y-101583268D01*
X113818582Y-101463377D01*
X113802000Y-101446795D01*
X113802000Y-99728644D01*
X115228646Y-98302000D01*
X116596795Y-98302000D01*
X116613377Y-98318582D01*
X116733268Y-98398690D01*
X116866483Y-98453870D01*
X117007904Y-98482000D01*
X117152096Y-98482000D01*
X117293517Y-98453870D01*
X117426732Y-98398690D01*
X117546623Y-98318582D01*
X117648582Y-98216623D01*
X117728690Y-98096732D01*
X117783870Y-97963517D01*
X117812000Y-97822096D01*
X117812000Y-97677904D01*
X117783870Y-97536483D01*
X117728690Y-97403268D01*
X117648582Y-97283377D01*
X117546623Y-97181418D01*
X117426732Y-97101310D01*
X117293517Y-97046130D01*
X117152096Y-97018000D01*
X117007904Y-97018000D01*
X116866483Y-97046130D01*
X116733268Y-97101310D01*
X116613377Y-97181418D01*
X116596795Y-97198000D01*
X115027108Y-97198000D01*
X115000000Y-97195330D01*
X114972891Y-97198000D01*
X114891789Y-97205988D01*
X114787737Y-97237552D01*
X114691842Y-97288809D01*
X114607789Y-97357789D01*
X114590508Y-97378846D01*
X114197720Y-97771635D01*
X114148690Y-97653268D01*
X114068582Y-97533377D01*
X113966623Y-97431418D01*
X113846732Y-97351310D01*
X113713517Y-97296130D01*
X113572096Y-97268000D01*
X113427904Y-97268000D01*
X113286483Y-97296130D01*
X113153268Y-97351310D01*
X113045976Y-97423000D01*
X112778328Y-97423000D01*
X112749999Y-97420210D01*
X112721670Y-97423000D01*
X112721664Y-97423000D01*
X112636888Y-97431350D01*
X112528124Y-97464343D01*
X112427885Y-97517921D01*
X112381980Y-97555595D01*
X112362035Y-97571963D01*
X112362033Y-97571965D01*
X112340026Y-97590026D01*
X112321965Y-97612033D01*
X111612038Y-98321961D01*
X111590026Y-98340026D01*
X111517921Y-98427886D01*
X111464343Y-98528125D01*
X111456191Y-98555000D01*
X111431349Y-98636889D01*
X111420210Y-98750000D01*
X106810975Y-98750000D01*
X111090327Y-94470649D01*
X111236467Y-94410115D01*
X111404674Y-94297723D01*
X111547723Y-94154674D01*
X111660115Y-93986467D01*
X111737533Y-93799565D01*
X111777000Y-93601151D01*
X111777000Y-93398849D01*
X111737533Y-93200435D01*
X111660115Y-93013533D01*
X111547723Y-92845326D01*
X111404674Y-92702277D01*
X111236467Y-92589885D01*
X111090327Y-92529351D01*
X106677000Y-88116025D01*
X106677000Y-82927904D01*
X107018000Y-82927904D01*
X107018000Y-83072096D01*
X107046130Y-83213517D01*
X107101310Y-83346732D01*
X107173000Y-83454024D01*
X107173000Y-83721669D01*
X107170210Y-83750000D01*
X107181349Y-83863111D01*
X107200796Y-83927217D01*
X107214343Y-83971875D01*
X107267921Y-84072114D01*
X107340026Y-84159974D01*
X107362038Y-84178039D01*
X112106999Y-88923000D01*
X111454024Y-88923000D01*
X111346732Y-88851310D01*
X111213517Y-88796130D01*
X111072096Y-88768000D01*
X110927904Y-88768000D01*
X110786483Y-88796130D01*
X110653268Y-88851310D01*
X110533377Y-88931418D01*
X110431418Y-89033377D01*
X110351310Y-89153268D01*
X110296130Y-89286483D01*
X110268000Y-89427904D01*
X110268000Y-89572096D01*
X110296130Y-89713517D01*
X110351310Y-89846732D01*
X110431418Y-89966623D01*
X110533377Y-90068582D01*
X110653268Y-90148690D01*
X110786483Y-90203870D01*
X110927904Y-90232000D01*
X111072096Y-90232000D01*
X111213517Y-90203870D01*
X111346732Y-90148690D01*
X111454024Y-90077000D01*
X119211957Y-90077000D01*
X119153268Y-90101310D01*
X119033377Y-90181418D01*
X118931418Y-90283377D01*
X118851310Y-90403268D01*
X118796130Y-90536483D01*
X118768000Y-90677904D01*
X118768000Y-90822096D01*
X118796130Y-90963517D01*
X118851310Y-91096732D01*
X118931418Y-91216623D01*
X119033377Y-91318582D01*
X119153268Y-91398690D01*
X119286483Y-91453870D01*
X119413043Y-91479044D01*
X120520956Y-92586957D01*
X120546130Y-92713517D01*
X120601310Y-92846732D01*
X120681418Y-92966623D01*
X120783377Y-93068582D01*
X120903268Y-93148690D01*
X121036483Y-93203870D01*
X121177904Y-93232000D01*
X121322096Y-93232000D01*
X121463517Y-93203870D01*
X121596732Y-93148690D01*
X121716623Y-93068582D01*
X121818582Y-92966623D01*
X121898690Y-92846732D01*
X121937364Y-92753365D01*
X124270956Y-95086957D01*
X124296130Y-95213517D01*
X124351310Y-95346732D01*
X124431418Y-95466623D01*
X124533377Y-95568582D01*
X124653268Y-95648690D01*
X124786483Y-95703870D01*
X124927904Y-95732000D01*
X125072096Y-95732000D01*
X125213517Y-95703870D01*
X125346732Y-95648690D01*
X125466623Y-95568582D01*
X125568582Y-95466623D01*
X125648690Y-95346732D01*
X125703870Y-95213517D01*
X125717542Y-95144784D01*
X125786275Y-95131112D01*
X125919490Y-95075932D01*
X126039381Y-94995824D01*
X126141340Y-94893865D01*
X126221448Y-94773974D01*
X126276628Y-94640759D01*
X126304758Y-94499338D01*
X126304758Y-94355146D01*
X126276628Y-94213725D01*
X126221448Y-94080510D01*
X126141340Y-93960619D01*
X126039381Y-93858660D01*
X125919490Y-93778552D01*
X125786275Y-93723372D01*
X125659715Y-93698198D01*
X120573545Y-88612028D01*
X120555482Y-88590018D01*
X120467623Y-88517913D01*
X120367384Y-88464335D01*
X120303278Y-88444889D01*
X120258619Y-88431341D01*
X120249375Y-88430431D01*
X120167114Y-88362920D01*
X120066875Y-88309342D01*
X119988796Y-88285657D01*
X119958110Y-88276348D01*
X119903044Y-88270925D01*
X119873335Y-88267999D01*
X119873330Y-88267999D01*
X119844999Y-88265209D01*
X119816668Y-88267999D01*
X113084000Y-88267999D01*
X108327000Y-83510999D01*
X108327000Y-83454024D01*
X108398690Y-83346732D01*
X108453870Y-83213517D01*
X108482000Y-83072096D01*
X108482000Y-82927904D01*
X108453870Y-82786483D01*
X108398690Y-82653268D01*
X108318582Y-82533377D01*
X108216623Y-82431418D01*
X108096732Y-82351310D01*
X107963517Y-82296130D01*
X107822096Y-82268000D01*
X107677904Y-82268000D01*
X107536483Y-82296130D01*
X107403268Y-82351310D01*
X107283377Y-82431418D01*
X107181418Y-82533377D01*
X107101310Y-82653268D01*
X107046130Y-82786483D01*
X107018000Y-82927904D01*
X106677000Y-82927904D01*
X106677000Y-77927904D01*
X107518000Y-77927904D01*
X107518000Y-78072096D01*
X107546130Y-78213517D01*
X107601310Y-78346732D01*
X107681418Y-78466623D01*
X107783377Y-78568582D01*
X107903268Y-78648690D01*
X108036483Y-78703870D01*
X108177904Y-78732000D01*
X108322096Y-78732000D01*
X108463517Y-78703870D01*
X108596732Y-78648690D01*
X108716623Y-78568582D01*
X108818582Y-78466623D01*
X108898690Y-78346732D01*
X108953870Y-78213517D01*
X108982000Y-78072096D01*
X108982000Y-77927904D01*
X108953870Y-77786483D01*
X108898690Y-77653268D01*
X108818582Y-77533377D01*
X108716623Y-77431418D01*
X108596732Y-77351310D01*
X108463517Y-77296130D01*
X108322096Y-77268000D01*
X108177904Y-77268000D01*
X108036483Y-77296130D01*
X107903268Y-77351310D01*
X107783377Y-77431418D01*
X107681418Y-77533377D01*
X107601310Y-77653268D01*
X107546130Y-77786483D01*
X107518000Y-77927904D01*
X106677000Y-77927904D01*
X106677000Y-76896573D01*
X110646574Y-72927000D01*
X114897704Y-72927000D01*
X114839885Y-73013533D01*
X114762467Y-73200435D01*
X114723000Y-73398849D01*
X114723000Y-73601151D01*
X114762467Y-73799565D01*
X114823001Y-73945706D01*
X114823000Y-77954473D01*
X114818516Y-78000000D01*
X114823000Y-78045527D01*
X114823000Y-78045537D01*
X114836413Y-78181723D01*
X114886468Y-78346732D01*
X114889420Y-78356463D01*
X114975499Y-78517505D01*
X115017417Y-78568582D01*
X115091341Y-78658659D01*
X115126713Y-78687688D01*
X119279351Y-82840327D01*
X119339885Y-82986467D01*
X119452277Y-83154674D01*
X119595326Y-83297723D01*
X119763533Y-83410115D01*
X119950435Y-83487533D01*
X120148849Y-83527000D01*
X120351151Y-83527000D01*
X120549565Y-83487533D01*
X120736467Y-83410115D01*
X120904674Y-83297723D01*
X121047723Y-83154674D01*
X121160115Y-82986467D01*
X121237533Y-82799565D01*
X121277000Y-82601151D01*
X121277000Y-82398849D01*
X121237533Y-82200435D01*
X121160115Y-82013533D01*
X121047723Y-81845326D01*
X120904674Y-81702277D01*
X120736467Y-81589885D01*
X120590327Y-81529351D01*
X116677000Y-77616025D01*
X116677000Y-73945703D01*
X116737533Y-73799565D01*
X116777000Y-73601151D01*
X116777000Y-73398849D01*
X116737533Y-73200435D01*
X116660115Y-73013533D01*
X116602296Y-72927000D01*
X120204473Y-72927000D01*
X120250000Y-72931484D01*
X120295527Y-72927000D01*
X120295538Y-72927000D01*
X120431724Y-72913587D01*
X120606464Y-72860580D01*
X120767505Y-72774501D01*
X120908659Y-72658659D01*
X120937688Y-72623287D01*
X121533293Y-72027683D01*
X121568659Y-71998659D01*
X121597684Y-71963292D01*
X121597688Y-71963288D01*
X121684501Y-71857506D01*
X121770580Y-71696464D01*
X121786635Y-71643537D01*
X121823587Y-71521724D01*
X121837000Y-71385538D01*
X121837000Y-71385527D01*
X121841484Y-71340000D01*
X121837000Y-71294473D01*
X121837000Y-68626111D01*
X121872896Y-68606924D01*
X122067344Y-68447344D01*
X122226924Y-68252896D01*
X122345502Y-68031051D01*
X122418522Y-67790336D01*
X122430000Y-67673798D01*
X122441478Y-67790336D01*
X122514498Y-68031051D01*
X122633076Y-68252896D01*
X122792656Y-68447344D01*
X122987104Y-68606924D01*
X123208949Y-68725502D01*
X123449664Y-68798522D01*
X123637274Y-68817000D01*
X123762726Y-68817000D01*
X123950336Y-68798522D01*
X124191051Y-68725502D01*
X124412896Y-68606924D01*
X124607344Y-68447344D01*
X124766924Y-68252896D01*
X124885502Y-68031051D01*
X124958522Y-67790336D01*
X124983178Y-67540000D01*
X128716822Y-67540000D01*
X128741478Y-67790336D01*
X128814498Y-68031051D01*
X128933076Y-68252896D01*
X129092656Y-68447344D01*
X129287104Y-68606924D01*
X129508949Y-68725502D01*
X129749664Y-68798522D01*
X129937274Y-68817000D01*
X130062726Y-68817000D01*
X130250336Y-68798522D01*
X130491051Y-68725502D01*
X130712896Y-68606924D01*
X130907344Y-68447344D01*
X131066924Y-68252896D01*
X131185502Y-68031051D01*
X131258522Y-67790336D01*
X131270000Y-67673798D01*
X131281478Y-67790336D01*
X131354498Y-68031051D01*
X131473076Y-68252896D01*
X131632656Y-68447344D01*
X131827104Y-68606924D01*
X132048949Y-68725502D01*
X132289664Y-68798522D01*
X132477274Y-68817000D01*
X132602726Y-68817000D01*
X132790336Y-68798522D01*
X133031051Y-68725502D01*
X133252896Y-68606924D01*
X133447344Y-68447344D01*
X133606924Y-68252896D01*
X133725502Y-68031051D01*
X133798522Y-67790336D01*
X133810000Y-67673798D01*
X133821478Y-67790336D01*
X133894498Y-68031051D01*
X134013076Y-68252896D01*
X134172656Y-68447344D01*
X134367104Y-68606924D01*
X134588949Y-68725502D01*
X134829664Y-68798522D01*
X135017274Y-68817000D01*
X135142726Y-68817000D01*
X135330336Y-68798522D01*
X135571051Y-68725502D01*
X135792896Y-68606924D01*
X135987344Y-68447344D01*
X136146924Y-68252896D01*
X136265502Y-68031051D01*
X136338522Y-67790336D01*
X136350000Y-67673798D01*
X136361478Y-67790336D01*
X136434498Y-68031051D01*
X136553076Y-68252896D01*
X136712656Y-68447344D01*
X136907104Y-68606924D01*
X137128949Y-68725502D01*
X137369664Y-68798522D01*
X137557274Y-68817000D01*
X137682726Y-68817000D01*
X137870336Y-68798522D01*
X138111051Y-68725502D01*
X138332896Y-68606924D01*
X138527344Y-68447344D01*
X138686924Y-68252896D01*
X138805502Y-68031051D01*
X138878522Y-67790336D01*
X138890000Y-67673798D01*
X138901478Y-67790336D01*
X138974498Y-68031051D01*
X139093076Y-68252896D01*
X139252656Y-68447344D01*
X139447104Y-68606924D01*
X139668949Y-68725502D01*
X139909664Y-68798522D01*
X140097274Y-68817000D01*
X140222726Y-68817000D01*
X140410336Y-68798522D01*
X140651051Y-68725502D01*
X140872896Y-68606924D01*
X141067344Y-68447344D01*
X141226924Y-68252896D01*
X141345502Y-68031051D01*
X141418522Y-67790336D01*
X141430000Y-67673798D01*
X141441478Y-67790336D01*
X141514498Y-68031051D01*
X141633076Y-68252896D01*
X141792656Y-68447344D01*
X141987104Y-68606924D01*
X142208949Y-68725502D01*
X142449664Y-68798522D01*
X142637274Y-68817000D01*
X142762726Y-68817000D01*
X142950336Y-68798522D01*
X143191051Y-68725502D01*
X143412896Y-68606924D01*
X143607344Y-68447344D01*
X143766924Y-68252896D01*
X143885502Y-68031051D01*
X143958522Y-67790336D01*
X143970000Y-67673798D01*
X143981478Y-67790336D01*
X144054498Y-68031051D01*
X144173076Y-68252896D01*
X144332656Y-68447344D01*
X144527104Y-68606924D01*
X144748949Y-68725502D01*
X144989664Y-68798522D01*
X145177274Y-68817000D01*
X145302726Y-68817000D01*
X145490336Y-68798522D01*
X145731051Y-68725502D01*
X145952896Y-68606924D01*
X146147344Y-68447344D01*
X146306924Y-68252896D01*
X146425502Y-68031051D01*
X146498522Y-67790336D01*
X146510000Y-67673798D01*
X146521478Y-67790336D01*
X146594498Y-68031051D01*
X146713076Y-68252896D01*
X146872656Y-68447344D01*
X147067104Y-68606924D01*
X147288949Y-68725502D01*
X147529664Y-68798522D01*
X147717274Y-68817000D01*
X147842726Y-68817000D01*
X148030336Y-68798522D01*
X148271051Y-68725502D01*
X148492896Y-68606924D01*
X148687344Y-68447344D01*
X148846924Y-68252896D01*
X148965502Y-68031051D01*
X149038522Y-67790336D01*
X149050000Y-67673798D01*
X149061478Y-67790336D01*
X149134498Y-68031051D01*
X149253076Y-68252896D01*
X149412656Y-68447344D01*
X149607104Y-68606924D01*
X149828949Y-68725502D01*
X150069664Y-68798522D01*
X150257274Y-68817000D01*
X150382726Y-68817000D01*
X150570336Y-68798522D01*
X150811051Y-68725502D01*
X151032896Y-68606924D01*
X151227344Y-68447344D01*
X151386924Y-68252896D01*
X151505502Y-68031051D01*
X151578522Y-67790336D01*
X151590000Y-67673798D01*
X151601478Y-67790336D01*
X151674498Y-68031051D01*
X151793076Y-68252896D01*
X151952656Y-68447344D01*
X152147104Y-68606924D01*
X152368949Y-68725502D01*
X152609664Y-68798522D01*
X152797274Y-68817000D01*
X152922726Y-68817000D01*
X153110336Y-68798522D01*
X153351051Y-68725502D01*
X153572896Y-68606924D01*
X153767344Y-68447344D01*
X153926924Y-68252896D01*
X154045502Y-68031051D01*
X154118522Y-67790336D01*
X154130000Y-67673798D01*
X154141478Y-67790336D01*
X154214498Y-68031051D01*
X154333076Y-68252896D01*
X154492656Y-68447344D01*
X154687104Y-68606924D01*
X154908949Y-68725502D01*
X155149664Y-68798522D01*
X155337274Y-68817000D01*
X155462726Y-68817000D01*
X155650336Y-68798522D01*
X155891051Y-68725502D01*
X156112896Y-68606924D01*
X156307344Y-68447344D01*
X156466924Y-68252896D01*
X156585502Y-68031051D01*
X156658522Y-67790336D01*
X156670000Y-67673798D01*
X156681478Y-67790336D01*
X156754498Y-68031051D01*
X156873076Y-68252896D01*
X157032656Y-68447344D01*
X157227104Y-68606924D01*
X157448949Y-68725502D01*
X157689664Y-68798522D01*
X157877274Y-68817000D01*
X158002726Y-68817000D01*
X158190336Y-68798522D01*
X158431051Y-68725502D01*
X158652896Y-68606924D01*
X158847344Y-68447344D01*
X159006924Y-68252896D01*
X159125502Y-68031051D01*
X159198522Y-67790336D01*
X159210000Y-67673798D01*
X159221478Y-67790336D01*
X159294498Y-68031051D01*
X159413076Y-68252896D01*
X159572656Y-68447344D01*
X159767104Y-68606924D01*
X159988949Y-68725502D01*
X160229664Y-68798522D01*
X160417274Y-68817000D01*
X160542726Y-68817000D01*
X160730336Y-68798522D01*
X160971051Y-68725502D01*
X161192896Y-68606924D01*
X161387344Y-68447344D01*
X161546924Y-68252896D01*
X161665502Y-68031051D01*
X161738522Y-67790336D01*
X161750000Y-67673798D01*
X161761478Y-67790336D01*
X161834498Y-68031051D01*
X161953076Y-68252896D01*
X162112656Y-68447344D01*
X162307104Y-68606924D01*
X162528949Y-68725502D01*
X162769664Y-68798522D01*
X162957274Y-68817000D01*
X163082726Y-68817000D01*
X163270336Y-68798522D01*
X163511051Y-68725502D01*
X163732896Y-68606924D01*
X163927344Y-68447344D01*
X164086924Y-68252896D01*
X164205502Y-68031051D01*
X164278522Y-67790336D01*
X164290000Y-67673798D01*
X164301478Y-67790336D01*
X164374498Y-68031051D01*
X164493076Y-68252896D01*
X164652656Y-68447344D01*
X164847104Y-68606924D01*
X165068949Y-68725502D01*
X165309664Y-68798522D01*
X165497274Y-68817000D01*
X165622726Y-68817000D01*
X165810336Y-68798522D01*
X166051051Y-68725502D01*
X166272896Y-68606924D01*
X166467344Y-68447344D01*
X166626924Y-68252896D01*
X166745502Y-68031051D01*
X166818522Y-67790336D01*
X166830000Y-67673798D01*
X166841478Y-67790336D01*
X166914498Y-68031051D01*
X167033076Y-68252896D01*
X167192656Y-68447344D01*
X167387104Y-68606924D01*
X167608949Y-68725502D01*
X167849664Y-68798522D01*
X168037274Y-68817000D01*
X168162726Y-68817000D01*
X168350336Y-68798522D01*
X168591051Y-68725502D01*
X168812896Y-68606924D01*
X169007344Y-68447344D01*
X169166924Y-68252896D01*
X169285502Y-68031051D01*
X169358522Y-67790336D01*
X169370000Y-67673798D01*
X169381478Y-67790336D01*
X169454498Y-68031051D01*
X169573076Y-68252896D01*
X169732656Y-68447344D01*
X169927104Y-68606924D01*
X170148949Y-68725502D01*
X170389664Y-68798522D01*
X170577274Y-68817000D01*
X170702726Y-68817000D01*
X170890336Y-68798522D01*
X171131051Y-68725502D01*
X171352896Y-68606924D01*
X171547344Y-68447344D01*
X171706924Y-68252896D01*
X171825502Y-68031051D01*
X171898522Y-67790336D01*
X171910000Y-67673798D01*
X171921478Y-67790336D01*
X171994498Y-68031051D01*
X172113076Y-68252896D01*
X172272656Y-68447344D01*
X172467104Y-68606924D01*
X172688949Y-68725502D01*
X172929664Y-68798522D01*
X173117274Y-68817000D01*
X173242726Y-68817000D01*
X173430336Y-68798522D01*
X173671051Y-68725502D01*
X173892896Y-68606924D01*
X174087344Y-68447344D01*
X174246924Y-68252896D01*
X174365502Y-68031051D01*
X174438522Y-67790336D01*
X174450000Y-67673798D01*
X174461478Y-67790336D01*
X174534498Y-68031051D01*
X174653076Y-68252896D01*
X174812656Y-68447344D01*
X175007104Y-68606924D01*
X175228949Y-68725502D01*
X175469664Y-68798522D01*
X175657274Y-68817000D01*
X175782726Y-68817000D01*
X175970336Y-68798522D01*
X176211051Y-68725502D01*
X176432896Y-68606924D01*
X176627344Y-68447344D01*
X176786924Y-68252896D01*
X176905502Y-68031051D01*
X176978522Y-67790336D01*
X176990000Y-67673798D01*
X177001478Y-67790336D01*
X177074498Y-68031051D01*
X177193076Y-68252896D01*
X177352656Y-68447344D01*
X177547104Y-68606924D01*
X177768949Y-68725502D01*
X178009664Y-68798522D01*
X178197274Y-68817000D01*
X178322726Y-68817000D01*
X178510336Y-68798522D01*
X178751051Y-68725502D01*
X178972896Y-68606924D01*
X179167344Y-68447344D01*
X179326924Y-68252896D01*
X179445502Y-68031051D01*
X179518522Y-67790336D01*
X179543178Y-67540000D01*
X179518522Y-67289664D01*
X179445502Y-67048949D01*
X179326924Y-66827104D01*
X179167344Y-66632656D01*
X178972896Y-66473076D01*
X178751051Y-66354498D01*
X178510336Y-66281478D01*
X178393798Y-66270000D01*
X178510336Y-66258522D01*
X178751051Y-66185502D01*
X178972896Y-66066924D01*
X179167344Y-65907344D01*
X179326924Y-65712896D01*
X179445502Y-65491051D01*
X179518522Y-65250336D01*
X179543178Y-65000000D01*
X179518522Y-64749664D01*
X179445502Y-64508949D01*
X179326924Y-64287104D01*
X179167344Y-64092656D01*
X178972896Y-63933076D01*
X178751051Y-63814498D01*
X178510336Y-63741478D01*
X178322726Y-63723000D01*
X178197274Y-63723000D01*
X178009664Y-63741478D01*
X177768949Y-63814498D01*
X177547104Y-63933076D01*
X177352656Y-64092656D01*
X177193076Y-64287104D01*
X177074498Y-64508949D01*
X177001478Y-64749664D01*
X176990000Y-64866202D01*
X176978522Y-64749664D01*
X176905502Y-64508949D01*
X176786924Y-64287104D01*
X176627344Y-64092656D01*
X176432896Y-63933076D01*
X176211051Y-63814498D01*
X175970336Y-63741478D01*
X175782726Y-63723000D01*
X175657274Y-63723000D01*
X175469664Y-63741478D01*
X175228949Y-63814498D01*
X175007104Y-63933076D01*
X174812656Y-64092656D01*
X174653076Y-64287104D01*
X174534498Y-64508949D01*
X174461478Y-64749664D01*
X174450000Y-64866202D01*
X174438522Y-64749664D01*
X174365502Y-64508949D01*
X174246924Y-64287104D01*
X174087344Y-64092656D01*
X173892896Y-63933076D01*
X173671051Y-63814498D01*
X173430336Y-63741478D01*
X173242726Y-63723000D01*
X173117274Y-63723000D01*
X172929664Y-63741478D01*
X172688949Y-63814498D01*
X172467104Y-63933076D01*
X172272656Y-64092656D01*
X172113076Y-64287104D01*
X171994498Y-64508949D01*
X171921478Y-64749664D01*
X171910000Y-64866202D01*
X171898522Y-64749664D01*
X171825502Y-64508949D01*
X171706924Y-64287104D01*
X171547344Y-64092656D01*
X171352896Y-63933076D01*
X171131051Y-63814498D01*
X170890336Y-63741478D01*
X170702726Y-63723000D01*
X170577274Y-63723000D01*
X170389664Y-63741478D01*
X170148949Y-63814498D01*
X169927104Y-63933076D01*
X169732656Y-64092656D01*
X169573076Y-64287104D01*
X169454498Y-64508949D01*
X169381478Y-64749664D01*
X169370000Y-64866202D01*
X169358522Y-64749664D01*
X169285502Y-64508949D01*
X169166924Y-64287104D01*
X169007344Y-64092656D01*
X168812896Y-63933076D01*
X168591051Y-63814498D01*
X168350336Y-63741478D01*
X168162726Y-63723000D01*
X168037274Y-63723000D01*
X167849664Y-63741478D01*
X167608949Y-63814498D01*
X167387104Y-63933076D01*
X167192656Y-64092656D01*
X167033076Y-64287104D01*
X166914498Y-64508949D01*
X166841478Y-64749664D01*
X166830000Y-64866202D01*
X166818522Y-64749664D01*
X166745502Y-64508949D01*
X166626924Y-64287104D01*
X166467344Y-64092656D01*
X166272896Y-63933076D01*
X166051051Y-63814498D01*
X165810336Y-63741478D01*
X165622726Y-63723000D01*
X165497274Y-63723000D01*
X165309664Y-63741478D01*
X165068949Y-63814498D01*
X164847104Y-63933076D01*
X164652656Y-64092656D01*
X164493076Y-64287104D01*
X164374498Y-64508949D01*
X164301478Y-64749664D01*
X164290000Y-64866202D01*
X164278522Y-64749664D01*
X164205502Y-64508949D01*
X164086924Y-64287104D01*
X163927344Y-64092656D01*
X163732896Y-63933076D01*
X163511051Y-63814498D01*
X163270336Y-63741478D01*
X163082726Y-63723000D01*
X162957274Y-63723000D01*
X162769664Y-63741478D01*
X162528949Y-63814498D01*
X162307104Y-63933076D01*
X162112656Y-64092656D01*
X161953076Y-64287104D01*
X161834498Y-64508949D01*
X161761478Y-64749664D01*
X161750000Y-64866202D01*
X161738522Y-64749664D01*
X161665502Y-64508949D01*
X161546924Y-64287104D01*
X161387344Y-64092656D01*
X161192896Y-63933076D01*
X160971051Y-63814498D01*
X160730336Y-63741478D01*
X160542726Y-63723000D01*
X160417274Y-63723000D01*
X160229664Y-63741478D01*
X159988949Y-63814498D01*
X159767104Y-63933076D01*
X159572656Y-64092656D01*
X159413076Y-64287104D01*
X159294498Y-64508949D01*
X159221478Y-64749664D01*
X159210000Y-64866202D01*
X159198522Y-64749664D01*
X159125502Y-64508949D01*
X159006924Y-64287104D01*
X158847344Y-64092656D01*
X158652896Y-63933076D01*
X158431051Y-63814498D01*
X158190336Y-63741478D01*
X158002726Y-63723000D01*
X157877274Y-63723000D01*
X157689664Y-63741478D01*
X157448949Y-63814498D01*
X157227104Y-63933076D01*
X157032656Y-64092656D01*
X156873076Y-64287104D01*
X156754498Y-64508949D01*
X156681478Y-64749664D01*
X156670000Y-64866202D01*
X156658522Y-64749664D01*
X156585502Y-64508949D01*
X156466924Y-64287104D01*
X156307344Y-64092656D01*
X156112896Y-63933076D01*
X155891051Y-63814498D01*
X155650336Y-63741478D01*
X155462726Y-63723000D01*
X155337274Y-63723000D01*
X155149664Y-63741478D01*
X154908949Y-63814498D01*
X154687104Y-63933076D01*
X154492656Y-64092656D01*
X154333076Y-64287104D01*
X154214498Y-64508949D01*
X154141478Y-64749664D01*
X154130000Y-64866202D01*
X154118522Y-64749664D01*
X154045502Y-64508949D01*
X153926924Y-64287104D01*
X153767344Y-64092656D01*
X153572896Y-63933076D01*
X153351051Y-63814498D01*
X153110336Y-63741478D01*
X152922726Y-63723000D01*
X152797274Y-63723000D01*
X152609664Y-63741478D01*
X152368949Y-63814498D01*
X152147104Y-63933076D01*
X151952656Y-64092656D01*
X151793076Y-64287104D01*
X151674498Y-64508949D01*
X151601478Y-64749664D01*
X151590000Y-64866202D01*
X151578522Y-64749664D01*
X151505502Y-64508949D01*
X151386924Y-64287104D01*
X151227344Y-64092656D01*
X151032896Y-63933076D01*
X150811051Y-63814498D01*
X150570336Y-63741478D01*
X150382726Y-63723000D01*
X150257274Y-63723000D01*
X150069664Y-63741478D01*
X149828949Y-63814498D01*
X149607104Y-63933076D01*
X149412656Y-64092656D01*
X149253076Y-64287104D01*
X149134498Y-64508949D01*
X149061478Y-64749664D01*
X149050000Y-64866202D01*
X149038522Y-64749664D01*
X148965502Y-64508949D01*
X148846924Y-64287104D01*
X148687344Y-64092656D01*
X148492896Y-63933076D01*
X148271051Y-63814498D01*
X148030336Y-63741478D01*
X147842726Y-63723000D01*
X147717274Y-63723000D01*
X147529664Y-63741478D01*
X147288949Y-63814498D01*
X147067104Y-63933076D01*
X146872656Y-64092656D01*
X146713076Y-64287104D01*
X146594498Y-64508949D01*
X146521478Y-64749664D01*
X146510000Y-64866202D01*
X146498522Y-64749664D01*
X146425502Y-64508949D01*
X146306924Y-64287104D01*
X146147344Y-64092656D01*
X145952896Y-63933076D01*
X145731051Y-63814498D01*
X145490336Y-63741478D01*
X145302726Y-63723000D01*
X145177274Y-63723000D01*
X144989664Y-63741478D01*
X144748949Y-63814498D01*
X144527104Y-63933076D01*
X144332656Y-64092656D01*
X144173076Y-64287104D01*
X144054498Y-64508949D01*
X143981478Y-64749664D01*
X143970000Y-64866202D01*
X143958522Y-64749664D01*
X143885502Y-64508949D01*
X143766924Y-64287104D01*
X143607344Y-64092656D01*
X143412896Y-63933076D01*
X143191051Y-63814498D01*
X142950336Y-63741478D01*
X142762726Y-63723000D01*
X142637274Y-63723000D01*
X142449664Y-63741478D01*
X142208949Y-63814498D01*
X141987104Y-63933076D01*
X141792656Y-64092656D01*
X141633076Y-64287104D01*
X141514498Y-64508949D01*
X141441478Y-64749664D01*
X141430000Y-64866202D01*
X141418522Y-64749664D01*
X141345502Y-64508949D01*
X141226924Y-64287104D01*
X141067344Y-64092656D01*
X140872896Y-63933076D01*
X140651051Y-63814498D01*
X140410336Y-63741478D01*
X140222726Y-63723000D01*
X140097274Y-63723000D01*
X139909664Y-63741478D01*
X139668949Y-63814498D01*
X139447104Y-63933076D01*
X139252656Y-64092656D01*
X139093076Y-64287104D01*
X138974498Y-64508949D01*
X138901478Y-64749664D01*
X138890000Y-64866202D01*
X138878522Y-64749664D01*
X138805502Y-64508949D01*
X138686924Y-64287104D01*
X138527344Y-64092656D01*
X138332896Y-63933076D01*
X138111051Y-63814498D01*
X137870336Y-63741478D01*
X137682726Y-63723000D01*
X137557274Y-63723000D01*
X137369664Y-63741478D01*
X137128949Y-63814498D01*
X136907104Y-63933076D01*
X136712656Y-64092656D01*
X136553076Y-64287104D01*
X136434498Y-64508949D01*
X136361478Y-64749664D01*
X136350000Y-64866202D01*
X136338522Y-64749664D01*
X136265502Y-64508949D01*
X136146924Y-64287104D01*
X135987344Y-64092656D01*
X135792896Y-63933076D01*
X135571051Y-63814498D01*
X135330336Y-63741478D01*
X135142726Y-63723000D01*
X135017274Y-63723000D01*
X134829664Y-63741478D01*
X134588949Y-63814498D01*
X134367104Y-63933076D01*
X134172656Y-64092656D01*
X134013076Y-64287104D01*
X133894498Y-64508949D01*
X133821478Y-64749664D01*
X133810000Y-64866202D01*
X133798522Y-64749664D01*
X133725502Y-64508949D01*
X133606924Y-64287104D01*
X133447344Y-64092656D01*
X133252896Y-63933076D01*
X133031051Y-63814498D01*
X132790336Y-63741478D01*
X132602726Y-63723000D01*
X132477274Y-63723000D01*
X132289664Y-63741478D01*
X132048949Y-63814498D01*
X131827104Y-63933076D01*
X131632656Y-64092656D01*
X131473076Y-64287104D01*
X131354498Y-64508949D01*
X131281478Y-64749664D01*
X131279066Y-64774153D01*
X131279066Y-64150000D01*
X131270822Y-64066293D01*
X131246405Y-63985804D01*
X131206755Y-63911624D01*
X131153395Y-63846605D01*
X131088376Y-63793245D01*
X131014196Y-63753595D01*
X130933707Y-63729178D01*
X130850000Y-63720934D01*
X129150000Y-63720934D01*
X129066293Y-63729178D01*
X128985804Y-63753595D01*
X128911624Y-63793245D01*
X128846605Y-63846605D01*
X128793245Y-63911624D01*
X128753595Y-63985804D01*
X128729178Y-64066293D01*
X128720934Y-64150000D01*
X128720934Y-65850000D01*
X128729178Y-65933707D01*
X128753595Y-66014196D01*
X128793245Y-66088376D01*
X128846605Y-66153395D01*
X128911624Y-66206755D01*
X128985804Y-66246405D01*
X129066293Y-66270822D01*
X129150000Y-66279066D01*
X129774153Y-66279066D01*
X129749664Y-66281478D01*
X129508949Y-66354498D01*
X129287104Y-66473076D01*
X129092656Y-66632656D01*
X128933076Y-66827104D01*
X128814498Y-67048949D01*
X128741478Y-67289664D01*
X128716822Y-67540000D01*
X124983178Y-67540000D01*
X124958522Y-67289664D01*
X124885502Y-67048949D01*
X124766924Y-66827104D01*
X124607344Y-66632656D01*
X124412896Y-66473076D01*
X124191051Y-66354498D01*
X123950336Y-66281478D01*
X123762726Y-66263000D01*
X123637274Y-66263000D01*
X123449664Y-66281478D01*
X123208949Y-66354498D01*
X122987104Y-66473076D01*
X122792656Y-66632656D01*
X122633076Y-66827104D01*
X122514498Y-67048949D01*
X122441478Y-67289664D01*
X122430000Y-67406202D01*
X122418522Y-67289664D01*
X122345502Y-67048949D01*
X122226924Y-66827104D01*
X122067344Y-66632656D01*
X121872896Y-66473076D01*
X121651051Y-66354498D01*
X121410336Y-66281478D01*
X121222726Y-66263000D01*
X121097274Y-66263000D01*
X120909664Y-66281478D01*
X120668949Y-66354498D01*
X120447104Y-66473076D01*
X120252656Y-66632656D01*
X120093076Y-66827104D01*
X119974498Y-67048949D01*
X119901478Y-67289664D01*
X119890000Y-67406202D01*
X119878522Y-67289664D01*
X119805502Y-67048949D01*
X119686924Y-66827104D01*
X119527344Y-66632656D01*
X119332896Y-66473076D01*
X119111051Y-66354498D01*
X118870336Y-66281478D01*
X118682726Y-66263000D01*
X118557274Y-66263000D01*
X118369664Y-66281478D01*
X118128949Y-66354498D01*
X117907104Y-66473076D01*
X117712656Y-66632656D01*
X117553076Y-66827104D01*
X117434498Y-67048949D01*
X117361478Y-67289664D01*
X117350000Y-67406202D01*
X117338522Y-67289664D01*
X117265502Y-67048949D01*
X117146924Y-66827104D01*
X116987344Y-66632656D01*
X116792896Y-66473076D01*
X116571051Y-66354498D01*
X116330336Y-66281478D01*
X116142726Y-66263000D01*
X116017274Y-66263000D01*
X115829664Y-66281478D01*
X115588949Y-66354498D01*
X115367104Y-66473076D01*
X115172656Y-66632656D01*
X115013076Y-66827104D01*
X114894498Y-67048949D01*
X114821478Y-67289664D01*
X114810000Y-67406202D01*
X114798522Y-67289664D01*
X114725502Y-67048949D01*
X114606924Y-66827104D01*
X114447344Y-66632656D01*
X114252896Y-66473076D01*
X114031051Y-66354498D01*
X113790336Y-66281478D01*
X113602726Y-66263000D01*
X113477274Y-66263000D01*
X113289664Y-66281478D01*
X113048949Y-66354498D01*
X112827104Y-66473076D01*
X112632656Y-66632656D01*
X112473076Y-66827104D01*
X112354498Y-67048949D01*
X112281478Y-67289664D01*
X112270000Y-67406202D01*
X112258522Y-67289664D01*
X112185502Y-67048949D01*
X112066924Y-66827104D01*
X111907344Y-66632656D01*
X111712896Y-66473076D01*
X111491051Y-66354498D01*
X111250336Y-66281478D01*
X111062726Y-66263000D01*
X110937274Y-66263000D01*
X110749664Y-66281478D01*
X110508949Y-66354498D01*
X110287104Y-66473076D01*
X110092656Y-66632656D01*
X109933076Y-66827104D01*
X109814498Y-67048949D01*
X109741478Y-67289664D01*
X109716822Y-67540000D01*
X109741478Y-67790336D01*
X109814498Y-68031051D01*
X109933076Y-68252896D01*
X110092656Y-68447344D01*
X110287104Y-68606924D01*
X110508949Y-68725502D01*
X110749664Y-68798522D01*
X110937274Y-68817000D01*
X111062726Y-68817000D01*
X111250336Y-68798522D01*
X111491051Y-68725502D01*
X111712896Y-68606924D01*
X111907344Y-68447344D01*
X112066924Y-68252896D01*
X112185502Y-68031051D01*
X112258522Y-67790336D01*
X112270000Y-67673798D01*
X112281478Y-67790336D01*
X112354498Y-68031051D01*
X112473076Y-68252896D01*
X112632656Y-68447344D01*
X112827104Y-68606924D01*
X113048949Y-68725502D01*
X113289664Y-68798522D01*
X113477274Y-68817000D01*
X113602726Y-68817000D01*
X113790336Y-68798522D01*
X114031051Y-68725502D01*
X114252896Y-68606924D01*
X114447344Y-68447344D01*
X114606924Y-68252896D01*
X114725502Y-68031051D01*
X114798522Y-67790336D01*
X114810000Y-67673798D01*
X114821478Y-67790336D01*
X114894498Y-68031051D01*
X115013076Y-68252896D01*
X115172656Y-68447344D01*
X115367104Y-68606924D01*
X115588949Y-68725502D01*
X115829664Y-68798522D01*
X116017274Y-68817000D01*
X116142726Y-68817000D01*
X116330336Y-68798522D01*
X116571051Y-68725502D01*
X116792896Y-68606924D01*
X116987344Y-68447344D01*
X117146924Y-68252896D01*
X117265502Y-68031051D01*
X117338522Y-67790336D01*
X117350000Y-67673798D01*
X117361478Y-67790336D01*
X117434498Y-68031051D01*
X117553076Y-68252896D01*
X117712656Y-68447344D01*
X117907104Y-68606924D01*
X118128949Y-68725502D01*
X118369664Y-68798522D01*
X118557274Y-68817000D01*
X118682726Y-68817000D01*
X118870336Y-68798522D01*
X119111051Y-68725502D01*
X119332896Y-68606924D01*
X119527344Y-68447344D01*
X119686924Y-68252896D01*
X119805502Y-68031051D01*
X119878522Y-67790336D01*
X119890000Y-67673798D01*
X119901478Y-67790336D01*
X119974498Y-68031051D01*
X119983001Y-68046959D01*
X119983000Y-70956024D01*
X119866025Y-71073000D01*
X118852296Y-71073000D01*
X118910115Y-70986467D01*
X118987533Y-70799565D01*
X119027000Y-70601151D01*
X119027000Y-70398849D01*
X118987533Y-70200435D01*
X118910115Y-70013533D01*
X118797723Y-69845326D01*
X118654674Y-69702277D01*
X118486467Y-69589885D01*
X118299565Y-69512467D01*
X118101151Y-69473000D01*
X117898849Y-69473000D01*
X117700435Y-69512467D01*
X117554297Y-69573000D01*
X109795527Y-69573000D01*
X109750000Y-69568516D01*
X109704473Y-69573000D01*
X109704462Y-69573000D01*
X109568276Y-69586413D01*
X109393536Y-69639420D01*
X109232494Y-69725498D01*
X109126712Y-69812312D01*
X109126708Y-69812316D01*
X109091341Y-69841341D01*
X109062316Y-69876708D01*
X103626713Y-75312312D01*
X103591341Y-75341341D01*
X103562313Y-75376712D01*
X103562312Y-75376713D01*
X103475499Y-75482495D01*
X103413220Y-75599011D01*
X103389420Y-75643537D01*
X103377000Y-75684480D01*
X103377000Y-70052000D01*
X103474642Y-70052000D01*
X103866254Y-69974104D01*
X104235145Y-69821304D01*
X104567137Y-69599474D01*
X104849474Y-69317137D01*
X105071304Y-68985145D01*
X105224104Y-68616254D01*
X105302000Y-68224642D01*
X105302000Y-67825358D01*
X105224104Y-67433746D01*
X105071304Y-67064855D01*
X104849474Y-66732863D01*
X104567137Y-66450526D01*
X104235145Y-66228696D01*
X103866254Y-66075896D01*
X103474642Y-65998000D01*
X103377000Y-65998000D01*
X103377000Y-63627000D01*
X186123000Y-63627000D01*
X186123000Y-65998000D01*
G36*
X167403268Y-97648690D02*
G01*
X167497343Y-97687658D01*
X165262001Y-99923000D01*
X151704024Y-99923000D01*
X151596732Y-99851310D01*
X151463517Y-99796130D01*
X151322096Y-99768000D01*
X151177904Y-99768000D01*
X151036483Y-99796130D01*
X150903268Y-99851310D01*
X150783377Y-99931418D01*
X150681418Y-100033377D01*
X150601310Y-100153268D01*
X150546130Y-100286483D01*
X150518000Y-100427904D01*
X150518000Y-100572096D01*
X150546130Y-100713517D01*
X150601310Y-100846732D01*
X150681418Y-100966623D01*
X150714784Y-100999989D01*
X150681418Y-101033355D01*
X150601310Y-101153246D01*
X150546130Y-101286461D01*
X150518000Y-101427882D01*
X150518000Y-101572074D01*
X150546130Y-101713495D01*
X150601310Y-101846710D01*
X150652285Y-101923000D01*
X146689828Y-101923000D01*
X146661497Y-101920210D01*
X146633166Y-101923000D01*
X146633161Y-101923000D01*
X146606383Y-101925637D01*
X146548385Y-101931349D01*
X146484279Y-101950796D01*
X146439621Y-101964343D01*
X146339382Y-102017921D01*
X146251523Y-102090026D01*
X146233458Y-102112038D01*
X144068053Y-104277443D01*
X143941493Y-104302617D01*
X143808278Y-104357797D01*
X143688387Y-104437905D01*
X143586428Y-104539864D01*
X143506320Y-104659755D01*
X143451140Y-104792970D01*
X143423010Y-104934391D01*
X143423010Y-105078583D01*
X143451140Y-105220004D01*
X143506320Y-105353219D01*
X143586428Y-105473110D01*
X143688387Y-105575069D01*
X143808278Y-105655177D01*
X143941493Y-105710357D01*
X144082914Y-105738487D01*
X144227106Y-105738487D01*
X144368527Y-105710357D01*
X144501742Y-105655177D01*
X144621633Y-105575069D01*
X144723592Y-105473110D01*
X144803700Y-105353219D01*
X144858880Y-105220004D01*
X144884054Y-105093444D01*
X146018000Y-103959498D01*
X146018000Y-104072096D01*
X146046130Y-104213517D01*
X146101310Y-104346732D01*
X146173001Y-104454026D01*
X146173000Y-121010998D01*
X142077000Y-125106999D01*
X142077000Y-106347732D01*
X142153268Y-106398692D01*
X142286483Y-106453872D01*
X142427904Y-106482002D01*
X142572096Y-106482002D01*
X142713517Y-106453872D01*
X142846732Y-106398692D01*
X142966623Y-106318584D01*
X143068582Y-106216625D01*
X143148690Y-106096734D01*
X143203870Y-105963519D01*
X143232000Y-105822098D01*
X143232000Y-105677906D01*
X143203870Y-105536485D01*
X143148690Y-105403270D01*
X143077000Y-105295978D01*
X143077000Y-104531879D01*
X150031880Y-97577000D01*
X167295976Y-97577000D01*
X167403268Y-97648690D01*
X167403268Y-97648690D01*
G37*
X167403268Y-97648690D02*
X167497343Y-97687658D01*
X165262001Y-99923000D01*
X151704024Y-99923000D01*
X151596732Y-99851310D01*
X151463517Y-99796130D01*
X151322096Y-99768000D01*
X151177904Y-99768000D01*
X151036483Y-99796130D01*
X150903268Y-99851310D01*
X150783377Y-99931418D01*
X150681418Y-100033377D01*
X150601310Y-100153268D01*
X150546130Y-100286483D01*
X150518000Y-100427904D01*
X150518000Y-100572096D01*
X150546130Y-100713517D01*
X150601310Y-100846732D01*
X150681418Y-100966623D01*
X150714784Y-100999989D01*
X150681418Y-101033355D01*
X150601310Y-101153246D01*
X150546130Y-101286461D01*
X150518000Y-101427882D01*
X150518000Y-101572074D01*
X150546130Y-101713495D01*
X150601310Y-101846710D01*
X150652285Y-101923000D01*
X146689828Y-101923000D01*
X146661497Y-101920210D01*
X146633166Y-101923000D01*
X146633161Y-101923000D01*
X146606383Y-101925637D01*
X146548385Y-101931349D01*
X146484279Y-101950796D01*
X146439621Y-101964343D01*
X146339382Y-102017921D01*
X146251523Y-102090026D01*
X146233458Y-102112038D01*
X144068053Y-104277443D01*
X143941493Y-104302617D01*
X143808278Y-104357797D01*
X143688387Y-104437905D01*
X143586428Y-104539864D01*
X143506320Y-104659755D01*
X143451140Y-104792970D01*
X143423010Y-104934391D01*
X143423010Y-105078583D01*
X143451140Y-105220004D01*
X143506320Y-105353219D01*
X143586428Y-105473110D01*
X143688387Y-105575069D01*
X143808278Y-105655177D01*
X143941493Y-105710357D01*
X144082914Y-105738487D01*
X144227106Y-105738487D01*
X144368527Y-105710357D01*
X144501742Y-105655177D01*
X144621633Y-105575069D01*
X144723592Y-105473110D01*
X144803700Y-105353219D01*
X144858880Y-105220004D01*
X144884054Y-105093444D01*
X146018000Y-103959498D01*
X146018000Y-104072096D01*
X146046130Y-104213517D01*
X146101310Y-104346732D01*
X146173001Y-104454026D01*
X146173000Y-121010998D01*
X142077000Y-125106999D01*
X142077000Y-106347732D01*
X142153268Y-106398692D01*
X142286483Y-106453872D01*
X142427904Y-106482002D01*
X142572096Y-106482002D01*
X142713517Y-106453872D01*
X142846732Y-106398692D01*
X142966623Y-106318584D01*
X143068582Y-106216625D01*
X143148690Y-106096734D01*
X143203870Y-105963519D01*
X143232000Y-105822098D01*
X143232000Y-105677906D01*
X143203870Y-105536485D01*
X143148690Y-105403270D01*
X143077000Y-105295978D01*
X143077000Y-104531879D01*
X150031880Y-97577000D01*
X167295976Y-97577000D01*
X167403268Y-97648690D01*
G36*
X109439024Y-93500000D02*
G01*
X105177000Y-97762025D01*
X105177000Y-89237975D01*
X109439024Y-93500000D01*
X109439024Y-93500000D01*
G37*
X109439024Y-93500000D02*
X105177000Y-97762025D01*
X105177000Y-89237975D01*
X109439024Y-93500000D01*
M02*
