G04 #@! TF.GenerationSoftware,KiCad,Pcbnew,(5.1.4)-1*
G04 #@! TF.CreationDate,2020-03-24T18:05:48+09:00*
G04 #@! TF.ProjectId,cubesat-power,63756265-7361-4742-9d70-6f7765722e6b,1*
G04 #@! TF.SameCoordinates,Original*
G04 #@! TF.FileFunction,Profile,NP*
%FSLAX46Y46*%
G04 Gerber Fmt 4.6, Leading zero omitted, Abs format (unit mm)*
G04 Created by KiCad (PCBNEW (5.1.4)-1) date 2020-03-24 18:05:48*
%MOMM*%
%LPD*%
G04 APERTURE LIST*
%ADD10C,0.050000*%
G04 APERTURE END LIST*
D10*
X147500000Y-147500000D02*
X145750000Y-150000000D01*
X181500000Y-147500000D02*
X183250000Y-150000000D01*
X147500000Y-147500000D02*
X181500000Y-147500000D01*
X189750000Y-63500000D02*
X189750000Y-146500000D01*
X145750000Y-150000000D02*
X106250000Y-150000000D01*
X179750000Y-62500000D02*
X109750000Y-62500000D01*
X182250000Y-60000000D02*
X179750000Y-62500000D01*
X186250000Y-60000000D02*
X182250000Y-60000000D01*
X107250000Y-60000000D02*
X109750000Y-62500000D01*
X106250000Y-60000000D02*
X107250000Y-60000000D01*
X103250000Y-60000000D02*
X106250000Y-60000000D01*
X103250000Y-150000000D02*
X106250000Y-150000000D01*
X186250000Y-150000000D02*
X183250000Y-150000000D01*
X99750000Y-63500000D02*
X99750000Y-146500000D01*
X103250000Y-150000000D02*
G75*
G02X99750000Y-146500000I0J3500000D01*
G01*
X189750000Y-146500000D02*
G75*
G02X186250000Y-150000000I-3500000J0D01*
G01*
X186250000Y-60000000D02*
G75*
G02X189750000Y-63500000I0J-3500000D01*
G01*
X99750000Y-63500000D02*
G75*
G02X103250000Y-60000000I3500000J0D01*
G01*
X101416666Y-150000000D02*
G75*
G03X101416666Y-150000000I-1666666J0D01*
G01*
X97250000Y-150000000D02*
X102250000Y-150000000D01*
X99750000Y-147500000D02*
X99750000Y-152500000D01*
M02*
