G04 #@! TF.GenerationSoftware,KiCad,Pcbnew,(5.1.4)-1*
G04 #@! TF.CreationDate,2020-03-24T18:05:48+09:00*
G04 #@! TF.ProjectId,cubesat-power,63756265-7361-4742-9d70-6f7765722e6b,1*
G04 #@! TF.SameCoordinates,Original*
G04 #@! TF.FileFunction,Legend,Bot*
G04 #@! TF.FilePolarity,Positive*
%FSLAX46Y46*%
G04 Gerber Fmt 4.6, Leading zero omitted, Abs format (unit mm)*
G04 Created by KiCad (PCBNEW (5.1.4)-1) date 2020-03-24 18:05:48*
%MOMM*%
%LPD*%
G04 APERTURE LIST*
%ADD10C,0.150000*%
%ADD11C,0.010000*%
G04 APERTURE END LIST*
D10*
X124004880Y-139076190D02*
X124004880Y-139552380D01*
X124338213Y-138552380D02*
X124004880Y-139076190D01*
X123671547Y-138552380D01*
X123338213Y-139552380D02*
X123338213Y-138552380D01*
X123242975Y-139171428D02*
X122957261Y-139552380D01*
X122957261Y-138885714D02*
X123338213Y-139266666D01*
X122671547Y-138885714D02*
X122290594Y-138885714D01*
X122528690Y-138552380D02*
X122528690Y-139409523D01*
X122481071Y-139504761D01*
X122385832Y-139552380D01*
X122290594Y-139552380D01*
X122004880Y-139504761D02*
X121909642Y-139552380D01*
X121719166Y-139552380D01*
X121623928Y-139504761D01*
X121576309Y-139409523D01*
X121576309Y-139361904D01*
X121623928Y-139266666D01*
X121719166Y-139219047D01*
X121862023Y-139219047D01*
X121957261Y-139171428D01*
X122004880Y-139076190D01*
X122004880Y-139028571D01*
X121957261Y-138933333D01*
X121862023Y-138885714D01*
X121719166Y-138885714D01*
X121623928Y-138933333D01*
X120719166Y-139552380D02*
X120719166Y-139028571D01*
X120766785Y-138933333D01*
X120862023Y-138885714D01*
X121052499Y-138885714D01*
X121147737Y-138933333D01*
X120719166Y-139504761D02*
X120814404Y-139552380D01*
X121052499Y-139552380D01*
X121147737Y-139504761D01*
X121195356Y-139409523D01*
X121195356Y-139314285D01*
X121147737Y-139219047D01*
X121052499Y-139171428D01*
X120814404Y-139171428D01*
X120719166Y-139123809D01*
X120385832Y-138885714D02*
X120004880Y-138885714D01*
X120242975Y-138552380D02*
X120242975Y-139409523D01*
X120195356Y-139504761D01*
X120100118Y-139552380D01*
X120004880Y-139552380D01*
X118909642Y-139552380D02*
X118909642Y-138552380D01*
X118528690Y-138552380D01*
X118433452Y-138600000D01*
X118385832Y-138647619D01*
X118338213Y-138742857D01*
X118338213Y-138885714D01*
X118385832Y-138980952D01*
X118433452Y-139028571D01*
X118528690Y-139076190D01*
X118909642Y-139076190D01*
X117957261Y-139504761D02*
X117814404Y-139552380D01*
X117576309Y-139552380D01*
X117481071Y-139504761D01*
X117433452Y-139457142D01*
X117385832Y-139361904D01*
X117385832Y-139266666D01*
X117433452Y-139171428D01*
X117481071Y-139123809D01*
X117576309Y-139076190D01*
X117766785Y-139028571D01*
X117862023Y-138980952D01*
X117909642Y-138933333D01*
X117957261Y-138838095D01*
X117957261Y-138742857D01*
X117909642Y-138647619D01*
X117862023Y-138600000D01*
X117766785Y-138552380D01*
X117528690Y-138552380D01*
X117385832Y-138600000D01*
X116957261Y-138552380D02*
X116957261Y-139361904D01*
X116909642Y-139457142D01*
X116862023Y-139504761D01*
X116766785Y-139552380D01*
X116576309Y-139552380D01*
X116481071Y-139504761D01*
X116433452Y-139457142D01*
X116385832Y-139361904D01*
X116385832Y-138552380D01*
X115147737Y-139552380D02*
X115147737Y-138885714D01*
X115147737Y-139076190D02*
X115100118Y-138980952D01*
X115052499Y-138933333D01*
X114957261Y-138885714D01*
X114862023Y-138885714D01*
X114147737Y-139504761D02*
X114242975Y-139552380D01*
X114433452Y-139552380D01*
X114528690Y-139504761D01*
X114576309Y-139409523D01*
X114576309Y-139028571D01*
X114528690Y-138933333D01*
X114433452Y-138885714D01*
X114242975Y-138885714D01*
X114147737Y-138933333D01*
X114100118Y-139028571D01*
X114100118Y-139123809D01*
X114576309Y-139219047D01*
X113766785Y-138885714D02*
X113528690Y-139552380D01*
X113290594Y-138885714D01*
X112385832Y-139552380D02*
X112957261Y-139552380D01*
X112671547Y-139552380D02*
X112671547Y-138552380D01*
X112766785Y-138695238D01*
X112862023Y-138790476D01*
X112957261Y-138838095D01*
X111957261Y-139457142D02*
X111909642Y-139504761D01*
X111957261Y-139552380D01*
X112004880Y-139504761D01*
X111957261Y-139457142D01*
X111957261Y-139552380D01*
X111290594Y-138552380D02*
X111195356Y-138552380D01*
X111100118Y-138600000D01*
X111052499Y-138647619D01*
X111004880Y-138742857D01*
X110957261Y-138933333D01*
X110957261Y-139171428D01*
X111004880Y-139361904D01*
X111052499Y-139457142D01*
X111100118Y-139504761D01*
X111195356Y-139552380D01*
X111290594Y-139552380D01*
X111385832Y-139504761D01*
X111433452Y-139457142D01*
X111481071Y-139361904D01*
X111528690Y-139171428D01*
X111528690Y-138933333D01*
X111481071Y-138742857D01*
X111433452Y-138647619D01*
X111385832Y-138600000D01*
X111290594Y-138552380D01*
X124195356Y-141202380D02*
X124195356Y-140202380D01*
X123957261Y-140202380D01*
X123814404Y-140250000D01*
X123719166Y-140345238D01*
X123671547Y-140440476D01*
X123623928Y-140630952D01*
X123623928Y-140773809D01*
X123671547Y-140964285D01*
X123719166Y-141059523D01*
X123814404Y-141154761D01*
X123957261Y-141202380D01*
X124195356Y-141202380D01*
X122814404Y-141154761D02*
X122909642Y-141202380D01*
X123100118Y-141202380D01*
X123195356Y-141154761D01*
X123242975Y-141059523D01*
X123242975Y-140678571D01*
X123195356Y-140583333D01*
X123100118Y-140535714D01*
X122909642Y-140535714D01*
X122814404Y-140583333D01*
X122766785Y-140678571D01*
X122766785Y-140773809D01*
X123242975Y-140869047D01*
X122385832Y-141154761D02*
X122290594Y-141202380D01*
X122100118Y-141202380D01*
X122004880Y-141154761D01*
X121957261Y-141059523D01*
X121957261Y-141011904D01*
X122004880Y-140916666D01*
X122100118Y-140869047D01*
X122242975Y-140869047D01*
X122338213Y-140821428D01*
X122385832Y-140726190D01*
X122385832Y-140678571D01*
X122338213Y-140583333D01*
X122242975Y-140535714D01*
X122100118Y-140535714D01*
X122004880Y-140583333D01*
X121528690Y-141202380D02*
X121528690Y-140535714D01*
X121528690Y-140202380D02*
X121576309Y-140250000D01*
X121528690Y-140297619D01*
X121481071Y-140250000D01*
X121528690Y-140202380D01*
X121528690Y-140297619D01*
X120623928Y-140535714D02*
X120623928Y-141345238D01*
X120671547Y-141440476D01*
X120719166Y-141488095D01*
X120814404Y-141535714D01*
X120957261Y-141535714D01*
X121052499Y-141488095D01*
X120623928Y-141154761D02*
X120719166Y-141202380D01*
X120909642Y-141202380D01*
X121004880Y-141154761D01*
X121052499Y-141107142D01*
X121100118Y-141011904D01*
X121100118Y-140726190D01*
X121052499Y-140630952D01*
X121004880Y-140583333D01*
X120909642Y-140535714D01*
X120719166Y-140535714D01*
X120623928Y-140583333D01*
X120147737Y-140535714D02*
X120147737Y-141202380D01*
X120147737Y-140630952D02*
X120100118Y-140583333D01*
X120004880Y-140535714D01*
X119862023Y-140535714D01*
X119766785Y-140583333D01*
X119719166Y-140678571D01*
X119719166Y-141202380D01*
X118862023Y-141154761D02*
X118957261Y-141202380D01*
X119147737Y-141202380D01*
X119242975Y-141154761D01*
X119290594Y-141059523D01*
X119290594Y-140678571D01*
X119242975Y-140583333D01*
X119147737Y-140535714D01*
X118957261Y-140535714D01*
X118862023Y-140583333D01*
X118814404Y-140678571D01*
X118814404Y-140773809D01*
X119290594Y-140869047D01*
X117957261Y-141202380D02*
X117957261Y-140202380D01*
X117957261Y-141154761D02*
X118052499Y-141202380D01*
X118242975Y-141202380D01*
X118338213Y-141154761D01*
X118385832Y-141107142D01*
X118433452Y-141011904D01*
X118433452Y-140726190D01*
X118385832Y-140630952D01*
X118338213Y-140583333D01*
X118242975Y-140535714D01*
X118052499Y-140535714D01*
X117957261Y-140583333D01*
X116719166Y-141202380D02*
X116719166Y-140202380D01*
X116719166Y-140583333D02*
X116623928Y-140535714D01*
X116433452Y-140535714D01*
X116338213Y-140583333D01*
X116290594Y-140630952D01*
X116242975Y-140726190D01*
X116242975Y-141011904D01*
X116290594Y-141107142D01*
X116338213Y-141154761D01*
X116433452Y-141202380D01*
X116623928Y-141202380D01*
X116719166Y-141154761D01*
X115909642Y-140535714D02*
X115671547Y-141202380D01*
X115433452Y-140535714D02*
X115671547Y-141202380D01*
X115766785Y-141440476D01*
X115814404Y-141488095D01*
X115909642Y-141535714D01*
X114433452Y-140202380D02*
X113862023Y-140202380D01*
X114147737Y-141202380D02*
X114147737Y-140202380D01*
X113528690Y-141202380D02*
X113528690Y-140202380D01*
X113100118Y-141202380D02*
X113100118Y-140678571D01*
X113147737Y-140583333D01*
X113242975Y-140535714D01*
X113385832Y-140535714D01*
X113481071Y-140583333D01*
X113528690Y-140630952D01*
X112242975Y-141154761D02*
X112338213Y-141202380D01*
X112528690Y-141202380D01*
X112623928Y-141154761D01*
X112671547Y-141059523D01*
X112671547Y-140678571D01*
X112623928Y-140583333D01*
X112528690Y-140535714D01*
X112338213Y-140535714D01*
X112242975Y-140583333D01*
X112195356Y-140678571D01*
X112195356Y-140773809D01*
X112671547Y-140869047D01*
X111766785Y-141202380D02*
X111766785Y-140202380D01*
X111385832Y-140202380D01*
X111290594Y-140250000D01*
X111242975Y-140297619D01*
X111195356Y-140392857D01*
X111195356Y-140535714D01*
X111242975Y-140630952D01*
X111290594Y-140678571D01*
X111385832Y-140726190D01*
X111766785Y-140726190D01*
X110385832Y-141154761D02*
X110481071Y-141202380D01*
X110671547Y-141202380D01*
X110766785Y-141154761D01*
X110814404Y-141059523D01*
X110814404Y-140678571D01*
X110766785Y-140583333D01*
X110671547Y-140535714D01*
X110481071Y-140535714D01*
X110385832Y-140583333D01*
X110338213Y-140678571D01*
X110338213Y-140773809D01*
X110814404Y-140869047D01*
X110052499Y-140535714D02*
X109671547Y-140535714D01*
X109909642Y-140202380D02*
X109909642Y-141059523D01*
X109862023Y-141154761D01*
X109766785Y-141202380D01*
X109671547Y-141202380D01*
X109338213Y-141202380D02*
X109338213Y-140535714D01*
X109338213Y-140726190D02*
X109290594Y-140630952D01*
X109242975Y-140583333D01*
X109147737Y-140535714D01*
X109052499Y-140535714D01*
X108576309Y-141202380D02*
X108671547Y-141154761D01*
X108719166Y-141107142D01*
X108766785Y-141011904D01*
X108766785Y-140726190D01*
X108719166Y-140630952D01*
X108671547Y-140583333D01*
X108576309Y-140535714D01*
X108433452Y-140535714D01*
X108338213Y-140583333D01*
X108290594Y-140630952D01*
X108242975Y-140726190D01*
X108242975Y-141011904D01*
X108290594Y-141107142D01*
X108338213Y-141154761D01*
X108433452Y-141202380D01*
X108576309Y-141202380D01*
X107909642Y-140535714D02*
X107671547Y-141202380D01*
X107433452Y-140535714D01*
X107052499Y-141202380D02*
X107052499Y-140535714D01*
X107052499Y-140202380D02*
X107100118Y-140250000D01*
X107052499Y-140297619D01*
X107004880Y-140250000D01*
X107052499Y-140202380D01*
X107052499Y-140297619D01*
X106147737Y-141154761D02*
X106242975Y-141202380D01*
X106433452Y-141202380D01*
X106528690Y-141154761D01*
X106576309Y-141107142D01*
X106623928Y-141011904D01*
X106623928Y-140726190D01*
X106576309Y-140630952D01*
X106528690Y-140583333D01*
X106433452Y-140535714D01*
X106242975Y-140535714D01*
X106147737Y-140583333D01*
X105719166Y-141202380D02*
X105719166Y-140202380D01*
X105290594Y-141202380D02*
X105290594Y-140678571D01*
X105338213Y-140583333D01*
X105433452Y-140535714D01*
X105576309Y-140535714D01*
X105671547Y-140583333D01*
X105719166Y-140630952D01*
X124242975Y-142804761D02*
X124100118Y-142852380D01*
X123862023Y-142852380D01*
X123766785Y-142804761D01*
X123719166Y-142757142D01*
X123671547Y-142661904D01*
X123671547Y-142566666D01*
X123719166Y-142471428D01*
X123766785Y-142423809D01*
X123862023Y-142376190D01*
X124052499Y-142328571D01*
X124147737Y-142280952D01*
X124195356Y-142233333D01*
X124242975Y-142138095D01*
X124242975Y-142042857D01*
X124195356Y-141947619D01*
X124147737Y-141900000D01*
X124052499Y-141852380D01*
X123814404Y-141852380D01*
X123671547Y-141900000D01*
X122957261Y-141852380D02*
X122957261Y-142566666D01*
X123004880Y-142709523D01*
X123100118Y-142804761D01*
X123242975Y-142852380D01*
X123338213Y-142852380D01*
X122528690Y-142804761D02*
X122385832Y-142852380D01*
X122147737Y-142852380D01*
X122052499Y-142804761D01*
X122004880Y-142757142D01*
X121957261Y-142661904D01*
X121957261Y-142566666D01*
X122004880Y-142471428D01*
X122052499Y-142423809D01*
X122147737Y-142376190D01*
X122338213Y-142328571D01*
X122433452Y-142280952D01*
X122481071Y-142233333D01*
X122528690Y-142138095D01*
X122528690Y-142042857D01*
X122481071Y-141947619D01*
X122433452Y-141900000D01*
X122338213Y-141852380D01*
X122100118Y-141852380D01*
X121957261Y-141900000D01*
X121576309Y-142566666D02*
X121100118Y-142566666D01*
X121671547Y-142852380D02*
X121338213Y-141852380D01*
X121004880Y-142852380D01*
X169000000Y-133952380D02*
X169000000Y-132952380D01*
X168761904Y-132952380D01*
X168619047Y-133000000D01*
X168523809Y-133095238D01*
X168476190Y-133190476D01*
X168428571Y-133380952D01*
X168428571Y-133523809D01*
X168476190Y-133714285D01*
X168523809Y-133809523D01*
X168619047Y-133904761D01*
X168761904Y-133952380D01*
X169000000Y-133952380D01*
X168000000Y-133952380D02*
X168000000Y-133285714D01*
X168000000Y-133476190D02*
X167952380Y-133380952D01*
X167904761Y-133333333D01*
X167809523Y-133285714D01*
X167714285Y-133285714D01*
X166952380Y-133952380D02*
X166952380Y-133428571D01*
X167000000Y-133333333D01*
X167095238Y-133285714D01*
X167285714Y-133285714D01*
X167380952Y-133333333D01*
X166952380Y-133904761D02*
X167047619Y-133952380D01*
X167285714Y-133952380D01*
X167380952Y-133904761D01*
X167428571Y-133809523D01*
X167428571Y-133714285D01*
X167380952Y-133619047D01*
X167285714Y-133571428D01*
X167047619Y-133571428D01*
X166952380Y-133523809D01*
X166571428Y-133285714D02*
X166380952Y-133952380D01*
X166190476Y-133476190D01*
X166000000Y-133952380D01*
X165809523Y-133285714D01*
X165428571Y-133285714D02*
X165428571Y-133952380D01*
X165428571Y-133380952D02*
X165380952Y-133333333D01*
X165285714Y-133285714D01*
X165142857Y-133285714D01*
X165047619Y-133333333D01*
X165000000Y-133428571D01*
X165000000Y-133952380D01*
X163761904Y-133952380D02*
X163761904Y-132952380D01*
X163761904Y-133333333D02*
X163666666Y-133285714D01*
X163476190Y-133285714D01*
X163380952Y-133333333D01*
X163333333Y-133380952D01*
X163285714Y-133476190D01*
X163285714Y-133761904D01*
X163333333Y-133857142D01*
X163380952Y-133904761D01*
X163476190Y-133952380D01*
X163666666Y-133952380D01*
X163761904Y-133904761D01*
X162952380Y-133285714D02*
X162714285Y-133952380D01*
X162476190Y-133285714D02*
X162714285Y-133952380D01*
X162809523Y-134190476D01*
X162857142Y-134238095D01*
X162952380Y-134285714D01*
X162095238Y-133857142D02*
X162047619Y-133904761D01*
X162095238Y-133952380D01*
X162142857Y-133904761D01*
X162095238Y-133857142D01*
X162095238Y-133952380D01*
X162095238Y-133333333D02*
X162047619Y-133380952D01*
X162095238Y-133428571D01*
X162142857Y-133380952D01*
X162095238Y-133333333D01*
X162095238Y-133428571D01*
X160857142Y-133952380D02*
X160857142Y-132952380D01*
X160523809Y-133666666D01*
X160190476Y-132952380D01*
X160190476Y-133952380D01*
X159333333Y-133904761D02*
X159428571Y-133952380D01*
X159619047Y-133952380D01*
X159714285Y-133904761D01*
X159761904Y-133809523D01*
X159761904Y-133428571D01*
X159714285Y-133333333D01*
X159619047Y-133285714D01*
X159428571Y-133285714D01*
X159333333Y-133333333D01*
X159285714Y-133428571D01*
X159285714Y-133523809D01*
X159761904Y-133619047D01*
X158857142Y-133952380D02*
X158857142Y-133285714D01*
X158857142Y-133380952D02*
X158809523Y-133333333D01*
X158714285Y-133285714D01*
X158571428Y-133285714D01*
X158476190Y-133333333D01*
X158428571Y-133428571D01*
X158428571Y-133952380D01*
X158428571Y-133428571D02*
X158380952Y-133333333D01*
X158285714Y-133285714D01*
X158142857Y-133285714D01*
X158047619Y-133333333D01*
X158000000Y-133428571D01*
X158000000Y-133952380D01*
X157142857Y-133904761D02*
X157238095Y-133952380D01*
X157428571Y-133952380D01*
X157523809Y-133904761D01*
X157571428Y-133809523D01*
X157571428Y-133428571D01*
X157523809Y-133333333D01*
X157428571Y-133285714D01*
X157238095Y-133285714D01*
X157142857Y-133333333D01*
X157095238Y-133428571D01*
X157095238Y-133523809D01*
X157571428Y-133619047D01*
X156238095Y-133904761D02*
X156333333Y-133952380D01*
X156523809Y-133952380D01*
X156619047Y-133904761D01*
X156666666Y-133857142D01*
X156714285Y-133761904D01*
X156714285Y-133476190D01*
X156666666Y-133380952D01*
X156619047Y-133333333D01*
X156523809Y-133285714D01*
X156333333Y-133285714D01*
X156238095Y-133333333D01*
X155809523Y-133952380D02*
X155809523Y-133285714D01*
X155809523Y-132952380D02*
X155857142Y-133000000D01*
X155809523Y-133047619D01*
X155761904Y-133000000D01*
X155809523Y-132952380D01*
X155809523Y-133047619D01*
X154904761Y-133952380D02*
X154904761Y-133428571D01*
X154952380Y-133333333D01*
X155047619Y-133285714D01*
X155238095Y-133285714D01*
X155333333Y-133333333D01*
X154904761Y-133904761D02*
X155000000Y-133952380D01*
X155238095Y-133952380D01*
X155333333Y-133904761D01*
X155380952Y-133809523D01*
X155380952Y-133714285D01*
X155333333Y-133619047D01*
X155238095Y-133571428D01*
X155000000Y-133571428D01*
X154904761Y-133523809D01*
X154428571Y-133285714D02*
X154428571Y-133952380D01*
X154428571Y-133380952D02*
X154380952Y-133333333D01*
X154285714Y-133285714D01*
X154142857Y-133285714D01*
X154047619Y-133333333D01*
X154000000Y-133428571D01*
X154000000Y-133952380D01*
D11*
G36*
X136022658Y-108276989D02*
G01*
X135817235Y-108291843D01*
X135643767Y-108319688D01*
X135493144Y-108363054D01*
X135356255Y-108424466D01*
X135223989Y-108506454D01*
X135107564Y-108594882D01*
X134894511Y-108799492D01*
X134711702Y-109040158D01*
X134564380Y-109308713D01*
X134457792Y-109596990D01*
X134452911Y-109614354D01*
X134433813Y-109689654D01*
X134419777Y-109763576D01*
X134410071Y-109845779D01*
X134403962Y-109945925D01*
X134400718Y-110073674D01*
X134399607Y-110238685D01*
X134399595Y-110317300D01*
X134401980Y-110542099D01*
X134410145Y-110727365D01*
X134426360Y-110884240D01*
X134452898Y-111023869D01*
X134492033Y-111157397D01*
X134546037Y-111295968D01*
X134617182Y-111450726D01*
X134640446Y-111498400D01*
X134698770Y-111612813D01*
X134751831Y-111704106D01*
X134809187Y-111785173D01*
X134880397Y-111868910D01*
X134975019Y-111968211D01*
X135029158Y-112022785D01*
X135133660Y-112126195D01*
X135212618Y-112199841D01*
X135275617Y-112250659D01*
X135332240Y-112285583D01*
X135392071Y-112311547D01*
X135458816Y-112333676D01*
X135576427Y-112366359D01*
X135703308Y-112396118D01*
X135787989Y-112412349D01*
X135911562Y-112425806D01*
X136068038Y-112433226D01*
X136241800Y-112434808D01*
X136417230Y-112430747D01*
X136578711Y-112421242D01*
X136710624Y-112406490D01*
X136746332Y-112400241D01*
X137008341Y-112322613D01*
X137251176Y-112199181D01*
X137472105Y-112032208D01*
X137668392Y-111823956D01*
X137837305Y-111576689D01*
X137912705Y-111434900D01*
X137972983Y-111305367D01*
X138018920Y-111189843D01*
X138052698Y-111077439D01*
X138076498Y-110957268D01*
X138092504Y-110818444D01*
X138102896Y-110650079D01*
X138109563Y-110452628D01*
X138112061Y-110330000D01*
X137944787Y-110330000D01*
X137936175Y-110571190D01*
X137906575Y-110783019D01*
X137851677Y-110984109D01*
X137767173Y-111193081D01*
X137724388Y-111282500D01*
X137568053Y-111547784D01*
X137382709Y-111771370D01*
X137168331Y-111953278D01*
X136924896Y-112093527D01*
X136652380Y-112192137D01*
X136643400Y-112194546D01*
X136499089Y-112220048D01*
X136323991Y-112231236D01*
X136136064Y-112228103D01*
X135953266Y-112210639D01*
X135861280Y-112194895D01*
X135704873Y-112157784D01*
X135580298Y-112113483D01*
X135470988Y-112053248D01*
X135360371Y-111968337D01*
X135261526Y-111878401D01*
X135037937Y-111632325D01*
X134858335Y-111361812D01*
X134723803Y-111069620D01*
X134635422Y-110758511D01*
X134594273Y-110431245D01*
X134595016Y-110177600D01*
X134614183Y-109962434D01*
X134648442Y-109777351D01*
X134702741Y-109602656D01*
X134782026Y-109418654D01*
X134789618Y-109402900D01*
X134937210Y-109148074D01*
X135119212Y-108925546D01*
X135289624Y-108768309D01*
X135459533Y-108642460D01*
X135627759Y-108550487D01*
X135806098Y-108488493D01*
X136006347Y-108452579D01*
X136240301Y-108438845D01*
X136287800Y-108438426D01*
X136432183Y-108440118D01*
X136542960Y-108447473D01*
X136637203Y-108462663D01*
X136731987Y-108487860D01*
X136769124Y-108499666D01*
X137018183Y-108607603D01*
X137244119Y-108760112D01*
X137445388Y-108955773D01*
X137620445Y-109193170D01*
X137722200Y-109374669D01*
X137819624Y-109590025D01*
X137886128Y-109791896D01*
X137925923Y-109998361D01*
X137943222Y-110227500D01*
X137944787Y-110330000D01*
X138112061Y-110330000D01*
X138113397Y-110264458D01*
X138113477Y-110116251D01*
X138109329Y-109997276D01*
X138100479Y-109896803D01*
X138086455Y-109804101D01*
X138079297Y-109766828D01*
X137997973Y-109467981D01*
X137881244Y-109193198D01*
X137732489Y-108946491D01*
X137555085Y-108731877D01*
X137352411Y-108553369D01*
X137127847Y-108414981D01*
X136884769Y-108320729D01*
X136855634Y-108312863D01*
X136764493Y-108294951D01*
X136647770Y-108282641D01*
X136497552Y-108275390D01*
X136305924Y-108272655D01*
X136269147Y-108272600D01*
X136022658Y-108276989D01*
X136022658Y-108276989D01*
G37*
X136022658Y-108276989D02*
X135817235Y-108291843D01*
X135643767Y-108319688D01*
X135493144Y-108363054D01*
X135356255Y-108424466D01*
X135223989Y-108506454D01*
X135107564Y-108594882D01*
X134894511Y-108799492D01*
X134711702Y-109040158D01*
X134564380Y-109308713D01*
X134457792Y-109596990D01*
X134452911Y-109614354D01*
X134433813Y-109689654D01*
X134419777Y-109763576D01*
X134410071Y-109845779D01*
X134403962Y-109945925D01*
X134400718Y-110073674D01*
X134399607Y-110238685D01*
X134399595Y-110317300D01*
X134401980Y-110542099D01*
X134410145Y-110727365D01*
X134426360Y-110884240D01*
X134452898Y-111023869D01*
X134492033Y-111157397D01*
X134546037Y-111295968D01*
X134617182Y-111450726D01*
X134640446Y-111498400D01*
X134698770Y-111612813D01*
X134751831Y-111704106D01*
X134809187Y-111785173D01*
X134880397Y-111868910D01*
X134975019Y-111968211D01*
X135029158Y-112022785D01*
X135133660Y-112126195D01*
X135212618Y-112199841D01*
X135275617Y-112250659D01*
X135332240Y-112285583D01*
X135392071Y-112311547D01*
X135458816Y-112333676D01*
X135576427Y-112366359D01*
X135703308Y-112396118D01*
X135787989Y-112412349D01*
X135911562Y-112425806D01*
X136068038Y-112433226D01*
X136241800Y-112434808D01*
X136417230Y-112430747D01*
X136578711Y-112421242D01*
X136710624Y-112406490D01*
X136746332Y-112400241D01*
X137008341Y-112322613D01*
X137251176Y-112199181D01*
X137472105Y-112032208D01*
X137668392Y-111823956D01*
X137837305Y-111576689D01*
X137912705Y-111434900D01*
X137972983Y-111305367D01*
X138018920Y-111189843D01*
X138052698Y-111077439D01*
X138076498Y-110957268D01*
X138092504Y-110818444D01*
X138102896Y-110650079D01*
X138109563Y-110452628D01*
X138112061Y-110330000D01*
X137944787Y-110330000D01*
X137936175Y-110571190D01*
X137906575Y-110783019D01*
X137851677Y-110984109D01*
X137767173Y-111193081D01*
X137724388Y-111282500D01*
X137568053Y-111547784D01*
X137382709Y-111771370D01*
X137168331Y-111953278D01*
X136924896Y-112093527D01*
X136652380Y-112192137D01*
X136643400Y-112194546D01*
X136499089Y-112220048D01*
X136323991Y-112231236D01*
X136136064Y-112228103D01*
X135953266Y-112210639D01*
X135861280Y-112194895D01*
X135704873Y-112157784D01*
X135580298Y-112113483D01*
X135470988Y-112053248D01*
X135360371Y-111968337D01*
X135261526Y-111878401D01*
X135037937Y-111632325D01*
X134858335Y-111361812D01*
X134723803Y-111069620D01*
X134635422Y-110758511D01*
X134594273Y-110431245D01*
X134595016Y-110177600D01*
X134614183Y-109962434D01*
X134648442Y-109777351D01*
X134702741Y-109602656D01*
X134782026Y-109418654D01*
X134789618Y-109402900D01*
X134937210Y-109148074D01*
X135119212Y-108925546D01*
X135289624Y-108768309D01*
X135459533Y-108642460D01*
X135627759Y-108550487D01*
X135806098Y-108488493D01*
X136006347Y-108452579D01*
X136240301Y-108438845D01*
X136287800Y-108438426D01*
X136432183Y-108440118D01*
X136542960Y-108447473D01*
X136637203Y-108462663D01*
X136731987Y-108487860D01*
X136769124Y-108499666D01*
X137018183Y-108607603D01*
X137244119Y-108760112D01*
X137445388Y-108955773D01*
X137620445Y-109193170D01*
X137722200Y-109374669D01*
X137819624Y-109590025D01*
X137886128Y-109791896D01*
X137925923Y-109998361D01*
X137943222Y-110227500D01*
X137944787Y-110330000D01*
X138112061Y-110330000D01*
X138113397Y-110264458D01*
X138113477Y-110116251D01*
X138109329Y-109997276D01*
X138100479Y-109896803D01*
X138086455Y-109804101D01*
X138079297Y-109766828D01*
X137997973Y-109467981D01*
X137881244Y-109193198D01*
X137732489Y-108946491D01*
X137555085Y-108731877D01*
X137352411Y-108553369D01*
X137127847Y-108414981D01*
X136884769Y-108320729D01*
X136855634Y-108312863D01*
X136764493Y-108294951D01*
X136647770Y-108282641D01*
X136497552Y-108275390D01*
X136305924Y-108272655D01*
X136269147Y-108272600D01*
X136022658Y-108276989D01*
G36*
X140522969Y-81291397D02*
G01*
X139968021Y-81349265D01*
X139413584Y-81447314D01*
X138853188Y-81586855D01*
X138280362Y-81769198D01*
X137862960Y-81925207D01*
X137304878Y-82165109D01*
X136787597Y-82428243D01*
X136304921Y-82718548D01*
X135850656Y-83039961D01*
X135418609Y-83396422D01*
X135136004Y-83659231D01*
X134914127Y-83881858D01*
X134730559Y-84081136D01*
X134581311Y-84261845D01*
X134462394Y-84428767D01*
X134383339Y-84561243D01*
X134267751Y-84767236D01*
X134127882Y-85004679D01*
X133969689Y-85264203D01*
X133799125Y-85536435D01*
X133622148Y-85812005D01*
X133444711Y-86081541D01*
X133272770Y-86335672D01*
X133112281Y-86565028D01*
X133091732Y-86593700D01*
X132858334Y-86908900D01*
X132594363Y-87248432D01*
X132307249Y-87602920D01*
X132037848Y-87923891D01*
X131777858Y-88235163D01*
X131552702Y-88519930D01*
X131358447Y-88784513D01*
X131191157Y-89035235D01*
X131046899Y-89278418D01*
X130921739Y-89520383D01*
X130811742Y-89767455D01*
X130712976Y-90025953D01*
X130691483Y-90087549D01*
X130625720Y-90289630D01*
X130570332Y-90485422D01*
X130524063Y-90682854D01*
X130485656Y-90889854D01*
X130453857Y-91114350D01*
X130427408Y-91364272D01*
X130405055Y-91647549D01*
X130385541Y-91972108D01*
X130381902Y-92042000D01*
X130341411Y-92757139D01*
X130290413Y-93519972D01*
X130229073Y-94328528D01*
X130157557Y-95180832D01*
X130076031Y-96074915D01*
X129984662Y-97008803D01*
X129883616Y-97980524D01*
X129875521Y-98056089D01*
X129847671Y-98309361D01*
X129823330Y-98516171D01*
X129801832Y-98680686D01*
X129782510Y-98807073D01*
X129764698Y-98899496D01*
X129747728Y-98962124D01*
X129730934Y-98999122D01*
X129723042Y-99008721D01*
X129707739Y-99038996D01*
X129721511Y-99085469D01*
X129741157Y-99121308D01*
X129793366Y-99183156D01*
X129846680Y-99203087D01*
X129891869Y-99179687D01*
X129910154Y-99147207D01*
X129924087Y-99091005D01*
X129941682Y-98987935D01*
X129962577Y-98841770D01*
X129986410Y-98656282D01*
X130012820Y-98435244D01*
X130041442Y-98182428D01*
X130071916Y-97901607D01*
X130103880Y-97596554D01*
X130136969Y-97271041D01*
X130170824Y-96928840D01*
X130205081Y-96573724D01*
X130239378Y-96209465D01*
X130273352Y-95839837D01*
X130306643Y-95468611D01*
X130338886Y-95099561D01*
X130369721Y-94736458D01*
X130398785Y-94383075D01*
X130425715Y-94043185D01*
X130450149Y-93720560D01*
X130471726Y-93418973D01*
X130490082Y-93142197D01*
X130496078Y-93045300D01*
X130505896Y-92876643D01*
X130517030Y-92674919D01*
X130528540Y-92457813D01*
X130539486Y-92243006D01*
X130547839Y-92071336D01*
X130557721Y-91890110D01*
X130570021Y-91707322D01*
X130583706Y-91535806D01*
X130597748Y-91388395D01*
X130611115Y-91277919D01*
X130612098Y-91271236D01*
X130708451Y-90773009D01*
X130845795Y-90297163D01*
X131025999Y-89839666D01*
X131250932Y-89396484D01*
X131522463Y-88963584D01*
X131842462Y-88536933D01*
X131926529Y-88435200D01*
X132043707Y-88295943D01*
X132175021Y-88140009D01*
X132305783Y-87984830D01*
X132421306Y-87847841D01*
X132440075Y-87825600D01*
X132744297Y-87451511D01*
X133058032Y-87040200D01*
X133373912Y-86602359D01*
X133684570Y-86148679D01*
X133982638Y-85689851D01*
X134260748Y-85236567D01*
X134452676Y-84905119D01*
X134546018Y-84742089D01*
X134625922Y-84611041D01*
X134701999Y-84498691D01*
X134783861Y-84391753D01*
X134881121Y-84276938D01*
X135003388Y-84140963D01*
X135013394Y-84130022D01*
X135402109Y-83738983D01*
X135832610Y-83368060D01*
X136298188Y-83022247D01*
X136792131Y-82706541D01*
X137292731Y-82433434D01*
X137695598Y-82245406D01*
X138120157Y-82073080D01*
X138559147Y-81918229D01*
X139005308Y-81782624D01*
X139451380Y-81668035D01*
X139890103Y-81576236D01*
X140314217Y-81508996D01*
X140716462Y-81468088D01*
X141089577Y-81455283D01*
X141278900Y-81460815D01*
X141832944Y-81515209D01*
X142366969Y-81616110D01*
X142880400Y-81763270D01*
X143372660Y-81956438D01*
X143843173Y-82195365D01*
X144291362Y-82479801D01*
X144716650Y-82809498D01*
X145008194Y-83074609D01*
X145259412Y-83329755D01*
X145468649Y-83568021D01*
X145639822Y-83794295D01*
X145776850Y-84013466D01*
X145810044Y-84075017D01*
X146045394Y-84478001D01*
X146311325Y-84840629D01*
X146608811Y-85163726D01*
X146938823Y-85448120D01*
X147302333Y-85694634D01*
X147700312Y-85904097D01*
X148133734Y-86077333D01*
X148187700Y-86095570D01*
X148550117Y-86201813D01*
X148899792Y-86273705D01*
X149255903Y-86314333D01*
X149623467Y-86326791D01*
X149979154Y-86313895D01*
X150297577Y-86273668D01*
X150585215Y-86204609D01*
X150848547Y-86105215D01*
X151062567Y-85993107D01*
X151186137Y-85909434D01*
X151308585Y-85804841D01*
X151434576Y-85674143D01*
X151568771Y-85512156D01*
X151715836Y-85313695D01*
X151853584Y-85113731D01*
X152087220Y-84777921D01*
X152312723Y-84480545D01*
X152538535Y-84212016D01*
X152773102Y-83962748D01*
X153024866Y-83723157D01*
X153253967Y-83523915D01*
X153489903Y-83335717D01*
X153705176Y-83185777D01*
X153907176Y-83069998D01*
X154103292Y-82984286D01*
X154300914Y-82924547D01*
X154359077Y-82911595D01*
X154477879Y-82890191D01*
X154572173Y-82882822D01*
X154666049Y-82888733D01*
X154740077Y-82899640D01*
X154980697Y-82954941D01*
X155245866Y-83043074D01*
X155525363Y-83159837D01*
X155808965Y-83301027D01*
X156041734Y-83434725D01*
X156379701Y-83667125D01*
X156711841Y-83945787D01*
X157033856Y-84266192D01*
X157341449Y-84623826D01*
X157630321Y-85014172D01*
X157815295Y-85298300D01*
X157947195Y-85523539D01*
X158083674Y-85777278D01*
X158219356Y-86048001D01*
X158348865Y-86324194D01*
X158466827Y-86594340D01*
X158567865Y-86846924D01*
X158646605Y-87070432D01*
X158655123Y-87097396D01*
X158701168Y-87245493D01*
X158734270Y-87149881D01*
X158766225Y-87075554D01*
X158801946Y-87016575D01*
X158807507Y-87009919D01*
X158828618Y-86980523D01*
X158834452Y-86945638D01*
X158824809Y-86890142D01*
X158804946Y-86817735D01*
X158746679Y-86641528D01*
X158665257Y-86432228D01*
X158565163Y-86199365D01*
X158450879Y-85952470D01*
X158326890Y-85701074D01*
X158197677Y-85454706D01*
X158067725Y-85222897D01*
X158005247Y-85117695D01*
X157723177Y-84689897D01*
X157417174Y-84295442D01*
X157090853Y-83938165D01*
X156747830Y-83621896D01*
X156391720Y-83350469D01*
X156251484Y-83258481D01*
X156105068Y-83173189D01*
X155930763Y-83081835D01*
X155742538Y-82990893D01*
X155554362Y-82906835D01*
X155380203Y-82836136D01*
X155234032Y-82785268D01*
X155223500Y-82782111D01*
X155018973Y-82735385D01*
X154791899Y-82706349D01*
X154559716Y-82695832D01*
X154339865Y-82704662D01*
X154158941Y-82731584D01*
X153953440Y-82793219D01*
X153739585Y-82889434D01*
X153514338Y-83022235D01*
X153274663Y-83193630D01*
X153017523Y-83405628D01*
X152739882Y-83660237D01*
X152707781Y-83691104D01*
X152509522Y-83888367D01*
X152331842Y-84078860D01*
X152165823Y-84273437D01*
X152002548Y-84482952D01*
X151833099Y-84718262D01*
X151682747Y-84938890D01*
X151544499Y-85141566D01*
X151424969Y-85306529D01*
X151318246Y-85440497D01*
X151218421Y-85550188D01*
X151119583Y-85642320D01*
X151015822Y-85723611D01*
X150955557Y-85765436D01*
X150686539Y-85917490D01*
X150395541Y-86027636D01*
X150079290Y-86096779D01*
X149734510Y-86125824D01*
X149648200Y-86126930D01*
X149420416Y-86121983D01*
X149213934Y-86105382D01*
X149008529Y-86074548D01*
X148783978Y-86026900D01*
X148695700Y-86005419D01*
X148242904Y-85868025D01*
X147819546Y-85689751D01*
X147426674Y-85471426D01*
X147065337Y-85213878D01*
X146736582Y-84917935D01*
X146441456Y-84584426D01*
X146181009Y-84214179D01*
X145981869Y-83859699D01*
X145857689Y-83647878D01*
X145689990Y-83418323D01*
X145481474Y-83174371D01*
X145234847Y-82919359D01*
X145166700Y-82853455D01*
X144757585Y-82496250D01*
X144326362Y-82184754D01*
X143872992Y-81918950D01*
X143397436Y-81698824D01*
X142899652Y-81524360D01*
X142379604Y-81395544D01*
X141837249Y-81312359D01*
X141272550Y-81274790D01*
X141084897Y-81272399D01*
X140522969Y-81291397D01*
X140522969Y-81291397D01*
G37*
X140522969Y-81291397D02*
X139968021Y-81349265D01*
X139413584Y-81447314D01*
X138853188Y-81586855D01*
X138280362Y-81769198D01*
X137862960Y-81925207D01*
X137304878Y-82165109D01*
X136787597Y-82428243D01*
X136304921Y-82718548D01*
X135850656Y-83039961D01*
X135418609Y-83396422D01*
X135136004Y-83659231D01*
X134914127Y-83881858D01*
X134730559Y-84081136D01*
X134581311Y-84261845D01*
X134462394Y-84428767D01*
X134383339Y-84561243D01*
X134267751Y-84767236D01*
X134127882Y-85004679D01*
X133969689Y-85264203D01*
X133799125Y-85536435D01*
X133622148Y-85812005D01*
X133444711Y-86081541D01*
X133272770Y-86335672D01*
X133112281Y-86565028D01*
X133091732Y-86593700D01*
X132858334Y-86908900D01*
X132594363Y-87248432D01*
X132307249Y-87602920D01*
X132037848Y-87923891D01*
X131777858Y-88235163D01*
X131552702Y-88519930D01*
X131358447Y-88784513D01*
X131191157Y-89035235D01*
X131046899Y-89278418D01*
X130921739Y-89520383D01*
X130811742Y-89767455D01*
X130712976Y-90025953D01*
X130691483Y-90087549D01*
X130625720Y-90289630D01*
X130570332Y-90485422D01*
X130524063Y-90682854D01*
X130485656Y-90889854D01*
X130453857Y-91114350D01*
X130427408Y-91364272D01*
X130405055Y-91647549D01*
X130385541Y-91972108D01*
X130381902Y-92042000D01*
X130341411Y-92757139D01*
X130290413Y-93519972D01*
X130229073Y-94328528D01*
X130157557Y-95180832D01*
X130076031Y-96074915D01*
X129984662Y-97008803D01*
X129883616Y-97980524D01*
X129875521Y-98056089D01*
X129847671Y-98309361D01*
X129823330Y-98516171D01*
X129801832Y-98680686D01*
X129782510Y-98807073D01*
X129764698Y-98899496D01*
X129747728Y-98962124D01*
X129730934Y-98999122D01*
X129723042Y-99008721D01*
X129707739Y-99038996D01*
X129721511Y-99085469D01*
X129741157Y-99121308D01*
X129793366Y-99183156D01*
X129846680Y-99203087D01*
X129891869Y-99179687D01*
X129910154Y-99147207D01*
X129924087Y-99091005D01*
X129941682Y-98987935D01*
X129962577Y-98841770D01*
X129986410Y-98656282D01*
X130012820Y-98435244D01*
X130041442Y-98182428D01*
X130071916Y-97901607D01*
X130103880Y-97596554D01*
X130136969Y-97271041D01*
X130170824Y-96928840D01*
X130205081Y-96573724D01*
X130239378Y-96209465D01*
X130273352Y-95839837D01*
X130306643Y-95468611D01*
X130338886Y-95099561D01*
X130369721Y-94736458D01*
X130398785Y-94383075D01*
X130425715Y-94043185D01*
X130450149Y-93720560D01*
X130471726Y-93418973D01*
X130490082Y-93142197D01*
X130496078Y-93045300D01*
X130505896Y-92876643D01*
X130517030Y-92674919D01*
X130528540Y-92457813D01*
X130539486Y-92243006D01*
X130547839Y-92071336D01*
X130557721Y-91890110D01*
X130570021Y-91707322D01*
X130583706Y-91535806D01*
X130597748Y-91388395D01*
X130611115Y-91277919D01*
X130612098Y-91271236D01*
X130708451Y-90773009D01*
X130845795Y-90297163D01*
X131025999Y-89839666D01*
X131250932Y-89396484D01*
X131522463Y-88963584D01*
X131842462Y-88536933D01*
X131926529Y-88435200D01*
X132043707Y-88295943D01*
X132175021Y-88140009D01*
X132305783Y-87984830D01*
X132421306Y-87847841D01*
X132440075Y-87825600D01*
X132744297Y-87451511D01*
X133058032Y-87040200D01*
X133373912Y-86602359D01*
X133684570Y-86148679D01*
X133982638Y-85689851D01*
X134260748Y-85236567D01*
X134452676Y-84905119D01*
X134546018Y-84742089D01*
X134625922Y-84611041D01*
X134701999Y-84498691D01*
X134783861Y-84391753D01*
X134881121Y-84276938D01*
X135003388Y-84140963D01*
X135013394Y-84130022D01*
X135402109Y-83738983D01*
X135832610Y-83368060D01*
X136298188Y-83022247D01*
X136792131Y-82706541D01*
X137292731Y-82433434D01*
X137695598Y-82245406D01*
X138120157Y-82073080D01*
X138559147Y-81918229D01*
X139005308Y-81782624D01*
X139451380Y-81668035D01*
X139890103Y-81576236D01*
X140314217Y-81508996D01*
X140716462Y-81468088D01*
X141089577Y-81455283D01*
X141278900Y-81460815D01*
X141832944Y-81515209D01*
X142366969Y-81616110D01*
X142880400Y-81763270D01*
X143372660Y-81956438D01*
X143843173Y-82195365D01*
X144291362Y-82479801D01*
X144716650Y-82809498D01*
X145008194Y-83074609D01*
X145259412Y-83329755D01*
X145468649Y-83568021D01*
X145639822Y-83794295D01*
X145776850Y-84013466D01*
X145810044Y-84075017D01*
X146045394Y-84478001D01*
X146311325Y-84840629D01*
X146608811Y-85163726D01*
X146938823Y-85448120D01*
X147302333Y-85694634D01*
X147700312Y-85904097D01*
X148133734Y-86077333D01*
X148187700Y-86095570D01*
X148550117Y-86201813D01*
X148899792Y-86273705D01*
X149255903Y-86314333D01*
X149623467Y-86326791D01*
X149979154Y-86313895D01*
X150297577Y-86273668D01*
X150585215Y-86204609D01*
X150848547Y-86105215D01*
X151062567Y-85993107D01*
X151186137Y-85909434D01*
X151308585Y-85804841D01*
X151434576Y-85674143D01*
X151568771Y-85512156D01*
X151715836Y-85313695D01*
X151853584Y-85113731D01*
X152087220Y-84777921D01*
X152312723Y-84480545D01*
X152538535Y-84212016D01*
X152773102Y-83962748D01*
X153024866Y-83723157D01*
X153253967Y-83523915D01*
X153489903Y-83335717D01*
X153705176Y-83185777D01*
X153907176Y-83069998D01*
X154103292Y-82984286D01*
X154300914Y-82924547D01*
X154359077Y-82911595D01*
X154477879Y-82890191D01*
X154572173Y-82882822D01*
X154666049Y-82888733D01*
X154740077Y-82899640D01*
X154980697Y-82954941D01*
X155245866Y-83043074D01*
X155525363Y-83159837D01*
X155808965Y-83301027D01*
X156041734Y-83434725D01*
X156379701Y-83667125D01*
X156711841Y-83945787D01*
X157033856Y-84266192D01*
X157341449Y-84623826D01*
X157630321Y-85014172D01*
X157815295Y-85298300D01*
X157947195Y-85523539D01*
X158083674Y-85777278D01*
X158219356Y-86048001D01*
X158348865Y-86324194D01*
X158466827Y-86594340D01*
X158567865Y-86846924D01*
X158646605Y-87070432D01*
X158655123Y-87097396D01*
X158701168Y-87245493D01*
X158734270Y-87149881D01*
X158766225Y-87075554D01*
X158801946Y-87016575D01*
X158807507Y-87009919D01*
X158828618Y-86980523D01*
X158834452Y-86945638D01*
X158824809Y-86890142D01*
X158804946Y-86817735D01*
X158746679Y-86641528D01*
X158665257Y-86432228D01*
X158565163Y-86199365D01*
X158450879Y-85952470D01*
X158326890Y-85701074D01*
X158197677Y-85454706D01*
X158067725Y-85222897D01*
X158005247Y-85117695D01*
X157723177Y-84689897D01*
X157417174Y-84295442D01*
X157090853Y-83938165D01*
X156747830Y-83621896D01*
X156391720Y-83350469D01*
X156251484Y-83258481D01*
X156105068Y-83173189D01*
X155930763Y-83081835D01*
X155742538Y-82990893D01*
X155554362Y-82906835D01*
X155380203Y-82836136D01*
X155234032Y-82785268D01*
X155223500Y-82782111D01*
X155018973Y-82735385D01*
X154791899Y-82706349D01*
X154559716Y-82695832D01*
X154339865Y-82704662D01*
X154158941Y-82731584D01*
X153953440Y-82793219D01*
X153739585Y-82889434D01*
X153514338Y-83022235D01*
X153274663Y-83193630D01*
X153017523Y-83405628D01*
X152739882Y-83660237D01*
X152707781Y-83691104D01*
X152509522Y-83888367D01*
X152331842Y-84078860D01*
X152165823Y-84273437D01*
X152002548Y-84482952D01*
X151833099Y-84718262D01*
X151682747Y-84938890D01*
X151544499Y-85141566D01*
X151424969Y-85306529D01*
X151318246Y-85440497D01*
X151218421Y-85550188D01*
X151119583Y-85642320D01*
X151015822Y-85723611D01*
X150955557Y-85765436D01*
X150686539Y-85917490D01*
X150395541Y-86027636D01*
X150079290Y-86096779D01*
X149734510Y-86125824D01*
X149648200Y-86126930D01*
X149420416Y-86121983D01*
X149213934Y-86105382D01*
X149008529Y-86074548D01*
X148783978Y-86026900D01*
X148695700Y-86005419D01*
X148242904Y-85868025D01*
X147819546Y-85689751D01*
X147426674Y-85471426D01*
X147065337Y-85213878D01*
X146736582Y-84917935D01*
X146441456Y-84584426D01*
X146181009Y-84214179D01*
X145981869Y-83859699D01*
X145857689Y-83647878D01*
X145689990Y-83418323D01*
X145481474Y-83174371D01*
X145234847Y-82919359D01*
X145166700Y-82853455D01*
X144757585Y-82496250D01*
X144326362Y-82184754D01*
X143872992Y-81918950D01*
X143397436Y-81698824D01*
X142899652Y-81524360D01*
X142379604Y-81395544D01*
X141837249Y-81312359D01*
X141272550Y-81274790D01*
X141084897Y-81272399D01*
X140522969Y-81291397D01*
G36*
X160081723Y-106660478D02*
G01*
X159976443Y-106663662D01*
X159900972Y-106670520D01*
X159844822Y-106682323D01*
X159797503Y-106700341D01*
X159767696Y-106715353D01*
X159627197Y-106819018D01*
X159505786Y-106968956D01*
X159404094Y-107164114D01*
X159322751Y-107403438D01*
X159298827Y-107499087D01*
X159275764Y-107631286D01*
X159256673Y-107803719D01*
X159241887Y-108005954D01*
X159231741Y-108227554D01*
X159226569Y-108458086D01*
X159226705Y-108687115D01*
X159232485Y-108904207D01*
X159244241Y-109098927D01*
X159246663Y-109126910D01*
X159264897Y-109304389D01*
X159287320Y-109485858D01*
X159312487Y-109662540D01*
X159338954Y-109825656D01*
X159365275Y-109966429D01*
X159390006Y-110076081D01*
X159411703Y-110145835D01*
X159415853Y-110154815D01*
X159472136Y-110232461D01*
X159559112Y-110318517D01*
X159661296Y-110400212D01*
X159763206Y-110464775D01*
X159825572Y-110492762D01*
X159907289Y-110510365D01*
X160024701Y-110522868D01*
X160162940Y-110530029D01*
X160307134Y-110531605D01*
X160442412Y-110527356D01*
X160553904Y-110517040D01*
X160611737Y-110505537D01*
X160719250Y-110458498D01*
X160835396Y-110382835D01*
X160941134Y-110292526D01*
X161009313Y-110213684D01*
X161053257Y-110136833D01*
X161095203Y-110032770D01*
X161136771Y-109895998D01*
X161179583Y-109721015D01*
X161225260Y-109502325D01*
X161237159Y-109441000D01*
X161254219Y-109346768D01*
X161267483Y-109258001D01*
X161277419Y-109166351D01*
X161284498Y-109063471D01*
X161289191Y-108941011D01*
X161291965Y-108790624D01*
X161293292Y-108603962D01*
X161293433Y-108531829D01*
X161141460Y-108531829D01*
X161137299Y-108721044D01*
X161128562Y-108892100D01*
X161115161Y-109033530D01*
X161107420Y-109085400D01*
X161073421Y-109268312D01*
X161036422Y-109447472D01*
X160998599Y-109613834D01*
X160962130Y-109758352D01*
X160929189Y-109871981D01*
X160901954Y-109945675D01*
X160898986Y-109951772D01*
X160822692Y-110061092D01*
X160713801Y-110166778D01*
X160589418Y-110254695D01*
X160466648Y-110310708D01*
X160463512Y-110311647D01*
X160329662Y-110343728D01*
X160216646Y-110350651D01*
X160101349Y-110332735D01*
X160045279Y-110317464D01*
X159916153Y-110262407D01*
X159789576Y-110179848D01*
X159683468Y-110082854D01*
X159633159Y-110016963D01*
X159594851Y-109933445D01*
X159558424Y-109808769D01*
X159523295Y-109640281D01*
X159488880Y-109425333D01*
X159467091Y-109263200D01*
X159423174Y-108817435D01*
X159409464Y-108412448D01*
X159425966Y-108048169D01*
X159472685Y-107724529D01*
X159549627Y-107441457D01*
X159620561Y-107269300D01*
X159679790Y-107152408D01*
X159731834Y-107068450D01*
X159787692Y-107002926D01*
X159858366Y-106941338D01*
X159884954Y-106920815D01*
X160021531Y-106847626D01*
X160176681Y-106815087D01*
X160340740Y-106821618D01*
X160504042Y-106865640D01*
X160656923Y-106945574D01*
X160789718Y-107059840D01*
X160798958Y-107070159D01*
X160879129Y-107181936D01*
X160958147Y-107328340D01*
X161028711Y-107493572D01*
X161083522Y-107661834D01*
X161096761Y-107714693D01*
X161114138Y-107822707D01*
X161127386Y-107969895D01*
X161136415Y-108144788D01*
X161141136Y-108335922D01*
X161141460Y-108531829D01*
X161293433Y-108531829D01*
X161293618Y-108437700D01*
X161293285Y-108216286D01*
X161291715Y-108038463D01*
X161288550Y-107897026D01*
X161283432Y-107784775D01*
X161276006Y-107694505D01*
X161265913Y-107619015D01*
X161252795Y-107551102D01*
X161248756Y-107533416D01*
X161173329Y-107288071D01*
X161071461Y-107077329D01*
X160945583Y-106904842D01*
X160798124Y-106774257D01*
X160707751Y-106721149D01*
X160653260Y-106696358D01*
X160600731Y-106679268D01*
X160539138Y-106668470D01*
X160457454Y-106662553D01*
X160344651Y-106660106D01*
X160227300Y-106659700D01*
X160081723Y-106660478D01*
X160081723Y-106660478D01*
G37*
X160081723Y-106660478D02*
X159976443Y-106663662D01*
X159900972Y-106670520D01*
X159844822Y-106682323D01*
X159797503Y-106700341D01*
X159767696Y-106715353D01*
X159627197Y-106819018D01*
X159505786Y-106968956D01*
X159404094Y-107164114D01*
X159322751Y-107403438D01*
X159298827Y-107499087D01*
X159275764Y-107631286D01*
X159256673Y-107803719D01*
X159241887Y-108005954D01*
X159231741Y-108227554D01*
X159226569Y-108458086D01*
X159226705Y-108687115D01*
X159232485Y-108904207D01*
X159244241Y-109098927D01*
X159246663Y-109126910D01*
X159264897Y-109304389D01*
X159287320Y-109485858D01*
X159312487Y-109662540D01*
X159338954Y-109825656D01*
X159365275Y-109966429D01*
X159390006Y-110076081D01*
X159411703Y-110145835D01*
X159415853Y-110154815D01*
X159472136Y-110232461D01*
X159559112Y-110318517D01*
X159661296Y-110400212D01*
X159763206Y-110464775D01*
X159825572Y-110492762D01*
X159907289Y-110510365D01*
X160024701Y-110522868D01*
X160162940Y-110530029D01*
X160307134Y-110531605D01*
X160442412Y-110527356D01*
X160553904Y-110517040D01*
X160611737Y-110505537D01*
X160719250Y-110458498D01*
X160835396Y-110382835D01*
X160941134Y-110292526D01*
X161009313Y-110213684D01*
X161053257Y-110136833D01*
X161095203Y-110032770D01*
X161136771Y-109895998D01*
X161179583Y-109721015D01*
X161225260Y-109502325D01*
X161237159Y-109441000D01*
X161254219Y-109346768D01*
X161267483Y-109258001D01*
X161277419Y-109166351D01*
X161284498Y-109063471D01*
X161289191Y-108941011D01*
X161291965Y-108790624D01*
X161293292Y-108603962D01*
X161293433Y-108531829D01*
X161141460Y-108531829D01*
X161137299Y-108721044D01*
X161128562Y-108892100D01*
X161115161Y-109033530D01*
X161107420Y-109085400D01*
X161073421Y-109268312D01*
X161036422Y-109447472D01*
X160998599Y-109613834D01*
X160962130Y-109758352D01*
X160929189Y-109871981D01*
X160901954Y-109945675D01*
X160898986Y-109951772D01*
X160822692Y-110061092D01*
X160713801Y-110166778D01*
X160589418Y-110254695D01*
X160466648Y-110310708D01*
X160463512Y-110311647D01*
X160329662Y-110343728D01*
X160216646Y-110350651D01*
X160101349Y-110332735D01*
X160045279Y-110317464D01*
X159916153Y-110262407D01*
X159789576Y-110179848D01*
X159683468Y-110082854D01*
X159633159Y-110016963D01*
X159594851Y-109933445D01*
X159558424Y-109808769D01*
X159523295Y-109640281D01*
X159488880Y-109425333D01*
X159467091Y-109263200D01*
X159423174Y-108817435D01*
X159409464Y-108412448D01*
X159425966Y-108048169D01*
X159472685Y-107724529D01*
X159549627Y-107441457D01*
X159620561Y-107269300D01*
X159679790Y-107152408D01*
X159731834Y-107068450D01*
X159787692Y-107002926D01*
X159858366Y-106941338D01*
X159884954Y-106920815D01*
X160021531Y-106847626D01*
X160176681Y-106815087D01*
X160340740Y-106821618D01*
X160504042Y-106865640D01*
X160656923Y-106945574D01*
X160789718Y-107059840D01*
X160798958Y-107070159D01*
X160879129Y-107181936D01*
X160958147Y-107328340D01*
X161028711Y-107493572D01*
X161083522Y-107661834D01*
X161096761Y-107714693D01*
X161114138Y-107822707D01*
X161127386Y-107969895D01*
X161136415Y-108144788D01*
X161141136Y-108335922D01*
X161141460Y-108531829D01*
X161293433Y-108531829D01*
X161293618Y-108437700D01*
X161293285Y-108216286D01*
X161291715Y-108038463D01*
X161288550Y-107897026D01*
X161283432Y-107784775D01*
X161276006Y-107694505D01*
X161265913Y-107619015D01*
X161252795Y-107551102D01*
X161248756Y-107533416D01*
X161173329Y-107288071D01*
X161071461Y-107077329D01*
X160945583Y-106904842D01*
X160798124Y-106774257D01*
X160707751Y-106721149D01*
X160653260Y-106696358D01*
X160600731Y-106679268D01*
X160539138Y-106668470D01*
X160457454Y-106662553D01*
X160344651Y-106660106D01*
X160227300Y-106659700D01*
X160081723Y-106660478D01*
G36*
X157266348Y-101166058D02*
G01*
X156915979Y-101213287D01*
X156567647Y-101303235D01*
X156225634Y-101435051D01*
X155894219Y-101607886D01*
X155577683Y-101820891D01*
X155280306Y-102073216D01*
X155270593Y-102082467D01*
X155094307Y-102260400D01*
X154940831Y-102437671D01*
X154804859Y-102622859D01*
X154681084Y-102824543D01*
X154564200Y-103051303D01*
X154448900Y-103311719D01*
X154340456Y-103586300D01*
X154137979Y-104174260D01*
X153976424Y-104762448D01*
X153853020Y-105362887D01*
X153764997Y-105987602D01*
X153746818Y-106163244D01*
X153732472Y-106361430D01*
X153723008Y-106597420D01*
X153718277Y-106859728D01*
X153718132Y-107136869D01*
X153722422Y-107417357D01*
X153730999Y-107689705D01*
X153743714Y-107942428D01*
X153760418Y-108164040D01*
X153774452Y-108294882D01*
X153824392Y-108658287D01*
X153883317Y-109029292D01*
X153949395Y-109398902D01*
X154020792Y-109758121D01*
X154095677Y-110097956D01*
X154172216Y-110409410D01*
X154248576Y-110683489D01*
X154284877Y-110799900D01*
X154394933Y-111115245D01*
X154522960Y-111442908D01*
X154663975Y-111772077D01*
X154812996Y-112091938D01*
X154965042Y-112391681D01*
X155115131Y-112660493D01*
X155221195Y-112831900D01*
X155420310Y-113099770D01*
X155651268Y-113345520D01*
X155906974Y-113564022D01*
X156180334Y-113750153D01*
X156464254Y-113898789D01*
X156751640Y-114004803D01*
X156893635Y-114040066D01*
X157103615Y-114071203D01*
X157334852Y-114085053D01*
X157566581Y-114081403D01*
X157778039Y-114060040D01*
X157836514Y-114049731D01*
X158119429Y-113977967D01*
X158432396Y-113869424D01*
X158530827Y-113830178D01*
X158622455Y-113791724D01*
X158675912Y-113764049D01*
X158700116Y-113738880D01*
X158703985Y-113707943D01*
X158698628Y-113674505D01*
X158686692Y-113617212D01*
X158678568Y-113587807D01*
X158678278Y-113587342D01*
X158654671Y-113594199D01*
X158596129Y-113618165D01*
X158513652Y-113654654D01*
X158480929Y-113669644D01*
X158153487Y-113805964D01*
X157849044Y-113900054D01*
X157562287Y-113951861D01*
X157287904Y-113961334D01*
X157020583Y-113928422D01*
X156755010Y-113853073D01*
X156485874Y-113735236D01*
X156328400Y-113648783D01*
X156113839Y-113513698D01*
X155921635Y-113371243D01*
X155746723Y-113215446D01*
X155584034Y-113040335D01*
X155428501Y-112839937D01*
X155275057Y-112608280D01*
X155118635Y-112339391D01*
X154956449Y-112031800D01*
X154676741Y-111429830D01*
X154443052Y-110815621D01*
X154253339Y-110183010D01*
X154105558Y-109525832D01*
X154080729Y-109390200D01*
X154008622Y-108960153D01*
X153951287Y-108568637D01*
X153907801Y-108205866D01*
X153877241Y-107862058D01*
X153858684Y-107527426D01*
X153851207Y-107192187D01*
X153851911Y-106964500D01*
X153872294Y-106390114D01*
X153920100Y-105849333D01*
X153997342Y-105331771D01*
X154106031Y-104827046D01*
X154248181Y-104324773D01*
X154425804Y-103814569D01*
X154498603Y-103627493D01*
X154609438Y-103360191D01*
X154713766Y-103133009D01*
X154817276Y-102936753D01*
X154925659Y-102762230D01*
X155044604Y-102600246D01*
X155179802Y-102441606D01*
X155330115Y-102283976D01*
X155617924Y-102021782D01*
X155916904Y-101804732D01*
X156235301Y-101627253D01*
X156428923Y-101541544D01*
X156607348Y-101470671D01*
X156752896Y-101417999D01*
X156878887Y-101381093D01*
X156998639Y-101357518D01*
X157125472Y-101344838D01*
X157272705Y-101340618D01*
X157453657Y-101342424D01*
X157511334Y-101343658D01*
X157684243Y-101348427D01*
X157822120Y-101355893D01*
X157936920Y-101369055D01*
X158040601Y-101390916D01*
X158145121Y-101424474D01*
X158262437Y-101472730D01*
X158404507Y-101538684D01*
X158529487Y-101599131D01*
X158711274Y-101687613D01*
X158720881Y-101586869D01*
X158723947Y-101528474D01*
X158712247Y-101491070D01*
X158675514Y-101460286D01*
X158603480Y-101421752D01*
X158602595Y-101421303D01*
X158286878Y-101289168D01*
X157956078Y-101203148D01*
X157614475Y-101162395D01*
X157266348Y-101166058D01*
X157266348Y-101166058D01*
G37*
X157266348Y-101166058D02*
X156915979Y-101213287D01*
X156567647Y-101303235D01*
X156225634Y-101435051D01*
X155894219Y-101607886D01*
X155577683Y-101820891D01*
X155280306Y-102073216D01*
X155270593Y-102082467D01*
X155094307Y-102260400D01*
X154940831Y-102437671D01*
X154804859Y-102622859D01*
X154681084Y-102824543D01*
X154564200Y-103051303D01*
X154448900Y-103311719D01*
X154340456Y-103586300D01*
X154137979Y-104174260D01*
X153976424Y-104762448D01*
X153853020Y-105362887D01*
X153764997Y-105987602D01*
X153746818Y-106163244D01*
X153732472Y-106361430D01*
X153723008Y-106597420D01*
X153718277Y-106859728D01*
X153718132Y-107136869D01*
X153722422Y-107417357D01*
X153730999Y-107689705D01*
X153743714Y-107942428D01*
X153760418Y-108164040D01*
X153774452Y-108294882D01*
X153824392Y-108658287D01*
X153883317Y-109029292D01*
X153949395Y-109398902D01*
X154020792Y-109758121D01*
X154095677Y-110097956D01*
X154172216Y-110409410D01*
X154248576Y-110683489D01*
X154284877Y-110799900D01*
X154394933Y-111115245D01*
X154522960Y-111442908D01*
X154663975Y-111772077D01*
X154812996Y-112091938D01*
X154965042Y-112391681D01*
X155115131Y-112660493D01*
X155221195Y-112831900D01*
X155420310Y-113099770D01*
X155651268Y-113345520D01*
X155906974Y-113564022D01*
X156180334Y-113750153D01*
X156464254Y-113898789D01*
X156751640Y-114004803D01*
X156893635Y-114040066D01*
X157103615Y-114071203D01*
X157334852Y-114085053D01*
X157566581Y-114081403D01*
X157778039Y-114060040D01*
X157836514Y-114049731D01*
X158119429Y-113977967D01*
X158432396Y-113869424D01*
X158530827Y-113830178D01*
X158622455Y-113791724D01*
X158675912Y-113764049D01*
X158700116Y-113738880D01*
X158703985Y-113707943D01*
X158698628Y-113674505D01*
X158686692Y-113617212D01*
X158678568Y-113587807D01*
X158678278Y-113587342D01*
X158654671Y-113594199D01*
X158596129Y-113618165D01*
X158513652Y-113654654D01*
X158480929Y-113669644D01*
X158153487Y-113805964D01*
X157849044Y-113900054D01*
X157562287Y-113951861D01*
X157287904Y-113961334D01*
X157020583Y-113928422D01*
X156755010Y-113853073D01*
X156485874Y-113735236D01*
X156328400Y-113648783D01*
X156113839Y-113513698D01*
X155921635Y-113371243D01*
X155746723Y-113215446D01*
X155584034Y-113040335D01*
X155428501Y-112839937D01*
X155275057Y-112608280D01*
X155118635Y-112339391D01*
X154956449Y-112031800D01*
X154676741Y-111429830D01*
X154443052Y-110815621D01*
X154253339Y-110183010D01*
X154105558Y-109525832D01*
X154080729Y-109390200D01*
X154008622Y-108960153D01*
X153951287Y-108568637D01*
X153907801Y-108205866D01*
X153877241Y-107862058D01*
X153858684Y-107527426D01*
X153851207Y-107192187D01*
X153851911Y-106964500D01*
X153872294Y-106390114D01*
X153920100Y-105849333D01*
X153997342Y-105331771D01*
X154106031Y-104827046D01*
X154248181Y-104324773D01*
X154425804Y-103814569D01*
X154498603Y-103627493D01*
X154609438Y-103360191D01*
X154713766Y-103133009D01*
X154817276Y-102936753D01*
X154925659Y-102762230D01*
X155044604Y-102600246D01*
X155179802Y-102441606D01*
X155330115Y-102283976D01*
X155617924Y-102021782D01*
X155916904Y-101804732D01*
X156235301Y-101627253D01*
X156428923Y-101541544D01*
X156607348Y-101470671D01*
X156752896Y-101417999D01*
X156878887Y-101381093D01*
X156998639Y-101357518D01*
X157125472Y-101344838D01*
X157272705Y-101340618D01*
X157453657Y-101342424D01*
X157511334Y-101343658D01*
X157684243Y-101348427D01*
X157822120Y-101355893D01*
X157936920Y-101369055D01*
X158040601Y-101390916D01*
X158145121Y-101424474D01*
X158262437Y-101472730D01*
X158404507Y-101538684D01*
X158529487Y-101599131D01*
X158711274Y-101687613D01*
X158720881Y-101586869D01*
X158723947Y-101528474D01*
X158712247Y-101491070D01*
X158675514Y-101460286D01*
X158603480Y-101421752D01*
X158602595Y-101421303D01*
X158286878Y-101289168D01*
X157956078Y-101203148D01*
X157614475Y-101162395D01*
X157266348Y-101166058D01*
G36*
X136048310Y-103428305D02*
G01*
X135722362Y-103433749D01*
X135441283Y-103440994D01*
X135199155Y-103450758D01*
X134990060Y-103463759D01*
X134808078Y-103480714D01*
X134647290Y-103502341D01*
X134501778Y-103529359D01*
X134365623Y-103562483D01*
X134232906Y-103602434D01*
X134097708Y-103649927D01*
X134039900Y-103671856D01*
X133787077Y-103790780D01*
X133527812Y-103952438D01*
X133269087Y-104150569D01*
X133017882Y-104378913D01*
X132781179Y-104631208D01*
X132565958Y-104901193D01*
X132407730Y-105135700D01*
X132177515Y-105536626D01*
X131990196Y-105929883D01*
X131841630Y-106326980D01*
X131727673Y-106739425D01*
X131644182Y-107178727D01*
X131625794Y-107307400D01*
X131610222Y-107455392D01*
X131596768Y-107645076D01*
X131585588Y-107867382D01*
X131576839Y-108113239D01*
X131570678Y-108373578D01*
X131567261Y-108639328D01*
X131566744Y-108901418D01*
X131569284Y-109150780D01*
X131575037Y-109378341D01*
X131584159Y-109575033D01*
X131586147Y-109606100D01*
X131614763Y-109974523D01*
X131649927Y-110330515D01*
X131690755Y-110668363D01*
X131736362Y-110982356D01*
X131785862Y-111266781D01*
X131838372Y-111515927D01*
X131893007Y-111724083D01*
X131932975Y-111844863D01*
X132067755Y-112171575D01*
X132232939Y-112513528D01*
X132419488Y-112854196D01*
X132618366Y-113177053D01*
X132816069Y-113459651D01*
X133049471Y-113747481D01*
X133320281Y-114042677D01*
X133618260Y-114334994D01*
X133933167Y-114614181D01*
X134128800Y-114773349D01*
X134467890Y-115007808D01*
X134840221Y-115205062D01*
X135243228Y-115363942D01*
X135674344Y-115483278D01*
X135696963Y-115488267D01*
X135782892Y-115505520D01*
X135869069Y-115519059D01*
X135963780Y-115529450D01*
X136075308Y-115537257D01*
X136211935Y-115543048D01*
X136381946Y-115547387D01*
X136593624Y-115550840D01*
X136618000Y-115551166D01*
X136875508Y-115553279D01*
X137088687Y-115552066D01*
X137263913Y-115547344D01*
X137407561Y-115538926D01*
X137526005Y-115526629D01*
X137542296Y-115524396D01*
X138022943Y-115437050D01*
X138472402Y-115314576D01*
X138898876Y-115153926D01*
X139310567Y-114952051D01*
X139678700Y-114730324D01*
X139991100Y-114511966D01*
X140273670Y-114283933D01*
X140533032Y-114039080D01*
X140775802Y-113770265D01*
X141008602Y-113470344D01*
X141238050Y-113132173D01*
X141394169Y-112879021D01*
X141694368Y-112334227D01*
X141945439Y-111787779D01*
X142148963Y-111234994D01*
X142306522Y-110671192D01*
X142419698Y-110091691D01*
X142471790Y-109689372D01*
X142505429Y-109203234D01*
X142505065Y-109166313D01*
X142331220Y-109166313D01*
X142308263Y-109493540D01*
X142295017Y-109610784D01*
X142204311Y-110186999D01*
X142075381Y-110739503D01*
X141905784Y-111275267D01*
X141693078Y-111801266D01*
X141434822Y-112324471D01*
X141201620Y-112732750D01*
X140969167Y-113097669D01*
X140737521Y-113419402D01*
X140500578Y-113705089D01*
X140252233Y-113961871D01*
X139986382Y-114196890D01*
X139873026Y-114286979D01*
X139464095Y-114575491D01*
X139044420Y-114816883D01*
X138608534Y-115013478D01*
X138150968Y-115167601D01*
X137666255Y-115281575D01*
X137443500Y-115319523D01*
X137261619Y-115339916D01*
X137045541Y-115352545D01*
X136809940Y-115357512D01*
X136569487Y-115354920D01*
X136338856Y-115344870D01*
X136132721Y-115327467D01*
X136001765Y-115309436D01*
X135568833Y-115210487D01*
X135155378Y-115065377D01*
X134763942Y-114875115D01*
X134503412Y-114714943D01*
X134393433Y-114635059D01*
X134256923Y-114526782D01*
X134102851Y-114398061D01*
X133940184Y-114256842D01*
X133777888Y-114111072D01*
X133624931Y-113968700D01*
X133490281Y-113837671D01*
X133382905Y-113725934D01*
X133364914Y-113705951D01*
X133092400Y-113376927D01*
X132840114Y-113028941D01*
X132611740Y-112668916D01*
X132410961Y-112303775D01*
X132241462Y-111940442D01*
X132106927Y-111585841D01*
X132011039Y-111246896D01*
X131982698Y-111108200D01*
X131870607Y-110370438D01*
X131799695Y-109637775D01*
X131768474Y-108893307D01*
X131766622Y-108654872D01*
X131772793Y-108215626D01*
X131791916Y-107819375D01*
X131824957Y-107459747D01*
X131872879Y-107130374D01*
X131936648Y-106824883D01*
X132017227Y-106536905D01*
X132115583Y-106260068D01*
X132137579Y-106205216D01*
X132332898Y-105775657D01*
X132554061Y-105377902D01*
X132798698Y-105014751D01*
X133064442Y-104689004D01*
X133348923Y-104403461D01*
X133649772Y-104160922D01*
X133964620Y-103964187D01*
X134085475Y-103902953D01*
X134235385Y-103835751D01*
X134381245Y-103779955D01*
X134530811Y-103734024D01*
X134691842Y-103696421D01*
X134872097Y-103665607D01*
X135079334Y-103640043D01*
X135321311Y-103618191D01*
X135605786Y-103598514D01*
X135627400Y-103597183D01*
X136055924Y-103580194D01*
X136495705Y-103580006D01*
X136934886Y-103595951D01*
X137361613Y-103627364D01*
X137764028Y-103673577D01*
X138130277Y-103733925D01*
X138158411Y-103739494D01*
X138626576Y-103856746D01*
X139070603Y-104015113D01*
X139487442Y-104213109D01*
X139874043Y-104449248D01*
X140227358Y-104722043D01*
X140292470Y-104779703D01*
X140375821Y-104860991D01*
X140483526Y-104974834D01*
X140608927Y-105113553D01*
X140745365Y-105269469D01*
X140886180Y-105434904D01*
X141024715Y-105602178D01*
X141154309Y-105763613D01*
X141228804Y-105859435D01*
X141458148Y-106190695D01*
X141670335Y-106560200D01*
X141860113Y-106956805D01*
X142022230Y-107369371D01*
X142151433Y-107786754D01*
X142168766Y-107853500D01*
X142249520Y-108210097D01*
X142302847Y-108538495D01*
X142329748Y-108852599D01*
X142331220Y-109166313D01*
X142505065Y-109166313D01*
X142500861Y-108740356D01*
X142456852Y-108289167D01*
X142372172Y-107838094D01*
X142245588Y-107375564D01*
X142215573Y-107282000D01*
X142069617Y-106894760D01*
X141886584Y-106503287D01*
X141674358Y-106122002D01*
X141440820Y-105765331D01*
X141249152Y-105513753D01*
X141159422Y-105403676D01*
X141057847Y-105278265D01*
X140964201Y-105161947D01*
X140950988Y-105145453D01*
X140636811Y-104791064D01*
X140295596Y-104479485D01*
X139926626Y-104210258D01*
X139529185Y-103982927D01*
X139102558Y-103797034D01*
X138646029Y-103652124D01*
X138586500Y-103636787D01*
X138351279Y-103581633D01*
X138118708Y-103535790D01*
X137882035Y-103498704D01*
X137634508Y-103469820D01*
X137369376Y-103448584D01*
X137079888Y-103434441D01*
X136759291Y-103426836D01*
X136400835Y-103425216D01*
X136048310Y-103428305D01*
X136048310Y-103428305D01*
G37*
X136048310Y-103428305D02*
X135722362Y-103433749D01*
X135441283Y-103440994D01*
X135199155Y-103450758D01*
X134990060Y-103463759D01*
X134808078Y-103480714D01*
X134647290Y-103502341D01*
X134501778Y-103529359D01*
X134365623Y-103562483D01*
X134232906Y-103602434D01*
X134097708Y-103649927D01*
X134039900Y-103671856D01*
X133787077Y-103790780D01*
X133527812Y-103952438D01*
X133269087Y-104150569D01*
X133017882Y-104378913D01*
X132781179Y-104631208D01*
X132565958Y-104901193D01*
X132407730Y-105135700D01*
X132177515Y-105536626D01*
X131990196Y-105929883D01*
X131841630Y-106326980D01*
X131727673Y-106739425D01*
X131644182Y-107178727D01*
X131625794Y-107307400D01*
X131610222Y-107455392D01*
X131596768Y-107645076D01*
X131585588Y-107867382D01*
X131576839Y-108113239D01*
X131570678Y-108373578D01*
X131567261Y-108639328D01*
X131566744Y-108901418D01*
X131569284Y-109150780D01*
X131575037Y-109378341D01*
X131584159Y-109575033D01*
X131586147Y-109606100D01*
X131614763Y-109974523D01*
X131649927Y-110330515D01*
X131690755Y-110668363D01*
X131736362Y-110982356D01*
X131785862Y-111266781D01*
X131838372Y-111515927D01*
X131893007Y-111724083D01*
X131932975Y-111844863D01*
X132067755Y-112171575D01*
X132232939Y-112513528D01*
X132419488Y-112854196D01*
X132618366Y-113177053D01*
X132816069Y-113459651D01*
X133049471Y-113747481D01*
X133320281Y-114042677D01*
X133618260Y-114334994D01*
X133933167Y-114614181D01*
X134128800Y-114773349D01*
X134467890Y-115007808D01*
X134840221Y-115205062D01*
X135243228Y-115363942D01*
X135674344Y-115483278D01*
X135696963Y-115488267D01*
X135782892Y-115505520D01*
X135869069Y-115519059D01*
X135963780Y-115529450D01*
X136075308Y-115537257D01*
X136211935Y-115543048D01*
X136381946Y-115547387D01*
X136593624Y-115550840D01*
X136618000Y-115551166D01*
X136875508Y-115553279D01*
X137088687Y-115552066D01*
X137263913Y-115547344D01*
X137407561Y-115538926D01*
X137526005Y-115526629D01*
X137542296Y-115524396D01*
X138022943Y-115437050D01*
X138472402Y-115314576D01*
X138898876Y-115153926D01*
X139310567Y-114952051D01*
X139678700Y-114730324D01*
X139991100Y-114511966D01*
X140273670Y-114283933D01*
X140533032Y-114039080D01*
X140775802Y-113770265D01*
X141008602Y-113470344D01*
X141238050Y-113132173D01*
X141394169Y-112879021D01*
X141694368Y-112334227D01*
X141945439Y-111787779D01*
X142148963Y-111234994D01*
X142306522Y-110671192D01*
X142419698Y-110091691D01*
X142471790Y-109689372D01*
X142505429Y-109203234D01*
X142505065Y-109166313D01*
X142331220Y-109166313D01*
X142308263Y-109493540D01*
X142295017Y-109610784D01*
X142204311Y-110186999D01*
X142075381Y-110739503D01*
X141905784Y-111275267D01*
X141693078Y-111801266D01*
X141434822Y-112324471D01*
X141201620Y-112732750D01*
X140969167Y-113097669D01*
X140737521Y-113419402D01*
X140500578Y-113705089D01*
X140252233Y-113961871D01*
X139986382Y-114196890D01*
X139873026Y-114286979D01*
X139464095Y-114575491D01*
X139044420Y-114816883D01*
X138608534Y-115013478D01*
X138150968Y-115167601D01*
X137666255Y-115281575D01*
X137443500Y-115319523D01*
X137261619Y-115339916D01*
X137045541Y-115352545D01*
X136809940Y-115357512D01*
X136569487Y-115354920D01*
X136338856Y-115344870D01*
X136132721Y-115327467D01*
X136001765Y-115309436D01*
X135568833Y-115210487D01*
X135155378Y-115065377D01*
X134763942Y-114875115D01*
X134503412Y-114714943D01*
X134393433Y-114635059D01*
X134256923Y-114526782D01*
X134102851Y-114398061D01*
X133940184Y-114256842D01*
X133777888Y-114111072D01*
X133624931Y-113968700D01*
X133490281Y-113837671D01*
X133382905Y-113725934D01*
X133364914Y-113705951D01*
X133092400Y-113376927D01*
X132840114Y-113028941D01*
X132611740Y-112668916D01*
X132410961Y-112303775D01*
X132241462Y-111940442D01*
X132106927Y-111585841D01*
X132011039Y-111246896D01*
X131982698Y-111108200D01*
X131870607Y-110370438D01*
X131799695Y-109637775D01*
X131768474Y-108893307D01*
X131766622Y-108654872D01*
X131772793Y-108215626D01*
X131791916Y-107819375D01*
X131824957Y-107459747D01*
X131872879Y-107130374D01*
X131936648Y-106824883D01*
X132017227Y-106536905D01*
X132115583Y-106260068D01*
X132137579Y-106205216D01*
X132332898Y-105775657D01*
X132554061Y-105377902D01*
X132798698Y-105014751D01*
X133064442Y-104689004D01*
X133348923Y-104403461D01*
X133649772Y-104160922D01*
X133964620Y-103964187D01*
X134085475Y-103902953D01*
X134235385Y-103835751D01*
X134381245Y-103779955D01*
X134530811Y-103734024D01*
X134691842Y-103696421D01*
X134872097Y-103665607D01*
X135079334Y-103640043D01*
X135321311Y-103618191D01*
X135605786Y-103598514D01*
X135627400Y-103597183D01*
X136055924Y-103580194D01*
X136495705Y-103580006D01*
X136934886Y-103595951D01*
X137361613Y-103627364D01*
X137764028Y-103673577D01*
X138130277Y-103733925D01*
X138158411Y-103739494D01*
X138626576Y-103856746D01*
X139070603Y-104015113D01*
X139487442Y-104213109D01*
X139874043Y-104449248D01*
X140227358Y-104722043D01*
X140292470Y-104779703D01*
X140375821Y-104860991D01*
X140483526Y-104974834D01*
X140608927Y-105113553D01*
X140745365Y-105269469D01*
X140886180Y-105434904D01*
X141024715Y-105602178D01*
X141154309Y-105763613D01*
X141228804Y-105859435D01*
X141458148Y-106190695D01*
X141670335Y-106560200D01*
X141860113Y-106956805D01*
X142022230Y-107369371D01*
X142151433Y-107786754D01*
X142168766Y-107853500D01*
X142249520Y-108210097D01*
X142302847Y-108538495D01*
X142329748Y-108852599D01*
X142331220Y-109166313D01*
X142505065Y-109166313D01*
X142500861Y-108740356D01*
X142456852Y-108289167D01*
X142372172Y-107838094D01*
X142245588Y-107375564D01*
X142215573Y-107282000D01*
X142069617Y-106894760D01*
X141886584Y-106503287D01*
X141674358Y-106122002D01*
X141440820Y-105765331D01*
X141249152Y-105513753D01*
X141159422Y-105403676D01*
X141057847Y-105278265D01*
X140964201Y-105161947D01*
X140950988Y-105145453D01*
X140636811Y-104791064D01*
X140295596Y-104479485D01*
X139926626Y-104210258D01*
X139529185Y-103982927D01*
X139102558Y-103797034D01*
X138646029Y-103652124D01*
X138586500Y-103636787D01*
X138351279Y-103581633D01*
X138118708Y-103535790D01*
X137882035Y-103498704D01*
X137634508Y-103469820D01*
X137369376Y-103448584D01*
X137079888Y-103434441D01*
X136759291Y-103426836D01*
X136400835Y-103425216D01*
X136048310Y-103428305D01*
G36*
X156320116Y-115469725D02*
G01*
X155718550Y-115921019D01*
X155102272Y-116341895D01*
X154476599Y-116729371D01*
X153846847Y-117080468D01*
X153218333Y-117392203D01*
X152596375Y-117661596D01*
X152048500Y-117864741D01*
X151493875Y-118035846D01*
X150893239Y-118187868D01*
X150247710Y-118320678D01*
X149558409Y-118434148D01*
X148826456Y-118528149D01*
X148052969Y-118602552D01*
X147239070Y-118657230D01*
X146385877Y-118692053D01*
X145494509Y-118706894D01*
X144733300Y-118704030D01*
X143728237Y-118681106D01*
X142755082Y-118637240D01*
X141798927Y-118571218D01*
X140844867Y-118481821D01*
X139877995Y-118367835D01*
X138883405Y-118228044D01*
X138865900Y-118225397D01*
X138332500Y-118144628D01*
X137384480Y-117793314D01*
X137144583Y-117704601D01*
X136947008Y-117632149D01*
X136786531Y-117574325D01*
X136657930Y-117529496D01*
X136555982Y-117496030D01*
X136475463Y-117472294D01*
X136411151Y-117456655D01*
X136357823Y-117447482D01*
X136310256Y-117443142D01*
X136263227Y-117442002D01*
X136260530Y-117442000D01*
X136084600Y-117442000D01*
X136084719Y-117943650D01*
X136104977Y-118753599D01*
X136164583Y-119566144D01*
X136262353Y-120375987D01*
X136397104Y-121177832D01*
X136567650Y-121966381D01*
X136772809Y-122736338D01*
X137011397Y-123482405D01*
X137282229Y-124199285D01*
X137584122Y-124881681D01*
X137678476Y-125074700D01*
X138008870Y-125691184D01*
X138364152Y-126269809D01*
X138743108Y-126809559D01*
X139144524Y-127309414D01*
X139567185Y-127768358D01*
X140009878Y-128185373D01*
X140471388Y-128559440D01*
X140950501Y-128889543D01*
X141446003Y-129174664D01*
X141956680Y-129413784D01*
X142481317Y-129605887D01*
X143018700Y-129749954D01*
X143327839Y-129809787D01*
X143725320Y-129862972D01*
X144155485Y-129896453D01*
X144603967Y-129909681D01*
X145056402Y-129902105D01*
X145334996Y-129886549D01*
X145884641Y-129826226D01*
X146455020Y-129723337D01*
X147041213Y-129579160D01*
X147638298Y-129394974D01*
X148241353Y-129172056D01*
X148505200Y-129062937D01*
X148810482Y-128927413D01*
X149142449Y-128770816D01*
X149492034Y-128597996D01*
X149850166Y-128413804D01*
X150207775Y-128223091D01*
X150555794Y-128030706D01*
X150885151Y-127841501D01*
X151186777Y-127660325D01*
X151451604Y-127492030D01*
X151489700Y-127466792D01*
X152093786Y-127033688D01*
X152665198Y-126562000D01*
X153203535Y-126052373D01*
X153708398Y-125505455D01*
X154179387Y-124921889D01*
X154616101Y-124302324D01*
X155018141Y-123647404D01*
X155385107Y-122957776D01*
X155716599Y-122234085D01*
X156012216Y-121476978D01*
X156271559Y-120687100D01*
X156494227Y-119865099D01*
X156658812Y-119119251D01*
X156758650Y-118576391D01*
X156838230Y-118052312D01*
X156899051Y-117532647D01*
X156942611Y-117003028D01*
X156970410Y-116449088D01*
X156981528Y-116025950D01*
X156993204Y-115356654D01*
X156836400Y-115356654D01*
X156836155Y-115694477D01*
X156828603Y-116091758D01*
X156807168Y-116524991D01*
X156772860Y-116981563D01*
X156726688Y-117448856D01*
X156669665Y-117914258D01*
X156643266Y-118102400D01*
X156501592Y-118931382D01*
X156321776Y-119739812D01*
X156104817Y-120525674D01*
X155851716Y-121286956D01*
X155563474Y-122021643D01*
X155241090Y-122727722D01*
X154885565Y-123403177D01*
X154497900Y-124045997D01*
X154079093Y-124654166D01*
X153630146Y-125225670D01*
X153152060Y-125758497D01*
X152645833Y-126250631D01*
X152556500Y-126330586D01*
X152285788Y-126563614D01*
X152016510Y-126781825D01*
X151742053Y-126989660D01*
X151455803Y-127191561D01*
X151151149Y-127391967D01*
X150821476Y-127595320D01*
X150460171Y-127806061D01*
X150060621Y-128028631D01*
X149889500Y-128121485D01*
X149264461Y-128446036D01*
X148666075Y-128730998D01*
X148090790Y-128977631D01*
X147535058Y-129187191D01*
X146995327Y-129360939D01*
X146468047Y-129500131D01*
X145949669Y-129606026D01*
X145520700Y-129669897D01*
X145368425Y-129683871D01*
X145178873Y-129693674D01*
X144962537Y-129699423D01*
X144729908Y-129701239D01*
X144491478Y-129699242D01*
X144257740Y-129693550D01*
X144039186Y-129684285D01*
X143846306Y-129671564D01*
X143689594Y-129655509D01*
X143641100Y-129648460D01*
X143072798Y-129530506D01*
X142516834Y-129363834D01*
X141975717Y-129149567D01*
X141451954Y-128888826D01*
X140948052Y-128582734D01*
X140466519Y-128232412D01*
X140453400Y-128221992D01*
X140337265Y-128123839D01*
X140195537Y-127995037D01*
X140035884Y-127843336D01*
X139865971Y-127676487D01*
X139693464Y-127502240D01*
X139526027Y-127328347D01*
X139371328Y-127162558D01*
X139237031Y-127012624D01*
X139130802Y-126886296D01*
X139124267Y-126878100D01*
X138707859Y-126314696D01*
X138320681Y-125711738D01*
X137963724Y-125071897D01*
X137637976Y-124397847D01*
X137344430Y-123692261D01*
X137084075Y-122957810D01*
X136857901Y-122197167D01*
X136666898Y-121413005D01*
X136512057Y-120607998D01*
X136394369Y-119784816D01*
X136352691Y-119397800D01*
X136335805Y-119209977D01*
X136319934Y-119008743D01*
X136305351Y-118800198D01*
X136292329Y-118590442D01*
X136281142Y-118385574D01*
X136272061Y-118191696D01*
X136265361Y-118014908D01*
X136261314Y-117861309D01*
X136260192Y-117736999D01*
X136262270Y-117648079D01*
X136267819Y-117600649D01*
X136271999Y-117594400D01*
X136299165Y-117603338D01*
X136355737Y-117625738D01*
X136379949Y-117635811D01*
X136426502Y-117654239D01*
X136514480Y-117687948D01*
X136637663Y-117734597D01*
X136789831Y-117791845D01*
X136964762Y-117857349D01*
X137156237Y-117928769D01*
X137322847Y-117990707D01*
X138167394Y-118304192D01*
X138757947Y-118392636D01*
X140103212Y-118572814D01*
X141453362Y-118711523D01*
X142801469Y-118808321D01*
X144140605Y-118862763D01*
X145463840Y-118874406D01*
X146117600Y-118864033D01*
X146903368Y-118838511D01*
X147642652Y-118801044D01*
X148338431Y-118751265D01*
X148993684Y-118688806D01*
X149611392Y-118613300D01*
X150194533Y-118524379D01*
X150746087Y-118421676D01*
X151269033Y-118304823D01*
X151766351Y-118173452D01*
X151805055Y-118162322D01*
X152346351Y-117987457D01*
X152906260Y-117771514D01*
X153478327Y-117517600D01*
X154056097Y-117228821D01*
X154633115Y-116908284D01*
X155202925Y-116559095D01*
X155388600Y-116437893D01*
X155663701Y-116251717D01*
X155934101Y-116061547D01*
X156190018Y-115874541D01*
X156421666Y-115697853D01*
X156619262Y-115538640D01*
X156626850Y-115532291D01*
X156836400Y-115356654D01*
X156993204Y-115356654D01*
X156995819Y-115206800D01*
X156654731Y-115206800D01*
X156320116Y-115469725D01*
X156320116Y-115469725D01*
G37*
X156320116Y-115469725D02*
X155718550Y-115921019D01*
X155102272Y-116341895D01*
X154476599Y-116729371D01*
X153846847Y-117080468D01*
X153218333Y-117392203D01*
X152596375Y-117661596D01*
X152048500Y-117864741D01*
X151493875Y-118035846D01*
X150893239Y-118187868D01*
X150247710Y-118320678D01*
X149558409Y-118434148D01*
X148826456Y-118528149D01*
X148052969Y-118602552D01*
X147239070Y-118657230D01*
X146385877Y-118692053D01*
X145494509Y-118706894D01*
X144733300Y-118704030D01*
X143728237Y-118681106D01*
X142755082Y-118637240D01*
X141798927Y-118571218D01*
X140844867Y-118481821D01*
X139877995Y-118367835D01*
X138883405Y-118228044D01*
X138865900Y-118225397D01*
X138332500Y-118144628D01*
X137384480Y-117793314D01*
X137144583Y-117704601D01*
X136947008Y-117632149D01*
X136786531Y-117574325D01*
X136657930Y-117529496D01*
X136555982Y-117496030D01*
X136475463Y-117472294D01*
X136411151Y-117456655D01*
X136357823Y-117447482D01*
X136310256Y-117443142D01*
X136263227Y-117442002D01*
X136260530Y-117442000D01*
X136084600Y-117442000D01*
X136084719Y-117943650D01*
X136104977Y-118753599D01*
X136164583Y-119566144D01*
X136262353Y-120375987D01*
X136397104Y-121177832D01*
X136567650Y-121966381D01*
X136772809Y-122736338D01*
X137011397Y-123482405D01*
X137282229Y-124199285D01*
X137584122Y-124881681D01*
X137678476Y-125074700D01*
X138008870Y-125691184D01*
X138364152Y-126269809D01*
X138743108Y-126809559D01*
X139144524Y-127309414D01*
X139567185Y-127768358D01*
X140009878Y-128185373D01*
X140471388Y-128559440D01*
X140950501Y-128889543D01*
X141446003Y-129174664D01*
X141956680Y-129413784D01*
X142481317Y-129605887D01*
X143018700Y-129749954D01*
X143327839Y-129809787D01*
X143725320Y-129862972D01*
X144155485Y-129896453D01*
X144603967Y-129909681D01*
X145056402Y-129902105D01*
X145334996Y-129886549D01*
X145884641Y-129826226D01*
X146455020Y-129723337D01*
X147041213Y-129579160D01*
X147638298Y-129394974D01*
X148241353Y-129172056D01*
X148505200Y-129062937D01*
X148810482Y-128927413D01*
X149142449Y-128770816D01*
X149492034Y-128597996D01*
X149850166Y-128413804D01*
X150207775Y-128223091D01*
X150555794Y-128030706D01*
X150885151Y-127841501D01*
X151186777Y-127660325D01*
X151451604Y-127492030D01*
X151489700Y-127466792D01*
X152093786Y-127033688D01*
X152665198Y-126562000D01*
X153203535Y-126052373D01*
X153708398Y-125505455D01*
X154179387Y-124921889D01*
X154616101Y-124302324D01*
X155018141Y-123647404D01*
X155385107Y-122957776D01*
X155716599Y-122234085D01*
X156012216Y-121476978D01*
X156271559Y-120687100D01*
X156494227Y-119865099D01*
X156658812Y-119119251D01*
X156758650Y-118576391D01*
X156838230Y-118052312D01*
X156899051Y-117532647D01*
X156942611Y-117003028D01*
X156970410Y-116449088D01*
X156981528Y-116025950D01*
X156993204Y-115356654D01*
X156836400Y-115356654D01*
X156836155Y-115694477D01*
X156828603Y-116091758D01*
X156807168Y-116524991D01*
X156772860Y-116981563D01*
X156726688Y-117448856D01*
X156669665Y-117914258D01*
X156643266Y-118102400D01*
X156501592Y-118931382D01*
X156321776Y-119739812D01*
X156104817Y-120525674D01*
X155851716Y-121286956D01*
X155563474Y-122021643D01*
X155241090Y-122727722D01*
X154885565Y-123403177D01*
X154497900Y-124045997D01*
X154079093Y-124654166D01*
X153630146Y-125225670D01*
X153152060Y-125758497D01*
X152645833Y-126250631D01*
X152556500Y-126330586D01*
X152285788Y-126563614D01*
X152016510Y-126781825D01*
X151742053Y-126989660D01*
X151455803Y-127191561D01*
X151151149Y-127391967D01*
X150821476Y-127595320D01*
X150460171Y-127806061D01*
X150060621Y-128028631D01*
X149889500Y-128121485D01*
X149264461Y-128446036D01*
X148666075Y-128730998D01*
X148090790Y-128977631D01*
X147535058Y-129187191D01*
X146995327Y-129360939D01*
X146468047Y-129500131D01*
X145949669Y-129606026D01*
X145520700Y-129669897D01*
X145368425Y-129683871D01*
X145178873Y-129693674D01*
X144962537Y-129699423D01*
X144729908Y-129701239D01*
X144491478Y-129699242D01*
X144257740Y-129693550D01*
X144039186Y-129684285D01*
X143846306Y-129671564D01*
X143689594Y-129655509D01*
X143641100Y-129648460D01*
X143072798Y-129530506D01*
X142516834Y-129363834D01*
X141975717Y-129149567D01*
X141451954Y-128888826D01*
X140948052Y-128582734D01*
X140466519Y-128232412D01*
X140453400Y-128221992D01*
X140337265Y-128123839D01*
X140195537Y-127995037D01*
X140035884Y-127843336D01*
X139865971Y-127676487D01*
X139693464Y-127502240D01*
X139526027Y-127328347D01*
X139371328Y-127162558D01*
X139237031Y-127012624D01*
X139130802Y-126886296D01*
X139124267Y-126878100D01*
X138707859Y-126314696D01*
X138320681Y-125711738D01*
X137963724Y-125071897D01*
X137637976Y-124397847D01*
X137344430Y-123692261D01*
X137084075Y-122957810D01*
X136857901Y-122197167D01*
X136666898Y-121413005D01*
X136512057Y-120607998D01*
X136394369Y-119784816D01*
X136352691Y-119397800D01*
X136335805Y-119209977D01*
X136319934Y-119008743D01*
X136305351Y-118800198D01*
X136292329Y-118590442D01*
X136281142Y-118385574D01*
X136272061Y-118191696D01*
X136265361Y-118014908D01*
X136261314Y-117861309D01*
X136260192Y-117736999D01*
X136262270Y-117648079D01*
X136267819Y-117600649D01*
X136271999Y-117594400D01*
X136299165Y-117603338D01*
X136355737Y-117625738D01*
X136379949Y-117635811D01*
X136426502Y-117654239D01*
X136514480Y-117687948D01*
X136637663Y-117734597D01*
X136789831Y-117791845D01*
X136964762Y-117857349D01*
X137156237Y-117928769D01*
X137322847Y-117990707D01*
X138167394Y-118304192D01*
X138757947Y-118392636D01*
X140103212Y-118572814D01*
X141453362Y-118711523D01*
X142801469Y-118808321D01*
X144140605Y-118862763D01*
X145463840Y-118874406D01*
X146117600Y-118864033D01*
X146903368Y-118838511D01*
X147642652Y-118801044D01*
X148338431Y-118751265D01*
X148993684Y-118688806D01*
X149611392Y-118613300D01*
X150194533Y-118524379D01*
X150746087Y-118421676D01*
X151269033Y-118304823D01*
X151766351Y-118173452D01*
X151805055Y-118162322D01*
X152346351Y-117987457D01*
X152906260Y-117771514D01*
X153478327Y-117517600D01*
X154056097Y-117228821D01*
X154633115Y-116908284D01*
X155202925Y-116559095D01*
X155388600Y-116437893D01*
X155663701Y-116251717D01*
X155934101Y-116061547D01*
X156190018Y-115874541D01*
X156421666Y-115697853D01*
X156619262Y-115538640D01*
X156626850Y-115532291D01*
X156836400Y-115356654D01*
X156993204Y-115356654D01*
X156995819Y-115206800D01*
X156654731Y-115206800D01*
X156320116Y-115469725D01*
G36*
X147218190Y-79166436D02*
G01*
X146822980Y-79167108D01*
X146385324Y-79168055D01*
X145902307Y-79169192D01*
X145444500Y-79170266D01*
X141634500Y-79179015D01*
X141139200Y-79247967D01*
X140062314Y-79414803D01*
X139026999Y-79609768D01*
X138032373Y-79833096D01*
X137077553Y-80085018D01*
X136161656Y-80365769D01*
X135283798Y-80675580D01*
X134446300Y-81013307D01*
X134181416Y-81127444D01*
X133956134Y-81225395D01*
X133763286Y-81310804D01*
X133595708Y-81387317D01*
X133446233Y-81458581D01*
X133307693Y-81528241D01*
X133172923Y-81599944D01*
X133034756Y-81677336D01*
X132886026Y-81764062D01*
X132719567Y-81863768D01*
X132528211Y-81980101D01*
X132439700Y-82034180D01*
X131861527Y-82400853D01*
X131330020Y-82765854D01*
X130841281Y-83132402D01*
X130391414Y-83503716D01*
X129976520Y-83883016D01*
X129592703Y-84273521D01*
X129236063Y-84678450D01*
X129231081Y-84684433D01*
X129036247Y-84925766D01*
X128874640Y-85143198D01*
X128740844Y-85345803D01*
X128629444Y-85542657D01*
X128535027Y-85742835D01*
X128452175Y-85955411D01*
X128424095Y-86036848D01*
X128335877Y-86300484D01*
X128351071Y-91089500D01*
X128446354Y-91749900D01*
X128473602Y-91934627D01*
X128507544Y-92158142D01*
X128546405Y-92409143D01*
X128588412Y-92676329D01*
X128631792Y-92948396D01*
X128674770Y-93214044D01*
X128705447Y-93400900D01*
X128752123Y-93684976D01*
X128796060Y-93956741D01*
X128837586Y-94219097D01*
X128877026Y-94474942D01*
X128914709Y-94727177D01*
X128950961Y-94978700D01*
X128986108Y-95232413D01*
X129020477Y-95491215D01*
X129054396Y-95758005D01*
X129088191Y-96035684D01*
X129122189Y-96327152D01*
X129156716Y-96635307D01*
X129192100Y-96963051D01*
X129228668Y-97313283D01*
X129266746Y-97688903D01*
X129306661Y-98092810D01*
X129348740Y-98527905D01*
X129393309Y-98997087D01*
X129440697Y-99503256D01*
X129491228Y-100049312D01*
X129545231Y-100638155D01*
X129603032Y-101272685D01*
X129645855Y-101744800D01*
X129718353Y-102545973D01*
X129786436Y-103300167D01*
X129850405Y-104010980D01*
X129910563Y-104682012D01*
X129967211Y-105316865D01*
X130020650Y-105919137D01*
X130071183Y-106492428D01*
X130119112Y-107040340D01*
X130164737Y-107566471D01*
X130208361Y-108074422D01*
X130250284Y-108567794D01*
X130290810Y-109050185D01*
X130330240Y-109525196D01*
X130368875Y-109996428D01*
X130407017Y-110467479D01*
X130444968Y-110941951D01*
X130483029Y-111423443D01*
X130521503Y-111915555D01*
X130560691Y-112421888D01*
X130600894Y-112946041D01*
X130642414Y-113491615D01*
X130685553Y-114062209D01*
X130730613Y-114661424D01*
X130749986Y-114919851D01*
X130787063Y-115413371D01*
X130823615Y-115897012D01*
X130859424Y-116368014D01*
X130894273Y-116823615D01*
X130927942Y-117261054D01*
X130960215Y-117677569D01*
X130990873Y-118070399D01*
X131019699Y-118436782D01*
X131046473Y-118773957D01*
X131070979Y-119079162D01*
X131092998Y-119349637D01*
X131112312Y-119582619D01*
X131128703Y-119775347D01*
X131141954Y-119925059D01*
X131151846Y-120028995D01*
X131157031Y-120076051D01*
X131301552Y-121036617D01*
X131489143Y-121981630D01*
X131718768Y-122907047D01*
X131989390Y-123808823D01*
X132299972Y-124682916D01*
X132409357Y-124960400D01*
X132464537Y-125086247D01*
X132541360Y-125246156D01*
X132635511Y-125432319D01*
X132742677Y-125636929D01*
X132858541Y-125852179D01*
X132978789Y-126070263D01*
X133099106Y-126283373D01*
X133215177Y-126483703D01*
X133322687Y-126663445D01*
X133417321Y-126814792D01*
X133494765Y-126929938D01*
X133508067Y-126948283D01*
X133723679Y-127213984D01*
X133980142Y-127484783D01*
X134269017Y-127753479D01*
X134581865Y-128012873D01*
X134910248Y-128255764D01*
X135245728Y-128474954D01*
X135411500Y-128572288D01*
X135637294Y-128697224D01*
X135894452Y-128835188D01*
X136176507Y-128983001D01*
X136476995Y-129137487D01*
X136789448Y-129295469D01*
X137107399Y-129453770D01*
X137424384Y-129609213D01*
X137733935Y-129758621D01*
X138029587Y-129898817D01*
X138304872Y-130026623D01*
X138553325Y-130138863D01*
X138768480Y-130232360D01*
X138904000Y-130288230D01*
X139725276Y-130589395D01*
X140574833Y-130848687D01*
X141451889Y-131065901D01*
X142355662Y-131240827D01*
X142706845Y-131296303D01*
X143144190Y-131361200D01*
X148543300Y-131357296D01*
X148975100Y-131273463D01*
X149234504Y-131221595D01*
X149478694Y-131169257D01*
X149714445Y-131114513D01*
X149948535Y-131055428D01*
X150187739Y-130990064D01*
X150438835Y-130916488D01*
X150708597Y-130832761D01*
X151003803Y-130736949D01*
X151331229Y-130627116D01*
X151697651Y-130501325D01*
X151790462Y-130469132D01*
X152139818Y-130345784D01*
X152446184Y-130232708D01*
X152715554Y-130126718D01*
X152953924Y-130024627D01*
X153167287Y-129923249D01*
X153361640Y-129819399D01*
X153542976Y-129709889D01*
X153717290Y-129591535D01*
X153890577Y-129461148D01*
X154068831Y-129315544D01*
X154240873Y-129166727D01*
X154391327Y-129035705D01*
X154563850Y-128888406D01*
X154741316Y-128739280D01*
X154906595Y-128602778D01*
X154977473Y-128545258D01*
X155170854Y-128385758D01*
X155338908Y-128237608D01*
X155489401Y-128092244D01*
X155630096Y-127941102D01*
X155768758Y-127775620D01*
X155913151Y-127587233D01*
X156071039Y-127367378D01*
X156155110Y-127246400D01*
X156349559Y-126954089D01*
X156522361Y-126670827D01*
X156678400Y-126386646D01*
X156822561Y-126091578D01*
X156959728Y-125775655D01*
X157094786Y-125428910D01*
X157225544Y-125062000D01*
X157351649Y-124694439D01*
X157462378Y-124370190D01*
X157559240Y-124084655D01*
X157643746Y-123833233D01*
X157717404Y-123611326D01*
X157781724Y-123414333D01*
X157838216Y-123237657D01*
X157888390Y-123076698D01*
X157933756Y-122926855D01*
X157975822Y-122783531D01*
X157992576Y-122725200D01*
X158217704Y-121885132D01*
X158421385Y-121020089D01*
X158600801Y-120144269D01*
X158753134Y-119271870D01*
X158875565Y-118417092D01*
X158917667Y-118064300D01*
X158944833Y-117816713D01*
X158967937Y-117593269D01*
X158987298Y-117386962D01*
X159003238Y-117190786D01*
X159016079Y-116997735D01*
X159026141Y-116800804D01*
X159033747Y-116592985D01*
X159039218Y-116367274D01*
X159042874Y-116116664D01*
X159045038Y-115834149D01*
X159046031Y-115512724D01*
X159046200Y-115262149D01*
X159046201Y-113847360D01*
X159243051Y-113728649D01*
X159501694Y-113553306D01*
X159769682Y-113335214D01*
X160041421Y-113080179D01*
X160311317Y-112794004D01*
X160573776Y-112482495D01*
X160823205Y-112151457D01*
X160971466Y-111934990D01*
X161066623Y-111784499D01*
X161137972Y-111655180D01*
X161194347Y-111529280D01*
X161244585Y-111389048D01*
X161247214Y-111380974D01*
X161313701Y-111163976D01*
X161384035Y-110913491D01*
X161453933Y-110646180D01*
X161519110Y-110378701D01*
X161575283Y-110127713D01*
X161598024Y-110016798D01*
X161662400Y-109690896D01*
X161662400Y-107833004D01*
X161623955Y-107833004D01*
X161622263Y-108077139D01*
X161617440Y-108302695D01*
X161609344Y-108499766D01*
X161605351Y-108565555D01*
X161542081Y-109189409D01*
X161435164Y-109832918D01*
X161284263Y-110497907D01*
X161167911Y-110923697D01*
X161118466Y-111093315D01*
X161078564Y-111224733D01*
X161043430Y-111328490D01*
X161008285Y-111415125D01*
X160968353Y-111495178D01*
X160918858Y-111579189D01*
X160855021Y-111677697D01*
X160772067Y-111801241D01*
X160766253Y-111809864D01*
X160621290Y-112019792D01*
X160485348Y-112204320D01*
X160348036Y-112376122D01*
X160198965Y-112547871D01*
X160027745Y-112732242D01*
X159910696Y-112853543D01*
X159643907Y-113112753D01*
X159394261Y-113325574D01*
X159160555Y-113492991D01*
X159041843Y-113564149D01*
X158897786Y-113644248D01*
X158886742Y-115206574D01*
X158884202Y-115541616D01*
X158881553Y-115831127D01*
X158878631Y-116080377D01*
X158875271Y-116294635D01*
X158871309Y-116479172D01*
X158866580Y-116639255D01*
X158860918Y-116780155D01*
X158854158Y-116907141D01*
X158846137Y-117025482D01*
X158836689Y-117140448D01*
X158825649Y-117257309D01*
X158821217Y-117301218D01*
X158716882Y-118209022D01*
X158592982Y-119079870D01*
X158447670Y-119924415D01*
X158279099Y-120753309D01*
X158085423Y-121577207D01*
X158068276Y-121645247D01*
X158003690Y-121896967D01*
X157940970Y-122133828D01*
X157878038Y-122362637D01*
X157812815Y-122590204D01*
X157743221Y-122823335D01*
X157667178Y-123068839D01*
X157582606Y-123333523D01*
X157487426Y-123624196D01*
X157379559Y-123947665D01*
X157256926Y-124310739D01*
X157230378Y-124388900D01*
X157108593Y-124743856D01*
X156998607Y-125056048D01*
X156897687Y-125331387D01*
X156803101Y-125575785D01*
X156712115Y-125795154D01*
X156621997Y-125995407D01*
X156530014Y-126182456D01*
X156433433Y-126362212D01*
X156329523Y-126540589D01*
X156215549Y-126723497D01*
X156088779Y-126916850D01*
X156003488Y-127043200D01*
X155837366Y-127282803D01*
X155688359Y-127486569D01*
X155548762Y-127662984D01*
X155410872Y-127820538D01*
X155266987Y-127967718D01*
X155109402Y-128113010D01*
X154930415Y-128264904D01*
X154796306Y-128373300D01*
X154656007Y-128486697D01*
X154506954Y-128609913D01*
X154363003Y-128731319D01*
X154238005Y-128839288D01*
X154184509Y-128886790D01*
X154037077Y-129018957D01*
X153918481Y-129123454D01*
X153820226Y-129207062D01*
X153733817Y-129276565D01*
X153650761Y-129338746D01*
X153562563Y-129400388D01*
X153460726Y-129468273D01*
X153435871Y-129484574D01*
X153295728Y-129573548D01*
X153156375Y-129655631D01*
X153011983Y-129733370D01*
X152856721Y-129809314D01*
X152684759Y-129886010D01*
X152490267Y-129966004D01*
X152267414Y-130051846D01*
X152010371Y-130146081D01*
X151713306Y-130251258D01*
X151556168Y-130305900D01*
X151176444Y-130436071D01*
X150837578Y-130549372D01*
X150533217Y-130647697D01*
X150257011Y-130732941D01*
X150002610Y-130807000D01*
X149763664Y-130871769D01*
X149533822Y-130929143D01*
X149306734Y-130981018D01*
X149260549Y-130991015D01*
X148811558Y-131082692D01*
X148392241Y-131157812D01*
X147990493Y-131217651D01*
X147594209Y-131263490D01*
X147191285Y-131296605D01*
X146769615Y-131318275D01*
X146317096Y-131329779D01*
X146028700Y-131332322D01*
X145769212Y-131331535D01*
X145499866Y-131327631D01*
X145234804Y-131320988D01*
X144988169Y-131311980D01*
X144774104Y-131300986D01*
X144720600Y-131297512D01*
X143922356Y-131231278D01*
X143165299Y-131144608D01*
X142443587Y-131036261D01*
X141751375Y-130905000D01*
X141082818Y-130749583D01*
X140432073Y-130568773D01*
X139793294Y-130361329D01*
X139160637Y-130126013D01*
X139119900Y-130109847D01*
X138865620Y-130004450D01*
X138572369Y-129875586D01*
X138244938Y-129725589D01*
X137888116Y-129556792D01*
X137506692Y-129371532D01*
X137105455Y-129172141D01*
X136689196Y-128960956D01*
X136262704Y-128740309D01*
X135830768Y-128512535D01*
X135705354Y-128445579D01*
X135406427Y-128271923D01*
X135101961Y-128069740D01*
X134800030Y-127845855D01*
X134508709Y-127607093D01*
X134236072Y-127360280D01*
X133990195Y-127112240D01*
X133779153Y-126869800D01*
X133668158Y-126723630D01*
X133619511Y-126650419D01*
X133550812Y-126540146D01*
X133466485Y-126400266D01*
X133370954Y-126238233D01*
X133268642Y-126061499D01*
X133163971Y-125877521D01*
X133126761Y-125811300D01*
X132985524Y-125555649D01*
X132862752Y-125324695D01*
X132754370Y-125109039D01*
X132656304Y-124899282D01*
X132564479Y-124686024D01*
X132474820Y-124459867D01*
X132383252Y-124211411D01*
X132285701Y-123931257D01*
X132196301Y-123665000D01*
X131906530Y-122712212D01*
X131666967Y-121751994D01*
X131477488Y-120783779D01*
X131337965Y-119807003D01*
X131336032Y-119790382D01*
X131328646Y-119717642D01*
X131317735Y-119597049D01*
X131303517Y-119431411D01*
X131286214Y-119223537D01*
X131266046Y-118976234D01*
X131243233Y-118692311D01*
X131217995Y-118374576D01*
X131190553Y-118025838D01*
X131161127Y-117648904D01*
X131129938Y-117246584D01*
X131097205Y-116821686D01*
X131063150Y-116377017D01*
X131027991Y-115915386D01*
X130991951Y-115439602D01*
X130955248Y-114952473D01*
X130928604Y-114597200D01*
X130878390Y-113928233D01*
X130830204Y-113290471D01*
X130783694Y-112679711D01*
X130738511Y-112091750D01*
X130694303Y-111522387D01*
X130650720Y-110967420D01*
X130607411Y-110422647D01*
X130564026Y-109883866D01*
X130520214Y-109346876D01*
X130475624Y-108807473D01*
X130429906Y-108261457D01*
X130382708Y-107704624D01*
X130333682Y-107132774D01*
X130282475Y-106541705D01*
X130228737Y-105927213D01*
X130172117Y-105285098D01*
X130112266Y-104611158D01*
X130048832Y-103901190D01*
X129981464Y-103150992D01*
X129909812Y-102356364D01*
X129875194Y-101973400D01*
X129840661Y-101590674D01*
X129807474Y-101220997D01*
X129775918Y-100867640D01*
X129746279Y-100533876D01*
X129718841Y-100222980D01*
X129693889Y-99938222D01*
X129671709Y-99682877D01*
X129652586Y-99460217D01*
X129636803Y-99273514D01*
X129624648Y-99126043D01*
X129616403Y-99021075D01*
X129612355Y-98961883D01*
X129611984Y-98950800D01*
X129609479Y-98890472D01*
X129601044Y-98793674D01*
X129588035Y-98674208D01*
X129573319Y-98557100D01*
X129560091Y-98451592D01*
X129543047Y-98305294D01*
X129523259Y-98127979D01*
X129501796Y-97929421D01*
X129479728Y-97719394D01*
X129458127Y-97507673D01*
X129455116Y-97477600D01*
X129377687Y-96733398D01*
X129297899Y-96029759D01*
X129214409Y-95356455D01*
X129125873Y-94703258D01*
X129030950Y-94059940D01*
X128928294Y-93416274D01*
X128897987Y-93234621D01*
X128769855Y-92440887D01*
X128659344Y-91686445D01*
X128566491Y-90972021D01*
X128491332Y-90298342D01*
X128433902Y-89666134D01*
X128394240Y-89076122D01*
X128372381Y-88529033D01*
X128368361Y-88025593D01*
X128382217Y-87566529D01*
X128413985Y-87152566D01*
X128463702Y-86784430D01*
X128531404Y-86462848D01*
X128554580Y-86377800D01*
X128633272Y-86133570D01*
X128726571Y-85900686D01*
X128838274Y-85673117D01*
X128972177Y-85444830D01*
X129132076Y-85209791D01*
X129321768Y-84961970D01*
X129545049Y-84695333D01*
X129777484Y-84434700D01*
X130147344Y-84055144D01*
X130562561Y-83675561D01*
X131017820Y-83299584D01*
X131507809Y-82930846D01*
X132027215Y-82572979D01*
X132570727Y-82229615D01*
X133133030Y-81904388D01*
X133708813Y-81600929D01*
X134292763Y-81322872D01*
X134395500Y-81277049D01*
X135262789Y-80918007D01*
X136166167Y-80589982D01*
X137100680Y-80294059D01*
X138061371Y-80031324D01*
X139043285Y-79802863D01*
X140041467Y-79609760D01*
X141050959Y-79453103D01*
X142066808Y-79333976D01*
X143084056Y-79253465D01*
X143780800Y-79221106D01*
X144218958Y-79209435D01*
X144681010Y-79202227D01*
X145160702Y-79199322D01*
X145651783Y-79200558D01*
X146148001Y-79205775D01*
X146643103Y-79214810D01*
X147130836Y-79227503D01*
X147604948Y-79243693D01*
X148059187Y-79263219D01*
X148487300Y-79285919D01*
X148883035Y-79311632D01*
X149240140Y-79340197D01*
X149533900Y-79369382D01*
X150294302Y-79466284D01*
X151041376Y-79585764D01*
X151771315Y-79726709D01*
X152480311Y-79888006D01*
X153164555Y-80068544D01*
X153820241Y-80267210D01*
X154443560Y-80482892D01*
X155030705Y-80714478D01*
X155577868Y-80960855D01*
X156081241Y-81220912D01*
X156296972Y-81344786D01*
X156790704Y-81660155D01*
X157236001Y-81990671D01*
X157633014Y-82336643D01*
X157981895Y-82698382D01*
X158282793Y-83076198D01*
X158535860Y-83470401D01*
X158741245Y-83881300D01*
X158899101Y-84309208D01*
X159009578Y-84754432D01*
X159072826Y-85217285D01*
X159088997Y-85698075D01*
X159058240Y-86197113D01*
X158980707Y-86714710D01*
X158959224Y-86822300D01*
X158955504Y-86845509D01*
X158952016Y-86879320D01*
X158948751Y-86925425D01*
X158945698Y-86985515D01*
X158942845Y-87061281D01*
X158940181Y-87154415D01*
X158937697Y-87266608D01*
X158935381Y-87399551D01*
X158933222Y-87554935D01*
X158931209Y-87734453D01*
X158929333Y-87939794D01*
X158927581Y-88172651D01*
X158925943Y-88434715D01*
X158924409Y-88727677D01*
X158922968Y-89053228D01*
X158921608Y-89413060D01*
X158920319Y-89808864D01*
X158919091Y-90242331D01*
X158917912Y-90715154D01*
X158916771Y-91229022D01*
X158915659Y-91785627D01*
X158914563Y-92386661D01*
X158913474Y-93033815D01*
X158912380Y-93728780D01*
X158911531Y-94295360D01*
X158900801Y-101590620D01*
X159074696Y-101719930D01*
X159167810Y-101795825D01*
X159277213Y-101895086D01*
X159386354Y-102002315D01*
X159445846Y-102065185D01*
X159534534Y-102158905D01*
X159648980Y-102274897D01*
X159777273Y-102401349D01*
X159907502Y-102526450D01*
X159973300Y-102588228D01*
X160097306Y-102706141D01*
X160202041Y-102813199D01*
X160292906Y-102917281D01*
X160375302Y-103026264D01*
X160454631Y-103148026D01*
X160536293Y-103290445D01*
X160625690Y-103461399D01*
X160728222Y-103668765D01*
X160762084Y-103738700D01*
X161024810Y-104338020D01*
X161240325Y-104950383D01*
X161409778Y-105579732D01*
X161534317Y-106230010D01*
X161576281Y-106532700D01*
X161590403Y-106680308D01*
X161602243Y-106868767D01*
X161611660Y-107088171D01*
X161618512Y-107328615D01*
X161622658Y-107580194D01*
X161623955Y-107833004D01*
X161662400Y-107833004D01*
X161662400Y-105835008D01*
X161598643Y-105533037D01*
X161444540Y-104922516D01*
X161241353Y-104315959D01*
X160990791Y-103718077D01*
X160796991Y-103324176D01*
X160702487Y-103145526D01*
X160622644Y-103002476D01*
X160549897Y-102884949D01*
X160476682Y-102782864D01*
X160395433Y-102686144D01*
X160298586Y-102584708D01*
X160178576Y-102468478D01*
X160097714Y-102392500D01*
X159976248Y-102277287D01*
X159858478Y-102162463D01*
X159753204Y-102056833D01*
X159669225Y-101969206D01*
X159621400Y-101915744D01*
X159545841Y-101834266D01*
X159445780Y-101738074D01*
X159337612Y-101642584D01*
X159285056Y-101599479D01*
X159071600Y-101429769D01*
X159071976Y-94316534D01*
X159072044Y-93590756D01*
X159072176Y-92914096D01*
X159072380Y-92284872D01*
X159072663Y-91701404D01*
X159073035Y-91162009D01*
X159073503Y-90665005D01*
X159074076Y-90208711D01*
X159074763Y-89791446D01*
X159075570Y-89411527D01*
X159076508Y-89067273D01*
X159077584Y-88757002D01*
X159078806Y-88479033D01*
X159080183Y-88231684D01*
X159081724Y-88013273D01*
X159083435Y-87822118D01*
X159085327Y-87656538D01*
X159087406Y-87514852D01*
X159089682Y-87395377D01*
X159092162Y-87296432D01*
X159094855Y-87216335D01*
X159097770Y-87153405D01*
X159100914Y-87105959D01*
X159104297Y-87072317D01*
X159107901Y-87050900D01*
X159145695Y-86880351D01*
X159175567Y-86722776D01*
X159198378Y-86568601D01*
X159214986Y-86408251D01*
X159226250Y-86232153D01*
X159233031Y-86030733D01*
X159236186Y-85794417D01*
X159236700Y-85615800D01*
X159236353Y-85397304D01*
X159235006Y-85221561D01*
X159232204Y-85080525D01*
X159227491Y-84966151D01*
X159220409Y-84870394D01*
X159210503Y-84785209D01*
X159197317Y-84702551D01*
X159180395Y-84614376D01*
X159179722Y-84611055D01*
X159063566Y-84159150D01*
X158902161Y-83726322D01*
X158695170Y-83312189D01*
X158442254Y-82916371D01*
X158143074Y-82538485D01*
X157797292Y-82178152D01*
X157404570Y-81834991D01*
X156964569Y-81508619D01*
X156476952Y-81198656D01*
X155941378Y-80904721D01*
X155845800Y-80856450D01*
X155240222Y-80575776D01*
X154590727Y-80315900D01*
X153900100Y-80077630D01*
X153171126Y-79861770D01*
X152406588Y-79669127D01*
X151609270Y-79500507D01*
X150781957Y-79356715D01*
X150537200Y-79319830D01*
X150394921Y-79299009D01*
X150265550Y-79280089D01*
X150146175Y-79262985D01*
X150033882Y-79247611D01*
X149925758Y-79233882D01*
X149818889Y-79221711D01*
X149710362Y-79211014D01*
X149597263Y-79201705D01*
X149476679Y-79193699D01*
X149345696Y-79186909D01*
X149201401Y-79181250D01*
X149040880Y-79176637D01*
X148861221Y-79172984D01*
X148659509Y-79170206D01*
X148432831Y-79168216D01*
X148178274Y-79166930D01*
X147892923Y-79166262D01*
X147573867Y-79166126D01*
X147218190Y-79166436D01*
X147218190Y-79166436D01*
G37*
X147218190Y-79166436D02*
X146822980Y-79167108D01*
X146385324Y-79168055D01*
X145902307Y-79169192D01*
X145444500Y-79170266D01*
X141634500Y-79179015D01*
X141139200Y-79247967D01*
X140062314Y-79414803D01*
X139026999Y-79609768D01*
X138032373Y-79833096D01*
X137077553Y-80085018D01*
X136161656Y-80365769D01*
X135283798Y-80675580D01*
X134446300Y-81013307D01*
X134181416Y-81127444D01*
X133956134Y-81225395D01*
X133763286Y-81310804D01*
X133595708Y-81387317D01*
X133446233Y-81458581D01*
X133307693Y-81528241D01*
X133172923Y-81599944D01*
X133034756Y-81677336D01*
X132886026Y-81764062D01*
X132719567Y-81863768D01*
X132528211Y-81980101D01*
X132439700Y-82034180D01*
X131861527Y-82400853D01*
X131330020Y-82765854D01*
X130841281Y-83132402D01*
X130391414Y-83503716D01*
X129976520Y-83883016D01*
X129592703Y-84273521D01*
X129236063Y-84678450D01*
X129231081Y-84684433D01*
X129036247Y-84925766D01*
X128874640Y-85143198D01*
X128740844Y-85345803D01*
X128629444Y-85542657D01*
X128535027Y-85742835D01*
X128452175Y-85955411D01*
X128424095Y-86036848D01*
X128335877Y-86300484D01*
X128351071Y-91089500D01*
X128446354Y-91749900D01*
X128473602Y-91934627D01*
X128507544Y-92158142D01*
X128546405Y-92409143D01*
X128588412Y-92676329D01*
X128631792Y-92948396D01*
X128674770Y-93214044D01*
X128705447Y-93400900D01*
X128752123Y-93684976D01*
X128796060Y-93956741D01*
X128837586Y-94219097D01*
X128877026Y-94474942D01*
X128914709Y-94727177D01*
X128950961Y-94978700D01*
X128986108Y-95232413D01*
X129020477Y-95491215D01*
X129054396Y-95758005D01*
X129088191Y-96035684D01*
X129122189Y-96327152D01*
X129156716Y-96635307D01*
X129192100Y-96963051D01*
X129228668Y-97313283D01*
X129266746Y-97688903D01*
X129306661Y-98092810D01*
X129348740Y-98527905D01*
X129393309Y-98997087D01*
X129440697Y-99503256D01*
X129491228Y-100049312D01*
X129545231Y-100638155D01*
X129603032Y-101272685D01*
X129645855Y-101744800D01*
X129718353Y-102545973D01*
X129786436Y-103300167D01*
X129850405Y-104010980D01*
X129910563Y-104682012D01*
X129967211Y-105316865D01*
X130020650Y-105919137D01*
X130071183Y-106492428D01*
X130119112Y-107040340D01*
X130164737Y-107566471D01*
X130208361Y-108074422D01*
X130250284Y-108567794D01*
X130290810Y-109050185D01*
X130330240Y-109525196D01*
X130368875Y-109996428D01*
X130407017Y-110467479D01*
X130444968Y-110941951D01*
X130483029Y-111423443D01*
X130521503Y-111915555D01*
X130560691Y-112421888D01*
X130600894Y-112946041D01*
X130642414Y-113491615D01*
X130685553Y-114062209D01*
X130730613Y-114661424D01*
X130749986Y-114919851D01*
X130787063Y-115413371D01*
X130823615Y-115897012D01*
X130859424Y-116368014D01*
X130894273Y-116823615D01*
X130927942Y-117261054D01*
X130960215Y-117677569D01*
X130990873Y-118070399D01*
X131019699Y-118436782D01*
X131046473Y-118773957D01*
X131070979Y-119079162D01*
X131092998Y-119349637D01*
X131112312Y-119582619D01*
X131128703Y-119775347D01*
X131141954Y-119925059D01*
X131151846Y-120028995D01*
X131157031Y-120076051D01*
X131301552Y-121036617D01*
X131489143Y-121981630D01*
X131718768Y-122907047D01*
X131989390Y-123808823D01*
X132299972Y-124682916D01*
X132409357Y-124960400D01*
X132464537Y-125086247D01*
X132541360Y-125246156D01*
X132635511Y-125432319D01*
X132742677Y-125636929D01*
X132858541Y-125852179D01*
X132978789Y-126070263D01*
X133099106Y-126283373D01*
X133215177Y-126483703D01*
X133322687Y-126663445D01*
X133417321Y-126814792D01*
X133494765Y-126929938D01*
X133508067Y-126948283D01*
X133723679Y-127213984D01*
X133980142Y-127484783D01*
X134269017Y-127753479D01*
X134581865Y-128012873D01*
X134910248Y-128255764D01*
X135245728Y-128474954D01*
X135411500Y-128572288D01*
X135637294Y-128697224D01*
X135894452Y-128835188D01*
X136176507Y-128983001D01*
X136476995Y-129137487D01*
X136789448Y-129295469D01*
X137107399Y-129453770D01*
X137424384Y-129609213D01*
X137733935Y-129758621D01*
X138029587Y-129898817D01*
X138304872Y-130026623D01*
X138553325Y-130138863D01*
X138768480Y-130232360D01*
X138904000Y-130288230D01*
X139725276Y-130589395D01*
X140574833Y-130848687D01*
X141451889Y-131065901D01*
X142355662Y-131240827D01*
X142706845Y-131296303D01*
X143144190Y-131361200D01*
X148543300Y-131357296D01*
X148975100Y-131273463D01*
X149234504Y-131221595D01*
X149478694Y-131169257D01*
X149714445Y-131114513D01*
X149948535Y-131055428D01*
X150187739Y-130990064D01*
X150438835Y-130916488D01*
X150708597Y-130832761D01*
X151003803Y-130736949D01*
X151331229Y-130627116D01*
X151697651Y-130501325D01*
X151790462Y-130469132D01*
X152139818Y-130345784D01*
X152446184Y-130232708D01*
X152715554Y-130126718D01*
X152953924Y-130024627D01*
X153167287Y-129923249D01*
X153361640Y-129819399D01*
X153542976Y-129709889D01*
X153717290Y-129591535D01*
X153890577Y-129461148D01*
X154068831Y-129315544D01*
X154240873Y-129166727D01*
X154391327Y-129035705D01*
X154563850Y-128888406D01*
X154741316Y-128739280D01*
X154906595Y-128602778D01*
X154977473Y-128545258D01*
X155170854Y-128385758D01*
X155338908Y-128237608D01*
X155489401Y-128092244D01*
X155630096Y-127941102D01*
X155768758Y-127775620D01*
X155913151Y-127587233D01*
X156071039Y-127367378D01*
X156155110Y-127246400D01*
X156349559Y-126954089D01*
X156522361Y-126670827D01*
X156678400Y-126386646D01*
X156822561Y-126091578D01*
X156959728Y-125775655D01*
X157094786Y-125428910D01*
X157225544Y-125062000D01*
X157351649Y-124694439D01*
X157462378Y-124370190D01*
X157559240Y-124084655D01*
X157643746Y-123833233D01*
X157717404Y-123611326D01*
X157781724Y-123414333D01*
X157838216Y-123237657D01*
X157888390Y-123076698D01*
X157933756Y-122926855D01*
X157975822Y-122783531D01*
X157992576Y-122725200D01*
X158217704Y-121885132D01*
X158421385Y-121020089D01*
X158600801Y-120144269D01*
X158753134Y-119271870D01*
X158875565Y-118417092D01*
X158917667Y-118064300D01*
X158944833Y-117816713D01*
X158967937Y-117593269D01*
X158987298Y-117386962D01*
X159003238Y-117190786D01*
X159016079Y-116997735D01*
X159026141Y-116800804D01*
X159033747Y-116592985D01*
X159039218Y-116367274D01*
X159042874Y-116116664D01*
X159045038Y-115834149D01*
X159046031Y-115512724D01*
X159046200Y-115262149D01*
X159046201Y-113847360D01*
X159243051Y-113728649D01*
X159501694Y-113553306D01*
X159769682Y-113335214D01*
X160041421Y-113080179D01*
X160311317Y-112794004D01*
X160573776Y-112482495D01*
X160823205Y-112151457D01*
X160971466Y-111934990D01*
X161066623Y-111784499D01*
X161137972Y-111655180D01*
X161194347Y-111529280D01*
X161244585Y-111389048D01*
X161247214Y-111380974D01*
X161313701Y-111163976D01*
X161384035Y-110913491D01*
X161453933Y-110646180D01*
X161519110Y-110378701D01*
X161575283Y-110127713D01*
X161598024Y-110016798D01*
X161662400Y-109690896D01*
X161662400Y-107833004D01*
X161623955Y-107833004D01*
X161622263Y-108077139D01*
X161617440Y-108302695D01*
X161609344Y-108499766D01*
X161605351Y-108565555D01*
X161542081Y-109189409D01*
X161435164Y-109832918D01*
X161284263Y-110497907D01*
X161167911Y-110923697D01*
X161118466Y-111093315D01*
X161078564Y-111224733D01*
X161043430Y-111328490D01*
X161008285Y-111415125D01*
X160968353Y-111495178D01*
X160918858Y-111579189D01*
X160855021Y-111677697D01*
X160772067Y-111801241D01*
X160766253Y-111809864D01*
X160621290Y-112019792D01*
X160485348Y-112204320D01*
X160348036Y-112376122D01*
X160198965Y-112547871D01*
X160027745Y-112732242D01*
X159910696Y-112853543D01*
X159643907Y-113112753D01*
X159394261Y-113325574D01*
X159160555Y-113492991D01*
X159041843Y-113564149D01*
X158897786Y-113644248D01*
X158886742Y-115206574D01*
X158884202Y-115541616D01*
X158881553Y-115831127D01*
X158878631Y-116080377D01*
X158875271Y-116294635D01*
X158871309Y-116479172D01*
X158866580Y-116639255D01*
X158860918Y-116780155D01*
X158854158Y-116907141D01*
X158846137Y-117025482D01*
X158836689Y-117140448D01*
X158825649Y-117257309D01*
X158821217Y-117301218D01*
X158716882Y-118209022D01*
X158592982Y-119079870D01*
X158447670Y-119924415D01*
X158279099Y-120753309D01*
X158085423Y-121577207D01*
X158068276Y-121645247D01*
X158003690Y-121896967D01*
X157940970Y-122133828D01*
X157878038Y-122362637D01*
X157812815Y-122590204D01*
X157743221Y-122823335D01*
X157667178Y-123068839D01*
X157582606Y-123333523D01*
X157487426Y-123624196D01*
X157379559Y-123947665D01*
X157256926Y-124310739D01*
X157230378Y-124388900D01*
X157108593Y-124743856D01*
X156998607Y-125056048D01*
X156897687Y-125331387D01*
X156803101Y-125575785D01*
X156712115Y-125795154D01*
X156621997Y-125995407D01*
X156530014Y-126182456D01*
X156433433Y-126362212D01*
X156329523Y-126540589D01*
X156215549Y-126723497D01*
X156088779Y-126916850D01*
X156003488Y-127043200D01*
X155837366Y-127282803D01*
X155688359Y-127486569D01*
X155548762Y-127662984D01*
X155410872Y-127820538D01*
X155266987Y-127967718D01*
X155109402Y-128113010D01*
X154930415Y-128264904D01*
X154796306Y-128373300D01*
X154656007Y-128486697D01*
X154506954Y-128609913D01*
X154363003Y-128731319D01*
X154238005Y-128839288D01*
X154184509Y-128886790D01*
X154037077Y-129018957D01*
X153918481Y-129123454D01*
X153820226Y-129207062D01*
X153733817Y-129276565D01*
X153650761Y-129338746D01*
X153562563Y-129400388D01*
X153460726Y-129468273D01*
X153435871Y-129484574D01*
X153295728Y-129573548D01*
X153156375Y-129655631D01*
X153011983Y-129733370D01*
X152856721Y-129809314D01*
X152684759Y-129886010D01*
X152490267Y-129966004D01*
X152267414Y-130051846D01*
X152010371Y-130146081D01*
X151713306Y-130251258D01*
X151556168Y-130305900D01*
X151176444Y-130436071D01*
X150837578Y-130549372D01*
X150533217Y-130647697D01*
X150257011Y-130732941D01*
X150002610Y-130807000D01*
X149763664Y-130871769D01*
X149533822Y-130929143D01*
X149306734Y-130981018D01*
X149260549Y-130991015D01*
X148811558Y-131082692D01*
X148392241Y-131157812D01*
X147990493Y-131217651D01*
X147594209Y-131263490D01*
X147191285Y-131296605D01*
X146769615Y-131318275D01*
X146317096Y-131329779D01*
X146028700Y-131332322D01*
X145769212Y-131331535D01*
X145499866Y-131327631D01*
X145234804Y-131320988D01*
X144988169Y-131311980D01*
X144774104Y-131300986D01*
X144720600Y-131297512D01*
X143922356Y-131231278D01*
X143165299Y-131144608D01*
X142443587Y-131036261D01*
X141751375Y-130905000D01*
X141082818Y-130749583D01*
X140432073Y-130568773D01*
X139793294Y-130361329D01*
X139160637Y-130126013D01*
X139119900Y-130109847D01*
X138865620Y-130004450D01*
X138572369Y-129875586D01*
X138244938Y-129725589D01*
X137888116Y-129556792D01*
X137506692Y-129371532D01*
X137105455Y-129172141D01*
X136689196Y-128960956D01*
X136262704Y-128740309D01*
X135830768Y-128512535D01*
X135705354Y-128445579D01*
X135406427Y-128271923D01*
X135101961Y-128069740D01*
X134800030Y-127845855D01*
X134508709Y-127607093D01*
X134236072Y-127360280D01*
X133990195Y-127112240D01*
X133779153Y-126869800D01*
X133668158Y-126723630D01*
X133619511Y-126650419D01*
X133550812Y-126540146D01*
X133466485Y-126400266D01*
X133370954Y-126238233D01*
X133268642Y-126061499D01*
X133163971Y-125877521D01*
X133126761Y-125811300D01*
X132985524Y-125555649D01*
X132862752Y-125324695D01*
X132754370Y-125109039D01*
X132656304Y-124899282D01*
X132564479Y-124686024D01*
X132474820Y-124459867D01*
X132383252Y-124211411D01*
X132285701Y-123931257D01*
X132196301Y-123665000D01*
X131906530Y-122712212D01*
X131666967Y-121751994D01*
X131477488Y-120783779D01*
X131337965Y-119807003D01*
X131336032Y-119790382D01*
X131328646Y-119717642D01*
X131317735Y-119597049D01*
X131303517Y-119431411D01*
X131286214Y-119223537D01*
X131266046Y-118976234D01*
X131243233Y-118692311D01*
X131217995Y-118374576D01*
X131190553Y-118025838D01*
X131161127Y-117648904D01*
X131129938Y-117246584D01*
X131097205Y-116821686D01*
X131063150Y-116377017D01*
X131027991Y-115915386D01*
X130991951Y-115439602D01*
X130955248Y-114952473D01*
X130928604Y-114597200D01*
X130878390Y-113928233D01*
X130830204Y-113290471D01*
X130783694Y-112679711D01*
X130738511Y-112091750D01*
X130694303Y-111522387D01*
X130650720Y-110967420D01*
X130607411Y-110422647D01*
X130564026Y-109883866D01*
X130520214Y-109346876D01*
X130475624Y-108807473D01*
X130429906Y-108261457D01*
X130382708Y-107704624D01*
X130333682Y-107132774D01*
X130282475Y-106541705D01*
X130228737Y-105927213D01*
X130172117Y-105285098D01*
X130112266Y-104611158D01*
X130048832Y-103901190D01*
X129981464Y-103150992D01*
X129909812Y-102356364D01*
X129875194Y-101973400D01*
X129840661Y-101590674D01*
X129807474Y-101220997D01*
X129775918Y-100867640D01*
X129746279Y-100533876D01*
X129718841Y-100222980D01*
X129693889Y-99938222D01*
X129671709Y-99682877D01*
X129652586Y-99460217D01*
X129636803Y-99273514D01*
X129624648Y-99126043D01*
X129616403Y-99021075D01*
X129612355Y-98961883D01*
X129611984Y-98950800D01*
X129609479Y-98890472D01*
X129601044Y-98793674D01*
X129588035Y-98674208D01*
X129573319Y-98557100D01*
X129560091Y-98451592D01*
X129543047Y-98305294D01*
X129523259Y-98127979D01*
X129501796Y-97929421D01*
X129479728Y-97719394D01*
X129458127Y-97507673D01*
X129455116Y-97477600D01*
X129377687Y-96733398D01*
X129297899Y-96029759D01*
X129214409Y-95356455D01*
X129125873Y-94703258D01*
X129030950Y-94059940D01*
X128928294Y-93416274D01*
X128897987Y-93234621D01*
X128769855Y-92440887D01*
X128659344Y-91686445D01*
X128566491Y-90972021D01*
X128491332Y-90298342D01*
X128433902Y-89666134D01*
X128394240Y-89076122D01*
X128372381Y-88529033D01*
X128368361Y-88025593D01*
X128382217Y-87566529D01*
X128413985Y-87152566D01*
X128463702Y-86784430D01*
X128531404Y-86462848D01*
X128554580Y-86377800D01*
X128633272Y-86133570D01*
X128726571Y-85900686D01*
X128838274Y-85673117D01*
X128972177Y-85444830D01*
X129132076Y-85209791D01*
X129321768Y-84961970D01*
X129545049Y-84695333D01*
X129777484Y-84434700D01*
X130147344Y-84055144D01*
X130562561Y-83675561D01*
X131017820Y-83299584D01*
X131507809Y-82930846D01*
X132027215Y-82572979D01*
X132570727Y-82229615D01*
X133133030Y-81904388D01*
X133708813Y-81600929D01*
X134292763Y-81322872D01*
X134395500Y-81277049D01*
X135262789Y-80918007D01*
X136166167Y-80589982D01*
X137100680Y-80294059D01*
X138061371Y-80031324D01*
X139043285Y-79802863D01*
X140041467Y-79609760D01*
X141050959Y-79453103D01*
X142066808Y-79333976D01*
X143084056Y-79253465D01*
X143780800Y-79221106D01*
X144218958Y-79209435D01*
X144681010Y-79202227D01*
X145160702Y-79199322D01*
X145651783Y-79200558D01*
X146148001Y-79205775D01*
X146643103Y-79214810D01*
X147130836Y-79227503D01*
X147604948Y-79243693D01*
X148059187Y-79263219D01*
X148487300Y-79285919D01*
X148883035Y-79311632D01*
X149240140Y-79340197D01*
X149533900Y-79369382D01*
X150294302Y-79466284D01*
X151041376Y-79585764D01*
X151771315Y-79726709D01*
X152480311Y-79888006D01*
X153164555Y-80068544D01*
X153820241Y-80267210D01*
X154443560Y-80482892D01*
X155030705Y-80714478D01*
X155577868Y-80960855D01*
X156081241Y-81220912D01*
X156296972Y-81344786D01*
X156790704Y-81660155D01*
X157236001Y-81990671D01*
X157633014Y-82336643D01*
X157981895Y-82698382D01*
X158282793Y-83076198D01*
X158535860Y-83470401D01*
X158741245Y-83881300D01*
X158899101Y-84309208D01*
X159009578Y-84754432D01*
X159072826Y-85217285D01*
X159088997Y-85698075D01*
X159058240Y-86197113D01*
X158980707Y-86714710D01*
X158959224Y-86822300D01*
X158955504Y-86845509D01*
X158952016Y-86879320D01*
X158948751Y-86925425D01*
X158945698Y-86985515D01*
X158942845Y-87061281D01*
X158940181Y-87154415D01*
X158937697Y-87266608D01*
X158935381Y-87399551D01*
X158933222Y-87554935D01*
X158931209Y-87734453D01*
X158929333Y-87939794D01*
X158927581Y-88172651D01*
X158925943Y-88434715D01*
X158924409Y-88727677D01*
X158922968Y-89053228D01*
X158921608Y-89413060D01*
X158920319Y-89808864D01*
X158919091Y-90242331D01*
X158917912Y-90715154D01*
X158916771Y-91229022D01*
X158915659Y-91785627D01*
X158914563Y-92386661D01*
X158913474Y-93033815D01*
X158912380Y-93728780D01*
X158911531Y-94295360D01*
X158900801Y-101590620D01*
X159074696Y-101719930D01*
X159167810Y-101795825D01*
X159277213Y-101895086D01*
X159386354Y-102002315D01*
X159445846Y-102065185D01*
X159534534Y-102158905D01*
X159648980Y-102274897D01*
X159777273Y-102401349D01*
X159907502Y-102526450D01*
X159973300Y-102588228D01*
X160097306Y-102706141D01*
X160202041Y-102813199D01*
X160292906Y-102917281D01*
X160375302Y-103026264D01*
X160454631Y-103148026D01*
X160536293Y-103290445D01*
X160625690Y-103461399D01*
X160728222Y-103668765D01*
X160762084Y-103738700D01*
X161024810Y-104338020D01*
X161240325Y-104950383D01*
X161409778Y-105579732D01*
X161534317Y-106230010D01*
X161576281Y-106532700D01*
X161590403Y-106680308D01*
X161602243Y-106868767D01*
X161611660Y-107088171D01*
X161618512Y-107328615D01*
X161622658Y-107580194D01*
X161623955Y-107833004D01*
X161662400Y-107833004D01*
X161662400Y-105835008D01*
X161598643Y-105533037D01*
X161444540Y-104922516D01*
X161241353Y-104315959D01*
X160990791Y-103718077D01*
X160796991Y-103324176D01*
X160702487Y-103145526D01*
X160622644Y-103002476D01*
X160549897Y-102884949D01*
X160476682Y-102782864D01*
X160395433Y-102686144D01*
X160298586Y-102584708D01*
X160178576Y-102468478D01*
X160097714Y-102392500D01*
X159976248Y-102277287D01*
X159858478Y-102162463D01*
X159753204Y-102056833D01*
X159669225Y-101969206D01*
X159621400Y-101915744D01*
X159545841Y-101834266D01*
X159445780Y-101738074D01*
X159337612Y-101642584D01*
X159285056Y-101599479D01*
X159071600Y-101429769D01*
X159071976Y-94316534D01*
X159072044Y-93590756D01*
X159072176Y-92914096D01*
X159072380Y-92284872D01*
X159072663Y-91701404D01*
X159073035Y-91162009D01*
X159073503Y-90665005D01*
X159074076Y-90208711D01*
X159074763Y-89791446D01*
X159075570Y-89411527D01*
X159076508Y-89067273D01*
X159077584Y-88757002D01*
X159078806Y-88479033D01*
X159080183Y-88231684D01*
X159081724Y-88013273D01*
X159083435Y-87822118D01*
X159085327Y-87656538D01*
X159087406Y-87514852D01*
X159089682Y-87395377D01*
X159092162Y-87296432D01*
X159094855Y-87216335D01*
X159097770Y-87153405D01*
X159100914Y-87105959D01*
X159104297Y-87072317D01*
X159107901Y-87050900D01*
X159145695Y-86880351D01*
X159175567Y-86722776D01*
X159198378Y-86568601D01*
X159214986Y-86408251D01*
X159226250Y-86232153D01*
X159233031Y-86030733D01*
X159236186Y-85794417D01*
X159236700Y-85615800D01*
X159236353Y-85397304D01*
X159235006Y-85221561D01*
X159232204Y-85080525D01*
X159227491Y-84966151D01*
X159220409Y-84870394D01*
X159210503Y-84785209D01*
X159197317Y-84702551D01*
X159180395Y-84614376D01*
X159179722Y-84611055D01*
X159063566Y-84159150D01*
X158902161Y-83726322D01*
X158695170Y-83312189D01*
X158442254Y-82916371D01*
X158143074Y-82538485D01*
X157797292Y-82178152D01*
X157404570Y-81834991D01*
X156964569Y-81508619D01*
X156476952Y-81198656D01*
X155941378Y-80904721D01*
X155845800Y-80856450D01*
X155240222Y-80575776D01*
X154590727Y-80315900D01*
X153900100Y-80077630D01*
X153171126Y-79861770D01*
X152406588Y-79669127D01*
X151609270Y-79500507D01*
X150781957Y-79356715D01*
X150537200Y-79319830D01*
X150394921Y-79299009D01*
X150265550Y-79280089D01*
X150146175Y-79262985D01*
X150033882Y-79247611D01*
X149925758Y-79233882D01*
X149818889Y-79221711D01*
X149710362Y-79211014D01*
X149597263Y-79201705D01*
X149476679Y-79193699D01*
X149345696Y-79186909D01*
X149201401Y-79181250D01*
X149040880Y-79176637D01*
X148861221Y-79172984D01*
X148659509Y-79170206D01*
X148432831Y-79168216D01*
X148178274Y-79166930D01*
X147892923Y-79166262D01*
X147573867Y-79166126D01*
X147218190Y-79166436D01*
M02*
