M48
; DRILL file {KiCad (5.1.4)-1} date 24.03.2020 18:06:05
; FORMAT={-:-/ absolute / metric / decimal}
; #@! TF.CreationDate,2020-03-24T18:06:05+09:00
; #@! TF.GenerationSoftware,Kicad,Pcbnew,(5.1.4)-1
; #@! TF.FileFunction,Plated,1,2,PTH
FMAT,2
METRIC
T1C0.200
T2C0.305
T3C0.400
T4C0.600
T5C0.750
T6C1.000
%
G90
G05
T1
X133.75Y-136.075
X134.7Y-135.5
X113.8Y-135.5
X114.75Y-134.925
X114.75Y-136.075
X115.7Y-135.5
X132.8Y-120.5
X133.75Y-119.925
X133.75Y-121.075
X134.7Y-120.5
X113.8Y-120.0
X114.75Y-119.425
X114.75Y-120.575
X115.7Y-120.0
X132.8Y-135.5
X133.75Y-134.925
T2
X106.75Y-93.75
X107.75Y-83.0
X107.75Y-88.25
X108.0Y-126.75
X108.25Y-78.0
X111.0Y-89.5
X111.5Y-105.0
X111.75Y-96.5
X113.25Y-101.93
X113.5Y-98.0
X114.5Y-82.0
X115.5Y-108.25
X116.0Y-86.25
X116.5Y-101.0
X116.5Y-114.0
X117.08Y-97.75
X118.25Y-75.0
X119.25Y-126.75
X119.5Y-90.75
X120.0Y-104.5
X121.0Y-108.75
X121.25Y-92.5
X121.25Y-140.5
X123.0Y-101.28
X124.5Y-74.25
X125.0Y-95.0
X125.5Y-101.25
X125.573Y-94.427
X126.25Y-140.5
X128.75Y-102.75
X129.75Y-74.25
X129.75Y-79.25
X129.75Y-138.5
X130.0Y-102.75
X132.0Y-106.0
X132.5Y-105.25
X133.75Y-71.5
X133.75Y-140.0
X139.25Y-140.0
X142.25Y-99.0
X142.5Y-105.75
X143.341Y-99.091
X144.155Y-105.006
X144.5Y-99.25
X145.25Y-140.0
X146.75Y-104.0
X149.12Y-86.5
X149.5Y-114.75
X149.5Y-123.5
X150.25Y-87.5
X150.75Y-89.0
X151.25Y-100.5
X151.25Y-101.5
X151.5Y-103.655
X151.75Y-86.5
X153.0Y-133.0
X153.75Y-109.0
X153.75Y-114.75
X153.75Y-123.5
X154.0Y-105.095
X158.25Y-76.25
X159.5Y-134.0
X159.75Y-109.0
X165.5Y-106.75
X165.75Y-134.0
X166.0Y-90.25
X166.25Y-76.25
X166.25Y-84.0
X167.25Y-90.25
X167.75Y-97.0
X168.405Y-107.0
X168.405Y-108.25
X168.75Y-90.25
X169.5Y-100.25
X169.588Y-95.088
X170.248Y-95.753
X170.25Y-90.25
X170.25Y-106.0
X172.25Y-99.0
X172.25Y-109.0
X179.25Y-96.75
X179.25Y-106.75
T3
X121.0Y-95.5
X121.0Y-97.75
X123.25Y-102.5
X125.75Y-104.5
X126.5Y-90.0
X131.25Y-102.5
X136.75Y-82.0
X139.75Y-82.0
X139.75Y-99.0
X140.75Y-84.0
X142.75Y-92.5
X142.75Y-102.0
X145.75Y-87.0
X145.75Y-105.0
X149.75Y-93.0
X151.25Y-81.0
X151.25Y-82.0
X170.25Y-98.0
X170.25Y-108.0
X170.5Y-105.0
X170.75Y-95.0
X173.75Y-102.5
X173.75Y-115.0
T4
X108.75Y-106.5
X108.75Y-111.5
X110.75Y-93.5
X115.75Y-73.5
X118.0Y-70.5
X119.25Y-111.5
X120.25Y-82.5
X121.25Y-106.5
X123.5Y-80.5
X124.75Y-126.5
X124.75Y-131.5
X127.75Y-125.25
X130.25Y-95.5
X142.75Y-87.5
X158.75Y-91.0
X165.5Y-116.5
X168.5Y-119.5
T5
X170.903Y-83.5
X172.173Y-82.23
X173.443Y-83.5
X178.25Y-76.0
X179.52Y-74.73
X180.79Y-76.0
X178.25Y-83.5
X179.52Y-82.23
X180.79Y-83.5
X170.903Y-76.0
X172.173Y-74.73
X173.443Y-76.0
T6
X183.5Y-130.786
X186.04Y-130.786
X157.25Y-129.0
X159.79Y-129.0
X183.5Y-97.0
X186.04Y-97.0
X183.5Y-117.714
X186.04Y-117.714
X169.01Y-139.55
X171.55Y-139.55
X183.5Y-107.0
X186.04Y-107.0
X183.5Y-126.429
X186.04Y-126.429
X130.0Y-65.0
X130.0Y-67.54
X132.54Y-65.0
X132.54Y-67.54
X135.08Y-65.0
X135.08Y-67.54
X137.62Y-65.0
X137.62Y-67.54
X140.16Y-65.0
X140.16Y-67.54
X142.7Y-65.0
X142.7Y-67.54
X145.24Y-65.0
X145.24Y-67.54
X147.78Y-65.0
X147.78Y-67.54
X150.32Y-65.0
X150.32Y-67.54
X152.86Y-65.0
X152.86Y-67.54
X155.4Y-65.0
X155.4Y-67.54
X157.94Y-65.0
X157.94Y-67.54
X160.48Y-65.0
X160.48Y-67.54
X163.02Y-65.0
X163.02Y-67.54
X165.56Y-65.0
X165.56Y-67.54
X168.1Y-65.0
X168.1Y-67.54
X170.64Y-65.0
X170.64Y-67.54
X173.18Y-65.0
X173.18Y-67.54
X175.72Y-65.0
X175.72Y-67.54
X178.26Y-65.0
X178.26Y-67.54
X148.25Y-129.0
X150.79Y-129.0
X150.42Y-137.0
X150.42Y-139.54
X152.96Y-137.0
X152.96Y-139.54
X155.5Y-137.0
X155.5Y-139.54
X176.11Y-139.55
X178.65Y-139.55
X159.42Y-139.55
X161.96Y-139.55
X164.5Y-139.55
X183.5Y-122.071
X186.04Y-122.071
X111.0Y-65.0
X111.0Y-67.54
X113.54Y-65.0
X113.54Y-67.54
X116.08Y-65.0
X116.08Y-67.54
X118.62Y-65.0
X118.62Y-67.54
X121.16Y-65.0
X121.16Y-67.54
X123.7Y-65.0
X123.7Y-67.54
T0
M30
