G04 #@! TF.GenerationSoftware,KiCad,Pcbnew,(5.1.4)-1*
G04 #@! TF.CreationDate,2020-03-24T18:05:48+09:00*
G04 #@! TF.ProjectId,cubesat-power,63756265-7361-4742-9d70-6f7765722e6b,1*
G04 #@! TF.SameCoordinates,Original*
G04 #@! TF.FileFunction,Legend,Top*
G04 #@! TF.FilePolarity,Positive*
%FSLAX46Y46*%
G04 Gerber Fmt 4.6, Leading zero omitted, Abs format (unit mm)*
G04 Created by KiCad (PCBNEW (5.1.4)-1) date 2020-03-24 18:05:48*
%MOMM*%
%LPD*%
G04 APERTURE LIST*
%ADD10C,0.150000*%
%ADD11C,0.120000*%
G04 APERTURE END LIST*
D10*
X194817619Y-144821428D02*
X194817619Y-145440476D01*
X194436666Y-145107142D01*
X194436666Y-145250000D01*
X194389047Y-145345238D01*
X194341428Y-145392857D01*
X194246190Y-145440476D01*
X194008095Y-145440476D01*
X193912857Y-145392857D01*
X193865238Y-145345238D01*
X193817619Y-145250000D01*
X193817619Y-144964285D01*
X193865238Y-144869047D01*
X193912857Y-144821428D01*
X193912857Y-145869047D02*
X193865238Y-145916666D01*
X193817619Y-145869047D01*
X193865238Y-145821428D01*
X193912857Y-145869047D01*
X193817619Y-145869047D01*
X194817619Y-146821428D02*
X194817619Y-146345238D01*
X194341428Y-146297619D01*
X194389047Y-146345238D01*
X194436666Y-146440476D01*
X194436666Y-146678571D01*
X194389047Y-146773809D01*
X194341428Y-146821428D01*
X194246190Y-146869047D01*
X194008095Y-146869047D01*
X193912857Y-146821428D01*
X193865238Y-146773809D01*
X193817619Y-146678571D01*
X193817619Y-146440476D01*
X193865238Y-146345238D01*
X193912857Y-146297619D01*
X194817619Y-147488095D02*
X194817619Y-147583333D01*
X194770000Y-147678571D01*
X194722380Y-147726190D01*
X194627142Y-147773809D01*
X194436666Y-147821428D01*
X194198571Y-147821428D01*
X194008095Y-147773809D01*
X193912857Y-147726190D01*
X193865238Y-147678571D01*
X193817619Y-147583333D01*
X193817619Y-147488095D01*
X193865238Y-147392857D01*
X193912857Y-147345238D01*
X194008095Y-147297619D01*
X194198571Y-147250000D01*
X194436666Y-147250000D01*
X194627142Y-147297619D01*
X194722380Y-147345238D01*
X194770000Y-147392857D01*
X194817619Y-147488095D01*
X194817619Y-148440476D02*
X194817619Y-148535714D01*
X194770000Y-148630952D01*
X194722380Y-148678571D01*
X194627142Y-148726190D01*
X194436666Y-148773809D01*
X194198571Y-148773809D01*
X194008095Y-148726190D01*
X193912857Y-148678571D01*
X193865238Y-148630952D01*
X193817619Y-148535714D01*
X193817619Y-148440476D01*
X193865238Y-148345238D01*
X193912857Y-148297619D01*
X194008095Y-148250000D01*
X194198571Y-148202380D01*
X194436666Y-148202380D01*
X194627142Y-148250000D01*
X194722380Y-148297619D01*
X194770000Y-148345238D01*
X194817619Y-148440476D01*
X193817619Y-149964285D02*
X194484285Y-149964285D01*
X193960476Y-150250000D01*
X194484285Y-150535714D01*
X193817619Y-150535714D01*
X193817619Y-151011904D02*
X194484285Y-151011904D01*
X193960476Y-151297619D01*
X194484285Y-151583333D01*
X193817619Y-151583333D01*
D11*
X193000000Y-146500000D02*
X193000000Y-150000000D01*
X186250000Y-146500000D02*
X193586421Y-146500000D01*
X186250000Y-150000000D02*
X193586421Y-150000000D01*
X193000000Y-150000000D02*
X192413579Y-148873496D01*
X193000000Y-150000000D02*
X193586421Y-148873496D01*
X193000000Y-146500000D02*
X192413579Y-147626504D01*
X193000000Y-146500000D02*
X193586421Y-147626504D01*
D10*
X184571428Y-154222380D02*
X185190476Y-154222380D01*
X184857142Y-154603333D01*
X185000000Y-154603333D01*
X185095238Y-154650952D01*
X185142857Y-154698571D01*
X185190476Y-154793809D01*
X185190476Y-155031904D01*
X185142857Y-155127142D01*
X185095238Y-155174761D01*
X185000000Y-155222380D01*
X184714285Y-155222380D01*
X184619047Y-155174761D01*
X184571428Y-155127142D01*
X185619047Y-155127142D02*
X185666666Y-155174761D01*
X185619047Y-155222380D01*
X185571428Y-155174761D01*
X185619047Y-155127142D01*
X185619047Y-155222380D01*
X186571428Y-154222380D02*
X186095238Y-154222380D01*
X186047619Y-154698571D01*
X186095238Y-154650952D01*
X186190476Y-154603333D01*
X186428571Y-154603333D01*
X186523809Y-154650952D01*
X186571428Y-154698571D01*
X186619047Y-154793809D01*
X186619047Y-155031904D01*
X186571428Y-155127142D01*
X186523809Y-155174761D01*
X186428571Y-155222380D01*
X186190476Y-155222380D01*
X186095238Y-155174761D01*
X186047619Y-155127142D01*
X187238095Y-154222380D02*
X187333333Y-154222380D01*
X187428571Y-154270000D01*
X187476190Y-154317619D01*
X187523809Y-154412857D01*
X187571428Y-154603333D01*
X187571428Y-154841428D01*
X187523809Y-155031904D01*
X187476190Y-155127142D01*
X187428571Y-155174761D01*
X187333333Y-155222380D01*
X187238095Y-155222380D01*
X187142857Y-155174761D01*
X187095238Y-155127142D01*
X187047619Y-155031904D01*
X187000000Y-154841428D01*
X187000000Y-154603333D01*
X187047619Y-154412857D01*
X187095238Y-154317619D01*
X187142857Y-154270000D01*
X187238095Y-154222380D01*
X188190476Y-154222380D02*
X188285714Y-154222380D01*
X188380952Y-154270000D01*
X188428571Y-154317619D01*
X188476190Y-154412857D01*
X188523809Y-154603333D01*
X188523809Y-154841428D01*
X188476190Y-155031904D01*
X188428571Y-155127142D01*
X188380952Y-155174761D01*
X188285714Y-155222380D01*
X188190476Y-155222380D01*
X188095238Y-155174761D01*
X188047619Y-155127142D01*
X188000000Y-155031904D01*
X187952380Y-154841428D01*
X187952380Y-154603333D01*
X188000000Y-154412857D01*
X188047619Y-154317619D01*
X188095238Y-154270000D01*
X188190476Y-154222380D01*
X189714285Y-155222380D02*
X189714285Y-154555714D01*
X190000000Y-155079523D01*
X190285714Y-154555714D01*
X190285714Y-155222380D01*
X190761904Y-155222380D02*
X190761904Y-154555714D01*
X191047619Y-155079523D01*
X191333333Y-154555714D01*
X191333333Y-155222380D01*
D11*
X186250000Y-153500000D02*
X189750000Y-153500000D01*
X186250000Y-146500000D02*
X186250000Y-154086421D01*
X189750000Y-146500000D02*
X189750000Y-154086421D01*
X189750000Y-153500000D02*
X188623496Y-154086421D01*
X189750000Y-153500000D02*
X188623496Y-152913579D01*
X186250000Y-153500000D02*
X187376504Y-154086421D01*
X186250000Y-153500000D02*
X187376504Y-152913579D01*
D10*
X98071428Y-153972380D02*
X98690476Y-153972380D01*
X98357142Y-154353333D01*
X98500000Y-154353333D01*
X98595238Y-154400952D01*
X98642857Y-154448571D01*
X98690476Y-154543809D01*
X98690476Y-154781904D01*
X98642857Y-154877142D01*
X98595238Y-154924761D01*
X98500000Y-154972380D01*
X98214285Y-154972380D01*
X98119047Y-154924761D01*
X98071428Y-154877142D01*
X99119047Y-154877142D02*
X99166666Y-154924761D01*
X99119047Y-154972380D01*
X99071428Y-154924761D01*
X99119047Y-154877142D01*
X99119047Y-154972380D01*
X100071428Y-153972380D02*
X99595238Y-153972380D01*
X99547619Y-154448571D01*
X99595238Y-154400952D01*
X99690476Y-154353333D01*
X99928571Y-154353333D01*
X100023809Y-154400952D01*
X100071428Y-154448571D01*
X100119047Y-154543809D01*
X100119047Y-154781904D01*
X100071428Y-154877142D01*
X100023809Y-154924761D01*
X99928571Y-154972380D01*
X99690476Y-154972380D01*
X99595238Y-154924761D01*
X99547619Y-154877142D01*
X100738095Y-153972380D02*
X100833333Y-153972380D01*
X100928571Y-154020000D01*
X100976190Y-154067619D01*
X101023809Y-154162857D01*
X101071428Y-154353333D01*
X101071428Y-154591428D01*
X101023809Y-154781904D01*
X100976190Y-154877142D01*
X100928571Y-154924761D01*
X100833333Y-154972380D01*
X100738095Y-154972380D01*
X100642857Y-154924761D01*
X100595238Y-154877142D01*
X100547619Y-154781904D01*
X100500000Y-154591428D01*
X100500000Y-154353333D01*
X100547619Y-154162857D01*
X100595238Y-154067619D01*
X100642857Y-154020000D01*
X100738095Y-153972380D01*
X101690476Y-153972380D02*
X101785714Y-153972380D01*
X101880952Y-154020000D01*
X101928571Y-154067619D01*
X101976190Y-154162857D01*
X102023809Y-154353333D01*
X102023809Y-154591428D01*
X101976190Y-154781904D01*
X101928571Y-154877142D01*
X101880952Y-154924761D01*
X101785714Y-154972380D01*
X101690476Y-154972380D01*
X101595238Y-154924761D01*
X101547619Y-154877142D01*
X101500000Y-154781904D01*
X101452380Y-154591428D01*
X101452380Y-154353333D01*
X101500000Y-154162857D01*
X101547619Y-154067619D01*
X101595238Y-154020000D01*
X101690476Y-153972380D01*
X103214285Y-154972380D02*
X103214285Y-154305714D01*
X103500000Y-154829523D01*
X103785714Y-154305714D01*
X103785714Y-154972380D01*
X104261904Y-154972380D02*
X104261904Y-154305714D01*
X104547619Y-154829523D01*
X104833333Y-154305714D01*
X104833333Y-154972380D01*
D11*
X103250000Y-153250000D02*
X99750000Y-153250000D01*
X103250000Y-146500000D02*
X103250000Y-153836421D01*
X99750000Y-146500000D02*
X99750000Y-153836421D01*
X99750000Y-153250000D02*
X100876504Y-152663579D01*
X99750000Y-153250000D02*
X100876504Y-153836421D01*
X103250000Y-153250000D02*
X102123496Y-152663579D01*
X103250000Y-153250000D02*
X102123496Y-153836421D01*
D10*
X98071428Y-54682380D02*
X98690476Y-54682380D01*
X98357142Y-55063333D01*
X98500000Y-55063333D01*
X98595238Y-55110952D01*
X98642857Y-55158571D01*
X98690476Y-55253809D01*
X98690476Y-55491904D01*
X98642857Y-55587142D01*
X98595238Y-55634761D01*
X98500000Y-55682380D01*
X98214285Y-55682380D01*
X98119047Y-55634761D01*
X98071428Y-55587142D01*
X99119047Y-55587142D02*
X99166666Y-55634761D01*
X99119047Y-55682380D01*
X99071428Y-55634761D01*
X99119047Y-55587142D01*
X99119047Y-55682380D01*
X100071428Y-54682380D02*
X99595238Y-54682380D01*
X99547619Y-55158571D01*
X99595238Y-55110952D01*
X99690476Y-55063333D01*
X99928571Y-55063333D01*
X100023809Y-55110952D01*
X100071428Y-55158571D01*
X100119047Y-55253809D01*
X100119047Y-55491904D01*
X100071428Y-55587142D01*
X100023809Y-55634761D01*
X99928571Y-55682380D01*
X99690476Y-55682380D01*
X99595238Y-55634761D01*
X99547619Y-55587142D01*
X100738095Y-54682380D02*
X100833333Y-54682380D01*
X100928571Y-54730000D01*
X100976190Y-54777619D01*
X101023809Y-54872857D01*
X101071428Y-55063333D01*
X101071428Y-55301428D01*
X101023809Y-55491904D01*
X100976190Y-55587142D01*
X100928571Y-55634761D01*
X100833333Y-55682380D01*
X100738095Y-55682380D01*
X100642857Y-55634761D01*
X100595238Y-55587142D01*
X100547619Y-55491904D01*
X100500000Y-55301428D01*
X100500000Y-55063333D01*
X100547619Y-54872857D01*
X100595238Y-54777619D01*
X100642857Y-54730000D01*
X100738095Y-54682380D01*
X101690476Y-54682380D02*
X101785714Y-54682380D01*
X101880952Y-54730000D01*
X101928571Y-54777619D01*
X101976190Y-54872857D01*
X102023809Y-55063333D01*
X102023809Y-55301428D01*
X101976190Y-55491904D01*
X101928571Y-55587142D01*
X101880952Y-55634761D01*
X101785714Y-55682380D01*
X101690476Y-55682380D01*
X101595238Y-55634761D01*
X101547619Y-55587142D01*
X101500000Y-55491904D01*
X101452380Y-55301428D01*
X101452380Y-55063333D01*
X101500000Y-54872857D01*
X101547619Y-54777619D01*
X101595238Y-54730000D01*
X101690476Y-54682380D01*
X103214285Y-55682380D02*
X103214285Y-55015714D01*
X103500000Y-55539523D01*
X103785714Y-55015714D01*
X103785714Y-55682380D01*
X104261904Y-55682380D02*
X104261904Y-55015714D01*
X104547619Y-55539523D01*
X104833333Y-55015714D01*
X104833333Y-55682380D01*
D11*
X103250000Y-56500000D02*
X99750000Y-56500000D01*
X103250000Y-63500000D02*
X103250000Y-55913579D01*
X99750000Y-63500000D02*
X99750000Y-55913579D01*
X99750000Y-56500000D02*
X100876504Y-55913579D01*
X99750000Y-56500000D02*
X100876504Y-57086421D01*
X103250000Y-56500000D02*
X102123496Y-55913579D01*
X103250000Y-56500000D02*
X102123496Y-57086421D01*
D10*
X94432380Y-65178571D02*
X94432380Y-64559523D01*
X94813333Y-64892857D01*
X94813333Y-64750000D01*
X94860952Y-64654761D01*
X94908571Y-64607142D01*
X95003809Y-64559523D01*
X95241904Y-64559523D01*
X95337142Y-64607142D01*
X95384761Y-64654761D01*
X95432380Y-64750000D01*
X95432380Y-65035714D01*
X95384761Y-65130952D01*
X95337142Y-65178571D01*
X95337142Y-64130952D02*
X95384761Y-64083333D01*
X95432380Y-64130952D01*
X95384761Y-64178571D01*
X95337142Y-64130952D01*
X95432380Y-64130952D01*
X94432380Y-63178571D02*
X94432380Y-63654761D01*
X94908571Y-63702380D01*
X94860952Y-63654761D01*
X94813333Y-63559523D01*
X94813333Y-63321428D01*
X94860952Y-63226190D01*
X94908571Y-63178571D01*
X95003809Y-63130952D01*
X95241904Y-63130952D01*
X95337142Y-63178571D01*
X95384761Y-63226190D01*
X95432380Y-63321428D01*
X95432380Y-63559523D01*
X95384761Y-63654761D01*
X95337142Y-63702380D01*
X94432380Y-62511904D02*
X94432380Y-62416666D01*
X94480000Y-62321428D01*
X94527619Y-62273809D01*
X94622857Y-62226190D01*
X94813333Y-62178571D01*
X95051428Y-62178571D01*
X95241904Y-62226190D01*
X95337142Y-62273809D01*
X95384761Y-62321428D01*
X95432380Y-62416666D01*
X95432380Y-62511904D01*
X95384761Y-62607142D01*
X95337142Y-62654761D01*
X95241904Y-62702380D01*
X95051428Y-62750000D01*
X94813333Y-62750000D01*
X94622857Y-62702380D01*
X94527619Y-62654761D01*
X94480000Y-62607142D01*
X94432380Y-62511904D01*
X94432380Y-61559523D02*
X94432380Y-61464285D01*
X94480000Y-61369047D01*
X94527619Y-61321428D01*
X94622857Y-61273809D01*
X94813333Y-61226190D01*
X95051428Y-61226190D01*
X95241904Y-61273809D01*
X95337142Y-61321428D01*
X95384761Y-61369047D01*
X95432380Y-61464285D01*
X95432380Y-61559523D01*
X95384761Y-61654761D01*
X95337142Y-61702380D01*
X95241904Y-61750000D01*
X95051428Y-61797619D01*
X94813333Y-61797619D01*
X94622857Y-61750000D01*
X94527619Y-61702380D01*
X94480000Y-61654761D01*
X94432380Y-61559523D01*
X95432380Y-60035714D02*
X94765714Y-60035714D01*
X95289523Y-59750000D01*
X94765714Y-59464285D01*
X95432380Y-59464285D01*
X95432380Y-58988095D02*
X94765714Y-58988095D01*
X95289523Y-58702380D01*
X94765714Y-58416666D01*
X95432380Y-58416666D01*
D11*
X96250000Y-63500000D02*
X96250000Y-60000000D01*
X103250000Y-63500000D02*
X95663579Y-63500000D01*
X103250000Y-60000000D02*
X95663579Y-60000000D01*
X96250000Y-60000000D02*
X96836421Y-61126504D01*
X96250000Y-60000000D02*
X95663579Y-61126504D01*
X96250000Y-63500000D02*
X96836421Y-62373496D01*
X96250000Y-63500000D02*
X95663579Y-62373496D01*
D10*
X155428571Y-126952380D02*
X155428571Y-125952380D01*
X155666666Y-125952380D01*
X155809523Y-126000000D01*
X155904761Y-126095238D01*
X155952380Y-126190476D01*
X156000000Y-126380952D01*
X156000000Y-126523809D01*
X155952380Y-126714285D01*
X155904761Y-126809523D01*
X155809523Y-126904761D01*
X155666666Y-126952380D01*
X155428571Y-126952380D01*
X156428571Y-126428571D02*
X156761904Y-126428571D01*
X156904761Y-126952380D02*
X156428571Y-126952380D01*
X156428571Y-125952380D01*
X156904761Y-125952380D01*
X157333333Y-126952380D02*
X157333333Y-125952380D01*
X157714285Y-125952380D01*
X157809523Y-126000000D01*
X157857142Y-126047619D01*
X157904761Y-126142857D01*
X157904761Y-126285714D01*
X157857142Y-126380952D01*
X157809523Y-126428571D01*
X157714285Y-126476190D01*
X157333333Y-126476190D01*
X158809523Y-126952380D02*
X158333333Y-126952380D01*
X158333333Y-125952380D01*
X159333333Y-125952380D02*
X159523809Y-125952380D01*
X159619047Y-126000000D01*
X159714285Y-126095238D01*
X159761904Y-126285714D01*
X159761904Y-126619047D01*
X159714285Y-126809523D01*
X159619047Y-126904761D01*
X159523809Y-126952380D01*
X159333333Y-126952380D01*
X159238095Y-126904761D01*
X159142857Y-126809523D01*
X159095238Y-126619047D01*
X159095238Y-126285714D01*
X159142857Y-126095238D01*
X159238095Y-126000000D01*
X159333333Y-125952380D01*
X160380952Y-126476190D02*
X160380952Y-126952380D01*
X160047619Y-125952380D02*
X160380952Y-126476190D01*
X160714285Y-125952380D01*
X147130952Y-126952380D02*
X146797619Y-126476190D01*
X146559523Y-126952380D02*
X146559523Y-125952380D01*
X146940476Y-125952380D01*
X147035714Y-126000000D01*
X147083333Y-126047619D01*
X147130952Y-126142857D01*
X147130952Y-126285714D01*
X147083333Y-126380952D01*
X147035714Y-126428571D01*
X146940476Y-126476190D01*
X146559523Y-126476190D01*
X147892857Y-126428571D02*
X148035714Y-126476190D01*
X148083333Y-126523809D01*
X148130952Y-126619047D01*
X148130952Y-126761904D01*
X148083333Y-126857142D01*
X148035714Y-126904761D01*
X147940476Y-126952380D01*
X147559523Y-126952380D01*
X147559523Y-125952380D01*
X147892857Y-125952380D01*
X147988095Y-126000000D01*
X148035714Y-126047619D01*
X148083333Y-126142857D01*
X148083333Y-126238095D01*
X148035714Y-126333333D01*
X147988095Y-126380952D01*
X147892857Y-126428571D01*
X147559523Y-126428571D01*
X148892857Y-126428571D02*
X148559523Y-126428571D01*
X148559523Y-126952380D02*
X148559523Y-125952380D01*
X149035714Y-125952380D01*
X184178571Y-93377380D02*
X183607142Y-93377380D01*
X183892857Y-93377380D02*
X183892857Y-92377380D01*
X183797619Y-92520238D01*
X183702380Y-92615476D01*
X183607142Y-92663095D01*
X185321428Y-92472619D02*
X185369047Y-92425000D01*
X185464285Y-92377380D01*
X185702380Y-92377380D01*
X185797619Y-92425000D01*
X185845238Y-92472619D01*
X185892857Y-92567857D01*
X185892857Y-92663095D01*
X185845238Y-92805952D01*
X185273809Y-93377380D01*
X185892857Y-93377380D01*
X182440476Y-94503571D02*
X182583333Y-94551190D01*
X182630952Y-94598809D01*
X182678571Y-94694047D01*
X182678571Y-94836904D01*
X182630952Y-94932142D01*
X182583333Y-94979761D01*
X182488095Y-95027380D01*
X182107142Y-95027380D01*
X182107142Y-94027380D01*
X182440476Y-94027380D01*
X182535714Y-94075000D01*
X182583333Y-94122619D01*
X182630952Y-94217857D01*
X182630952Y-94313095D01*
X182583333Y-94408333D01*
X182535714Y-94455952D01*
X182440476Y-94503571D01*
X182107142Y-94503571D01*
X183630952Y-95027380D02*
X183059523Y-95027380D01*
X183345238Y-95027380D02*
X183345238Y-94027380D01*
X183250000Y-94170238D01*
X183154761Y-94265476D01*
X183059523Y-94313095D01*
X185345238Y-94075000D02*
X185250000Y-94027380D01*
X185107142Y-94027380D01*
X184964285Y-94075000D01*
X184869047Y-94170238D01*
X184821428Y-94265476D01*
X184773809Y-94455952D01*
X184773809Y-94598809D01*
X184821428Y-94789285D01*
X184869047Y-94884523D01*
X184964285Y-94979761D01*
X185107142Y-95027380D01*
X185202380Y-95027380D01*
X185345238Y-94979761D01*
X185392857Y-94932142D01*
X185392857Y-94598809D01*
X185202380Y-94598809D01*
X185821428Y-95027380D02*
X185821428Y-94027380D01*
X186392857Y-95027380D01*
X186392857Y-94027380D01*
X186869047Y-95027380D02*
X186869047Y-94027380D01*
X187107142Y-94027380D01*
X187250000Y-94075000D01*
X187345238Y-94170238D01*
X187392857Y-94265476D01*
X187440476Y-94455952D01*
X187440476Y-94598809D01*
X187392857Y-94789285D01*
X187345238Y-94884523D01*
X187250000Y-94979761D01*
X187107142Y-95027380D01*
X186869047Y-95027380D01*
X184178571Y-103377380D02*
X183607142Y-103377380D01*
X183892857Y-103377380D02*
X183892857Y-102377380D01*
X183797619Y-102520238D01*
X183702380Y-102615476D01*
X183607142Y-102663095D01*
X185321428Y-102472619D02*
X185369047Y-102425000D01*
X185464285Y-102377380D01*
X185702380Y-102377380D01*
X185797619Y-102425000D01*
X185845238Y-102472619D01*
X185892857Y-102567857D01*
X185892857Y-102663095D01*
X185845238Y-102805952D01*
X185273809Y-103377380D01*
X185892857Y-103377380D01*
X182440476Y-104503571D02*
X182583333Y-104551190D01*
X182630952Y-104598809D01*
X182678571Y-104694047D01*
X182678571Y-104836904D01*
X182630952Y-104932142D01*
X182583333Y-104979761D01*
X182488095Y-105027380D01*
X182107142Y-105027380D01*
X182107142Y-104027380D01*
X182440476Y-104027380D01*
X182535714Y-104075000D01*
X182583333Y-104122619D01*
X182630952Y-104217857D01*
X182630952Y-104313095D01*
X182583333Y-104408333D01*
X182535714Y-104455952D01*
X182440476Y-104503571D01*
X182107142Y-104503571D01*
X183297619Y-104027380D02*
X183392857Y-104027380D01*
X183488095Y-104075000D01*
X183535714Y-104122619D01*
X183583333Y-104217857D01*
X183630952Y-104408333D01*
X183630952Y-104646428D01*
X183583333Y-104836904D01*
X183535714Y-104932142D01*
X183488095Y-104979761D01*
X183392857Y-105027380D01*
X183297619Y-105027380D01*
X183202380Y-104979761D01*
X183154761Y-104932142D01*
X183107142Y-104836904D01*
X183059523Y-104646428D01*
X183059523Y-104408333D01*
X183107142Y-104217857D01*
X183154761Y-104122619D01*
X183202380Y-104075000D01*
X183297619Y-104027380D01*
X185345238Y-104075000D02*
X185250000Y-104027380D01*
X185107142Y-104027380D01*
X184964285Y-104075000D01*
X184869047Y-104170238D01*
X184821428Y-104265476D01*
X184773809Y-104455952D01*
X184773809Y-104598809D01*
X184821428Y-104789285D01*
X184869047Y-104884523D01*
X184964285Y-104979761D01*
X185107142Y-105027380D01*
X185202380Y-105027380D01*
X185345238Y-104979761D01*
X185392857Y-104932142D01*
X185392857Y-104598809D01*
X185202380Y-104598809D01*
X185821428Y-105027380D02*
X185821428Y-104027380D01*
X186392857Y-105027380D01*
X186392857Y-104027380D01*
X186869047Y-105027380D02*
X186869047Y-104027380D01*
X187107142Y-104027380D01*
X187250000Y-104075000D01*
X187345238Y-104170238D01*
X187392857Y-104265476D01*
X187440476Y-104455952D01*
X187440476Y-104598809D01*
X187392857Y-104789285D01*
X187345238Y-104884523D01*
X187250000Y-104979761D01*
X187107142Y-105027380D01*
X186869047Y-105027380D01*
X184178571Y-114127380D02*
X183607142Y-114127380D01*
X183892857Y-114127380D02*
X183892857Y-113127380D01*
X183797619Y-113270238D01*
X183702380Y-113365476D01*
X183607142Y-113413095D01*
X185321428Y-113222619D02*
X185369047Y-113175000D01*
X185464285Y-113127380D01*
X185702380Y-113127380D01*
X185797619Y-113175000D01*
X185845238Y-113222619D01*
X185892857Y-113317857D01*
X185892857Y-113413095D01*
X185845238Y-113555952D01*
X185273809Y-114127380D01*
X185892857Y-114127380D01*
X181940476Y-115729761D02*
X182083333Y-115777380D01*
X182321428Y-115777380D01*
X182416666Y-115729761D01*
X182464285Y-115682142D01*
X182511904Y-115586904D01*
X182511904Y-115491666D01*
X182464285Y-115396428D01*
X182416666Y-115348809D01*
X182321428Y-115301190D01*
X182130952Y-115253571D01*
X182035714Y-115205952D01*
X181988095Y-115158333D01*
X181940476Y-115063095D01*
X181940476Y-114967857D01*
X181988095Y-114872619D01*
X182035714Y-114825000D01*
X182130952Y-114777380D01*
X182369047Y-114777380D01*
X182511904Y-114825000D01*
X182940476Y-115396428D02*
X183702380Y-115396428D01*
X183321428Y-115777380D02*
X183321428Y-115015476D01*
X185464285Y-114825000D02*
X185369047Y-114777380D01*
X185226190Y-114777380D01*
X185083333Y-114825000D01*
X184988095Y-114920238D01*
X184940476Y-115015476D01*
X184892857Y-115205952D01*
X184892857Y-115348809D01*
X184940476Y-115539285D01*
X184988095Y-115634523D01*
X185083333Y-115729761D01*
X185226190Y-115777380D01*
X185321428Y-115777380D01*
X185464285Y-115729761D01*
X185511904Y-115682142D01*
X185511904Y-115348809D01*
X185321428Y-115348809D01*
X185940476Y-115777380D02*
X185940476Y-114777380D01*
X186511904Y-115777380D01*
X186511904Y-114777380D01*
X186988095Y-115777380D02*
X186988095Y-114777380D01*
X187226190Y-114777380D01*
X187369047Y-114825000D01*
X187464285Y-114920238D01*
X187511904Y-115015476D01*
X187559523Y-115205952D01*
X187559523Y-115348809D01*
X187511904Y-115539285D01*
X187464285Y-115634523D01*
X187369047Y-115729761D01*
X187226190Y-115777380D01*
X186988095Y-115777380D01*
X176357142Y-134472619D02*
X176404761Y-134425000D01*
X176500000Y-134377380D01*
X176738095Y-134377380D01*
X176833333Y-134425000D01*
X176880952Y-134472619D01*
X176928571Y-134567857D01*
X176928571Y-134663095D01*
X176880952Y-134805952D01*
X176309523Y-135377380D01*
X176928571Y-135377380D01*
X178642857Y-135377380D02*
X178071428Y-135377380D01*
X178357142Y-135377380D02*
X178357142Y-134377380D01*
X178261904Y-134520238D01*
X178166666Y-134615476D01*
X178071428Y-134663095D01*
X175190476Y-136503571D02*
X175333333Y-136551190D01*
X175380952Y-136598809D01*
X175428571Y-136694047D01*
X175428571Y-136836904D01*
X175380952Y-136932142D01*
X175333333Y-136979761D01*
X175238095Y-137027380D01*
X174857142Y-137027380D01*
X174857142Y-136027380D01*
X175190476Y-136027380D01*
X175285714Y-136075000D01*
X175333333Y-136122619D01*
X175380952Y-136217857D01*
X175380952Y-136313095D01*
X175333333Y-136408333D01*
X175285714Y-136455952D01*
X175190476Y-136503571D01*
X174857142Y-136503571D01*
X175809523Y-136122619D02*
X175857142Y-136075000D01*
X175952380Y-136027380D01*
X176190476Y-136027380D01*
X176285714Y-136075000D01*
X176333333Y-136122619D01*
X176380952Y-136217857D01*
X176380952Y-136313095D01*
X176333333Y-136455952D01*
X175761904Y-137027380D01*
X176380952Y-137027380D01*
X178095238Y-136075000D02*
X178000000Y-136027380D01*
X177857142Y-136027380D01*
X177714285Y-136075000D01*
X177619047Y-136170238D01*
X177571428Y-136265476D01*
X177523809Y-136455952D01*
X177523809Y-136598809D01*
X177571428Y-136789285D01*
X177619047Y-136884523D01*
X177714285Y-136979761D01*
X177857142Y-137027380D01*
X177952380Y-137027380D01*
X178095238Y-136979761D01*
X178142857Y-136932142D01*
X178142857Y-136598809D01*
X177952380Y-136598809D01*
X178571428Y-137027380D02*
X178571428Y-136027380D01*
X179142857Y-137027380D01*
X179142857Y-136027380D01*
X179619047Y-137027380D02*
X179619047Y-136027380D01*
X179857142Y-136027380D01*
X180000000Y-136075000D01*
X180095238Y-136170238D01*
X180142857Y-136265476D01*
X180190476Y-136455952D01*
X180190476Y-136598809D01*
X180142857Y-136789285D01*
X180095238Y-136884523D01*
X180000000Y-136979761D01*
X179857142Y-137027380D01*
X179619047Y-137027380D01*
X169107142Y-134472619D02*
X169154761Y-134425000D01*
X169250000Y-134377380D01*
X169488095Y-134377380D01*
X169583333Y-134425000D01*
X169630952Y-134472619D01*
X169678571Y-134567857D01*
X169678571Y-134663095D01*
X169630952Y-134805952D01*
X169059523Y-135377380D01*
X169678571Y-135377380D01*
X171392857Y-135377380D02*
X170821428Y-135377380D01*
X171107142Y-135377380D02*
X171107142Y-134377380D01*
X171011904Y-134520238D01*
X170916666Y-134615476D01*
X170821428Y-134663095D01*
X167940476Y-136503571D02*
X168083333Y-136551190D01*
X168130952Y-136598809D01*
X168178571Y-136694047D01*
X168178571Y-136836904D01*
X168130952Y-136932142D01*
X168083333Y-136979761D01*
X167988095Y-137027380D01*
X167607142Y-137027380D01*
X167607142Y-136027380D01*
X167940476Y-136027380D01*
X168035714Y-136075000D01*
X168083333Y-136122619D01*
X168130952Y-136217857D01*
X168130952Y-136313095D01*
X168083333Y-136408333D01*
X168035714Y-136455952D01*
X167940476Y-136503571D01*
X167607142Y-136503571D01*
X169130952Y-137027380D02*
X168559523Y-137027380D01*
X168845238Y-137027380D02*
X168845238Y-136027380D01*
X168750000Y-136170238D01*
X168654761Y-136265476D01*
X168559523Y-136313095D01*
X170845238Y-136075000D02*
X170750000Y-136027380D01*
X170607142Y-136027380D01*
X170464285Y-136075000D01*
X170369047Y-136170238D01*
X170321428Y-136265476D01*
X170273809Y-136455952D01*
X170273809Y-136598809D01*
X170321428Y-136789285D01*
X170369047Y-136884523D01*
X170464285Y-136979761D01*
X170607142Y-137027380D01*
X170702380Y-137027380D01*
X170845238Y-136979761D01*
X170892857Y-136932142D01*
X170892857Y-136598809D01*
X170702380Y-136598809D01*
X171321428Y-137027380D02*
X171321428Y-136027380D01*
X171892857Y-137027380D01*
X171892857Y-136027380D01*
X172369047Y-137027380D02*
X172369047Y-136027380D01*
X172607142Y-136027380D01*
X172750000Y-136075000D01*
X172845238Y-136170238D01*
X172892857Y-136265476D01*
X172940476Y-136455952D01*
X172940476Y-136598809D01*
X172892857Y-136789285D01*
X172845238Y-136884523D01*
X172750000Y-136979761D01*
X172607142Y-137027380D01*
X172369047Y-137027380D01*
X159952380Y-134627380D02*
X160571428Y-134627380D01*
X160238095Y-135008333D01*
X160380952Y-135008333D01*
X160476190Y-135055952D01*
X160523809Y-135103571D01*
X160571428Y-135198809D01*
X160571428Y-135436904D01*
X160523809Y-135532142D01*
X160476190Y-135579761D01*
X160380952Y-135627380D01*
X160095238Y-135627380D01*
X160000000Y-135579761D01*
X159952380Y-135532142D01*
X161714285Y-134722619D02*
X161761904Y-134675000D01*
X161857142Y-134627380D01*
X162095238Y-134627380D01*
X162190476Y-134675000D01*
X162238095Y-134722619D01*
X162285714Y-134817857D01*
X162285714Y-134913095D01*
X162238095Y-135055952D01*
X161666666Y-135627380D01*
X162285714Y-135627380D01*
X164000000Y-135627380D02*
X163428571Y-135627380D01*
X163714285Y-135627380D02*
X163714285Y-134627380D01*
X163619047Y-134770238D01*
X163523809Y-134865476D01*
X163428571Y-134913095D01*
X158190476Y-136325000D02*
X158095238Y-136277380D01*
X157952380Y-136277380D01*
X157809523Y-136325000D01*
X157714285Y-136420238D01*
X157666666Y-136515476D01*
X157619047Y-136705952D01*
X157619047Y-136848809D01*
X157666666Y-137039285D01*
X157714285Y-137134523D01*
X157809523Y-137229761D01*
X157952380Y-137277380D01*
X158047619Y-137277380D01*
X158190476Y-137229761D01*
X158238095Y-137182142D01*
X158238095Y-136848809D01*
X158047619Y-136848809D01*
X158666666Y-137277380D02*
X158666666Y-136277380D01*
X159238095Y-137277380D01*
X159238095Y-136277380D01*
X159714285Y-137277380D02*
X159714285Y-136277380D01*
X159952380Y-136277380D01*
X160095238Y-136325000D01*
X160190476Y-136420238D01*
X160238095Y-136515476D01*
X160285714Y-136705952D01*
X160285714Y-136848809D01*
X160238095Y-137039285D01*
X160190476Y-137134523D01*
X160095238Y-137229761D01*
X159952380Y-137277380D01*
X159714285Y-137277380D01*
X161380952Y-136277380D02*
X162000000Y-136277380D01*
X161666666Y-136658333D01*
X161809523Y-136658333D01*
X161904761Y-136705952D01*
X161952380Y-136753571D01*
X162000000Y-136848809D01*
X162000000Y-137086904D01*
X161952380Y-137182142D01*
X161904761Y-137229761D01*
X161809523Y-137277380D01*
X161523809Y-137277380D01*
X161428571Y-137229761D01*
X161380952Y-137182142D01*
X162285714Y-136277380D02*
X162619047Y-137277380D01*
X162952380Y-136277380D01*
X163190476Y-136277380D02*
X163809523Y-136277380D01*
X163476190Y-136658333D01*
X163619047Y-136658333D01*
X163714285Y-136705952D01*
X163761904Y-136753571D01*
X163809523Y-136848809D01*
X163809523Y-137086904D01*
X163761904Y-137182142D01*
X163714285Y-137229761D01*
X163619047Y-137277380D01*
X163333333Y-137277380D01*
X163238095Y-137229761D01*
X163190476Y-137182142D01*
X165476190Y-136277380D02*
X165000000Y-136277380D01*
X164952380Y-136753571D01*
X165000000Y-136705952D01*
X165095238Y-136658333D01*
X165333333Y-136658333D01*
X165428571Y-136705952D01*
X165476190Y-136753571D01*
X165523809Y-136848809D01*
X165523809Y-137086904D01*
X165476190Y-137182142D01*
X165428571Y-137229761D01*
X165333333Y-137277380D01*
X165095238Y-137277380D01*
X165000000Y-137229761D01*
X164952380Y-137182142D01*
X165809523Y-136277380D02*
X166142857Y-137277380D01*
X166476190Y-136277380D01*
X136583333Y-145377380D02*
X136250000Y-144901190D01*
X136011904Y-145377380D02*
X136011904Y-144377380D01*
X136392857Y-144377380D01*
X136488095Y-144425000D01*
X136535714Y-144472619D01*
X136583333Y-144567857D01*
X136583333Y-144710714D01*
X136535714Y-144805952D01*
X136488095Y-144853571D01*
X136392857Y-144901190D01*
X136011904Y-144901190D01*
X137011904Y-144853571D02*
X137345238Y-144853571D01*
X137488095Y-145377380D02*
X137011904Y-145377380D01*
X137011904Y-144377380D01*
X137488095Y-144377380D01*
X137869047Y-145329761D02*
X138011904Y-145377380D01*
X138250000Y-145377380D01*
X138345238Y-145329761D01*
X138392857Y-145282142D01*
X138440476Y-145186904D01*
X138440476Y-145091666D01*
X138392857Y-144996428D01*
X138345238Y-144948809D01*
X138250000Y-144901190D01*
X138059523Y-144853571D01*
X137964285Y-144805952D01*
X137916666Y-144758333D01*
X137869047Y-144663095D01*
X137869047Y-144567857D01*
X137916666Y-144472619D01*
X137964285Y-144425000D01*
X138059523Y-144377380D01*
X138297619Y-144377380D01*
X138440476Y-144425000D01*
X139583333Y-145329761D02*
X139726190Y-145377380D01*
X139964285Y-145377380D01*
X140059523Y-145329761D01*
X140107142Y-145282142D01*
X140154761Y-145186904D01*
X140154761Y-145091666D01*
X140107142Y-144996428D01*
X140059523Y-144948809D01*
X139964285Y-144901190D01*
X139773809Y-144853571D01*
X139678571Y-144805952D01*
X139630952Y-144758333D01*
X139583333Y-144663095D01*
X139583333Y-144567857D01*
X139630952Y-144472619D01*
X139678571Y-144425000D01*
X139773809Y-144377380D01*
X140011904Y-144377380D01*
X140154761Y-144425000D01*
X141154761Y-145282142D02*
X141107142Y-145329761D01*
X140964285Y-145377380D01*
X140869047Y-145377380D01*
X140726190Y-145329761D01*
X140630952Y-145234523D01*
X140583333Y-145139285D01*
X140535714Y-144948809D01*
X140535714Y-144805952D01*
X140583333Y-144615476D01*
X140630952Y-144520238D01*
X140726190Y-144425000D01*
X140869047Y-144377380D01*
X140964285Y-144377380D01*
X141107142Y-144425000D01*
X141154761Y-144472619D01*
X141583333Y-145377380D02*
X141583333Y-144377380D01*
X142154761Y-145377380D02*
X141726190Y-144805952D01*
X142154761Y-144377380D02*
X141583333Y-144948809D01*
X143345238Y-145377380D02*
X143345238Y-144377380D01*
X143678571Y-145091666D01*
X144011904Y-144377380D01*
X144011904Y-145377380D01*
X144488095Y-145377380D02*
X144488095Y-144377380D01*
X144916666Y-145329761D02*
X145059523Y-145377380D01*
X145297619Y-145377380D01*
X145392857Y-145329761D01*
X145440476Y-145282142D01*
X145488095Y-145186904D01*
X145488095Y-145091666D01*
X145440476Y-144996428D01*
X145392857Y-144948809D01*
X145297619Y-144901190D01*
X145107142Y-144853571D01*
X145011904Y-144805952D01*
X144964285Y-144758333D01*
X144916666Y-144663095D01*
X144916666Y-144567857D01*
X144964285Y-144472619D01*
X145011904Y-144425000D01*
X145107142Y-144377380D01*
X145345238Y-144377380D01*
X145488095Y-144425000D01*
X146107142Y-144377380D02*
X146297619Y-144377380D01*
X146392857Y-144425000D01*
X146488095Y-144520238D01*
X146535714Y-144710714D01*
X146535714Y-145044047D01*
X146488095Y-145234523D01*
X146392857Y-145329761D01*
X146297619Y-145377380D01*
X146107142Y-145377380D01*
X146011904Y-145329761D01*
X145916666Y-145234523D01*
X145869047Y-145044047D01*
X145869047Y-144710714D01*
X145916666Y-144520238D01*
X146011904Y-144425000D01*
X146107142Y-144377380D01*
X136892857Y-146075000D02*
X136797619Y-146027380D01*
X136654761Y-146027380D01*
X136511904Y-146075000D01*
X136416666Y-146170238D01*
X136369047Y-146265476D01*
X136321428Y-146455952D01*
X136321428Y-146598809D01*
X136369047Y-146789285D01*
X136416666Y-146884523D01*
X136511904Y-146979761D01*
X136654761Y-147027380D01*
X136750000Y-147027380D01*
X136892857Y-146979761D01*
X136940476Y-146932142D01*
X136940476Y-146598809D01*
X136750000Y-146598809D01*
X137369047Y-147027380D02*
X137369047Y-146027380D01*
X137940476Y-147027380D01*
X137940476Y-146027380D01*
X138416666Y-147027380D02*
X138416666Y-146027380D01*
X138654761Y-146027380D01*
X138797619Y-146075000D01*
X138892857Y-146170238D01*
X138940476Y-146265476D01*
X138988095Y-146455952D01*
X138988095Y-146598809D01*
X138940476Y-146789285D01*
X138892857Y-146884523D01*
X138797619Y-146979761D01*
X138654761Y-147027380D01*
X138416666Y-147027380D01*
X140178571Y-147027380D02*
X140178571Y-146027380D01*
X140511904Y-146741666D01*
X140845238Y-146027380D01*
X140845238Y-147027380D01*
X141511904Y-146027380D02*
X141702380Y-146027380D01*
X141797619Y-146075000D01*
X141892857Y-146170238D01*
X141940476Y-146360714D01*
X141940476Y-146694047D01*
X141892857Y-146884523D01*
X141797619Y-146979761D01*
X141702380Y-147027380D01*
X141511904Y-147027380D01*
X141416666Y-146979761D01*
X141321428Y-146884523D01*
X141273809Y-146694047D01*
X141273809Y-146360714D01*
X141321428Y-146170238D01*
X141416666Y-146075000D01*
X141511904Y-146027380D01*
X142321428Y-146979761D02*
X142464285Y-147027380D01*
X142702380Y-147027380D01*
X142797619Y-146979761D01*
X142845238Y-146932142D01*
X142892857Y-146836904D01*
X142892857Y-146741666D01*
X142845238Y-146646428D01*
X142797619Y-146598809D01*
X142702380Y-146551190D01*
X142511904Y-146503571D01*
X142416666Y-146455952D01*
X142369047Y-146408333D01*
X142321428Y-146313095D01*
X142321428Y-146217857D01*
X142369047Y-146122619D01*
X142416666Y-146075000D01*
X142511904Y-146027380D01*
X142750000Y-146027380D01*
X142892857Y-146075000D01*
X143321428Y-147027380D02*
X143321428Y-146027380D01*
X144559523Y-147027380D02*
X144559523Y-146027380D01*
X145130952Y-147027380D01*
X145130952Y-146027380D01*
X146178571Y-146932142D02*
X146130952Y-146979761D01*
X145988095Y-147027380D01*
X145892857Y-147027380D01*
X145750000Y-146979761D01*
X145654761Y-146884523D01*
X145607142Y-146789285D01*
X145559523Y-146598809D01*
X145559523Y-146455952D01*
X145607142Y-146265476D01*
X145654761Y-146170238D01*
X145750000Y-146075000D01*
X145892857Y-146027380D01*
X145988095Y-146027380D01*
X146130952Y-146075000D01*
X146178571Y-146122619D01*
X140023809Y-140627380D02*
X139547619Y-140627380D01*
X139500000Y-141103571D01*
X139547619Y-141055952D01*
X139642857Y-141008333D01*
X139880952Y-141008333D01*
X139976190Y-141055952D01*
X140023809Y-141103571D01*
X140071428Y-141198809D01*
X140071428Y-141436904D01*
X140023809Y-141532142D01*
X139976190Y-141579761D01*
X139880952Y-141627380D01*
X139642857Y-141627380D01*
X139547619Y-141579761D01*
X139500000Y-141532142D01*
X141166666Y-140627380D02*
X141785714Y-140627380D01*
X141452380Y-141008333D01*
X141595238Y-141008333D01*
X141690476Y-141055952D01*
X141738095Y-141103571D01*
X141785714Y-141198809D01*
X141785714Y-141436904D01*
X141738095Y-141532142D01*
X141690476Y-141579761D01*
X141595238Y-141627380D01*
X141309523Y-141627380D01*
X141214285Y-141579761D01*
X141166666Y-141532142D01*
X143500000Y-141627380D02*
X142928571Y-141627380D01*
X143214285Y-141627380D02*
X143214285Y-140627380D01*
X143119047Y-140770238D01*
X143023809Y-140865476D01*
X142928571Y-140913095D01*
X139976190Y-142277380D02*
X139785714Y-142277380D01*
X139690476Y-142325000D01*
X139642857Y-142372619D01*
X139547619Y-142515476D01*
X139500000Y-142705952D01*
X139500000Y-143086904D01*
X139547619Y-143182142D01*
X139595238Y-143229761D01*
X139690476Y-143277380D01*
X139880952Y-143277380D01*
X139976190Y-143229761D01*
X140023809Y-143182142D01*
X140071428Y-143086904D01*
X140071428Y-142848809D01*
X140023809Y-142753571D01*
X139976190Y-142705952D01*
X139880952Y-142658333D01*
X139690476Y-142658333D01*
X139595238Y-142705952D01*
X139547619Y-142753571D01*
X139500000Y-142848809D01*
X141690476Y-142610714D02*
X141690476Y-143277380D01*
X141452380Y-142229761D02*
X141214285Y-142944047D01*
X141833333Y-142944047D01*
X142928571Y-142372619D02*
X142976190Y-142325000D01*
X143071428Y-142277380D01*
X143309523Y-142277380D01*
X143404761Y-142325000D01*
X143452380Y-142372619D01*
X143500000Y-142467857D01*
X143500000Y-142563095D01*
X143452380Y-142705952D01*
X142880952Y-143277380D01*
X143500000Y-143277380D01*
X197567619Y-101238095D02*
X197567619Y-101428571D01*
X197615238Y-101523809D01*
X197662857Y-101571428D01*
X197805714Y-101666666D01*
X197996190Y-101714285D01*
X198377142Y-101714285D01*
X198472380Y-101666666D01*
X198520000Y-101619047D01*
X198567619Y-101523809D01*
X198567619Y-101333333D01*
X198520000Y-101238095D01*
X198472380Y-101190476D01*
X198377142Y-101142857D01*
X198139047Y-101142857D01*
X198043809Y-101190476D01*
X197996190Y-101238095D01*
X197948571Y-101333333D01*
X197948571Y-101523809D01*
X197996190Y-101619047D01*
X198043809Y-101666666D01*
X198139047Y-101714285D01*
X198567619Y-102333333D02*
X198567619Y-102428571D01*
X198520000Y-102523809D01*
X198472380Y-102571428D01*
X198377142Y-102619047D01*
X198186666Y-102666666D01*
X197948571Y-102666666D01*
X197758095Y-102619047D01*
X197662857Y-102571428D01*
X197615238Y-102523809D01*
X197567619Y-102428571D01*
X197567619Y-102333333D01*
X197615238Y-102238095D01*
X197662857Y-102190476D01*
X197758095Y-102142857D01*
X197948571Y-102095238D01*
X198186666Y-102095238D01*
X198377142Y-102142857D01*
X198472380Y-102190476D01*
X198520000Y-102238095D01*
X198567619Y-102333333D01*
X197662857Y-103095238D02*
X197615238Y-103142857D01*
X197567619Y-103095238D01*
X197615238Y-103047619D01*
X197662857Y-103095238D01*
X197567619Y-103095238D01*
X198567619Y-103761904D02*
X198567619Y-103857142D01*
X198520000Y-103952380D01*
X198472380Y-104000000D01*
X198377142Y-104047619D01*
X198186666Y-104095238D01*
X197948571Y-104095238D01*
X197758095Y-104047619D01*
X197662857Y-104000000D01*
X197615238Y-103952380D01*
X197567619Y-103857142D01*
X197567619Y-103761904D01*
X197615238Y-103666666D01*
X197662857Y-103619047D01*
X197758095Y-103571428D01*
X197948571Y-103523809D01*
X198186666Y-103523809D01*
X198377142Y-103571428D01*
X198472380Y-103619047D01*
X198520000Y-103666666D01*
X198567619Y-103761904D01*
X198567619Y-104714285D02*
X198567619Y-104809523D01*
X198520000Y-104904761D01*
X198472380Y-104952380D01*
X198377142Y-105000000D01*
X198186666Y-105047619D01*
X197948571Y-105047619D01*
X197758095Y-105000000D01*
X197662857Y-104952380D01*
X197615238Y-104904761D01*
X197567619Y-104809523D01*
X197567619Y-104714285D01*
X197615238Y-104619047D01*
X197662857Y-104571428D01*
X197758095Y-104523809D01*
X197948571Y-104476190D01*
X198186666Y-104476190D01*
X198377142Y-104523809D01*
X198472380Y-104571428D01*
X198520000Y-104619047D01*
X198567619Y-104714285D01*
X198567619Y-105666666D02*
X198567619Y-105761904D01*
X198520000Y-105857142D01*
X198472380Y-105904761D01*
X198377142Y-105952380D01*
X198186666Y-106000000D01*
X197948571Y-106000000D01*
X197758095Y-105952380D01*
X197662857Y-105904761D01*
X197615238Y-105857142D01*
X197567619Y-105761904D01*
X197567619Y-105666666D01*
X197615238Y-105571428D01*
X197662857Y-105523809D01*
X197758095Y-105476190D01*
X197948571Y-105428571D01*
X198186666Y-105428571D01*
X198377142Y-105476190D01*
X198472380Y-105523809D01*
X198520000Y-105571428D01*
X198567619Y-105666666D01*
X197567619Y-107190476D02*
X198234285Y-107190476D01*
X197710476Y-107476190D01*
X198234285Y-107761904D01*
X197567619Y-107761904D01*
X197567619Y-108238095D02*
X198234285Y-108238095D01*
X197710476Y-108523809D01*
X198234285Y-108809523D01*
X197567619Y-108809523D01*
D11*
X196750000Y-60000000D02*
X196750000Y-150000000D01*
X189750000Y-60000000D02*
X197336421Y-60000000D01*
X189750000Y-150000000D02*
X197336421Y-150000000D01*
X196750000Y-150000000D02*
X196163579Y-148873496D01*
X196750000Y-150000000D02*
X197336421Y-148873496D01*
X196750000Y-60000000D02*
X196163579Y-61126504D01*
X196750000Y-60000000D02*
X197336421Y-61126504D01*
D10*
X140988095Y-52182380D02*
X141178571Y-52182380D01*
X141273809Y-52134761D01*
X141321428Y-52087142D01*
X141416666Y-51944285D01*
X141464285Y-51753809D01*
X141464285Y-51372857D01*
X141416666Y-51277619D01*
X141369047Y-51230000D01*
X141273809Y-51182380D01*
X141083333Y-51182380D01*
X140988095Y-51230000D01*
X140940476Y-51277619D01*
X140892857Y-51372857D01*
X140892857Y-51610952D01*
X140940476Y-51706190D01*
X140988095Y-51753809D01*
X141083333Y-51801428D01*
X141273809Y-51801428D01*
X141369047Y-51753809D01*
X141416666Y-51706190D01*
X141464285Y-51610952D01*
X142083333Y-51182380D02*
X142178571Y-51182380D01*
X142273809Y-51230000D01*
X142321428Y-51277619D01*
X142369047Y-51372857D01*
X142416666Y-51563333D01*
X142416666Y-51801428D01*
X142369047Y-51991904D01*
X142321428Y-52087142D01*
X142273809Y-52134761D01*
X142178571Y-52182380D01*
X142083333Y-52182380D01*
X141988095Y-52134761D01*
X141940476Y-52087142D01*
X141892857Y-51991904D01*
X141845238Y-51801428D01*
X141845238Y-51563333D01*
X141892857Y-51372857D01*
X141940476Y-51277619D01*
X141988095Y-51230000D01*
X142083333Y-51182380D01*
X142845238Y-52087142D02*
X142892857Y-52134761D01*
X142845238Y-52182380D01*
X142797619Y-52134761D01*
X142845238Y-52087142D01*
X142845238Y-52182380D01*
X143511904Y-51182380D02*
X143607142Y-51182380D01*
X143702380Y-51230000D01*
X143750000Y-51277619D01*
X143797619Y-51372857D01*
X143845238Y-51563333D01*
X143845238Y-51801428D01*
X143797619Y-51991904D01*
X143750000Y-52087142D01*
X143702380Y-52134761D01*
X143607142Y-52182380D01*
X143511904Y-52182380D01*
X143416666Y-52134761D01*
X143369047Y-52087142D01*
X143321428Y-51991904D01*
X143273809Y-51801428D01*
X143273809Y-51563333D01*
X143321428Y-51372857D01*
X143369047Y-51277619D01*
X143416666Y-51230000D01*
X143511904Y-51182380D01*
X144464285Y-51182380D02*
X144559523Y-51182380D01*
X144654761Y-51230000D01*
X144702380Y-51277619D01*
X144750000Y-51372857D01*
X144797619Y-51563333D01*
X144797619Y-51801428D01*
X144750000Y-51991904D01*
X144702380Y-52087142D01*
X144654761Y-52134761D01*
X144559523Y-52182380D01*
X144464285Y-52182380D01*
X144369047Y-52134761D01*
X144321428Y-52087142D01*
X144273809Y-51991904D01*
X144226190Y-51801428D01*
X144226190Y-51563333D01*
X144273809Y-51372857D01*
X144321428Y-51277619D01*
X144369047Y-51230000D01*
X144464285Y-51182380D01*
X145416666Y-51182380D02*
X145511904Y-51182380D01*
X145607142Y-51230000D01*
X145654761Y-51277619D01*
X145702380Y-51372857D01*
X145750000Y-51563333D01*
X145750000Y-51801428D01*
X145702380Y-51991904D01*
X145654761Y-52087142D01*
X145607142Y-52134761D01*
X145511904Y-52182380D01*
X145416666Y-52182380D01*
X145321428Y-52134761D01*
X145273809Y-52087142D01*
X145226190Y-51991904D01*
X145178571Y-51801428D01*
X145178571Y-51563333D01*
X145226190Y-51372857D01*
X145273809Y-51277619D01*
X145321428Y-51230000D01*
X145416666Y-51182380D01*
X146940476Y-52182380D02*
X146940476Y-51515714D01*
X147226190Y-52039523D01*
X147511904Y-51515714D01*
X147511904Y-52182380D01*
X147988095Y-52182380D02*
X147988095Y-51515714D01*
X148273809Y-52039523D01*
X148559523Y-51515714D01*
X148559523Y-52182380D01*
D11*
X99750000Y-53000000D02*
X189750000Y-53000000D01*
X99750000Y-60000000D02*
X99750000Y-52413579D01*
X189750000Y-60000000D02*
X189750000Y-52413579D01*
X189750000Y-53000000D02*
X188623496Y-53586421D01*
X189750000Y-53000000D02*
X188623496Y-52413579D01*
X99750000Y-53000000D02*
X100876504Y-53586421D01*
X99750000Y-53000000D02*
X100876504Y-52413579D01*
X121880000Y-84990000D02*
X121880000Y-86450000D01*
X118720000Y-84990000D02*
X118720000Y-87150000D01*
X118720000Y-84990000D02*
X119650000Y-84990000D01*
X121880000Y-84990000D02*
X120950000Y-84990000D01*
X121830000Y-77240000D02*
X121830000Y-78700000D01*
X118670000Y-77240000D02*
X118670000Y-79400000D01*
X118670000Y-77240000D02*
X119600000Y-77240000D01*
X121830000Y-77240000D02*
X120900000Y-77240000D01*
X113830000Y-77240000D02*
X113830000Y-78700000D01*
X110670000Y-77240000D02*
X110670000Y-79400000D01*
X110670000Y-77240000D02*
X111600000Y-77240000D01*
X113830000Y-77240000D02*
X112900000Y-77240000D01*
X113830000Y-84990000D02*
X113830000Y-86450000D01*
X110670000Y-84990000D02*
X110670000Y-87150000D01*
X110670000Y-84990000D02*
X111600000Y-84990000D01*
X113830000Y-84990000D02*
X112900000Y-84990000D01*
X156770000Y-135730000D02*
X156770000Y-137000000D01*
X155500000Y-135730000D02*
X156770000Y-135730000D01*
X150040000Y-138042929D02*
X150040000Y-138497071D01*
X150800000Y-138042929D02*
X150800000Y-138497071D01*
X150040000Y-140582929D02*
X150040000Y-140980000D01*
X150800000Y-140582929D02*
X150800000Y-140980000D01*
X150040000Y-149640000D02*
X150040000Y-143640000D01*
X150800000Y-149640000D02*
X150040000Y-149640000D01*
X150800000Y-143640000D02*
X150800000Y-149640000D01*
X151690000Y-140980000D02*
X151690000Y-143640000D01*
X152580000Y-138042929D02*
X152580000Y-138497071D01*
X153340000Y-138042929D02*
X153340000Y-138497071D01*
X152580000Y-140582929D02*
X152580000Y-140980000D01*
X153340000Y-140582929D02*
X153340000Y-140980000D01*
X152580000Y-149640000D02*
X152580000Y-143640000D01*
X153340000Y-149640000D02*
X152580000Y-149640000D01*
X153340000Y-143640000D02*
X153340000Y-149640000D01*
X154230000Y-140980000D02*
X154230000Y-143640000D01*
X155120000Y-138110000D02*
X155120000Y-138497071D01*
X155880000Y-138110000D02*
X155880000Y-138497071D01*
X155120000Y-140582929D02*
X155120000Y-140980000D01*
X155880000Y-140582929D02*
X155880000Y-140980000D01*
X155220000Y-143640000D02*
X155220000Y-149640000D01*
X155340000Y-143640000D02*
X155340000Y-149640000D01*
X155460000Y-143640000D02*
X155460000Y-149640000D01*
X155580000Y-143640000D02*
X155580000Y-149640000D01*
X155700000Y-143640000D02*
X155700000Y-149640000D01*
X155820000Y-143640000D02*
X155820000Y-149640000D01*
X155120000Y-149640000D02*
X155120000Y-143640000D01*
X155880000Y-149640000D02*
X155120000Y-149640000D01*
X155880000Y-143640000D02*
X155880000Y-149640000D01*
X156830000Y-143640000D02*
X156830000Y-140980000D01*
X149090000Y-143640000D02*
X156830000Y-143640000D01*
X149090000Y-140980000D02*
X149090000Y-143640000D01*
X156830000Y-140980000D02*
X149090000Y-140980000D01*
X107760000Y-120162779D02*
X107760000Y-119837221D01*
X106740000Y-120162779D02*
X106740000Y-119837221D01*
X110760000Y-120162779D02*
X110760000Y-119837221D01*
X109740000Y-120162779D02*
X109740000Y-119837221D01*
X109670000Y-65000000D02*
X109670000Y-63670000D01*
X109670000Y-63670000D02*
X111000000Y-63670000D01*
X109670000Y-66270000D02*
X112270000Y-66270000D01*
X112270000Y-66270000D02*
X112270000Y-63670000D01*
X112270000Y-63670000D02*
X125030000Y-63670000D01*
X125030000Y-68870000D02*
X125030000Y-63670000D01*
X109670000Y-68870000D02*
X125030000Y-68870000D01*
X109670000Y-68870000D02*
X109670000Y-66270000D01*
X128670000Y-65000000D02*
X128670000Y-63670000D01*
X128670000Y-63670000D02*
X130000000Y-63670000D01*
X128670000Y-66270000D02*
X131270000Y-66270000D01*
X131270000Y-66270000D02*
X131270000Y-63670000D01*
X131270000Y-63670000D02*
X179590000Y-63670000D01*
X179590000Y-68870000D02*
X179590000Y-63670000D01*
X128670000Y-68870000D02*
X179590000Y-68870000D01*
X128670000Y-68870000D02*
X128670000Y-66270000D01*
X148000000Y-77100000D02*
X153300000Y-77100000D01*
X148000000Y-73400000D02*
X148000000Y-77100000D01*
X136100000Y-93850000D02*
X141400000Y-93850000D01*
X136100000Y-90150000D02*
X136100000Y-93850000D01*
X122010000Y-103625279D02*
X122010000Y-103299721D01*
X120990000Y-103625279D02*
X120990000Y-103299721D01*
X181358478Y-85338478D02*
G75*
G03X179520000Y-80900000I-1838478J1838478D01*
G01*
X177681522Y-85338478D02*
G75*
G02X179520000Y-80900000I1838478J1838478D01*
G01*
X177720000Y-85350000D02*
X181320000Y-85350000D01*
X181358478Y-77838478D02*
G75*
G03X179520000Y-73400000I-1838478J1838478D01*
G01*
X177681522Y-77838478D02*
G75*
G02X179520000Y-73400000I1838478J1838478D01*
G01*
X177720000Y-77850000D02*
X181320000Y-77850000D01*
X174011810Y-85338478D02*
G75*
G03X172173332Y-80900000I-1838478J1838478D01*
G01*
X170334854Y-85338478D02*
G75*
G02X172173332Y-80900000I1838478J1838478D01*
G01*
X170373332Y-85350000D02*
X173973332Y-85350000D01*
X174011810Y-77838478D02*
G75*
G03X172173332Y-73400000I-1838478J1838478D01*
G01*
X170334854Y-77838478D02*
G75*
G02X172173332Y-73400000I1838478J1838478D01*
G01*
X170373332Y-77850000D02*
X173973332Y-77850000D01*
X155920000Y-130330000D02*
X155920000Y-129000000D01*
X157250000Y-130330000D02*
X155920000Y-130330000D01*
X158520000Y-130330000D02*
X158520000Y-127670000D01*
X158520000Y-127670000D02*
X161120000Y-127670000D01*
X158520000Y-130330000D02*
X161120000Y-130330000D01*
X161120000Y-130330000D02*
X161120000Y-127670000D01*
X146920000Y-130330000D02*
X146920000Y-129000000D01*
X148250000Y-130330000D02*
X146920000Y-130330000D01*
X149520000Y-130330000D02*
X149520000Y-127670000D01*
X149520000Y-127670000D02*
X152120000Y-127670000D01*
X149520000Y-130330000D02*
X152120000Y-130330000D01*
X152120000Y-130330000D02*
X152120000Y-127670000D01*
X182170000Y-119044284D02*
X182170000Y-117714284D01*
X183500000Y-119044284D02*
X182170000Y-119044284D01*
X184770000Y-119044284D02*
X184770000Y-116384284D01*
X184770000Y-116384284D02*
X187370000Y-116384284D01*
X184770000Y-119044284D02*
X187370000Y-119044284D01*
X187370000Y-119044284D02*
X187370000Y-116384284D01*
X182170000Y-123401426D02*
X182170000Y-122071426D01*
X183500000Y-123401426D02*
X182170000Y-123401426D01*
X184770000Y-123401426D02*
X184770000Y-120741426D01*
X184770000Y-120741426D02*
X187370000Y-120741426D01*
X184770000Y-123401426D02*
X187370000Y-123401426D01*
X187370000Y-123401426D02*
X187370000Y-120741426D01*
X182170000Y-127758568D02*
X182170000Y-126428568D01*
X183500000Y-127758568D02*
X182170000Y-127758568D01*
X184770000Y-127758568D02*
X184770000Y-125098568D01*
X184770000Y-125098568D02*
X187370000Y-125098568D01*
X184770000Y-127758568D02*
X187370000Y-127758568D01*
X187370000Y-127758568D02*
X187370000Y-125098568D01*
X182170000Y-132115710D02*
X182170000Y-130785710D01*
X183500000Y-132115710D02*
X182170000Y-132115710D01*
X184770000Y-132115710D02*
X184770000Y-129455710D01*
X184770000Y-129455710D02*
X187370000Y-129455710D01*
X184770000Y-132115710D02*
X187370000Y-132115710D01*
X187370000Y-132115710D02*
X187370000Y-129455710D01*
D10*
X174100000Y-98625000D02*
X172175000Y-98625000D01*
X173325000Y-95375000D02*
X172175000Y-95375000D01*
D11*
X118052064Y-91540000D02*
X113947936Y-91540000D01*
X118052064Y-94960000D02*
X113947936Y-94960000D01*
X107040000Y-98947936D02*
X107040000Y-103052064D01*
X110460000Y-98947936D02*
X110460000Y-103052064D01*
X118052064Y-106540000D02*
X113947936Y-106540000D01*
X118052064Y-109960000D02*
X113947936Y-109960000D01*
X142160000Y-113752064D02*
X142160000Y-112547936D01*
X140340000Y-113752064D02*
X140340000Y-112547936D01*
X165770000Y-138280000D02*
X165770000Y-139550000D01*
X164500000Y-138280000D02*
X165770000Y-138280000D01*
X159040000Y-140592929D02*
X159040000Y-140990000D01*
X159800000Y-140592929D02*
X159800000Y-140990000D01*
X159040000Y-149650000D02*
X159040000Y-143650000D01*
X159800000Y-149650000D02*
X159040000Y-149650000D01*
X159800000Y-143650000D02*
X159800000Y-149650000D01*
X160690000Y-140990000D02*
X160690000Y-143650000D01*
X161580000Y-140592929D02*
X161580000Y-140990000D01*
X162340000Y-140592929D02*
X162340000Y-140990000D01*
X161580000Y-149650000D02*
X161580000Y-143650000D01*
X162340000Y-149650000D02*
X161580000Y-149650000D01*
X162340000Y-143650000D02*
X162340000Y-149650000D01*
X163230000Y-140990000D02*
X163230000Y-143650000D01*
X164120000Y-140660000D02*
X164120000Y-140990000D01*
X164880000Y-140660000D02*
X164880000Y-140990000D01*
X164220000Y-143650000D02*
X164220000Y-149650000D01*
X164340000Y-143650000D02*
X164340000Y-149650000D01*
X164460000Y-143650000D02*
X164460000Y-149650000D01*
X164580000Y-143650000D02*
X164580000Y-149650000D01*
X164700000Y-143650000D02*
X164700000Y-149650000D01*
X164820000Y-143650000D02*
X164820000Y-149650000D01*
X164120000Y-149650000D02*
X164120000Y-143650000D01*
X164880000Y-149650000D02*
X164120000Y-149650000D01*
X164880000Y-143650000D02*
X164880000Y-149650000D01*
X165830000Y-143650000D02*
X165830000Y-140990000D01*
X158090000Y-143650000D02*
X165830000Y-143650000D01*
X158090000Y-140990000D02*
X158090000Y-143650000D01*
X165830000Y-140990000D02*
X158090000Y-140990000D01*
X172820000Y-138280000D02*
X172820000Y-139550000D01*
X171550000Y-138280000D02*
X172820000Y-138280000D01*
X168630000Y-140592929D02*
X168630000Y-140990000D01*
X169390000Y-140592929D02*
X169390000Y-140990000D01*
X168630000Y-149650000D02*
X168630000Y-143650000D01*
X169390000Y-149650000D02*
X168630000Y-149650000D01*
X169390000Y-143650000D02*
X169390000Y-149650000D01*
X170280000Y-140990000D02*
X170280000Y-143650000D01*
X171170000Y-140660000D02*
X171170000Y-140990000D01*
X171930000Y-140660000D02*
X171930000Y-140990000D01*
X171270000Y-143650000D02*
X171270000Y-149650000D01*
X171390000Y-143650000D02*
X171390000Y-149650000D01*
X171510000Y-143650000D02*
X171510000Y-149650000D01*
X171630000Y-143650000D02*
X171630000Y-149650000D01*
X171750000Y-143650000D02*
X171750000Y-149650000D01*
X171870000Y-143650000D02*
X171870000Y-149650000D01*
X171170000Y-149650000D02*
X171170000Y-143650000D01*
X171930000Y-149650000D02*
X171170000Y-149650000D01*
X171930000Y-143650000D02*
X171930000Y-149650000D01*
X172880000Y-143650000D02*
X172880000Y-140990000D01*
X167680000Y-143650000D02*
X172880000Y-143650000D01*
X167680000Y-140990000D02*
X167680000Y-143650000D01*
X172880000Y-140990000D02*
X167680000Y-140990000D01*
X179920000Y-138280000D02*
X179920000Y-139550000D01*
X178650000Y-138280000D02*
X179920000Y-138280000D01*
X175730000Y-140592929D02*
X175730000Y-140990000D01*
X176490000Y-140592929D02*
X176490000Y-140990000D01*
X175730000Y-149650000D02*
X175730000Y-143650000D01*
X176490000Y-149650000D02*
X175730000Y-149650000D01*
X176490000Y-143650000D02*
X176490000Y-149650000D01*
X177380000Y-140990000D02*
X177380000Y-143650000D01*
X178270000Y-140660000D02*
X178270000Y-140990000D01*
X179030000Y-140660000D02*
X179030000Y-140990000D01*
X178370000Y-143650000D02*
X178370000Y-149650000D01*
X178490000Y-143650000D02*
X178490000Y-149650000D01*
X178610000Y-143650000D02*
X178610000Y-149650000D01*
X178730000Y-143650000D02*
X178730000Y-149650000D01*
X178850000Y-143650000D02*
X178850000Y-149650000D01*
X178970000Y-143650000D02*
X178970000Y-149650000D01*
X178270000Y-149650000D02*
X178270000Y-143650000D01*
X179030000Y-149650000D02*
X178270000Y-149650000D01*
X179030000Y-143650000D02*
X179030000Y-149650000D01*
X179980000Y-143650000D02*
X179980000Y-140990000D01*
X174780000Y-143650000D02*
X179980000Y-143650000D01*
X174780000Y-140990000D02*
X174780000Y-143650000D01*
X179980000Y-140990000D02*
X174780000Y-140990000D01*
X174374721Y-101010000D02*
X174700279Y-101010000D01*
X174374721Y-99990000D02*
X174700279Y-99990000D01*
X153935000Y-103960000D02*
X153935000Y-100050000D01*
X152065000Y-103960000D02*
X153935000Y-103960000D01*
X152065000Y-100050000D02*
X152065000Y-103960000D01*
X143040000Y-113935000D02*
X146950000Y-113935000D01*
X143040000Y-112065000D02*
X143040000Y-113935000D01*
X146950000Y-112065000D02*
X143040000Y-112065000D01*
X182170000Y-98330000D02*
X182170000Y-97000000D01*
X183500000Y-98330000D02*
X182170000Y-98330000D01*
X184770000Y-98330000D02*
X184770000Y-95670000D01*
X184770000Y-95670000D02*
X187370000Y-95670000D01*
X184770000Y-98330000D02*
X187370000Y-98330000D01*
X187370000Y-98330000D02*
X187370000Y-95670000D01*
X132140000Y-137140000D02*
X132140000Y-136135000D01*
X132140000Y-133890000D02*
X132370000Y-133890000D01*
X132140000Y-134865000D02*
X132140000Y-133890000D01*
X135360000Y-134865000D02*
X135360000Y-133890000D01*
X135130000Y-133890000D02*
X135360000Y-133890000D01*
X135360000Y-137110000D02*
X135360000Y-136135000D01*
X135130000Y-137110000D02*
X135360000Y-137110000D01*
X113140000Y-137140000D02*
X113140000Y-136135000D01*
X113140000Y-133890000D02*
X113370000Y-133890000D01*
X113140000Y-134865000D02*
X113140000Y-133890000D01*
X116360000Y-134865000D02*
X116360000Y-133890000D01*
X116130000Y-133890000D02*
X116360000Y-133890000D01*
X116360000Y-137110000D02*
X116360000Y-136135000D01*
X116130000Y-137110000D02*
X116360000Y-137110000D01*
X134190000Y-82000000D02*
X134190000Y-85450000D01*
X134190000Y-82000000D02*
X134190000Y-80050000D01*
X139310000Y-82000000D02*
X139310000Y-83950000D01*
X139310000Y-82000000D02*
X139310000Y-80050000D01*
X133087221Y-132010000D02*
X133412779Y-132010000D01*
X133087221Y-130990000D02*
X133412779Y-130990000D01*
X138760000Y-135662779D02*
X138760000Y-135337221D01*
X137740000Y-135662779D02*
X137740000Y-135337221D01*
X114087221Y-132010000D02*
X114412779Y-132010000D01*
X114087221Y-130990000D02*
X114412779Y-130990000D01*
X119760000Y-135662779D02*
X119760000Y-135337221D01*
X118740000Y-135662779D02*
X118740000Y-135337221D01*
X134240000Y-137990000D02*
X133260000Y-137990000D01*
X134240000Y-142010000D02*
X133260000Y-142010000D01*
X115240000Y-137990000D02*
X114260000Y-137990000D01*
X115240000Y-142010000D02*
X114260000Y-142010000D01*
X129760000Y-135662779D02*
X129760000Y-135337221D01*
X128740000Y-135662779D02*
X128740000Y-135337221D01*
X126760000Y-135662779D02*
X126760000Y-135337221D01*
X125740000Y-135662779D02*
X125740000Y-135337221D01*
X138760000Y-131950279D02*
X138760000Y-131624721D01*
X137740000Y-131950279D02*
X137740000Y-131624721D01*
X141760000Y-135662779D02*
X141760000Y-135337221D01*
X140740000Y-135662779D02*
X140740000Y-135337221D01*
X107760000Y-135662779D02*
X107760000Y-135337221D01*
X106740000Y-135662779D02*
X106740000Y-135337221D01*
X110760000Y-135662779D02*
X110760000Y-135337221D01*
X109740000Y-135662779D02*
X109740000Y-135337221D01*
X119760000Y-131875279D02*
X119760000Y-131549721D01*
X118740000Y-131875279D02*
X118740000Y-131549721D01*
X122760000Y-135662779D02*
X122760000Y-135337221D01*
X121740000Y-135662779D02*
X121740000Y-135337221D01*
X156850000Y-114850000D02*
X162550000Y-114850000D01*
X156850000Y-119150000D02*
X162550000Y-119150000D01*
X156850000Y-114850000D02*
X156850000Y-119150000D01*
X156850000Y-120400000D02*
X162550000Y-120400000D01*
X156850000Y-124700000D02*
X162550000Y-124700000D01*
X156850000Y-120400000D02*
X156850000Y-124700000D01*
X172850000Y-115850000D02*
X178250000Y-115850000D01*
X172850000Y-119150000D02*
X178250000Y-119150000D01*
X172850000Y-115850000D02*
X172850000Y-119150000D01*
X172850000Y-120350000D02*
X178250000Y-120350000D01*
X172850000Y-123650000D02*
X178250000Y-123650000D01*
X172850000Y-120350000D02*
X172850000Y-123650000D01*
X172850000Y-124850000D02*
X178250000Y-124850000D01*
X172850000Y-128150000D02*
X178250000Y-128150000D01*
X172850000Y-124850000D02*
X172850000Y-128150000D01*
X172850000Y-129350000D02*
X178250000Y-129350000D01*
X172850000Y-132650000D02*
X178250000Y-132650000D01*
X172850000Y-129350000D02*
X172850000Y-132650000D01*
X182170000Y-108330000D02*
X182170000Y-107000000D01*
X183500000Y-108330000D02*
X182170000Y-108330000D01*
X184770000Y-108330000D02*
X184770000Y-105670000D01*
X184770000Y-105670000D02*
X187370000Y-105670000D01*
X184770000Y-108330000D02*
X187370000Y-108330000D01*
X187370000Y-108330000D02*
X187370000Y-105670000D01*
D10*
X174100000Y-108625000D02*
X172175000Y-108625000D01*
X173325000Y-105375000D02*
X172175000Y-105375000D01*
D11*
X132140000Y-122140000D02*
X132140000Y-121135000D01*
X132140000Y-118890000D02*
X132370000Y-118890000D01*
X132140000Y-119865000D02*
X132140000Y-118890000D01*
X135360000Y-119865000D02*
X135360000Y-118890000D01*
X135130000Y-118890000D02*
X135360000Y-118890000D01*
X135360000Y-122110000D02*
X135360000Y-121135000D01*
X135130000Y-122110000D02*
X135360000Y-122110000D01*
X113140000Y-121640000D02*
X113140000Y-120635000D01*
X113140000Y-118390000D02*
X113370000Y-118390000D01*
X113140000Y-119365000D02*
X113140000Y-118390000D01*
X116360000Y-119365000D02*
X116360000Y-118390000D01*
X116130000Y-118390000D02*
X116360000Y-118390000D01*
X116360000Y-121610000D02*
X116360000Y-120635000D01*
X116130000Y-121610000D02*
X116360000Y-121610000D01*
X114640000Y-102335000D02*
X114640000Y-103060000D01*
X118860000Y-98840000D02*
X118135000Y-98840000D01*
X118860000Y-99565000D02*
X118860000Y-98840000D01*
X118860000Y-103060000D02*
X118135000Y-103060000D01*
X118860000Y-102335000D02*
X118860000Y-103060000D01*
X114640000Y-98840000D02*
X115365000Y-98840000D01*
X114640000Y-99565000D02*
X114640000Y-98840000D01*
D10*
X154200000Y-78250000D02*
X154200000Y-84225000D01*
X147300000Y-79775000D02*
X147300000Y-84225000D01*
X147350000Y-96825000D02*
X147350000Y-95550000D01*
X147925000Y-107175000D02*
X147925000Y-106500000D01*
X137575000Y-107175000D02*
X137575000Y-106500000D01*
X137575000Y-96825000D02*
X137575000Y-97500000D01*
X147925000Y-96825000D02*
X147925000Y-97500000D01*
X137575000Y-96825000D02*
X138250000Y-96825000D01*
X137575000Y-107175000D02*
X138250000Y-107175000D01*
X147925000Y-107175000D02*
X147250000Y-107175000D01*
X147925000Y-96825000D02*
X147350000Y-96825000D01*
D11*
X133087221Y-117010000D02*
X133412779Y-117010000D01*
X133087221Y-115990000D02*
X133412779Y-115990000D01*
X114087221Y-116510000D02*
X114412779Y-116510000D01*
X114087221Y-115490000D02*
X114412779Y-115490000D01*
X138760000Y-120662779D02*
X138760000Y-120337221D01*
X137740000Y-120662779D02*
X137740000Y-120337221D01*
X119760000Y-120375279D02*
X119760000Y-120049721D01*
X118740000Y-120375279D02*
X118740000Y-120049721D01*
X134240000Y-122990000D02*
X133260000Y-122990000D01*
X134240000Y-127010000D02*
X133260000Y-127010000D01*
X115240000Y-122490000D02*
X114260000Y-122490000D01*
X115240000Y-126510000D02*
X114260000Y-126510000D01*
X157300000Y-89850000D02*
X154750000Y-89850000D01*
X157300000Y-88150000D02*
X154750000Y-88150000D01*
X157300000Y-89850000D02*
X157300000Y-88150000D01*
X174374721Y-111010000D02*
X174700279Y-111010000D01*
X174374721Y-109990000D02*
X174700279Y-109990000D01*
X126760000Y-120662779D02*
X126760000Y-120337221D01*
X125740000Y-120662779D02*
X125740000Y-120337221D01*
X129760000Y-120662779D02*
X129760000Y-120337221D01*
X128740000Y-120662779D02*
X128740000Y-120337221D01*
X138760000Y-116875279D02*
X138760000Y-116549721D01*
X137740000Y-116875279D02*
X137740000Y-116549721D01*
X119760000Y-116662779D02*
X119760000Y-116337221D01*
X118740000Y-116662779D02*
X118740000Y-116337221D01*
X141760000Y-120662779D02*
X141760000Y-120337221D01*
X140740000Y-120662779D02*
X140740000Y-120337221D01*
X122760000Y-120375279D02*
X122760000Y-120049721D01*
X121740000Y-120375279D02*
X121740000Y-120049721D01*
X122815000Y-102940000D02*
X122815000Y-106850000D01*
X124685000Y-102940000D02*
X122815000Y-102940000D01*
X124685000Y-106850000D02*
X124685000Y-102940000D01*
X142315000Y-78840000D02*
X142315000Y-82750000D01*
X144185000Y-78840000D02*
X142315000Y-78840000D01*
X144185000Y-82750000D02*
X144185000Y-78840000D01*
X140240000Y-80124721D02*
X140240000Y-80450279D01*
X141260000Y-80124721D02*
X141260000Y-80450279D01*
X153874721Y-91510000D02*
X154200279Y-91510000D01*
X153874721Y-90490000D02*
X154200279Y-90490000D01*
X159185000Y-85960000D02*
X159185000Y-82050000D01*
X157315000Y-85960000D02*
X159185000Y-85960000D01*
X157315000Y-82050000D02*
X157315000Y-85960000D01*
X156260000Y-84662779D02*
X156260000Y-84337221D01*
X155240000Y-84662779D02*
X155240000Y-84337221D01*
D10*
X116952380Y-81642857D02*
X116476190Y-81976190D01*
X116952380Y-82214285D02*
X115952380Y-82214285D01*
X115952380Y-81833333D01*
X116000000Y-81738095D01*
X116047619Y-81690476D01*
X116142857Y-81642857D01*
X116285714Y-81642857D01*
X116380952Y-81690476D01*
X116428571Y-81738095D01*
X116476190Y-81833333D01*
X116476190Y-82214285D01*
X116952380Y-80690476D02*
X116952380Y-81261904D01*
X116952380Y-80976190D02*
X115952380Y-80976190D01*
X116095238Y-81071428D01*
X116190476Y-81166666D01*
X116238095Y-81261904D01*
X116952380Y-79738095D02*
X116952380Y-80309523D01*
X116952380Y-80023809D02*
X115952380Y-80023809D01*
X116095238Y-80119047D01*
X116190476Y-80214285D01*
X116238095Y-80309523D01*
X108952380Y-81166666D02*
X108476190Y-81500000D01*
X108952380Y-81738095D02*
X107952380Y-81738095D01*
X107952380Y-81357142D01*
X108000000Y-81261904D01*
X108047619Y-81214285D01*
X108142857Y-81166666D01*
X108285714Y-81166666D01*
X108380952Y-81214285D01*
X108428571Y-81261904D01*
X108476190Y-81357142D01*
X108476190Y-81738095D01*
X108952380Y-80690476D02*
X108952380Y-80500000D01*
X108904761Y-80404761D01*
X108857142Y-80357142D01*
X108714285Y-80261904D01*
X108523809Y-80214285D01*
X108142857Y-80214285D01*
X108047619Y-80261904D01*
X108000000Y-80309523D01*
X107952380Y-80404761D01*
X107952380Y-80595238D01*
X108000000Y-80690476D01*
X108047619Y-80738095D01*
X108142857Y-80785714D01*
X108380952Y-80785714D01*
X108476190Y-80738095D01*
X108523809Y-80690476D01*
X108571428Y-80595238D01*
X108571428Y-80404761D01*
X108523809Y-80309523D01*
X108476190Y-80261904D01*
X108380952Y-80214285D01*
X108952380Y-88916666D02*
X108476190Y-89250000D01*
X108952380Y-89488095D02*
X107952380Y-89488095D01*
X107952380Y-89107142D01*
X108000000Y-89011904D01*
X108047619Y-88964285D01*
X108142857Y-88916666D01*
X108285714Y-88916666D01*
X108380952Y-88964285D01*
X108428571Y-89011904D01*
X108476190Y-89107142D01*
X108476190Y-89488095D01*
X107952380Y-88583333D02*
X107952380Y-87916666D01*
X108952380Y-88345238D01*
X116952380Y-88931666D02*
X116476190Y-89265000D01*
X116952380Y-89503095D02*
X115952380Y-89503095D01*
X115952380Y-89122142D01*
X116000000Y-89026904D01*
X116047619Y-88979285D01*
X116142857Y-88931666D01*
X116285714Y-88931666D01*
X116380952Y-88979285D01*
X116428571Y-89026904D01*
X116476190Y-89122142D01*
X116476190Y-89503095D01*
X115952380Y-88074523D02*
X115952380Y-88265000D01*
X116000000Y-88360238D01*
X116047619Y-88407857D01*
X116190476Y-88503095D01*
X116380952Y-88550714D01*
X116761904Y-88550714D01*
X116857142Y-88503095D01*
X116904761Y-88455476D01*
X116952380Y-88360238D01*
X116952380Y-88169761D01*
X116904761Y-88074523D01*
X116857142Y-88026904D01*
X116761904Y-87979285D01*
X116523809Y-87979285D01*
X116428571Y-88026904D01*
X116380952Y-88074523D01*
X116333333Y-88169761D01*
X116333333Y-88360238D01*
X116380952Y-88455476D01*
X116428571Y-88503095D01*
X116523809Y-88550714D01*
X119598333Y-89872380D02*
X119265000Y-89396190D01*
X119026904Y-89872380D02*
X119026904Y-88872380D01*
X119407857Y-88872380D01*
X119503095Y-88920000D01*
X119550714Y-88967619D01*
X119598333Y-89062857D01*
X119598333Y-89205714D01*
X119550714Y-89300952D01*
X119503095Y-89348571D01*
X119407857Y-89396190D01*
X119026904Y-89396190D01*
X120503095Y-88872380D02*
X120026904Y-88872380D01*
X119979285Y-89348571D01*
X120026904Y-89300952D01*
X120122142Y-89253333D01*
X120360238Y-89253333D01*
X120455476Y-89300952D01*
X120503095Y-89348571D01*
X120550714Y-89443809D01*
X120550714Y-89681904D01*
X120503095Y-89777142D01*
X120455476Y-89824761D01*
X120360238Y-89872380D01*
X120122142Y-89872380D01*
X120026904Y-89824761D01*
X119979285Y-89777142D01*
X118347619Y-85845238D02*
X118300000Y-85940476D01*
X118204761Y-86035714D01*
X118061904Y-86178571D01*
X118014285Y-86273809D01*
X118014285Y-86369047D01*
X118252380Y-86321428D02*
X118204761Y-86416666D01*
X118109523Y-86511904D01*
X117919047Y-86559523D01*
X117585714Y-86559523D01*
X117395238Y-86511904D01*
X117300000Y-86416666D01*
X117252380Y-86321428D01*
X117252380Y-86130952D01*
X117300000Y-86035714D01*
X117395238Y-85940476D01*
X117585714Y-85892857D01*
X117919047Y-85892857D01*
X118109523Y-85940476D01*
X118204761Y-86035714D01*
X118252380Y-86130952D01*
X118252380Y-86321428D01*
X118252380Y-84940476D02*
X118252380Y-85511904D01*
X118252380Y-85226190D02*
X117252380Y-85226190D01*
X117395238Y-85321428D01*
X117490476Y-85416666D01*
X117538095Y-85511904D01*
X119107142Y-82202380D02*
X118773809Y-81726190D01*
X118535714Y-82202380D02*
X118535714Y-81202380D01*
X118916666Y-81202380D01*
X119011904Y-81250000D01*
X119059523Y-81297619D01*
X119107142Y-81392857D01*
X119107142Y-81535714D01*
X119059523Y-81630952D01*
X119011904Y-81678571D01*
X118916666Y-81726190D01*
X118535714Y-81726190D01*
X120059523Y-82202380D02*
X119488095Y-82202380D01*
X119773809Y-82202380D02*
X119773809Y-81202380D01*
X119678571Y-81345238D01*
X119583333Y-81440476D01*
X119488095Y-81488095D01*
X120440476Y-81297619D02*
X120488095Y-81250000D01*
X120583333Y-81202380D01*
X120821428Y-81202380D01*
X120916666Y-81250000D01*
X120964285Y-81297619D01*
X121011904Y-81392857D01*
X121011904Y-81488095D01*
X120964285Y-81630952D01*
X120392857Y-82202380D01*
X121011904Y-82202380D01*
X111107142Y-82202380D02*
X110773809Y-81726190D01*
X110535714Y-82202380D02*
X110535714Y-81202380D01*
X110916666Y-81202380D01*
X111011904Y-81250000D01*
X111059523Y-81297619D01*
X111107142Y-81392857D01*
X111107142Y-81535714D01*
X111059523Y-81630952D01*
X111011904Y-81678571D01*
X110916666Y-81726190D01*
X110535714Y-81726190D01*
X112059523Y-82202380D02*
X111488095Y-82202380D01*
X111773809Y-82202380D02*
X111773809Y-81202380D01*
X111678571Y-81345238D01*
X111583333Y-81440476D01*
X111488095Y-81488095D01*
X112678571Y-81202380D02*
X112773809Y-81202380D01*
X112869047Y-81250000D01*
X112916666Y-81297619D01*
X112964285Y-81392857D01*
X113011904Y-81583333D01*
X113011904Y-81821428D01*
X112964285Y-82011904D01*
X112916666Y-82107142D01*
X112869047Y-82154761D01*
X112773809Y-82202380D01*
X112678571Y-82202380D01*
X112583333Y-82154761D01*
X112535714Y-82107142D01*
X112488095Y-82011904D01*
X112440476Y-81821428D01*
X112440476Y-81583333D01*
X112488095Y-81392857D01*
X112535714Y-81297619D01*
X112583333Y-81250000D01*
X112678571Y-81202380D01*
X111583333Y-89952380D02*
X111250000Y-89476190D01*
X111011904Y-89952380D02*
X111011904Y-88952380D01*
X111392857Y-88952380D01*
X111488095Y-89000000D01*
X111535714Y-89047619D01*
X111583333Y-89142857D01*
X111583333Y-89285714D01*
X111535714Y-89380952D01*
X111488095Y-89428571D01*
X111392857Y-89476190D01*
X111011904Y-89476190D01*
X112154761Y-89380952D02*
X112059523Y-89333333D01*
X112011904Y-89285714D01*
X111964285Y-89190476D01*
X111964285Y-89142857D01*
X112011904Y-89047619D01*
X112059523Y-89000000D01*
X112154761Y-88952380D01*
X112345238Y-88952380D01*
X112440476Y-89000000D01*
X112488095Y-89047619D01*
X112535714Y-89142857D01*
X112535714Y-89190476D01*
X112488095Y-89285714D01*
X112440476Y-89333333D01*
X112345238Y-89380952D01*
X112154761Y-89380952D01*
X112059523Y-89428571D01*
X112011904Y-89476190D01*
X111964285Y-89571428D01*
X111964285Y-89761904D01*
X112011904Y-89857142D01*
X112059523Y-89904761D01*
X112154761Y-89952380D01*
X112345238Y-89952380D01*
X112440476Y-89904761D01*
X112488095Y-89857142D01*
X112535714Y-89761904D01*
X112535714Y-89571428D01*
X112488095Y-89476190D01*
X112440476Y-89428571D01*
X112345238Y-89380952D01*
X118297619Y-78095238D02*
X118250000Y-78190476D01*
X118154761Y-78285714D01*
X118011904Y-78428571D01*
X117964285Y-78523809D01*
X117964285Y-78619047D01*
X118202380Y-78571428D02*
X118154761Y-78666666D01*
X118059523Y-78761904D01*
X117869047Y-78809523D01*
X117535714Y-78809523D01*
X117345238Y-78761904D01*
X117250000Y-78666666D01*
X117202380Y-78571428D01*
X117202380Y-78380952D01*
X117250000Y-78285714D01*
X117345238Y-78190476D01*
X117535714Y-78142857D01*
X117869047Y-78142857D01*
X118059523Y-78190476D01*
X118154761Y-78285714D01*
X118202380Y-78380952D01*
X118202380Y-78571428D01*
X117535714Y-77285714D02*
X118202380Y-77285714D01*
X117154761Y-77523809D02*
X117869047Y-77761904D01*
X117869047Y-77142857D01*
X110297619Y-78095238D02*
X110250000Y-78190476D01*
X110154761Y-78285714D01*
X110011904Y-78428571D01*
X109964285Y-78523809D01*
X109964285Y-78619047D01*
X110202380Y-78571428D02*
X110154761Y-78666666D01*
X110059523Y-78761904D01*
X109869047Y-78809523D01*
X109535714Y-78809523D01*
X109345238Y-78761904D01*
X109250000Y-78666666D01*
X109202380Y-78571428D01*
X109202380Y-78380952D01*
X109250000Y-78285714D01*
X109345238Y-78190476D01*
X109535714Y-78142857D01*
X109869047Y-78142857D01*
X110059523Y-78190476D01*
X110154761Y-78285714D01*
X110202380Y-78380952D01*
X110202380Y-78571428D01*
X109202380Y-77809523D02*
X109202380Y-77190476D01*
X109583333Y-77523809D01*
X109583333Y-77380952D01*
X109630952Y-77285714D01*
X109678571Y-77238095D01*
X109773809Y-77190476D01*
X110011904Y-77190476D01*
X110107142Y-77238095D01*
X110154761Y-77285714D01*
X110202380Y-77380952D01*
X110202380Y-77666666D01*
X110154761Y-77761904D01*
X110107142Y-77809523D01*
X110297619Y-85845238D02*
X110250000Y-85940476D01*
X110154761Y-86035714D01*
X110011904Y-86178571D01*
X109964285Y-86273809D01*
X109964285Y-86369047D01*
X110202380Y-86321428D02*
X110154761Y-86416666D01*
X110059523Y-86511904D01*
X109869047Y-86559523D01*
X109535714Y-86559523D01*
X109345238Y-86511904D01*
X109250000Y-86416666D01*
X109202380Y-86321428D01*
X109202380Y-86130952D01*
X109250000Y-86035714D01*
X109345238Y-85940476D01*
X109535714Y-85892857D01*
X109869047Y-85892857D01*
X110059523Y-85940476D01*
X110154761Y-86035714D01*
X110202380Y-86130952D01*
X110202380Y-86321428D01*
X109297619Y-85511904D02*
X109250000Y-85464285D01*
X109202380Y-85369047D01*
X109202380Y-85130952D01*
X109250000Y-85035714D01*
X109297619Y-84988095D01*
X109392857Y-84940476D01*
X109488095Y-84940476D01*
X109630952Y-84988095D01*
X110202380Y-85559523D01*
X110202380Y-84940476D01*
X157222380Y-142988333D02*
X157936666Y-142988333D01*
X158079523Y-143035952D01*
X158174761Y-143131190D01*
X158222380Y-143274047D01*
X158222380Y-143369285D01*
X158222380Y-141988333D02*
X158222380Y-142559761D01*
X158222380Y-142274047D02*
X157222380Y-142274047D01*
X157365238Y-142369285D01*
X157460476Y-142464523D01*
X157508095Y-142559761D01*
X106177142Y-120642857D02*
X106224761Y-120690476D01*
X106272380Y-120833333D01*
X106272380Y-120928571D01*
X106224761Y-121071428D01*
X106129523Y-121166666D01*
X106034285Y-121214285D01*
X105843809Y-121261904D01*
X105700952Y-121261904D01*
X105510476Y-121214285D01*
X105415238Y-121166666D01*
X105320000Y-121071428D01*
X105272380Y-120928571D01*
X105272380Y-120833333D01*
X105320000Y-120690476D01*
X105367619Y-120642857D01*
X106272380Y-119690476D02*
X106272380Y-120261904D01*
X106272380Y-119976190D02*
X105272380Y-119976190D01*
X105415238Y-120071428D01*
X105510476Y-120166666D01*
X105558095Y-120261904D01*
X105605714Y-118833333D02*
X106272380Y-118833333D01*
X105224761Y-119071428D02*
X105939047Y-119309523D01*
X105939047Y-118690476D01*
X109177142Y-120642857D02*
X109224761Y-120690476D01*
X109272380Y-120833333D01*
X109272380Y-120928571D01*
X109224761Y-121071428D01*
X109129523Y-121166666D01*
X109034285Y-121214285D01*
X108843809Y-121261904D01*
X108700952Y-121261904D01*
X108510476Y-121214285D01*
X108415238Y-121166666D01*
X108320000Y-121071428D01*
X108272380Y-120928571D01*
X108272380Y-120833333D01*
X108320000Y-120690476D01*
X108367619Y-120642857D01*
X109272380Y-119690476D02*
X109272380Y-120261904D01*
X109272380Y-119976190D02*
X108272380Y-119976190D01*
X108415238Y-120071428D01*
X108510476Y-120166666D01*
X108558095Y-120261904D01*
X108367619Y-119309523D02*
X108320000Y-119261904D01*
X108272380Y-119166666D01*
X108272380Y-118928571D01*
X108320000Y-118833333D01*
X108367619Y-118785714D01*
X108462857Y-118738095D01*
X108558095Y-118738095D01*
X108700952Y-118785714D01*
X109272380Y-119357142D01*
X109272380Y-118738095D01*
X107682380Y-66603333D02*
X108396666Y-66603333D01*
X108539523Y-66650952D01*
X108634761Y-66746190D01*
X108682380Y-66889047D01*
X108682380Y-66984285D01*
X107682380Y-65698571D02*
X107682380Y-65889047D01*
X107730000Y-65984285D01*
X107777619Y-66031904D01*
X107920476Y-66127142D01*
X108110952Y-66174761D01*
X108491904Y-66174761D01*
X108587142Y-66127142D01*
X108634761Y-66079523D01*
X108682380Y-65984285D01*
X108682380Y-65793809D01*
X108634761Y-65698571D01*
X108587142Y-65650952D01*
X108491904Y-65603333D01*
X108253809Y-65603333D01*
X108158571Y-65650952D01*
X108110952Y-65698571D01*
X108063333Y-65793809D01*
X108063333Y-65984285D01*
X108110952Y-66079523D01*
X108158571Y-66127142D01*
X108253809Y-66174761D01*
X126682380Y-66603333D02*
X127396666Y-66603333D01*
X127539523Y-66650952D01*
X127634761Y-66746190D01*
X127682380Y-66889047D01*
X127682380Y-66984285D01*
X126682380Y-65650952D02*
X126682380Y-66127142D01*
X127158571Y-66174761D01*
X127110952Y-66127142D01*
X127063333Y-66031904D01*
X127063333Y-65793809D01*
X127110952Y-65698571D01*
X127158571Y-65650952D01*
X127253809Y-65603333D01*
X127491904Y-65603333D01*
X127587142Y-65650952D01*
X127634761Y-65698571D01*
X127682380Y-65793809D01*
X127682380Y-66031904D01*
X127634761Y-66127142D01*
X127587142Y-66174761D01*
X169702380Y-105642857D02*
X169226190Y-105976190D01*
X169702380Y-106214285D02*
X168702380Y-106214285D01*
X168702380Y-105833333D01*
X168750000Y-105738095D01*
X168797619Y-105690476D01*
X168892857Y-105642857D01*
X169035714Y-105642857D01*
X169130952Y-105690476D01*
X169178571Y-105738095D01*
X169226190Y-105833333D01*
X169226190Y-106214285D01*
X168797619Y-105261904D02*
X168750000Y-105214285D01*
X168702380Y-105119047D01*
X168702380Y-104880952D01*
X168750000Y-104785714D01*
X168797619Y-104738095D01*
X168892857Y-104690476D01*
X168988095Y-104690476D01*
X169130952Y-104738095D01*
X169702380Y-105309523D01*
X169702380Y-104690476D01*
X168702380Y-103785714D02*
X168702380Y-104261904D01*
X169178571Y-104309523D01*
X169130952Y-104261904D01*
X169083333Y-104166666D01*
X169083333Y-103928571D01*
X169130952Y-103833333D01*
X169178571Y-103785714D01*
X169273809Y-103738095D01*
X169511904Y-103738095D01*
X169607142Y-103785714D01*
X169654761Y-103833333D01*
X169702380Y-103928571D01*
X169702380Y-104166666D01*
X169654761Y-104261904D01*
X169607142Y-104309523D01*
X137857142Y-110107142D02*
X137809523Y-110154761D01*
X137666666Y-110202380D01*
X137571428Y-110202380D01*
X137428571Y-110154761D01*
X137333333Y-110059523D01*
X137285714Y-109964285D01*
X137238095Y-109773809D01*
X137238095Y-109630952D01*
X137285714Y-109440476D01*
X137333333Y-109345238D01*
X137428571Y-109250000D01*
X137571428Y-109202380D01*
X137666666Y-109202380D01*
X137809523Y-109250000D01*
X137857142Y-109297619D01*
X138190476Y-109202380D02*
X138809523Y-109202380D01*
X138476190Y-109583333D01*
X138619047Y-109583333D01*
X138714285Y-109630952D01*
X138761904Y-109678571D01*
X138809523Y-109773809D01*
X138809523Y-110011904D01*
X138761904Y-110107142D01*
X138714285Y-110154761D01*
X138619047Y-110202380D01*
X138333333Y-110202380D01*
X138238095Y-110154761D01*
X138190476Y-110107142D01*
X139666666Y-109535714D02*
X139666666Y-110202380D01*
X139428571Y-109154761D02*
X139190476Y-109869047D01*
X139809523Y-109869047D01*
X150173809Y-72426190D02*
X150173809Y-72902380D01*
X149840476Y-71902380D02*
X150173809Y-72426190D01*
X150507142Y-71902380D01*
X150792857Y-71997619D02*
X150840476Y-71950000D01*
X150935714Y-71902380D01*
X151173809Y-71902380D01*
X151269047Y-71950000D01*
X151316666Y-71997619D01*
X151364285Y-72092857D01*
X151364285Y-72188095D01*
X151316666Y-72330952D01*
X150745238Y-72902380D01*
X151364285Y-72902380D01*
X142273809Y-90726190D02*
X142273809Y-91202380D01*
X141940476Y-90202380D02*
X142273809Y-90726190D01*
X142607142Y-90202380D01*
X143464285Y-91202380D02*
X142892857Y-91202380D01*
X143178571Y-91202380D02*
X143178571Y-90202380D01*
X143083333Y-90345238D01*
X142988095Y-90440476D01*
X142892857Y-90488095D01*
X121857142Y-101142857D02*
X121904761Y-101190476D01*
X121952380Y-101333333D01*
X121952380Y-101428571D01*
X121904761Y-101571428D01*
X121809523Y-101666666D01*
X121714285Y-101714285D01*
X121523809Y-101761904D01*
X121380952Y-101761904D01*
X121190476Y-101714285D01*
X121095238Y-101666666D01*
X121000000Y-101571428D01*
X120952380Y-101428571D01*
X120952380Y-101333333D01*
X121000000Y-101190476D01*
X121047619Y-101142857D01*
X121952380Y-100190476D02*
X121952380Y-100761904D01*
X121952380Y-100476190D02*
X120952380Y-100476190D01*
X121095238Y-100571428D01*
X121190476Y-100666666D01*
X121238095Y-100761904D01*
X120952380Y-99857142D02*
X120952380Y-99190476D01*
X121952380Y-99619047D01*
X178281904Y-79392380D02*
X178281904Y-80201904D01*
X178329523Y-80297142D01*
X178377142Y-80344761D01*
X178472380Y-80392380D01*
X178662857Y-80392380D01*
X178758095Y-80344761D01*
X178805714Y-80297142D01*
X178853333Y-80201904D01*
X178853333Y-79392380D01*
X179853333Y-80392380D02*
X179281904Y-80392380D01*
X179567619Y-80392380D02*
X179567619Y-79392380D01*
X179472380Y-79535238D01*
X179377142Y-79630476D01*
X179281904Y-79678095D01*
X180186666Y-79392380D02*
X180805714Y-79392380D01*
X180472380Y-79773333D01*
X180615238Y-79773333D01*
X180710476Y-79820952D01*
X180758095Y-79868571D01*
X180805714Y-79963809D01*
X180805714Y-80201904D01*
X180758095Y-80297142D01*
X180710476Y-80344761D01*
X180615238Y-80392380D01*
X180329523Y-80392380D01*
X180234285Y-80344761D01*
X180186666Y-80297142D01*
X178281904Y-71892380D02*
X178281904Y-72701904D01*
X178329523Y-72797142D01*
X178377142Y-72844761D01*
X178472380Y-72892380D01*
X178662857Y-72892380D01*
X178758095Y-72844761D01*
X178805714Y-72797142D01*
X178853333Y-72701904D01*
X178853333Y-71892380D01*
X179853333Y-72892380D02*
X179281904Y-72892380D01*
X179567619Y-72892380D02*
X179567619Y-71892380D01*
X179472380Y-72035238D01*
X179377142Y-72130476D01*
X179281904Y-72178095D01*
X180234285Y-71987619D02*
X180281904Y-71940000D01*
X180377142Y-71892380D01*
X180615238Y-71892380D01*
X180710476Y-71940000D01*
X180758095Y-71987619D01*
X180805714Y-72082857D01*
X180805714Y-72178095D01*
X180758095Y-72320952D01*
X180186666Y-72892380D01*
X180805714Y-72892380D01*
X170935236Y-79392380D02*
X170935236Y-80201904D01*
X170982855Y-80297142D01*
X171030474Y-80344761D01*
X171125712Y-80392380D01*
X171316189Y-80392380D01*
X171411427Y-80344761D01*
X171459046Y-80297142D01*
X171506665Y-80201904D01*
X171506665Y-79392380D01*
X172506665Y-80392380D02*
X171935236Y-80392380D01*
X172220951Y-80392380D02*
X172220951Y-79392380D01*
X172125712Y-79535238D01*
X172030474Y-79630476D01*
X171935236Y-79678095D01*
X173459046Y-80392380D02*
X172887617Y-80392380D01*
X173173332Y-80392380D02*
X173173332Y-79392380D01*
X173078093Y-79535238D01*
X172982855Y-79630476D01*
X172887617Y-79678095D01*
X171411427Y-71892380D02*
X171411427Y-72701904D01*
X171459046Y-72797142D01*
X171506665Y-72844761D01*
X171601903Y-72892380D01*
X171792379Y-72892380D01*
X171887617Y-72844761D01*
X171935236Y-72797142D01*
X171982855Y-72701904D01*
X171982855Y-71892380D01*
X172601903Y-72320952D02*
X172506665Y-72273333D01*
X172459046Y-72225714D01*
X172411427Y-72130476D01*
X172411427Y-72082857D01*
X172459046Y-71987619D01*
X172506665Y-71940000D01*
X172601903Y-71892380D01*
X172792379Y-71892380D01*
X172887617Y-71940000D01*
X172935236Y-71987619D01*
X172982855Y-72082857D01*
X172982855Y-72130476D01*
X172935236Y-72225714D01*
X172887617Y-72273333D01*
X172792379Y-72320952D01*
X172601903Y-72320952D01*
X172506665Y-72368571D01*
X172459046Y-72416190D01*
X172411427Y-72511428D01*
X172411427Y-72701904D01*
X172459046Y-72797142D01*
X172506665Y-72844761D01*
X172601903Y-72892380D01*
X172792379Y-72892380D01*
X172887617Y-72844761D01*
X172935236Y-72797142D01*
X172982855Y-72701904D01*
X172982855Y-72511428D01*
X172935236Y-72416190D01*
X172887617Y-72368571D01*
X172792379Y-72320952D01*
X155324761Y-130333333D02*
X155372380Y-130190476D01*
X155372380Y-129952380D01*
X155324761Y-129857142D01*
X155277142Y-129809523D01*
X155181904Y-129761904D01*
X155086666Y-129761904D01*
X154991428Y-129809523D01*
X154943809Y-129857142D01*
X154896190Y-129952380D01*
X154848571Y-130142857D01*
X154800952Y-130238095D01*
X154753333Y-130285714D01*
X154658095Y-130333333D01*
X154562857Y-130333333D01*
X154467619Y-130285714D01*
X154420000Y-130238095D01*
X154372380Y-130142857D01*
X154372380Y-129904761D01*
X154420000Y-129761904D01*
X154372380Y-129428571D02*
X155372380Y-129190476D01*
X154658095Y-129000000D01*
X155372380Y-128809523D01*
X154372380Y-128571428D01*
X154467619Y-128238095D02*
X154420000Y-128190476D01*
X154372380Y-128095238D01*
X154372380Y-127857142D01*
X154420000Y-127761904D01*
X154467619Y-127714285D01*
X154562857Y-127666666D01*
X154658095Y-127666666D01*
X154800952Y-127714285D01*
X155372380Y-128285714D01*
X155372380Y-127666666D01*
X146324761Y-130333333D02*
X146372380Y-130190476D01*
X146372380Y-129952380D01*
X146324761Y-129857142D01*
X146277142Y-129809523D01*
X146181904Y-129761904D01*
X146086666Y-129761904D01*
X145991428Y-129809523D01*
X145943809Y-129857142D01*
X145896190Y-129952380D01*
X145848571Y-130142857D01*
X145800952Y-130238095D01*
X145753333Y-130285714D01*
X145658095Y-130333333D01*
X145562857Y-130333333D01*
X145467619Y-130285714D01*
X145420000Y-130238095D01*
X145372380Y-130142857D01*
X145372380Y-129904761D01*
X145420000Y-129761904D01*
X145372380Y-129428571D02*
X146372380Y-129190476D01*
X145658095Y-129000000D01*
X146372380Y-128809523D01*
X145372380Y-128571428D01*
X146372380Y-127666666D02*
X146372380Y-128238095D01*
X146372380Y-127952380D02*
X145372380Y-127952380D01*
X145515238Y-128047619D01*
X145610476Y-128142857D01*
X145658095Y-128238095D01*
X181574761Y-118976188D02*
X181622380Y-118833331D01*
X181622380Y-118595236D01*
X181574761Y-118499998D01*
X181527142Y-118452379D01*
X181431904Y-118404760D01*
X181336666Y-118404760D01*
X181241428Y-118452379D01*
X181193809Y-118499998D01*
X181146190Y-118595236D01*
X181098571Y-118785712D01*
X181050952Y-118880950D01*
X181003333Y-118928569D01*
X180908095Y-118976188D01*
X180812857Y-118976188D01*
X180717619Y-118928569D01*
X180670000Y-118880950D01*
X180622380Y-118785712D01*
X180622380Y-118547617D01*
X180670000Y-118404760D01*
X181527142Y-117404760D02*
X181574761Y-117452379D01*
X181622380Y-117595236D01*
X181622380Y-117690474D01*
X181574761Y-117833331D01*
X181479523Y-117928569D01*
X181384285Y-117976188D01*
X181193809Y-118023807D01*
X181050952Y-118023807D01*
X180860476Y-117976188D01*
X180765238Y-117928569D01*
X180670000Y-117833331D01*
X180622380Y-117690474D01*
X180622380Y-117595236D01*
X180670000Y-117452379D01*
X180717619Y-117404760D01*
X180955714Y-116547617D02*
X181622380Y-116547617D01*
X180574761Y-116785712D02*
X181289047Y-117023807D01*
X181289047Y-116404760D01*
X181574761Y-123333330D02*
X181622380Y-123190473D01*
X181622380Y-122952378D01*
X181574761Y-122857140D01*
X181527142Y-122809521D01*
X181431904Y-122761902D01*
X181336666Y-122761902D01*
X181241428Y-122809521D01*
X181193809Y-122857140D01*
X181146190Y-122952378D01*
X181098571Y-123142854D01*
X181050952Y-123238092D01*
X181003333Y-123285711D01*
X180908095Y-123333330D01*
X180812857Y-123333330D01*
X180717619Y-123285711D01*
X180670000Y-123238092D01*
X180622380Y-123142854D01*
X180622380Y-122904759D01*
X180670000Y-122761902D01*
X181527142Y-121761902D02*
X181574761Y-121809521D01*
X181622380Y-121952378D01*
X181622380Y-122047616D01*
X181574761Y-122190473D01*
X181479523Y-122285711D01*
X181384285Y-122333330D01*
X181193809Y-122380949D01*
X181050952Y-122380949D01*
X180860476Y-122333330D01*
X180765238Y-122285711D01*
X180670000Y-122190473D01*
X180622380Y-122047616D01*
X180622380Y-121952378D01*
X180670000Y-121809521D01*
X180717619Y-121761902D01*
X180622380Y-121428568D02*
X180622380Y-120809521D01*
X181003333Y-121142854D01*
X181003333Y-120999997D01*
X181050952Y-120904759D01*
X181098571Y-120857140D01*
X181193809Y-120809521D01*
X181431904Y-120809521D01*
X181527142Y-120857140D01*
X181574761Y-120904759D01*
X181622380Y-120999997D01*
X181622380Y-121285711D01*
X181574761Y-121380949D01*
X181527142Y-121428568D01*
X181574761Y-127690472D02*
X181622380Y-127547615D01*
X181622380Y-127309520D01*
X181574761Y-127214282D01*
X181527142Y-127166663D01*
X181431904Y-127119044D01*
X181336666Y-127119044D01*
X181241428Y-127166663D01*
X181193809Y-127214282D01*
X181146190Y-127309520D01*
X181098571Y-127499996D01*
X181050952Y-127595234D01*
X181003333Y-127642853D01*
X180908095Y-127690472D01*
X180812857Y-127690472D01*
X180717619Y-127642853D01*
X180670000Y-127595234D01*
X180622380Y-127499996D01*
X180622380Y-127261901D01*
X180670000Y-127119044D01*
X181527142Y-126119044D02*
X181574761Y-126166663D01*
X181622380Y-126309520D01*
X181622380Y-126404758D01*
X181574761Y-126547615D01*
X181479523Y-126642853D01*
X181384285Y-126690472D01*
X181193809Y-126738091D01*
X181050952Y-126738091D01*
X180860476Y-126690472D01*
X180765238Y-126642853D01*
X180670000Y-126547615D01*
X180622380Y-126404758D01*
X180622380Y-126309520D01*
X180670000Y-126166663D01*
X180717619Y-126119044D01*
X180717619Y-125738091D02*
X180670000Y-125690472D01*
X180622380Y-125595234D01*
X180622380Y-125357139D01*
X180670000Y-125261901D01*
X180717619Y-125214282D01*
X180812857Y-125166663D01*
X180908095Y-125166663D01*
X181050952Y-125214282D01*
X181622380Y-125785710D01*
X181622380Y-125166663D01*
X181574761Y-132047614D02*
X181622380Y-131904757D01*
X181622380Y-131666662D01*
X181574761Y-131571424D01*
X181527142Y-131523805D01*
X181431904Y-131476186D01*
X181336666Y-131476186D01*
X181241428Y-131523805D01*
X181193809Y-131571424D01*
X181146190Y-131666662D01*
X181098571Y-131857138D01*
X181050952Y-131952376D01*
X181003333Y-131999995D01*
X180908095Y-132047614D01*
X180812857Y-132047614D01*
X180717619Y-131999995D01*
X180670000Y-131952376D01*
X180622380Y-131857138D01*
X180622380Y-131619043D01*
X180670000Y-131476186D01*
X181527142Y-130476186D02*
X181574761Y-130523805D01*
X181622380Y-130666662D01*
X181622380Y-130761900D01*
X181574761Y-130904757D01*
X181479523Y-130999995D01*
X181384285Y-131047614D01*
X181193809Y-131095233D01*
X181050952Y-131095233D01*
X180860476Y-131047614D01*
X180765238Y-130999995D01*
X180670000Y-130904757D01*
X180622380Y-130761900D01*
X180622380Y-130666662D01*
X180670000Y-130523805D01*
X180717619Y-130476186D01*
X181622380Y-129523805D02*
X181622380Y-130095233D01*
X181622380Y-129809519D02*
X180622380Y-129809519D01*
X180765238Y-129904757D01*
X180860476Y-129999995D01*
X180908095Y-130095233D01*
X169511904Y-99452380D02*
X169511904Y-100261904D01*
X169559523Y-100357142D01*
X169607142Y-100404761D01*
X169702380Y-100452380D01*
X169892857Y-100452380D01*
X169988095Y-100404761D01*
X170035714Y-100357142D01*
X170083333Y-100261904D01*
X170083333Y-99452380D01*
X171083333Y-100452380D02*
X170511904Y-100452380D01*
X170797619Y-100452380D02*
X170797619Y-99452380D01*
X170702380Y-99595238D01*
X170607142Y-99690476D01*
X170511904Y-99738095D01*
X171940476Y-99785714D02*
X171940476Y-100452380D01*
X171702380Y-99404761D02*
X171464285Y-100119047D01*
X172083333Y-100119047D01*
X177607142Y-94282380D02*
X177273809Y-93806190D01*
X177035714Y-94282380D02*
X177035714Y-93282380D01*
X177416666Y-93282380D01*
X177511904Y-93330000D01*
X177559523Y-93377619D01*
X177607142Y-93472857D01*
X177607142Y-93615714D01*
X177559523Y-93710952D01*
X177511904Y-93758571D01*
X177416666Y-93806190D01*
X177035714Y-93806190D01*
X177940476Y-93282380D02*
X178559523Y-93282380D01*
X178226190Y-93663333D01*
X178369047Y-93663333D01*
X178464285Y-93710952D01*
X178511904Y-93758571D01*
X178559523Y-93853809D01*
X178559523Y-94091904D01*
X178511904Y-94187142D01*
X178464285Y-94234761D01*
X178369047Y-94282380D01*
X178083333Y-94282380D01*
X177988095Y-94234761D01*
X177940476Y-94187142D01*
X179511904Y-94282380D02*
X178940476Y-94282380D01*
X179226190Y-94282380D02*
X179226190Y-93282380D01*
X179130952Y-93425238D01*
X179035714Y-93520476D01*
X178940476Y-93568095D01*
X176202380Y-93642857D02*
X175726190Y-93976190D01*
X176202380Y-94214285D02*
X175202380Y-94214285D01*
X175202380Y-93833333D01*
X175250000Y-93738095D01*
X175297619Y-93690476D01*
X175392857Y-93642857D01*
X175535714Y-93642857D01*
X175630952Y-93690476D01*
X175678571Y-93738095D01*
X175726190Y-93833333D01*
X175726190Y-94214285D01*
X175202380Y-93309523D02*
X175202380Y-92690476D01*
X175583333Y-93023809D01*
X175583333Y-92880952D01*
X175630952Y-92785714D01*
X175678571Y-92738095D01*
X175773809Y-92690476D01*
X176011904Y-92690476D01*
X176107142Y-92738095D01*
X176154761Y-92785714D01*
X176202380Y-92880952D01*
X176202380Y-93166666D01*
X176154761Y-93261904D01*
X176107142Y-93309523D01*
X175202380Y-92071428D02*
X175202380Y-91976190D01*
X175250000Y-91880952D01*
X175297619Y-91833333D01*
X175392857Y-91785714D01*
X175583333Y-91738095D01*
X175821428Y-91738095D01*
X176011904Y-91785714D01*
X176107142Y-91833333D01*
X176154761Y-91880952D01*
X176202380Y-91976190D01*
X176202380Y-92071428D01*
X176154761Y-92166666D01*
X176107142Y-92214285D01*
X176011904Y-92261904D01*
X175821428Y-92309523D01*
X175583333Y-92309523D01*
X175392857Y-92261904D01*
X175297619Y-92214285D01*
X175250000Y-92166666D01*
X175202380Y-92071428D01*
X168202380Y-97157857D02*
X167726190Y-97491190D01*
X168202380Y-97729285D02*
X167202380Y-97729285D01*
X167202380Y-97348333D01*
X167250000Y-97253095D01*
X167297619Y-97205476D01*
X167392857Y-97157857D01*
X167535714Y-97157857D01*
X167630952Y-97205476D01*
X167678571Y-97253095D01*
X167726190Y-97348333D01*
X167726190Y-97729285D01*
X167297619Y-96776904D02*
X167250000Y-96729285D01*
X167202380Y-96634047D01*
X167202380Y-96395952D01*
X167250000Y-96300714D01*
X167297619Y-96253095D01*
X167392857Y-96205476D01*
X167488095Y-96205476D01*
X167630952Y-96253095D01*
X168202380Y-96824523D01*
X168202380Y-96205476D01*
X168202380Y-95729285D02*
X168202380Y-95538809D01*
X168154761Y-95443571D01*
X168107142Y-95395952D01*
X167964285Y-95300714D01*
X167773809Y-95253095D01*
X167392857Y-95253095D01*
X167297619Y-95300714D01*
X167250000Y-95348333D01*
X167202380Y-95443571D01*
X167202380Y-95634047D01*
X167250000Y-95729285D01*
X167297619Y-95776904D01*
X167392857Y-95824523D01*
X167630952Y-95824523D01*
X167726190Y-95776904D01*
X167773809Y-95729285D01*
X167821428Y-95634047D01*
X167821428Y-95443571D01*
X167773809Y-95348333D01*
X167726190Y-95300714D01*
X167630952Y-95253095D01*
X177607142Y-104282380D02*
X177273809Y-103806190D01*
X177035714Y-104282380D02*
X177035714Y-103282380D01*
X177416666Y-103282380D01*
X177511904Y-103330000D01*
X177559523Y-103377619D01*
X177607142Y-103472857D01*
X177607142Y-103615714D01*
X177559523Y-103710952D01*
X177511904Y-103758571D01*
X177416666Y-103806190D01*
X177035714Y-103806190D01*
X177988095Y-103377619D02*
X178035714Y-103330000D01*
X178130952Y-103282380D01*
X178369047Y-103282380D01*
X178464285Y-103330000D01*
X178511904Y-103377619D01*
X178559523Y-103472857D01*
X178559523Y-103568095D01*
X178511904Y-103710952D01*
X177940476Y-104282380D01*
X178559523Y-104282380D01*
X179130952Y-103710952D02*
X179035714Y-103663333D01*
X178988095Y-103615714D01*
X178940476Y-103520476D01*
X178940476Y-103472857D01*
X178988095Y-103377619D01*
X179035714Y-103330000D01*
X179130952Y-103282380D01*
X179321428Y-103282380D01*
X179416666Y-103330000D01*
X179464285Y-103377619D01*
X179511904Y-103472857D01*
X179511904Y-103520476D01*
X179464285Y-103615714D01*
X179416666Y-103663333D01*
X179321428Y-103710952D01*
X179130952Y-103710952D01*
X179035714Y-103758571D01*
X178988095Y-103806190D01*
X178940476Y-103901428D01*
X178940476Y-104091904D01*
X178988095Y-104187142D01*
X179035714Y-104234761D01*
X179130952Y-104282380D01*
X179321428Y-104282380D01*
X179416666Y-104234761D01*
X179464285Y-104187142D01*
X179511904Y-104091904D01*
X179511904Y-103901428D01*
X179464285Y-103806190D01*
X179416666Y-103758571D01*
X179321428Y-103710952D01*
X177872380Y-98627857D02*
X177396190Y-98961190D01*
X177872380Y-99199285D02*
X176872380Y-99199285D01*
X176872380Y-98818333D01*
X176920000Y-98723095D01*
X176967619Y-98675476D01*
X177062857Y-98627857D01*
X177205714Y-98627857D01*
X177300952Y-98675476D01*
X177348571Y-98723095D01*
X177396190Y-98818333D01*
X177396190Y-99199285D01*
X176967619Y-98246904D02*
X176920000Y-98199285D01*
X176872380Y-98104047D01*
X176872380Y-97865952D01*
X176920000Y-97770714D01*
X176967619Y-97723095D01*
X177062857Y-97675476D01*
X177158095Y-97675476D01*
X177300952Y-97723095D01*
X177872380Y-98294523D01*
X177872380Y-97675476D01*
X176872380Y-97342142D02*
X176872380Y-96675476D01*
X177872380Y-97104047D01*
X115357142Y-96322380D02*
X115023809Y-95846190D01*
X114785714Y-96322380D02*
X114785714Y-95322380D01*
X115166666Y-95322380D01*
X115261904Y-95370000D01*
X115309523Y-95417619D01*
X115357142Y-95512857D01*
X115357142Y-95655714D01*
X115309523Y-95750952D01*
X115261904Y-95798571D01*
X115166666Y-95846190D01*
X114785714Y-95846190D01*
X115738095Y-95417619D02*
X115785714Y-95370000D01*
X115880952Y-95322380D01*
X116119047Y-95322380D01*
X116214285Y-95370000D01*
X116261904Y-95417619D01*
X116309523Y-95512857D01*
X116309523Y-95608095D01*
X116261904Y-95750952D01*
X115690476Y-96322380D01*
X116309523Y-96322380D01*
X116642857Y-95322380D02*
X117261904Y-95322380D01*
X116928571Y-95703333D01*
X117071428Y-95703333D01*
X117166666Y-95750952D01*
X117214285Y-95798571D01*
X117261904Y-95893809D01*
X117261904Y-96131904D01*
X117214285Y-96227142D01*
X117166666Y-96274761D01*
X117071428Y-96322380D01*
X116785714Y-96322380D01*
X116690476Y-96274761D01*
X116642857Y-96227142D01*
X111822380Y-101642857D02*
X111346190Y-101976190D01*
X111822380Y-102214285D02*
X110822380Y-102214285D01*
X110822380Y-101833333D01*
X110870000Y-101738095D01*
X110917619Y-101690476D01*
X111012857Y-101642857D01*
X111155714Y-101642857D01*
X111250952Y-101690476D01*
X111298571Y-101738095D01*
X111346190Y-101833333D01*
X111346190Y-102214285D01*
X110917619Y-101261904D02*
X110870000Y-101214285D01*
X110822380Y-101119047D01*
X110822380Y-100880952D01*
X110870000Y-100785714D01*
X110917619Y-100738095D01*
X111012857Y-100690476D01*
X111108095Y-100690476D01*
X111250952Y-100738095D01*
X111822380Y-101309523D01*
X111822380Y-100690476D01*
X110917619Y-100309523D02*
X110870000Y-100261904D01*
X110822380Y-100166666D01*
X110822380Y-99928571D01*
X110870000Y-99833333D01*
X110917619Y-99785714D01*
X111012857Y-99738095D01*
X111108095Y-99738095D01*
X111250952Y-99785714D01*
X111822380Y-100357142D01*
X111822380Y-99738095D01*
X115357142Y-111322380D02*
X115023809Y-110846190D01*
X114785714Y-111322380D02*
X114785714Y-110322380D01*
X115166666Y-110322380D01*
X115261904Y-110370000D01*
X115309523Y-110417619D01*
X115357142Y-110512857D01*
X115357142Y-110655714D01*
X115309523Y-110750952D01*
X115261904Y-110798571D01*
X115166666Y-110846190D01*
X114785714Y-110846190D01*
X116309523Y-111322380D02*
X115738095Y-111322380D01*
X116023809Y-111322380D02*
X116023809Y-110322380D01*
X115928571Y-110465238D01*
X115833333Y-110560476D01*
X115738095Y-110608095D01*
X116785714Y-111322380D02*
X116976190Y-111322380D01*
X117071428Y-111274761D01*
X117119047Y-111227142D01*
X117214285Y-111084285D01*
X117261904Y-110893809D01*
X117261904Y-110512857D01*
X117214285Y-110417619D01*
X117166666Y-110370000D01*
X117071428Y-110322380D01*
X116880952Y-110322380D01*
X116785714Y-110370000D01*
X116738095Y-110417619D01*
X116690476Y-110512857D01*
X116690476Y-110750952D01*
X116738095Y-110846190D01*
X116785714Y-110893809D01*
X116880952Y-110941428D01*
X117071428Y-110941428D01*
X117166666Y-110893809D01*
X117214285Y-110846190D01*
X117261904Y-110750952D01*
X139882380Y-113316666D02*
X139882380Y-113792857D01*
X138882380Y-113792857D01*
X138882380Y-112507142D02*
X138882380Y-112983333D01*
X139358571Y-113030952D01*
X139310952Y-112983333D01*
X139263333Y-112888095D01*
X139263333Y-112650000D01*
X139310952Y-112554761D01*
X139358571Y-112507142D01*
X139453809Y-112459523D01*
X139691904Y-112459523D01*
X139787142Y-112507142D01*
X139834761Y-112554761D01*
X139882380Y-112650000D01*
X139882380Y-112888095D01*
X139834761Y-112983333D01*
X139787142Y-113030952D01*
X166222380Y-144268333D02*
X166936666Y-144268333D01*
X167079523Y-144315952D01*
X167174761Y-144411190D01*
X167222380Y-144554047D01*
X167222380Y-144649285D01*
X166555714Y-143363571D02*
X167222380Y-143363571D01*
X166174761Y-143601666D02*
X166889047Y-143839761D01*
X166889047Y-143220714D01*
X173272380Y-144268333D02*
X173986666Y-144268333D01*
X174129523Y-144315952D01*
X174224761Y-144411190D01*
X174272380Y-144554047D01*
X174272380Y-144649285D01*
X173272380Y-143887380D02*
X173272380Y-143268333D01*
X173653333Y-143601666D01*
X173653333Y-143458809D01*
X173700952Y-143363571D01*
X173748571Y-143315952D01*
X173843809Y-143268333D01*
X174081904Y-143268333D01*
X174177142Y-143315952D01*
X174224761Y-143363571D01*
X174272380Y-143458809D01*
X174272380Y-143744523D01*
X174224761Y-143839761D01*
X174177142Y-143887380D01*
X180372380Y-144268333D02*
X181086666Y-144268333D01*
X181229523Y-144315952D01*
X181324761Y-144411190D01*
X181372380Y-144554047D01*
X181372380Y-144649285D01*
X180467619Y-143839761D02*
X180420000Y-143792142D01*
X180372380Y-143696904D01*
X180372380Y-143458809D01*
X180420000Y-143363571D01*
X180467619Y-143315952D01*
X180562857Y-143268333D01*
X180658095Y-143268333D01*
X180800952Y-143315952D01*
X181372380Y-143887380D01*
X181372380Y-143268333D01*
X177107142Y-100857142D02*
X177059523Y-100904761D01*
X176916666Y-100952380D01*
X176821428Y-100952380D01*
X176678571Y-100904761D01*
X176583333Y-100809523D01*
X176535714Y-100714285D01*
X176488095Y-100523809D01*
X176488095Y-100380952D01*
X176535714Y-100190476D01*
X176583333Y-100095238D01*
X176678571Y-100000000D01*
X176821428Y-99952380D01*
X176916666Y-99952380D01*
X177059523Y-100000000D01*
X177107142Y-100047619D01*
X177440476Y-99952380D02*
X178059523Y-99952380D01*
X177726190Y-100333333D01*
X177869047Y-100333333D01*
X177964285Y-100380952D01*
X178011904Y-100428571D01*
X178059523Y-100523809D01*
X178059523Y-100761904D01*
X178011904Y-100857142D01*
X177964285Y-100904761D01*
X177869047Y-100952380D01*
X177583333Y-100952380D01*
X177488095Y-100904761D01*
X177440476Y-100857142D01*
X178392857Y-99952380D02*
X179059523Y-99952380D01*
X178630952Y-100952380D01*
X153357142Y-106142857D02*
X153404761Y-106190476D01*
X153452380Y-106333333D01*
X153452380Y-106428571D01*
X153404761Y-106571428D01*
X153309523Y-106666666D01*
X153214285Y-106714285D01*
X153023809Y-106761904D01*
X152880952Y-106761904D01*
X152690476Y-106714285D01*
X152595238Y-106666666D01*
X152500000Y-106571428D01*
X152452380Y-106428571D01*
X152452380Y-106333333D01*
X152500000Y-106190476D01*
X152547619Y-106142857D01*
X152452380Y-105809523D02*
X152452380Y-105190476D01*
X152833333Y-105523809D01*
X152833333Y-105380952D01*
X152880952Y-105285714D01*
X152928571Y-105238095D01*
X153023809Y-105190476D01*
X153261904Y-105190476D01*
X153357142Y-105238095D01*
X153404761Y-105285714D01*
X153452380Y-105380952D01*
X153452380Y-105666666D01*
X153404761Y-105761904D01*
X153357142Y-105809523D01*
X152452380Y-104333333D02*
X152452380Y-104523809D01*
X152500000Y-104619047D01*
X152547619Y-104666666D01*
X152690476Y-104761904D01*
X152880952Y-104809523D01*
X153261904Y-104809523D01*
X153357142Y-104761904D01*
X153404761Y-104714285D01*
X153452380Y-104619047D01*
X153452380Y-104428571D01*
X153404761Y-104333333D01*
X153357142Y-104285714D01*
X153261904Y-104238095D01*
X153023809Y-104238095D01*
X152928571Y-104285714D01*
X152880952Y-104333333D01*
X152833333Y-104428571D01*
X152833333Y-104619047D01*
X152880952Y-104714285D01*
X152928571Y-104761904D01*
X153023809Y-104809523D01*
X144707142Y-111607142D02*
X144659523Y-111654761D01*
X144516666Y-111702380D01*
X144421428Y-111702380D01*
X144278571Y-111654761D01*
X144183333Y-111559523D01*
X144135714Y-111464285D01*
X144088095Y-111273809D01*
X144088095Y-111130952D01*
X144135714Y-110940476D01*
X144183333Y-110845238D01*
X144278571Y-110750000D01*
X144421428Y-110702380D01*
X144516666Y-110702380D01*
X144659523Y-110750000D01*
X144707142Y-110797619D01*
X145040476Y-110702380D02*
X145659523Y-110702380D01*
X145326190Y-111083333D01*
X145469047Y-111083333D01*
X145564285Y-111130952D01*
X145611904Y-111178571D01*
X145659523Y-111273809D01*
X145659523Y-111511904D01*
X145611904Y-111607142D01*
X145564285Y-111654761D01*
X145469047Y-111702380D01*
X145183333Y-111702380D01*
X145088095Y-111654761D01*
X145040476Y-111607142D01*
X146564285Y-110702380D02*
X146088095Y-110702380D01*
X146040476Y-111178571D01*
X146088095Y-111130952D01*
X146183333Y-111083333D01*
X146421428Y-111083333D01*
X146516666Y-111130952D01*
X146564285Y-111178571D01*
X146611904Y-111273809D01*
X146611904Y-111511904D01*
X146564285Y-111607142D01*
X146516666Y-111654761D01*
X146421428Y-111702380D01*
X146183333Y-111702380D01*
X146088095Y-111654761D01*
X146040476Y-111607142D01*
X142577142Y-93357142D02*
X142529523Y-93404761D01*
X142386666Y-93452380D01*
X142291428Y-93452380D01*
X142148571Y-93404761D01*
X142053333Y-93309523D01*
X142005714Y-93214285D01*
X141958095Y-93023809D01*
X141958095Y-92880952D01*
X142005714Y-92690476D01*
X142053333Y-92595238D01*
X142148571Y-92500000D01*
X142291428Y-92452380D01*
X142386666Y-92452380D01*
X142529523Y-92500000D01*
X142577142Y-92547619D01*
X142910476Y-92452380D02*
X143529523Y-92452380D01*
X143196190Y-92833333D01*
X143339047Y-92833333D01*
X143434285Y-92880952D01*
X143481904Y-92928571D01*
X143529523Y-93023809D01*
X143529523Y-93261904D01*
X143481904Y-93357142D01*
X143434285Y-93404761D01*
X143339047Y-93452380D01*
X143053333Y-93452380D01*
X142958095Y-93404761D01*
X142910476Y-93357142D01*
X143862857Y-92452380D02*
X144481904Y-92452380D01*
X144148571Y-92833333D01*
X144291428Y-92833333D01*
X144386666Y-92880952D01*
X144434285Y-92928571D01*
X144481904Y-93023809D01*
X144481904Y-93261904D01*
X144434285Y-93357142D01*
X144386666Y-93404761D01*
X144291428Y-93452380D01*
X144005714Y-93452380D01*
X143910476Y-93404761D01*
X143862857Y-93357142D01*
X138107142Y-88607142D02*
X138059523Y-88654761D01*
X137916666Y-88702380D01*
X137821428Y-88702380D01*
X137678571Y-88654761D01*
X137583333Y-88559523D01*
X137535714Y-88464285D01*
X137488095Y-88273809D01*
X137488095Y-88130952D01*
X137535714Y-87940476D01*
X137583333Y-87845238D01*
X137678571Y-87750000D01*
X137821428Y-87702380D01*
X137916666Y-87702380D01*
X138059523Y-87750000D01*
X138107142Y-87797619D01*
X138440476Y-87702380D02*
X139059523Y-87702380D01*
X138726190Y-88083333D01*
X138869047Y-88083333D01*
X138964285Y-88130952D01*
X139011904Y-88178571D01*
X139059523Y-88273809D01*
X139059523Y-88511904D01*
X139011904Y-88607142D01*
X138964285Y-88654761D01*
X138869047Y-88702380D01*
X138583333Y-88702380D01*
X138488095Y-88654761D01*
X138440476Y-88607142D01*
X139440476Y-87797619D02*
X139488095Y-87750000D01*
X139583333Y-87702380D01*
X139821428Y-87702380D01*
X139916666Y-87750000D01*
X139964285Y-87797619D01*
X140011904Y-87892857D01*
X140011904Y-87988095D01*
X139964285Y-88130952D01*
X139392857Y-88702380D01*
X140011904Y-88702380D01*
X135357142Y-105307857D02*
X135404761Y-105355476D01*
X135452380Y-105498333D01*
X135452380Y-105593571D01*
X135404761Y-105736428D01*
X135309523Y-105831666D01*
X135214285Y-105879285D01*
X135023809Y-105926904D01*
X134880952Y-105926904D01*
X134690476Y-105879285D01*
X134595238Y-105831666D01*
X134500000Y-105736428D01*
X134452380Y-105593571D01*
X134452380Y-105498333D01*
X134500000Y-105355476D01*
X134547619Y-105307857D01*
X134452380Y-104974523D02*
X134452380Y-104355476D01*
X134833333Y-104688809D01*
X134833333Y-104545952D01*
X134880952Y-104450714D01*
X134928571Y-104403095D01*
X135023809Y-104355476D01*
X135261904Y-104355476D01*
X135357142Y-104403095D01*
X135404761Y-104450714D01*
X135452380Y-104545952D01*
X135452380Y-104831666D01*
X135404761Y-104926904D01*
X135357142Y-104974523D01*
X135452380Y-103403095D02*
X135452380Y-103974523D01*
X135452380Y-103688809D02*
X134452380Y-103688809D01*
X134595238Y-103784047D01*
X134690476Y-103879285D01*
X134738095Y-103974523D01*
X134437142Y-92657857D02*
X134484761Y-92705476D01*
X134532380Y-92848333D01*
X134532380Y-92943571D01*
X134484761Y-93086428D01*
X134389523Y-93181666D01*
X134294285Y-93229285D01*
X134103809Y-93276904D01*
X133960952Y-93276904D01*
X133770476Y-93229285D01*
X133675238Y-93181666D01*
X133580000Y-93086428D01*
X133532380Y-92943571D01*
X133532380Y-92848333D01*
X133580000Y-92705476D01*
X133627619Y-92657857D01*
X133627619Y-92276904D02*
X133580000Y-92229285D01*
X133532380Y-92134047D01*
X133532380Y-91895952D01*
X133580000Y-91800714D01*
X133627619Y-91753095D01*
X133722857Y-91705476D01*
X133818095Y-91705476D01*
X133960952Y-91753095D01*
X134532380Y-92324523D01*
X134532380Y-91705476D01*
X133627619Y-91324523D02*
X133580000Y-91276904D01*
X133532380Y-91181666D01*
X133532380Y-90943571D01*
X133580000Y-90848333D01*
X133627619Y-90800714D01*
X133722857Y-90753095D01*
X133818095Y-90753095D01*
X133960952Y-90800714D01*
X134532380Y-91372142D01*
X134532380Y-90753095D01*
X150857142Y-105642857D02*
X150904761Y-105690476D01*
X150952380Y-105833333D01*
X150952380Y-105928571D01*
X150904761Y-106071428D01*
X150809523Y-106166666D01*
X150714285Y-106214285D01*
X150523809Y-106261904D01*
X150380952Y-106261904D01*
X150190476Y-106214285D01*
X150095238Y-106166666D01*
X150000000Y-106071428D01*
X149952380Y-105928571D01*
X149952380Y-105833333D01*
X150000000Y-105690476D01*
X150047619Y-105642857D01*
X150047619Y-105261904D02*
X150000000Y-105214285D01*
X149952380Y-105119047D01*
X149952380Y-104880952D01*
X150000000Y-104785714D01*
X150047619Y-104738095D01*
X150142857Y-104690476D01*
X150238095Y-104690476D01*
X150380952Y-104738095D01*
X150952380Y-105309523D01*
X150952380Y-104690476D01*
X150952380Y-103738095D02*
X150952380Y-104309523D01*
X150952380Y-104023809D02*
X149952380Y-104023809D01*
X150095238Y-104119047D01*
X150190476Y-104214285D01*
X150238095Y-104309523D01*
X145607142Y-110107142D02*
X145559523Y-110154761D01*
X145416666Y-110202380D01*
X145321428Y-110202380D01*
X145178571Y-110154761D01*
X145083333Y-110059523D01*
X145035714Y-109964285D01*
X144988095Y-109773809D01*
X144988095Y-109630952D01*
X145035714Y-109440476D01*
X145083333Y-109345238D01*
X145178571Y-109250000D01*
X145321428Y-109202380D01*
X145416666Y-109202380D01*
X145559523Y-109250000D01*
X145607142Y-109297619D01*
X145988095Y-109297619D02*
X146035714Y-109250000D01*
X146130952Y-109202380D01*
X146369047Y-109202380D01*
X146464285Y-109250000D01*
X146511904Y-109297619D01*
X146559523Y-109392857D01*
X146559523Y-109488095D01*
X146511904Y-109630952D01*
X145940476Y-110202380D01*
X146559523Y-110202380D01*
X147178571Y-109202380D02*
X147273809Y-109202380D01*
X147369047Y-109250000D01*
X147416666Y-109297619D01*
X147464285Y-109392857D01*
X147511904Y-109583333D01*
X147511904Y-109821428D01*
X147464285Y-110011904D01*
X147416666Y-110107142D01*
X147369047Y-110154761D01*
X147273809Y-110202380D01*
X147178571Y-110202380D01*
X147083333Y-110154761D01*
X147035714Y-110107142D01*
X146988095Y-110011904D01*
X146940476Y-109821428D01*
X146940476Y-109583333D01*
X146988095Y-109392857D01*
X147035714Y-109297619D01*
X147083333Y-109250000D01*
X147178571Y-109202380D01*
X181098571Y-97785714D02*
X181146190Y-97642857D01*
X181193809Y-97595238D01*
X181289047Y-97547619D01*
X181431904Y-97547619D01*
X181527142Y-97595238D01*
X181574761Y-97642857D01*
X181622380Y-97738095D01*
X181622380Y-98119047D01*
X180622380Y-98119047D01*
X180622380Y-97785714D01*
X180670000Y-97690476D01*
X180717619Y-97642857D01*
X180812857Y-97595238D01*
X180908095Y-97595238D01*
X181003333Y-97642857D01*
X181050952Y-97690476D01*
X181098571Y-97785714D01*
X181098571Y-98119047D01*
X180622380Y-97261904D02*
X180622380Y-96690476D01*
X181622380Y-96976190D02*
X180622380Y-96976190D01*
X180622380Y-96452380D02*
X180622380Y-95833333D01*
X181003333Y-96166666D01*
X181003333Y-96023809D01*
X181050952Y-95928571D01*
X181098571Y-95880952D01*
X181193809Y-95833333D01*
X181431904Y-95833333D01*
X181527142Y-95880952D01*
X181574761Y-95928571D01*
X181622380Y-96023809D01*
X181622380Y-96309523D01*
X181574761Y-96404761D01*
X181527142Y-96452380D01*
X130502380Y-136717775D02*
X131311904Y-136717775D01*
X131407142Y-136670156D01*
X131454761Y-136622537D01*
X131502380Y-136527299D01*
X131502380Y-136336822D01*
X131454761Y-136241584D01*
X131407142Y-136193965D01*
X131311904Y-136146346D01*
X130502380Y-136146346D01*
X131502380Y-135146346D02*
X131502380Y-135717775D01*
X131502380Y-135432060D02*
X130502380Y-135432060D01*
X130645238Y-135527299D01*
X130740476Y-135622537D01*
X130788095Y-135717775D01*
X130502380Y-134527299D02*
X130502380Y-134432060D01*
X130550000Y-134336822D01*
X130597619Y-134289203D01*
X130692857Y-134241584D01*
X130883333Y-134193965D01*
X131121428Y-134193965D01*
X131311904Y-134241584D01*
X131407142Y-134289203D01*
X131454761Y-134336822D01*
X131502380Y-134432060D01*
X131502380Y-134527299D01*
X131454761Y-134622537D01*
X131407142Y-134670156D01*
X131311904Y-134717775D01*
X131121428Y-134765394D01*
X130883333Y-134765394D01*
X130692857Y-134717775D01*
X130597619Y-134670156D01*
X130550000Y-134622537D01*
X130502380Y-134527299D01*
X111502380Y-136241584D02*
X112311904Y-136241584D01*
X112407142Y-136193965D01*
X112454761Y-136146346D01*
X112502380Y-136051108D01*
X112502380Y-135860632D01*
X112454761Y-135765394D01*
X112407142Y-135717775D01*
X112311904Y-135670156D01*
X111502380Y-135670156D01*
X112502380Y-135146346D02*
X112502380Y-134955870D01*
X112454761Y-134860632D01*
X112407142Y-134813013D01*
X112264285Y-134717775D01*
X112073809Y-134670156D01*
X111692857Y-134670156D01*
X111597619Y-134717775D01*
X111550000Y-134765394D01*
X111502380Y-134860632D01*
X111502380Y-135051108D01*
X111550000Y-135146346D01*
X111597619Y-135193965D01*
X111692857Y-135241584D01*
X111930952Y-135241584D01*
X112026190Y-135193965D01*
X112073809Y-135146346D01*
X112121428Y-135051108D01*
X112121428Y-134860632D01*
X112073809Y-134765394D01*
X112026190Y-134717775D01*
X111930952Y-134670156D01*
X132802380Y-82761904D02*
X133611904Y-82761904D01*
X133707142Y-82714285D01*
X133754761Y-82666666D01*
X133802380Y-82571428D01*
X133802380Y-82380952D01*
X133754761Y-82285714D01*
X133707142Y-82238095D01*
X133611904Y-82190476D01*
X132802380Y-82190476D01*
X132802380Y-81809523D02*
X132802380Y-81190476D01*
X133183333Y-81523809D01*
X133183333Y-81380952D01*
X133230952Y-81285714D01*
X133278571Y-81238095D01*
X133373809Y-81190476D01*
X133611904Y-81190476D01*
X133707142Y-81238095D01*
X133754761Y-81285714D01*
X133802380Y-81380952D01*
X133802380Y-81666666D01*
X133754761Y-81761904D01*
X133707142Y-81809523D01*
X132607142Y-130522380D02*
X132273809Y-130046190D01*
X132035714Y-130522380D02*
X132035714Y-129522380D01*
X132416666Y-129522380D01*
X132511904Y-129570000D01*
X132559523Y-129617619D01*
X132607142Y-129712857D01*
X132607142Y-129855714D01*
X132559523Y-129950952D01*
X132511904Y-129998571D01*
X132416666Y-130046190D01*
X132035714Y-130046190D01*
X133464285Y-129855714D02*
X133464285Y-130522380D01*
X133226190Y-129474761D02*
X132988095Y-130189047D01*
X133607142Y-130189047D01*
X133892857Y-129522380D02*
X134511904Y-129522380D01*
X134178571Y-129903333D01*
X134321428Y-129903333D01*
X134416666Y-129950952D01*
X134464285Y-129998571D01*
X134511904Y-130093809D01*
X134511904Y-130331904D01*
X134464285Y-130427142D01*
X134416666Y-130474761D01*
X134321428Y-130522380D01*
X134035714Y-130522380D01*
X133940476Y-130474761D01*
X133892857Y-130427142D01*
X129622142Y-130782380D02*
X129288809Y-130306190D01*
X129050714Y-130782380D02*
X129050714Y-129782380D01*
X129431666Y-129782380D01*
X129526904Y-129830000D01*
X129574523Y-129877619D01*
X129622142Y-129972857D01*
X129622142Y-130115714D01*
X129574523Y-130210952D01*
X129526904Y-130258571D01*
X129431666Y-130306190D01*
X129050714Y-130306190D01*
X130479285Y-130115714D02*
X130479285Y-130782380D01*
X130241190Y-129734761D02*
X130003095Y-130449047D01*
X130622142Y-130449047D01*
X130955476Y-129877619D02*
X131003095Y-129830000D01*
X131098333Y-129782380D01*
X131336428Y-129782380D01*
X131431666Y-129830000D01*
X131479285Y-129877619D01*
X131526904Y-129972857D01*
X131526904Y-130068095D01*
X131479285Y-130210952D01*
X130907857Y-130782380D01*
X131526904Y-130782380D01*
X137272380Y-136142857D02*
X136796190Y-136476190D01*
X137272380Y-136714285D02*
X136272380Y-136714285D01*
X136272380Y-136333333D01*
X136320000Y-136238095D01*
X136367619Y-136190476D01*
X136462857Y-136142857D01*
X136605714Y-136142857D01*
X136700952Y-136190476D01*
X136748571Y-136238095D01*
X136796190Y-136333333D01*
X136796190Y-136714285D01*
X136605714Y-135285714D02*
X137272380Y-135285714D01*
X136224761Y-135523809D02*
X136939047Y-135761904D01*
X136939047Y-135142857D01*
X137272380Y-134238095D02*
X137272380Y-134809523D01*
X137272380Y-134523809D02*
X136272380Y-134523809D01*
X136415238Y-134619047D01*
X136510476Y-134714285D01*
X136558095Y-134809523D01*
X113607142Y-130522380D02*
X113273809Y-130046190D01*
X113035714Y-130522380D02*
X113035714Y-129522380D01*
X113416666Y-129522380D01*
X113511904Y-129570000D01*
X113559523Y-129617619D01*
X113607142Y-129712857D01*
X113607142Y-129855714D01*
X113559523Y-129950952D01*
X113511904Y-129998571D01*
X113416666Y-130046190D01*
X113035714Y-130046190D01*
X114464285Y-129855714D02*
X114464285Y-130522380D01*
X114226190Y-129474761D02*
X113988095Y-130189047D01*
X114607142Y-130189047D01*
X115178571Y-129522380D02*
X115273809Y-129522380D01*
X115369047Y-129570000D01*
X115416666Y-129617619D01*
X115464285Y-129712857D01*
X115511904Y-129903333D01*
X115511904Y-130141428D01*
X115464285Y-130331904D01*
X115416666Y-130427142D01*
X115369047Y-130474761D01*
X115273809Y-130522380D01*
X115178571Y-130522380D01*
X115083333Y-130474761D01*
X115035714Y-130427142D01*
X114988095Y-130331904D01*
X114940476Y-130141428D01*
X114940476Y-129903333D01*
X114988095Y-129712857D01*
X115035714Y-129617619D01*
X115083333Y-129570000D01*
X115178571Y-129522380D01*
X110607142Y-130782380D02*
X110273809Y-130306190D01*
X110035714Y-130782380D02*
X110035714Y-129782380D01*
X110416666Y-129782380D01*
X110511904Y-129830000D01*
X110559523Y-129877619D01*
X110607142Y-129972857D01*
X110607142Y-130115714D01*
X110559523Y-130210952D01*
X110511904Y-130258571D01*
X110416666Y-130306190D01*
X110035714Y-130306190D01*
X110940476Y-129782380D02*
X111559523Y-129782380D01*
X111226190Y-130163333D01*
X111369047Y-130163333D01*
X111464285Y-130210952D01*
X111511904Y-130258571D01*
X111559523Y-130353809D01*
X111559523Y-130591904D01*
X111511904Y-130687142D01*
X111464285Y-130734761D01*
X111369047Y-130782380D01*
X111083333Y-130782380D01*
X110988095Y-130734761D01*
X110940476Y-130687142D01*
X112035714Y-130782380D02*
X112226190Y-130782380D01*
X112321428Y-130734761D01*
X112369047Y-130687142D01*
X112464285Y-130544285D01*
X112511904Y-130353809D01*
X112511904Y-129972857D01*
X112464285Y-129877619D01*
X112416666Y-129830000D01*
X112321428Y-129782380D01*
X112130952Y-129782380D01*
X112035714Y-129830000D01*
X111988095Y-129877619D01*
X111940476Y-129972857D01*
X111940476Y-130210952D01*
X111988095Y-130306190D01*
X112035714Y-130353809D01*
X112130952Y-130401428D01*
X112321428Y-130401428D01*
X112416666Y-130353809D01*
X112464285Y-130306190D01*
X112511904Y-130210952D01*
X118272380Y-136142857D02*
X117796190Y-136476190D01*
X118272380Y-136714285D02*
X117272380Y-136714285D01*
X117272380Y-136333333D01*
X117320000Y-136238095D01*
X117367619Y-136190476D01*
X117462857Y-136142857D01*
X117605714Y-136142857D01*
X117700952Y-136190476D01*
X117748571Y-136238095D01*
X117796190Y-136333333D01*
X117796190Y-136714285D01*
X117272380Y-135809523D02*
X117272380Y-135190476D01*
X117653333Y-135523809D01*
X117653333Y-135380952D01*
X117700952Y-135285714D01*
X117748571Y-135238095D01*
X117843809Y-135190476D01*
X118081904Y-135190476D01*
X118177142Y-135238095D01*
X118224761Y-135285714D01*
X118272380Y-135380952D01*
X118272380Y-135666666D01*
X118224761Y-135761904D01*
X118177142Y-135809523D01*
X117700952Y-134619047D02*
X117653333Y-134714285D01*
X117605714Y-134761904D01*
X117510476Y-134809523D01*
X117462857Y-134809523D01*
X117367619Y-134761904D01*
X117320000Y-134714285D01*
X117272380Y-134619047D01*
X117272380Y-134428571D01*
X117320000Y-134333333D01*
X117367619Y-134285714D01*
X117462857Y-134238095D01*
X117510476Y-134238095D01*
X117605714Y-134285714D01*
X117653333Y-134333333D01*
X117700952Y-134428571D01*
X117700952Y-134619047D01*
X117748571Y-134714285D01*
X117796190Y-134761904D01*
X117891428Y-134809523D01*
X118081904Y-134809523D01*
X118177142Y-134761904D01*
X118224761Y-134714285D01*
X118272380Y-134619047D01*
X118272380Y-134428571D01*
X118224761Y-134333333D01*
X118177142Y-134285714D01*
X118081904Y-134238095D01*
X117891428Y-134238095D01*
X117796190Y-134285714D01*
X117748571Y-134333333D01*
X117700952Y-134428571D01*
X133583333Y-143452380D02*
X133107142Y-143452380D01*
X133107142Y-142452380D01*
X134345238Y-142785714D02*
X134345238Y-143452380D01*
X134107142Y-142404761D02*
X133869047Y-143119047D01*
X134488095Y-143119047D01*
X114583333Y-143452380D02*
X114107142Y-143452380D01*
X114107142Y-142452380D01*
X114821428Y-142452380D02*
X115440476Y-142452380D01*
X115107142Y-142833333D01*
X115250000Y-142833333D01*
X115345238Y-142880952D01*
X115392857Y-142928571D01*
X115440476Y-143023809D01*
X115440476Y-143261904D01*
X115392857Y-143357142D01*
X115345238Y-143404761D01*
X115250000Y-143452380D01*
X114964285Y-143452380D01*
X114869047Y-143404761D01*
X114821428Y-143357142D01*
X128177142Y-136142857D02*
X128224761Y-136190476D01*
X128272380Y-136333333D01*
X128272380Y-136428571D01*
X128224761Y-136571428D01*
X128129523Y-136666666D01*
X128034285Y-136714285D01*
X127843809Y-136761904D01*
X127700952Y-136761904D01*
X127510476Y-136714285D01*
X127415238Y-136666666D01*
X127320000Y-136571428D01*
X127272380Y-136428571D01*
X127272380Y-136333333D01*
X127320000Y-136190476D01*
X127367619Y-136142857D01*
X127272380Y-135809523D02*
X127272380Y-135190476D01*
X127653333Y-135523809D01*
X127653333Y-135380952D01*
X127700952Y-135285714D01*
X127748571Y-135238095D01*
X127843809Y-135190476D01*
X128081904Y-135190476D01*
X128177142Y-135238095D01*
X128224761Y-135285714D01*
X128272380Y-135380952D01*
X128272380Y-135666666D01*
X128224761Y-135761904D01*
X128177142Y-135809523D01*
X127272380Y-134571428D02*
X127272380Y-134476190D01*
X127320000Y-134380952D01*
X127367619Y-134333333D01*
X127462857Y-134285714D01*
X127653333Y-134238095D01*
X127891428Y-134238095D01*
X128081904Y-134285714D01*
X128177142Y-134333333D01*
X128224761Y-134380952D01*
X128272380Y-134476190D01*
X128272380Y-134571428D01*
X128224761Y-134666666D01*
X128177142Y-134714285D01*
X128081904Y-134761904D01*
X127891428Y-134809523D01*
X127653333Y-134809523D01*
X127462857Y-134761904D01*
X127367619Y-134714285D01*
X127320000Y-134666666D01*
X127272380Y-134571428D01*
X125177142Y-136142857D02*
X125224761Y-136190476D01*
X125272380Y-136333333D01*
X125272380Y-136428571D01*
X125224761Y-136571428D01*
X125129523Y-136666666D01*
X125034285Y-136714285D01*
X124843809Y-136761904D01*
X124700952Y-136761904D01*
X124510476Y-136714285D01*
X124415238Y-136666666D01*
X124320000Y-136571428D01*
X124272380Y-136428571D01*
X124272380Y-136333333D01*
X124320000Y-136190476D01*
X124367619Y-136142857D01*
X124367619Y-135761904D02*
X124320000Y-135714285D01*
X124272380Y-135619047D01*
X124272380Y-135380952D01*
X124320000Y-135285714D01*
X124367619Y-135238095D01*
X124462857Y-135190476D01*
X124558095Y-135190476D01*
X124700952Y-135238095D01*
X125272380Y-135809523D01*
X125272380Y-135190476D01*
X125272380Y-134714285D02*
X125272380Y-134523809D01*
X125224761Y-134428571D01*
X125177142Y-134380952D01*
X125034285Y-134285714D01*
X124843809Y-134238095D01*
X124462857Y-134238095D01*
X124367619Y-134285714D01*
X124320000Y-134333333D01*
X124272380Y-134428571D01*
X124272380Y-134619047D01*
X124320000Y-134714285D01*
X124367619Y-134761904D01*
X124462857Y-134809523D01*
X124700952Y-134809523D01*
X124796190Y-134761904D01*
X124843809Y-134714285D01*
X124891428Y-134619047D01*
X124891428Y-134428571D01*
X124843809Y-134333333D01*
X124796190Y-134285714D01*
X124700952Y-134238095D01*
X137177142Y-132430357D02*
X137224761Y-132477976D01*
X137272380Y-132620833D01*
X137272380Y-132716071D01*
X137224761Y-132858928D01*
X137129523Y-132954166D01*
X137034285Y-133001785D01*
X136843809Y-133049404D01*
X136700952Y-133049404D01*
X136510476Y-133001785D01*
X136415238Y-132954166D01*
X136320000Y-132858928D01*
X136272380Y-132716071D01*
X136272380Y-132620833D01*
X136320000Y-132477976D01*
X136367619Y-132430357D01*
X136367619Y-132049404D02*
X136320000Y-132001785D01*
X136272380Y-131906547D01*
X136272380Y-131668452D01*
X136320000Y-131573214D01*
X136367619Y-131525595D01*
X136462857Y-131477976D01*
X136558095Y-131477976D01*
X136700952Y-131525595D01*
X137272380Y-132097023D01*
X137272380Y-131477976D01*
X136700952Y-130906547D02*
X136653333Y-131001785D01*
X136605714Y-131049404D01*
X136510476Y-131097023D01*
X136462857Y-131097023D01*
X136367619Y-131049404D01*
X136320000Y-131001785D01*
X136272380Y-130906547D01*
X136272380Y-130716071D01*
X136320000Y-130620833D01*
X136367619Y-130573214D01*
X136462857Y-130525595D01*
X136510476Y-130525595D01*
X136605714Y-130573214D01*
X136653333Y-130620833D01*
X136700952Y-130716071D01*
X136700952Y-130906547D01*
X136748571Y-131001785D01*
X136796190Y-131049404D01*
X136891428Y-131097023D01*
X137081904Y-131097023D01*
X137177142Y-131049404D01*
X137224761Y-131001785D01*
X137272380Y-130906547D01*
X137272380Y-130716071D01*
X137224761Y-130620833D01*
X137177142Y-130573214D01*
X137081904Y-130525595D01*
X136891428Y-130525595D01*
X136796190Y-130573214D01*
X136748571Y-130620833D01*
X136700952Y-130716071D01*
X140177142Y-136142857D02*
X140224761Y-136190476D01*
X140272380Y-136333333D01*
X140272380Y-136428571D01*
X140224761Y-136571428D01*
X140129523Y-136666666D01*
X140034285Y-136714285D01*
X139843809Y-136761904D01*
X139700952Y-136761904D01*
X139510476Y-136714285D01*
X139415238Y-136666666D01*
X139320000Y-136571428D01*
X139272380Y-136428571D01*
X139272380Y-136333333D01*
X139320000Y-136190476D01*
X139367619Y-136142857D01*
X139367619Y-135761904D02*
X139320000Y-135714285D01*
X139272380Y-135619047D01*
X139272380Y-135380952D01*
X139320000Y-135285714D01*
X139367619Y-135238095D01*
X139462857Y-135190476D01*
X139558095Y-135190476D01*
X139700952Y-135238095D01*
X140272380Y-135809523D01*
X140272380Y-135190476D01*
X139272380Y-134857142D02*
X139272380Y-134190476D01*
X140272380Y-134619047D01*
X106177142Y-136142857D02*
X106224761Y-136190476D01*
X106272380Y-136333333D01*
X106272380Y-136428571D01*
X106224761Y-136571428D01*
X106129523Y-136666666D01*
X106034285Y-136714285D01*
X105843809Y-136761904D01*
X105700952Y-136761904D01*
X105510476Y-136714285D01*
X105415238Y-136666666D01*
X105320000Y-136571428D01*
X105272380Y-136428571D01*
X105272380Y-136333333D01*
X105320000Y-136190476D01*
X105367619Y-136142857D01*
X105367619Y-135761904D02*
X105320000Y-135714285D01*
X105272380Y-135619047D01*
X105272380Y-135380952D01*
X105320000Y-135285714D01*
X105367619Y-135238095D01*
X105462857Y-135190476D01*
X105558095Y-135190476D01*
X105700952Y-135238095D01*
X106272380Y-135809523D01*
X106272380Y-135190476D01*
X105272380Y-134333333D02*
X105272380Y-134523809D01*
X105320000Y-134619047D01*
X105367619Y-134666666D01*
X105510476Y-134761904D01*
X105700952Y-134809523D01*
X106081904Y-134809523D01*
X106177142Y-134761904D01*
X106224761Y-134714285D01*
X106272380Y-134619047D01*
X106272380Y-134428571D01*
X106224761Y-134333333D01*
X106177142Y-134285714D01*
X106081904Y-134238095D01*
X105843809Y-134238095D01*
X105748571Y-134285714D01*
X105700952Y-134333333D01*
X105653333Y-134428571D01*
X105653333Y-134619047D01*
X105700952Y-134714285D01*
X105748571Y-134761904D01*
X105843809Y-134809523D01*
X109177142Y-136142857D02*
X109224761Y-136190476D01*
X109272380Y-136333333D01*
X109272380Y-136428571D01*
X109224761Y-136571428D01*
X109129523Y-136666666D01*
X109034285Y-136714285D01*
X108843809Y-136761904D01*
X108700952Y-136761904D01*
X108510476Y-136714285D01*
X108415238Y-136666666D01*
X108320000Y-136571428D01*
X108272380Y-136428571D01*
X108272380Y-136333333D01*
X108320000Y-136190476D01*
X108367619Y-136142857D01*
X108367619Y-135761904D02*
X108320000Y-135714285D01*
X108272380Y-135619047D01*
X108272380Y-135380952D01*
X108320000Y-135285714D01*
X108367619Y-135238095D01*
X108462857Y-135190476D01*
X108558095Y-135190476D01*
X108700952Y-135238095D01*
X109272380Y-135809523D01*
X109272380Y-135190476D01*
X108272380Y-134285714D02*
X108272380Y-134761904D01*
X108748571Y-134809523D01*
X108700952Y-134761904D01*
X108653333Y-134666666D01*
X108653333Y-134428571D01*
X108700952Y-134333333D01*
X108748571Y-134285714D01*
X108843809Y-134238095D01*
X109081904Y-134238095D01*
X109177142Y-134285714D01*
X109224761Y-134333333D01*
X109272380Y-134428571D01*
X109272380Y-134666666D01*
X109224761Y-134761904D01*
X109177142Y-134809523D01*
X118177142Y-132355357D02*
X118224761Y-132402976D01*
X118272380Y-132545833D01*
X118272380Y-132641071D01*
X118224761Y-132783928D01*
X118129523Y-132879166D01*
X118034285Y-132926785D01*
X117843809Y-132974404D01*
X117700952Y-132974404D01*
X117510476Y-132926785D01*
X117415238Y-132879166D01*
X117320000Y-132783928D01*
X117272380Y-132641071D01*
X117272380Y-132545833D01*
X117320000Y-132402976D01*
X117367619Y-132355357D01*
X117367619Y-131974404D02*
X117320000Y-131926785D01*
X117272380Y-131831547D01*
X117272380Y-131593452D01*
X117320000Y-131498214D01*
X117367619Y-131450595D01*
X117462857Y-131402976D01*
X117558095Y-131402976D01*
X117700952Y-131450595D01*
X118272380Y-132022023D01*
X118272380Y-131402976D01*
X117605714Y-130545833D02*
X118272380Y-130545833D01*
X117224761Y-130783928D02*
X117939047Y-131022023D01*
X117939047Y-130402976D01*
X121177142Y-136142857D02*
X121224761Y-136190476D01*
X121272380Y-136333333D01*
X121272380Y-136428571D01*
X121224761Y-136571428D01*
X121129523Y-136666666D01*
X121034285Y-136714285D01*
X120843809Y-136761904D01*
X120700952Y-136761904D01*
X120510476Y-136714285D01*
X120415238Y-136666666D01*
X120320000Y-136571428D01*
X120272380Y-136428571D01*
X120272380Y-136333333D01*
X120320000Y-136190476D01*
X120367619Y-136142857D01*
X120367619Y-135761904D02*
X120320000Y-135714285D01*
X120272380Y-135619047D01*
X120272380Y-135380952D01*
X120320000Y-135285714D01*
X120367619Y-135238095D01*
X120462857Y-135190476D01*
X120558095Y-135190476D01*
X120700952Y-135238095D01*
X121272380Y-135809523D01*
X121272380Y-135190476D01*
X120272380Y-134857142D02*
X120272380Y-134238095D01*
X120653333Y-134571428D01*
X120653333Y-134428571D01*
X120700952Y-134333333D01*
X120748571Y-134285714D01*
X120843809Y-134238095D01*
X121081904Y-134238095D01*
X121177142Y-134285714D01*
X121224761Y-134333333D01*
X121272380Y-134428571D01*
X121272380Y-134714285D01*
X121224761Y-134809523D01*
X121177142Y-134857142D01*
X159661904Y-114452380D02*
X159661904Y-113452380D01*
X159900000Y-113452380D01*
X160042857Y-113500000D01*
X160138095Y-113595238D01*
X160185714Y-113690476D01*
X160233333Y-113880952D01*
X160233333Y-114023809D01*
X160185714Y-114214285D01*
X160138095Y-114309523D01*
X160042857Y-114404761D01*
X159900000Y-114452380D01*
X159661904Y-114452380D01*
X160804761Y-113880952D02*
X160709523Y-113833333D01*
X160661904Y-113785714D01*
X160614285Y-113690476D01*
X160614285Y-113642857D01*
X160661904Y-113547619D01*
X160709523Y-113500000D01*
X160804761Y-113452380D01*
X160995238Y-113452380D01*
X161090476Y-113500000D01*
X161138095Y-113547619D01*
X161185714Y-113642857D01*
X161185714Y-113690476D01*
X161138095Y-113785714D01*
X161090476Y-113833333D01*
X160995238Y-113880952D01*
X160804761Y-113880952D01*
X160709523Y-113928571D01*
X160661904Y-113976190D01*
X160614285Y-114071428D01*
X160614285Y-114261904D01*
X160661904Y-114357142D01*
X160709523Y-114404761D01*
X160804761Y-114452380D01*
X160995238Y-114452380D01*
X161090476Y-114404761D01*
X161138095Y-114357142D01*
X161185714Y-114261904D01*
X161185714Y-114071428D01*
X161138095Y-113976190D01*
X161090476Y-113928571D01*
X160995238Y-113880952D01*
X159661904Y-120002380D02*
X159661904Y-119002380D01*
X159900000Y-119002380D01*
X160042857Y-119050000D01*
X160138095Y-119145238D01*
X160185714Y-119240476D01*
X160233333Y-119430952D01*
X160233333Y-119573809D01*
X160185714Y-119764285D01*
X160138095Y-119859523D01*
X160042857Y-119954761D01*
X159900000Y-120002380D01*
X159661904Y-120002380D01*
X160566666Y-119002380D02*
X161233333Y-119002380D01*
X160804761Y-120002380D01*
X129622380Y-105151666D02*
X129146190Y-105485000D01*
X129622380Y-105723095D02*
X128622380Y-105723095D01*
X128622380Y-105342142D01*
X128670000Y-105246904D01*
X128717619Y-105199285D01*
X128812857Y-105151666D01*
X128955714Y-105151666D01*
X129050952Y-105199285D01*
X129098571Y-105246904D01*
X129146190Y-105342142D01*
X129146190Y-105723095D01*
X128955714Y-104294523D02*
X129622380Y-104294523D01*
X128574761Y-104532619D02*
X129289047Y-104770714D01*
X129289047Y-104151666D01*
X131952380Y-103166666D02*
X131476190Y-103500000D01*
X131952380Y-103738095D02*
X130952380Y-103738095D01*
X130952380Y-103357142D01*
X131000000Y-103261904D01*
X131047619Y-103214285D01*
X131142857Y-103166666D01*
X131285714Y-103166666D01*
X131380952Y-103214285D01*
X131428571Y-103261904D01*
X131476190Y-103357142D01*
X131476190Y-103738095D01*
X130952380Y-102833333D02*
X130952380Y-102214285D01*
X131333333Y-102547619D01*
X131333333Y-102404761D01*
X131380952Y-102309523D01*
X131428571Y-102261904D01*
X131523809Y-102214285D01*
X131761904Y-102214285D01*
X131857142Y-102261904D01*
X131904761Y-102309523D01*
X131952380Y-102404761D01*
X131952380Y-102690476D01*
X131904761Y-102785714D01*
X131857142Y-102833333D01*
X175511904Y-115452380D02*
X175511904Y-114452380D01*
X175750000Y-114452380D01*
X175892857Y-114500000D01*
X175988095Y-114595238D01*
X176035714Y-114690476D01*
X176083333Y-114880952D01*
X176083333Y-115023809D01*
X176035714Y-115214285D01*
X175988095Y-115309523D01*
X175892857Y-115404761D01*
X175750000Y-115452380D01*
X175511904Y-115452380D01*
X176988095Y-114452380D02*
X176511904Y-114452380D01*
X176464285Y-114928571D01*
X176511904Y-114880952D01*
X176607142Y-114833333D01*
X176845238Y-114833333D01*
X176940476Y-114880952D01*
X176988095Y-114928571D01*
X177035714Y-115023809D01*
X177035714Y-115261904D01*
X176988095Y-115357142D01*
X176940476Y-115404761D01*
X176845238Y-115452380D01*
X176607142Y-115452380D01*
X176511904Y-115404761D01*
X176464285Y-115357142D01*
X175511904Y-119952380D02*
X175511904Y-118952380D01*
X175750000Y-118952380D01*
X175892857Y-119000000D01*
X175988095Y-119095238D01*
X176035714Y-119190476D01*
X176083333Y-119380952D01*
X176083333Y-119523809D01*
X176035714Y-119714285D01*
X175988095Y-119809523D01*
X175892857Y-119904761D01*
X175750000Y-119952380D01*
X175511904Y-119952380D01*
X176940476Y-119285714D02*
X176940476Y-119952380D01*
X176702380Y-118904761D02*
X176464285Y-119619047D01*
X177083333Y-119619047D01*
X175511904Y-124452380D02*
X175511904Y-123452380D01*
X175750000Y-123452380D01*
X175892857Y-123500000D01*
X175988095Y-123595238D01*
X176035714Y-123690476D01*
X176083333Y-123880952D01*
X176083333Y-124023809D01*
X176035714Y-124214285D01*
X175988095Y-124309523D01*
X175892857Y-124404761D01*
X175750000Y-124452380D01*
X175511904Y-124452380D01*
X176416666Y-123452380D02*
X177035714Y-123452380D01*
X176702380Y-123833333D01*
X176845238Y-123833333D01*
X176940476Y-123880952D01*
X176988095Y-123928571D01*
X177035714Y-124023809D01*
X177035714Y-124261904D01*
X176988095Y-124357142D01*
X176940476Y-124404761D01*
X176845238Y-124452380D01*
X176559523Y-124452380D01*
X176464285Y-124404761D01*
X176416666Y-124357142D01*
X175511904Y-128952380D02*
X175511904Y-127952380D01*
X175750000Y-127952380D01*
X175892857Y-128000000D01*
X175988095Y-128095238D01*
X176035714Y-128190476D01*
X176083333Y-128380952D01*
X176083333Y-128523809D01*
X176035714Y-128714285D01*
X175988095Y-128809523D01*
X175892857Y-128904761D01*
X175750000Y-128952380D01*
X175511904Y-128952380D01*
X176464285Y-128047619D02*
X176511904Y-128000000D01*
X176607142Y-127952380D01*
X176845238Y-127952380D01*
X176940476Y-128000000D01*
X176988095Y-128047619D01*
X177035714Y-128142857D01*
X177035714Y-128238095D01*
X176988095Y-128380952D01*
X176416666Y-128952380D01*
X177035714Y-128952380D01*
X181098571Y-107785714D02*
X181146190Y-107642857D01*
X181193809Y-107595238D01*
X181289047Y-107547619D01*
X181431904Y-107547619D01*
X181527142Y-107595238D01*
X181574761Y-107642857D01*
X181622380Y-107738095D01*
X181622380Y-108119047D01*
X180622380Y-108119047D01*
X180622380Y-107785714D01*
X180670000Y-107690476D01*
X180717619Y-107642857D01*
X180812857Y-107595238D01*
X180908095Y-107595238D01*
X181003333Y-107642857D01*
X181050952Y-107690476D01*
X181098571Y-107785714D01*
X181098571Y-108119047D01*
X180622380Y-107261904D02*
X180622380Y-106690476D01*
X181622380Y-106976190D02*
X180622380Y-106976190D01*
X181622380Y-105833333D02*
X181622380Y-106404761D01*
X181622380Y-106119047D02*
X180622380Y-106119047D01*
X180765238Y-106214285D01*
X180860476Y-106309523D01*
X180908095Y-106404761D01*
X169988095Y-109452380D02*
X169988095Y-110261904D01*
X170035714Y-110357142D01*
X170083333Y-110404761D01*
X170178571Y-110452380D01*
X170369047Y-110452380D01*
X170464285Y-110404761D01*
X170511904Y-110357142D01*
X170559523Y-110261904D01*
X170559523Y-109452380D01*
X170940476Y-109452380D02*
X171607142Y-109452380D01*
X171178571Y-110452380D01*
X130502380Y-121241584D02*
X131311904Y-121241584D01*
X131407142Y-121193965D01*
X131454761Y-121146346D01*
X131502380Y-121051108D01*
X131502380Y-120860632D01*
X131454761Y-120765394D01*
X131407142Y-120717775D01*
X131311904Y-120670156D01*
X130502380Y-120670156D01*
X130502380Y-119717775D02*
X130502380Y-120193965D01*
X130978571Y-120241584D01*
X130930952Y-120193965D01*
X130883333Y-120098727D01*
X130883333Y-119860632D01*
X130930952Y-119765394D01*
X130978571Y-119717775D01*
X131073809Y-119670156D01*
X131311904Y-119670156D01*
X131407142Y-119717775D01*
X131454761Y-119765394D01*
X131502380Y-119860632D01*
X131502380Y-120098727D01*
X131454761Y-120193965D01*
X131407142Y-120241584D01*
X111502380Y-120741584D02*
X112311904Y-120741584D01*
X112407142Y-120693965D01*
X112454761Y-120646346D01*
X112502380Y-120551108D01*
X112502380Y-120360632D01*
X112454761Y-120265394D01*
X112407142Y-120217775D01*
X112311904Y-120170156D01*
X111502380Y-120170156D01*
X111835714Y-119265394D02*
X112502380Y-119265394D01*
X111454761Y-119503489D02*
X112169047Y-119741584D01*
X112169047Y-119122537D01*
X112882380Y-101711904D02*
X113691904Y-101711904D01*
X113787142Y-101664285D01*
X113834761Y-101616666D01*
X113882380Y-101521428D01*
X113882380Y-101330952D01*
X113834761Y-101235714D01*
X113787142Y-101188095D01*
X113691904Y-101140476D01*
X112882380Y-101140476D01*
X112882380Y-100235714D02*
X112882380Y-100426190D01*
X112930000Y-100521428D01*
X112977619Y-100569047D01*
X113120476Y-100664285D01*
X113310952Y-100711904D01*
X113691904Y-100711904D01*
X113787142Y-100664285D01*
X113834761Y-100616666D01*
X113882380Y-100521428D01*
X113882380Y-100330952D01*
X113834761Y-100235714D01*
X113787142Y-100188095D01*
X113691904Y-100140476D01*
X113453809Y-100140476D01*
X113358571Y-100188095D01*
X113310952Y-100235714D01*
X113263333Y-100330952D01*
X113263333Y-100521428D01*
X113310952Y-100616666D01*
X113358571Y-100664285D01*
X113453809Y-100711904D01*
X152202380Y-82761904D02*
X153011904Y-82761904D01*
X153107142Y-82714285D01*
X153154761Y-82666666D01*
X153202380Y-82571428D01*
X153202380Y-82380952D01*
X153154761Y-82285714D01*
X153107142Y-82238095D01*
X153011904Y-82190476D01*
X152202380Y-82190476D01*
X152297619Y-81761904D02*
X152250000Y-81714285D01*
X152202380Y-81619047D01*
X152202380Y-81380952D01*
X152250000Y-81285714D01*
X152297619Y-81238095D01*
X152392857Y-81190476D01*
X152488095Y-81190476D01*
X152630952Y-81238095D01*
X153202380Y-81809523D01*
X153202380Y-81190476D01*
X141988095Y-101452380D02*
X141988095Y-102261904D01*
X142035714Y-102357142D01*
X142083333Y-102404761D01*
X142178571Y-102452380D01*
X142369047Y-102452380D01*
X142464285Y-102404761D01*
X142511904Y-102357142D01*
X142559523Y-102261904D01*
X142559523Y-101452380D01*
X143559523Y-102452380D02*
X142988095Y-102452380D01*
X143273809Y-102452380D02*
X143273809Y-101452380D01*
X143178571Y-101595238D01*
X143083333Y-101690476D01*
X142988095Y-101738095D01*
X176202380Y-103642857D02*
X175726190Y-103976190D01*
X176202380Y-104214285D02*
X175202380Y-104214285D01*
X175202380Y-103833333D01*
X175250000Y-103738095D01*
X175297619Y-103690476D01*
X175392857Y-103642857D01*
X175535714Y-103642857D01*
X175630952Y-103690476D01*
X175678571Y-103738095D01*
X175726190Y-103833333D01*
X175726190Y-104214285D01*
X175297619Y-103261904D02*
X175250000Y-103214285D01*
X175202380Y-103119047D01*
X175202380Y-102880952D01*
X175250000Y-102785714D01*
X175297619Y-102738095D01*
X175392857Y-102690476D01*
X175488095Y-102690476D01*
X175630952Y-102738095D01*
X176202380Y-103309523D01*
X176202380Y-102690476D01*
X175202380Y-101833333D02*
X175202380Y-102023809D01*
X175250000Y-102119047D01*
X175297619Y-102166666D01*
X175440476Y-102261904D01*
X175630952Y-102309523D01*
X176011904Y-102309523D01*
X176107142Y-102261904D01*
X176154761Y-102214285D01*
X176202380Y-102119047D01*
X176202380Y-101928571D01*
X176154761Y-101833333D01*
X176107142Y-101785714D01*
X176011904Y-101738095D01*
X175773809Y-101738095D01*
X175678571Y-101785714D01*
X175630952Y-101833333D01*
X175583333Y-101928571D01*
X175583333Y-102119047D01*
X175630952Y-102214285D01*
X175678571Y-102261904D01*
X175773809Y-102309523D01*
X178202380Y-108642857D02*
X177726190Y-108976190D01*
X178202380Y-109214285D02*
X177202380Y-109214285D01*
X177202380Y-108833333D01*
X177250000Y-108738095D01*
X177297619Y-108690476D01*
X177392857Y-108642857D01*
X177535714Y-108642857D01*
X177630952Y-108690476D01*
X177678571Y-108738095D01*
X177726190Y-108833333D01*
X177726190Y-109214285D01*
X177297619Y-108261904D02*
X177250000Y-108214285D01*
X177202380Y-108119047D01*
X177202380Y-107880952D01*
X177250000Y-107785714D01*
X177297619Y-107738095D01*
X177392857Y-107690476D01*
X177488095Y-107690476D01*
X177630952Y-107738095D01*
X178202380Y-108309523D01*
X178202380Y-107690476D01*
X177535714Y-106833333D02*
X178202380Y-106833333D01*
X177154761Y-107071428D02*
X177869047Y-107309523D01*
X177869047Y-106690476D01*
X132607142Y-115522380D02*
X132273809Y-115046190D01*
X132035714Y-115522380D02*
X132035714Y-114522380D01*
X132416666Y-114522380D01*
X132511904Y-114570000D01*
X132559523Y-114617619D01*
X132607142Y-114712857D01*
X132607142Y-114855714D01*
X132559523Y-114950952D01*
X132511904Y-114998571D01*
X132416666Y-115046190D01*
X132035714Y-115046190D01*
X133559523Y-115522380D02*
X132988095Y-115522380D01*
X133273809Y-115522380D02*
X133273809Y-114522380D01*
X133178571Y-114665238D01*
X133083333Y-114760476D01*
X132988095Y-114808095D01*
X134130952Y-114950952D02*
X134035714Y-114903333D01*
X133988095Y-114855714D01*
X133940476Y-114760476D01*
X133940476Y-114712857D01*
X133988095Y-114617619D01*
X134035714Y-114570000D01*
X134130952Y-114522380D01*
X134321428Y-114522380D01*
X134416666Y-114570000D01*
X134464285Y-114617619D01*
X134511904Y-114712857D01*
X134511904Y-114760476D01*
X134464285Y-114855714D01*
X134416666Y-114903333D01*
X134321428Y-114950952D01*
X134130952Y-114950952D01*
X134035714Y-114998571D01*
X133988095Y-115046190D01*
X133940476Y-115141428D01*
X133940476Y-115331904D01*
X133988095Y-115427142D01*
X134035714Y-115474761D01*
X134130952Y-115522380D01*
X134321428Y-115522380D01*
X134416666Y-115474761D01*
X134464285Y-115427142D01*
X134511904Y-115331904D01*
X134511904Y-115141428D01*
X134464285Y-115046190D01*
X134416666Y-114998571D01*
X134321428Y-114950952D01*
X129607142Y-115782380D02*
X129273809Y-115306190D01*
X129035714Y-115782380D02*
X129035714Y-114782380D01*
X129416666Y-114782380D01*
X129511904Y-114830000D01*
X129559523Y-114877619D01*
X129607142Y-114972857D01*
X129607142Y-115115714D01*
X129559523Y-115210952D01*
X129511904Y-115258571D01*
X129416666Y-115306190D01*
X129035714Y-115306190D01*
X130559523Y-115782380D02*
X129988095Y-115782380D01*
X130273809Y-115782380D02*
X130273809Y-114782380D01*
X130178571Y-114925238D01*
X130083333Y-115020476D01*
X129988095Y-115068095D01*
X130892857Y-114782380D02*
X131559523Y-114782380D01*
X131130952Y-115782380D01*
X113607142Y-115022380D02*
X113273809Y-114546190D01*
X113035714Y-115022380D02*
X113035714Y-114022380D01*
X113416666Y-114022380D01*
X113511904Y-114070000D01*
X113559523Y-114117619D01*
X113607142Y-114212857D01*
X113607142Y-114355714D01*
X113559523Y-114450952D01*
X113511904Y-114498571D01*
X113416666Y-114546190D01*
X113035714Y-114546190D01*
X114559523Y-115022380D02*
X113988095Y-115022380D01*
X114273809Y-115022380D02*
X114273809Y-114022380D01*
X114178571Y-114165238D01*
X114083333Y-114260476D01*
X113988095Y-114308095D01*
X115416666Y-114022380D02*
X115226190Y-114022380D01*
X115130952Y-114070000D01*
X115083333Y-114117619D01*
X114988095Y-114260476D01*
X114940476Y-114450952D01*
X114940476Y-114831904D01*
X114988095Y-114927142D01*
X115035714Y-114974761D01*
X115130952Y-115022380D01*
X115321428Y-115022380D01*
X115416666Y-114974761D01*
X115464285Y-114927142D01*
X115511904Y-114831904D01*
X115511904Y-114593809D01*
X115464285Y-114498571D01*
X115416666Y-114450952D01*
X115321428Y-114403333D01*
X115130952Y-114403333D01*
X115035714Y-114450952D01*
X114988095Y-114498571D01*
X114940476Y-114593809D01*
X110622142Y-115282380D02*
X110288809Y-114806190D01*
X110050714Y-115282380D02*
X110050714Y-114282380D01*
X110431666Y-114282380D01*
X110526904Y-114330000D01*
X110574523Y-114377619D01*
X110622142Y-114472857D01*
X110622142Y-114615714D01*
X110574523Y-114710952D01*
X110526904Y-114758571D01*
X110431666Y-114806190D01*
X110050714Y-114806190D01*
X111574523Y-115282380D02*
X111003095Y-115282380D01*
X111288809Y-115282380D02*
X111288809Y-114282380D01*
X111193571Y-114425238D01*
X111098333Y-114520476D01*
X111003095Y-114568095D01*
X112479285Y-114282380D02*
X112003095Y-114282380D01*
X111955476Y-114758571D01*
X112003095Y-114710952D01*
X112098333Y-114663333D01*
X112336428Y-114663333D01*
X112431666Y-114710952D01*
X112479285Y-114758571D01*
X112526904Y-114853809D01*
X112526904Y-115091904D01*
X112479285Y-115187142D01*
X112431666Y-115234761D01*
X112336428Y-115282380D01*
X112098333Y-115282380D01*
X112003095Y-115234761D01*
X111955476Y-115187142D01*
X137272380Y-121142857D02*
X136796190Y-121476190D01*
X137272380Y-121714285D02*
X136272380Y-121714285D01*
X136272380Y-121333333D01*
X136320000Y-121238095D01*
X136367619Y-121190476D01*
X136462857Y-121142857D01*
X136605714Y-121142857D01*
X136700952Y-121190476D01*
X136748571Y-121238095D01*
X136796190Y-121333333D01*
X136796190Y-121714285D01*
X137272380Y-120190476D02*
X137272380Y-120761904D01*
X137272380Y-120476190D02*
X136272380Y-120476190D01*
X136415238Y-120571428D01*
X136510476Y-120666666D01*
X136558095Y-120761904D01*
X136605714Y-119333333D02*
X137272380Y-119333333D01*
X136224761Y-119571428D02*
X136939047Y-119809523D01*
X136939047Y-119190476D01*
X118272380Y-120855357D02*
X117796190Y-121188690D01*
X118272380Y-121426785D02*
X117272380Y-121426785D01*
X117272380Y-121045833D01*
X117320000Y-120950595D01*
X117367619Y-120902976D01*
X117462857Y-120855357D01*
X117605714Y-120855357D01*
X117700952Y-120902976D01*
X117748571Y-120950595D01*
X117796190Y-121045833D01*
X117796190Y-121426785D01*
X118272380Y-119902976D02*
X118272380Y-120474404D01*
X118272380Y-120188690D02*
X117272380Y-120188690D01*
X117415238Y-120283928D01*
X117510476Y-120379166D01*
X117558095Y-120474404D01*
X117272380Y-119569642D02*
X117272380Y-118950595D01*
X117653333Y-119283928D01*
X117653333Y-119141071D01*
X117700952Y-119045833D01*
X117748571Y-118998214D01*
X117843809Y-118950595D01*
X118081904Y-118950595D01*
X118177142Y-118998214D01*
X118224761Y-119045833D01*
X118272380Y-119141071D01*
X118272380Y-119426785D01*
X118224761Y-119522023D01*
X118177142Y-119569642D01*
X112607142Y-105452380D02*
X112273809Y-104976190D01*
X112035714Y-105452380D02*
X112035714Y-104452380D01*
X112416666Y-104452380D01*
X112511904Y-104500000D01*
X112559523Y-104547619D01*
X112607142Y-104642857D01*
X112607142Y-104785714D01*
X112559523Y-104880952D01*
X112511904Y-104928571D01*
X112416666Y-104976190D01*
X112035714Y-104976190D01*
X112988095Y-104547619D02*
X113035714Y-104500000D01*
X113130952Y-104452380D01*
X113369047Y-104452380D01*
X113464285Y-104500000D01*
X113511904Y-104547619D01*
X113559523Y-104642857D01*
X113559523Y-104738095D01*
X113511904Y-104880952D01*
X112940476Y-105452380D01*
X113559523Y-105452380D01*
X114511904Y-105452380D02*
X113940476Y-105452380D01*
X114226190Y-105452380D02*
X114226190Y-104452380D01*
X114130952Y-104595238D01*
X114035714Y-104690476D01*
X113940476Y-104738095D01*
X120452380Y-101127857D02*
X119976190Y-101461190D01*
X120452380Y-101699285D02*
X119452380Y-101699285D01*
X119452380Y-101318333D01*
X119500000Y-101223095D01*
X119547619Y-101175476D01*
X119642857Y-101127857D01*
X119785714Y-101127857D01*
X119880952Y-101175476D01*
X119928571Y-101223095D01*
X119976190Y-101318333D01*
X119976190Y-101699285D01*
X119547619Y-100746904D02*
X119500000Y-100699285D01*
X119452380Y-100604047D01*
X119452380Y-100365952D01*
X119500000Y-100270714D01*
X119547619Y-100223095D01*
X119642857Y-100175476D01*
X119738095Y-100175476D01*
X119880952Y-100223095D01*
X120452380Y-100794523D01*
X120452380Y-100175476D01*
X119452380Y-99556428D02*
X119452380Y-99461190D01*
X119500000Y-99365952D01*
X119547619Y-99318333D01*
X119642857Y-99270714D01*
X119833333Y-99223095D01*
X120071428Y-99223095D01*
X120261904Y-99270714D01*
X120357142Y-99318333D01*
X120404761Y-99365952D01*
X120452380Y-99461190D01*
X120452380Y-99556428D01*
X120404761Y-99651666D01*
X120357142Y-99699285D01*
X120261904Y-99746904D01*
X120071428Y-99794523D01*
X119833333Y-99794523D01*
X119642857Y-99746904D01*
X119547619Y-99699285D01*
X119500000Y-99651666D01*
X119452380Y-99556428D01*
X157583333Y-87452380D02*
X157250000Y-86976190D01*
X157011904Y-87452380D02*
X157011904Y-86452380D01*
X157392857Y-86452380D01*
X157488095Y-86500000D01*
X157535714Y-86547619D01*
X157583333Y-86642857D01*
X157583333Y-86785714D01*
X157535714Y-86880952D01*
X157488095Y-86928571D01*
X157392857Y-86976190D01*
X157011904Y-86976190D01*
X157964285Y-86547619D02*
X158011904Y-86500000D01*
X158107142Y-86452380D01*
X158345238Y-86452380D01*
X158440476Y-86500000D01*
X158488095Y-86547619D01*
X158535714Y-86642857D01*
X158535714Y-86738095D01*
X158488095Y-86880952D01*
X157916666Y-87452380D01*
X158535714Y-87452380D01*
X153702380Y-87166666D02*
X153226190Y-87500000D01*
X153702380Y-87738095D02*
X152702380Y-87738095D01*
X152702380Y-87357142D01*
X152750000Y-87261904D01*
X152797619Y-87214285D01*
X152892857Y-87166666D01*
X153035714Y-87166666D01*
X153130952Y-87214285D01*
X153178571Y-87261904D01*
X153226190Y-87357142D01*
X153226190Y-87738095D01*
X153702380Y-86214285D02*
X153702380Y-86785714D01*
X153702380Y-86500000D02*
X152702380Y-86500000D01*
X152845238Y-86595238D01*
X152940476Y-86690476D01*
X152988095Y-86785714D01*
X133583333Y-128452380D02*
X133107142Y-128452380D01*
X133107142Y-127452380D01*
X133869047Y-127547619D02*
X133916666Y-127500000D01*
X134011904Y-127452380D01*
X134250000Y-127452380D01*
X134345238Y-127500000D01*
X134392857Y-127547619D01*
X134440476Y-127642857D01*
X134440476Y-127738095D01*
X134392857Y-127880952D01*
X133821428Y-128452380D01*
X134440476Y-128452380D01*
X114583333Y-127952380D02*
X114107142Y-127952380D01*
X114107142Y-126952380D01*
X115440476Y-127952380D02*
X114869047Y-127952380D01*
X115154761Y-127952380D02*
X115154761Y-126952380D01*
X115059523Y-127095238D01*
X114964285Y-127190476D01*
X114869047Y-127238095D01*
X155061904Y-91302380D02*
X155061904Y-90302380D01*
X155300000Y-90302380D01*
X155442857Y-90350000D01*
X155538095Y-90445238D01*
X155585714Y-90540476D01*
X155633333Y-90730952D01*
X155633333Y-90873809D01*
X155585714Y-91064285D01*
X155538095Y-91159523D01*
X155442857Y-91254761D01*
X155300000Y-91302380D01*
X155061904Y-91302380D01*
X156585714Y-91302380D02*
X156014285Y-91302380D01*
X156300000Y-91302380D02*
X156300000Y-90302380D01*
X156204761Y-90445238D01*
X156109523Y-90540476D01*
X156014285Y-90588095D01*
X177107142Y-110857142D02*
X177059523Y-110904761D01*
X176916666Y-110952380D01*
X176821428Y-110952380D01*
X176678571Y-110904761D01*
X176583333Y-110809523D01*
X176535714Y-110714285D01*
X176488095Y-110523809D01*
X176488095Y-110380952D01*
X176535714Y-110190476D01*
X176583333Y-110095238D01*
X176678571Y-110000000D01*
X176821428Y-109952380D01*
X176916666Y-109952380D01*
X177059523Y-110000000D01*
X177107142Y-110047619D01*
X178059523Y-110952380D02*
X177488095Y-110952380D01*
X177773809Y-110952380D02*
X177773809Y-109952380D01*
X177678571Y-110095238D01*
X177583333Y-110190476D01*
X177488095Y-110238095D01*
X178535714Y-110952380D02*
X178726190Y-110952380D01*
X178821428Y-110904761D01*
X178869047Y-110857142D01*
X178964285Y-110714285D01*
X179011904Y-110523809D01*
X179011904Y-110142857D01*
X178964285Y-110047619D01*
X178916666Y-110000000D01*
X178821428Y-109952380D01*
X178630952Y-109952380D01*
X178535714Y-110000000D01*
X178488095Y-110047619D01*
X178440476Y-110142857D01*
X178440476Y-110380952D01*
X178488095Y-110476190D01*
X178535714Y-110523809D01*
X178630952Y-110571428D01*
X178821428Y-110571428D01*
X178916666Y-110523809D01*
X178964285Y-110476190D01*
X179011904Y-110380952D01*
X125177142Y-121142857D02*
X125224761Y-121190476D01*
X125272380Y-121333333D01*
X125272380Y-121428571D01*
X125224761Y-121571428D01*
X125129523Y-121666666D01*
X125034285Y-121714285D01*
X124843809Y-121761904D01*
X124700952Y-121761904D01*
X124510476Y-121714285D01*
X124415238Y-121666666D01*
X124320000Y-121571428D01*
X124272380Y-121428571D01*
X124272380Y-121333333D01*
X124320000Y-121190476D01*
X124367619Y-121142857D01*
X125272380Y-120190476D02*
X125272380Y-120761904D01*
X125272380Y-120476190D02*
X124272380Y-120476190D01*
X124415238Y-120571428D01*
X124510476Y-120666666D01*
X124558095Y-120761904D01*
X124272380Y-119285714D02*
X124272380Y-119761904D01*
X124748571Y-119809523D01*
X124700952Y-119761904D01*
X124653333Y-119666666D01*
X124653333Y-119428571D01*
X124700952Y-119333333D01*
X124748571Y-119285714D01*
X124843809Y-119238095D01*
X125081904Y-119238095D01*
X125177142Y-119285714D01*
X125224761Y-119333333D01*
X125272380Y-119428571D01*
X125272380Y-119666666D01*
X125224761Y-119761904D01*
X125177142Y-119809523D01*
X128177142Y-121142857D02*
X128224761Y-121190476D01*
X128272380Y-121333333D01*
X128272380Y-121428571D01*
X128224761Y-121571428D01*
X128129523Y-121666666D01*
X128034285Y-121714285D01*
X127843809Y-121761904D01*
X127700952Y-121761904D01*
X127510476Y-121714285D01*
X127415238Y-121666666D01*
X127320000Y-121571428D01*
X127272380Y-121428571D01*
X127272380Y-121333333D01*
X127320000Y-121190476D01*
X127367619Y-121142857D01*
X128272380Y-120190476D02*
X128272380Y-120761904D01*
X128272380Y-120476190D02*
X127272380Y-120476190D01*
X127415238Y-120571428D01*
X127510476Y-120666666D01*
X127558095Y-120761904D01*
X127272380Y-119857142D02*
X127272380Y-119238095D01*
X127653333Y-119571428D01*
X127653333Y-119428571D01*
X127700952Y-119333333D01*
X127748571Y-119285714D01*
X127843809Y-119238095D01*
X128081904Y-119238095D01*
X128177142Y-119285714D01*
X128224761Y-119333333D01*
X128272380Y-119428571D01*
X128272380Y-119714285D01*
X128224761Y-119809523D01*
X128177142Y-119857142D01*
X137177142Y-117355357D02*
X137224761Y-117402976D01*
X137272380Y-117545833D01*
X137272380Y-117641071D01*
X137224761Y-117783928D01*
X137129523Y-117879166D01*
X137034285Y-117926785D01*
X136843809Y-117974404D01*
X136700952Y-117974404D01*
X136510476Y-117926785D01*
X136415238Y-117879166D01*
X136320000Y-117783928D01*
X136272380Y-117641071D01*
X136272380Y-117545833D01*
X136320000Y-117402976D01*
X136367619Y-117355357D01*
X137272380Y-116402976D02*
X137272380Y-116974404D01*
X137272380Y-116688690D02*
X136272380Y-116688690D01*
X136415238Y-116783928D01*
X136510476Y-116879166D01*
X136558095Y-116974404D01*
X137272380Y-115450595D02*
X137272380Y-116022023D01*
X137272380Y-115736309D02*
X136272380Y-115736309D01*
X136415238Y-115831547D01*
X136510476Y-115926785D01*
X136558095Y-116022023D01*
X118177142Y-117142857D02*
X118224761Y-117190476D01*
X118272380Y-117333333D01*
X118272380Y-117428571D01*
X118224761Y-117571428D01*
X118129523Y-117666666D01*
X118034285Y-117714285D01*
X117843809Y-117761904D01*
X117700952Y-117761904D01*
X117510476Y-117714285D01*
X117415238Y-117666666D01*
X117320000Y-117571428D01*
X117272380Y-117428571D01*
X117272380Y-117333333D01*
X117320000Y-117190476D01*
X117367619Y-117142857D01*
X118272380Y-116190476D02*
X118272380Y-116761904D01*
X118272380Y-116476190D02*
X117272380Y-116476190D01*
X117415238Y-116571428D01*
X117510476Y-116666666D01*
X117558095Y-116761904D01*
X117272380Y-115571428D02*
X117272380Y-115476190D01*
X117320000Y-115380952D01*
X117367619Y-115333333D01*
X117462857Y-115285714D01*
X117653333Y-115238095D01*
X117891428Y-115238095D01*
X118081904Y-115285714D01*
X118177142Y-115333333D01*
X118224761Y-115380952D01*
X118272380Y-115476190D01*
X118272380Y-115571428D01*
X118224761Y-115666666D01*
X118177142Y-115714285D01*
X118081904Y-115761904D01*
X117891428Y-115809523D01*
X117653333Y-115809523D01*
X117462857Y-115761904D01*
X117367619Y-115714285D01*
X117320000Y-115666666D01*
X117272380Y-115571428D01*
X140177142Y-120666666D02*
X140224761Y-120714285D01*
X140272380Y-120857142D01*
X140272380Y-120952380D01*
X140224761Y-121095238D01*
X140129523Y-121190476D01*
X140034285Y-121238095D01*
X139843809Y-121285714D01*
X139700952Y-121285714D01*
X139510476Y-121238095D01*
X139415238Y-121190476D01*
X139320000Y-121095238D01*
X139272380Y-120952380D01*
X139272380Y-120857142D01*
X139320000Y-120714285D01*
X139367619Y-120666666D01*
X140272380Y-120190476D02*
X140272380Y-120000000D01*
X140224761Y-119904761D01*
X140177142Y-119857142D01*
X140034285Y-119761904D01*
X139843809Y-119714285D01*
X139462857Y-119714285D01*
X139367619Y-119761904D01*
X139320000Y-119809523D01*
X139272380Y-119904761D01*
X139272380Y-120095238D01*
X139320000Y-120190476D01*
X139367619Y-120238095D01*
X139462857Y-120285714D01*
X139700952Y-120285714D01*
X139796190Y-120238095D01*
X139843809Y-120190476D01*
X139891428Y-120095238D01*
X139891428Y-119904761D01*
X139843809Y-119809523D01*
X139796190Y-119761904D01*
X139700952Y-119714285D01*
X121177142Y-120379166D02*
X121224761Y-120426785D01*
X121272380Y-120569642D01*
X121272380Y-120664880D01*
X121224761Y-120807738D01*
X121129523Y-120902976D01*
X121034285Y-120950595D01*
X120843809Y-120998214D01*
X120700952Y-120998214D01*
X120510476Y-120950595D01*
X120415238Y-120902976D01*
X120320000Y-120807738D01*
X120272380Y-120664880D01*
X120272380Y-120569642D01*
X120320000Y-120426785D01*
X120367619Y-120379166D01*
X120700952Y-119807738D02*
X120653333Y-119902976D01*
X120605714Y-119950595D01*
X120510476Y-119998214D01*
X120462857Y-119998214D01*
X120367619Y-119950595D01*
X120320000Y-119902976D01*
X120272380Y-119807738D01*
X120272380Y-119617261D01*
X120320000Y-119522023D01*
X120367619Y-119474404D01*
X120462857Y-119426785D01*
X120510476Y-119426785D01*
X120605714Y-119474404D01*
X120653333Y-119522023D01*
X120700952Y-119617261D01*
X120700952Y-119807738D01*
X120748571Y-119902976D01*
X120796190Y-119950595D01*
X120891428Y-119998214D01*
X121081904Y-119998214D01*
X121177142Y-119950595D01*
X121224761Y-119902976D01*
X121272380Y-119807738D01*
X121272380Y-119617261D01*
X121224761Y-119522023D01*
X121177142Y-119474404D01*
X121081904Y-119426785D01*
X120891428Y-119426785D01*
X120796190Y-119474404D01*
X120748571Y-119522023D01*
X120700952Y-119617261D01*
X124107142Y-109742857D02*
X124154761Y-109790476D01*
X124202380Y-109933333D01*
X124202380Y-110028571D01*
X124154761Y-110171428D01*
X124059523Y-110266666D01*
X123964285Y-110314285D01*
X123773809Y-110361904D01*
X123630952Y-110361904D01*
X123440476Y-110314285D01*
X123345238Y-110266666D01*
X123250000Y-110171428D01*
X123202380Y-110028571D01*
X123202380Y-109933333D01*
X123250000Y-109790476D01*
X123297619Y-109742857D01*
X124202380Y-108790476D02*
X124202380Y-109361904D01*
X124202380Y-109076190D02*
X123202380Y-109076190D01*
X123345238Y-109171428D01*
X123440476Y-109266666D01*
X123488095Y-109361904D01*
X123630952Y-108219047D02*
X123583333Y-108314285D01*
X123535714Y-108361904D01*
X123440476Y-108409523D01*
X123392857Y-108409523D01*
X123297619Y-108361904D01*
X123250000Y-108314285D01*
X123202380Y-108219047D01*
X123202380Y-108028571D01*
X123250000Y-107933333D01*
X123297619Y-107885714D01*
X123392857Y-107838095D01*
X123440476Y-107838095D01*
X123535714Y-107885714D01*
X123583333Y-107933333D01*
X123630952Y-108028571D01*
X123630952Y-108219047D01*
X123678571Y-108314285D01*
X123726190Y-108361904D01*
X123821428Y-108409523D01*
X124011904Y-108409523D01*
X124107142Y-108361904D01*
X124154761Y-108314285D01*
X124202380Y-108219047D01*
X124202380Y-108028571D01*
X124154761Y-107933333D01*
X124107142Y-107885714D01*
X124011904Y-107838095D01*
X123821428Y-107838095D01*
X123726190Y-107885714D01*
X123678571Y-107933333D01*
X123630952Y-108028571D01*
X118107142Y-106107142D02*
X118059523Y-106154761D01*
X117916666Y-106202380D01*
X117821428Y-106202380D01*
X117678571Y-106154761D01*
X117583333Y-106059523D01*
X117535714Y-105964285D01*
X117488095Y-105773809D01*
X117488095Y-105630952D01*
X117535714Y-105440476D01*
X117583333Y-105345238D01*
X117678571Y-105250000D01*
X117821428Y-105202380D01*
X117916666Y-105202380D01*
X118059523Y-105250000D01*
X118107142Y-105297619D01*
X119059523Y-106202380D02*
X118488095Y-106202380D01*
X118773809Y-106202380D02*
X118773809Y-105202380D01*
X118678571Y-105345238D01*
X118583333Y-105440476D01*
X118488095Y-105488095D01*
X119916666Y-105202380D02*
X119726190Y-105202380D01*
X119630952Y-105250000D01*
X119583333Y-105297619D01*
X119488095Y-105440476D01*
X119440476Y-105630952D01*
X119440476Y-106011904D01*
X119488095Y-106107142D01*
X119535714Y-106154761D01*
X119630952Y-106202380D01*
X119821428Y-106202380D01*
X119916666Y-106154761D01*
X119964285Y-106107142D01*
X120011904Y-106011904D01*
X120011904Y-105773809D01*
X119964285Y-105678571D01*
X119916666Y-105630952D01*
X119821428Y-105583333D01*
X119630952Y-105583333D01*
X119535714Y-105630952D01*
X119488095Y-105678571D01*
X119440476Y-105773809D01*
X143607142Y-77666666D02*
X143654761Y-77714285D01*
X143702380Y-77857142D01*
X143702380Y-77952380D01*
X143654761Y-78095238D01*
X143559523Y-78190476D01*
X143464285Y-78238095D01*
X143273809Y-78285714D01*
X143130952Y-78285714D01*
X142940476Y-78238095D01*
X142845238Y-78190476D01*
X142750000Y-78095238D01*
X142702380Y-77952380D01*
X142702380Y-77857142D01*
X142750000Y-77714285D01*
X142797619Y-77666666D01*
X142702380Y-77333333D02*
X142702380Y-76666666D01*
X143702380Y-77095238D01*
X141107142Y-77666666D02*
X141154761Y-77714285D01*
X141202380Y-77857142D01*
X141202380Y-77952380D01*
X141154761Y-78095238D01*
X141059523Y-78190476D01*
X140964285Y-78238095D01*
X140773809Y-78285714D01*
X140630952Y-78285714D01*
X140440476Y-78238095D01*
X140345238Y-78190476D01*
X140250000Y-78095238D01*
X140202380Y-77952380D01*
X140202380Y-77857142D01*
X140250000Y-77714285D01*
X140297619Y-77666666D01*
X140202380Y-76809523D02*
X140202380Y-77000000D01*
X140250000Y-77095238D01*
X140297619Y-77142857D01*
X140440476Y-77238095D01*
X140630952Y-77285714D01*
X141011904Y-77285714D01*
X141107142Y-77238095D01*
X141154761Y-77190476D01*
X141202380Y-77095238D01*
X141202380Y-76904761D01*
X141154761Y-76809523D01*
X141107142Y-76761904D01*
X141011904Y-76714285D01*
X140773809Y-76714285D01*
X140678571Y-76761904D01*
X140630952Y-76809523D01*
X140583333Y-76904761D01*
X140583333Y-77095238D01*
X140630952Y-77190476D01*
X140678571Y-77238095D01*
X140773809Y-77285714D01*
X154583333Y-92857142D02*
X154535714Y-92904761D01*
X154392857Y-92952380D01*
X154297619Y-92952380D01*
X154154761Y-92904761D01*
X154059523Y-92809523D01*
X154011904Y-92714285D01*
X153964285Y-92523809D01*
X153964285Y-92380952D01*
X154011904Y-92190476D01*
X154059523Y-92095238D01*
X154154761Y-92000000D01*
X154297619Y-91952380D01*
X154392857Y-91952380D01*
X154535714Y-92000000D01*
X154583333Y-92047619D01*
X155488095Y-91952380D02*
X155011904Y-91952380D01*
X154964285Y-92428571D01*
X155011904Y-92380952D01*
X155107142Y-92333333D01*
X155345238Y-92333333D01*
X155440476Y-92380952D01*
X155488095Y-92428571D01*
X155535714Y-92523809D01*
X155535714Y-92761904D01*
X155488095Y-92857142D01*
X155440476Y-92904761D01*
X155345238Y-92952380D01*
X155107142Y-92952380D01*
X155011904Y-92904761D01*
X154964285Y-92857142D01*
X158607142Y-80166666D02*
X158654761Y-80214285D01*
X158702380Y-80357142D01*
X158702380Y-80452380D01*
X158654761Y-80595238D01*
X158559523Y-80690476D01*
X158464285Y-80738095D01*
X158273809Y-80785714D01*
X158130952Y-80785714D01*
X157940476Y-80738095D01*
X157845238Y-80690476D01*
X157750000Y-80595238D01*
X157702380Y-80452380D01*
X157702380Y-80357142D01*
X157750000Y-80214285D01*
X157797619Y-80166666D01*
X158035714Y-79309523D02*
X158702380Y-79309523D01*
X157654761Y-79547619D02*
X158369047Y-79785714D01*
X158369047Y-79166666D01*
X156107142Y-81666666D02*
X156154761Y-81714285D01*
X156202380Y-81857142D01*
X156202380Y-81952380D01*
X156154761Y-82095238D01*
X156059523Y-82190476D01*
X155964285Y-82238095D01*
X155773809Y-82285714D01*
X155630952Y-82285714D01*
X155440476Y-82238095D01*
X155345238Y-82190476D01*
X155250000Y-82095238D01*
X155202380Y-81952380D01*
X155202380Y-81857142D01*
X155250000Y-81714285D01*
X155297619Y-81666666D01*
X155202380Y-81333333D02*
X155202380Y-80714285D01*
X155583333Y-81047619D01*
X155583333Y-80904761D01*
X155630952Y-80809523D01*
X155678571Y-80761904D01*
X155773809Y-80714285D01*
X156011904Y-80714285D01*
X156107142Y-80761904D01*
X156154761Y-80809523D01*
X156202380Y-80904761D01*
X156202380Y-81190476D01*
X156154761Y-81285714D01*
X156107142Y-81333333D01*
X146107142Y-75181666D02*
X146154761Y-75229285D01*
X146202380Y-75372142D01*
X146202380Y-75467380D01*
X146154761Y-75610238D01*
X146059523Y-75705476D01*
X145964285Y-75753095D01*
X145773809Y-75800714D01*
X145630952Y-75800714D01*
X145440476Y-75753095D01*
X145345238Y-75705476D01*
X145250000Y-75610238D01*
X145202380Y-75467380D01*
X145202380Y-75372142D01*
X145250000Y-75229285D01*
X145297619Y-75181666D01*
X145297619Y-74800714D02*
X145250000Y-74753095D01*
X145202380Y-74657857D01*
X145202380Y-74419761D01*
X145250000Y-74324523D01*
X145297619Y-74276904D01*
X145392857Y-74229285D01*
X145488095Y-74229285D01*
X145630952Y-74276904D01*
X146202380Y-74848333D01*
X146202380Y-74229285D01*
X156107142Y-75166666D02*
X156154761Y-75214285D01*
X156202380Y-75357142D01*
X156202380Y-75452380D01*
X156154761Y-75595238D01*
X156059523Y-75690476D01*
X155964285Y-75738095D01*
X155773809Y-75785714D01*
X155630952Y-75785714D01*
X155440476Y-75738095D01*
X155345238Y-75690476D01*
X155250000Y-75595238D01*
X155202380Y-75452380D01*
X155202380Y-75357142D01*
X155250000Y-75214285D01*
X155297619Y-75166666D01*
X156202380Y-74214285D02*
X156202380Y-74785714D01*
X156202380Y-74500000D02*
X155202380Y-74500000D01*
X155345238Y-74595238D01*
X155440476Y-74690476D01*
X155488095Y-74785714D01*
M02*
