  0
SECTION
  2
HEADER
  9
$ANGBASE
  50
0.0
  9
$ANGDIR
  70
1
  9
$MEASUREMENT
  70
1
  0
ENDSEC
  0
SECTION
  2
TABLES
  0
TABLE
  2
LTYPE
  70
4
  0
LTYPE
  5
40F
  2
CONTINUOUS
  70
0
  3
Solid line
  72
65
  73
0
  40
0.0
  0
LTYPE
  5
410
  2
DASHDOT
 70
0
  3
Dash Dot ____ _ ____ _
 72
65
 73
4
 40
2.0
 49
1.25
 49
-0.25
 49
0.25
 49
-0.25
  0
LTYPE
  5
411
  2
DASHED
 70
0
  3
Dashed __ __ __ __ __
 72
65
 73
2
 40
0.75
 49
0.5
 49
-0.25
  0
LTYPE
  5
43B
  2
DOTTED
 70
0
  3
Dotted .  .  .  .
 72
65
 73
2
 40
0.2
 49
0.0
 49
-0.2
  0
ENDTAB
  0
TABLE
  2
STYLE
  70
4
  0
STYLE
  2
KICAD
  70
0
  40
0
  41
1
  42
1
  50
0
  71
0
  3
isocp.shx
  0
STYLE
  2
KICADB
  70
0
  40
0
  41
1
  42
1
  50
0
  71
0
  3
isocp.shx
  0
STYLE
  2
KICADI
  70
0
  40
0
  41
1
  42
1
  50
15
  71
0
  3
isocp.shx
  0
STYLE
  2
KICADBI
  70
0
  40
0
  41
1
  42
1
  50
15
  71
0
  3
isocp.shx
  0
ENDTAB
  0
TABLE
  2
LAYER
  70
1
  0
LAYER
  2
BLACK
  70
0
  62
7
  6
CONTINUOUS
  0
ENDTAB
  0
ENDSEC
  0
SECTION
  2
ENTITIES
0
LINE
8
BLACK
6
CONTINUOUS
10
111.686
20
-89.338
11
110.536
21
-89.338
0
LINE
8
BLACK
6
CONTINUOUS
10
110.536
20
-89.338
11
110.536
21
-88.338
0
LINE
8
BLACK
6
CONTINUOUS
10
110.536
20
-88.338
11
111.686
21
-88.338
0
LINE
8
BLACK
6
CONTINUOUS
10
111.686
20
-88.338
11
111.686
21
-89.338
0
LINE
8
BLACK
6
CONTINUOUS
10
109.936
20
-89.338
11
108.786
21
-89.338
0
LINE
8
BLACK
6
CONTINUOUS
10
108.786
20
-89.338
11
108.786
21
-88.338
0
LINE
8
BLACK
6
CONTINUOUS
10
108.786
20
-88.338
11
109.936
21
-88.338
0
LINE
8
BLACK
6
CONTINUOUS
10
109.936
20
-88.338
11
109.936
21
-89.338
0
LINE
8
BLACK
6
CONTINUOUS
10
117.765
20
-88.3286
11
117.791
21
-88.3363
0
LINE
8
BLACK
6
CONTINUOUS
10
117.791
20
-88.3363
11
117.814
21
-88.3488
0
LINE
8
BLACK
6
CONTINUOUS
10
117.814
20
-88.3488
11
117.834
21
-88.3655
0
LINE
8
BLACK
6
CONTINUOUS
10
117.834
20
-88.3655
11
117.851
21
-88.386
0
LINE
8
BLACK
6
CONTINUOUS
10
117.851
20
-88.386
11
117.864
21
-88.4093
0
LINE
8
BLACK
6
CONTINUOUS
10
117.864
20
-88.4093
11
117.871
21
-88.4347
0
LINE
8
BLACK
6
CONTINUOUS
10
117.871
20
-88.4347
11
117.874
21
-88.461
0
LINE
8
BLACK
6
CONTINUOUS
10
117.874
20
-88.461
11
117.874
21
-88.831
0
LINE
8
BLACK
6
CONTINUOUS
10
117.874
20
-88.831
11
117.871
21
-88.8573
0
LINE
8
BLACK
6
CONTINUOUS
10
117.871
20
-88.8573
11
117.864
21
-88.8827
0
LINE
8
BLACK
6
CONTINUOUS
10
117.864
20
-88.8827
11
117.851
21
-88.906
0
LINE
8
BLACK
6
CONTINUOUS
10
117.851
20
-88.906
11
117.834
21
-88.9265
0
LINE
8
BLACK
6
CONTINUOUS
10
117.834
20
-88.9265
11
117.814
21
-88.9432
0
LINE
8
BLACK
6
CONTINUOUS
10
117.814
20
-88.9432
11
117.791
21
-88.9557
0
LINE
8
BLACK
6
CONTINUOUS
10
117.791
20
-88.9557
11
117.765
21
-88.9634
0
LINE
8
BLACK
6
CONTINUOUS
10
117.765
20
-88.9634
11
117.739
21
-88.966
0
LINE
8
BLACK
6
CONTINUOUS
10
117.739
20
-88.966
11
117.469
21
-88.966
0
LINE
8
BLACK
6
CONTINUOUS
10
117.469
20
-88.966
11
117.443
21
-88.9634
0
LINE
8
BLACK
6
CONTINUOUS
10
117.443
20
-88.9634
11
117.417
21
-88.9557
0
LINE
8
BLACK
6
CONTINUOUS
10
117.417
20
-88.9557
11
117.394
21
-88.9432
0
LINE
8
BLACK
6
CONTINUOUS
10
117.394
20
-88.9432
11
117.374
21
-88.9265
0
LINE
8
BLACK
6
CONTINUOUS
10
117.374
20
-88.9265
11
117.357
21
-88.906
0
LINE
8
BLACK
6
CONTINUOUS
10
117.357
20
-88.906
11
117.344
21
-88.8827
0
LINE
8
BLACK
6
CONTINUOUS
10
117.344
20
-88.8827
11
117.337
21
-88.8573
0
LINE
8
BLACK
6
CONTINUOUS
10
117.337
20
-88.8573
11
117.334
21
-88.831
0
LINE
8
BLACK
6
CONTINUOUS
10
117.334
20
-88.831
11
117.334
21
-88.461
0
LINE
8
BLACK
6
CONTINUOUS
10
117.334
20
-88.461
11
117.337
21
-88.4347
0
LINE
8
BLACK
6
CONTINUOUS
10
117.337
20
-88.4347
11
117.344
21
-88.4093
0
LINE
8
BLACK
6
CONTINUOUS
10
117.344
20
-88.4093
11
117.357
21
-88.386
0
LINE
8
BLACK
6
CONTINUOUS
10
117.357
20
-88.386
11
117.374
21
-88.3655
0
LINE
8
BLACK
6
CONTINUOUS
10
117.374
20
-88.3655
11
117.394
21
-88.3488
0
LINE
8
BLACK
6
CONTINUOUS
10
117.394
20
-88.3488
11
117.417
21
-88.3363
0
LINE
8
BLACK
6
CONTINUOUS
10
117.417
20
-88.3363
11
117.443
21
-88.3286
0
LINE
8
BLACK
6
CONTINUOUS
10
117.443
20
-88.3286
11
117.469
21
-88.326
0
LINE
8
BLACK
6
CONTINUOUS
10
117.469
20
-88.326
11
117.739
21
-88.326
0
LINE
8
BLACK
6
CONTINUOUS
10
117.739
20
-88.326
11
117.765
21
-88.3286
0
LINE
8
BLACK
6
CONTINUOUS
10
116.745
20
-88.3286
11
116.771
21
-88.3363
0
LINE
8
BLACK
6
CONTINUOUS
10
116.771
20
-88.3363
11
116.794
21
-88.3488
0
LINE
8
BLACK
6
CONTINUOUS
10
116.794
20
-88.3488
11
116.814
21
-88.3655
0
LINE
8
BLACK
6
CONTINUOUS
10
116.814
20
-88.3655
11
116.831
21
-88.386
0
LINE
8
BLACK
6
CONTINUOUS
10
116.831
20
-88.386
11
116.844
21
-88.4093
0
LINE
8
BLACK
6
CONTINUOUS
10
116.844
20
-88.4093
11
116.851
21
-88.4347
0
LINE
8
BLACK
6
CONTINUOUS
10
116.851
20
-88.4347
11
116.854
21
-88.461
0
LINE
8
BLACK
6
CONTINUOUS
10
116.854
20
-88.461
11
116.854
21
-88.831
0
LINE
8
BLACK
6
CONTINUOUS
10
116.854
20
-88.831
11
116.851
21
-88.8573
0
LINE
8
BLACK
6
CONTINUOUS
10
116.851
20
-88.8573
11
116.844
21
-88.8827
0
LINE
8
BLACK
6
CONTINUOUS
10
116.844
20
-88.8827
11
116.831
21
-88.906
0
LINE
8
BLACK
6
CONTINUOUS
10
116.831
20
-88.906
11
116.814
21
-88.9265
0
LINE
8
BLACK
6
CONTINUOUS
10
116.814
20
-88.9265
11
116.794
21
-88.9432
0
LINE
8
BLACK
6
CONTINUOUS
10
116.794
20
-88.9432
11
116.771
21
-88.9557
0
LINE
8
BLACK
6
CONTINUOUS
10
116.771
20
-88.9557
11
116.745
21
-88.9634
0
LINE
8
BLACK
6
CONTINUOUS
10
116.745
20
-88.9634
11
116.719
21
-88.966
0
LINE
8
BLACK
6
CONTINUOUS
10
116.719
20
-88.966
11
116.449
21
-88.966
0
LINE
8
BLACK
6
CONTINUOUS
10
116.449
20
-88.966
11
116.423
21
-88.9634
0
LINE
8
BLACK
6
CONTINUOUS
10
116.423
20
-88.9634
11
116.397
21
-88.9557
0
LINE
8
BLACK
6
CONTINUOUS
10
116.397
20
-88.9557
11
116.374
21
-88.9432
0
LINE
8
BLACK
6
CONTINUOUS
10
116.374
20
-88.9432
11
116.354
21
-88.9265
0
LINE
8
BLACK
6
CONTINUOUS
10
116.354
20
-88.9265
11
116.337
21
-88.906
0
LINE
8
BLACK
6
CONTINUOUS
10
116.337
20
-88.906
11
116.324
21
-88.8827
0
LINE
8
BLACK
6
CONTINUOUS
10
116.324
20
-88.8827
11
116.317
21
-88.8573
0
LINE
8
BLACK
6
CONTINUOUS
10
116.317
20
-88.8573
11
116.314
21
-88.831
0
LINE
8
BLACK
6
CONTINUOUS
10
116.314
20
-88.831
11
116.314
21
-88.461
0
LINE
8
BLACK
6
CONTINUOUS
10
116.314
20
-88.461
11
116.317
21
-88.4347
0
LINE
8
BLACK
6
CONTINUOUS
10
116.317
20
-88.4347
11
116.324
21
-88.4093
0
LINE
8
BLACK
6
CONTINUOUS
10
116.324
20
-88.4093
11
116.337
21
-88.386
0
LINE
8
BLACK
6
CONTINUOUS
10
116.337
20
-88.386
11
116.354
21
-88.3655
0
LINE
8
BLACK
6
CONTINUOUS
10
116.354
20
-88.3655
11
116.374
21
-88.3488
0
LINE
8
BLACK
6
CONTINUOUS
10
116.374
20
-88.3488
11
116.397
21
-88.3363
0
LINE
8
BLACK
6
CONTINUOUS
10
116.397
20
-88.3363
11
116.423
21
-88.3286
0
LINE
8
BLACK
6
CONTINUOUS
10
116.423
20
-88.3286
11
116.449
21
-88.326
0
LINE
8
BLACK
6
CONTINUOUS
10
116.449
20
-88.326
11
116.719
21
-88.326
0
LINE
8
BLACK
6
CONTINUOUS
10
116.719
20
-88.326
11
116.745
21
-88.3286
0
LINE
8
BLACK
6
CONTINUOUS
10
112.719
20
-88.3407
11
112.746
21
-88.3487
0
LINE
8
BLACK
6
CONTINUOUS
10
112.746
20
-88.3487
11
112.77
21
-88.3616
0
LINE
8
BLACK
6
CONTINUOUS
10
112.77
20
-88.3616
11
112.791
21
-88.379
0
LINE
8
BLACK
6
CONTINUOUS
10
112.791
20
-88.379
11
112.808
21
-88.4002
0
LINE
8
BLACK
6
CONTINUOUS
10
112.808
20
-88.4002
11
112.821
21
-88.4244
0
LINE
8
BLACK
6
CONTINUOUS
10
112.821
20
-88.4244
11
112.829
21
-88.4507
0
LINE
8
BLACK
6
CONTINUOUS
10
112.829
20
-88.4507
11
112.832
21
-88.478
0
LINE
8
BLACK
6
CONTINUOUS
10
112.832
20
-88.478
11
112.832
21
-88.758
0
LINE
8
BLACK
6
CONTINUOUS
10
112.832
20
-88.758
11
112.829
21
-88.7853
0
LINE
8
BLACK
6
CONTINUOUS
10
112.829
20
-88.7853
11
112.821
21
-88.8116
0
LINE
8
BLACK
6
CONTINUOUS
10
112.821
20
-88.8116
11
112.808
21
-88.8358
0
LINE
8
BLACK
6
CONTINUOUS
10
112.808
20
-88.8358
11
112.791
21
-88.857
0
LINE
8
BLACK
6
CONTINUOUS
10
112.791
20
-88.857
11
112.77
21
-88.8744
0
LINE
8
BLACK
6
CONTINUOUS
10
112.77
20
-88.8744
11
112.746
21
-88.8873
0
LINE
8
BLACK
6
CONTINUOUS
10
112.746
20
-88.8873
11
112.719
21
-88.8953
0
LINE
8
BLACK
6
CONTINUOUS
10
112.719
20
-88.8953
11
112.692
21
-88.898
0
LINE
8
BLACK
6
CONTINUOUS
10
112.692
20
-88.898
11
112.352
21
-88.898
0
LINE
8
BLACK
6
CONTINUOUS
10
112.352
20
-88.898
11
112.325
21
-88.8953
0
LINE
8
BLACK
6
CONTINUOUS
10
112.325
20
-88.8953
11
112.298
21
-88.8873
0
LINE
8
BLACK
6
CONTINUOUS
10
112.298
20
-88.8873
11
112.274
21
-88.8744
0
LINE
8
BLACK
6
CONTINUOUS
10
112.274
20
-88.8744
11
112.253
21
-88.857
0
LINE
8
BLACK
6
CONTINUOUS
10
112.253
20
-88.857
11
112.236
21
-88.8358
0
LINE
8
BLACK
6
CONTINUOUS
10
112.236
20
-88.8358
11
112.223
21
-88.8116
0
LINE
8
BLACK
6
CONTINUOUS
10
112.223
20
-88.8116
11
112.215
21
-88.7853
0
LINE
8
BLACK
6
CONTINUOUS
10
112.215
20
-88.7853
11
112.212
21
-88.758
0
LINE
8
BLACK
6
CONTINUOUS
10
112.212
20
-88.758
11
112.212
21
-88.478
0
LINE
8
BLACK
6
CONTINUOUS
10
112.212
20
-88.478
11
112.215
21
-88.4507
0
LINE
8
BLACK
6
CONTINUOUS
10
112.215
20
-88.4507
11
112.223
21
-88.4244
0
LINE
8
BLACK
6
CONTINUOUS
10
112.223
20
-88.4244
11
112.236
21
-88.4002
0
LINE
8
BLACK
6
CONTINUOUS
10
112.236
20
-88.4002
11
112.253
21
-88.379
0
LINE
8
BLACK
6
CONTINUOUS
10
112.253
20
-88.379
11
112.274
21
-88.3616
0
LINE
8
BLACK
6
CONTINUOUS
10
112.274
20
-88.3616
11
112.298
21
-88.3487
0
LINE
8
BLACK
6
CONTINUOUS
10
112.298
20
-88.3487
11
112.325
21
-88.3407
0
LINE
8
BLACK
6
CONTINUOUS
10
112.325
20
-88.3407
11
112.352
21
-88.338
0
LINE
8
BLACK
6
CONTINUOUS
10
112.352
20
-88.338
11
112.692
21
-88.338
0
LINE
8
BLACK
6
CONTINUOUS
10
112.692
20
-88.338
11
112.719
21
-88.3407
0
LINE
8
BLACK
6
CONTINUOUS
10
119.888
20
-87.5825
11
119.918
21
-87.5825
0
LINE
8
BLACK
6
CONTINUOUS
10
119.918
20
-87.5825
11
119.976
21
-87.5941
0
LINE
8
BLACK
6
CONTINUOUS
10
119.976
20
-87.5941
11
120.031
21
-87.6168
0
LINE
8
BLACK
6
CONTINUOUS
10
120.031
20
-87.6168
11
120.08
21
-87.6498
0
LINE
8
BLACK
6
CONTINUOUS
10
120.08
20
-87.6498
11
120.122
21
-87.6918
0
LINE
8
BLACK
6
CONTINUOUS
10
120.122
20
-87.6918
11
120.155
21
-87.7412
0
LINE
8
BLACK
6
CONTINUOUS
10
120.155
20
-87.7412
11
120.178
21
-87.7961
0
LINE
8
BLACK
6
CONTINUOUS
10
120.178
20
-87.7961
11
120.189
21
-87.8543
0
LINE
8
BLACK
6
CONTINUOUS
10
120.189
20
-87.8543
11
120.189
21
-87.9137
0
LINE
8
BLACK
6
CONTINUOUS
10
120.189
20
-87.9137
11
120.178
21
-87.9719
0
LINE
8
BLACK
6
CONTINUOUS
10
120.178
20
-87.9719
11
120.155
21
-88.0268
0
LINE
8
BLACK
6
CONTINUOUS
10
120.155
20
-88.0268
11
120.122
21
-88.0762
0
LINE
8
BLACK
6
CONTINUOUS
10
120.122
20
-88.0762
11
120.08
21
-88.1182
0
LINE
8
BLACK
6
CONTINUOUS
10
120.08
20
-88.1182
11
120.031
21
-88.1512
0
LINE
8
BLACK
6
CONTINUOUS
10
120.031
20
-88.1512
11
119.976
21
-88.1739
0
LINE
8
BLACK
6
CONTINUOUS
10
119.976
20
-88.1739
11
119.918
21
-88.1855
0
LINE
8
BLACK
6
CONTINUOUS
10
119.918
20
-88.1855
11
119.888
21
-88.1855
0
LINE
8
BLACK
6
CONTINUOUS
10
119.888
20
-88.1855
11
119.888
21
-88.384
0
LINE
8
BLACK
6
CONTINUOUS
10
119.888
20
-88.384
11
119.388
21
-88.384
0
LINE
8
BLACK
6
CONTINUOUS
10
119.388
20
-88.384
11
119.388
21
-87.384
0
LINE
8
BLACK
6
CONTINUOUS
10
119.388
20
-87.384
11
119.888
21
-87.384
0
LINE
8
BLACK
6
CONTINUOUS
10
119.888
20
-87.384
11
119.888
21
-87.5825
0
LINE
8
BLACK
6
CONTINUOUS
10
103.624
20
-88.384
11
103.124
21
-88.384
0
LINE
8
BLACK
6
CONTINUOUS
10
103.124
20
-88.384
11
103.124
21
-88.1855
0
LINE
8
BLACK
6
CONTINUOUS
10
103.124
20
-88.1855
11
103.094
21
-88.1855
0
LINE
8
BLACK
6
CONTINUOUS
10
103.094
20
-88.1855
11
103.036
21
-88.1739
0
LINE
8
BLACK
6
CONTINUOUS
10
103.036
20
-88.1739
11
102.981
21
-88.1512
0
LINE
8
BLACK
6
CONTINUOUS
10
102.981
20
-88.1512
11
102.932
21
-88.1182
0
LINE
8
BLACK
6
CONTINUOUS
10
102.932
20
-88.1182
11
102.89
21
-88.0762
0
LINE
8
BLACK
6
CONTINUOUS
10
102.89
20
-88.0762
11
102.857
21
-88.0268
0
LINE
8
BLACK
6
CONTINUOUS
10
102.857
20
-88.0268
11
102.834
21
-87.9719
0
LINE
8
BLACK
6
CONTINUOUS
10
102.834
20
-87.9719
11
102.822
21
-87.9137
0
LINE
8
BLACK
6
CONTINUOUS
10
102.822
20
-87.9137
11
102.822
21
-87.8543
0
LINE
8
BLACK
6
CONTINUOUS
10
102.822
20
-87.8543
11
102.834
21
-87.7961
0
LINE
8
BLACK
6
CONTINUOUS
10
102.834
20
-87.7961
11
102.857
21
-87.7412
0
LINE
8
BLACK
6
CONTINUOUS
10
102.857
20
-87.7412
11
102.89
21
-87.6918
0
LINE
8
BLACK
6
CONTINUOUS
10
102.89
20
-87.6918
11
102.932
21
-87.6498
0
LINE
8
BLACK
6
CONTINUOUS
10
102.932
20
-87.6498
11
102.981
21
-87.6168
0
LINE
8
BLACK
6
CONTINUOUS
10
102.981
20
-87.6168
11
103.036
21
-87.5941
0
LINE
8
BLACK
6
CONTINUOUS
10
103.036
20
-87.5941
11
103.094
21
-87.5825
0
LINE
8
BLACK
6
CONTINUOUS
10
103.094
20
-87.5825
11
103.124
21
-87.5825
0
LINE
8
BLACK
6
CONTINUOUS
10
103.124
20
-87.5825
11
103.124
21
-87.384
0
LINE
8
BLACK
6
CONTINUOUS
10
103.124
20
-87.384
11
103.624
21
-87.384
0
LINE
8
BLACK
6
CONTINUOUS
10
103.624
20
-87.384
11
103.624
21
-88.384
0
LINE
8
BLACK
6
CONTINUOUS
10
107.129
20
-87.3227
11
107.156
21
-87.3307
0
LINE
8
BLACK
6
CONTINUOUS
10
107.156
20
-87.3307
11
107.18
21
-87.3436
0
LINE
8
BLACK
6
CONTINUOUS
10
107.18
20
-87.3436
11
107.201
21
-87.361
0
LINE
8
BLACK
6
CONTINUOUS
10
107.201
20
-87.361
11
107.218
21
-87.3822
0
LINE
8
BLACK
6
CONTINUOUS
10
107.218
20
-87.3822
11
107.231
21
-87.4064
0
LINE
8
BLACK
6
CONTINUOUS
10
107.231
20
-87.4064
11
107.239
21
-87.4327
0
LINE
8
BLACK
6
CONTINUOUS
10
107.239
20
-87.4327
11
107.242
21
-87.46
0
LINE
8
BLACK
6
CONTINUOUS
10
107.242
20
-87.46
11
107.242
21
-87.8
0
LINE
8
BLACK
6
CONTINUOUS
10
107.242
20
-87.8
11
107.239
21
-87.8273
0
LINE
8
BLACK
6
CONTINUOUS
10
107.239
20
-87.8273
11
107.231
21
-87.8536
0
LINE
8
BLACK
6
CONTINUOUS
10
107.231
20
-87.8536
11
107.218
21
-87.8778
0
LINE
8
BLACK
6
CONTINUOUS
10
107.218
20
-87.8778
11
107.201
21
-87.899
0
LINE
8
BLACK
6
CONTINUOUS
10
107.201
20
-87.899
11
107.18
21
-87.9164
0
LINE
8
BLACK
6
CONTINUOUS
10
107.18
20
-87.9164
11
107.156
21
-87.9293
0
LINE
8
BLACK
6
CONTINUOUS
10
107.156
20
-87.9293
11
107.129
21
-87.9373
0
LINE
8
BLACK
6
CONTINUOUS
10
107.129
20
-87.9373
11
107.102
21
-87.94
0
LINE
8
BLACK
6
CONTINUOUS
10
107.102
20
-87.94
11
106.822
21
-87.94
0
LINE
8
BLACK
6
CONTINUOUS
10
106.822
20
-87.94
11
106.795
21
-87.9373
0
LINE
8
BLACK
6
CONTINUOUS
10
106.795
20
-87.9373
11
106.768
21
-87.9293
0
LINE
8
BLACK
6
CONTINUOUS
10
106.768
20
-87.9293
11
106.744
21
-87.9164
0
LINE
8
BLACK
6
CONTINUOUS
10
106.744
20
-87.9164
11
106.723
21
-87.899
0
LINE
8
BLACK
6
CONTINUOUS
10
106.723
20
-87.899
11
106.706
21
-87.8778
0
LINE
8
BLACK
6
CONTINUOUS
10
106.706
20
-87.8778
11
106.693
21
-87.8536
0
LINE
8
BLACK
6
CONTINUOUS
10
106.693
20
-87.8536
11
106.685
21
-87.8273
0
LINE
8
BLACK
6
CONTINUOUS
10
106.685
20
-87.8273
11
106.682
21
-87.8
0
LINE
8
BLACK
6
CONTINUOUS
10
106.682
20
-87.8
11
106.682
21
-87.46
0
LINE
8
BLACK
6
CONTINUOUS
10
106.682
20
-87.46
11
106.685
21
-87.4327
0
LINE
8
BLACK
6
CONTINUOUS
10
106.685
20
-87.4327
11
106.693
21
-87.4064
0
LINE
8
BLACK
6
CONTINUOUS
10
106.693
20
-87.4064
11
106.706
21
-87.3822
0
LINE
8
BLACK
6
CONTINUOUS
10
106.706
20
-87.3822
11
106.723
21
-87.361
0
LINE
8
BLACK
6
CONTINUOUS
10
106.723
20
-87.361
11
106.744
21
-87.3436
0
LINE
8
BLACK
6
CONTINUOUS
10
106.744
20
-87.3436
11
106.768
21
-87.3307
0
LINE
8
BLACK
6
CONTINUOUS
10
106.768
20
-87.3307
11
106.795
21
-87.3227
0
LINE
8
BLACK
6
CONTINUOUS
10
106.795
20
-87.3227
11
106.822
21
-87.32
0
LINE
8
BLACK
6
CONTINUOUS
10
106.822
20
-87.32
11
107.102
21
-87.32
0
LINE
8
BLACK
6
CONTINUOUS
10
107.102
20
-87.32
11
107.129
21
-87.3227
0
LINE
8
BLACK
6
CONTINUOUS
10
108.089
20
-87.3227
11
108.116
21
-87.3307
0
LINE
8
BLACK
6
CONTINUOUS
10
108.116
20
-87.3307
11
108.14
21
-87.3436
0
LINE
8
BLACK
6
CONTINUOUS
10
108.14
20
-87.3436
11
108.161
21
-87.361
0
LINE
8
BLACK
6
CONTINUOUS
10
108.161
20
-87.361
11
108.178
21
-87.3822
0
LINE
8
BLACK
6
CONTINUOUS
10
108.178
20
-87.3822
11
108.191
21
-87.4064
0
LINE
8
BLACK
6
CONTINUOUS
10
108.191
20
-87.4064
11
108.199
21
-87.4327
0
LINE
8
BLACK
6
CONTINUOUS
10
108.199
20
-87.4327
11
108.202
21
-87.46
0
LINE
8
BLACK
6
CONTINUOUS
10
108.202
20
-87.46
11
108.202
21
-87.8
0
LINE
8
BLACK
6
CONTINUOUS
10
108.202
20
-87.8
11
108.199
21
-87.8273
0
LINE
8
BLACK
6
CONTINUOUS
10
108.199
20
-87.8273
11
108.191
21
-87.8536
0
LINE
8
BLACK
6
CONTINUOUS
10
108.191
20
-87.8536
11
108.178
21
-87.8778
0
LINE
8
BLACK
6
CONTINUOUS
10
108.178
20
-87.8778
11
108.161
21
-87.899
0
LINE
8
BLACK
6
CONTINUOUS
10
108.161
20
-87.899
11
108.14
21
-87.9164
0
LINE
8
BLACK
6
CONTINUOUS
10
108.14
20
-87.9164
11
108.116
21
-87.9293
0
LINE
8
BLACK
6
CONTINUOUS
10
108.116
20
-87.9293
11
108.089
21
-87.9373
0
LINE
8
BLACK
6
CONTINUOUS
10
108.089
20
-87.9373
11
108.062
21
-87.94
0
LINE
8
BLACK
6
CONTINUOUS
10
108.062
20
-87.94
11
107.782
21
-87.94
0
LINE
8
BLACK
6
CONTINUOUS
10
107.782
20
-87.94
11
107.755
21
-87.9373
0
LINE
8
BLACK
6
CONTINUOUS
10
107.755
20
-87.9373
11
107.728
21
-87.9293
0
LINE
8
BLACK
6
CONTINUOUS
10
107.728
20
-87.9293
11
107.704
21
-87.9164
0
LINE
8
BLACK
6
CONTINUOUS
10
107.704
20
-87.9164
11
107.683
21
-87.899
0
LINE
8
BLACK
6
CONTINUOUS
10
107.683
20
-87.899
11
107.666
21
-87.8778
0
LINE
8
BLACK
6
CONTINUOUS
10
107.666
20
-87.8778
11
107.653
21
-87.8536
0
LINE
8
BLACK
6
CONTINUOUS
10
107.653
20
-87.8536
11
107.645
21
-87.8273
0
LINE
8
BLACK
6
CONTINUOUS
10
107.645
20
-87.8273
11
107.642
21
-87.8
0
LINE
8
BLACK
6
CONTINUOUS
10
107.642
20
-87.8
11
107.642
21
-87.46
0
LINE
8
BLACK
6
CONTINUOUS
10
107.642
20
-87.46
11
107.645
21
-87.4327
0
LINE
8
BLACK
6
CONTINUOUS
10
107.645
20
-87.4327
11
107.653
21
-87.4064
0
LINE
8
BLACK
6
CONTINUOUS
10
107.653
20
-87.4064
11
107.666
21
-87.3822
0
LINE
8
BLACK
6
CONTINUOUS
10
107.666
20
-87.3822
11
107.683
21
-87.361
0
LINE
8
BLACK
6
CONTINUOUS
10
107.683
20
-87.361
11
107.704
21
-87.3436
0
LINE
8
BLACK
6
CONTINUOUS
10
107.704
20
-87.3436
11
107.728
21
-87.3307
0
LINE
8
BLACK
6
CONTINUOUS
10
107.728
20
-87.3307
11
107.755
21
-87.3227
0
LINE
8
BLACK
6
CONTINUOUS
10
107.755
20
-87.3227
11
107.782
21
-87.32
0
LINE
8
BLACK
6
CONTINUOUS
10
107.782
20
-87.32
11
108.062
21
-87.32
0
LINE
8
BLACK
6
CONTINUOUS
10
108.062
20
-87.32
11
108.089
21
-87.3227
0
LINE
8
BLACK
6
CONTINUOUS
10
112.719
20
-87.3807
11
112.746
21
-87.3887
0
LINE
8
BLACK
6
CONTINUOUS
10
112.746
20
-87.3887
11
112.77
21
-87.4016
0
LINE
8
BLACK
6
CONTINUOUS
10
112.77
20
-87.4016
11
112.791
21
-87.419
0
LINE
8
BLACK
6
CONTINUOUS
10
112.791
20
-87.419
11
112.808
21
-87.4402
0
LINE
8
BLACK
6
CONTINUOUS
10
112.808
20
-87.4402
11
112.821
21
-87.4644
0
LINE
8
BLACK
6
CONTINUOUS
10
112.821
20
-87.4644
11
112.829
21
-87.4907
0
LINE
8
BLACK
6
CONTINUOUS
10
112.829
20
-87.4907
11
112.832
21
-87.518
0
LINE
8
BLACK
6
CONTINUOUS
10
112.832
20
-87.518
11
112.832
21
-87.798
0
LINE
8
BLACK
6
CONTINUOUS
10
112.832
20
-87.798
11
112.829
21
-87.8253
0
LINE
8
BLACK
6
CONTINUOUS
10
112.829
20
-87.8253
11
112.821
21
-87.8516
0
LINE
8
BLACK
6
CONTINUOUS
10
112.821
20
-87.8516
11
112.808
21
-87.8758
0
LINE
8
BLACK
6
CONTINUOUS
10
112.808
20
-87.8758
11
112.791
21
-87.897
0
LINE
8
BLACK
6
CONTINUOUS
10
112.791
20
-87.897
11
112.77
21
-87.9144
0
LINE
8
BLACK
6
CONTINUOUS
10
112.77
20
-87.9144
11
112.746
21
-87.9273
0
LINE
8
BLACK
6
CONTINUOUS
10
112.746
20
-87.9273
11
112.719
21
-87.9353
0
LINE
8
BLACK
6
CONTINUOUS
10
112.719
20
-87.9353
11
112.692
21
-87.938
0
LINE
8
BLACK
6
CONTINUOUS
10
112.692
20
-87.938
11
112.352
21
-87.938
0
LINE
8
BLACK
6
CONTINUOUS
10
112.352
20
-87.938
11
112.325
21
-87.9353
0
LINE
8
BLACK
6
CONTINUOUS
10
112.325
20
-87.9353
11
112.298
21
-87.9273
0
LINE
8
BLACK
6
CONTINUOUS
10
112.298
20
-87.9273
11
112.274
21
-87.9144
0
LINE
8
BLACK
6
CONTINUOUS
10
112.274
20
-87.9144
11
112.253
21
-87.897
0
LINE
8
BLACK
6
CONTINUOUS
10
112.253
20
-87.897
11
112.236
21
-87.8758
0
LINE
8
BLACK
6
CONTINUOUS
10
112.236
20
-87.8758
11
112.223
21
-87.8516
0
LINE
8
BLACK
6
CONTINUOUS
10
112.223
20
-87.8516
11
112.215
21
-87.8253
0
LINE
8
BLACK
6
CONTINUOUS
10
112.215
20
-87.8253
11
112.212
21
-87.798
0
LINE
8
BLACK
6
CONTINUOUS
10
112.212
20
-87.798
11
112.212
21
-87.518
0
LINE
8
BLACK
6
CONTINUOUS
10
112.212
20
-87.518
11
112.215
21
-87.4907
0
LINE
8
BLACK
6
CONTINUOUS
10
112.215
20
-87.4907
11
112.223
21
-87.4644
0
LINE
8
BLACK
6
CONTINUOUS
10
112.223
20
-87.4644
11
112.236
21
-87.4402
0
LINE
8
BLACK
6
CONTINUOUS
10
112.236
20
-87.4402
11
112.253
21
-87.419
0
LINE
8
BLACK
6
CONTINUOUS
10
112.253
20
-87.419
11
112.274
21
-87.4016
0
LINE
8
BLACK
6
CONTINUOUS
10
112.274
20
-87.4016
11
112.298
21
-87.3887
0
LINE
8
BLACK
6
CONTINUOUS
10
112.298
20
-87.3887
11
112.325
21
-87.3807
0
LINE
8
BLACK
6
CONTINUOUS
10
112.325
20
-87.3807
11
112.352
21
-87.378
0
LINE
8
BLACK
6
CONTINUOUS
10
112.352
20
-87.378
11
112.692
21
-87.378
0
LINE
8
BLACK
6
CONTINUOUS
10
112.692
20
-87.378
11
112.719
21
-87.3807
0
LINE
8
BLACK
6
CONTINUOUS
10
109.936
20
-87.938
11
108.786
21
-87.938
0
LINE
8
BLACK
6
CONTINUOUS
10
108.786
20
-87.938
11
108.786
21
-86.938
0
LINE
8
BLACK
6
CONTINUOUS
10
108.786
20
-86.938
11
109.936
21
-86.938
0
LINE
8
BLACK
6
CONTINUOUS
10
109.936
20
-86.938
11
109.936
21
-87.938
0
LINE
8
BLACK
6
CONTINUOUS
10
111.686
20
-87.938
11
110.536
21
-87.938
0
LINE
8
BLACK
6
CONTINUOUS
10
110.536
20
-87.938
11
110.536
21
-86.938
0
LINE
8
BLACK
6
CONTINUOUS
10
110.536
20
-86.938
11
111.686
21
-86.938
0
LINE
8
BLACK
6
CONTINUOUS
10
111.686
20
-86.938
11
111.686
21
-87.938
0
LINE
8
BLACK
6
CONTINUOUS
10
115.769
20
-87.0588
11
115.797
21
-87.0672
0
LINE
8
BLACK
6
CONTINUOUS
10
115.797
20
-87.0672
11
115.822
21
-87.0809
0
LINE
8
BLACK
6
CONTINUOUS
10
115.822
20
-87.0809
11
115.845
21
-87.0992
0
LINE
8
BLACK
6
CONTINUOUS
10
115.845
20
-87.0992
11
115.863
21
-87.1216
0
LINE
8
BLACK
6
CONTINUOUS
10
115.863
20
-87.1216
11
115.877
21
-87.1471
0
LINE
8
BLACK
6
CONTINUOUS
10
115.877
20
-87.1471
11
115.885
21
-87.1747
0
LINE
8
BLACK
6
CONTINUOUS
10
115.885
20
-87.1747
11
115.888
21
-87.2035
0
LINE
8
BLACK
6
CONTINUOUS
10
115.888
20
-87.2035
11
115.888
21
-87.5485
0
LINE
8
BLACK
6
CONTINUOUS
10
115.888
20
-87.5485
11
115.885
21
-87.5773
0
LINE
8
BLACK
6
CONTINUOUS
10
115.885
20
-87.5773
11
115.877
21
-87.6049
0
LINE
8
BLACK
6
CONTINUOUS
10
115.877
20
-87.6049
11
115.863
21
-87.6304
0
LINE
8
BLACK
6
CONTINUOUS
10
115.863
20
-87.6304
11
115.845
21
-87.6528
0
LINE
8
BLACK
6
CONTINUOUS
10
115.845
20
-87.6528
11
115.822
21
-87.6711
0
LINE
8
BLACK
6
CONTINUOUS
10
115.822
20
-87.6711
11
115.797
21
-87.6848
0
LINE
8
BLACK
6
CONTINUOUS
10
115.797
20
-87.6848
11
115.769
21
-87.6932
0
LINE
8
BLACK
6
CONTINUOUS
10
115.769
20
-87.6932
11
115.74
21
-87.696
0
LINE
8
BLACK
6
CONTINUOUS
10
115.74
20
-87.696
11
115.445
21
-87.696
0
LINE
8
BLACK
6
CONTINUOUS
10
115.445
20
-87.696
11
115.417
21
-87.6932
0
LINE
8
BLACK
6
CONTINUOUS
10
115.417
20
-87.6932
11
115.389
21
-87.6848
0
LINE
8
BLACK
6
CONTINUOUS
10
115.389
20
-87.6848
11
115.364
21
-87.6711
0
LINE
8
BLACK
6
CONTINUOUS
10
115.364
20
-87.6711
11
115.341
21
-87.6528
0
LINE
8
BLACK
6
CONTINUOUS
10
115.341
20
-87.6528
11
115.323
21
-87.6304
0
LINE
8
BLACK
6
CONTINUOUS
10
115.323
20
-87.6304
11
115.309
21
-87.6049
0
LINE
8
BLACK
6
CONTINUOUS
10
115.309
20
-87.6049
11
115.301
21
-87.5773
0
LINE
8
BLACK
6
CONTINUOUS
10
115.301
20
-87.5773
11
115.298
21
-87.5485
0
LINE
8
BLACK
6
CONTINUOUS
10
115.298
20
-87.5485
11
115.298
21
-87.2035
0
LINE
8
BLACK
6
CONTINUOUS
10
115.298
20
-87.2035
11
115.301
21
-87.1747
0
LINE
8
BLACK
6
CONTINUOUS
10
115.301
20
-87.1747
11
115.309
21
-87.1471
0
LINE
8
BLACK
6
CONTINUOUS
10
115.309
20
-87.1471
11
115.323
21
-87.1216
0
LINE
8
BLACK
6
CONTINUOUS
10
115.323
20
-87.1216
11
115.341
21
-87.0992
0
LINE
8
BLACK
6
CONTINUOUS
10
115.341
20
-87.0992
11
115.364
21
-87.0809
0
LINE
8
BLACK
6
CONTINUOUS
10
115.364
20
-87.0809
11
115.389
21
-87.0672
0
LINE
8
BLACK
6
CONTINUOUS
10
115.389
20
-87.0672
11
115.417
21
-87.0588
0
LINE
8
BLACK
6
CONTINUOUS
10
115.417
20
-87.0588
11
115.445
21
-87.056
0
LINE
8
BLACK
6
CONTINUOUS
10
115.445
20
-87.056
11
115.74
21
-87.056
0
LINE
8
BLACK
6
CONTINUOUS
10
115.74
20
-87.056
11
115.769
21
-87.0588
0
LINE
8
BLACK
6
CONTINUOUS
10
116.739
20
-87.0588
11
116.767
21
-87.0672
0
LINE
8
BLACK
6
CONTINUOUS
10
116.767
20
-87.0672
11
116.792
21
-87.0809
0
LINE
8
BLACK
6
CONTINUOUS
10
116.792
20
-87.0809
11
116.815
21
-87.0992
0
LINE
8
BLACK
6
CONTINUOUS
10
116.815
20
-87.0992
11
116.833
21
-87.1216
0
LINE
8
BLACK
6
CONTINUOUS
10
116.833
20
-87.1216
11
116.847
21
-87.1471
0
LINE
8
BLACK
6
CONTINUOUS
10
116.847
20
-87.1471
11
116.855
21
-87.1747
0
LINE
8
BLACK
6
CONTINUOUS
10
116.855
20
-87.1747
11
116.858
21
-87.2035
0
LINE
8
BLACK
6
CONTINUOUS
10
116.858
20
-87.2035
11
116.858
21
-87.5485
0
LINE
8
BLACK
6
CONTINUOUS
10
116.858
20
-87.5485
11
116.855
21
-87.5773
0
LINE
8
BLACK
6
CONTINUOUS
10
116.855
20
-87.5773
11
116.847
21
-87.6049
0
LINE
8
BLACK
6
CONTINUOUS
10
116.847
20
-87.6049
11
116.833
21
-87.6304
0
LINE
8
BLACK
6
CONTINUOUS
10
116.833
20
-87.6304
11
116.815
21
-87.6528
0
LINE
8
BLACK
6
CONTINUOUS
10
116.815
20
-87.6528
11
116.792
21
-87.6711
0
LINE
8
BLACK
6
CONTINUOUS
10
116.792
20
-87.6711
11
116.767
21
-87.6848
0
LINE
8
BLACK
6
CONTINUOUS
10
116.767
20
-87.6848
11
116.739
21
-87.6932
0
LINE
8
BLACK
6
CONTINUOUS
10
116.739
20
-87.6932
11
116.71
21
-87.696
0
LINE
8
BLACK
6
CONTINUOUS
10
116.71
20
-87.696
11
116.415
21
-87.696
0
LINE
8
BLACK
6
CONTINUOUS
10
116.415
20
-87.696
11
116.387
21
-87.6932
0
LINE
8
BLACK
6
CONTINUOUS
10
116.387
20
-87.6932
11
116.359
21
-87.6848
0
LINE
8
BLACK
6
CONTINUOUS
10
116.359
20
-87.6848
11
116.334
21
-87.6711
0
LINE
8
BLACK
6
CONTINUOUS
10
116.334
20
-87.6711
11
116.311
21
-87.6528
0
LINE
8
BLACK
6
CONTINUOUS
10
116.311
20
-87.6528
11
116.293
21
-87.6304
0
LINE
8
BLACK
6
CONTINUOUS
10
116.293
20
-87.6304
11
116.279
21
-87.6049
0
LINE
8
BLACK
6
CONTINUOUS
10
116.279
20
-87.6049
11
116.271
21
-87.5773
0
LINE
8
BLACK
6
CONTINUOUS
10
116.271
20
-87.5773
11
116.268
21
-87.5485
0
LINE
8
BLACK
6
CONTINUOUS
10
116.268
20
-87.5485
11
116.268
21
-87.2035
0
LINE
8
BLACK
6
CONTINUOUS
10
116.268
20
-87.2035
11
116.271
21
-87.1747
0
LINE
8
BLACK
6
CONTINUOUS
10
116.271
20
-87.1747
11
116.279
21
-87.1471
0
LINE
8
BLACK
6
CONTINUOUS
10
116.279
20
-87.1471
11
116.293
21
-87.1216
0
LINE
8
BLACK
6
CONTINUOUS
10
116.293
20
-87.1216
11
116.311
21
-87.0992
0
LINE
8
BLACK
6
CONTINUOUS
10
116.311
20
-87.0992
11
116.334
21
-87.0809
0
LINE
8
BLACK
6
CONTINUOUS
10
116.334
20
-87.0809
11
116.359
21
-87.0672
0
LINE
8
BLACK
6
CONTINUOUS
10
116.359
20
-87.0672
11
116.387
21
-87.0588
0
LINE
8
BLACK
6
CONTINUOUS
10
116.387
20
-87.0588
11
116.415
21
-87.056
0
LINE
8
BLACK
6
CONTINUOUS
10
116.415
20
-87.056
11
116.71
21
-87.056
0
LINE
8
BLACK
6
CONTINUOUS
10
116.71
20
-87.056
11
116.739
21
-87.0588
0
LINE
8
BLACK
6
CONTINUOUS
10
115.961
20
-86.466
11
115.311
21
-86.466
0
LINE
8
BLACK
6
CONTINUOUS
10
115.311
20
-86.466
11
115.311
21
-85.406
0
LINE
8
BLACK
6
CONTINUOUS
10
115.311
20
-85.406
11
115.961
21
-85.406
0
LINE
8
BLACK
6
CONTINUOUS
10
115.961
20
-85.406
11
115.961
21
-86.466
0
LINE
8
BLACK
6
CONTINUOUS
10
116.911
20
-86.466
11
116.261
21
-86.466
0
LINE
8
BLACK
6
CONTINUOUS
10
116.261
20
-86.466
11
116.261
21
-85.406
0
LINE
8
BLACK
6
CONTINUOUS
10
116.261
20
-85.406
11
116.911
21
-85.406
0
LINE
8
BLACK
6
CONTINUOUS
10
116.911
20
-85.406
11
116.911
21
-86.466
0
LINE
8
BLACK
6
CONTINUOUS
10
117.861
20
-86.466
11
117.211
21
-86.466
0
LINE
8
BLACK
6
CONTINUOUS
10
117.211
20
-86.466
11
117.211
21
-85.406
0
LINE
8
BLACK
6
CONTINUOUS
10
117.211
20
-85.406
11
117.861
21
-85.406
0
LINE
8
BLACK
6
CONTINUOUS
10
117.861
20
-85.406
11
117.861
21
-86.466
0
LINE
8
BLACK
6
CONTINUOUS
10
111.161
20
-85.5346
11
111.187
21
-85.5423
0
LINE
8
BLACK
6
CONTINUOUS
10
111.187
20
-85.5423
11
111.21
21
-85.5548
0
LINE
8
BLACK
6
CONTINUOUS
10
111.21
20
-85.5548
11
111.23
21
-85.5715
0
LINE
8
BLACK
6
CONTINUOUS
10
111.23
20
-85.5715
11
111.247
21
-85.592
0
LINE
8
BLACK
6
CONTINUOUS
10
111.247
20
-85.592
11
111.26
21
-85.6153
0
LINE
8
BLACK
6
CONTINUOUS
10
111.26
20
-85.6153
11
111.267
21
-85.6407
0
LINE
8
BLACK
6
CONTINUOUS
10
111.267
20
-85.6407
11
111.27
21
-85.667
0
LINE
8
BLACK
6
CONTINUOUS
10
111.27
20
-85.667
11
111.27
21
-86.037
0
LINE
8
BLACK
6
CONTINUOUS
10
111.27
20
-86.037
11
111.267
21
-86.0633
0
LINE
8
BLACK
6
CONTINUOUS
10
111.267
20
-86.0633
11
111.26
21
-86.0887
0
LINE
8
BLACK
6
CONTINUOUS
10
111.26
20
-86.0887
11
111.247
21
-86.112
0
LINE
8
BLACK
6
CONTINUOUS
10
111.247
20
-86.112
11
111.23
21
-86.1325
0
LINE
8
BLACK
6
CONTINUOUS
10
111.23
20
-86.1325
11
111.21
21
-86.1492
0
LINE
8
BLACK
6
CONTINUOUS
10
111.21
20
-86.1492
11
111.187
21
-86.1617
0
LINE
8
BLACK
6
CONTINUOUS
10
111.187
20
-86.1617
11
111.161
21
-86.1694
0
LINE
8
BLACK
6
CONTINUOUS
10
111.161
20
-86.1694
11
111.135
21
-86.172
0
LINE
8
BLACK
6
CONTINUOUS
10
111.135
20
-86.172
11
110.865
21
-86.172
0
LINE
8
BLACK
6
CONTINUOUS
10
110.865
20
-86.172
11
110.839
21
-86.1694
0
LINE
8
BLACK
6
CONTINUOUS
10
110.839
20
-86.1694
11
110.813
21
-86.1617
0
LINE
8
BLACK
6
CONTINUOUS
10
110.813
20
-86.1617
11
110.79
21
-86.1492
0
LINE
8
BLACK
6
CONTINUOUS
10
110.79
20
-86.1492
11
110.77
21
-86.1325
0
LINE
8
BLACK
6
CONTINUOUS
10
110.77
20
-86.1325
11
110.753
21
-86.112
0
LINE
8
BLACK
6
CONTINUOUS
10
110.753
20
-86.112
11
110.74
21
-86.0887
0
LINE
8
BLACK
6
CONTINUOUS
10
110.74
20
-86.0887
11
110.733
21
-86.0633
0
LINE
8
BLACK
6
CONTINUOUS
10
110.733
20
-86.0633
11
110.73
21
-86.037
0
LINE
8
BLACK
6
CONTINUOUS
10
110.73
20
-86.037
11
110.73
21
-85.667
0
LINE
8
BLACK
6
CONTINUOUS
10
110.73
20
-85.667
11
110.733
21
-85.6407
0
LINE
8
BLACK
6
CONTINUOUS
10
110.733
20
-85.6407
11
110.74
21
-85.6153
0
LINE
8
BLACK
6
CONTINUOUS
10
110.74
20
-85.6153
11
110.753
21
-85.592
0
LINE
8
BLACK
6
CONTINUOUS
10
110.753
20
-85.592
11
110.77
21
-85.5715
0
LINE
8
BLACK
6
CONTINUOUS
10
110.77
20
-85.5715
11
110.79
21
-85.5548
0
LINE
8
BLACK
6
CONTINUOUS
10
110.79
20
-85.5548
11
110.813
21
-85.5423
0
LINE
8
BLACK
6
CONTINUOUS
10
110.813
20
-85.5423
11
110.839
21
-85.5346
0
LINE
8
BLACK
6
CONTINUOUS
10
110.839
20
-85.5346
11
110.865
21
-85.532
0
LINE
8
BLACK
6
CONTINUOUS
10
110.865
20
-85.532
11
111.135
21
-85.532
0
LINE
8
BLACK
6
CONTINUOUS
10
111.135
20
-85.532
11
111.161
21
-85.5346
0
LINE
8
BLACK
6
CONTINUOUS
10
110.141
20
-85.5346
11
110.167
21
-85.5423
0
LINE
8
BLACK
6
CONTINUOUS
10
110.167
20
-85.5423
11
110.19
21
-85.5548
0
LINE
8
BLACK
6
CONTINUOUS
10
110.19
20
-85.5548
11
110.21
21
-85.5715
0
LINE
8
BLACK
6
CONTINUOUS
10
110.21
20
-85.5715
11
110.227
21
-85.592
0
LINE
8
BLACK
6
CONTINUOUS
10
110.227
20
-85.592
11
110.24
21
-85.6153
0
LINE
8
BLACK
6
CONTINUOUS
10
110.24
20
-85.6153
11
110.247
21
-85.6407
0
LINE
8
BLACK
6
CONTINUOUS
10
110.247
20
-85.6407
11
110.25
21
-85.667
0
LINE
8
BLACK
6
CONTINUOUS
10
110.25
20
-85.667
11
110.25
21
-86.037
0
LINE
8
BLACK
6
CONTINUOUS
10
110.25
20
-86.037
11
110.247
21
-86.0633
0
LINE
8
BLACK
6
CONTINUOUS
10
110.247
20
-86.0633
11
110.24
21
-86.0887
0
LINE
8
BLACK
6
CONTINUOUS
10
110.24
20
-86.0887
11
110.227
21
-86.112
0
LINE
8
BLACK
6
CONTINUOUS
10
110.227
20
-86.112
11
110.21
21
-86.1325
0
LINE
8
BLACK
6
CONTINUOUS
10
110.21
20
-86.1325
11
110.19
21
-86.1492
0
LINE
8
BLACK
6
CONTINUOUS
10
110.19
20
-86.1492
11
110.167
21
-86.1617
0
LINE
8
BLACK
6
CONTINUOUS
10
110.167
20
-86.1617
11
110.141
21
-86.1694
0
LINE
8
BLACK
6
CONTINUOUS
10
110.141
20
-86.1694
11
110.115
21
-86.172
0
LINE
8
BLACK
6
CONTINUOUS
10
110.115
20
-86.172
11
109.845
21
-86.172
0
LINE
8
BLACK
6
CONTINUOUS
10
109.845
20
-86.172
11
109.819
21
-86.1694
0
LINE
8
BLACK
6
CONTINUOUS
10
109.819
20
-86.1694
11
109.793
21
-86.1617
0
LINE
8
BLACK
6
CONTINUOUS
10
109.793
20
-86.1617
11
109.77
21
-86.1492
0
LINE
8
BLACK
6
CONTINUOUS
10
109.77
20
-86.1492
11
109.75
21
-86.1325
0
LINE
8
BLACK
6
CONTINUOUS
10
109.75
20
-86.1325
11
109.733
21
-86.112
0
LINE
8
BLACK
6
CONTINUOUS
10
109.733
20
-86.112
11
109.72
21
-86.0887
0
LINE
8
BLACK
6
CONTINUOUS
10
109.72
20
-86.0887
11
109.713
21
-86.0633
0
LINE
8
BLACK
6
CONTINUOUS
10
109.713
20
-86.0633
11
109.71
21
-86.037
0
LINE
8
BLACK
6
CONTINUOUS
10
109.71
20
-86.037
11
109.71
21
-85.667
0
LINE
8
BLACK
6
CONTINUOUS
10
109.71
20
-85.667
11
109.713
21
-85.6407
0
LINE
8
BLACK
6
CONTINUOUS
10
109.713
20
-85.6407
11
109.72
21
-85.6153
0
LINE
8
BLACK
6
CONTINUOUS
10
109.72
20
-85.6153
11
109.733
21
-85.592
0
LINE
8
BLACK
6
CONTINUOUS
10
109.733
20
-85.592
11
109.75
21
-85.5715
0
LINE
8
BLACK
6
CONTINUOUS
10
109.75
20
-85.5715
11
109.77
21
-85.5548
0
LINE
8
BLACK
6
CONTINUOUS
10
109.77
20
-85.5548
11
109.793
21
-85.5423
0
LINE
8
BLACK
6
CONTINUOUS
10
109.793
20
-85.5423
11
109.819
21
-85.5346
0
LINE
8
BLACK
6
CONTINUOUS
10
109.819
20
-85.5346
11
109.845
21
-85.532
0
LINE
8
BLACK
6
CONTINUOUS
10
109.845
20
-85.532
11
110.115
21
-85.532
0
LINE
8
BLACK
6
CONTINUOUS
10
110.115
20
-85.532
11
110.141
21
-85.5346
0
LINE
8
BLACK
6
CONTINUOUS
10
119.888
20
-84.7885
11
119.918
21
-84.7885
0
LINE
8
BLACK
6
CONTINUOUS
10
119.918
20
-84.7885
11
119.976
21
-84.8001
0
LINE
8
BLACK
6
CONTINUOUS
10
119.976
20
-84.8001
11
120.031
21
-84.8228
0
LINE
8
BLACK
6
CONTINUOUS
10
120.031
20
-84.8228
11
120.08
21
-84.8558
0
LINE
8
BLACK
6
CONTINUOUS
10
120.08
20
-84.8558
11
120.122
21
-84.8978
0
LINE
8
BLACK
6
CONTINUOUS
10
120.122
20
-84.8978
11
120.155
21
-84.9472
0
LINE
8
BLACK
6
CONTINUOUS
10
120.155
20
-84.9472
11
120.178
21
-85.0021
0
LINE
8
BLACK
6
CONTINUOUS
10
120.178
20
-85.0021
11
120.189
21
-85.0603
0
LINE
8
BLACK
6
CONTINUOUS
10
120.189
20
-85.0603
11
120.189
21
-85.1197
0
LINE
8
BLACK
6
CONTINUOUS
10
120.189
20
-85.1197
11
120.178
21
-85.1779
0
LINE
8
BLACK
6
CONTINUOUS
10
120.178
20
-85.1779
11
120.155
21
-85.2328
0
LINE
8
BLACK
6
CONTINUOUS
10
120.155
20
-85.2328
11
120.122
21
-85.2822
0
LINE
8
BLACK
6
CONTINUOUS
10
120.122
20
-85.2822
11
120.08
21
-85.3242
0
LINE
8
BLACK
6
CONTINUOUS
10
120.08
20
-85.3242
11
120.031
21
-85.3572
0
LINE
8
BLACK
6
CONTINUOUS
10
120.031
20
-85.3572
11
119.976
21
-85.3799
0
LINE
8
BLACK
6
CONTINUOUS
10
119.976
20
-85.3799
11
119.918
21
-85.3915
0
LINE
8
BLACK
6
CONTINUOUS
10
119.918
20
-85.3915
11
119.888
21
-85.3915
0
LINE
8
BLACK
6
CONTINUOUS
10
119.888
20
-85.3915
11
119.888
21
-85.59
0
LINE
8
BLACK
6
CONTINUOUS
10
119.888
20
-85.59
11
119.388
21
-85.59
0
LINE
8
BLACK
6
CONTINUOUS
10
119.388
20
-85.59
11
119.388
21
-84.59
0
LINE
8
BLACK
6
CONTINUOUS
10
119.388
20
-84.59
11
119.888
21
-84.59
0
LINE
8
BLACK
6
CONTINUOUS
10
119.888
20
-84.59
11
119.888
21
-84.7885
0
LINE
8
BLACK
6
CONTINUOUS
10
103.624
20
-85.59
11
103.124
21
-85.59
0
LINE
8
BLACK
6
CONTINUOUS
10
103.124
20
-85.59
11
103.124
21
-85.3915
0
LINE
8
BLACK
6
CONTINUOUS
10
103.124
20
-85.3915
11
103.094
21
-85.3915
0
LINE
8
BLACK
6
CONTINUOUS
10
103.094
20
-85.3915
11
103.036
21
-85.3799
0
LINE
8
BLACK
6
CONTINUOUS
10
103.036
20
-85.3799
11
102.981
21
-85.3572
0
LINE
8
BLACK
6
CONTINUOUS
10
102.981
20
-85.3572
11
102.932
21
-85.3242
0
LINE
8
BLACK
6
CONTINUOUS
10
102.932
20
-85.3242
11
102.89
21
-85.2822
0
LINE
8
BLACK
6
CONTINUOUS
10
102.89
20
-85.2822
11
102.857
21
-85.2328
0
LINE
8
BLACK
6
CONTINUOUS
10
102.857
20
-85.2328
11
102.834
21
-85.1779
0
LINE
8
BLACK
6
CONTINUOUS
10
102.834
20
-85.1779
11
102.822
21
-85.1197
0
LINE
8
BLACK
6
CONTINUOUS
10
102.822
20
-85.1197
11
102.822
21
-85.0603
0
LINE
8
BLACK
6
CONTINUOUS
10
102.822
20
-85.0603
11
102.834
21
-85.0021
0
LINE
8
BLACK
6
CONTINUOUS
10
102.834
20
-85.0021
11
102.857
21
-84.9472
0
LINE
8
BLACK
6
CONTINUOUS
10
102.857
20
-84.9472
11
102.89
21
-84.8978
0
LINE
8
BLACK
6
CONTINUOUS
10
102.89
20
-84.8978
11
102.932
21
-84.8558
0
LINE
8
BLACK
6
CONTINUOUS
10
102.932
20
-84.8558
11
102.981
21
-84.8228
0
LINE
8
BLACK
6
CONTINUOUS
10
102.981
20
-84.8228
11
103.036
21
-84.8001
0
LINE
8
BLACK
6
CONTINUOUS
10
103.036
20
-84.8001
11
103.094
21
-84.7885
0
LINE
8
BLACK
6
CONTINUOUS
10
103.094
20
-84.7885
11
103.124
21
-84.7885
0
LINE
8
BLACK
6
CONTINUOUS
10
103.124
20
-84.7885
11
103.124
21
-84.59
0
LINE
8
BLACK
6
CONTINUOUS
10
103.124
20
-84.59
11
103.624
21
-84.59
0
LINE
8
BLACK
6
CONTINUOUS
10
103.624
20
-84.59
11
103.624
21
-85.59
0
LINE
8
BLACK
6
CONTINUOUS
10
107.395
20
-83.9832
11
107.406
21
-83.9868
0
LINE
8
BLACK
6
CONTINUOUS
10
107.406
20
-83.9868
11
107.417
21
-83.9925
0
LINE
8
BLACK
6
CONTINUOUS
10
107.417
20
-83.9925
11
107.427
21
-84.0003
0
LINE
8
BLACK
6
CONTINUOUS
10
107.427
20
-84.0003
11
107.434
21
-84.0098
0
LINE
8
BLACK
6
CONTINUOUS
10
107.434
20
-84.0098
11
107.44
21
-84.0206
0
LINE
8
BLACK
6
CONTINUOUS
10
107.44
20
-84.0206
11
107.444
21
-84.0323
0
LINE
8
BLACK
6
CONTINUOUS
10
107.444
20
-84.0323
11
107.445
21
-84.0445
0
LINE
8
BLACK
6
CONTINUOUS
10
107.445
20
-84.0445
11
107.445
21
-84.7945
0
LINE
8
BLACK
6
CONTINUOUS
10
107.445
20
-84.7945
11
107.444
21
-84.8067
0
LINE
8
BLACK
6
CONTINUOUS
10
107.444
20
-84.8067
11
107.44
21
-84.8184
0
LINE
8
BLACK
6
CONTINUOUS
10
107.44
20
-84.8184
11
107.434
21
-84.8292
0
LINE
8
BLACK
6
CONTINUOUS
10
107.434
20
-84.8292
11
107.427
21
-84.8387
0
LINE
8
BLACK
6
CONTINUOUS
10
107.427
20
-84.8387
11
107.417
21
-84.8465
0
LINE
8
BLACK
6
CONTINUOUS
10
107.417
20
-84.8465
11
107.406
21
-84.8522
0
LINE
8
BLACK
6
CONTINUOUS
10
107.406
20
-84.8522
11
107.395
21
-84.8558
0
LINE
8
BLACK
6
CONTINUOUS
10
107.395
20
-84.8558
11
107.382
21
-84.857
0
LINE
8
BLACK
6
CONTINUOUS
10
107.382
20
-84.857
11
107.257
21
-84.857
0
LINE
8
BLACK
6
CONTINUOUS
10
107.257
20
-84.857
11
107.245
21
-84.8558
0
LINE
8
BLACK
6
CONTINUOUS
10
107.245
20
-84.8558
11
107.234
21
-84.8522
0
LINE
8
BLACK
6
CONTINUOUS
10
107.234
20
-84.8522
11
107.223
21
-84.8465
0
LINE
8
BLACK
6
CONTINUOUS
10
107.223
20
-84.8465
11
107.213
21
-84.8387
0
LINE
8
BLACK
6
CONTINUOUS
10
107.213
20
-84.8387
11
107.206
21
-84.8292
0
LINE
8
BLACK
6
CONTINUOUS
10
107.206
20
-84.8292
11
107.2
21
-84.8184
0
LINE
8
BLACK
6
CONTINUOUS
10
107.2
20
-84.8184
11
107.196
21
-84.8067
0
LINE
8
BLACK
6
CONTINUOUS
10
107.196
20
-84.8067
11
107.195
21
-84.7945
0
LINE
8
BLACK
6
CONTINUOUS
10
107.195
20
-84.7945
11
107.195
21
-84.0445
0
LINE
8
BLACK
6
CONTINUOUS
10
107.195
20
-84.0445
11
107.196
21
-84.0323
0
LINE
8
BLACK
6
CONTINUOUS
10
107.196
20
-84.0323
11
107.2
21
-84.0206
0
LINE
8
BLACK
6
CONTINUOUS
10
107.2
20
-84.0206
11
107.206
21
-84.0098
0
LINE
8
BLACK
6
CONTINUOUS
10
107.206
20
-84.0098
11
107.213
21
-84.0003
0
LINE
8
BLACK
6
CONTINUOUS
10
107.213
20
-84.0003
11
107.223
21
-83.9925
0
LINE
8
BLACK
6
CONTINUOUS
10
107.223
20
-83.9925
11
107.234
21
-83.9868
0
LINE
8
BLACK
6
CONTINUOUS
10
107.234
20
-83.9868
11
107.245
21
-83.9832
0
LINE
8
BLACK
6
CONTINUOUS
10
107.245
20
-83.9832
11
107.257
21
-83.982
0
LINE
8
BLACK
6
CONTINUOUS
10
107.257
20
-83.982
11
107.382
21
-83.982
0
LINE
8
BLACK
6
CONTINUOUS
10
107.382
20
-83.982
11
107.395
21
-83.9832
0
LINE
8
BLACK
6
CONTINUOUS
10
108.395
20
-83.9832
11
108.406
21
-83.9868
0
LINE
8
BLACK
6
CONTINUOUS
10
108.406
20
-83.9868
11
108.417
21
-83.9925
0
LINE
8
BLACK
6
CONTINUOUS
10
108.417
20
-83.9925
11
108.427
21
-84.0003
0
LINE
8
BLACK
6
CONTINUOUS
10
108.427
20
-84.0003
11
108.434
21
-84.0098
0
LINE
8
BLACK
6
CONTINUOUS
10
108.434
20
-84.0098
11
108.44
21
-84.0206
0
LINE
8
BLACK
6
CONTINUOUS
10
108.44
20
-84.0206
11
108.444
21
-84.0323
0
LINE
8
BLACK
6
CONTINUOUS
10
108.444
20
-84.0323
11
108.445
21
-84.0445
0
LINE
8
BLACK
6
CONTINUOUS
10
108.445
20
-84.0445
11
108.445
21
-84.7945
0
LINE
8
BLACK
6
CONTINUOUS
10
108.445
20
-84.7945
11
108.444
21
-84.8067
0
LINE
8
BLACK
6
CONTINUOUS
10
108.444
20
-84.8067
11
108.44
21
-84.8184
0
LINE
8
BLACK
6
CONTINUOUS
10
108.44
20
-84.8184
11
108.434
21
-84.8292
0
LINE
8
BLACK
6
CONTINUOUS
10
108.434
20
-84.8292
11
108.427
21
-84.8387
0
LINE
8
BLACK
6
CONTINUOUS
10
108.427
20
-84.8387
11
108.417
21
-84.8465
0
LINE
8
BLACK
6
CONTINUOUS
10
108.417
20
-84.8465
11
108.406
21
-84.8522
0
LINE
8
BLACK
6
CONTINUOUS
10
108.406
20
-84.8522
11
108.395
21
-84.8558
0
LINE
8
BLACK
6
CONTINUOUS
10
108.395
20
-84.8558
11
108.382
21
-84.857
0
LINE
8
BLACK
6
CONTINUOUS
10
108.382
20
-84.857
11
108.257
21
-84.857
0
LINE
8
BLACK
6
CONTINUOUS
10
108.257
20
-84.857
11
108.245
21
-84.8558
0
LINE
8
BLACK
6
CONTINUOUS
10
108.245
20
-84.8558
11
108.234
21
-84.8522
0
LINE
8
BLACK
6
CONTINUOUS
10
108.234
20
-84.8522
11
108.223
21
-84.8465
0
LINE
8
BLACK
6
CONTINUOUS
10
108.223
20
-84.8465
11
108.213
21
-84.8387
0
LINE
8
BLACK
6
CONTINUOUS
10
108.213
20
-84.8387
11
108.206
21
-84.8292
0
LINE
8
BLACK
6
CONTINUOUS
10
108.206
20
-84.8292
11
108.2
21
-84.8184
0
LINE
8
BLACK
6
CONTINUOUS
10
108.2
20
-84.8184
11
108.196
21
-84.8067
0
LINE
8
BLACK
6
CONTINUOUS
10
108.196
20
-84.8067
11
108.195
21
-84.7945
0
LINE
8
BLACK
6
CONTINUOUS
10
108.195
20
-84.7945
11
108.195
21
-84.0445
0
LINE
8
BLACK
6
CONTINUOUS
10
108.195
20
-84.0445
11
108.196
21
-84.0323
0
LINE
8
BLACK
6
CONTINUOUS
10
108.196
20
-84.0323
11
108.2
21
-84.0206
0
LINE
8
BLACK
6
CONTINUOUS
10
108.2
20
-84.0206
11
108.206
21
-84.0098
0
LINE
8
BLACK
6
CONTINUOUS
10
108.206
20
-84.0098
11
108.213
21
-84.0003
0
LINE
8
BLACK
6
CONTINUOUS
10
108.213
20
-84.0003
11
108.223
21
-83.9925
0
LINE
8
BLACK
6
CONTINUOUS
10
108.223
20
-83.9925
11
108.234
21
-83.9868
0
LINE
8
BLACK
6
CONTINUOUS
10
108.234
20
-83.9868
11
108.245
21
-83.9832
0
LINE
8
BLACK
6
CONTINUOUS
10
108.245
20
-83.9832
11
108.257
21
-83.982
0
LINE
8
BLACK
6
CONTINUOUS
10
108.257
20
-83.982
11
108.382
21
-83.982
0
LINE
8
BLACK
6
CONTINUOUS
10
108.382
20
-83.982
11
108.395
21
-83.9832
0
LINE
8
BLACK
6
CONTINUOUS
10
108.895
20
-83.9832
11
108.906
21
-83.9868
0
LINE
8
BLACK
6
CONTINUOUS
10
108.906
20
-83.9868
11
108.917
21
-83.9925
0
LINE
8
BLACK
6
CONTINUOUS
10
108.917
20
-83.9925
11
108.927
21
-84.0003
0
LINE
8
BLACK
6
CONTINUOUS
10
108.927
20
-84.0003
11
108.934
21
-84.0098
0
LINE
8
BLACK
6
CONTINUOUS
10
108.934
20
-84.0098
11
108.94
21
-84.0206
0
LINE
8
BLACK
6
CONTINUOUS
10
108.94
20
-84.0206
11
108.944
21
-84.0323
0
LINE
8
BLACK
6
CONTINUOUS
10
108.944
20
-84.0323
11
108.945
21
-84.0445
0
LINE
8
BLACK
6
CONTINUOUS
10
108.945
20
-84.0445
11
108.945
21
-84.7945
0
LINE
8
BLACK
6
CONTINUOUS
10
108.945
20
-84.7945
11
108.944
21
-84.8067
0
LINE
8
BLACK
6
CONTINUOUS
10
108.944
20
-84.8067
11
108.94
21
-84.8184
0
LINE
8
BLACK
6
CONTINUOUS
10
108.94
20
-84.8184
11
108.934
21
-84.8292
0
LINE
8
BLACK
6
CONTINUOUS
10
108.934
20
-84.8292
11
108.927
21
-84.8387
0
LINE
8
BLACK
6
CONTINUOUS
10
108.927
20
-84.8387
11
108.917
21
-84.8465
0
LINE
8
BLACK
6
CONTINUOUS
10
108.917
20
-84.8465
11
108.906
21
-84.8522
0
LINE
8
BLACK
6
CONTINUOUS
10
108.906
20
-84.8522
11
108.895
21
-84.8558
0
LINE
8
BLACK
6
CONTINUOUS
10
108.895
20
-84.8558
11
108.882
21
-84.857
0
LINE
8
BLACK
6
CONTINUOUS
10
108.882
20
-84.857
11
108.757
21
-84.857
0
LINE
8
BLACK
6
CONTINUOUS
10
108.757
20
-84.857
11
108.745
21
-84.8558
0
LINE
8
BLACK
6
CONTINUOUS
10
108.745
20
-84.8558
11
108.734
21
-84.8522
0
LINE
8
BLACK
6
CONTINUOUS
10
108.734
20
-84.8522
11
108.723
21
-84.8465
0
LINE
8
BLACK
6
CONTINUOUS
10
108.723
20
-84.8465
11
108.713
21
-84.8387
0
LINE
8
BLACK
6
CONTINUOUS
10
108.713
20
-84.8387
11
108.706
21
-84.8292
0
LINE
8
BLACK
6
CONTINUOUS
10
108.706
20
-84.8292
11
108.7
21
-84.8184
0
LINE
8
BLACK
6
CONTINUOUS
10
108.7
20
-84.8184
11
108.696
21
-84.8067
0
LINE
8
BLACK
6
CONTINUOUS
10
108.696
20
-84.8067
11
108.695
21
-84.7945
0
LINE
8
BLACK
6
CONTINUOUS
10
108.695
20
-84.7945
11
108.695
21
-84.0445
0
LINE
8
BLACK
6
CONTINUOUS
10
108.695
20
-84.0445
11
108.696
21
-84.0323
0
LINE
8
BLACK
6
CONTINUOUS
10
108.696
20
-84.0323
11
108.7
21
-84.0206
0
LINE
8
BLACK
6
CONTINUOUS
10
108.7
20
-84.0206
11
108.706
21
-84.0098
0
LINE
8
BLACK
6
CONTINUOUS
10
108.706
20
-84.0098
11
108.713
21
-84.0003
0
LINE
8
BLACK
6
CONTINUOUS
10
108.713
20
-84.0003
11
108.723
21
-83.9925
0
LINE
8
BLACK
6
CONTINUOUS
10
108.723
20
-83.9925
11
108.734
21
-83.9868
0
LINE
8
BLACK
6
CONTINUOUS
10
108.734
20
-83.9868
11
108.745
21
-83.9832
0
LINE
8
BLACK
6
CONTINUOUS
10
108.745
20
-83.9832
11
108.757
21
-83.982
0
LINE
8
BLACK
6
CONTINUOUS
10
108.757
20
-83.982
11
108.882
21
-83.982
0
LINE
8
BLACK
6
CONTINUOUS
10
108.882
20
-83.982
11
108.895
21
-83.9832
0
LINE
8
BLACK
6
CONTINUOUS
10
109.395
20
-83.9832
11
109.406
21
-83.9868
0
LINE
8
BLACK
6
CONTINUOUS
10
109.406
20
-83.9868
11
109.417
21
-83.9925
0
LINE
8
BLACK
6
CONTINUOUS
10
109.417
20
-83.9925
11
109.427
21
-84.0003
0
LINE
8
BLACK
6
CONTINUOUS
10
109.427
20
-84.0003
11
109.434
21
-84.0098
0
LINE
8
BLACK
6
CONTINUOUS
10
109.434
20
-84.0098
11
109.44
21
-84.0206
0
LINE
8
BLACK
6
CONTINUOUS
10
109.44
20
-84.0206
11
109.444
21
-84.0323
0
LINE
8
BLACK
6
CONTINUOUS
10
109.444
20
-84.0323
11
109.445
21
-84.0445
0
LINE
8
BLACK
6
CONTINUOUS
10
109.445
20
-84.0445
11
109.445
21
-84.7945
0
LINE
8
BLACK
6
CONTINUOUS
10
109.445
20
-84.7945
11
109.444
21
-84.8067
0
LINE
8
BLACK
6
CONTINUOUS
10
109.444
20
-84.8067
11
109.44
21
-84.8184
0
LINE
8
BLACK
6
CONTINUOUS
10
109.44
20
-84.8184
11
109.434
21
-84.8292
0
LINE
8
BLACK
6
CONTINUOUS
10
109.434
20
-84.8292
11
109.427
21
-84.8387
0
LINE
8
BLACK
6
CONTINUOUS
10
109.427
20
-84.8387
11
109.417
21
-84.8465
0
LINE
8
BLACK
6
CONTINUOUS
10
109.417
20
-84.8465
11
109.406
21
-84.8522
0
LINE
8
BLACK
6
CONTINUOUS
10
109.406
20
-84.8522
11
109.395
21
-84.8558
0
LINE
8
BLACK
6
CONTINUOUS
10
109.395
20
-84.8558
11
109.382
21
-84.857
0
LINE
8
BLACK
6
CONTINUOUS
10
109.382
20
-84.857
11
109.257
21
-84.857
0
LINE
8
BLACK
6
CONTINUOUS
10
109.257
20
-84.857
11
109.245
21
-84.8558
0
LINE
8
BLACK
6
CONTINUOUS
10
109.245
20
-84.8558
11
109.234
21
-84.8522
0
LINE
8
BLACK
6
CONTINUOUS
10
109.234
20
-84.8522
11
109.223
21
-84.8465
0
LINE
8
BLACK
6
CONTINUOUS
10
109.223
20
-84.8465
11
109.213
21
-84.8387
0
LINE
8
BLACK
6
CONTINUOUS
10
109.213
20
-84.8387
11
109.206
21
-84.8292
0
LINE
8
BLACK
6
CONTINUOUS
10
109.206
20
-84.8292
11
109.2
21
-84.8184
0
LINE
8
BLACK
6
CONTINUOUS
10
109.2
20
-84.8184
11
109.196
21
-84.8067
0
LINE
8
BLACK
6
CONTINUOUS
10
109.196
20
-84.8067
11
109.195
21
-84.7945
0
LINE
8
BLACK
6
CONTINUOUS
10
109.195
20
-84.7945
11
109.195
21
-84.0445
0
LINE
8
BLACK
6
CONTINUOUS
10
109.195
20
-84.0445
11
109.196
21
-84.0323
0
LINE
8
BLACK
6
CONTINUOUS
10
109.196
20
-84.0323
11
109.2
21
-84.0206
0
LINE
8
BLACK
6
CONTINUOUS
10
109.2
20
-84.0206
11
109.206
21
-84.0098
0
LINE
8
BLACK
6
CONTINUOUS
10
109.206
20
-84.0098
11
109.213
21
-84.0003
0
LINE
8
BLACK
6
CONTINUOUS
10
109.213
20
-84.0003
11
109.223
21
-83.9925
0
LINE
8
BLACK
6
CONTINUOUS
10
109.223
20
-83.9925
11
109.234
21
-83.9868
0
LINE
8
BLACK
6
CONTINUOUS
10
109.234
20
-83.9868
11
109.245
21
-83.9832
0
LINE
8
BLACK
6
CONTINUOUS
10
109.245
20
-83.9832
11
109.257
21
-83.982
0
LINE
8
BLACK
6
CONTINUOUS
10
109.257
20
-83.982
11
109.382
21
-83.982
0
LINE
8
BLACK
6
CONTINUOUS
10
109.382
20
-83.982
11
109.395
21
-83.9832
0
LINE
8
BLACK
6
CONTINUOUS
10
109.895
20
-83.9832
11
109.906
21
-83.9868
0
LINE
8
BLACK
6
CONTINUOUS
10
109.906
20
-83.9868
11
109.917
21
-83.9925
0
LINE
8
BLACK
6
CONTINUOUS
10
109.917
20
-83.9925
11
109.927
21
-84.0003
0
LINE
8
BLACK
6
CONTINUOUS
10
109.927
20
-84.0003
11
109.934
21
-84.0098
0
LINE
8
BLACK
6
CONTINUOUS
10
109.934
20
-84.0098
11
109.94
21
-84.0206
0
LINE
8
BLACK
6
CONTINUOUS
10
109.94
20
-84.0206
11
109.944
21
-84.0323
0
LINE
8
BLACK
6
CONTINUOUS
10
109.944
20
-84.0323
11
109.945
21
-84.0445
0
LINE
8
BLACK
6
CONTINUOUS
10
109.945
20
-84.0445
11
109.945
21
-84.7945
0
LINE
8
BLACK
6
CONTINUOUS
10
109.945
20
-84.7945
11
109.944
21
-84.8067
0
LINE
8
BLACK
6
CONTINUOUS
10
109.944
20
-84.8067
11
109.94
21
-84.8184
0
LINE
8
BLACK
6
CONTINUOUS
10
109.94
20
-84.8184
11
109.934
21
-84.8292
0
LINE
8
BLACK
6
CONTINUOUS
10
109.934
20
-84.8292
11
109.927
21
-84.8387
0
LINE
8
BLACK
6
CONTINUOUS
10
109.927
20
-84.8387
11
109.917
21
-84.8465
0
LINE
8
BLACK
6
CONTINUOUS
10
109.917
20
-84.8465
11
109.906
21
-84.8522
0
LINE
8
BLACK
6
CONTINUOUS
10
109.906
20
-84.8522
11
109.895
21
-84.8558
0
LINE
8
BLACK
6
CONTINUOUS
10
109.895
20
-84.8558
11
109.882
21
-84.857
0
LINE
8
BLACK
6
CONTINUOUS
10
109.882
20
-84.857
11
109.757
21
-84.857
0
LINE
8
BLACK
6
CONTINUOUS
10
109.757
20
-84.857
11
109.745
21
-84.8558
0
LINE
8
BLACK
6
CONTINUOUS
10
109.745
20
-84.8558
11
109.734
21
-84.8522
0
LINE
8
BLACK
6
CONTINUOUS
10
109.734
20
-84.8522
11
109.723
21
-84.8465
0
LINE
8
BLACK
6
CONTINUOUS
10
109.723
20
-84.8465
11
109.713
21
-84.8387
0
LINE
8
BLACK
6
CONTINUOUS
10
109.713
20
-84.8387
11
109.706
21
-84.8292
0
LINE
8
BLACK
6
CONTINUOUS
10
109.706
20
-84.8292
11
109.7
21
-84.8184
0
LINE
8
BLACK
6
CONTINUOUS
10
109.7
20
-84.8184
11
109.696
21
-84.8067
0
LINE
8
BLACK
6
CONTINUOUS
10
109.696
20
-84.8067
11
109.695
21
-84.7945
0
LINE
8
BLACK
6
CONTINUOUS
10
109.695
20
-84.7945
11
109.695
21
-84.0445
0
LINE
8
BLACK
6
CONTINUOUS
10
109.695
20
-84.0445
11
109.696
21
-84.0323
0
LINE
8
BLACK
6
CONTINUOUS
10
109.696
20
-84.0323
11
109.7
21
-84.0206
0
LINE
8
BLACK
6
CONTINUOUS
10
109.7
20
-84.0206
11
109.706
21
-84.0098
0
LINE
8
BLACK
6
CONTINUOUS
10
109.706
20
-84.0098
11
109.713
21
-84.0003
0
LINE
8
BLACK
6
CONTINUOUS
10
109.713
20
-84.0003
11
109.723
21
-83.9925
0
LINE
8
BLACK
6
CONTINUOUS
10
109.723
20
-83.9925
11
109.734
21
-83.9868
0
LINE
8
BLACK
6
CONTINUOUS
10
109.734
20
-83.9868
11
109.745
21
-83.9832
0
LINE
8
BLACK
6
CONTINUOUS
10
109.745
20
-83.9832
11
109.757
21
-83.982
0
LINE
8
BLACK
6
CONTINUOUS
10
109.757
20
-83.982
11
109.882
21
-83.982
0
LINE
8
BLACK
6
CONTINUOUS
10
109.882
20
-83.982
11
109.895
21
-83.9832
0
LINE
8
BLACK
6
CONTINUOUS
10
110.395
20
-83.9832
11
110.406
21
-83.9868
0
LINE
8
BLACK
6
CONTINUOUS
10
110.406
20
-83.9868
11
110.417
21
-83.9925
0
LINE
8
BLACK
6
CONTINUOUS
10
110.417
20
-83.9925
11
110.427
21
-84.0003
0
LINE
8
BLACK
6
CONTINUOUS
10
110.427
20
-84.0003
11
110.434
21
-84.0098
0
LINE
8
BLACK
6
CONTINUOUS
10
110.434
20
-84.0098
11
110.44
21
-84.0206
0
LINE
8
BLACK
6
CONTINUOUS
10
110.44
20
-84.0206
11
110.444
21
-84.0323
0
LINE
8
BLACK
6
CONTINUOUS
10
110.444
20
-84.0323
11
110.445
21
-84.0445
0
LINE
8
BLACK
6
CONTINUOUS
10
110.445
20
-84.0445
11
110.445
21
-84.7945
0
LINE
8
BLACK
6
CONTINUOUS
10
110.445
20
-84.7945
11
110.444
21
-84.8067
0
LINE
8
BLACK
6
CONTINUOUS
10
110.444
20
-84.8067
11
110.44
21
-84.8184
0
LINE
8
BLACK
6
CONTINUOUS
10
110.44
20
-84.8184
11
110.434
21
-84.8292
0
LINE
8
BLACK
6
CONTINUOUS
10
110.434
20
-84.8292
11
110.427
21
-84.8387
0
LINE
8
BLACK
6
CONTINUOUS
10
110.427
20
-84.8387
11
110.417
21
-84.8465
0
LINE
8
BLACK
6
CONTINUOUS
10
110.417
20
-84.8465
11
110.406
21
-84.8522
0
LINE
8
BLACK
6
CONTINUOUS
10
110.406
20
-84.8522
11
110.395
21
-84.8558
0
LINE
8
BLACK
6
CONTINUOUS
10
110.395
20
-84.8558
11
110.382
21
-84.857
0
LINE
8
BLACK
6
CONTINUOUS
10
110.382
20
-84.857
11
110.257
21
-84.857
0
LINE
8
BLACK
6
CONTINUOUS
10
110.257
20
-84.857
11
110.245
21
-84.8558
0
LINE
8
BLACK
6
CONTINUOUS
10
110.245
20
-84.8558
11
110.234
21
-84.8522
0
LINE
8
BLACK
6
CONTINUOUS
10
110.234
20
-84.8522
11
110.223
21
-84.8465
0
LINE
8
BLACK
6
CONTINUOUS
10
110.223
20
-84.8465
11
110.213
21
-84.8387
0
LINE
8
BLACK
6
CONTINUOUS
10
110.213
20
-84.8387
11
110.206
21
-84.8292
0
LINE
8
BLACK
6
CONTINUOUS
10
110.206
20
-84.8292
11
110.2
21
-84.8184
0
LINE
8
BLACK
6
CONTINUOUS
10
110.2
20
-84.8184
11
110.196
21
-84.8067
0
LINE
8
BLACK
6
CONTINUOUS
10
110.196
20
-84.8067
11
110.195
21
-84.7945
0
LINE
8
BLACK
6
CONTINUOUS
10
110.195
20
-84.7945
11
110.195
21
-84.0445
0
LINE
8
BLACK
6
CONTINUOUS
10
110.195
20
-84.0445
11
110.196
21
-84.0323
0
LINE
8
BLACK
6
CONTINUOUS
10
110.196
20
-84.0323
11
110.2
21
-84.0206
0
LINE
8
BLACK
6
CONTINUOUS
10
110.2
20
-84.0206
11
110.206
21
-84.0098
0
LINE
8
BLACK
6
CONTINUOUS
10
110.206
20
-84.0098
11
110.213
21
-84.0003
0
LINE
8
BLACK
6
CONTINUOUS
10
110.213
20
-84.0003
11
110.223
21
-83.9925
0
LINE
8
BLACK
6
CONTINUOUS
10
110.223
20
-83.9925
11
110.234
21
-83.9868
0
LINE
8
BLACK
6
CONTINUOUS
10
110.234
20
-83.9868
11
110.245
21
-83.9832
0
LINE
8
BLACK
6
CONTINUOUS
10
110.245
20
-83.9832
11
110.257
21
-83.982
0
LINE
8
BLACK
6
CONTINUOUS
10
110.257
20
-83.982
11
110.382
21
-83.982
0
LINE
8
BLACK
6
CONTINUOUS
10
110.382
20
-83.982
11
110.395
21
-83.9832
0
LINE
8
BLACK
6
CONTINUOUS
10
110.895
20
-83.9832
11
110.906
21
-83.9868
0
LINE
8
BLACK
6
CONTINUOUS
10
110.906
20
-83.9868
11
110.917
21
-83.9925
0
LINE
8
BLACK
6
CONTINUOUS
10
110.917
20
-83.9925
11
110.927
21
-84.0003
0
LINE
8
BLACK
6
CONTINUOUS
10
110.927
20
-84.0003
11
110.934
21
-84.0098
0
LINE
8
BLACK
6
CONTINUOUS
10
110.934
20
-84.0098
11
110.94
21
-84.0206
0
LINE
8
BLACK
6
CONTINUOUS
10
110.94
20
-84.0206
11
110.944
21
-84.0323
0
LINE
8
BLACK
6
CONTINUOUS
10
110.944
20
-84.0323
11
110.945
21
-84.0445
0
LINE
8
BLACK
6
CONTINUOUS
10
110.945
20
-84.0445
11
110.945
21
-84.7945
0
LINE
8
BLACK
6
CONTINUOUS
10
110.945
20
-84.7945
11
110.944
21
-84.8067
0
LINE
8
BLACK
6
CONTINUOUS
10
110.944
20
-84.8067
11
110.94
21
-84.8184
0
LINE
8
BLACK
6
CONTINUOUS
10
110.94
20
-84.8184
11
110.934
21
-84.8292
0
LINE
8
BLACK
6
CONTINUOUS
10
110.934
20
-84.8292
11
110.927
21
-84.8387
0
LINE
8
BLACK
6
CONTINUOUS
10
110.927
20
-84.8387
11
110.917
21
-84.8465
0
LINE
8
BLACK
6
CONTINUOUS
10
110.917
20
-84.8465
11
110.906
21
-84.8522
0
LINE
8
BLACK
6
CONTINUOUS
10
110.906
20
-84.8522
11
110.895
21
-84.8558
0
LINE
8
BLACK
6
CONTINUOUS
10
110.895
20
-84.8558
11
110.882
21
-84.857
0
LINE
8
BLACK
6
CONTINUOUS
10
110.882
20
-84.857
11
110.757
21
-84.857
0
LINE
8
BLACK
6
CONTINUOUS
10
110.757
20
-84.857
11
110.745
21
-84.8558
0
LINE
8
BLACK
6
CONTINUOUS
10
110.745
20
-84.8558
11
110.734
21
-84.8522
0
LINE
8
BLACK
6
CONTINUOUS
10
110.734
20
-84.8522
11
110.723
21
-84.8465
0
LINE
8
BLACK
6
CONTINUOUS
10
110.723
20
-84.8465
11
110.713
21
-84.8387
0
LINE
8
BLACK
6
CONTINUOUS
10
110.713
20
-84.8387
11
110.706
21
-84.8292
0
LINE
8
BLACK
6
CONTINUOUS
10
110.706
20
-84.8292
11
110.7
21
-84.8184
0
LINE
8
BLACK
6
CONTINUOUS
10
110.7
20
-84.8184
11
110.696
21
-84.8067
0
LINE
8
BLACK
6
CONTINUOUS
10
110.696
20
-84.8067
11
110.695
21
-84.7945
0
LINE
8
BLACK
6
CONTINUOUS
10
110.695
20
-84.7945
11
110.695
21
-84.0445
0
LINE
8
BLACK
6
CONTINUOUS
10
110.695
20
-84.0445
11
110.696
21
-84.0323
0
LINE
8
BLACK
6
CONTINUOUS
10
110.696
20
-84.0323
11
110.7
21
-84.0206
0
LINE
8
BLACK
6
CONTINUOUS
10
110.7
20
-84.0206
11
110.706
21
-84.0098
0
LINE
8
BLACK
6
CONTINUOUS
10
110.706
20
-84.0098
11
110.713
21
-84.0003
0
LINE
8
BLACK
6
CONTINUOUS
10
110.713
20
-84.0003
11
110.723
21
-83.9925
0
LINE
8
BLACK
6
CONTINUOUS
10
110.723
20
-83.9925
11
110.734
21
-83.9868
0
LINE
8
BLACK
6
CONTINUOUS
10
110.734
20
-83.9868
11
110.745
21
-83.9832
0
LINE
8
BLACK
6
CONTINUOUS
10
110.745
20
-83.9832
11
110.757
21
-83.982
0
LINE
8
BLACK
6
CONTINUOUS
10
110.757
20
-83.982
11
110.882
21
-83.982
0
LINE
8
BLACK
6
CONTINUOUS
10
110.882
20
-83.982
11
110.895
21
-83.9832
0
LINE
8
BLACK
6
CONTINUOUS
10
107.895
20
-83.9832
11
107.906
21
-83.9868
0
LINE
8
BLACK
6
CONTINUOUS
10
107.906
20
-83.9868
11
107.917
21
-83.9925
0
LINE
8
BLACK
6
CONTINUOUS
10
107.917
20
-83.9925
11
107.927
21
-84.0003
0
LINE
8
BLACK
6
CONTINUOUS
10
107.927
20
-84.0003
11
107.934
21
-84.0098
0
LINE
8
BLACK
6
CONTINUOUS
10
107.934
20
-84.0098
11
107.94
21
-84.0206
0
LINE
8
BLACK
6
CONTINUOUS
10
107.94
20
-84.0206
11
107.944
21
-84.0323
0
LINE
8
BLACK
6
CONTINUOUS
10
107.944
20
-84.0323
11
107.945
21
-84.0445
0
LINE
8
BLACK
6
CONTINUOUS
10
107.945
20
-84.0445
11
107.945
21
-84.7945
0
LINE
8
BLACK
6
CONTINUOUS
10
107.945
20
-84.7945
11
107.944
21
-84.8067
0
LINE
8
BLACK
6
CONTINUOUS
10
107.944
20
-84.8067
11
107.94
21
-84.8184
0
LINE
8
BLACK
6
CONTINUOUS
10
107.94
20
-84.8184
11
107.934
21
-84.8292
0
LINE
8
BLACK
6
CONTINUOUS
10
107.934
20
-84.8292
11
107.927
21
-84.8387
0
LINE
8
BLACK
6
CONTINUOUS
10
107.927
20
-84.8387
11
107.917
21
-84.8465
0
LINE
8
BLACK
6
CONTINUOUS
10
107.917
20
-84.8465
11
107.906
21
-84.8522
0
LINE
8
BLACK
6
CONTINUOUS
10
107.906
20
-84.8522
11
107.895
21
-84.8558
0
LINE
8
BLACK
6
CONTINUOUS
10
107.895
20
-84.8558
11
107.882
21
-84.857
0
LINE
8
BLACK
6
CONTINUOUS
10
107.882
20
-84.857
11
107.757
21
-84.857
0
LINE
8
BLACK
6
CONTINUOUS
10
107.757
20
-84.857
11
107.745
21
-84.8558
0
LINE
8
BLACK
6
CONTINUOUS
10
107.745
20
-84.8558
11
107.734
21
-84.8522
0
LINE
8
BLACK
6
CONTINUOUS
10
107.734
20
-84.8522
11
107.723
21
-84.8465
0
LINE
8
BLACK
6
CONTINUOUS
10
107.723
20
-84.8465
11
107.713
21
-84.8387
0
LINE
8
BLACK
6
CONTINUOUS
10
107.713
20
-84.8387
11
107.706
21
-84.8292
0
LINE
8
BLACK
6
CONTINUOUS
10
107.706
20
-84.8292
11
107.7
21
-84.8184
0
LINE
8
BLACK
6
CONTINUOUS
10
107.7
20
-84.8184
11
107.696
21
-84.8067
0
LINE
8
BLACK
6
CONTINUOUS
10
107.696
20
-84.8067
11
107.695
21
-84.7945
0
LINE
8
BLACK
6
CONTINUOUS
10
107.695
20
-84.7945
11
107.695
21
-84.0445
0
LINE
8
BLACK
6
CONTINUOUS
10
107.695
20
-84.0445
11
107.696
21
-84.0323
0
LINE
8
BLACK
6
CONTINUOUS
10
107.696
20
-84.0323
11
107.7
21
-84.0206
0
LINE
8
BLACK
6
CONTINUOUS
10
107.7
20
-84.0206
11
107.706
21
-84.0098
0
LINE
8
BLACK
6
CONTINUOUS
10
107.706
20
-84.0098
11
107.713
21
-84.0003
0
LINE
8
BLACK
6
CONTINUOUS
10
107.713
20
-84.0003
11
107.723
21
-83.9925
0
LINE
8
BLACK
6
CONTINUOUS
10
107.723
20
-83.9925
11
107.734
21
-83.9868
0
LINE
8
BLACK
6
CONTINUOUS
10
107.734
20
-83.9868
11
107.745
21
-83.9832
0
LINE
8
BLACK
6
CONTINUOUS
10
107.745
20
-83.9832
11
107.757
21
-83.982
0
LINE
8
BLACK
6
CONTINUOUS
10
107.757
20
-83.982
11
107.882
21
-83.982
0
LINE
8
BLACK
6
CONTINUOUS
10
107.882
20
-83.982
11
107.895
21
-83.9832
0
LINE
8
BLACK
6
CONTINUOUS
10
113.684
20
-83.8472
11
113.775
21
-83.8849
0
LINE
8
BLACK
6
CONTINUOUS
10
113.775
20
-83.8849
11
113.857
21
-83.9396
0
LINE
8
BLACK
6
CONTINUOUS
10
113.857
20
-83.9396
11
113.926
21
-84.0093
0
LINE
8
BLACK
6
CONTINUOUS
10
113.926
20
-84.0093
11
113.981
21
-84.0912
0
LINE
8
BLACK
6
CONTINUOUS
10
113.981
20
-84.0912
11
114.019
21
-84.1822
0
LINE
8
BLACK
6
CONTINUOUS
10
114.019
20
-84.1822
11
114.038
21
-84.2788
0
LINE
8
BLACK
6
CONTINUOUS
10
114.038
20
-84.2788
11
114.038
21
-84.3772
0
LINE
8
BLACK
6
CONTINUOUS
10
114.038
20
-84.3772
11
114.019
21
-84.4738
0
LINE
8
BLACK
6
CONTINUOUS
10
114.019
20
-84.4738
11
113.981
21
-84.5648
0
LINE
8
BLACK
6
CONTINUOUS
10
113.981
20
-84.5648
11
113.926
21
-84.6467
0
LINE
8
BLACK
6
CONTINUOUS
10
113.926
20
-84.6467
11
113.857
21
-84.7164
0
LINE
8
BLACK
6
CONTINUOUS
10
113.857
20
-84.7164
11
113.775
21
-84.7711
0
LINE
8
BLACK
6
CONTINUOUS
10
113.775
20
-84.7711
11
113.684
21
-84.8088
0
LINE
8
BLACK
6
CONTINUOUS
10
113.684
20
-84.8088
11
113.587
21
-84.828
0
LINE
8
BLACK
6
CONTINUOUS
10
113.587
20
-84.828
11
113.489
21
-84.828
0
LINE
8
BLACK
6
CONTINUOUS
10
113.489
20
-84.828
11
113.392
21
-84.8088
0
LINE
8
BLACK
6
CONTINUOUS
10
113.392
20
-84.8088
11
113.301
21
-84.7711
0
LINE
8
BLACK
6
CONTINUOUS
10
113.301
20
-84.7711
11
113.219
21
-84.7164
0
LINE
8
BLACK
6
CONTINUOUS
10
113.219
20
-84.7164
11
113.15
21
-84.6467
0
LINE
8
BLACK
6
CONTINUOUS
10
113.15
20
-84.6467
11
113.095
21
-84.5648
0
LINE
8
BLACK
6
CONTINUOUS
10
113.095
20
-84.5648
11
113.057
21
-84.4738
0
LINE
8
BLACK
6
CONTINUOUS
10
113.057
20
-84.4738
11
113.038
21
-84.3772
0
LINE
8
BLACK
6
CONTINUOUS
10
113.038
20
-84.3772
11
113.038
21
-84.2788
0
LINE
8
BLACK
6
CONTINUOUS
10
113.038
20
-84.2788
11
113.057
21
-84.1822
0
LINE
8
BLACK
6
CONTINUOUS
10
113.057
20
-84.1822
11
113.095
21
-84.0912
0
LINE
8
BLACK
6
CONTINUOUS
10
113.095
20
-84.0912
11
113.15
21
-84.0093
0
LINE
8
BLACK
6
CONTINUOUS
10
113.15
20
-84.0093
11
113.219
21
-83.9396
0
LINE
8
BLACK
6
CONTINUOUS
10
113.219
20
-83.9396
11
113.301
21
-83.8849
0
LINE
8
BLACK
6
CONTINUOUS
10
113.301
20
-83.8849
11
113.392
21
-83.8472
0
LINE
8
BLACK
6
CONTINUOUS
10
113.392
20
-83.8472
11
113.489
21
-83.828
0
LINE
8
BLACK
6
CONTINUOUS
10
113.489
20
-83.828
11
113.587
21
-83.828
0
LINE
8
BLACK
6
CONTINUOUS
10
113.587
20
-83.828
11
113.684
21
-83.8472
0
LINE
8
BLACK
6
CONTINUOUS
10
117.861
20
-84.266
11
117.211
21
-84.266
0
LINE
8
BLACK
6
CONTINUOUS
10
117.211
20
-84.266
11
117.211
21
-83.206
0
LINE
8
BLACK
6
CONTINUOUS
10
117.211
20
-83.206
11
117.861
21
-83.206
0
LINE
8
BLACK
6
CONTINUOUS
10
117.861
20
-83.206
11
117.861
21
-84.266
0
LINE
8
BLACK
6
CONTINUOUS
10
115.961
20
-84.266
11
115.311
21
-84.266
0
LINE
8
BLACK
6
CONTINUOUS
10
115.311
20
-84.266
11
115.311
21
-83.206
0
LINE
8
BLACK
6
CONTINUOUS
10
115.311
20
-83.206
11
115.961
21
-83.206
0
LINE
8
BLACK
6
CONTINUOUS
10
115.961
20
-83.206
11
115.961
21
-84.266
0
LINE
8
BLACK
6
CONTINUOUS
10
116.911
20
-84.266
11
116.261
21
-84.266
0
LINE
8
BLACK
6
CONTINUOUS
10
116.261
20
-84.266
11
116.261
21
-83.206
0
LINE
8
BLACK
6
CONTINUOUS
10
116.261
20
-83.206
11
116.911
21
-83.206
0
LINE
8
BLACK
6
CONTINUOUS
10
116.911
20
-83.206
11
116.911
21
-84.266
0
LINE
8
BLACK
6
CONTINUOUS
10
111.895
20
-83.6082
11
111.906
21
-83.6118
0
LINE
8
BLACK
6
CONTINUOUS
10
111.906
20
-83.6118
11
111.917
21
-83.6175
0
LINE
8
BLACK
6
CONTINUOUS
10
111.917
20
-83.6175
11
111.927
21
-83.6253
0
LINE
8
BLACK
6
CONTINUOUS
10
111.927
20
-83.6253
11
111.934
21
-83.6348
0
LINE
8
BLACK
6
CONTINUOUS
10
111.934
20
-83.6348
11
111.94
21
-83.6456
0
LINE
8
BLACK
6
CONTINUOUS
10
111.94
20
-83.6456
11
111.944
21
-83.6573
0
LINE
8
BLACK
6
CONTINUOUS
10
111.944
20
-83.6573
11
111.945
21
-83.6695
0
LINE
8
BLACK
6
CONTINUOUS
10
111.945
20
-83.6695
11
111.945
21
-83.7945
0
LINE
8
BLACK
6
CONTINUOUS
10
111.945
20
-83.7945
11
111.944
21
-83.8067
0
LINE
8
BLACK
6
CONTINUOUS
10
111.944
20
-83.8067
11
111.94
21
-83.8184
0
LINE
8
BLACK
6
CONTINUOUS
10
111.94
20
-83.8184
11
111.934
21
-83.8292
0
LINE
8
BLACK
6
CONTINUOUS
10
111.934
20
-83.8292
11
111.927
21
-83.8387
0
LINE
8
BLACK
6
CONTINUOUS
10
111.927
20
-83.8387
11
111.917
21
-83.8465
0
LINE
8
BLACK
6
CONTINUOUS
10
111.917
20
-83.8465
11
111.906
21
-83.8522
0
LINE
8
BLACK
6
CONTINUOUS
10
111.906
20
-83.8522
11
111.895
21
-83.8558
0
LINE
8
BLACK
6
CONTINUOUS
10
111.895
20
-83.8558
11
111.882
21
-83.857
0
LINE
8
BLACK
6
CONTINUOUS
10
111.882
20
-83.857
11
111.132
21
-83.857
0
LINE
8
BLACK
6
CONTINUOUS
10
111.132
20
-83.857
11
111.12
21
-83.8558
0
LINE
8
BLACK
6
CONTINUOUS
10
111.12
20
-83.8558
11
111.109
21
-83.8522
0
LINE
8
BLACK
6
CONTINUOUS
10
111.109
20
-83.8522
11
111.098
21
-83.8465
0
LINE
8
BLACK
6
CONTINUOUS
10
111.098
20
-83.8465
11
111.088
21
-83.8387
0
LINE
8
BLACK
6
CONTINUOUS
10
111.088
20
-83.8387
11
111.081
21
-83.8292
0
LINE
8
BLACK
6
CONTINUOUS
10
111.081
20
-83.8292
11
111.075
21
-83.8184
0
LINE
8
BLACK
6
CONTINUOUS
10
111.075
20
-83.8184
11
111.071
21
-83.8067
0
LINE
8
BLACK
6
CONTINUOUS
10
111.071
20
-83.8067
11
111.07
21
-83.7945
0
LINE
8
BLACK
6
CONTINUOUS
10
111.07
20
-83.7945
11
111.07
21
-83.6695
0
LINE
8
BLACK
6
CONTINUOUS
10
111.07
20
-83.6695
11
111.071
21
-83.6573
0
LINE
8
BLACK
6
CONTINUOUS
10
111.071
20
-83.6573
11
111.075
21
-83.6456
0
LINE
8
BLACK
6
CONTINUOUS
10
111.075
20
-83.6456
11
111.081
21
-83.6348
0
LINE
8
BLACK
6
CONTINUOUS
10
111.081
20
-83.6348
11
111.088
21
-83.6253
0
LINE
8
BLACK
6
CONTINUOUS
10
111.088
20
-83.6253
11
111.098
21
-83.6175
0
LINE
8
BLACK
6
CONTINUOUS
10
111.098
20
-83.6175
11
111.109
21
-83.6118
0
LINE
8
BLACK
6
CONTINUOUS
10
111.109
20
-83.6118
11
111.12
21
-83.6082
0
LINE
8
BLACK
6
CONTINUOUS
10
111.12
20
-83.6082
11
111.132
21
-83.607
0
LINE
8
BLACK
6
CONTINUOUS
10
111.132
20
-83.607
11
111.882
21
-83.607
0
LINE
8
BLACK
6
CONTINUOUS
10
111.882
20
-83.607
11
111.895
21
-83.6082
0
LINE
8
BLACK
6
CONTINUOUS
10
107.02
20
-83.6082
11
107.031
21
-83.6118
0
LINE
8
BLACK
6
CONTINUOUS
10
107.031
20
-83.6118
11
107.042
21
-83.6175
0
LINE
8
BLACK
6
CONTINUOUS
10
107.042
20
-83.6175
11
107.052
21
-83.6253
0
LINE
8
BLACK
6
CONTINUOUS
10
107.052
20
-83.6253
11
107.059
21
-83.6348
0
LINE
8
BLACK
6
CONTINUOUS
10
107.059
20
-83.6348
11
107.065
21
-83.6456
0
LINE
8
BLACK
6
CONTINUOUS
10
107.065
20
-83.6456
11
107.069
21
-83.6573
0
LINE
8
BLACK
6
CONTINUOUS
10
107.069
20
-83.6573
11
107.07
21
-83.6695
0
LINE
8
BLACK
6
CONTINUOUS
10
107.07
20
-83.6695
11
107.07
21
-83.7945
0
LINE
8
BLACK
6
CONTINUOUS
10
107.07
20
-83.7945
11
107.069
21
-83.8067
0
LINE
8
BLACK
6
CONTINUOUS
10
107.069
20
-83.8067
11
107.065
21
-83.8184
0
LINE
8
BLACK
6
CONTINUOUS
10
107.065
20
-83.8184
11
107.059
21
-83.8292
0
LINE
8
BLACK
6
CONTINUOUS
10
107.059
20
-83.8292
11
107.052
21
-83.8387
0
LINE
8
BLACK
6
CONTINUOUS
10
107.052
20
-83.8387
11
107.042
21
-83.8465
0
LINE
8
BLACK
6
CONTINUOUS
10
107.042
20
-83.8465
11
107.031
21
-83.8522
0
LINE
8
BLACK
6
CONTINUOUS
10
107.031
20
-83.8522
11
107.02
21
-83.8558
0
LINE
8
BLACK
6
CONTINUOUS
10
107.02
20
-83.8558
11
107.007
21
-83.857
0
LINE
8
BLACK
6
CONTINUOUS
10
107.007
20
-83.857
11
106.257
21
-83.857
0
LINE
8
BLACK
6
CONTINUOUS
10
106.257
20
-83.857
11
106.245
21
-83.8558
0
LINE
8
BLACK
6
CONTINUOUS
10
106.245
20
-83.8558
11
106.234
21
-83.8522
0
LINE
8
BLACK
6
CONTINUOUS
10
106.234
20
-83.8522
11
106.223
21
-83.8465
0
LINE
8
BLACK
6
CONTINUOUS
10
106.223
20
-83.8465
11
106.213
21
-83.8387
0
LINE
8
BLACK
6
CONTINUOUS
10
106.213
20
-83.8387
11
106.206
21
-83.8292
0
LINE
8
BLACK
6
CONTINUOUS
10
106.206
20
-83.8292
11
106.2
21
-83.8184
0
LINE
8
BLACK
6
CONTINUOUS
10
106.2
20
-83.8184
11
106.196
21
-83.8067
0
LINE
8
BLACK
6
CONTINUOUS
10
106.196
20
-83.8067
11
106.195
21
-83.7945
0
LINE
8
BLACK
6
CONTINUOUS
10
106.195
20
-83.7945
11
106.195
21
-83.6695
0
LINE
8
BLACK
6
CONTINUOUS
10
106.195
20
-83.6695
11
106.196
21
-83.6573
0
LINE
8
BLACK
6
CONTINUOUS
10
106.196
20
-83.6573
11
106.2
21
-83.6456
0
LINE
8
BLACK
6
CONTINUOUS
10
106.2
20
-83.6456
11
106.206
21
-83.6348
0
LINE
8
BLACK
6
CONTINUOUS
10
106.206
20
-83.6348
11
106.213
21
-83.6253
0
LINE
8
BLACK
6
CONTINUOUS
10
106.213
20
-83.6253
11
106.223
21
-83.6175
0
LINE
8
BLACK
6
CONTINUOUS
10
106.223
20
-83.6175
11
106.234
21
-83.6118
0
LINE
8
BLACK
6
CONTINUOUS
10
106.234
20
-83.6118
11
106.245
21
-83.6082
0
LINE
8
BLACK
6
CONTINUOUS
10
106.245
20
-83.6082
11
106.257
21
-83.607
0
LINE
8
BLACK
6
CONTINUOUS
10
106.257
20
-83.607
11
107.007
21
-83.607
0
LINE
8
BLACK
6
CONTINUOUS
10
107.007
20
-83.607
11
107.02
21
-83.6082
0
LINE
8
BLACK
6
CONTINUOUS
10
110.62
20
-83.532
11
107.52
21
-83.532
0
LINE
8
BLACK
6
CONTINUOUS
10
107.52
20
-83.532
11
107.52
21
-80.432
0
LINE
8
BLACK
6
CONTINUOUS
10
107.52
20
-80.432
11
110.62
21
-80.432
0
LINE
8
BLACK
6
CONTINUOUS
10
110.62
20
-80.432
11
110.62
21
-83.532
0
LINE
8
BLACK
6
CONTINUOUS
10
111.895
20
-83.1082
11
111.906
21
-83.1118
0
LINE
8
BLACK
6
CONTINUOUS
10
111.906
20
-83.1118
11
111.917
21
-83.1175
0
LINE
8
BLACK
6
CONTINUOUS
10
111.917
20
-83.1175
11
111.927
21
-83.1253
0
LINE
8
BLACK
6
CONTINUOUS
10
111.927
20
-83.1253
11
111.934
21
-83.1348
0
LINE
8
BLACK
6
CONTINUOUS
10
111.934
20
-83.1348
11
111.94
21
-83.1456
0
LINE
8
BLACK
6
CONTINUOUS
10
111.94
20
-83.1456
11
111.944
21
-83.1573
0
LINE
8
BLACK
6
CONTINUOUS
10
111.944
20
-83.1573
11
111.945
21
-83.1695
0
LINE
8
BLACK
6
CONTINUOUS
10
111.945
20
-83.1695
11
111.945
21
-83.2945
0
LINE
8
BLACK
6
CONTINUOUS
10
111.945
20
-83.2945
11
111.944
21
-83.3067
0
LINE
8
BLACK
6
CONTINUOUS
10
111.944
20
-83.3067
11
111.94
21
-83.3184
0
LINE
8
BLACK
6
CONTINUOUS
10
111.94
20
-83.3184
11
111.934
21
-83.3292
0
LINE
8
BLACK
6
CONTINUOUS
10
111.934
20
-83.3292
11
111.927
21
-83.3387
0
LINE
8
BLACK
6
CONTINUOUS
10
111.927
20
-83.3387
11
111.917
21
-83.3465
0
LINE
8
BLACK
6
CONTINUOUS
10
111.917
20
-83.3465
11
111.906
21
-83.3522
0
LINE
8
BLACK
6
CONTINUOUS
10
111.906
20
-83.3522
11
111.895
21
-83.3558
0
LINE
8
BLACK
6
CONTINUOUS
10
111.895
20
-83.3558
11
111.882
21
-83.357
0
LINE
8
BLACK
6
CONTINUOUS
10
111.882
20
-83.357
11
111.132
21
-83.357
0
LINE
8
BLACK
6
CONTINUOUS
10
111.132
20
-83.357
11
111.12
21
-83.3558
0
LINE
8
BLACK
6
CONTINUOUS
10
111.12
20
-83.3558
11
111.109
21
-83.3522
0
LINE
8
BLACK
6
CONTINUOUS
10
111.109
20
-83.3522
11
111.098
21
-83.3465
0
LINE
8
BLACK
6
CONTINUOUS
10
111.098
20
-83.3465
11
111.088
21
-83.3387
0
LINE
8
BLACK
6
CONTINUOUS
10
111.088
20
-83.3387
11
111.081
21
-83.3292
0
LINE
8
BLACK
6
CONTINUOUS
10
111.081
20
-83.3292
11
111.075
21
-83.3184
0
LINE
8
BLACK
6
CONTINUOUS
10
111.075
20
-83.3184
11
111.071
21
-83.3067
0
LINE
8
BLACK
6
CONTINUOUS
10
111.071
20
-83.3067
11
111.07
21
-83.2945
0
LINE
8
BLACK
6
CONTINUOUS
10
111.07
20
-83.2945
11
111.07
21
-83.1695
0
LINE
8
BLACK
6
CONTINUOUS
10
111.07
20
-83.1695
11
111.071
21
-83.1573
0
LINE
8
BLACK
6
CONTINUOUS
10
111.071
20
-83.1573
11
111.075
21
-83.1456
0
LINE
8
BLACK
6
CONTINUOUS
10
111.075
20
-83.1456
11
111.081
21
-83.1348
0
LINE
8
BLACK
6
CONTINUOUS
10
111.081
20
-83.1348
11
111.088
21
-83.1253
0
LINE
8
BLACK
6
CONTINUOUS
10
111.088
20
-83.1253
11
111.098
21
-83.1175
0
LINE
8
BLACK
6
CONTINUOUS
10
111.098
20
-83.1175
11
111.109
21
-83.1118
0
LINE
8
BLACK
6
CONTINUOUS
10
111.109
20
-83.1118
11
111.12
21
-83.1082
0
LINE
8
BLACK
6
CONTINUOUS
10
111.12
20
-83.1082
11
111.132
21
-83.107
0
LINE
8
BLACK
6
CONTINUOUS
10
111.132
20
-83.107
11
111.882
21
-83.107
0
LINE
8
BLACK
6
CONTINUOUS
10
111.882
20
-83.107
11
111.895
21
-83.1082
0
LINE
8
BLACK
6
CONTINUOUS
10
107.02
20
-83.1082
11
107.031
21
-83.1118
0
LINE
8
BLACK
6
CONTINUOUS
10
107.031
20
-83.1118
11
107.042
21
-83.1175
0
LINE
8
BLACK
6
CONTINUOUS
10
107.042
20
-83.1175
11
107.052
21
-83.1253
0
LINE
8
BLACK
6
CONTINUOUS
10
107.052
20
-83.1253
11
107.059
21
-83.1348
0
LINE
8
BLACK
6
CONTINUOUS
10
107.059
20
-83.1348
11
107.065
21
-83.1456
0
LINE
8
BLACK
6
CONTINUOUS
10
107.065
20
-83.1456
11
107.069
21
-83.1573
0
LINE
8
BLACK
6
CONTINUOUS
10
107.069
20
-83.1573
11
107.07
21
-83.1695
0
LINE
8
BLACK
6
CONTINUOUS
10
107.07
20
-83.1695
11
107.07
21
-83.2945
0
LINE
8
BLACK
6
CONTINUOUS
10
107.07
20
-83.2945
11
107.069
21
-83.3067
0
LINE
8
BLACK
6
CONTINUOUS
10
107.069
20
-83.3067
11
107.065
21
-83.3184
0
LINE
8
BLACK
6
CONTINUOUS
10
107.065
20
-83.3184
11
107.059
21
-83.3292
0
LINE
8
BLACK
6
CONTINUOUS
10
107.059
20
-83.3292
11
107.052
21
-83.3387
0
LINE
8
BLACK
6
CONTINUOUS
10
107.052
20
-83.3387
11
107.042
21
-83.3465
0
LINE
8
BLACK
6
CONTINUOUS
10
107.042
20
-83.3465
11
107.031
21
-83.3522
0
LINE
8
BLACK
6
CONTINUOUS
10
107.031
20
-83.3522
11
107.02
21
-83.3558
0
LINE
8
BLACK
6
CONTINUOUS
10
107.02
20
-83.3558
11
107.007
21
-83.357
0
LINE
8
BLACK
6
CONTINUOUS
10
107.007
20
-83.357
11
106.257
21
-83.357
0
LINE
8
BLACK
6
CONTINUOUS
10
106.257
20
-83.357
11
106.245
21
-83.3558
0
LINE
8
BLACK
6
CONTINUOUS
10
106.245
20
-83.3558
11
106.234
21
-83.3522
0
LINE
8
BLACK
6
CONTINUOUS
10
106.234
20
-83.3522
11
106.223
21
-83.3465
0
LINE
8
BLACK
6
CONTINUOUS
10
106.223
20
-83.3465
11
106.213
21
-83.3387
0
LINE
8
BLACK
6
CONTINUOUS
10
106.213
20
-83.3387
11
106.206
21
-83.3292
0
LINE
8
BLACK
6
CONTINUOUS
10
106.206
20
-83.3292
11
106.2
21
-83.3184
0
LINE
8
BLACK
6
CONTINUOUS
10
106.2
20
-83.3184
11
106.196
21
-83.3067
0
LINE
8
BLACK
6
CONTINUOUS
10
106.196
20
-83.3067
11
106.195
21
-83.2945
0
LINE
8
BLACK
6
CONTINUOUS
10
106.195
20
-83.2945
11
106.195
21
-83.1695
0
LINE
8
BLACK
6
CONTINUOUS
10
106.195
20
-83.1695
11
106.196
21
-83.1573
0
LINE
8
BLACK
6
CONTINUOUS
10
106.196
20
-83.1573
11
106.2
21
-83.1456
0
LINE
8
BLACK
6
CONTINUOUS
10
106.2
20
-83.1456
11
106.206
21
-83.1348
0
LINE
8
BLACK
6
CONTINUOUS
10
106.206
20
-83.1348
11
106.213
21
-83.1253
0
LINE
8
BLACK
6
CONTINUOUS
10
106.213
20
-83.1253
11
106.223
21
-83.1175
0
LINE
8
BLACK
6
CONTINUOUS
10
106.223
20
-83.1175
11
106.234
21
-83.1118
0
LINE
8
BLACK
6
CONTINUOUS
10
106.234
20
-83.1118
11
106.245
21
-83.1082
0
LINE
8
BLACK
6
CONTINUOUS
10
106.245
20
-83.1082
11
106.257
21
-83.107
0
LINE
8
BLACK
6
CONTINUOUS
10
106.257
20
-83.107
11
107.007
21
-83.107
0
LINE
8
BLACK
6
CONTINUOUS
10
107.007
20
-83.107
11
107.02
21
-83.1082
0
LINE
8
BLACK
6
CONTINUOUS
10
107.02
20
-82.6082
11
107.031
21
-82.6118
0
LINE
8
BLACK
6
CONTINUOUS
10
107.031
20
-82.6118
11
107.042
21
-82.6175
0
LINE
8
BLACK
6
CONTINUOUS
10
107.042
20
-82.6175
11
107.052
21
-82.6253
0
LINE
8
BLACK
6
CONTINUOUS
10
107.052
20
-82.6253
11
107.059
21
-82.6348
0
LINE
8
BLACK
6
CONTINUOUS
10
107.059
20
-82.6348
11
107.065
21
-82.6456
0
LINE
8
BLACK
6
CONTINUOUS
10
107.065
20
-82.6456
11
107.069
21
-82.6573
0
LINE
8
BLACK
6
CONTINUOUS
10
107.069
20
-82.6573
11
107.07
21
-82.6695
0
LINE
8
BLACK
6
CONTINUOUS
10
107.07
20
-82.6695
11
107.07
21
-82.7945
0
LINE
8
BLACK
6
CONTINUOUS
10
107.07
20
-82.7945
11
107.069
21
-82.8067
0
LINE
8
BLACK
6
CONTINUOUS
10
107.069
20
-82.8067
11
107.065
21
-82.8184
0
LINE
8
BLACK
6
CONTINUOUS
10
107.065
20
-82.8184
11
107.059
21
-82.8292
0
LINE
8
BLACK
6
CONTINUOUS
10
107.059
20
-82.8292
11
107.052
21
-82.8387
0
LINE
8
BLACK
6
CONTINUOUS
10
107.052
20
-82.8387
11
107.042
21
-82.8465
0
LINE
8
BLACK
6
CONTINUOUS
10
107.042
20
-82.8465
11
107.031
21
-82.8522
0
LINE
8
BLACK
6
CONTINUOUS
10
107.031
20
-82.8522
11
107.02
21
-82.8558
0
LINE
8
BLACK
6
CONTINUOUS
10
107.02
20
-82.8558
11
107.007
21
-82.857
0
LINE
8
BLACK
6
CONTINUOUS
10
107.007
20
-82.857
11
106.257
21
-82.857
0
LINE
8
BLACK
6
CONTINUOUS
10
106.257
20
-82.857
11
106.245
21
-82.8558
0
LINE
8
BLACK
6
CONTINUOUS
10
106.245
20
-82.8558
11
106.234
21
-82.8522
0
LINE
8
BLACK
6
CONTINUOUS
10
106.234
20
-82.8522
11
106.223
21
-82.8465
0
LINE
8
BLACK
6
CONTINUOUS
10
106.223
20
-82.8465
11
106.213
21
-82.8387
0
LINE
8
BLACK
6
CONTINUOUS
10
106.213
20
-82.8387
11
106.206
21
-82.8292
0
LINE
8
BLACK
6
CONTINUOUS
10
106.206
20
-82.8292
11
106.2
21
-82.8184
0
LINE
8
BLACK
6
CONTINUOUS
10
106.2
20
-82.8184
11
106.196
21
-82.8067
0
LINE
8
BLACK
6
CONTINUOUS
10
106.196
20
-82.8067
11
106.195
21
-82.7945
0
LINE
8
BLACK
6
CONTINUOUS
10
106.195
20
-82.7945
11
106.195
21
-82.6695
0
LINE
8
BLACK
6
CONTINUOUS
10
106.195
20
-82.6695
11
106.196
21
-82.6573
0
LINE
8
BLACK
6
CONTINUOUS
10
106.196
20
-82.6573
11
106.2
21
-82.6456
0
LINE
8
BLACK
6
CONTINUOUS
10
106.2
20
-82.6456
11
106.206
21
-82.6348
0
LINE
8
BLACK
6
CONTINUOUS
10
106.206
20
-82.6348
11
106.213
21
-82.6253
0
LINE
8
BLACK
6
CONTINUOUS
10
106.213
20
-82.6253
11
106.223
21
-82.6175
0
LINE
8
BLACK
6
CONTINUOUS
10
106.223
20
-82.6175
11
106.234
21
-82.6118
0
LINE
8
BLACK
6
CONTINUOUS
10
106.234
20
-82.6118
11
106.245
21
-82.6082
0
LINE
8
BLACK
6
CONTINUOUS
10
106.245
20
-82.6082
11
106.257
21
-82.607
0
LINE
8
BLACK
6
CONTINUOUS
10
106.257
20
-82.607
11
107.007
21
-82.607
0
LINE
8
BLACK
6
CONTINUOUS
10
107.007
20
-82.607
11
107.02
21
-82.6082
0
LINE
8
BLACK
6
CONTINUOUS
10
111.895
20
-82.6082
11
111.906
21
-82.6118
0
LINE
8
BLACK
6
CONTINUOUS
10
111.906
20
-82.6118
11
111.917
21
-82.6175
0
LINE
8
BLACK
6
CONTINUOUS
10
111.917
20
-82.6175
11
111.927
21
-82.6253
0
LINE
8
BLACK
6
CONTINUOUS
10
111.927
20
-82.6253
11
111.934
21
-82.6348
0
LINE
8
BLACK
6
CONTINUOUS
10
111.934
20
-82.6348
11
111.94
21
-82.6456
0
LINE
8
BLACK
6
CONTINUOUS
10
111.94
20
-82.6456
11
111.944
21
-82.6573
0
LINE
8
BLACK
6
CONTINUOUS
10
111.944
20
-82.6573
11
111.945
21
-82.6695
0
LINE
8
BLACK
6
CONTINUOUS
10
111.945
20
-82.6695
11
111.945
21
-82.7945
0
LINE
8
BLACK
6
CONTINUOUS
10
111.945
20
-82.7945
11
111.944
21
-82.8067
0
LINE
8
BLACK
6
CONTINUOUS
10
111.944
20
-82.8067
11
111.94
21
-82.8184
0
LINE
8
BLACK
6
CONTINUOUS
10
111.94
20
-82.8184
11
111.934
21
-82.8292
0
LINE
8
BLACK
6
CONTINUOUS
10
111.934
20
-82.8292
11
111.927
21
-82.8387
0
LINE
8
BLACK
6
CONTINUOUS
10
111.927
20
-82.8387
11
111.917
21
-82.8465
0
LINE
8
BLACK
6
CONTINUOUS
10
111.917
20
-82.8465
11
111.906
21
-82.8522
0
LINE
8
BLACK
6
CONTINUOUS
10
111.906
20
-82.8522
11
111.895
21
-82.8558
0
LINE
8
BLACK
6
CONTINUOUS
10
111.895
20
-82.8558
11
111.882
21
-82.857
0
LINE
8
BLACK
6
CONTINUOUS
10
111.882
20
-82.857
11
111.132
21
-82.857
0
LINE
8
BLACK
6
CONTINUOUS
10
111.132
20
-82.857
11
111.12
21
-82.8558
0
LINE
8
BLACK
6
CONTINUOUS
10
111.12
20
-82.8558
11
111.109
21
-82.8522
0
LINE
8
BLACK
6
CONTINUOUS
10
111.109
20
-82.8522
11
111.098
21
-82.8465
0
LINE
8
BLACK
6
CONTINUOUS
10
111.098
20
-82.8465
11
111.088
21
-82.8387
0
LINE
8
BLACK
6
CONTINUOUS
10
111.088
20
-82.8387
11
111.081
21
-82.8292
0
LINE
8
BLACK
6
CONTINUOUS
10
111.081
20
-82.8292
11
111.075
21
-82.8184
0
LINE
8
BLACK
6
CONTINUOUS
10
111.075
20
-82.8184
11
111.071
21
-82.8067
0
LINE
8
BLACK
6
CONTINUOUS
10
111.071
20
-82.8067
11
111.07
21
-82.7945
0
LINE
8
BLACK
6
CONTINUOUS
10
111.07
20
-82.7945
11
111.07
21
-82.6695
0
LINE
8
BLACK
6
CONTINUOUS
10
111.07
20
-82.6695
11
111.071
21
-82.6573
0
LINE
8
BLACK
6
CONTINUOUS
10
111.071
20
-82.6573
11
111.075
21
-82.6456
0
LINE
8
BLACK
6
CONTINUOUS
10
111.075
20
-82.6456
11
111.081
21
-82.6348
0
LINE
8
BLACK
6
CONTINUOUS
10
111.081
20
-82.6348
11
111.088
21
-82.6253
0
LINE
8
BLACK
6
CONTINUOUS
10
111.088
20
-82.6253
11
111.098
21
-82.6175
0
LINE
8
BLACK
6
CONTINUOUS
10
111.098
20
-82.6175
11
111.109
21
-82.6118
0
LINE
8
BLACK
6
CONTINUOUS
10
111.109
20
-82.6118
11
111.12
21
-82.6082
0
LINE
8
BLACK
6
CONTINUOUS
10
111.12
20
-82.6082
11
111.132
21
-82.607
0
LINE
8
BLACK
6
CONTINUOUS
10
111.132
20
-82.607
11
111.882
21
-82.607
0
LINE
8
BLACK
6
CONTINUOUS
10
111.882
20
-82.607
11
111.895
21
-82.6082
0
LINE
8
BLACK
6
CONTINUOUS
10
103.632
20
-82.796
11
103.132
21
-82.796
0
LINE
8
BLACK
6
CONTINUOUS
10
103.132
20
-82.796
11
103.132
21
-82.5975
0
LINE
8
BLACK
6
CONTINUOUS
10
103.132
20
-82.5975
11
103.102
21
-82.5975
0
LINE
8
BLACK
6
CONTINUOUS
10
103.102
20
-82.5975
11
103.044
21
-82.5859
0
LINE
8
BLACK
6
CONTINUOUS
10
103.044
20
-82.5859
11
102.989
21
-82.5632
0
LINE
8
BLACK
6
CONTINUOUS
10
102.989
20
-82.5632
11
102.94
21
-82.5302
0
LINE
8
BLACK
6
CONTINUOUS
10
102.94
20
-82.5302
11
102.898
21
-82.4882
0
LINE
8
BLACK
6
CONTINUOUS
10
102.898
20
-82.4882
11
102.865
21
-82.4388
0
LINE
8
BLACK
6
CONTINUOUS
10
102.865
20
-82.4388
11
102.842
21
-82.3839
0
LINE
8
BLACK
6
CONTINUOUS
10
102.842
20
-82.3839
11
102.831
21
-82.3257
0
LINE
8
BLACK
6
CONTINUOUS
10
102.831
20
-82.3257
11
102.831
21
-82.2663
0
LINE
8
BLACK
6
CONTINUOUS
10
102.831
20
-82.2663
11
102.842
21
-82.2081
0
LINE
8
BLACK
6
CONTINUOUS
10
102.842
20
-82.2081
11
102.865
21
-82.1532
0
LINE
8
BLACK
6
CONTINUOUS
10
102.865
20
-82.1532
11
102.898
21
-82.1038
0
LINE
8
BLACK
6
CONTINUOUS
10
102.898
20
-82.1038
11
102.94
21
-82.0618
0
LINE
8
BLACK
6
CONTINUOUS
10
102.94
20
-82.0618
11
102.989
21
-82.0288
0
LINE
8
BLACK
6
CONTINUOUS
10
102.989
20
-82.0288
11
103.044
21
-82.0061
0
LINE
8
BLACK
6
CONTINUOUS
10
103.044
20
-82.0061
11
103.102
21
-81.9945
0
LINE
8
BLACK
6
CONTINUOUS
10
103.102
20
-81.9945
11
103.132
21
-81.9945
0
LINE
8
BLACK
6
CONTINUOUS
10
103.132
20
-81.9945
11
103.132
21
-81.796
0
LINE
8
BLACK
6
CONTINUOUS
10
103.132
20
-81.796
11
103.632
21
-81.796
0
LINE
8
BLACK
6
CONTINUOUS
10
103.632
20
-81.796
11
103.632
21
-82.796
0
LINE
8
BLACK
6
CONTINUOUS
10
119.888
20
-81.9945
11
119.918
21
-81.9945
0
LINE
8
BLACK
6
CONTINUOUS
10
119.918
20
-81.9945
11
119.976
21
-82.0061
0
LINE
8
BLACK
6
CONTINUOUS
10
119.976
20
-82.0061
11
120.031
21
-82.0288
0
LINE
8
BLACK
6
CONTINUOUS
10
120.031
20
-82.0288
11
120.08
21
-82.0618
0
LINE
8
BLACK
6
CONTINUOUS
10
120.08
20
-82.0618
11
120.122
21
-82.1038
0
LINE
8
BLACK
6
CONTINUOUS
10
120.122
20
-82.1038
11
120.155
21
-82.1532
0
LINE
8
BLACK
6
CONTINUOUS
10
120.155
20
-82.1532
11
120.178
21
-82.2081
0
LINE
8
BLACK
6
CONTINUOUS
10
120.178
20
-82.2081
11
120.189
21
-82.2663
0
LINE
8
BLACK
6
CONTINUOUS
10
120.189
20
-82.2663
11
120.189
21
-82.3257
0
LINE
8
BLACK
6
CONTINUOUS
10
120.189
20
-82.3257
11
120.178
21
-82.3839
0
LINE
8
BLACK
6
CONTINUOUS
10
120.178
20
-82.3839
11
120.155
21
-82.4388
0
LINE
8
BLACK
6
CONTINUOUS
10
120.155
20
-82.4388
11
120.122
21
-82.4882
0
LINE
8
BLACK
6
CONTINUOUS
10
120.122
20
-82.4882
11
120.08
21
-82.5302
0
LINE
8
BLACK
6
CONTINUOUS
10
120.08
20
-82.5302
11
120.031
21
-82.5632
0
LINE
8
BLACK
6
CONTINUOUS
10
120.031
20
-82.5632
11
119.976
21
-82.5859
0
LINE
8
BLACK
6
CONTINUOUS
10
119.976
20
-82.5859
11
119.918
21
-82.5975
0
LINE
8
BLACK
6
CONTINUOUS
10
119.918
20
-82.5975
11
119.888
21
-82.5975
0
LINE
8
BLACK
6
CONTINUOUS
10
119.888
20
-82.5975
11
119.888
21
-82.796
0
LINE
8
BLACK
6
CONTINUOUS
10
119.888
20
-82.796
11
119.388
21
-82.796
0
LINE
8
BLACK
6
CONTINUOUS
10
119.388
20
-82.796
11
119.388
21
-81.796
0
LINE
8
BLACK
6
CONTINUOUS
10
119.388
20
-81.796
11
119.888
21
-81.796
0
LINE
8
BLACK
6
CONTINUOUS
10
119.888
20
-81.796
11
119.888
21
-81.9945
0
LINE
8
BLACK
6
CONTINUOUS
10
113.684
20
-81.5612
11
113.775
21
-81.5989
0
LINE
8
BLACK
6
CONTINUOUS
10
113.775
20
-81.5989
11
113.857
21
-81.6536
0
LINE
8
BLACK
6
CONTINUOUS
10
113.857
20
-81.6536
11
113.926
21
-81.7233
0
LINE
8
BLACK
6
CONTINUOUS
10
113.926
20
-81.7233
11
113.981
21
-81.8052
0
LINE
8
BLACK
6
CONTINUOUS
10
113.981
20
-81.8052
11
114.019
21
-81.8962
0
LINE
8
BLACK
6
CONTINUOUS
10
114.019
20
-81.8962
11
114.038
21
-81.9928
0
LINE
8
BLACK
6
CONTINUOUS
10
114.038
20
-81.9928
11
114.038
21
-82.0912
0
LINE
8
BLACK
6
CONTINUOUS
10
114.038
20
-82.0912
11
114.019
21
-82.1878
0
LINE
8
BLACK
6
CONTINUOUS
10
114.019
20
-82.1878
11
113.981
21
-82.2788
0
LINE
8
BLACK
6
CONTINUOUS
10
113.981
20
-82.2788
11
113.926
21
-82.3607
0
LINE
8
BLACK
6
CONTINUOUS
10
113.926
20
-82.3607
11
113.857
21
-82.4304
0
LINE
8
BLACK
6
CONTINUOUS
10
113.857
20
-82.4304
11
113.775
21
-82.4851
0
LINE
8
BLACK
6
CONTINUOUS
10
113.775
20
-82.4851
11
113.684
21
-82.5228
0
LINE
8
BLACK
6
CONTINUOUS
10
113.684
20
-82.5228
11
113.587
21
-82.542
0
LINE
8
BLACK
6
CONTINUOUS
10
113.587
20
-82.542
11
113.489
21
-82.542
0
LINE
8
BLACK
6
CONTINUOUS
10
113.489
20
-82.542
11
113.392
21
-82.5228
0
LINE
8
BLACK
6
CONTINUOUS
10
113.392
20
-82.5228
11
113.301
21
-82.4851
0
LINE
8
BLACK
6
CONTINUOUS
10
113.301
20
-82.4851
11
113.219
21
-82.4304
0
LINE
8
BLACK
6
CONTINUOUS
10
113.219
20
-82.4304
11
113.15
21
-82.3607
0
LINE
8
BLACK
6
CONTINUOUS
10
113.15
20
-82.3607
11
113.095
21
-82.2788
0
LINE
8
BLACK
6
CONTINUOUS
10
113.095
20
-82.2788
11
113.057
21
-82.1878
0
LINE
8
BLACK
6
CONTINUOUS
10
113.057
20
-82.1878
11
113.038
21
-82.0912
0
LINE
8
BLACK
6
CONTINUOUS
10
113.038
20
-82.0912
11
113.038
21
-81.9928
0
LINE
8
BLACK
6
CONTINUOUS
10
113.038
20
-81.9928
11
113.057
21
-81.8962
0
LINE
8
BLACK
6
CONTINUOUS
10
113.057
20
-81.8962
11
113.095
21
-81.8052
0
LINE
8
BLACK
6
CONTINUOUS
10
113.095
20
-81.8052
11
113.15
21
-81.7233
0
LINE
8
BLACK
6
CONTINUOUS
10
113.15
20
-81.7233
11
113.219
21
-81.6536
0
LINE
8
BLACK
6
CONTINUOUS
10
113.219
20
-81.6536
11
113.301
21
-81.5989
0
LINE
8
BLACK
6
CONTINUOUS
10
113.301
20
-81.5989
11
113.392
21
-81.5612
0
LINE
8
BLACK
6
CONTINUOUS
10
113.392
20
-81.5612
11
113.489
21
-81.542
0
LINE
8
BLACK
6
CONTINUOUS
10
113.489
20
-81.542
11
113.587
21
-81.542
0
LINE
8
BLACK
6
CONTINUOUS
10
113.587
20
-81.542
11
113.684
21
-81.5612
0
LINE
8
BLACK
6
CONTINUOUS
10
111.895
20
-82.1082
11
111.906
21
-82.1118
0
LINE
8
BLACK
6
CONTINUOUS
10
111.906
20
-82.1118
11
111.917
21
-82.1175
0
LINE
8
BLACK
6
CONTINUOUS
10
111.917
20
-82.1175
11
111.927
21
-82.1253
0
LINE
8
BLACK
6
CONTINUOUS
10
111.927
20
-82.1253
11
111.934
21
-82.1348
0
LINE
8
BLACK
6
CONTINUOUS
10
111.934
20
-82.1348
11
111.94
21
-82.1456
0
LINE
8
BLACK
6
CONTINUOUS
10
111.94
20
-82.1456
11
111.944
21
-82.1573
0
LINE
8
BLACK
6
CONTINUOUS
10
111.944
20
-82.1573
11
111.945
21
-82.1695
0
LINE
8
BLACK
6
CONTINUOUS
10
111.945
20
-82.1695
11
111.945
21
-82.2945
0
LINE
8
BLACK
6
CONTINUOUS
10
111.945
20
-82.2945
11
111.944
21
-82.3067
0
LINE
8
BLACK
6
CONTINUOUS
10
111.944
20
-82.3067
11
111.94
21
-82.3184
0
LINE
8
BLACK
6
CONTINUOUS
10
111.94
20
-82.3184
11
111.934
21
-82.3292
0
LINE
8
BLACK
6
CONTINUOUS
10
111.934
20
-82.3292
11
111.927
21
-82.3387
0
LINE
8
BLACK
6
CONTINUOUS
10
111.927
20
-82.3387
11
111.917
21
-82.3465
0
LINE
8
BLACK
6
CONTINUOUS
10
111.917
20
-82.3465
11
111.906
21
-82.3522
0
LINE
8
BLACK
6
CONTINUOUS
10
111.906
20
-82.3522
11
111.895
21
-82.3558
0
LINE
8
BLACK
6
CONTINUOUS
10
111.895
20
-82.3558
11
111.882
21
-82.357
0
LINE
8
BLACK
6
CONTINUOUS
10
111.882
20
-82.357
11
111.132
21
-82.357
0
LINE
8
BLACK
6
CONTINUOUS
10
111.132
20
-82.357
11
111.12
21
-82.3558
0
LINE
8
BLACK
6
CONTINUOUS
10
111.12
20
-82.3558
11
111.109
21
-82.3522
0
LINE
8
BLACK
6
CONTINUOUS
10
111.109
20
-82.3522
11
111.098
21
-82.3465
0
LINE
8
BLACK
6
CONTINUOUS
10
111.098
20
-82.3465
11
111.088
21
-82.3387
0
LINE
8
BLACK
6
CONTINUOUS
10
111.088
20
-82.3387
11
111.081
21
-82.3292
0
LINE
8
BLACK
6
CONTINUOUS
10
111.081
20
-82.3292
11
111.075
21
-82.3184
0
LINE
8
BLACK
6
CONTINUOUS
10
111.075
20
-82.3184
11
111.071
21
-82.3067
0
LINE
8
BLACK
6
CONTINUOUS
10
111.071
20
-82.3067
11
111.07
21
-82.2945
0
LINE
8
BLACK
6
CONTINUOUS
10
111.07
20
-82.2945
11
111.07
21
-82.1695
0
LINE
8
BLACK
6
CONTINUOUS
10
111.07
20
-82.1695
11
111.071
21
-82.1573
0
LINE
8
BLACK
6
CONTINUOUS
10
111.071
20
-82.1573
11
111.075
21
-82.1456
0
LINE
8
BLACK
6
CONTINUOUS
10
111.075
20
-82.1456
11
111.081
21
-82.1348
0
LINE
8
BLACK
6
CONTINUOUS
10
111.081
20
-82.1348
11
111.088
21
-82.1253
0
LINE
8
BLACK
6
CONTINUOUS
10
111.088
20
-82.1253
11
111.098
21
-82.1175
0
LINE
8
BLACK
6
CONTINUOUS
10
111.098
20
-82.1175
11
111.109
21
-82.1118
0
LINE
8
BLACK
6
CONTINUOUS
10
111.109
20
-82.1118
11
111.12
21
-82.1082
0
LINE
8
BLACK
6
CONTINUOUS
10
111.12
20
-82.1082
11
111.132
21
-82.107
0
LINE
8
BLACK
6
CONTINUOUS
10
111.132
20
-82.107
11
111.882
21
-82.107
0
LINE
8
BLACK
6
CONTINUOUS
10
111.882
20
-82.107
11
111.895
21
-82.1082
0
LINE
8
BLACK
6
CONTINUOUS
10
107.02
20
-82.1082
11
107.031
21
-82.1118
0
LINE
8
BLACK
6
CONTINUOUS
10
107.031
20
-82.1118
11
107.042
21
-82.1175
0
LINE
8
BLACK
6
CONTINUOUS
10
107.042
20
-82.1175
11
107.052
21
-82.1253
0
LINE
8
BLACK
6
CONTINUOUS
10
107.052
20
-82.1253
11
107.059
21
-82.1348
0
LINE
8
BLACK
6
CONTINUOUS
10
107.059
20
-82.1348
11
107.065
21
-82.1456
0
LINE
8
BLACK
6
CONTINUOUS
10
107.065
20
-82.1456
11
107.069
21
-82.1573
0
LINE
8
BLACK
6
CONTINUOUS
10
107.069
20
-82.1573
11
107.07
21
-82.1695
0
LINE
8
BLACK
6
CONTINUOUS
10
107.07
20
-82.1695
11
107.07
21
-82.2945
0
LINE
8
BLACK
6
CONTINUOUS
10
107.07
20
-82.2945
11
107.069
21
-82.3067
0
LINE
8
BLACK
6
CONTINUOUS
10
107.069
20
-82.3067
11
107.065
21
-82.3184
0
LINE
8
BLACK
6
CONTINUOUS
10
107.065
20
-82.3184
11
107.059
21
-82.3292
0
LINE
8
BLACK
6
CONTINUOUS
10
107.059
20
-82.3292
11
107.052
21
-82.3387
0
LINE
8
BLACK
6
CONTINUOUS
10
107.052
20
-82.3387
11
107.042
21
-82.3465
0
LINE
8
BLACK
6
CONTINUOUS
10
107.042
20
-82.3465
11
107.031
21
-82.3522
0
LINE
8
BLACK
6
CONTINUOUS
10
107.031
20
-82.3522
11
107.02
21
-82.3558
0
LINE
8
BLACK
6
CONTINUOUS
10
107.02
20
-82.3558
11
107.007
21
-82.357
0
LINE
8
BLACK
6
CONTINUOUS
10
107.007
20
-82.357
11
106.257
21
-82.357
0
LINE
8
BLACK
6
CONTINUOUS
10
106.257
20
-82.357
11
106.245
21
-82.3558
0
LINE
8
BLACK
6
CONTINUOUS
10
106.245
20
-82.3558
11
106.234
21
-82.3522
0
LINE
8
BLACK
6
CONTINUOUS
10
106.234
20
-82.3522
11
106.223
21
-82.3465
0
LINE
8
BLACK
6
CONTINUOUS
10
106.223
20
-82.3465
11
106.213
21
-82.3387
0
LINE
8
BLACK
6
CONTINUOUS
10
106.213
20
-82.3387
11
106.206
21
-82.3292
0
LINE
8
BLACK
6
CONTINUOUS
10
106.206
20
-82.3292
11
106.2
21
-82.3184
0
LINE
8
BLACK
6
CONTINUOUS
10
106.2
20
-82.3184
11
106.196
21
-82.3067
0
LINE
8
BLACK
6
CONTINUOUS
10
106.196
20
-82.3067
11
106.195
21
-82.2945
0
LINE
8
BLACK
6
CONTINUOUS
10
106.195
20
-82.2945
11
106.195
21
-82.1695
0
LINE
8
BLACK
6
CONTINUOUS
10
106.195
20
-82.1695
11
106.196
21
-82.1573
0
LINE
8
BLACK
6
CONTINUOUS
10
106.196
20
-82.1573
11
106.2
21
-82.1456
0
LINE
8
BLACK
6
CONTINUOUS
10
106.2
20
-82.1456
11
106.206
21
-82.1348
0
LINE
8
BLACK
6
CONTINUOUS
10
106.206
20
-82.1348
11
106.213
21
-82.1253
0
LINE
8
BLACK
6
CONTINUOUS
10
106.213
20
-82.1253
11
106.223
21
-82.1175
0
LINE
8
BLACK
6
CONTINUOUS
10
106.223
20
-82.1175
11
106.234
21
-82.1118
0
LINE
8
BLACK
6
CONTINUOUS
10
106.234
20
-82.1118
11
106.245
21
-82.1082
0
LINE
8
BLACK
6
CONTINUOUS
10
106.245
20
-82.1082
11
106.257
21
-82.107
0
LINE
8
BLACK
6
CONTINUOUS
10
106.257
20
-82.107
11
107.007
21
-82.107
0
LINE
8
BLACK
6
CONTINUOUS
10
107.007
20
-82.107
11
107.02
21
-82.1082
0
LINE
8
BLACK
6
CONTINUOUS
10
105.367
20
-81.7766
11
105.393
21
-81.7843
0
LINE
8
BLACK
6
CONTINUOUS
10
105.393
20
-81.7843
11
105.416
21
-81.7968
0
LINE
8
BLACK
6
CONTINUOUS
10
105.416
20
-81.7968
11
105.436
21
-81.8135
0
LINE
8
BLACK
6
CONTINUOUS
10
105.436
20
-81.8135
11
105.453
21
-81.834
0
LINE
8
BLACK
6
CONTINUOUS
10
105.453
20
-81.834
11
105.466
21
-81.8573
0
LINE
8
BLACK
6
CONTINUOUS
10
105.466
20
-81.8573
11
105.473
21
-81.8827
0
LINE
8
BLACK
6
CONTINUOUS
10
105.473
20
-81.8827
11
105.476
21
-81.909
0
LINE
8
BLACK
6
CONTINUOUS
10
105.476
20
-81.909
11
105.476
21
-82.179
0
LINE
8
BLACK
6
CONTINUOUS
10
105.476
20
-82.179
11
105.473
21
-82.2053
0
LINE
8
BLACK
6
CONTINUOUS
10
105.473
20
-82.2053
11
105.466
21
-82.2307
0
LINE
8
BLACK
6
CONTINUOUS
10
105.466
20
-82.2307
11
105.453
21
-82.254
0
LINE
8
BLACK
6
CONTINUOUS
10
105.453
20
-82.254
11
105.436
21
-82.2745
0
LINE
8
BLACK
6
CONTINUOUS
10
105.436
20
-82.2745
11
105.416
21
-82.2912
0
LINE
8
BLACK
6
CONTINUOUS
10
105.416
20
-82.2912
11
105.393
21
-82.3037
0
LINE
8
BLACK
6
CONTINUOUS
10
105.393
20
-82.3037
11
105.367
21
-82.3114
0
LINE
8
BLACK
6
CONTINUOUS
10
105.367
20
-82.3114
11
105.341
21
-82.314
0
LINE
8
BLACK
6
CONTINUOUS
10
105.341
20
-82.314
11
104.971
21
-82.314
0
LINE
8
BLACK
6
CONTINUOUS
10
104.971
20
-82.314
11
104.945
21
-82.3114
0
LINE
8
BLACK
6
CONTINUOUS
10
104.945
20
-82.3114
11
104.919
21
-82.3037
0
LINE
8
BLACK
6
CONTINUOUS
10
104.919
20
-82.3037
11
104.896
21
-82.2912
0
LINE
8
BLACK
6
CONTINUOUS
10
104.896
20
-82.2912
11
104.876
21
-82.2745
0
LINE
8
BLACK
6
CONTINUOUS
10
104.876
20
-82.2745
11
104.859
21
-82.254
0
LINE
8
BLACK
6
CONTINUOUS
10
104.859
20
-82.254
11
104.846
21
-82.2307
0
LINE
8
BLACK
6
CONTINUOUS
10
104.846
20
-82.2307
11
104.839
21
-82.2053
0
LINE
8
BLACK
6
CONTINUOUS
10
104.839
20
-82.2053
11
104.836
21
-82.179
0
LINE
8
BLACK
6
CONTINUOUS
10
104.836
20
-82.179
11
104.836
21
-81.909
0
LINE
8
BLACK
6
CONTINUOUS
10
104.836
20
-81.909
11
104.839
21
-81.8827
0
LINE
8
BLACK
6
CONTINUOUS
10
104.839
20
-81.8827
11
104.846
21
-81.8573
0
LINE
8
BLACK
6
CONTINUOUS
10
104.846
20
-81.8573
11
104.859
21
-81.834
0
LINE
8
BLACK
6
CONTINUOUS
10
104.859
20
-81.834
11
104.876
21
-81.8135
0
LINE
8
BLACK
6
CONTINUOUS
10
104.876
20
-81.8135
11
104.896
21
-81.7968
0
LINE
8
BLACK
6
CONTINUOUS
10
104.896
20
-81.7968
11
104.919
21
-81.7843
0
LINE
8
BLACK
6
CONTINUOUS
10
104.919
20
-81.7843
11
104.945
21
-81.7766
0
LINE
8
BLACK
6
CONTINUOUS
10
104.945
20
-81.7766
11
104.971
21
-81.774
0
LINE
8
BLACK
6
CONTINUOUS
10
104.971
20
-81.774
11
105.341
21
-81.774
0
LINE
8
BLACK
6
CONTINUOUS
10
105.341
20
-81.774
11
105.367
21
-81.7766
0
LINE
8
BLACK
6
CONTINUOUS
10
116.08
20
-81.3173
11
116.122
21
-81.3301
0
LINE
8
BLACK
6
CONTINUOUS
10
116.122
20
-81.3301
11
116.161
21
-81.3509
0
LINE
8
BLACK
6
CONTINUOUS
10
116.161
20
-81.3509
11
116.195
21
-81.3789
0
LINE
8
BLACK
6
CONTINUOUS
10
116.195
20
-81.3789
11
116.223
21
-81.413
0
LINE
8
BLACK
6
CONTINUOUS
10
116.223
20
-81.413
11
116.244
21
-81.4519
0
LINE
8
BLACK
6
CONTINUOUS
10
116.244
20
-81.4519
11
116.257
21
-81.4941
0
LINE
8
BLACK
6
CONTINUOUS
10
116.257
20
-81.4941
11
116.261
21
-81.538
0
LINE
8
BLACK
6
CONTINUOUS
10
116.261
20
-81.538
11
116.261
21
-82.038
0
LINE
8
BLACK
6
CONTINUOUS
10
116.261
20
-82.038
11
116.257
21
-82.0819
0
LINE
8
BLACK
6
CONTINUOUS
10
116.257
20
-82.0819
11
116.244
21
-82.1241
0
LINE
8
BLACK
6
CONTINUOUS
10
116.244
20
-82.1241
11
116.223
21
-82.163
0
LINE
8
BLACK
6
CONTINUOUS
10
116.223
20
-82.163
11
116.195
21
-82.1971
0
LINE
8
BLACK
6
CONTINUOUS
10
116.195
20
-82.1971
11
116.161
21
-82.2251
0
LINE
8
BLACK
6
CONTINUOUS
10
116.161
20
-82.2251
11
116.122
21
-82.2459
0
LINE
8
BLACK
6
CONTINUOUS
10
116.122
20
-82.2459
11
116.08
21
-82.2587
0
LINE
8
BLACK
6
CONTINUOUS
10
116.08
20
-82.2587
11
116.036
21
-82.263
0
LINE
8
BLACK
6
CONTINUOUS
10
116.036
20
-82.263
11
115.586
21
-82.263
0
LINE
8
BLACK
6
CONTINUOUS
10
115.586
20
-82.263
11
115.542
21
-82.2587
0
LINE
8
BLACK
6
CONTINUOUS
10
115.542
20
-82.2587
11
115.5
21
-82.2459
0
LINE
8
BLACK
6
CONTINUOUS
10
115.5
20
-82.2459
11
115.461
21
-82.2251
0
LINE
8
BLACK
6
CONTINUOUS
10
115.461
20
-82.2251
11
115.427
21
-82.1971
0
LINE
8
BLACK
6
CONTINUOUS
10
115.427
20
-82.1971
11
115.399
21
-82.163
0
LINE
8
BLACK
6
CONTINUOUS
10
115.399
20
-82.163
11
115.378
21
-82.1241
0
LINE
8
BLACK
6
CONTINUOUS
10
115.378
20
-82.1241
11
115.365
21
-82.0819
0
LINE
8
BLACK
6
CONTINUOUS
10
115.365
20
-82.0819
11
115.361
21
-82.038
0
LINE
8
BLACK
6
CONTINUOUS
10
115.361
20
-82.038
11
115.361
21
-81.538
0
LINE
8
BLACK
6
CONTINUOUS
10
115.361
20
-81.538
11
115.365
21
-81.4941
0
LINE
8
BLACK
6
CONTINUOUS
10
115.365
20
-81.4941
11
115.378
21
-81.4519
0
LINE
8
BLACK
6
CONTINUOUS
10
115.378
20
-81.4519
11
115.399
21
-81.413
0
LINE
8
BLACK
6
CONTINUOUS
10
115.399
20
-81.413
11
115.427
21
-81.3789
0
LINE
8
BLACK
6
CONTINUOUS
10
115.427
20
-81.3789
11
115.461
21
-81.3509
0
LINE
8
BLACK
6
CONTINUOUS
10
115.461
20
-81.3509
11
115.5
21
-81.3301
0
LINE
8
BLACK
6
CONTINUOUS
10
115.5
20
-81.3301
11
115.542
21
-81.3173
0
LINE
8
BLACK
6
CONTINUOUS
10
115.542
20
-81.3173
11
115.586
21
-81.313
0
LINE
8
BLACK
6
CONTINUOUS
10
115.586
20
-81.313
11
116.036
21
-81.313
0
LINE
8
BLACK
6
CONTINUOUS
10
116.036
20
-81.313
11
116.08
21
-81.3173
0
LINE
8
BLACK
6
CONTINUOUS
10
117.63
20
-81.3173
11
117.672
21
-81.3301
0
LINE
8
BLACK
6
CONTINUOUS
10
117.672
20
-81.3301
11
117.711
21
-81.3509
0
LINE
8
BLACK
6
CONTINUOUS
10
117.711
20
-81.3509
11
117.745
21
-81.3789
0
LINE
8
BLACK
6
CONTINUOUS
10
117.745
20
-81.3789
11
117.773
21
-81.413
0
LINE
8
BLACK
6
CONTINUOUS
10
117.773
20
-81.413
11
117.794
21
-81.4519
0
LINE
8
BLACK
6
CONTINUOUS
10
117.794
20
-81.4519
11
117.807
21
-81.4941
0
LINE
8
BLACK
6
CONTINUOUS
10
117.807
20
-81.4941
11
117.811
21
-81.538
0
LINE
8
BLACK
6
CONTINUOUS
10
117.811
20
-81.538
11
117.811
21
-82.038
0
LINE
8
BLACK
6
CONTINUOUS
10
117.811
20
-82.038
11
117.807
21
-82.0819
0
LINE
8
BLACK
6
CONTINUOUS
10
117.807
20
-82.0819
11
117.794
21
-82.1241
0
LINE
8
BLACK
6
CONTINUOUS
10
117.794
20
-82.1241
11
117.773
21
-82.163
0
LINE
8
BLACK
6
CONTINUOUS
10
117.773
20
-82.163
11
117.745
21
-82.1971
0
LINE
8
BLACK
6
CONTINUOUS
10
117.745
20
-82.1971
11
117.711
21
-82.2251
0
LINE
8
BLACK
6
CONTINUOUS
10
117.711
20
-82.2251
11
117.672
21
-82.2459
0
LINE
8
BLACK
6
CONTINUOUS
10
117.672
20
-82.2459
11
117.63
21
-82.2587
0
LINE
8
BLACK
6
CONTINUOUS
10
117.63
20
-82.2587
11
117.586
21
-82.263
0
LINE
8
BLACK
6
CONTINUOUS
10
117.586
20
-82.263
11
117.136
21
-82.263
0
LINE
8
BLACK
6
CONTINUOUS
10
117.136
20
-82.263
11
117.092
21
-82.2587
0
LINE
8
BLACK
6
CONTINUOUS
10
117.092
20
-82.2587
11
117.05
21
-82.2459
0
LINE
8
BLACK
6
CONTINUOUS
10
117.05
20
-82.2459
11
117.011
21
-82.2251
0
LINE
8
BLACK
6
CONTINUOUS
10
117.011
20
-82.2251
11
116.977
21
-82.1971
0
LINE
8
BLACK
6
CONTINUOUS
10
116.977
20
-82.1971
11
116.949
21
-82.163
0
LINE
8
BLACK
6
CONTINUOUS
10
116.949
20
-82.163
11
116.928
21
-82.1241
0
LINE
8
BLACK
6
CONTINUOUS
10
116.928
20
-82.1241
11
116.915
21
-82.0819
0
LINE
8
BLACK
6
CONTINUOUS
10
116.915
20
-82.0819
11
116.911
21
-82.038
0
LINE
8
BLACK
6
CONTINUOUS
10
116.911
20
-82.038
11
116.911
21
-81.538
0
LINE
8
BLACK
6
CONTINUOUS
10
116.911
20
-81.538
11
116.915
21
-81.4941
0
LINE
8
BLACK
6
CONTINUOUS
10
116.915
20
-81.4941
11
116.928
21
-81.4519
0
LINE
8
BLACK
6
CONTINUOUS
10
116.928
20
-81.4519
11
116.949
21
-81.413
0
LINE
8
BLACK
6
CONTINUOUS
10
116.949
20
-81.413
11
116.977
21
-81.3789
0
LINE
8
BLACK
6
CONTINUOUS
10
116.977
20
-81.3789
11
117.011
21
-81.3509
0
LINE
8
BLACK
6
CONTINUOUS
10
117.011
20
-81.3509
11
117.05
21
-81.3301
0
LINE
8
BLACK
6
CONTINUOUS
10
117.05
20
-81.3301
11
117.092
21
-81.3173
0
LINE
8
BLACK
6
CONTINUOUS
10
117.092
20
-81.3173
11
117.136
21
-81.313
0
LINE
8
BLACK
6
CONTINUOUS
10
117.136
20
-81.313
11
117.586
21
-81.313
0
LINE
8
BLACK
6
CONTINUOUS
10
117.586
20
-81.313
11
117.63
21
-81.3173
0
LINE
8
BLACK
6
CONTINUOUS
10
111.895
20
-81.6082
11
111.906
21
-81.6118
0
LINE
8
BLACK
6
CONTINUOUS
10
111.906
20
-81.6118
11
111.917
21
-81.6175
0
LINE
8
BLACK
6
CONTINUOUS
10
111.917
20
-81.6175
11
111.927
21
-81.6253
0
LINE
8
BLACK
6
CONTINUOUS
10
111.927
20
-81.6253
11
111.934
21
-81.6348
0
LINE
8
BLACK
6
CONTINUOUS
10
111.934
20
-81.6348
11
111.94
21
-81.6456
0
LINE
8
BLACK
6
CONTINUOUS
10
111.94
20
-81.6456
11
111.944
21
-81.6573
0
LINE
8
BLACK
6
CONTINUOUS
10
111.944
20
-81.6573
11
111.945
21
-81.6695
0
LINE
8
BLACK
6
CONTINUOUS
10
111.945
20
-81.6695
11
111.945
21
-81.7945
0
LINE
8
BLACK
6
CONTINUOUS
10
111.945
20
-81.7945
11
111.944
21
-81.8067
0
LINE
8
BLACK
6
CONTINUOUS
10
111.944
20
-81.8067
11
111.94
21
-81.8184
0
LINE
8
BLACK
6
CONTINUOUS
10
111.94
20
-81.8184
11
111.934
21
-81.8292
0
LINE
8
BLACK
6
CONTINUOUS
10
111.934
20
-81.8292
11
111.927
21
-81.8387
0
LINE
8
BLACK
6
CONTINUOUS
10
111.927
20
-81.8387
11
111.917
21
-81.8465
0
LINE
8
BLACK
6
CONTINUOUS
10
111.917
20
-81.8465
11
111.906
21
-81.8522
0
LINE
8
BLACK
6
CONTINUOUS
10
111.906
20
-81.8522
11
111.895
21
-81.8558
0
LINE
8
BLACK
6
CONTINUOUS
10
111.895
20
-81.8558
11
111.882
21
-81.857
0
LINE
8
BLACK
6
CONTINUOUS
10
111.882
20
-81.857
11
111.132
21
-81.857
0
LINE
8
BLACK
6
CONTINUOUS
10
111.132
20
-81.857
11
111.12
21
-81.8558
0
LINE
8
BLACK
6
CONTINUOUS
10
111.12
20
-81.8558
11
111.109
21
-81.8522
0
LINE
8
BLACK
6
CONTINUOUS
10
111.109
20
-81.8522
11
111.098
21
-81.8465
0
LINE
8
BLACK
6
CONTINUOUS
10
111.098
20
-81.8465
11
111.088
21
-81.8387
0
LINE
8
BLACK
6
CONTINUOUS
10
111.088
20
-81.8387
11
111.081
21
-81.8292
0
LINE
8
BLACK
6
CONTINUOUS
10
111.081
20
-81.8292
11
111.075
21
-81.8184
0
LINE
8
BLACK
6
CONTINUOUS
10
111.075
20
-81.8184
11
111.071
21
-81.8067
0
LINE
8
BLACK
6
CONTINUOUS
10
111.071
20
-81.8067
11
111.07
21
-81.7945
0
LINE
8
BLACK
6
CONTINUOUS
10
111.07
20
-81.7945
11
111.07
21
-81.6695
0
LINE
8
BLACK
6
CONTINUOUS
10
111.07
20
-81.6695
11
111.071
21
-81.6573
0
LINE
8
BLACK
6
CONTINUOUS
10
111.071
20
-81.6573
11
111.075
21
-81.6456
0
LINE
8
BLACK
6
CONTINUOUS
10
111.075
20
-81.6456
11
111.081
21
-81.6348
0
LINE
8
BLACK
6
CONTINUOUS
10
111.081
20
-81.6348
11
111.088
21
-81.6253
0
LINE
8
BLACK
6
CONTINUOUS
10
111.088
20
-81.6253
11
111.098
21
-81.6175
0
LINE
8
BLACK
6
CONTINUOUS
10
111.098
20
-81.6175
11
111.109
21
-81.6118
0
LINE
8
BLACK
6
CONTINUOUS
10
111.109
20
-81.6118
11
111.12
21
-81.6082
0
LINE
8
BLACK
6
CONTINUOUS
10
111.12
20
-81.6082
11
111.132
21
-81.607
0
LINE
8
BLACK
6
CONTINUOUS
10
111.132
20
-81.607
11
111.882
21
-81.607
0
LINE
8
BLACK
6
CONTINUOUS
10
111.882
20
-81.607
11
111.895
21
-81.6082
0
LINE
8
BLACK
6
CONTINUOUS
10
107.02
20
-81.6082
11
107.031
21
-81.6118
0
LINE
8
BLACK
6
CONTINUOUS
10
107.031
20
-81.6118
11
107.042
21
-81.6175
0
LINE
8
BLACK
6
CONTINUOUS
10
107.042
20
-81.6175
11
107.052
21
-81.6253
0
LINE
8
BLACK
6
CONTINUOUS
10
107.052
20
-81.6253
11
107.059
21
-81.6348
0
LINE
8
BLACK
6
CONTINUOUS
10
107.059
20
-81.6348
11
107.065
21
-81.6456
0
LINE
8
BLACK
6
CONTINUOUS
10
107.065
20
-81.6456
11
107.069
21
-81.6573
0
LINE
8
BLACK
6
CONTINUOUS
10
107.069
20
-81.6573
11
107.07
21
-81.6695
0
LINE
8
BLACK
6
CONTINUOUS
10
107.07
20
-81.6695
11
107.07
21
-81.7945
0
LINE
8
BLACK
6
CONTINUOUS
10
107.07
20
-81.7945
11
107.069
21
-81.8067
0
LINE
8
BLACK
6
CONTINUOUS
10
107.069
20
-81.8067
11
107.065
21
-81.8184
0
LINE
8
BLACK
6
CONTINUOUS
10
107.065
20
-81.8184
11
107.059
21
-81.8292
0
LINE
8
BLACK
6
CONTINUOUS
10
107.059
20
-81.8292
11
107.052
21
-81.8387
0
LINE
8
BLACK
6
CONTINUOUS
10
107.052
20
-81.8387
11
107.042
21
-81.8465
0
LINE
8
BLACK
6
CONTINUOUS
10
107.042
20
-81.8465
11
107.031
21
-81.8522
0
LINE
8
BLACK
6
CONTINUOUS
10
107.031
20
-81.8522
11
107.02
21
-81.8558
0
LINE
8
BLACK
6
CONTINUOUS
10
107.02
20
-81.8558
11
107.007
21
-81.857
0
LINE
8
BLACK
6
CONTINUOUS
10
107.007
20
-81.857
11
106.257
21
-81.857
0
LINE
8
BLACK
6
CONTINUOUS
10
106.257
20
-81.857
11
106.245
21
-81.8558
0
LINE
8
BLACK
6
CONTINUOUS
10
106.245
20
-81.8558
11
106.234
21
-81.8522
0
LINE
8
BLACK
6
CONTINUOUS
10
106.234
20
-81.8522
11
106.223
21
-81.8465
0
LINE
8
BLACK
6
CONTINUOUS
10
106.223
20
-81.8465
11
106.213
21
-81.8387
0
LINE
8
BLACK
6
CONTINUOUS
10
106.213
20
-81.8387
11
106.206
21
-81.8292
0
LINE
8
BLACK
6
CONTINUOUS
10
106.206
20
-81.8292
11
106.2
21
-81.8184
0
LINE
8
BLACK
6
CONTINUOUS
10
106.2
20
-81.8184
11
106.196
21
-81.8067
0
LINE
8
BLACK
6
CONTINUOUS
10
106.196
20
-81.8067
11
106.195
21
-81.7945
0
LINE
8
BLACK
6
CONTINUOUS
10
106.195
20
-81.7945
11
106.195
21
-81.6695
0
LINE
8
BLACK
6
CONTINUOUS
10
106.195
20
-81.6695
11
106.196
21
-81.6573
0
LINE
8
BLACK
6
CONTINUOUS
10
106.196
20
-81.6573
11
106.2
21
-81.6456
0
LINE
8
BLACK
6
CONTINUOUS
10
106.2
20
-81.6456
11
106.206
21
-81.6348
0
LINE
8
BLACK
6
CONTINUOUS
10
106.206
20
-81.6348
11
106.213
21
-81.6253
0
LINE
8
BLACK
6
CONTINUOUS
10
106.213
20
-81.6253
11
106.223
21
-81.6175
0
LINE
8
BLACK
6
CONTINUOUS
10
106.223
20
-81.6175
11
106.234
21
-81.6118
0
LINE
8
BLACK
6
CONTINUOUS
10
106.234
20
-81.6118
11
106.245
21
-81.6082
0
LINE
8
BLACK
6
CONTINUOUS
10
106.245
20
-81.6082
11
106.257
21
-81.607
0
LINE
8
BLACK
6
CONTINUOUS
10
106.257
20
-81.607
11
107.007
21
-81.607
0
LINE
8
BLACK
6
CONTINUOUS
10
107.007
20
-81.607
11
107.02
21
-81.6082
0
LINE
8
BLACK
6
CONTINUOUS
10
111.895
20
-81.1082
11
111.906
21
-81.1118
0
LINE
8
BLACK
6
CONTINUOUS
10
111.906
20
-81.1118
11
111.917
21
-81.1175
0
LINE
8
BLACK
6
CONTINUOUS
10
111.917
20
-81.1175
11
111.927
21
-81.1253
0
LINE
8
BLACK
6
CONTINUOUS
10
111.927
20
-81.1253
11
111.934
21
-81.1348
0
LINE
8
BLACK
6
CONTINUOUS
10
111.934
20
-81.1348
11
111.94
21
-81.1456
0
LINE
8
BLACK
6
CONTINUOUS
10
111.94
20
-81.1456
11
111.944
21
-81.1573
0
LINE
8
BLACK
6
CONTINUOUS
10
111.944
20
-81.1573
11
111.945
21
-81.1695
0
LINE
8
BLACK
6
CONTINUOUS
10
111.945
20
-81.1695
11
111.945
21
-81.2945
0
LINE
8
BLACK
6
CONTINUOUS
10
111.945
20
-81.2945
11
111.944
21
-81.3067
0
LINE
8
BLACK
6
CONTINUOUS
10
111.944
20
-81.3067
11
111.94
21
-81.3184
0
LINE
8
BLACK
6
CONTINUOUS
10
111.94
20
-81.3184
11
111.934
21
-81.3292
0
LINE
8
BLACK
6
CONTINUOUS
10
111.934
20
-81.3292
11
111.927
21
-81.3387
0
LINE
8
BLACK
6
CONTINUOUS
10
111.927
20
-81.3387
11
111.917
21
-81.3465
0
LINE
8
BLACK
6
CONTINUOUS
10
111.917
20
-81.3465
11
111.906
21
-81.3522
0
LINE
8
BLACK
6
CONTINUOUS
10
111.906
20
-81.3522
11
111.895
21
-81.3558
0
LINE
8
BLACK
6
CONTINUOUS
10
111.895
20
-81.3558
11
111.882
21
-81.357
0
LINE
8
BLACK
6
CONTINUOUS
10
111.882
20
-81.357
11
111.132
21
-81.357
0
LINE
8
BLACK
6
CONTINUOUS
10
111.132
20
-81.357
11
111.12
21
-81.3558
0
LINE
8
BLACK
6
CONTINUOUS
10
111.12
20
-81.3558
11
111.109
21
-81.3522
0
LINE
8
BLACK
6
CONTINUOUS
10
111.109
20
-81.3522
11
111.098
21
-81.3465
0
LINE
8
BLACK
6
CONTINUOUS
10
111.098
20
-81.3465
11
111.088
21
-81.3387
0
LINE
8
BLACK
6
CONTINUOUS
10
111.088
20
-81.3387
11
111.081
21
-81.3292
0
LINE
8
BLACK
6
CONTINUOUS
10
111.081
20
-81.3292
11
111.075
21
-81.3184
0
LINE
8
BLACK
6
CONTINUOUS
10
111.075
20
-81.3184
11
111.071
21
-81.3067
0
LINE
8
BLACK
6
CONTINUOUS
10
111.071
20
-81.3067
11
111.07
21
-81.2945
0
LINE
8
BLACK
6
CONTINUOUS
10
111.07
20
-81.2945
11
111.07
21
-81.1695
0
LINE
8
BLACK
6
CONTINUOUS
10
111.07
20
-81.1695
11
111.071
21
-81.1573
0
LINE
8
BLACK
6
CONTINUOUS
10
111.071
20
-81.1573
11
111.075
21
-81.1456
0
LINE
8
BLACK
6
CONTINUOUS
10
111.075
20
-81.1456
11
111.081
21
-81.1348
0
LINE
8
BLACK
6
CONTINUOUS
10
111.081
20
-81.1348
11
111.088
21
-81.1253
0
LINE
8
BLACK
6
CONTINUOUS
10
111.088
20
-81.1253
11
111.098
21
-81.1175
0
LINE
8
BLACK
6
CONTINUOUS
10
111.098
20
-81.1175
11
111.109
21
-81.1118
0
LINE
8
BLACK
6
CONTINUOUS
10
111.109
20
-81.1118
11
111.12
21
-81.1082
0
LINE
8
BLACK
6
CONTINUOUS
10
111.12
20
-81.1082
11
111.132
21
-81.107
0
LINE
8
BLACK
6
CONTINUOUS
10
111.132
20
-81.107
11
111.882
21
-81.107
0
LINE
8
BLACK
6
CONTINUOUS
10
111.882
20
-81.107
11
111.895
21
-81.1082
0
LINE
8
BLACK
6
CONTINUOUS
10
107.02
20
-81.1082
11
107.031
21
-81.1118
0
LINE
8
BLACK
6
CONTINUOUS
10
107.031
20
-81.1118
11
107.042
21
-81.1175
0
LINE
8
BLACK
6
CONTINUOUS
10
107.042
20
-81.1175
11
107.052
21
-81.1253
0
LINE
8
BLACK
6
CONTINUOUS
10
107.052
20
-81.1253
11
107.059
21
-81.1348
0
LINE
8
BLACK
6
CONTINUOUS
10
107.059
20
-81.1348
11
107.065
21
-81.1456
0
LINE
8
BLACK
6
CONTINUOUS
10
107.065
20
-81.1456
11
107.069
21
-81.1573
0
LINE
8
BLACK
6
CONTINUOUS
10
107.069
20
-81.1573
11
107.07
21
-81.1695
0
LINE
8
BLACK
6
CONTINUOUS
10
107.07
20
-81.1695
11
107.07
21
-81.2945
0
LINE
8
BLACK
6
CONTINUOUS
10
107.07
20
-81.2945
11
107.069
21
-81.3067
0
LINE
8
BLACK
6
CONTINUOUS
10
107.069
20
-81.3067
11
107.065
21
-81.3184
0
LINE
8
BLACK
6
CONTINUOUS
10
107.065
20
-81.3184
11
107.059
21
-81.3292
0
LINE
8
BLACK
6
CONTINUOUS
10
107.059
20
-81.3292
11
107.052
21
-81.3387
0
LINE
8
BLACK
6
CONTINUOUS
10
107.052
20
-81.3387
11
107.042
21
-81.3465
0
LINE
8
BLACK
6
CONTINUOUS
10
107.042
20
-81.3465
11
107.031
21
-81.3522
0
LINE
8
BLACK
6
CONTINUOUS
10
107.031
20
-81.3522
11
107.02
21
-81.3558
0
LINE
8
BLACK
6
CONTINUOUS
10
107.02
20
-81.3558
11
107.007
21
-81.357
0
LINE
8
BLACK
6
CONTINUOUS
10
107.007
20
-81.357
11
106.257
21
-81.357
0
LINE
8
BLACK
6
CONTINUOUS
10
106.257
20
-81.357
11
106.245
21
-81.3558
0
LINE
8
BLACK
6
CONTINUOUS
10
106.245
20
-81.3558
11
106.234
21
-81.3522
0
LINE
8
BLACK
6
CONTINUOUS
10
106.234
20
-81.3522
11
106.223
21
-81.3465
0
LINE
8
BLACK
6
CONTINUOUS
10
106.223
20
-81.3465
11
106.213
21
-81.3387
0
LINE
8
BLACK
6
CONTINUOUS
10
106.213
20
-81.3387
11
106.206
21
-81.3292
0
LINE
8
BLACK
6
CONTINUOUS
10
106.206
20
-81.3292
11
106.2
21
-81.3184
0
LINE
8
BLACK
6
CONTINUOUS
10
106.2
20
-81.3184
11
106.196
21
-81.3067
0
LINE
8
BLACK
6
CONTINUOUS
10
106.196
20
-81.3067
11
106.195
21
-81.2945
0
LINE
8
BLACK
6
CONTINUOUS
10
106.195
20
-81.2945
11
106.195
21
-81.1695
0
LINE
8
BLACK
6
CONTINUOUS
10
106.195
20
-81.1695
11
106.196
21
-81.1573
0
LINE
8
BLACK
6
CONTINUOUS
10
106.196
20
-81.1573
11
106.2
21
-81.1456
0
LINE
8
BLACK
6
CONTINUOUS
10
106.2
20
-81.1456
11
106.206
21
-81.1348
0
LINE
8
BLACK
6
CONTINUOUS
10
106.206
20
-81.1348
11
106.213
21
-81.1253
0
LINE
8
BLACK
6
CONTINUOUS
10
106.213
20
-81.1253
11
106.223
21
-81.1175
0
LINE
8
BLACK
6
CONTINUOUS
10
106.223
20
-81.1175
11
106.234
21
-81.1118
0
LINE
8
BLACK
6
CONTINUOUS
10
106.234
20
-81.1118
11
106.245
21
-81.1082
0
LINE
8
BLACK
6
CONTINUOUS
10
106.245
20
-81.1082
11
106.257
21
-81.107
0
LINE
8
BLACK
6
CONTINUOUS
10
106.257
20
-81.107
11
107.007
21
-81.107
0
LINE
8
BLACK
6
CONTINUOUS
10
107.007
20
-81.107
11
107.02
21
-81.1082
0
LINE
8
BLACK
6
CONTINUOUS
10
105.367
20
-80.7566
11
105.393
21
-80.7643
0
LINE
8
BLACK
6
CONTINUOUS
10
105.393
20
-80.7643
11
105.416
21
-80.7768
0
LINE
8
BLACK
6
CONTINUOUS
10
105.416
20
-80.7768
11
105.436
21
-80.7935
0
LINE
8
BLACK
6
CONTINUOUS
10
105.436
20
-80.7935
11
105.453
21
-80.814
0
LINE
8
BLACK
6
CONTINUOUS
10
105.453
20
-80.814
11
105.466
21
-80.8373
0
LINE
8
BLACK
6
CONTINUOUS
10
105.466
20
-80.8373
11
105.473
21
-80.8627
0
LINE
8
BLACK
6
CONTINUOUS
10
105.473
20
-80.8627
11
105.476
21
-80.889
0
LINE
8
BLACK
6
CONTINUOUS
10
105.476
20
-80.889
11
105.476
21
-81.159
0
LINE
8
BLACK
6
CONTINUOUS
10
105.476
20
-81.159
11
105.473
21
-81.1853
0
LINE
8
BLACK
6
CONTINUOUS
10
105.473
20
-81.1853
11
105.466
21
-81.2107
0
LINE
8
BLACK
6
CONTINUOUS
10
105.466
20
-81.2107
11
105.453
21
-81.234
0
LINE
8
BLACK
6
CONTINUOUS
10
105.453
20
-81.234
11
105.436
21
-81.2545
0
LINE
8
BLACK
6
CONTINUOUS
10
105.436
20
-81.2545
11
105.416
21
-81.2712
0
LINE
8
BLACK
6
CONTINUOUS
10
105.416
20
-81.2712
11
105.393
21
-81.2837
0
LINE
8
BLACK
6
CONTINUOUS
10
105.393
20
-81.2837
11
105.367
21
-81.2914
0
LINE
8
BLACK
6
CONTINUOUS
10
105.367
20
-81.2914
11
105.341
21
-81.294
0
LINE
8
BLACK
6
CONTINUOUS
10
105.341
20
-81.294
11
104.971
21
-81.294
0
LINE
8
BLACK
6
CONTINUOUS
10
104.971
20
-81.294
11
104.945
21
-81.2914
0
LINE
8
BLACK
6
CONTINUOUS
10
104.945
20
-81.2914
11
104.919
21
-81.2837
0
LINE
8
BLACK
6
CONTINUOUS
10
104.919
20
-81.2837
11
104.896
21
-81.2712
0
LINE
8
BLACK
6
CONTINUOUS
10
104.896
20
-81.2712
11
104.876
21
-81.2545
0
LINE
8
BLACK
6
CONTINUOUS
10
104.876
20
-81.2545
11
104.859
21
-81.234
0
LINE
8
BLACK
6
CONTINUOUS
10
104.859
20
-81.234
11
104.846
21
-81.2107
0
LINE
8
BLACK
6
CONTINUOUS
10
104.846
20
-81.2107
11
104.839
21
-81.1853
0
LINE
8
BLACK
6
CONTINUOUS
10
104.839
20
-81.1853
11
104.836
21
-81.159
0
LINE
8
BLACK
6
CONTINUOUS
10
104.836
20
-81.159
11
104.836
21
-80.889
0
LINE
8
BLACK
6
CONTINUOUS
10
104.836
20
-80.889
11
104.839
21
-80.8627
0
LINE
8
BLACK
6
CONTINUOUS
10
104.839
20
-80.8627
11
104.846
21
-80.8373
0
LINE
8
BLACK
6
CONTINUOUS
10
104.846
20
-80.8373
11
104.859
21
-80.814
0
LINE
8
BLACK
6
CONTINUOUS
10
104.859
20
-80.814
11
104.876
21
-80.7935
0
LINE
8
BLACK
6
CONTINUOUS
10
104.876
20
-80.7935
11
104.896
21
-80.7768
0
LINE
8
BLACK
6
CONTINUOUS
10
104.896
20
-80.7768
11
104.919
21
-80.7643
0
LINE
8
BLACK
6
CONTINUOUS
10
104.919
20
-80.7643
11
104.945
21
-80.7566
0
LINE
8
BLACK
6
CONTINUOUS
10
104.945
20
-80.7566
11
104.971
21
-80.754
0
LINE
8
BLACK
6
CONTINUOUS
10
104.971
20
-80.754
11
105.341
21
-80.754
0
LINE
8
BLACK
6
CONTINUOUS
10
105.341
20
-80.754
11
105.367
21
-80.7566
0
LINE
8
BLACK
6
CONTINUOUS
10
111.895
20
-80.6082
11
111.906
21
-80.6118
0
LINE
8
BLACK
6
CONTINUOUS
10
111.906
20
-80.6118
11
111.917
21
-80.6175
0
LINE
8
BLACK
6
CONTINUOUS
10
111.917
20
-80.6175
11
111.927
21
-80.6253
0
LINE
8
BLACK
6
CONTINUOUS
10
111.927
20
-80.6253
11
111.934
21
-80.6348
0
LINE
8
BLACK
6
CONTINUOUS
10
111.934
20
-80.6348
11
111.94
21
-80.6456
0
LINE
8
BLACK
6
CONTINUOUS
10
111.94
20
-80.6456
11
111.944
21
-80.6573
0
LINE
8
BLACK
6
CONTINUOUS
10
111.944
20
-80.6573
11
111.945
21
-80.6695
0
LINE
8
BLACK
6
CONTINUOUS
10
111.945
20
-80.6695
11
111.945
21
-80.7945
0
LINE
8
BLACK
6
CONTINUOUS
10
111.945
20
-80.7945
11
111.944
21
-80.8067
0
LINE
8
BLACK
6
CONTINUOUS
10
111.944
20
-80.8067
11
111.94
21
-80.8184
0
LINE
8
BLACK
6
CONTINUOUS
10
111.94
20
-80.8184
11
111.934
21
-80.8292
0
LINE
8
BLACK
6
CONTINUOUS
10
111.934
20
-80.8292
11
111.927
21
-80.8387
0
LINE
8
BLACK
6
CONTINUOUS
10
111.927
20
-80.8387
11
111.917
21
-80.8465
0
LINE
8
BLACK
6
CONTINUOUS
10
111.917
20
-80.8465
11
111.906
21
-80.8522
0
LINE
8
BLACK
6
CONTINUOUS
10
111.906
20
-80.8522
11
111.895
21
-80.8558
0
LINE
8
BLACK
6
CONTINUOUS
10
111.895
20
-80.8558
11
111.882
21
-80.857
0
LINE
8
BLACK
6
CONTINUOUS
10
111.882
20
-80.857
11
111.132
21
-80.857
0
LINE
8
BLACK
6
CONTINUOUS
10
111.132
20
-80.857
11
111.12
21
-80.8558
0
LINE
8
BLACK
6
CONTINUOUS
10
111.12
20
-80.8558
11
111.109
21
-80.8522
0
LINE
8
BLACK
6
CONTINUOUS
10
111.109
20
-80.8522
11
111.098
21
-80.8465
0
LINE
8
BLACK
6
CONTINUOUS
10
111.098
20
-80.8465
11
111.088
21
-80.8387
0
LINE
8
BLACK
6
CONTINUOUS
10
111.088
20
-80.8387
11
111.081
21
-80.8292
0
LINE
8
BLACK
6
CONTINUOUS
10
111.081
20
-80.8292
11
111.075
21
-80.8184
0
LINE
8
BLACK
6
CONTINUOUS
10
111.075
20
-80.8184
11
111.071
21
-80.8067
0
LINE
8
BLACK
6
CONTINUOUS
10
111.071
20
-80.8067
11
111.07
21
-80.7945
0
LINE
8
BLACK
6
CONTINUOUS
10
111.07
20
-80.7945
11
111.07
21
-80.6695
0
LINE
8
BLACK
6
CONTINUOUS
10
111.07
20
-80.6695
11
111.071
21
-80.6573
0
LINE
8
BLACK
6
CONTINUOUS
10
111.071
20
-80.6573
11
111.075
21
-80.6456
0
LINE
8
BLACK
6
CONTINUOUS
10
111.075
20
-80.6456
11
111.081
21
-80.6348
0
LINE
8
BLACK
6
CONTINUOUS
10
111.081
20
-80.6348
11
111.088
21
-80.6253
0
LINE
8
BLACK
6
CONTINUOUS
10
111.088
20
-80.6253
11
111.098
21
-80.6175
0
LINE
8
BLACK
6
CONTINUOUS
10
111.098
20
-80.6175
11
111.109
21
-80.6118
0
LINE
8
BLACK
6
CONTINUOUS
10
111.109
20
-80.6118
11
111.12
21
-80.6082
0
LINE
8
BLACK
6
CONTINUOUS
10
111.12
20
-80.6082
11
111.132
21
-80.607
0
LINE
8
BLACK
6
CONTINUOUS
10
111.132
20
-80.607
11
111.882
21
-80.607
0
LINE
8
BLACK
6
CONTINUOUS
10
111.882
20
-80.607
11
111.895
21
-80.6082
0
LINE
8
BLACK
6
CONTINUOUS
10
107.02
20
-80.6082
11
107.031
21
-80.6118
0
LINE
8
BLACK
6
CONTINUOUS
10
107.031
20
-80.6118
11
107.042
21
-80.6175
0
LINE
8
BLACK
6
CONTINUOUS
10
107.042
20
-80.6175
11
107.052
21
-80.6253
0
LINE
8
BLACK
6
CONTINUOUS
10
107.052
20
-80.6253
11
107.059
21
-80.6348
0
LINE
8
BLACK
6
CONTINUOUS
10
107.059
20
-80.6348
11
107.065
21
-80.6456
0
LINE
8
BLACK
6
CONTINUOUS
10
107.065
20
-80.6456
11
107.069
21
-80.6573
0
LINE
8
BLACK
6
CONTINUOUS
10
107.069
20
-80.6573
11
107.07
21
-80.6695
0
LINE
8
BLACK
6
CONTINUOUS
10
107.07
20
-80.6695
11
107.07
21
-80.7945
0
LINE
8
BLACK
6
CONTINUOUS
10
107.07
20
-80.7945
11
107.069
21
-80.8067
0
LINE
8
BLACK
6
CONTINUOUS
10
107.069
20
-80.8067
11
107.065
21
-80.8184
0
LINE
8
BLACK
6
CONTINUOUS
10
107.065
20
-80.8184
11
107.059
21
-80.8292
0
LINE
8
BLACK
6
CONTINUOUS
10
107.059
20
-80.8292
11
107.052
21
-80.8387
0
LINE
8
BLACK
6
CONTINUOUS
10
107.052
20
-80.8387
11
107.042
21
-80.8465
0
LINE
8
BLACK
6
CONTINUOUS
10
107.042
20
-80.8465
11
107.031
21
-80.8522
0
LINE
8
BLACK
6
CONTINUOUS
10
107.031
20
-80.8522
11
107.02
21
-80.8558
0
LINE
8
BLACK
6
CONTINUOUS
10
107.02
20
-80.8558
11
107.007
21
-80.857
0
LINE
8
BLACK
6
CONTINUOUS
10
107.007
20
-80.857
11
106.257
21
-80.857
0
LINE
8
BLACK
6
CONTINUOUS
10
106.257
20
-80.857
11
106.245
21
-80.8558
0
LINE
8
BLACK
6
CONTINUOUS
10
106.245
20
-80.8558
11
106.234
21
-80.8522
0
LINE
8
BLACK
6
CONTINUOUS
10
106.234
20
-80.8522
11
106.223
21
-80.8465
0
LINE
8
BLACK
6
CONTINUOUS
10
106.223
20
-80.8465
11
106.213
21
-80.8387
0
LINE
8
BLACK
6
CONTINUOUS
10
106.213
20
-80.8387
11
106.206
21
-80.8292
0
LINE
8
BLACK
6
CONTINUOUS
10
106.206
20
-80.8292
11
106.2
21
-80.8184
0
LINE
8
BLACK
6
CONTINUOUS
10
106.2
20
-80.8184
11
106.196
21
-80.8067
0
LINE
8
BLACK
6
CONTINUOUS
10
106.196
20
-80.8067
11
106.195
21
-80.7945
0
LINE
8
BLACK
6
CONTINUOUS
10
106.195
20
-80.7945
11
106.195
21
-80.6695
0
LINE
8
BLACK
6
CONTINUOUS
10
106.195
20
-80.6695
11
106.196
21
-80.6573
0
LINE
8
BLACK
6
CONTINUOUS
10
106.196
20
-80.6573
11
106.2
21
-80.6456
0
LINE
8
BLACK
6
CONTINUOUS
10
106.2
20
-80.6456
11
106.206
21
-80.6348
0
LINE
8
BLACK
6
CONTINUOUS
10
106.206
20
-80.6348
11
106.213
21
-80.6253
0
LINE
8
BLACK
6
CONTINUOUS
10
106.213
20
-80.6253
11
106.223
21
-80.6175
0
LINE
8
BLACK
6
CONTINUOUS
10
106.223
20
-80.6175
11
106.234
21
-80.6118
0
LINE
8
BLACK
6
CONTINUOUS
10
106.234
20
-80.6118
11
106.245
21
-80.6082
0
LINE
8
BLACK
6
CONTINUOUS
10
106.245
20
-80.6082
11
106.257
21
-80.607
0
LINE
8
BLACK
6
CONTINUOUS
10
106.257
20
-80.607
11
107.007
21
-80.607
0
LINE
8
BLACK
6
CONTINUOUS
10
107.007
20
-80.607
11
107.02
21
-80.6082
0
LINE
8
BLACK
6
CONTINUOUS
10
111.895
20
-80.1082
11
111.906
21
-80.1118
0
LINE
8
BLACK
6
CONTINUOUS
10
111.906
20
-80.1118
11
111.917
21
-80.1175
0
LINE
8
BLACK
6
CONTINUOUS
10
111.917
20
-80.1175
11
111.927
21
-80.1253
0
LINE
8
BLACK
6
CONTINUOUS
10
111.927
20
-80.1253
11
111.934
21
-80.1348
0
LINE
8
BLACK
6
CONTINUOUS
10
111.934
20
-80.1348
11
111.94
21
-80.1456
0
LINE
8
BLACK
6
CONTINUOUS
10
111.94
20
-80.1456
11
111.944
21
-80.1573
0
LINE
8
BLACK
6
CONTINUOUS
10
111.944
20
-80.1573
11
111.945
21
-80.1695
0
LINE
8
BLACK
6
CONTINUOUS
10
111.945
20
-80.1695
11
111.945
21
-80.2945
0
LINE
8
BLACK
6
CONTINUOUS
10
111.945
20
-80.2945
11
111.944
21
-80.3067
0
LINE
8
BLACK
6
CONTINUOUS
10
111.944
20
-80.3067
11
111.94
21
-80.3184
0
LINE
8
BLACK
6
CONTINUOUS
10
111.94
20
-80.3184
11
111.934
21
-80.3292
0
LINE
8
BLACK
6
CONTINUOUS
10
111.934
20
-80.3292
11
111.927
21
-80.3387
0
LINE
8
BLACK
6
CONTINUOUS
10
111.927
20
-80.3387
11
111.917
21
-80.3465
0
LINE
8
BLACK
6
CONTINUOUS
10
111.917
20
-80.3465
11
111.906
21
-80.3522
0
LINE
8
BLACK
6
CONTINUOUS
10
111.906
20
-80.3522
11
111.895
21
-80.3558
0
LINE
8
BLACK
6
CONTINUOUS
10
111.895
20
-80.3558
11
111.882
21
-80.357
0
LINE
8
BLACK
6
CONTINUOUS
10
111.882
20
-80.357
11
111.132
21
-80.357
0
LINE
8
BLACK
6
CONTINUOUS
10
111.132
20
-80.357
11
111.12
21
-80.3558
0
LINE
8
BLACK
6
CONTINUOUS
10
111.12
20
-80.3558
11
111.109
21
-80.3522
0
LINE
8
BLACK
6
CONTINUOUS
10
111.109
20
-80.3522
11
111.098
21
-80.3465
0
LINE
8
BLACK
6
CONTINUOUS
10
111.098
20
-80.3465
11
111.088
21
-80.3387
0
LINE
8
BLACK
6
CONTINUOUS
10
111.088
20
-80.3387
11
111.081
21
-80.3292
0
LINE
8
BLACK
6
CONTINUOUS
10
111.081
20
-80.3292
11
111.075
21
-80.3184
0
LINE
8
BLACK
6
CONTINUOUS
10
111.075
20
-80.3184
11
111.071
21
-80.3067
0
LINE
8
BLACK
6
CONTINUOUS
10
111.071
20
-80.3067
11
111.07
21
-80.2945
0
LINE
8
BLACK
6
CONTINUOUS
10
111.07
20
-80.2945
11
111.07
21
-80.1695
0
LINE
8
BLACK
6
CONTINUOUS
10
111.07
20
-80.1695
11
111.071
21
-80.1573
0
LINE
8
BLACK
6
CONTINUOUS
10
111.071
20
-80.1573
11
111.075
21
-80.1456
0
LINE
8
BLACK
6
CONTINUOUS
10
111.075
20
-80.1456
11
111.081
21
-80.1348
0
LINE
8
BLACK
6
CONTINUOUS
10
111.081
20
-80.1348
11
111.088
21
-80.1253
0
LINE
8
BLACK
6
CONTINUOUS
10
111.088
20
-80.1253
11
111.098
21
-80.1175
0
LINE
8
BLACK
6
CONTINUOUS
10
111.098
20
-80.1175
11
111.109
21
-80.1118
0
LINE
8
BLACK
6
CONTINUOUS
10
111.109
20
-80.1118
11
111.12
21
-80.1082
0
LINE
8
BLACK
6
CONTINUOUS
10
111.12
20
-80.1082
11
111.132
21
-80.107
0
LINE
8
BLACK
6
CONTINUOUS
10
111.132
20
-80.107
11
111.882
21
-80.107
0
LINE
8
BLACK
6
CONTINUOUS
10
111.882
20
-80.107
11
111.895
21
-80.1082
0
LINE
8
BLACK
6
CONTINUOUS
10
107.02
20
-80.1082
11
107.031
21
-80.1118
0
LINE
8
BLACK
6
CONTINUOUS
10
107.031
20
-80.1118
11
107.042
21
-80.1175
0
LINE
8
BLACK
6
CONTINUOUS
10
107.042
20
-80.1175
11
107.052
21
-80.1253
0
LINE
8
BLACK
6
CONTINUOUS
10
107.052
20
-80.1253
11
107.059
21
-80.1348
0
LINE
8
BLACK
6
CONTINUOUS
10
107.059
20
-80.1348
11
107.065
21
-80.1456
0
LINE
8
BLACK
6
CONTINUOUS
10
107.065
20
-80.1456
11
107.069
21
-80.1573
0
LINE
8
BLACK
6
CONTINUOUS
10
107.069
20
-80.1573
11
107.07
21
-80.1695
0
LINE
8
BLACK
6
CONTINUOUS
10
107.07
20
-80.1695
11
107.07
21
-80.2945
0
LINE
8
BLACK
6
CONTINUOUS
10
107.07
20
-80.2945
11
107.069
21
-80.3067
0
LINE
8
BLACK
6
CONTINUOUS
10
107.069
20
-80.3067
11
107.065
21
-80.3184
0
LINE
8
BLACK
6
CONTINUOUS
10
107.065
20
-80.3184
11
107.059
21
-80.3292
0
LINE
8
BLACK
6
CONTINUOUS
10
107.059
20
-80.3292
11
107.052
21
-80.3387
0
LINE
8
BLACK
6
CONTINUOUS
10
107.052
20
-80.3387
11
107.042
21
-80.3465
0
LINE
8
BLACK
6
CONTINUOUS
10
107.042
20
-80.3465
11
107.031
21
-80.3522
0
LINE
8
BLACK
6
CONTINUOUS
10
107.031
20
-80.3522
11
107.02
21
-80.3558
0
LINE
8
BLACK
6
CONTINUOUS
10
107.02
20
-80.3558
11
107.007
21
-80.357
0
LINE
8
BLACK
6
CONTINUOUS
10
107.007
20
-80.357
11
106.257
21
-80.357
0
LINE
8
BLACK
6
CONTINUOUS
10
106.257
20
-80.357
11
106.245
21
-80.3558
0
LINE
8
BLACK
6
CONTINUOUS
10
106.245
20
-80.3558
11
106.234
21
-80.3522
0
LINE
8
BLACK
6
CONTINUOUS
10
106.234
20
-80.3522
11
106.223
21
-80.3465
0
LINE
8
BLACK
6
CONTINUOUS
10
106.223
20
-80.3465
11
106.213
21
-80.3387
0
LINE
8
BLACK
6
CONTINUOUS
10
106.213
20
-80.3387
11
106.206
21
-80.3292
0
LINE
8
BLACK
6
CONTINUOUS
10
106.206
20
-80.3292
11
106.2
21
-80.3184
0
LINE
8
BLACK
6
CONTINUOUS
10
106.2
20
-80.3184
11
106.196
21
-80.3067
0
LINE
8
BLACK
6
CONTINUOUS
10
106.196
20
-80.3067
11
106.195
21
-80.2945
0
LINE
8
BLACK
6
CONTINUOUS
10
106.195
20
-80.2945
11
106.195
21
-80.1695
0
LINE
8
BLACK
6
CONTINUOUS
10
106.195
20
-80.1695
11
106.196
21
-80.1573
0
LINE
8
BLACK
6
CONTINUOUS
10
106.196
20
-80.1573
11
106.2
21
-80.1456
0
LINE
8
BLACK
6
CONTINUOUS
10
106.2
20
-80.1456
11
106.206
21
-80.1348
0
LINE
8
BLACK
6
CONTINUOUS
10
106.206
20
-80.1348
11
106.213
21
-80.1253
0
LINE
8
BLACK
6
CONTINUOUS
10
106.213
20
-80.1253
11
106.223
21
-80.1175
0
LINE
8
BLACK
6
CONTINUOUS
10
106.223
20
-80.1175
11
106.234
21
-80.1118
0
LINE
8
BLACK
6
CONTINUOUS
10
106.234
20
-80.1118
11
106.245
21
-80.1082
0
LINE
8
BLACK
6
CONTINUOUS
10
106.245
20
-80.1082
11
106.257
21
-80.107
0
LINE
8
BLACK
6
CONTINUOUS
10
106.257
20
-80.107
11
107.007
21
-80.107
0
LINE
8
BLACK
6
CONTINUOUS
10
107.007
20
-80.107
11
107.02
21
-80.1082
0
LINE
8
BLACK
6
CONTINUOUS
10
113.684
20
-79.2752
11
113.775
21
-79.3129
0
LINE
8
BLACK
6
CONTINUOUS
10
113.775
20
-79.3129
11
113.857
21
-79.3676
0
LINE
8
BLACK
6
CONTINUOUS
10
113.857
20
-79.3676
11
113.926
21
-79.4373
0
LINE
8
BLACK
6
CONTINUOUS
10
113.926
20
-79.4373
11
113.981
21
-79.5192
0
LINE
8
BLACK
6
CONTINUOUS
10
113.981
20
-79.5192
11
114.019
21
-79.6102
0
LINE
8
BLACK
6
CONTINUOUS
10
114.019
20
-79.6102
11
114.038
21
-79.7068
0
LINE
8
BLACK
6
CONTINUOUS
10
114.038
20
-79.7068
11
114.038
21
-79.8052
0
LINE
8
BLACK
6
CONTINUOUS
10
114.038
20
-79.8052
11
114.019
21
-79.9018
0
LINE
8
BLACK
6
CONTINUOUS
10
114.019
20
-79.9018
11
113.981
21
-79.9928
0
LINE
8
BLACK
6
CONTINUOUS
10
113.981
20
-79.9928
11
113.926
21
-80.0747
0
LINE
8
BLACK
6
CONTINUOUS
10
113.926
20
-80.0747
11
113.857
21
-80.1444
0
LINE
8
BLACK
6
CONTINUOUS
10
113.857
20
-80.1444
11
113.775
21
-80.1991
0
LINE
8
BLACK
6
CONTINUOUS
10
113.775
20
-80.1991
11
113.684
21
-80.2368
0
LINE
8
BLACK
6
CONTINUOUS
10
113.684
20
-80.2368
11
113.587
21
-80.256
0
LINE
8
BLACK
6
CONTINUOUS
10
113.587
20
-80.256
11
113.489
21
-80.256
0
LINE
8
BLACK
6
CONTINUOUS
10
113.489
20
-80.256
11
113.392
21
-80.2368
0
LINE
8
BLACK
6
CONTINUOUS
10
113.392
20
-80.2368
11
113.301
21
-80.1991
0
LINE
8
BLACK
6
CONTINUOUS
10
113.301
20
-80.1991
11
113.219
21
-80.1444
0
LINE
8
BLACK
6
CONTINUOUS
10
113.219
20
-80.1444
11
113.15
21
-80.0747
0
LINE
8
BLACK
6
CONTINUOUS
10
113.15
20
-80.0747
11
113.095
21
-79.9928
0
LINE
8
BLACK
6
CONTINUOUS
10
113.095
20
-79.9928
11
113.057
21
-79.9018
0
LINE
8
BLACK
6
CONTINUOUS
10
113.057
20
-79.9018
11
113.038
21
-79.8052
0
LINE
8
BLACK
6
CONTINUOUS
10
113.038
20
-79.8052
11
113.038
21
-79.7068
0
LINE
8
BLACK
6
CONTINUOUS
10
113.038
20
-79.7068
11
113.057
21
-79.6102
0
LINE
8
BLACK
6
CONTINUOUS
10
113.057
20
-79.6102
11
113.095
21
-79.5192
0
LINE
8
BLACK
6
CONTINUOUS
10
113.095
20
-79.5192
11
113.15
21
-79.4373
0
LINE
8
BLACK
6
CONTINUOUS
10
113.15
20
-79.4373
11
113.219
21
-79.3676
0
LINE
8
BLACK
6
CONTINUOUS
10
113.219
20
-79.3676
11
113.301
21
-79.3129
0
LINE
8
BLACK
6
CONTINUOUS
10
113.301
20
-79.3129
11
113.392
21
-79.2752
0
LINE
8
BLACK
6
CONTINUOUS
10
113.392
20
-79.2752
11
113.489
21
-79.256
0
LINE
8
BLACK
6
CONTINUOUS
10
113.489
20
-79.256
11
113.587
21
-79.256
0
LINE
8
BLACK
6
CONTINUOUS
10
113.587
20
-79.256
11
113.684
21
-79.2752
0
LINE
8
BLACK
6
CONTINUOUS
10
103.624
20
-80.002
11
103.124
21
-80.002
0
LINE
8
BLACK
6
CONTINUOUS
10
103.124
20
-80.002
11
103.124
21
-79.8035
0
LINE
8
BLACK
6
CONTINUOUS
10
103.124
20
-79.8035
11
103.094
21
-79.8035
0
LINE
8
BLACK
6
CONTINUOUS
10
103.094
20
-79.8035
11
103.036
21
-79.7919
0
LINE
8
BLACK
6
CONTINUOUS
10
103.036
20
-79.7919
11
102.981
21
-79.7692
0
LINE
8
BLACK
6
CONTINUOUS
10
102.981
20
-79.7692
11
102.932
21
-79.7362
0
LINE
8
BLACK
6
CONTINUOUS
10
102.932
20
-79.7362
11
102.89
21
-79.6942
0
LINE
8
BLACK
6
CONTINUOUS
10
102.89
20
-79.6942
11
102.857
21
-79.6448
0
LINE
8
BLACK
6
CONTINUOUS
10
102.857
20
-79.6448
11
102.834
21
-79.5899
0
LINE
8
BLACK
6
CONTINUOUS
10
102.834
20
-79.5899
11
102.822
21
-79.5317
0
LINE
8
BLACK
6
CONTINUOUS
10
102.822
20
-79.5317
11
102.822
21
-79.4723
0
LINE
8
BLACK
6
CONTINUOUS
10
102.822
20
-79.4723
11
102.834
21
-79.4141
0
LINE
8
BLACK
6
CONTINUOUS
10
102.834
20
-79.4141
11
102.857
21
-79.3592
0
LINE
8
BLACK
6
CONTINUOUS
10
102.857
20
-79.3592
11
102.89
21
-79.3098
0
LINE
8
BLACK
6
CONTINUOUS
10
102.89
20
-79.3098
11
102.932
21
-79.2678
0
LINE
8
BLACK
6
CONTINUOUS
10
102.932
20
-79.2678
11
102.981
21
-79.2348
0
LINE
8
BLACK
6
CONTINUOUS
10
102.981
20
-79.2348
11
103.036
21
-79.2121
0
LINE
8
BLACK
6
CONTINUOUS
10
103.036
20
-79.2121
11
103.094
21
-79.2005
0
LINE
8
BLACK
6
CONTINUOUS
10
103.094
20
-79.2005
11
103.124
21
-79.2005
0
LINE
8
BLACK
6
CONTINUOUS
10
103.124
20
-79.2005
11
103.124
21
-79.002
0
LINE
8
BLACK
6
CONTINUOUS
10
103.124
20
-79.002
11
103.624
21
-79.002
0
LINE
8
BLACK
6
CONTINUOUS
10
103.624
20
-79.002
11
103.624
21
-80.002
0
LINE
8
BLACK
6
CONTINUOUS
10
119.888
20
-79.2005
11
119.918
21
-79.2005
0
LINE
8
BLACK
6
CONTINUOUS
10
119.918
20
-79.2005
11
119.976
21
-79.2121
0
LINE
8
BLACK
6
CONTINUOUS
10
119.976
20
-79.2121
11
120.031
21
-79.2348
0
LINE
8
BLACK
6
CONTINUOUS
10
120.031
20
-79.2348
11
120.08
21
-79.2678
0
LINE
8
BLACK
6
CONTINUOUS
10
120.08
20
-79.2678
11
120.122
21
-79.3098
0
LINE
8
BLACK
6
CONTINUOUS
10
120.122
20
-79.3098
11
120.155
21
-79.3592
0
LINE
8
BLACK
6
CONTINUOUS
10
120.155
20
-79.3592
11
120.178
21
-79.4141
0
LINE
8
BLACK
6
CONTINUOUS
10
120.178
20
-79.4141
11
120.189
21
-79.4723
0
LINE
8
BLACK
6
CONTINUOUS
10
120.189
20
-79.4723
11
120.189
21
-79.5317
0
LINE
8
BLACK
6
CONTINUOUS
10
120.189
20
-79.5317
11
120.178
21
-79.5899
0
LINE
8
BLACK
6
CONTINUOUS
10
120.178
20
-79.5899
11
120.155
21
-79.6448
0
LINE
8
BLACK
6
CONTINUOUS
10
120.155
20
-79.6448
11
120.122
21
-79.6942
0
LINE
8
BLACK
6
CONTINUOUS
10
120.122
20
-79.6942
11
120.08
21
-79.7362
0
LINE
8
BLACK
6
CONTINUOUS
10
120.08
20
-79.7362
11
120.031
21
-79.7692
0
LINE
8
BLACK
6
CONTINUOUS
10
120.031
20
-79.7692
11
119.976
21
-79.7919
0
LINE
8
BLACK
6
CONTINUOUS
10
119.976
20
-79.7919
11
119.918
21
-79.8035
0
LINE
8
BLACK
6
CONTINUOUS
10
119.918
20
-79.8035
11
119.888
21
-79.8035
0
LINE
8
BLACK
6
CONTINUOUS
10
119.888
20
-79.8035
11
119.888
21
-80.002
0
LINE
8
BLACK
6
CONTINUOUS
10
119.888
20
-80.002
11
119.388
21
-80.002
0
LINE
8
BLACK
6
CONTINUOUS
10
119.388
20
-80.002
11
119.388
21
-79.002
0
LINE
8
BLACK
6
CONTINUOUS
10
119.388
20
-79.002
11
119.888
21
-79.002
0
LINE
8
BLACK
6
CONTINUOUS
10
119.888
20
-79.002
11
119.888
21
-79.2005
0
LINE
8
BLACK
6
CONTINUOUS
10
108.895
20
-79.1082
11
108.906
21
-79.1118
0
LINE
8
BLACK
6
CONTINUOUS
10
108.906
20
-79.1118
11
108.917
21
-79.1175
0
LINE
8
BLACK
6
CONTINUOUS
10
108.917
20
-79.1175
11
108.927
21
-79.1253
0
LINE
8
BLACK
6
CONTINUOUS
10
108.927
20
-79.1253
11
108.934
21
-79.1348
0
LINE
8
BLACK
6
CONTINUOUS
10
108.934
20
-79.1348
11
108.94
21
-79.1456
0
LINE
8
BLACK
6
CONTINUOUS
10
108.94
20
-79.1456
11
108.944
21
-79.1573
0
LINE
8
BLACK
6
CONTINUOUS
10
108.944
20
-79.1573
11
108.945
21
-79.1695
0
LINE
8
BLACK
6
CONTINUOUS
10
108.945
20
-79.1695
11
108.945
21
-79.9195
0
LINE
8
BLACK
6
CONTINUOUS
10
108.945
20
-79.9195
11
108.944
21
-79.9317
0
LINE
8
BLACK
6
CONTINUOUS
10
108.944
20
-79.9317
11
108.94
21
-79.9434
0
LINE
8
BLACK
6
CONTINUOUS
10
108.94
20
-79.9434
11
108.934
21
-79.9542
0
LINE
8
BLACK
6
CONTINUOUS
10
108.934
20
-79.9542
11
108.927
21
-79.9637
0
LINE
8
BLACK
6
CONTINUOUS
10
108.927
20
-79.9637
11
108.917
21
-79.9715
0
LINE
8
BLACK
6
CONTINUOUS
10
108.917
20
-79.9715
11
108.906
21
-79.9772
0
LINE
8
BLACK
6
CONTINUOUS
10
108.906
20
-79.9772
11
108.895
21
-79.9808
0
LINE
8
BLACK
6
CONTINUOUS
10
108.895
20
-79.9808
11
108.882
21
-79.982
0
LINE
8
BLACK
6
CONTINUOUS
10
108.882
20
-79.982
11
108.757
21
-79.982
0
LINE
8
BLACK
6
CONTINUOUS
10
108.757
20
-79.982
11
108.745
21
-79.9808
0
LINE
8
BLACK
6
CONTINUOUS
10
108.745
20
-79.9808
11
108.734
21
-79.9772
0
LINE
8
BLACK
6
CONTINUOUS
10
108.734
20
-79.9772
11
108.723
21
-79.9715
0
LINE
8
BLACK
6
CONTINUOUS
10
108.723
20
-79.9715
11
108.713
21
-79.9637
0
LINE
8
BLACK
6
CONTINUOUS
10
108.713
20
-79.9637
11
108.706
21
-79.9542
0
LINE
8
BLACK
6
CONTINUOUS
10
108.706
20
-79.9542
11
108.7
21
-79.9434
0
LINE
8
BLACK
6
CONTINUOUS
10
108.7
20
-79.9434
11
108.696
21
-79.9317
0
LINE
8
BLACK
6
CONTINUOUS
10
108.696
20
-79.9317
11
108.695
21
-79.9195
0
LINE
8
BLACK
6
CONTINUOUS
10
108.695
20
-79.9195
11
108.695
21
-79.1695
0
LINE
8
BLACK
6
CONTINUOUS
10
108.695
20
-79.1695
11
108.696
21
-79.1573
0
LINE
8
BLACK
6
CONTINUOUS
10
108.696
20
-79.1573
11
108.7
21
-79.1456
0
LINE
8
BLACK
6
CONTINUOUS
10
108.7
20
-79.1456
11
108.706
21
-79.1348
0
LINE
8
BLACK
6
CONTINUOUS
10
108.706
20
-79.1348
11
108.713
21
-79.1253
0
LINE
8
BLACK
6
CONTINUOUS
10
108.713
20
-79.1253
11
108.723
21
-79.1175
0
LINE
8
BLACK
6
CONTINUOUS
10
108.723
20
-79.1175
11
108.734
21
-79.1118
0
LINE
8
BLACK
6
CONTINUOUS
10
108.734
20
-79.1118
11
108.745
21
-79.1082
0
LINE
8
BLACK
6
CONTINUOUS
10
108.745
20
-79.1082
11
108.757
21
-79.107
0
LINE
8
BLACK
6
CONTINUOUS
10
108.757
20
-79.107
11
108.882
21
-79.107
0
LINE
8
BLACK
6
CONTINUOUS
10
108.882
20
-79.107
11
108.895
21
-79.1082
0
LINE
8
BLACK
6
CONTINUOUS
10
107.395
20
-79.1082
11
107.406
21
-79.1118
0
LINE
8
BLACK
6
CONTINUOUS
10
107.406
20
-79.1118
11
107.417
21
-79.1175
0
LINE
8
BLACK
6
CONTINUOUS
10
107.417
20
-79.1175
11
107.427
21
-79.1253
0
LINE
8
BLACK
6
CONTINUOUS
10
107.427
20
-79.1253
11
107.434
21
-79.1348
0
LINE
8
BLACK
6
CONTINUOUS
10
107.434
20
-79.1348
11
107.44
21
-79.1456
0
LINE
8
BLACK
6
CONTINUOUS
10
107.44
20
-79.1456
11
107.444
21
-79.1573
0
LINE
8
BLACK
6
CONTINUOUS
10
107.444
20
-79.1573
11
107.445
21
-79.1695
0
LINE
8
BLACK
6
CONTINUOUS
10
107.445
20
-79.1695
11
107.445
21
-79.9195
0
LINE
8
BLACK
6
CONTINUOUS
10
107.445
20
-79.9195
11
107.444
21
-79.9317
0
LINE
8
BLACK
6
CONTINUOUS
10
107.444
20
-79.9317
11
107.44
21
-79.9434
0
LINE
8
BLACK
6
CONTINUOUS
10
107.44
20
-79.9434
11
107.434
21
-79.9542
0
LINE
8
BLACK
6
CONTINUOUS
10
107.434
20
-79.9542
11
107.427
21
-79.9637
0
LINE
8
BLACK
6
CONTINUOUS
10
107.427
20
-79.9637
11
107.417
21
-79.9715
0
LINE
8
BLACK
6
CONTINUOUS
10
107.417
20
-79.9715
11
107.406
21
-79.9772
0
LINE
8
BLACK
6
CONTINUOUS
10
107.406
20
-79.9772
11
107.395
21
-79.9808
0
LINE
8
BLACK
6
CONTINUOUS
10
107.395
20
-79.9808
11
107.382
21
-79.982
0
LINE
8
BLACK
6
CONTINUOUS
10
107.382
20
-79.982
11
107.257
21
-79.982
0
LINE
8
BLACK
6
CONTINUOUS
10
107.257
20
-79.982
11
107.245
21
-79.9808
0
LINE
8
BLACK
6
CONTINUOUS
10
107.245
20
-79.9808
11
107.234
21
-79.9772
0
LINE
8
BLACK
6
CONTINUOUS
10
107.234
20
-79.9772
11
107.223
21
-79.9715
0
LINE
8
BLACK
6
CONTINUOUS
10
107.223
20
-79.9715
11
107.213
21
-79.9637
0
LINE
8
BLACK
6
CONTINUOUS
10
107.213
20
-79.9637
11
107.206
21
-79.9542
0
LINE
8
BLACK
6
CONTINUOUS
10
107.206
20
-79.9542
11
107.2
21
-79.9434
0
LINE
8
BLACK
6
CONTINUOUS
10
107.2
20
-79.9434
11
107.196
21
-79.9317
0
LINE
8
BLACK
6
CONTINUOUS
10
107.196
20
-79.9317
11
107.195
21
-79.9195
0
LINE
8
BLACK
6
CONTINUOUS
10
107.195
20
-79.9195
11
107.195
21
-79.1695
0
LINE
8
BLACK
6
CONTINUOUS
10
107.195
20
-79.1695
11
107.196
21
-79.1573
0
LINE
8
BLACK
6
CONTINUOUS
10
107.196
20
-79.1573
11
107.2
21
-79.1456
0
LINE
8
BLACK
6
CONTINUOUS
10
107.2
20
-79.1456
11
107.206
21
-79.1348
0
LINE
8
BLACK
6
CONTINUOUS
10
107.206
20
-79.1348
11
107.213
21
-79.1253
0
LINE
8
BLACK
6
CONTINUOUS
10
107.213
20
-79.1253
11
107.223
21
-79.1175
0
LINE
8
BLACK
6
CONTINUOUS
10
107.223
20
-79.1175
11
107.234
21
-79.1118
0
LINE
8
BLACK
6
CONTINUOUS
10
107.234
20
-79.1118
11
107.245
21
-79.1082
0
LINE
8
BLACK
6
CONTINUOUS
10
107.245
20
-79.1082
11
107.257
21
-79.107
0
LINE
8
BLACK
6
CONTINUOUS
10
107.257
20
-79.107
11
107.382
21
-79.107
0
LINE
8
BLACK
6
CONTINUOUS
10
107.382
20
-79.107
11
107.395
21
-79.1082
0
LINE
8
BLACK
6
CONTINUOUS
10
107.895
20
-79.1082
11
107.906
21
-79.1118
0
LINE
8
BLACK
6
CONTINUOUS
10
107.906
20
-79.1118
11
107.917
21
-79.1175
0
LINE
8
BLACK
6
CONTINUOUS
10
107.917
20
-79.1175
11
107.927
21
-79.1253
0
LINE
8
BLACK
6
CONTINUOUS
10
107.927
20
-79.1253
11
107.934
21
-79.1348
0
LINE
8
BLACK
6
CONTINUOUS
10
107.934
20
-79.1348
11
107.94
21
-79.1456
0
LINE
8
BLACK
6
CONTINUOUS
10
107.94
20
-79.1456
11
107.944
21
-79.1573
0
LINE
8
BLACK
6
CONTINUOUS
10
107.944
20
-79.1573
11
107.945
21
-79.1695
0
LINE
8
BLACK
6
CONTINUOUS
10
107.945
20
-79.1695
11
107.945
21
-79.9195
0
LINE
8
BLACK
6
CONTINUOUS
10
107.945
20
-79.9195
11
107.944
21
-79.9317
0
LINE
8
BLACK
6
CONTINUOUS
10
107.944
20
-79.9317
11
107.94
21
-79.9434
0
LINE
8
BLACK
6
CONTINUOUS
10
107.94
20
-79.9434
11
107.934
21
-79.9542
0
LINE
8
BLACK
6
CONTINUOUS
10
107.934
20
-79.9542
11
107.927
21
-79.9637
0
LINE
8
BLACK
6
CONTINUOUS
10
107.927
20
-79.9637
11
107.917
21
-79.9715
0
LINE
8
BLACK
6
CONTINUOUS
10
107.917
20
-79.9715
11
107.906
21
-79.9772
0
LINE
8
BLACK
6
CONTINUOUS
10
107.906
20
-79.9772
11
107.895
21
-79.9808
0
LINE
8
BLACK
6
CONTINUOUS
10
107.895
20
-79.9808
11
107.882
21
-79.982
0
LINE
8
BLACK
6
CONTINUOUS
10
107.882
20
-79.982
11
107.757
21
-79.982
0
LINE
8
BLACK
6
CONTINUOUS
10
107.757
20
-79.982
11
107.745
21
-79.9808
0
LINE
8
BLACK
6
CONTINUOUS
10
107.745
20
-79.9808
11
107.734
21
-79.9772
0
LINE
8
BLACK
6
CONTINUOUS
10
107.734
20
-79.9772
11
107.723
21
-79.9715
0
LINE
8
BLACK
6
CONTINUOUS
10
107.723
20
-79.9715
11
107.713
21
-79.9637
0
LINE
8
BLACK
6
CONTINUOUS
10
107.713
20
-79.9637
11
107.706
21
-79.9542
0
LINE
8
BLACK
6
CONTINUOUS
10
107.706
20
-79.9542
11
107.7
21
-79.9434
0
LINE
8
BLACK
6
CONTINUOUS
10
107.7
20
-79.9434
11
107.696
21
-79.9317
0
LINE
8
BLACK
6
CONTINUOUS
10
107.696
20
-79.9317
11
107.695
21
-79.9195
0
LINE
8
BLACK
6
CONTINUOUS
10
107.695
20
-79.9195
11
107.695
21
-79.1695
0
LINE
8
BLACK
6
CONTINUOUS
10
107.695
20
-79.1695
11
107.696
21
-79.1573
0
LINE
8
BLACK
6
CONTINUOUS
10
107.696
20
-79.1573
11
107.7
21
-79.1456
0
LINE
8
BLACK
6
CONTINUOUS
10
107.7
20
-79.1456
11
107.706
21
-79.1348
0
LINE
8
BLACK
6
CONTINUOUS
10
107.706
20
-79.1348
11
107.713
21
-79.1253
0
LINE
8
BLACK
6
CONTINUOUS
10
107.713
20
-79.1253
11
107.723
21
-79.1175
0
LINE
8
BLACK
6
CONTINUOUS
10
107.723
20
-79.1175
11
107.734
21
-79.1118
0
LINE
8
BLACK
6
CONTINUOUS
10
107.734
20
-79.1118
11
107.745
21
-79.1082
0
LINE
8
BLACK
6
CONTINUOUS
10
107.745
20
-79.1082
11
107.757
21
-79.107
0
LINE
8
BLACK
6
CONTINUOUS
10
107.757
20
-79.107
11
107.882
21
-79.107
0
LINE
8
BLACK
6
CONTINUOUS
10
107.882
20
-79.107
11
107.895
21
-79.1082
0
LINE
8
BLACK
6
CONTINUOUS
10
108.395
20
-79.1082
11
108.406
21
-79.1118
0
LINE
8
BLACK
6
CONTINUOUS
10
108.406
20
-79.1118
11
108.417
21
-79.1175
0
LINE
8
BLACK
6
CONTINUOUS
10
108.417
20
-79.1175
11
108.427
21
-79.1253
0
LINE
8
BLACK
6
CONTINUOUS
10
108.427
20
-79.1253
11
108.434
21
-79.1348
0
LINE
8
BLACK
6
CONTINUOUS
10
108.434
20
-79.1348
11
108.44
21
-79.1456
0
LINE
8
BLACK
6
CONTINUOUS
10
108.44
20
-79.1456
11
108.444
21
-79.1573
0
LINE
8
BLACK
6
CONTINUOUS
10
108.444
20
-79.1573
11
108.445
21
-79.1695
0
LINE
8
BLACK
6
CONTINUOUS
10
108.445
20
-79.1695
11
108.445
21
-79.9195
0
LINE
8
BLACK
6
CONTINUOUS
10
108.445
20
-79.9195
11
108.444
21
-79.9317
0
LINE
8
BLACK
6
CONTINUOUS
10
108.444
20
-79.9317
11
108.44
21
-79.9434
0
LINE
8
BLACK
6
CONTINUOUS
10
108.44
20
-79.9434
11
108.434
21
-79.9542
0
LINE
8
BLACK
6
CONTINUOUS
10
108.434
20
-79.9542
11
108.427
21
-79.9637
0
LINE
8
BLACK
6
CONTINUOUS
10
108.427
20
-79.9637
11
108.417
21
-79.9715
0
LINE
8
BLACK
6
CONTINUOUS
10
108.417
20
-79.9715
11
108.406
21
-79.9772
0
LINE
8
BLACK
6
CONTINUOUS
10
108.406
20
-79.9772
11
108.395
21
-79.9808
0
LINE
8
BLACK
6
CONTINUOUS
10
108.395
20
-79.9808
11
108.382
21
-79.982
0
LINE
8
BLACK
6
CONTINUOUS
10
108.382
20
-79.982
11
108.257
21
-79.982
0
LINE
8
BLACK
6
CONTINUOUS
10
108.257
20
-79.982
11
108.245
21
-79.9808
0
LINE
8
BLACK
6
CONTINUOUS
10
108.245
20
-79.9808
11
108.234
21
-79.9772
0
LINE
8
BLACK
6
CONTINUOUS
10
108.234
20
-79.9772
11
108.223
21
-79.9715
0
LINE
8
BLACK
6
CONTINUOUS
10
108.223
20
-79.9715
11
108.213
21
-79.9637
0
LINE
8
BLACK
6
CONTINUOUS
10
108.213
20
-79.9637
11
108.206
21
-79.9542
0
LINE
8
BLACK
6
CONTINUOUS
10
108.206
20
-79.9542
11
108.2
21
-79.9434
0
LINE
8
BLACK
6
CONTINUOUS
10
108.2
20
-79.9434
11
108.196
21
-79.9317
0
LINE
8
BLACK
6
CONTINUOUS
10
108.196
20
-79.9317
11
108.195
21
-79.9195
0
LINE
8
BLACK
6
CONTINUOUS
10
108.195
20
-79.9195
11
108.195
21
-79.1695
0
LINE
8
BLACK
6
CONTINUOUS
10
108.195
20
-79.1695
11
108.196
21
-79.1573
0
LINE
8
BLACK
6
CONTINUOUS
10
108.196
20
-79.1573
11
108.2
21
-79.1456
0
LINE
8
BLACK
6
CONTINUOUS
10
108.2
20
-79.1456
11
108.206
21
-79.1348
0
LINE
8
BLACK
6
CONTINUOUS
10
108.206
20
-79.1348
11
108.213
21
-79.1253
0
LINE
8
BLACK
6
CONTINUOUS
10
108.213
20
-79.1253
11
108.223
21
-79.1175
0
LINE
8
BLACK
6
CONTINUOUS
10
108.223
20
-79.1175
11
108.234
21
-79.1118
0
LINE
8
BLACK
6
CONTINUOUS
10
108.234
20
-79.1118
11
108.245
21
-79.1082
0
LINE
8
BLACK
6
CONTINUOUS
10
108.245
20
-79.1082
11
108.257
21
-79.107
0
LINE
8
BLACK
6
CONTINUOUS
10
108.257
20
-79.107
11
108.382
21
-79.107
0
LINE
8
BLACK
6
CONTINUOUS
10
108.382
20
-79.107
11
108.395
21
-79.1082
0
LINE
8
BLACK
6
CONTINUOUS
10
109.395
20
-79.1082
11
109.406
21
-79.1118
0
LINE
8
BLACK
6
CONTINUOUS
10
109.406
20
-79.1118
11
109.417
21
-79.1175
0
LINE
8
BLACK
6
CONTINUOUS
10
109.417
20
-79.1175
11
109.427
21
-79.1253
0
LINE
8
BLACK
6
CONTINUOUS
10
109.427
20
-79.1253
11
109.434
21
-79.1348
0
LINE
8
BLACK
6
CONTINUOUS
10
109.434
20
-79.1348
11
109.44
21
-79.1456
0
LINE
8
BLACK
6
CONTINUOUS
10
109.44
20
-79.1456
11
109.444
21
-79.1573
0
LINE
8
BLACK
6
CONTINUOUS
10
109.444
20
-79.1573
11
109.445
21
-79.1695
0
LINE
8
BLACK
6
CONTINUOUS
10
109.445
20
-79.1695
11
109.445
21
-79.9195
0
LINE
8
BLACK
6
CONTINUOUS
10
109.445
20
-79.9195
11
109.444
21
-79.9317
0
LINE
8
BLACK
6
CONTINUOUS
10
109.444
20
-79.9317
11
109.44
21
-79.9434
0
LINE
8
BLACK
6
CONTINUOUS
10
109.44
20
-79.9434
11
109.434
21
-79.9542
0
LINE
8
BLACK
6
CONTINUOUS
10
109.434
20
-79.9542
11
109.427
21
-79.9637
0
LINE
8
BLACK
6
CONTINUOUS
10
109.427
20
-79.9637
11
109.417
21
-79.9715
0
LINE
8
BLACK
6
CONTINUOUS
10
109.417
20
-79.9715
11
109.406
21
-79.9772
0
LINE
8
BLACK
6
CONTINUOUS
10
109.406
20
-79.9772
11
109.395
21
-79.9808
0
LINE
8
BLACK
6
CONTINUOUS
10
109.395
20
-79.9808
11
109.382
21
-79.982
0
LINE
8
BLACK
6
CONTINUOUS
10
109.382
20
-79.982
11
109.257
21
-79.982
0
LINE
8
BLACK
6
CONTINUOUS
10
109.257
20
-79.982
11
109.245
21
-79.9808
0
LINE
8
BLACK
6
CONTINUOUS
10
109.245
20
-79.9808
11
109.234
21
-79.9772
0
LINE
8
BLACK
6
CONTINUOUS
10
109.234
20
-79.9772
11
109.223
21
-79.9715
0
LINE
8
BLACK
6
CONTINUOUS
10
109.223
20
-79.9715
11
109.213
21
-79.9637
0
LINE
8
BLACK
6
CONTINUOUS
10
109.213
20
-79.9637
11
109.206
21
-79.9542
0
LINE
8
BLACK
6
CONTINUOUS
10
109.206
20
-79.9542
11
109.2
21
-79.9434
0
LINE
8
BLACK
6
CONTINUOUS
10
109.2
20
-79.9434
11
109.196
21
-79.9317
0
LINE
8
BLACK
6
CONTINUOUS
10
109.196
20
-79.9317
11
109.195
21
-79.9195
0
LINE
8
BLACK
6
CONTINUOUS
10
109.195
20
-79.9195
11
109.195
21
-79.1695
0
LINE
8
BLACK
6
CONTINUOUS
10
109.195
20
-79.1695
11
109.196
21
-79.1573
0
LINE
8
BLACK
6
CONTINUOUS
10
109.196
20
-79.1573
11
109.2
21
-79.1456
0
LINE
8
BLACK
6
CONTINUOUS
10
109.2
20
-79.1456
11
109.206
21
-79.1348
0
LINE
8
BLACK
6
CONTINUOUS
10
109.206
20
-79.1348
11
109.213
21
-79.1253
0
LINE
8
BLACK
6
CONTINUOUS
10
109.213
20
-79.1253
11
109.223
21
-79.1175
0
LINE
8
BLACK
6
CONTINUOUS
10
109.223
20
-79.1175
11
109.234
21
-79.1118
0
LINE
8
BLACK
6
CONTINUOUS
10
109.234
20
-79.1118
11
109.245
21
-79.1082
0
LINE
8
BLACK
6
CONTINUOUS
10
109.245
20
-79.1082
11
109.257
21
-79.107
0
LINE
8
BLACK
6
CONTINUOUS
10
109.257
20
-79.107
11
109.382
21
-79.107
0
LINE
8
BLACK
6
CONTINUOUS
10
109.382
20
-79.107
11
109.395
21
-79.1082
0
LINE
8
BLACK
6
CONTINUOUS
10
109.895
20
-79.1082
11
109.906
21
-79.1118
0
LINE
8
BLACK
6
CONTINUOUS
10
109.906
20
-79.1118
11
109.917
21
-79.1175
0
LINE
8
BLACK
6
CONTINUOUS
10
109.917
20
-79.1175
11
109.927
21
-79.1253
0
LINE
8
BLACK
6
CONTINUOUS
10
109.927
20
-79.1253
11
109.934
21
-79.1348
0
LINE
8
BLACK
6
CONTINUOUS
10
109.934
20
-79.1348
11
109.94
21
-79.1456
0
LINE
8
BLACK
6
CONTINUOUS
10
109.94
20
-79.1456
11
109.944
21
-79.1573
0
LINE
8
BLACK
6
CONTINUOUS
10
109.944
20
-79.1573
11
109.945
21
-79.1695
0
LINE
8
BLACK
6
CONTINUOUS
10
109.945
20
-79.1695
11
109.945
21
-79.9195
0
LINE
8
BLACK
6
CONTINUOUS
10
109.945
20
-79.9195
11
109.944
21
-79.9317
0
LINE
8
BLACK
6
CONTINUOUS
10
109.944
20
-79.9317
11
109.94
21
-79.9434
0
LINE
8
BLACK
6
CONTINUOUS
10
109.94
20
-79.9434
11
109.934
21
-79.9542
0
LINE
8
BLACK
6
CONTINUOUS
10
109.934
20
-79.9542
11
109.927
21
-79.9637
0
LINE
8
BLACK
6
CONTINUOUS
10
109.927
20
-79.9637
11
109.917
21
-79.9715
0
LINE
8
BLACK
6
CONTINUOUS
10
109.917
20
-79.9715
11
109.906
21
-79.9772
0
LINE
8
BLACK
6
CONTINUOUS
10
109.906
20
-79.9772
11
109.895
21
-79.9808
0
LINE
8
BLACK
6
CONTINUOUS
10
109.895
20
-79.9808
11
109.882
21
-79.982
0
LINE
8
BLACK
6
CONTINUOUS
10
109.882
20
-79.982
11
109.757
21
-79.982
0
LINE
8
BLACK
6
CONTINUOUS
10
109.757
20
-79.982
11
109.745
21
-79.9808
0
LINE
8
BLACK
6
CONTINUOUS
10
109.745
20
-79.9808
11
109.734
21
-79.9772
0
LINE
8
BLACK
6
CONTINUOUS
10
109.734
20
-79.9772
11
109.723
21
-79.9715
0
LINE
8
BLACK
6
CONTINUOUS
10
109.723
20
-79.9715
11
109.713
21
-79.9637
0
LINE
8
BLACK
6
CONTINUOUS
10
109.713
20
-79.9637
11
109.706
21
-79.9542
0
LINE
8
BLACK
6
CONTINUOUS
10
109.706
20
-79.9542
11
109.7
21
-79.9434
0
LINE
8
BLACK
6
CONTINUOUS
10
109.7
20
-79.9434
11
109.696
21
-79.9317
0
LINE
8
BLACK
6
CONTINUOUS
10
109.696
20
-79.9317
11
109.695
21
-79.9195
0
LINE
8
BLACK
6
CONTINUOUS
10
109.695
20
-79.9195
11
109.695
21
-79.1695
0
LINE
8
BLACK
6
CONTINUOUS
10
109.695
20
-79.1695
11
109.696
21
-79.1573
0
LINE
8
BLACK
6
CONTINUOUS
10
109.696
20
-79.1573
11
109.7
21
-79.1456
0
LINE
8
BLACK
6
CONTINUOUS
10
109.7
20
-79.1456
11
109.706
21
-79.1348
0
LINE
8
BLACK
6
CONTINUOUS
10
109.706
20
-79.1348
11
109.713
21
-79.1253
0
LINE
8
BLACK
6
CONTINUOUS
10
109.713
20
-79.1253
11
109.723
21
-79.1175
0
LINE
8
BLACK
6
CONTINUOUS
10
109.723
20
-79.1175
11
109.734
21
-79.1118
0
LINE
8
BLACK
6
CONTINUOUS
10
109.734
20
-79.1118
11
109.745
21
-79.1082
0
LINE
8
BLACK
6
CONTINUOUS
10
109.745
20
-79.1082
11
109.757
21
-79.107
0
LINE
8
BLACK
6
CONTINUOUS
10
109.757
20
-79.107
11
109.882
21
-79.107
0
LINE
8
BLACK
6
CONTINUOUS
10
109.882
20
-79.107
11
109.895
21
-79.1082
0
LINE
8
BLACK
6
CONTINUOUS
10
110.395
20
-79.1082
11
110.406
21
-79.1118
0
LINE
8
BLACK
6
CONTINUOUS
10
110.406
20
-79.1118
11
110.417
21
-79.1175
0
LINE
8
BLACK
6
CONTINUOUS
10
110.417
20
-79.1175
11
110.427
21
-79.1253
0
LINE
8
BLACK
6
CONTINUOUS
10
110.427
20
-79.1253
11
110.434
21
-79.1348
0
LINE
8
BLACK
6
CONTINUOUS
10
110.434
20
-79.1348
11
110.44
21
-79.1456
0
LINE
8
BLACK
6
CONTINUOUS
10
110.44
20
-79.1456
11
110.444
21
-79.1573
0
LINE
8
BLACK
6
CONTINUOUS
10
110.444
20
-79.1573
11
110.445
21
-79.1695
0
LINE
8
BLACK
6
CONTINUOUS
10
110.445
20
-79.1695
11
110.445
21
-79.9195
0
LINE
8
BLACK
6
CONTINUOUS
10
110.445
20
-79.9195
11
110.444
21
-79.9317
0
LINE
8
BLACK
6
CONTINUOUS
10
110.444
20
-79.9317
11
110.44
21
-79.9434
0
LINE
8
BLACK
6
CONTINUOUS
10
110.44
20
-79.9434
11
110.434
21
-79.9542
0
LINE
8
BLACK
6
CONTINUOUS
10
110.434
20
-79.9542
11
110.427
21
-79.9637
0
LINE
8
BLACK
6
CONTINUOUS
10
110.427
20
-79.9637
11
110.417
21
-79.9715
0
LINE
8
BLACK
6
CONTINUOUS
10
110.417
20
-79.9715
11
110.406
21
-79.9772
0
LINE
8
BLACK
6
CONTINUOUS
10
110.406
20
-79.9772
11
110.395
21
-79.9808
0
LINE
8
BLACK
6
CONTINUOUS
10
110.395
20
-79.9808
11
110.382
21
-79.982
0
LINE
8
BLACK
6
CONTINUOUS
10
110.382
20
-79.982
11
110.257
21
-79.982
0
LINE
8
BLACK
6
CONTINUOUS
10
110.257
20
-79.982
11
110.245
21
-79.9808
0
LINE
8
BLACK
6
CONTINUOUS
10
110.245
20
-79.9808
11
110.234
21
-79.9772
0
LINE
8
BLACK
6
CONTINUOUS
10
110.234
20
-79.9772
11
110.223
21
-79.9715
0
LINE
8
BLACK
6
CONTINUOUS
10
110.223
20
-79.9715
11
110.213
21
-79.9637
0
LINE
8
BLACK
6
CONTINUOUS
10
110.213
20
-79.9637
11
110.206
21
-79.9542
0
LINE
8
BLACK
6
CONTINUOUS
10
110.206
20
-79.9542
11
110.2
21
-79.9434
0
LINE
8
BLACK
6
CONTINUOUS
10
110.2
20
-79.9434
11
110.196
21
-79.9317
0
LINE
8
BLACK
6
CONTINUOUS
10
110.196
20
-79.9317
11
110.195
21
-79.9195
0
LINE
8
BLACK
6
CONTINUOUS
10
110.195
20
-79.9195
11
110.195
21
-79.1695
0
LINE
8
BLACK
6
CONTINUOUS
10
110.195
20
-79.1695
11
110.196
21
-79.1573
0
LINE
8
BLACK
6
CONTINUOUS
10
110.196
20
-79.1573
11
110.2
21
-79.1456
0
LINE
8
BLACK
6
CONTINUOUS
10
110.2
20
-79.1456
11
110.206
21
-79.1348
0
LINE
8
BLACK
6
CONTINUOUS
10
110.206
20
-79.1348
11
110.213
21
-79.1253
0
LINE
8
BLACK
6
CONTINUOUS
10
110.213
20
-79.1253
11
110.223
21
-79.1175
0
LINE
8
BLACK
6
CONTINUOUS
10
110.223
20
-79.1175
11
110.234
21
-79.1118
0
LINE
8
BLACK
6
CONTINUOUS
10
110.234
20
-79.1118
11
110.245
21
-79.1082
0
LINE
8
BLACK
6
CONTINUOUS
10
110.245
20
-79.1082
11
110.257
21
-79.107
0
LINE
8
BLACK
6
CONTINUOUS
10
110.257
20
-79.107
11
110.382
21
-79.107
0
LINE
8
BLACK
6
CONTINUOUS
10
110.382
20
-79.107
11
110.395
21
-79.1082
0
LINE
8
BLACK
6
CONTINUOUS
10
110.895
20
-79.1082
11
110.906
21
-79.1118
0
LINE
8
BLACK
6
CONTINUOUS
10
110.906
20
-79.1118
11
110.917
21
-79.1175
0
LINE
8
BLACK
6
CONTINUOUS
10
110.917
20
-79.1175
11
110.927
21
-79.1253
0
LINE
8
BLACK
6
CONTINUOUS
10
110.927
20
-79.1253
11
110.934
21
-79.1348
0
LINE
8
BLACK
6
CONTINUOUS
10
110.934
20
-79.1348
11
110.94
21
-79.1456
0
LINE
8
BLACK
6
CONTINUOUS
10
110.94
20
-79.1456
11
110.944
21
-79.1573
0
LINE
8
BLACK
6
CONTINUOUS
10
110.944
20
-79.1573
11
110.945
21
-79.1695
0
LINE
8
BLACK
6
CONTINUOUS
10
110.945
20
-79.1695
11
110.945
21
-79.9195
0
LINE
8
BLACK
6
CONTINUOUS
10
110.945
20
-79.9195
11
110.944
21
-79.9317
0
LINE
8
BLACK
6
CONTINUOUS
10
110.944
20
-79.9317
11
110.94
21
-79.9434
0
LINE
8
BLACK
6
CONTINUOUS
10
110.94
20
-79.9434
11
110.934
21
-79.9542
0
LINE
8
BLACK
6
CONTINUOUS
10
110.934
20
-79.9542
11
110.927
21
-79.9637
0
LINE
8
BLACK
6
CONTINUOUS
10
110.927
20
-79.9637
11
110.917
21
-79.9715
0
LINE
8
BLACK
6
CONTINUOUS
10
110.917
20
-79.9715
11
110.906
21
-79.9772
0
LINE
8
BLACK
6
CONTINUOUS
10
110.906
20
-79.9772
11
110.895
21
-79.9808
0
LINE
8
BLACK
6
CONTINUOUS
10
110.895
20
-79.9808
11
110.882
21
-79.982
0
LINE
8
BLACK
6
CONTINUOUS
10
110.882
20
-79.982
11
110.757
21
-79.982
0
LINE
8
BLACK
6
CONTINUOUS
10
110.757
20
-79.982
11
110.745
21
-79.9808
0
LINE
8
BLACK
6
CONTINUOUS
10
110.745
20
-79.9808
11
110.734
21
-79.9772
0
LINE
8
BLACK
6
CONTINUOUS
10
110.734
20
-79.9772
11
110.723
21
-79.9715
0
LINE
8
BLACK
6
CONTINUOUS
10
110.723
20
-79.9715
11
110.713
21
-79.9637
0
LINE
8
BLACK
6
CONTINUOUS
10
110.713
20
-79.9637
11
110.706
21
-79.9542
0
LINE
8
BLACK
6
CONTINUOUS
10
110.706
20
-79.9542
11
110.7
21
-79.9434
0
LINE
8
BLACK
6
CONTINUOUS
10
110.7
20
-79.9434
11
110.696
21
-79.9317
0
LINE
8
BLACK
6
CONTINUOUS
10
110.696
20
-79.9317
11
110.695
21
-79.9195
0
LINE
8
BLACK
6
CONTINUOUS
10
110.695
20
-79.9195
11
110.695
21
-79.1695
0
LINE
8
BLACK
6
CONTINUOUS
10
110.695
20
-79.1695
11
110.696
21
-79.1573
0
LINE
8
BLACK
6
CONTINUOUS
10
110.696
20
-79.1573
11
110.7
21
-79.1456
0
LINE
8
BLACK
6
CONTINUOUS
10
110.7
20
-79.1456
11
110.706
21
-79.1348
0
LINE
8
BLACK
6
CONTINUOUS
10
110.706
20
-79.1348
11
110.713
21
-79.1253
0
LINE
8
BLACK
6
CONTINUOUS
10
110.713
20
-79.1253
11
110.723
21
-79.1175
0
LINE
8
BLACK
6
CONTINUOUS
10
110.723
20
-79.1175
11
110.734
21
-79.1118
0
LINE
8
BLACK
6
CONTINUOUS
10
110.734
20
-79.1118
11
110.745
21
-79.1082
0
LINE
8
BLACK
6
CONTINUOUS
10
110.745
20
-79.1082
11
110.757
21
-79.107
0
LINE
8
BLACK
6
CONTINUOUS
10
110.757
20
-79.107
11
110.882
21
-79.107
0
LINE
8
BLACK
6
CONTINUOUS
10
110.882
20
-79.107
11
110.895
21
-79.1082
0
LINE
8
BLACK
6
CONTINUOUS
10
109.161
20
-77.9247
11
109.188
21
-77.9327
0
LINE
8
BLACK
6
CONTINUOUS
10
109.188
20
-77.9327
11
109.212
21
-77.9456
0
LINE
8
BLACK
6
CONTINUOUS
10
109.212
20
-77.9456
11
109.233
21
-77.963
0
LINE
8
BLACK
6
CONTINUOUS
10
109.233
20
-77.963
11
109.25
21
-77.9842
0
LINE
8
BLACK
6
CONTINUOUS
10
109.25
20
-77.9842
11
109.263
21
-78.0084
0
LINE
8
BLACK
6
CONTINUOUS
10
109.263
20
-78.0084
11
109.271
21
-78.0347
0
LINE
8
BLACK
6
CONTINUOUS
10
109.271
20
-78.0347
11
109.274
21
-78.062
0
LINE
8
BLACK
6
CONTINUOUS
10
109.274
20
-78.062
11
109.274
21
-78.402
0
LINE
8
BLACK
6
CONTINUOUS
10
109.274
20
-78.402
11
109.271
21
-78.4293
0
LINE
8
BLACK
6
CONTINUOUS
10
109.271
20
-78.4293
11
109.263
21
-78.4556
0
LINE
8
BLACK
6
CONTINUOUS
10
109.263
20
-78.4556
11
109.25
21
-78.4798
0
LINE
8
BLACK
6
CONTINUOUS
10
109.25
20
-78.4798
11
109.233
21
-78.501
0
LINE
8
BLACK
6
CONTINUOUS
10
109.233
20
-78.501
11
109.212
21
-78.5184
0
LINE
8
BLACK
6
CONTINUOUS
10
109.212
20
-78.5184
11
109.188
21
-78.5313
0
LINE
8
BLACK
6
CONTINUOUS
10
109.188
20
-78.5313
11
109.161
21
-78.5393
0
LINE
8
BLACK
6
CONTINUOUS
10
109.161
20
-78.5393
11
109.134
21
-78.542
0
LINE
8
BLACK
6
CONTINUOUS
10
109.134
20
-78.542
11
108.854
21
-78.542
0
LINE
8
BLACK
6
CONTINUOUS
10
108.854
20
-78.542
11
108.827
21
-78.5393
0
LINE
8
BLACK
6
CONTINUOUS
10
108.827
20
-78.5393
11
108.8
21
-78.5313
0
LINE
8
BLACK
6
CONTINUOUS
10
108.8
20
-78.5313
11
108.776
21
-78.5184
0
LINE
8
BLACK
6
CONTINUOUS
10
108.776
20
-78.5184
11
108.755
21
-78.501
0
LINE
8
BLACK
6
CONTINUOUS
10
108.755
20
-78.501
11
108.738
21
-78.4798
0
LINE
8
BLACK
6
CONTINUOUS
10
108.738
20
-78.4798
11
108.725
21
-78.4556
0
LINE
8
BLACK
6
CONTINUOUS
10
108.725
20
-78.4556
11
108.717
21
-78.4293
0
LINE
8
BLACK
6
CONTINUOUS
10
108.717
20
-78.4293
11
108.714
21
-78.402
0
LINE
8
BLACK
6
CONTINUOUS
10
108.714
20
-78.402
11
108.714
21
-78.062
0
LINE
8
BLACK
6
CONTINUOUS
10
108.714
20
-78.062
11
108.717
21
-78.0347
0
LINE
8
BLACK
6
CONTINUOUS
10
108.717
20
-78.0347
11
108.725
21
-78.0084
0
LINE
8
BLACK
6
CONTINUOUS
10
108.725
20
-78.0084
11
108.738
21
-77.9842
0
LINE
8
BLACK
6
CONTINUOUS
10
108.738
20
-77.9842
11
108.755
21
-77.963
0
LINE
8
BLACK
6
CONTINUOUS
10
108.755
20
-77.963
11
108.776
21
-77.9456
0
LINE
8
BLACK
6
CONTINUOUS
10
108.776
20
-77.9456
11
108.8
21
-77.9327
0
LINE
8
BLACK
6
CONTINUOUS
10
108.8
20
-77.9327
11
108.827
21
-77.9247
0
LINE
8
BLACK
6
CONTINUOUS
10
108.827
20
-77.9247
11
108.854
21
-77.922
0
LINE
8
BLACK
6
CONTINUOUS
10
108.854
20
-77.922
11
109.134
21
-77.922
0
LINE
8
BLACK
6
CONTINUOUS
10
109.134
20
-77.922
11
109.161
21
-77.9247
0
LINE
8
BLACK
6
CONTINUOUS
10
110.121
20
-77.9247
11
110.148
21
-77.9327
0
LINE
8
BLACK
6
CONTINUOUS
10
110.148
20
-77.9327
11
110.172
21
-77.9456
0
LINE
8
BLACK
6
CONTINUOUS
10
110.172
20
-77.9456
11
110.193
21
-77.963
0
LINE
8
BLACK
6
CONTINUOUS
10
110.193
20
-77.963
11
110.21
21
-77.9842
0
LINE
8
BLACK
6
CONTINUOUS
10
110.21
20
-77.9842
11
110.223
21
-78.0084
0
LINE
8
BLACK
6
CONTINUOUS
10
110.223
20
-78.0084
11
110.231
21
-78.0347
0
LINE
8
BLACK
6
CONTINUOUS
10
110.231
20
-78.0347
11
110.234
21
-78.062
0
LINE
8
BLACK
6
CONTINUOUS
10
110.234
20
-78.062
11
110.234
21
-78.402
0
LINE
8
BLACK
6
CONTINUOUS
10
110.234
20
-78.402
11
110.231
21
-78.4293
0
LINE
8
BLACK
6
CONTINUOUS
10
110.231
20
-78.4293
11
110.223
21
-78.4556
0
LINE
8
BLACK
6
CONTINUOUS
10
110.223
20
-78.4556
11
110.21
21
-78.4798
0
LINE
8
BLACK
6
CONTINUOUS
10
110.21
20
-78.4798
11
110.193
21
-78.501
0
LINE
8
BLACK
6
CONTINUOUS
10
110.193
20
-78.501
11
110.172
21
-78.5184
0
LINE
8
BLACK
6
CONTINUOUS
10
110.172
20
-78.5184
11
110.148
21
-78.5313
0
LINE
8
BLACK
6
CONTINUOUS
10
110.148
20
-78.5313
11
110.121
21
-78.5393
0
LINE
8
BLACK
6
CONTINUOUS
10
110.121
20
-78.5393
11
110.094
21
-78.542
0
LINE
8
BLACK
6
CONTINUOUS
10
110.094
20
-78.542
11
109.814
21
-78.542
0
LINE
8
BLACK
6
CONTINUOUS
10
109.814
20
-78.542
11
109.787
21
-78.5393
0
LINE
8
BLACK
6
CONTINUOUS
10
109.787
20
-78.5393
11
109.76
21
-78.5313
0
LINE
8
BLACK
6
CONTINUOUS
10
109.76
20
-78.5313
11
109.736
21
-78.5184
0
LINE
8
BLACK
6
CONTINUOUS
10
109.736
20
-78.5184
11
109.715
21
-78.501
0
LINE
8
BLACK
6
CONTINUOUS
10
109.715
20
-78.501
11
109.698
21
-78.4798
0
LINE
8
BLACK
6
CONTINUOUS
10
109.698
20
-78.4798
11
109.685
21
-78.4556
0
LINE
8
BLACK
6
CONTINUOUS
10
109.685
20
-78.4556
11
109.677
21
-78.4293
0
LINE
8
BLACK
6
CONTINUOUS
10
109.677
20
-78.4293
11
109.674
21
-78.402
0
LINE
8
BLACK
6
CONTINUOUS
10
109.674
20
-78.402
11
109.674
21
-78.062
0
LINE
8
BLACK
6
CONTINUOUS
10
109.674
20
-78.062
11
109.677
21
-78.0347
0
LINE
8
BLACK
6
CONTINUOUS
10
109.677
20
-78.0347
11
109.685
21
-78.0084
0
LINE
8
BLACK
6
CONTINUOUS
10
109.685
20
-78.0084
11
109.698
21
-77.9842
0
LINE
8
BLACK
6
CONTINUOUS
10
109.698
20
-77.9842
11
109.715
21
-77.963
0
LINE
8
BLACK
6
CONTINUOUS
10
109.715
20
-77.963
11
109.736
21
-77.9456
0
LINE
8
BLACK
6
CONTINUOUS
10
109.736
20
-77.9456
11
109.76
21
-77.9327
0
LINE
8
BLACK
6
CONTINUOUS
10
109.76
20
-77.9327
11
109.787
21
-77.9247
0
LINE
8
BLACK
6
CONTINUOUS
10
109.787
20
-77.9247
11
109.814
21
-77.922
0
LINE
8
BLACK
6
CONTINUOUS
10
109.814
20
-77.922
11
110.094
21
-77.922
0
LINE
8
BLACK
6
CONTINUOUS
10
110.094
20
-77.922
11
110.121
21
-77.9247
  0
ENDSEC
  0
EOF
