  0
SECTION
  2
HEADER
  9
$ANGBASE
  50
0.0
  9
$ANGDIR
  70
1
  9
$MEASUREMENT
  70
1
  0
ENDSEC
  0
SECTION
  2
TABLES
  0
TABLE
  2
LTYPE
  70
4
  0
LTYPE
  5
40F
  2
CONTINUOUS
  70
0
  3
Solid line
  72
65
  73
0
  40
0.0
  0
LTYPE
  5
410
  2
DASHDOT
 70
0
  3
Dash Dot ____ _ ____ _
 72
65
 73
4
 40
2.0
 49
1.25
 49
-0.25
 49
0.25
 49
-0.25
  0
LTYPE
  5
411
  2
DASHED
 70
0
  3
Dashed __ __ __ __ __
 72
65
 73
2
 40
0.75
 49
0.5
 49
-0.25
  0
LTYPE
  5
43B
  2
DOTTED
 70
0
  3
Dotted .  .  .  .
 72
65
 73
2
 40
0.2
 49
0.0
 49
-0.2
  0
ENDTAB
  0
TABLE
  2
STYLE
  70
4
  0
STYLE
  2
KICAD
  70
0
  40
0
  41
1
  42
1
  50
0
  71
0
  3
isocp.shx
  0
STYLE
  2
KICADB
  70
0
  40
0
  41
1
  42
1
  50
0
  71
0
  3
isocp.shx
  0
STYLE
  2
KICADI
  70
0
  40
0
  41
1
  42
1
  50
15
  71
0
  3
isocp.shx
  0
STYLE
  2
KICADBI
  70
0
  40
0
  41
1
  42
1
  50
15
  71
0
  3
isocp.shx
  0
ENDTAB
  0
TABLE
  2
LAYER
  70
1
  0
LAYER
  2
BLACK
  70
0
  62
7
  6
CONTINUOUS
  0
ENDTAB
  0
ENDSEC
  0
SECTION
  2
ENTITIES
0
LINE
8
BLACK
6
CONTINUOUS
10
119.888
20
-87.5825
11
119.918
21
-87.5825
0
LINE
8
BLACK
6
CONTINUOUS
10
119.918
20
-87.5825
11
119.976
21
-87.5941
0
LINE
8
BLACK
6
CONTINUOUS
10
119.976
20
-87.5941
11
120.031
21
-87.6168
0
LINE
8
BLACK
6
CONTINUOUS
10
120.031
20
-87.6168
11
120.08
21
-87.6498
0
LINE
8
BLACK
6
CONTINUOUS
10
120.08
20
-87.6498
11
120.122
21
-87.6918
0
LINE
8
BLACK
6
CONTINUOUS
10
120.122
20
-87.6918
11
120.155
21
-87.7412
0
LINE
8
BLACK
6
CONTINUOUS
10
120.155
20
-87.7412
11
120.178
21
-87.7961
0
LINE
8
BLACK
6
CONTINUOUS
10
120.178
20
-87.7961
11
120.189
21
-87.8543
0
LINE
8
BLACK
6
CONTINUOUS
10
120.189
20
-87.8543
11
120.189
21
-87.9137
0
LINE
8
BLACK
6
CONTINUOUS
10
120.189
20
-87.9137
11
120.178
21
-87.9719
0
LINE
8
BLACK
6
CONTINUOUS
10
120.178
20
-87.9719
11
120.155
21
-88.0268
0
LINE
8
BLACK
6
CONTINUOUS
10
120.155
20
-88.0268
11
120.122
21
-88.0762
0
LINE
8
BLACK
6
CONTINUOUS
10
120.122
20
-88.0762
11
120.08
21
-88.1182
0
LINE
8
BLACK
6
CONTINUOUS
10
120.08
20
-88.1182
11
120.031
21
-88.1512
0
LINE
8
BLACK
6
CONTINUOUS
10
120.031
20
-88.1512
11
119.976
21
-88.1739
0
LINE
8
BLACK
6
CONTINUOUS
10
119.976
20
-88.1739
11
119.918
21
-88.1855
0
LINE
8
BLACK
6
CONTINUOUS
10
119.918
20
-88.1855
11
119.888
21
-88.1855
0
LINE
8
BLACK
6
CONTINUOUS
10
119.888
20
-88.1855
11
119.888
21
-88.384
0
LINE
8
BLACK
6
CONTINUOUS
10
119.888
20
-88.384
11
118.888
21
-88.384
0
LINE
8
BLACK
6
CONTINUOUS
10
118.888
20
-88.384
11
118.888
21
-87.384
0
LINE
8
BLACK
6
CONTINUOUS
10
118.888
20
-87.384
11
119.888
21
-87.384
0
LINE
8
BLACK
6
CONTINUOUS
10
119.888
20
-87.384
11
119.888
21
-87.5825
0
LINE
8
BLACK
6
CONTINUOUS
10
104.124
20
-88.384
11
103.124
21
-88.384
0
LINE
8
BLACK
6
CONTINUOUS
10
103.124
20
-88.384
11
103.124
21
-88.1855
0
LINE
8
BLACK
6
CONTINUOUS
10
103.124
20
-88.1855
11
103.094
21
-88.1855
0
LINE
8
BLACK
6
CONTINUOUS
10
103.094
20
-88.1855
11
103.036
21
-88.1739
0
LINE
8
BLACK
6
CONTINUOUS
10
103.036
20
-88.1739
11
102.981
21
-88.1512
0
LINE
8
BLACK
6
CONTINUOUS
10
102.981
20
-88.1512
11
102.932
21
-88.1182
0
LINE
8
BLACK
6
CONTINUOUS
10
102.932
20
-88.1182
11
102.89
21
-88.0762
0
LINE
8
BLACK
6
CONTINUOUS
10
102.89
20
-88.0762
11
102.857
21
-88.0268
0
LINE
8
BLACK
6
CONTINUOUS
10
102.857
20
-88.0268
11
102.834
21
-87.9719
0
LINE
8
BLACK
6
CONTINUOUS
10
102.834
20
-87.9719
11
102.822
21
-87.9137
0
LINE
8
BLACK
6
CONTINUOUS
10
102.822
20
-87.9137
11
102.822
21
-87.8543
0
LINE
8
BLACK
6
CONTINUOUS
10
102.822
20
-87.8543
11
102.834
21
-87.7961
0
LINE
8
BLACK
6
CONTINUOUS
10
102.834
20
-87.7961
11
102.857
21
-87.7412
0
LINE
8
BLACK
6
CONTINUOUS
10
102.857
20
-87.7412
11
102.89
21
-87.6918
0
LINE
8
BLACK
6
CONTINUOUS
10
102.89
20
-87.6918
11
102.932
21
-87.6498
0
LINE
8
BLACK
6
CONTINUOUS
10
102.932
20
-87.6498
11
102.981
21
-87.6168
0
LINE
8
BLACK
6
CONTINUOUS
10
102.981
20
-87.6168
11
103.036
21
-87.5941
0
LINE
8
BLACK
6
CONTINUOUS
10
103.036
20
-87.5941
11
103.094
21
-87.5825
0
LINE
8
BLACK
6
CONTINUOUS
10
103.094
20
-87.5825
11
103.124
21
-87.5825
0
LINE
8
BLACK
6
CONTINUOUS
10
103.124
20
-87.5825
11
103.124
21
-87.384
0
LINE
8
BLACK
6
CONTINUOUS
10
103.124
20
-87.384
11
104.124
21
-87.384
0
LINE
8
BLACK
6
CONTINUOUS
10
104.124
20
-87.384
11
104.124
21
-88.384
0
LINE
8
BLACK
6
CONTINUOUS
10
119.888
20
-84.7885
11
119.918
21
-84.7885
0
LINE
8
BLACK
6
CONTINUOUS
10
119.918
20
-84.7885
11
119.976
21
-84.8001
0
LINE
8
BLACK
6
CONTINUOUS
10
119.976
20
-84.8001
11
120.031
21
-84.8228
0
LINE
8
BLACK
6
CONTINUOUS
10
120.031
20
-84.8228
11
120.08
21
-84.8558
0
LINE
8
BLACK
6
CONTINUOUS
10
120.08
20
-84.8558
11
120.122
21
-84.8978
0
LINE
8
BLACK
6
CONTINUOUS
10
120.122
20
-84.8978
11
120.155
21
-84.9472
0
LINE
8
BLACK
6
CONTINUOUS
10
120.155
20
-84.9472
11
120.178
21
-85.0021
0
LINE
8
BLACK
6
CONTINUOUS
10
120.178
20
-85.0021
11
120.189
21
-85.0603
0
LINE
8
BLACK
6
CONTINUOUS
10
120.189
20
-85.0603
11
120.189
21
-85.1197
0
LINE
8
BLACK
6
CONTINUOUS
10
120.189
20
-85.1197
11
120.178
21
-85.1779
0
LINE
8
BLACK
6
CONTINUOUS
10
120.178
20
-85.1779
11
120.155
21
-85.2328
0
LINE
8
BLACK
6
CONTINUOUS
10
120.155
20
-85.2328
11
120.122
21
-85.2822
0
LINE
8
BLACK
6
CONTINUOUS
10
120.122
20
-85.2822
11
120.08
21
-85.3242
0
LINE
8
BLACK
6
CONTINUOUS
10
120.08
20
-85.3242
11
120.031
21
-85.3572
0
LINE
8
BLACK
6
CONTINUOUS
10
120.031
20
-85.3572
11
119.976
21
-85.3799
0
LINE
8
BLACK
6
CONTINUOUS
10
119.976
20
-85.3799
11
119.918
21
-85.3915
0
LINE
8
BLACK
6
CONTINUOUS
10
119.918
20
-85.3915
11
119.888
21
-85.3915
0
LINE
8
BLACK
6
CONTINUOUS
10
119.888
20
-85.3915
11
119.888
21
-85.59
0
LINE
8
BLACK
6
CONTINUOUS
10
119.888
20
-85.59
11
118.888
21
-85.59
0
LINE
8
BLACK
6
CONTINUOUS
10
118.888
20
-85.59
11
118.888
21
-84.59
0
LINE
8
BLACK
6
CONTINUOUS
10
118.888
20
-84.59
11
119.888
21
-84.59
0
LINE
8
BLACK
6
CONTINUOUS
10
119.888
20
-84.59
11
119.888
21
-84.7885
0
LINE
8
BLACK
6
CONTINUOUS
10
104.124
20
-85.59
11
103.124
21
-85.59
0
LINE
8
BLACK
6
CONTINUOUS
10
103.124
20
-85.59
11
103.124
21
-85.3915
0
LINE
8
BLACK
6
CONTINUOUS
10
103.124
20
-85.3915
11
103.094
21
-85.3915
0
LINE
8
BLACK
6
CONTINUOUS
10
103.094
20
-85.3915
11
103.036
21
-85.3799
0
LINE
8
BLACK
6
CONTINUOUS
10
103.036
20
-85.3799
11
102.981
21
-85.3572
0
LINE
8
BLACK
6
CONTINUOUS
10
102.981
20
-85.3572
11
102.932
21
-85.3242
0
LINE
8
BLACK
6
CONTINUOUS
10
102.932
20
-85.3242
11
102.89
21
-85.2822
0
LINE
8
BLACK
6
CONTINUOUS
10
102.89
20
-85.2822
11
102.857
21
-85.2328
0
LINE
8
BLACK
6
CONTINUOUS
10
102.857
20
-85.2328
11
102.834
21
-85.1779
0
LINE
8
BLACK
6
CONTINUOUS
10
102.834
20
-85.1779
11
102.822
21
-85.1197
0
LINE
8
BLACK
6
CONTINUOUS
10
102.822
20
-85.1197
11
102.822
21
-85.0603
0
LINE
8
BLACK
6
CONTINUOUS
10
102.822
20
-85.0603
11
102.834
21
-85.0021
0
LINE
8
BLACK
6
CONTINUOUS
10
102.834
20
-85.0021
11
102.857
21
-84.9472
0
LINE
8
BLACK
6
CONTINUOUS
10
102.857
20
-84.9472
11
102.89
21
-84.8978
0
LINE
8
BLACK
6
CONTINUOUS
10
102.89
20
-84.8978
11
102.932
21
-84.8558
0
LINE
8
BLACK
6
CONTINUOUS
10
102.932
20
-84.8558
11
102.981
21
-84.8228
0
LINE
8
BLACK
6
CONTINUOUS
10
102.981
20
-84.8228
11
103.036
21
-84.8001
0
LINE
8
BLACK
6
CONTINUOUS
10
103.036
20
-84.8001
11
103.094
21
-84.7885
0
LINE
8
BLACK
6
CONTINUOUS
10
103.094
20
-84.7885
11
103.124
21
-84.7885
0
LINE
8
BLACK
6
CONTINUOUS
10
103.124
20
-84.7885
11
103.124
21
-84.59
0
LINE
8
BLACK
6
CONTINUOUS
10
103.124
20
-84.59
11
104.124
21
-84.59
0
LINE
8
BLACK
6
CONTINUOUS
10
104.124
20
-84.59
11
104.124
21
-85.59
0
LINE
8
BLACK
6
CONTINUOUS
10
119.888
20
-81.9945
11
119.918
21
-81.9945
0
LINE
8
BLACK
6
CONTINUOUS
10
119.918
20
-81.9945
11
119.976
21
-82.0061
0
LINE
8
BLACK
6
CONTINUOUS
10
119.976
20
-82.0061
11
120.031
21
-82.0288
0
LINE
8
BLACK
6
CONTINUOUS
10
120.031
20
-82.0288
11
120.08
21
-82.0618
0
LINE
8
BLACK
6
CONTINUOUS
10
120.08
20
-82.0618
11
120.122
21
-82.1038
0
LINE
8
BLACK
6
CONTINUOUS
10
120.122
20
-82.1038
11
120.155
21
-82.1532
0
LINE
8
BLACK
6
CONTINUOUS
10
120.155
20
-82.1532
11
120.178
21
-82.2081
0
LINE
8
BLACK
6
CONTINUOUS
10
120.178
20
-82.2081
11
120.189
21
-82.2663
0
LINE
8
BLACK
6
CONTINUOUS
10
120.189
20
-82.2663
11
120.189
21
-82.3257
0
LINE
8
BLACK
6
CONTINUOUS
10
120.189
20
-82.3257
11
120.178
21
-82.3839
0
LINE
8
BLACK
6
CONTINUOUS
10
120.178
20
-82.3839
11
120.155
21
-82.4388
0
LINE
8
BLACK
6
CONTINUOUS
10
120.155
20
-82.4388
11
120.122
21
-82.4882
0
LINE
8
BLACK
6
CONTINUOUS
10
120.122
20
-82.4882
11
120.08
21
-82.5302
0
LINE
8
BLACK
6
CONTINUOUS
10
120.08
20
-82.5302
11
120.031
21
-82.5632
0
LINE
8
BLACK
6
CONTINUOUS
10
120.031
20
-82.5632
11
119.976
21
-82.5859
0
LINE
8
BLACK
6
CONTINUOUS
10
119.976
20
-82.5859
11
119.918
21
-82.5975
0
LINE
8
BLACK
6
CONTINUOUS
10
119.918
20
-82.5975
11
119.888
21
-82.5975
0
LINE
8
BLACK
6
CONTINUOUS
10
119.888
20
-82.5975
11
119.888
21
-82.796
0
LINE
8
BLACK
6
CONTINUOUS
10
119.888
20
-82.796
11
118.888
21
-82.796
0
LINE
8
BLACK
6
CONTINUOUS
10
118.888
20
-82.796
11
118.888
21
-81.796
0
LINE
8
BLACK
6
CONTINUOUS
10
118.888
20
-81.796
11
119.888
21
-81.796
0
LINE
8
BLACK
6
CONTINUOUS
10
119.888
20
-81.796
11
119.888
21
-81.9945
0
LINE
8
BLACK
6
CONTINUOUS
10
104.132
20
-82.796
11
103.132
21
-82.796
0
LINE
8
BLACK
6
CONTINUOUS
10
103.132
20
-82.796
11
103.132
21
-82.5975
0
LINE
8
BLACK
6
CONTINUOUS
10
103.132
20
-82.5975
11
103.102
21
-82.5975
0
LINE
8
BLACK
6
CONTINUOUS
10
103.102
20
-82.5975
11
103.044
21
-82.5859
0
LINE
8
BLACK
6
CONTINUOUS
10
103.044
20
-82.5859
11
102.989
21
-82.5632
0
LINE
8
BLACK
6
CONTINUOUS
10
102.989
20
-82.5632
11
102.94
21
-82.5302
0
LINE
8
BLACK
6
CONTINUOUS
10
102.94
20
-82.5302
11
102.898
21
-82.4882
0
LINE
8
BLACK
6
CONTINUOUS
10
102.898
20
-82.4882
11
102.865
21
-82.4388
0
LINE
8
BLACK
6
CONTINUOUS
10
102.865
20
-82.4388
11
102.842
21
-82.3839
0
LINE
8
BLACK
6
CONTINUOUS
10
102.842
20
-82.3839
11
102.831
21
-82.3257
0
LINE
8
BLACK
6
CONTINUOUS
10
102.831
20
-82.3257
11
102.831
21
-82.2663
0
LINE
8
BLACK
6
CONTINUOUS
10
102.831
20
-82.2663
11
102.842
21
-82.2081
0
LINE
8
BLACK
6
CONTINUOUS
10
102.842
20
-82.2081
11
102.865
21
-82.1532
0
LINE
8
BLACK
6
CONTINUOUS
10
102.865
20
-82.1532
11
102.898
21
-82.1038
0
LINE
8
BLACK
6
CONTINUOUS
10
102.898
20
-82.1038
11
102.94
21
-82.0618
0
LINE
8
BLACK
6
CONTINUOUS
10
102.94
20
-82.0618
11
102.989
21
-82.0288
0
LINE
8
BLACK
6
CONTINUOUS
10
102.989
20
-82.0288
11
103.044
21
-82.0061
0
LINE
8
BLACK
6
CONTINUOUS
10
103.044
20
-82.0061
11
103.102
21
-81.9945
0
LINE
8
BLACK
6
CONTINUOUS
10
103.102
20
-81.9945
11
103.132
21
-81.9945
0
LINE
8
BLACK
6
CONTINUOUS
10
103.132
20
-81.9945
11
103.132
21
-81.796
0
LINE
8
BLACK
6
CONTINUOUS
10
103.132
20
-81.796
11
104.132
21
-81.796
0
LINE
8
BLACK
6
CONTINUOUS
10
104.132
20
-81.796
11
104.132
21
-82.796
0
LINE
8
BLACK
6
CONTINUOUS
10
104.124
20
-80.002
11
103.124
21
-80.002
0
LINE
8
BLACK
6
CONTINUOUS
10
103.124
20
-80.002
11
103.124
21
-79.8035
0
LINE
8
BLACK
6
CONTINUOUS
10
103.124
20
-79.8035
11
103.094
21
-79.8035
0
LINE
8
BLACK
6
CONTINUOUS
10
103.094
20
-79.8035
11
103.036
21
-79.7919
0
LINE
8
BLACK
6
CONTINUOUS
10
103.036
20
-79.7919
11
102.981
21
-79.7692
0
LINE
8
BLACK
6
CONTINUOUS
10
102.981
20
-79.7692
11
102.932
21
-79.7362
0
LINE
8
BLACK
6
CONTINUOUS
10
102.932
20
-79.7362
11
102.89
21
-79.6942
0
LINE
8
BLACK
6
CONTINUOUS
10
102.89
20
-79.6942
11
102.857
21
-79.6448
0
LINE
8
BLACK
6
CONTINUOUS
10
102.857
20
-79.6448
11
102.834
21
-79.5899
0
LINE
8
BLACK
6
CONTINUOUS
10
102.834
20
-79.5899
11
102.822
21
-79.5317
0
LINE
8
BLACK
6
CONTINUOUS
10
102.822
20
-79.5317
11
102.822
21
-79.4723
0
LINE
8
BLACK
6
CONTINUOUS
10
102.822
20
-79.4723
11
102.834
21
-79.4141
0
LINE
8
BLACK
6
CONTINUOUS
10
102.834
20
-79.4141
11
102.857
21
-79.3592
0
LINE
8
BLACK
6
CONTINUOUS
10
102.857
20
-79.3592
11
102.89
21
-79.3098
0
LINE
8
BLACK
6
CONTINUOUS
10
102.89
20
-79.3098
11
102.932
21
-79.2678
0
LINE
8
BLACK
6
CONTINUOUS
10
102.932
20
-79.2678
11
102.981
21
-79.2348
0
LINE
8
BLACK
6
CONTINUOUS
10
102.981
20
-79.2348
11
103.036
21
-79.2121
0
LINE
8
BLACK
6
CONTINUOUS
10
103.036
20
-79.2121
11
103.094
21
-79.2005
0
LINE
8
BLACK
6
CONTINUOUS
10
103.094
20
-79.2005
11
103.124
21
-79.2005
0
LINE
8
BLACK
6
CONTINUOUS
10
103.124
20
-79.2005
11
103.124
21
-79.002
0
LINE
8
BLACK
6
CONTINUOUS
10
103.124
20
-79.002
11
104.124
21
-79.002
0
LINE
8
BLACK
6
CONTINUOUS
10
104.124
20
-79.002
11
104.124
21
-80.002
0
LINE
8
BLACK
6
CONTINUOUS
10
119.888
20
-79.2005
11
119.918
21
-79.2005
0
LINE
8
BLACK
6
CONTINUOUS
10
119.918
20
-79.2005
11
119.976
21
-79.2121
0
LINE
8
BLACK
6
CONTINUOUS
10
119.976
20
-79.2121
11
120.031
21
-79.2348
0
LINE
8
BLACK
6
CONTINUOUS
10
120.031
20
-79.2348
11
120.08
21
-79.2678
0
LINE
8
BLACK
6
CONTINUOUS
10
120.08
20
-79.2678
11
120.122
21
-79.3098
0
LINE
8
BLACK
6
CONTINUOUS
10
120.122
20
-79.3098
11
120.155
21
-79.3592
0
LINE
8
BLACK
6
CONTINUOUS
10
120.155
20
-79.3592
11
120.178
21
-79.4141
0
LINE
8
BLACK
6
CONTINUOUS
10
120.178
20
-79.4141
11
120.189
21
-79.4723
0
LINE
8
BLACK
6
CONTINUOUS
10
120.189
20
-79.4723
11
120.189
21
-79.5317
0
LINE
8
BLACK
6
CONTINUOUS
10
120.189
20
-79.5317
11
120.178
21
-79.5899
0
LINE
8
BLACK
6
CONTINUOUS
10
120.178
20
-79.5899
11
120.155
21
-79.6448
0
LINE
8
BLACK
6
CONTINUOUS
10
120.155
20
-79.6448
11
120.122
21
-79.6942
0
LINE
8
BLACK
6
CONTINUOUS
10
120.122
20
-79.6942
11
120.08
21
-79.7362
0
LINE
8
BLACK
6
CONTINUOUS
10
120.08
20
-79.7362
11
120.031
21
-79.7692
0
LINE
8
BLACK
6
CONTINUOUS
10
120.031
20
-79.7692
11
119.976
21
-79.7919
0
LINE
8
BLACK
6
CONTINUOUS
10
119.976
20
-79.7919
11
119.918
21
-79.8035
0
LINE
8
BLACK
6
CONTINUOUS
10
119.918
20
-79.8035
11
119.888
21
-79.8035
0
LINE
8
BLACK
6
CONTINUOUS
10
119.888
20
-79.8035
11
119.888
21
-80.002
0
LINE
8
BLACK
6
CONTINUOUS
10
119.888
20
-80.002
11
118.888
21
-80.002
0
LINE
8
BLACK
6
CONTINUOUS
10
118.888
20
-80.002
11
118.888
21
-79.002
0
LINE
8
BLACK
6
CONTINUOUS
10
118.888
20
-79.002
11
119.888
21
-79.002
0
LINE
8
BLACK
6
CONTINUOUS
10
119.888
20
-79.002
11
119.888
21
-79.2005
  0
ENDSEC
  0
EOF
