  0
SECTION
  2
HEADER
  9
$ANGBASE
  50
0.0
  9
$ANGDIR
  70
1
  9
$MEASUREMENT
  70
1
  0
ENDSEC
  0
SECTION
  2
TABLES
  0
TABLE
  2
LTYPE
  70
4
  0
LTYPE
  5
40F
  2
CONTINUOUS
  70
0
  3
Solid line
  72
65
  73
0
  40
0.0
  0
LTYPE
  5
410
  2
DASHDOT
 70
0
  3
Dash Dot ____ _ ____ _
 72
65
 73
4
 40
2.0
 49
1.25
 49
-0.25
 49
0.25
 49
-0.25
  0
LTYPE
  5
411
  2
DASHED
 70
0
  3
Dashed __ __ __ __ __
 72
65
 73
2
 40
0.75
 49
0.5
 49
-0.25
  0
LTYPE
  5
43B
  2
DOTTED
 70
0
  3
Dotted .  .  .  .
 72
65
 73
2
 40
0.2
 49
0.0
 49
-0.2
  0
ENDTAB
  0
TABLE
  2
STYLE
  70
4
  0
STYLE
  2
KICAD
  70
0
  40
0
  41
1
  42
1
  50
0
  71
0
  3
isocp.shx
  0
STYLE
  2
KICADB
  70
0
  40
0
  41
1
  42
1
  50
0
  71
0
  3
isocp.shx
  0
STYLE
  2
KICADI
  70
0
  40
0
  41
1
  42
1
  50
15
  71
0
  3
isocp.shx
  0
STYLE
  2
KICADBI
  70
0
  40
0
  41
1
  42
1
  50
15
  71
0
  3
isocp.shx
  0
ENDTAB
  0
TABLE
  2
LAYER
  70
1
  0
LAYER
  2
BLACK
  70
0
  62
7
  6
CONTINUOUS
  0
ENDTAB
  0
ENDSEC
  0
SECTION
  2
ENTITIES
0
LINE
8
BLACK
6
CONTINUOUS
10
102.755
20
-89.3578
11
102.789
21
-89.3961
0
LINE
8
BLACK
6
CONTINUOUS
10
102.789
20
-89.3961
11
102.848
21
-89.5433
0
LINE
8
BLACK
6
CONTINUOUS
10
102.848
20
-89.5433
11
102.96
21
-89.4591
0
LINE
8
BLACK
6
CONTINUOUS
10
102.96
20
-89.4591
11
102.983
21
-89.4474
0
LINE
8
BLACK
6
CONTINUOUS
10
102.983
20
-89.4474
11
103.034
21
-89.4502
0
LINE
8
BLACK
6
CONTINUOUS
10
103.034
20
-89.4502
11
103.072
21
-89.4852
0
LINE
8
BLACK
6
CONTINUOUS
10
103.072
20
-89.4852
11
103.078
21
-89.5362
0
LINE
8
BLACK
6
CONTINUOUS
10
103.078
20
-89.5362
11
103.05
21
-89.5791
0
LINE
8
BLACK
6
CONTINUOUS
10
103.05
20
-89.5791
11
102.939
21
-89.662
0
LINE
8
BLACK
6
CONTINUOUS
10
102.939
20
-89.662
11
103.05
21
-89.7449
0
LINE
8
BLACK
6
CONTINUOUS
10
103.05
20
-89.7449
11
103.068
21
-89.7639
0
LINE
8
BLACK
6
CONTINUOUS
10
103.068
20
-89.7639
11
103.079
21
-89.8138
0
LINE
8
BLACK
6
CONTINUOUS
10
103.079
20
-89.8138
11
103.056
21
-89.8596
0
LINE
8
BLACK
6
CONTINUOUS
10
103.056
20
-89.8596
11
103.009
21
-89.8797
0
LINE
8
BLACK
6
CONTINUOUS
10
103.009
20
-89.8797
11
102.96
21
-89.8649
0
LINE
8
BLACK
6
CONTINUOUS
10
102.96
20
-89.8649
11
102.848
21
-89.7807
0
LINE
8
BLACK
6
CONTINUOUS
10
102.848
20
-89.7807
11
102.789
21
-89.9279
0
LINE
8
BLACK
6
CONTINUOUS
10
102.789
20
-89.9279
11
102.775
21
-89.9501
0
LINE
8
BLACK
6
CONTINUOUS
10
102.775
20
-89.9501
11
102.73
21
-89.9743
0
LINE
8
BLACK
6
CONTINUOUS
10
102.73
20
-89.9743
11
102.68
21
-89.9638
0
LINE
8
BLACK
6
CONTINUOUS
10
102.68
20
-89.9638
11
102.648
21
-89.9235
0
LINE
8
BLACK
6
CONTINUOUS
10
102.648
20
-89.9235
11
102.65
21
-89.8722
0
LINE
8
BLACK
6
CONTINUOUS
10
102.65
20
-89.8722
11
102.704
21
-89.737
0
LINE
8
BLACK
6
CONTINUOUS
10
102.704
20
-89.737
11
102.576
21
-89.737
0
LINE
8
BLACK
6
CONTINUOUS
10
102.576
20
-89.737
11
102.551
21
-89.7325
0
LINE
8
BLACK
6
CONTINUOUS
10
102.551
20
-89.7325
11
102.511
21
-89.6995
0
LINE
8
BLACK
6
CONTINUOUS
10
102.511
20
-89.6995
11
102.503
21
-89.649
0
LINE
8
BLACK
6
CONTINUOUS
10
102.503
20
-89.649
11
102.528
21
-89.6045
0
LINE
8
BLACK
6
CONTINUOUS
10
102.528
20
-89.6045
11
102.576
21
-89.587
0
LINE
8
BLACK
6
CONTINUOUS
10
102.576
20
-89.587
11
102.704
21
-89.587
0
LINE
8
BLACK
6
CONTINUOUS
10
102.704
20
-89.587
11
102.65
21
-89.4518
0
LINE
8
BLACK
6
CONTINUOUS
10
102.65
20
-89.4518
11
102.644
21
-89.4263
0
LINE
8
BLACK
6
CONTINUOUS
10
102.644
20
-89.4263
11
102.66
21
-89.3775
0
LINE
8
BLACK
6
CONTINUOUS
10
102.66
20
-89.3775
11
102.704
21
-89.3505
0
LINE
8
BLACK
6
CONTINUOUS
10
102.704
20
-89.3505
11
102.755
21
-89.3578
0
LINE
8
BLACK
6
CONTINUOUS
10
103.805
20
-88.7893
11
103.807
21
-88.7892
0
LINE
8
BLACK
6
CONTINUOUS
10
103.807
20
-88.7892
11
103.949
21
-88.8368
0
LINE
8
BLACK
6
CONTINUOUS
10
103.949
20
-88.8368
11
103.972
21
-88.8493
0
LINE
8
BLACK
6
CONTINUOUS
10
103.972
20
-88.8493
11
103.975
21
-88.8531
0
LINE
8
BLACK
6
CONTINUOUS
10
103.975
20
-88.8531
11
103.979
21
-88.855
0
LINE
8
BLACK
6
CONTINUOUS
10
103.979
20
-88.855
11
104.026
21
-88.9026
0
LINE
8
BLACK
6
CONTINUOUS
10
104.026
20
-88.9026
11
104.041
21
-88.9239
0
LINE
8
BLACK
6
CONTINUOUS
10
104.041
20
-88.9239
11
104.046
21
-88.975
0
LINE
8
BLACK
6
CONTINUOUS
10
104.046
20
-88.975
11
104.016
21
-89.0171
0
LINE
8
BLACK
6
CONTINUOUS
10
104.016
20
-89.0171
11
103.967
21
-89.0303
0
LINE
8
BLACK
6
CONTINUOUS
10
103.967
20
-89.0303
11
103.92
21
-89.0087
0
LINE
8
BLACK
6
CONTINUOUS
10
103.92
20
-89.0087
11
103.885
21
-88.9736
0
LINE
8
BLACK
6
CONTINUOUS
10
103.885
20
-88.9736
11
103.771
21
-88.9354
0
LINE
8
BLACK
6
CONTINUOUS
10
103.771
20
-88.9354
11
103.7
21
-88.9354
0
LINE
8
BLACK
6
CONTINUOUS
10
103.7
20
-88.9354
11
103.585
21
-88.9736
0
LINE
8
BLACK
6
CONTINUOUS
10
103.585
20
-88.9736
11
103.511
21
-89.0477
0
LINE
8
BLACK
6
CONTINUOUS
10
103.511
20
-89.0477
11
103.473
21
-89.1247
0
LINE
8
BLACK
6
CONTINUOUS
10
103.473
20
-89.1247
11
103.429
21
-89.2982
0
LINE
8
BLACK
6
CONTINUOUS
10
103.429
20
-89.2982
11
103.429
21
-89.4226
0
LINE
8
BLACK
6
CONTINUOUS
10
103.429
20
-89.4226
11
103.473
21
-89.5961
0
LINE
8
BLACK
6
CONTINUOUS
10
103.473
20
-89.5961
11
103.511
21
-89.6731
0
LINE
8
BLACK
6
CONTINUOUS
10
103.511
20
-89.6731
11
103.585
21
-89.7472
0
LINE
8
BLACK
6
CONTINUOUS
10
103.585
20
-89.7472
11
103.7
21
-89.7854
0
LINE
8
BLACK
6
CONTINUOUS
10
103.7
20
-89.7854
11
103.771
21
-89.7854
0
LINE
8
BLACK
6
CONTINUOUS
10
103.771
20
-89.7854
11
103.885
21
-89.7472
0
LINE
8
BLACK
6
CONTINUOUS
10
103.885
20
-89.7472
11
103.92
21
-89.7121
0
LINE
8
BLACK
6
CONTINUOUS
10
103.92
20
-89.7121
11
103.942
21
-89.6972
0
LINE
8
BLACK
6
CONTINUOUS
10
103.942
20
-89.6972
11
103.993
21
-89.6927
0
LINE
8
BLACK
6
CONTINUOUS
10
103.993
20
-89.6927
11
104.035
21
-89.7221
0
LINE
8
BLACK
6
CONTINUOUS
10
104.035
20
-89.7221
11
104.048
21
-89.7717
0
LINE
8
BLACK
6
CONTINUOUS
10
104.048
20
-89.7717
11
104.026
21
-89.8182
0
LINE
8
BLACK
6
CONTINUOUS
10
104.026
20
-89.8182
11
103.979
21
-89.8658
0
LINE
8
BLACK
6
CONTINUOUS
10
103.979
20
-89.8658
11
103.957
21
-89.8807
0
LINE
8
BLACK
6
CONTINUOUS
10
103.957
20
-89.8807
11
103.953
21
-89.8811
0
LINE
8
BLACK
6
CONTINUOUS
10
103.953
20
-89.8811
11
103.949
21
-89.8839
0
LINE
8
BLACK
6
CONTINUOUS
10
103.949
20
-89.8839
11
103.807
21
-89.9315
0
LINE
8
BLACK
6
CONTINUOUS
10
103.807
20
-89.9315
11
103.784
21
-89.9348
0
LINE
8
BLACK
6
CONTINUOUS
10
103.784
20
-89.9348
11
103.783
21
-89.9354
0
LINE
8
BLACK
6
CONTINUOUS
10
103.783
20
-89.9354
11
103.688
21
-89.9354
0
LINE
8
BLACK
6
CONTINUOUS
10
103.688
20
-89.9354
11
103.666
21
-89.9315
0
LINE
8
BLACK
6
CONTINUOUS
10
103.666
20
-89.9315
11
103.664
21
-89.9315
0
LINE
8
BLACK
6
CONTINUOUS
10
103.664
20
-89.9315
11
103.521
21
-89.8839
0
LINE
8
BLACK
6
CONTINUOUS
10
103.521
20
-89.8839
11
103.498
21
-89.8715
0
LINE
8
BLACK
6
CONTINUOUS
10
103.498
20
-89.8715
11
103.496
21
-89.8677
0
LINE
8
BLACK
6
CONTINUOUS
10
103.496
20
-89.8677
11
103.492
21
-89.8658
0
LINE
8
BLACK
6
CONTINUOUS
10
103.492
20
-89.8658
11
103.396
21
-89.7706
0
LINE
8
BLACK
6
CONTINUOUS
10
103.396
20
-89.7706
11
103.384
21
-89.7522
0
LINE
8
BLACK
6
CONTINUOUS
10
103.384
20
-89.7522
11
103.382
21
-89.7511
0
LINE
8
BLACK
6
CONTINUOUS
10
103.382
20
-89.7511
11
103.335
21
-89.6558
0
LINE
8
BLACK
6
CONTINUOUS
10
103.335
20
-89.6558
11
103.331
21
-89.6434
0
LINE
8
BLACK
6
CONTINUOUS
10
103.331
20
-89.6434
11
103.329
21
-89.6405
0
LINE
8
BLACK
6
CONTINUOUS
10
103.329
20
-89.6405
11
103.282
21
-89.45
0
LINE
8
BLACK
6
CONTINUOUS
10
103.282
20
-89.45
11
103.28
21
-89.4351
0
LINE
8
BLACK
6
CONTINUOUS
10
103.28
20
-89.4351
11
103.279
21
-89.4318
0
LINE
8
BLACK
6
CONTINUOUS
10
103.279
20
-89.4318
11
103.279
21
-89.289
0
LINE
8
BLACK
6
CONTINUOUS
10
103.279
20
-89.289
11
103.282
21
-89.2742
0
LINE
8
BLACK
6
CONTINUOUS
10
103.282
20
-89.2742
11
103.282
21
-89.2708
0
LINE
8
BLACK
6
CONTINUOUS
10
103.282
20
-89.2708
11
103.329
21
-89.0803
0
LINE
8
BLACK
6
CONTINUOUS
10
103.329
20
-89.0803
11
103.334
21
-89.0685
0
LINE
8
BLACK
6
CONTINUOUS
10
103.334
20
-89.0685
11
103.335
21
-89.0649
0
LINE
8
BLACK
6
CONTINUOUS
10
103.335
20
-89.0649
11
103.382
21
-88.9697
0
LINE
8
BLACK
6
CONTINUOUS
10
103.382
20
-88.9697
11
103.396
21
-88.9517
0
LINE
8
BLACK
6
CONTINUOUS
10
103.396
20
-88.9517
11
103.396
21
-88.9502
0
LINE
8
BLACK
6
CONTINUOUS
10
103.396
20
-88.9502
11
103.492
21
-88.855
0
LINE
8
BLACK
6
CONTINUOUS
10
103.492
20
-88.855
11
103.513
21
-88.84
0
LINE
8
BLACK
6
CONTINUOUS
10
103.513
20
-88.84
11
103.518
21
-88.8396
0
LINE
8
BLACK
6
CONTINUOUS
10
103.518
20
-88.8396
11
103.521
21
-88.8368
0
LINE
8
BLACK
6
CONTINUOUS
10
103.521
20
-88.8368
11
103.664
21
-88.7892
0
LINE
8
BLACK
6
CONTINUOUS
10
103.664
20
-88.7892
11
103.686
21
-88.7859
0
LINE
8
BLACK
6
CONTINUOUS
10
103.686
20
-88.7859
11
103.688
21
-88.7854
0
LINE
8
BLACK
6
CONTINUOUS
10
103.688
20
-88.7854
11
103.783
21
-88.7854
0
LINE
8
BLACK
6
CONTINUOUS
10
103.783
20
-88.7854
11
103.805
21
-88.7893
0
LINE
8
BLACK
6
CONTINUOUS
10
104.628
20
-88.7468
11
104.662
21
-88.7852
0
LINE
8
BLACK
6
CONTINUOUS
10
104.662
20
-88.7852
11
104.664
21
-88.8365
0
LINE
8
BLACK
6
CONTINUOUS
10
104.664
20
-88.8365
11
104.458
21
-89.452
0
LINE
8
BLACK
6
CONTINUOUS
10
104.458
20
-89.452
11
104.755
21
-89.452
0
LINE
8
BLACK
6
CONTINUOUS
10
104.755
20
-89.452
11
104.755
21
-89.1937
0
LINE
8
BLACK
6
CONTINUOUS
10
104.755
20
-89.1937
11
104.76
21
-89.1681
0
LINE
8
BLACK
6
CONTINUOUS
10
104.76
20
-89.1681
11
104.793
21
-89.1288
0
LINE
8
BLACK
6
CONTINUOUS
10
104.793
20
-89.1288
11
104.843
21
-89.1199
0
LINE
8
BLACK
6
CONTINUOUS
10
104.843
20
-89.1199
11
104.888
21
-89.1455
0
LINE
8
BLACK
6
CONTINUOUS
10
104.888
20
-89.1455
11
104.905
21
-89.1937
0
LINE
8
BLACK
6
CONTINUOUS
10
104.905
20
-89.1937
11
104.905
21
-89.452
0
LINE
8
BLACK
6
CONTINUOUS
10
104.905
20
-89.452
11
104.973
21
-89.452
0
LINE
8
BLACK
6
CONTINUOUS
10
104.973
20
-89.452
11
104.999
21
-89.4566
0
LINE
8
BLACK
6
CONTINUOUS
10
104.999
20
-89.4566
11
105.038
21
-89.4895
0
LINE
8
BLACK
6
CONTINUOUS
10
105.038
20
-89.4895
11
105.047
21
-89.5401
0
LINE
8
BLACK
6
CONTINUOUS
10
105.047
20
-89.5401
11
105.022
21
-89.5845
0
LINE
8
BLACK
6
CONTINUOUS
10
105.022
20
-89.5845
11
104.973
21
-89.602
0
LINE
8
BLACK
6
CONTINUOUS
10
104.973
20
-89.602
11
104.905
21
-89.602
0
LINE
8
BLACK
6
CONTINUOUS
10
104.905
20
-89.602
11
104.905
21
-89.8604
0
LINE
8
BLACK
6
CONTINUOUS
10
104.905
20
-89.8604
11
104.901
21
-89.886
0
LINE
8
BLACK
6
CONTINUOUS
10
104.901
20
-89.886
11
104.868
21
-89.9253
0
LINE
8
BLACK
6
CONTINUOUS
10
104.868
20
-89.9253
11
104.817
21
-89.9342
0
LINE
8
BLACK
6
CONTINUOUS
10
104.817
20
-89.9342
11
104.773
21
-89.9086
0
LINE
8
BLACK
6
CONTINUOUS
10
104.773
20
-89.9086
11
104.755
21
-89.8604
0
LINE
8
BLACK
6
CONTINUOUS
10
104.755
20
-89.8604
11
104.755
21
-89.602
0
LINE
8
BLACK
6
CONTINUOUS
10
104.755
20
-89.602
11
104.354
21
-89.602
0
LINE
8
BLACK
6
CONTINUOUS
10
104.354
20
-89.602
11
104.329
21
-89.5975
0
LINE
8
BLACK
6
CONTINUOUS
10
104.329
20
-89.5975
11
104.324
21
-89.5938
0
LINE
8
BLACK
6
CONTINUOUS
10
104.324
20
-89.5938
11
104.319
21
-89.593
0
LINE
8
BLACK
6
CONTINUOUS
10
104.319
20
-89.593
11
104.305
21
-89.5777
0
LINE
8
BLACK
6
CONTINUOUS
10
104.305
20
-89.5777
11
104.289
21
-89.5645
0
LINE
8
BLACK
6
CONTINUOUS
10
104.289
20
-89.5645
11
104.288
21
-89.5589
0
LINE
8
BLACK
6
CONTINUOUS
10
104.288
20
-89.5589
11
104.285
21
-89.5546
0
LINE
8
BLACK
6
CONTINUOUS
10
104.285
20
-89.5546
11
104.284
21
-89.5342
0
LINE
8
BLACK
6
CONTINUOUS
10
104.284
20
-89.5342
11
104.28
21
-89.514
0
LINE
8
BLACK
6
CONTINUOUS
10
104.28
20
-89.514
11
104.283
21
-89.5091
0
LINE
8
BLACK
6
CONTINUOUS
10
104.283
20
-89.5091
11
104.283
21
-89.5033
0
LINE
8
BLACK
6
CONTINUOUS
10
104.283
20
-89.5033
11
104.521
21
-88.789
0
LINE
8
BLACK
6
CONTINUOUS
10
104.521
20
-88.789
11
104.534
21
-88.7661
0
LINE
8
BLACK
6
CONTINUOUS
10
104.534
20
-88.7661
11
104.577
21
-88.7393
0
LINE
8
BLACK
6
CONTINUOUS
10
104.577
20
-88.7393
11
104.628
21
-88.7468
0
LINE
8
BLACK
6
CONTINUOUS
10
105.23
20
-86.1266
11
105.248
21
-86.169
0
LINE
8
BLACK
6
CONTINUOUS
10
105.248
20
-86.169
11
105.248
21
-89.409
0
LINE
8
BLACK
6
CONTINUOUS
10
105.248
20
-89.409
11
109.188
21
-89.409
0
LINE
8
BLACK
6
CONTINUOUS
10
109.188
20
-89.409
11
109.23
21
-89.4266
0
LINE
8
BLACK
6
CONTINUOUS
10
109.23
20
-89.4266
11
109.248
21
-89.469
0
LINE
8
BLACK
6
CONTINUOUS
10
109.248
20
-89.469
11
109.23
21
-89.5114
0
LINE
8
BLACK
6
CONTINUOUS
10
109.23
20
-89.5114
11
109.188
21
-89.529
0
LINE
8
BLACK
6
CONTINUOUS
10
109.188
20
-89.529
11
105.188
21
-89.529
0
LINE
8
BLACK
6
CONTINUOUS
10
105.188
20
-89.529
11
105.146
21
-89.5114
0
LINE
8
BLACK
6
CONTINUOUS
10
105.146
20
-89.5114
11
105.128
21
-89.469
0
LINE
8
BLACK
6
CONTINUOUS
10
105.128
20
-89.469
11
105.128
21
-86.169
0
LINE
8
BLACK
6
CONTINUOUS
10
105.128
20
-86.169
11
105.146
21
-86.1266
0
LINE
8
BLACK
6
CONTINUOUS
10
105.146
20
-86.1266
11
105.188
21
-86.109
0
LINE
8
BLACK
6
CONTINUOUS
10
105.188
20
-86.109
11
105.23
21
-86.1266
0
LINE
8
BLACK
6
CONTINUOUS
10
112.054
20
-89.3404
11
112.036
21
-89.298
0
LINE
8
BLACK
6
CONTINUOUS
10
112.036
20
-89.298
11
112.054
21
-89.2556
0
LINE
8
BLACK
6
CONTINUOUS
10
112.054
20
-89.2556
11
112.096
21
-89.238
0
LINE
8
BLACK
6
CONTINUOUS
10
112.096
20
-89.238
11
113.446
21
-89.238
0
LINE
8
BLACK
6
CONTINUOUS
10
113.446
20
-89.238
11
113.446
21
-88.638
0
LINE
8
BLACK
6
CONTINUOUS
10
113.446
20
-88.638
11
113.464
21
-88.5956
0
LINE
8
BLACK
6
CONTINUOUS
10
113.464
20
-88.5956
11
113.506
21
-88.578
0
LINE
8
BLACK
6
CONTINUOUS
10
113.506
20
-88.578
11
113.548
21
-88.5956
0
LINE
8
BLACK
6
CONTINUOUS
10
113.548
20
-88.5956
11
113.566
21
-88.638
0
LINE
8
BLACK
6
CONTINUOUS
10
113.566
20
-88.638
11
113.566
21
-89.298
0
LINE
8
BLACK
6
CONTINUOUS
10
113.566
20
-89.298
11
113.548
21
-89.3404
0
LINE
8
BLACK
6
CONTINUOUS
10
113.548
20
-89.3404
11
113.506
21
-89.358
0
LINE
8
BLACK
6
CONTINUOUS
10
113.506
20
-89.358
11
112.096
21
-89.358
0
LINE
8
BLACK
6
CONTINUOUS
10
112.096
20
-89.358
11
112.054
21
-89.3404
0
LINE
8
BLACK
6
CONTINUOUS
10
115.864
20
-89.3404
11
115.846
21
-89.298
0
LINE
8
BLACK
6
CONTINUOUS
10
115.846
20
-89.298
11
115.864
21
-89.2556
0
LINE
8
BLACK
6
CONTINUOUS
10
115.864
20
-89.2556
11
115.906
21
-89.238
0
LINE
8
BLACK
6
CONTINUOUS
10
115.906
20
-89.238
11
117.256
21
-89.238
0
LINE
8
BLACK
6
CONTINUOUS
10
117.256
20
-89.238
11
117.256
21
-88.638
0
LINE
8
BLACK
6
CONTINUOUS
10
117.256
20
-88.638
11
117.274
21
-88.5956
0
LINE
8
BLACK
6
CONTINUOUS
10
117.274
20
-88.5956
11
117.316
21
-88.578
0
LINE
8
BLACK
6
CONTINUOUS
10
117.316
20
-88.578
11
117.358
21
-88.5956
0
LINE
8
BLACK
6
CONTINUOUS
10
117.358
20
-88.5956
11
117.376
21
-88.638
0
LINE
8
BLACK
6
CONTINUOUS
10
117.376
20
-88.638
11
117.376
21
-89.298
0
LINE
8
BLACK
6
CONTINUOUS
10
117.376
20
-89.298
11
117.358
21
-89.3404
0
LINE
8
BLACK
6
CONTINUOUS
10
117.358
20
-89.3404
11
117.316
21
-89.358
0
LINE
8
BLACK
6
CONTINUOUS
10
117.316
20
-89.358
11
115.906
21
-89.358
0
LINE
8
BLACK
6
CONTINUOUS
10
115.906
20
-89.358
11
115.864
21
-89.3404
0
LINE
8
BLACK
6
CONTINUOUS
10
104.076
20
-87.6687
11
104.094
21
-87.7112
0
LINE
8
BLACK
6
CONTINUOUS
10
104.094
20
-87.7112
11
104.094
21
-87.9268
0
LINE
8
BLACK
6
CONTINUOUS
10
104.094
20
-87.9268
11
104.076
21
-87.9693
0
LINE
8
BLACK
6
CONTINUOUS
10
104.076
20
-87.9693
11
104.034
21
-87.9868
0
LINE
8
BLACK
6
CONTINUOUS
10
104.034
20
-87.9868
11
103.992
21
-87.9693
0
LINE
8
BLACK
6
CONTINUOUS
10
103.992
20
-87.9693
11
103.974
21
-87.9268
0
LINE
8
BLACK
6
CONTINUOUS
10
103.974
20
-87.9268
11
103.974
21
-87.7112
0
LINE
8
BLACK
6
CONTINUOUS
10
103.974
20
-87.7112
11
103.992
21
-87.6687
0
LINE
8
BLACK
6
CONTINUOUS
10
103.992
20
-87.6687
11
104.034
21
-87.6512
0
LINE
8
BLACK
6
CONTINUOUS
10
104.034
20
-87.6512
11
104.076
21
-87.6687
0
LINE
8
BLACK
6
CONTINUOUS
10
104.796
20
-87.6687
11
104.814
21
-87.7112
0
LINE
8
BLACK
6
CONTINUOUS
10
104.814
20
-87.7112
11
104.814
21
-87.9268
0
LINE
8
BLACK
6
CONTINUOUS
10
104.814
20
-87.9268
11
104.796
21
-87.9693
0
LINE
8
BLACK
6
CONTINUOUS
10
104.796
20
-87.9693
11
104.754
21
-87.9868
0
LINE
8
BLACK
6
CONTINUOUS
10
104.754
20
-87.9868
11
104.712
21
-87.9693
0
LINE
8
BLACK
6
CONTINUOUS
10
104.712
20
-87.9693
11
104.694
21
-87.9268
0
LINE
8
BLACK
6
CONTINUOUS
10
104.694
20
-87.9268
11
104.694
21
-87.7112
0
LINE
8
BLACK
6
CONTINUOUS
10
104.694
20
-87.7112
11
104.712
21
-87.6687
0
LINE
8
BLACK
6
CONTINUOUS
10
104.712
20
-87.6687
11
104.754
21
-87.6512
0
LINE
8
BLACK
6
CONTINUOUS
10
104.754
20
-87.6512
11
104.796
21
-87.6687
0
LINE
8
BLACK
6
CONTINUOUS
10
117.358
20
-86.9356
11
117.376
21
-86.978
0
LINE
8
BLACK
6
CONTINUOUS
10
117.376
20
-86.978
11
117.376
21
-87.638
0
LINE
8
BLACK
6
CONTINUOUS
10
117.376
20
-87.638
11
117.358
21
-87.6804
0
LINE
8
BLACK
6
CONTINUOUS
10
117.358
20
-87.6804
11
117.316
21
-87.698
0
LINE
8
BLACK
6
CONTINUOUS
10
117.316
20
-87.698
11
117.274
21
-87.6804
0
LINE
8
BLACK
6
CONTINUOUS
10
117.274
20
-87.6804
11
117.256
21
-87.638
0
LINE
8
BLACK
6
CONTINUOUS
10
117.256
20
-87.638
11
117.256
21
-87.038
0
LINE
8
BLACK
6
CONTINUOUS
10
117.256
20
-87.038
11
115.286
21
-87.038
0
LINE
8
BLACK
6
CONTINUOUS
10
115.286
20
-87.038
11
115.244
21
-87.0204
0
LINE
8
BLACK
6
CONTINUOUS
10
115.244
20
-87.0204
11
115.226
21
-86.978
0
LINE
8
BLACK
6
CONTINUOUS
10
115.226
20
-86.978
11
115.244
21
-86.9356
0
LINE
8
BLACK
6
CONTINUOUS
10
115.244
20
-86.9356
11
115.286
21
-86.918
0
LINE
8
BLACK
6
CONTINUOUS
10
115.286
20
-86.918
11
117.316
21
-86.918
0
LINE
8
BLACK
6
CONTINUOUS
10
117.316
20
-86.918
11
117.358
21
-86.9356
0
LINE
8
BLACK
6
CONTINUOUS
10
113.548
20
-86.9356
11
113.566
21
-86.978
0
LINE
8
BLACK
6
CONTINUOUS
10
113.566
20
-86.978
11
113.566
21
-87.638
0
LINE
8
BLACK
6
CONTINUOUS
10
113.566
20
-87.638
11
113.548
21
-87.6804
0
LINE
8
BLACK
6
CONTINUOUS
10
113.548
20
-87.6804
11
113.506
21
-87.698
0
LINE
8
BLACK
6
CONTINUOUS
10
113.506
20
-87.698
11
113.464
21
-87.6804
0
LINE
8
BLACK
6
CONTINUOUS
10
113.464
20
-87.6804
11
113.446
21
-87.638
0
LINE
8
BLACK
6
CONTINUOUS
10
113.446
20
-87.638
11
113.446
21
-87.038
0
LINE
8
BLACK
6
CONTINUOUS
10
113.446
20
-87.038
11
111.476
21
-87.038
0
LINE
8
BLACK
6
CONTINUOUS
10
111.476
20
-87.038
11
111.434
21
-87.0204
0
LINE
8
BLACK
6
CONTINUOUS
10
111.434
20
-87.0204
11
111.416
21
-86.978
0
LINE
8
BLACK
6
CONTINUOUS
10
111.416
20
-86.978
11
111.434
21
-86.9356
0
LINE
8
BLACK
6
CONTINUOUS
10
111.434
20
-86.9356
11
111.476
21
-86.918
0
LINE
8
BLACK
6
CONTINUOUS
10
111.476
20
-86.918
11
113.506
21
-86.918
0
LINE
8
BLACK
6
CONTINUOUS
10
113.506
20
-86.918
11
113.548
21
-86.9356
0
LINE
8
BLACK
6
CONTINUOUS
10
110.384
20
-87.1607
11
110.402
21
-87.2032
0
LINE
8
BLACK
6
CONTINUOUS
10
110.402
20
-87.2032
11
110.402
21
-87.4188
0
LINE
8
BLACK
6
CONTINUOUS
10
110.402
20
-87.4188
11
110.384
21
-87.4613
0
LINE
8
BLACK
6
CONTINUOUS
10
110.384
20
-87.4613
11
110.342
21
-87.4788
0
LINE
8
BLACK
6
CONTINUOUS
10
110.342
20
-87.4788
11
110.3
21
-87.4613
0
LINE
8
BLACK
6
CONTINUOUS
10
110.3
20
-87.4613
11
110.282
21
-87.4188
0
LINE
8
BLACK
6
CONTINUOUS
10
110.282
20
-87.4188
11
110.282
21
-87.2032
0
LINE
8
BLACK
6
CONTINUOUS
10
110.282
20
-87.2032
11
110.3
21
-87.1607
0
LINE
8
BLACK
6
CONTINUOUS
10
110.3
20
-87.1607
11
110.342
21
-87.1432
0
LINE
8
BLACK
6
CONTINUOUS
10
110.342
20
-87.1432
11
110.384
21
-87.1607
0
LINE
8
BLACK
6
CONTINUOUS
10
109.664
20
-87.1607
11
109.682
21
-87.2032
0
LINE
8
BLACK
6
CONTINUOUS
10
109.682
20
-87.2032
11
109.682
21
-87.4188
0
LINE
8
BLACK
6
CONTINUOUS
10
109.682
20
-87.4188
11
109.664
21
-87.4613
0
LINE
8
BLACK
6
CONTINUOUS
10
109.664
20
-87.4613
11
109.622
21
-87.4788
0
LINE
8
BLACK
6
CONTINUOUS
10
109.622
20
-87.4788
11
109.58
21
-87.4613
0
LINE
8
BLACK
6
CONTINUOUS
10
109.58
20
-87.4613
11
109.562
21
-87.4188
0
LINE
8
BLACK
6
CONTINUOUS
10
109.562
20
-87.4188
11
109.562
21
-87.2032
0
LINE
8
BLACK
6
CONTINUOUS
10
109.562
20
-87.2032
11
109.58
21
-87.1607
0
LINE
8
BLACK
6
CONTINUOUS
10
109.58
20
-87.1607
11
109.622
21
-87.1432
0
LINE
8
BLACK
6
CONTINUOUS
10
109.622
20
-87.1432
11
109.664
21
-87.1607
0
LINE
8
BLACK
6
CONTINUOUS
10
112.21
20
-86.4436
11
112.228
21
-86.486
0
LINE
8
BLACK
6
CONTINUOUS
10
112.228
20
-86.486
11
112.21
21
-86.5284
0
LINE
8
BLACK
6
CONTINUOUS
10
112.21
20
-86.5284
11
112.168
21
-86.546
0
LINE
8
BLACK
6
CONTINUOUS
10
112.168
20
-86.546
11
111.86
21
-86.546
0
LINE
8
BLACK
6
CONTINUOUS
10
111.86
20
-86.546
11
111.818
21
-86.5284
0
LINE
8
BLACK
6
CONTINUOUS
10
111.818
20
-86.5284
11
111.8
21
-86.486
0
LINE
8
BLACK
6
CONTINUOUS
10
111.8
20
-86.486
11
111.818
21
-86.4436
0
LINE
8
BLACK
6
CONTINUOUS
10
111.818
20
-86.4436
11
111.86
21
-86.426
0
LINE
8
BLACK
6
CONTINUOUS
10
111.86
20
-86.426
11
112.168
21
-86.426
0
LINE
8
BLACK
6
CONTINUOUS
10
112.168
20
-86.426
11
112.21
21
-86.4436
0
LINE
8
BLACK
6
CONTINUOUS
10
116.02
20
-86.4436
11
116.038
21
-86.486
0
LINE
8
BLACK
6
CONTINUOUS
10
116.038
20
-86.486
11
116.02
21
-86.5284
0
LINE
8
BLACK
6
CONTINUOUS
10
116.02
20
-86.5284
11
115.978
21
-86.546
0
LINE
8
BLACK
6
CONTINUOUS
10
115.978
20
-86.546
11
115.67
21
-86.546
0
LINE
8
BLACK
6
CONTINUOUS
10
115.67
20
-86.546
11
115.628
21
-86.5284
0
LINE
8
BLACK
6
CONTINUOUS
10
115.628
20
-86.5284
11
115.61
21
-86.486
0
LINE
8
BLACK
6
CONTINUOUS
10
115.61
20
-86.486
11
115.628
21
-86.4436
0
LINE
8
BLACK
6
CONTINUOUS
10
115.628
20
-86.4436
11
115.67
21
-86.426
0
LINE
8
BLACK
6
CONTINUOUS
10
115.67
20
-86.426
11
115.978
21
-86.426
0
LINE
8
BLACK
6
CONTINUOUS
10
115.978
20
-86.426
11
116.02
21
-86.4436
0
LINE
8
BLACK
6
CONTINUOUS
10
105.085
20
-84.7233
11
105.09
21
-84.7225
0
LINE
8
BLACK
6
CONTINUOUS
10
105.09
20
-84.7225
11
105.108
21
-84.7334
0
LINE
8
BLACK
6
CONTINUOUS
10
105.108
20
-84.7334
11
105.128
21
-84.7421
0
LINE
8
BLACK
6
CONTINUOUS
10
105.128
20
-84.7421
11
105.13
21
-84.746
0
LINE
8
BLACK
6
CONTINUOUS
10
105.13
20
-84.746
11
105.134
21
-84.7482
0
LINE
8
BLACK
6
CONTINUOUS
10
105.134
20
-84.7482
11
105.141
21
-84.7686
0
LINE
8
BLACK
6
CONTINUOUS
10
105.141
20
-84.7686
11
105.151
21
-84.7881
0
LINE
8
BLACK
6
CONTINUOUS
10
105.151
20
-84.7881
11
105.15
21
-84.7923
0
LINE
8
BLACK
6
CONTINUOUS
10
105.15
20
-84.7923
11
105.152
21
-84.7964
0
LINE
8
BLACK
6
CONTINUOUS
10
105.152
20
-84.7964
11
105.152
21
-85.7214
0
LINE
8
BLACK
6
CONTINUOUS
10
105.152
20
-85.7214
11
105.362
21
-85.7214
0
LINE
8
BLACK
6
CONTINUOUS
10
105.362
20
-85.7214
11
105.388
21
-85.7259
0
LINE
8
BLACK
6
CONTINUOUS
10
105.388
20
-85.7259
11
105.427
21
-85.7589
0
LINE
8
BLACK
6
CONTINUOUS
10
105.427
20
-85.7589
11
105.436
21
-85.8094
0
LINE
8
BLACK
6
CONTINUOUS
10
105.436
20
-85.8094
11
105.41
21
-85.8538
0
LINE
8
BLACK
6
CONTINUOUS
10
105.41
20
-85.8538
11
105.362
21
-85.8714
0
LINE
8
BLACK
6
CONTINUOUS
10
105.362
20
-85.8714
11
104.791
21
-85.8714
0
LINE
8
BLACK
6
CONTINUOUS
10
104.791
20
-85.8714
11
104.765
21
-85.8669
0
LINE
8
BLACK
6
CONTINUOUS
10
104.765
20
-85.8669
11
104.726
21
-85.8339
0
LINE
8
BLACK
6
CONTINUOUS
10
104.726
20
-85.8339
11
104.717
21
-85.7834
0
LINE
8
BLACK
6
CONTINUOUS
10
104.717
20
-85.7834
11
104.743
21
-85.7389
0
LINE
8
BLACK
6
CONTINUOUS
10
104.743
20
-85.7389
11
104.791
21
-85.7214
0
LINE
8
BLACK
6
CONTINUOUS
10
104.791
20
-85.7214
11
105.002
21
-85.7214
0
LINE
8
BLACK
6
CONTINUOUS
10
105.002
20
-85.7214
11
105.002
21
-85.0251
0
LINE
8
BLACK
6
CONTINUOUS
10
105.002
20
-85.0251
11
104.939
21
-85.0875
0
LINE
8
BLACK
6
CONTINUOUS
10
104.939
20
-85.0875
11
104.921
21
-85.1004
0
LINE
8
BLACK
6
CONTINUOUS
10
104.921
20
-85.1004
11
104.92
21
-85.1016
0
LINE
8
BLACK
6
CONTINUOUS
10
104.92
20
-85.1016
11
104.824
21
-85.1492
0
LINE
8
BLACK
6
CONTINUOUS
10
104.824
20
-85.1492
11
104.799
21
-85.1566
0
LINE
8
BLACK
6
CONTINUOUS
10
104.799
20
-85.1566
11
104.75
21
-85.1447
0
LINE
8
BLACK
6
CONTINUOUS
10
104.75
20
-85.1447
11
104.719
21
-85.1035
0
LINE
8
BLACK
6
CONTINUOUS
10
104.719
20
-85.1035
11
104.722
21
-85.0523
0
LINE
8
BLACK
6
CONTINUOUS
10
104.722
20
-85.0523
11
104.757
21
-85.015
0
LINE
8
BLACK
6
CONTINUOUS
10
104.757
20
-85.015
11
104.842
21
-84.9728
0
LINE
8
BLACK
6
CONTINUOUS
10
104.842
20
-84.9728
11
104.923
21
-84.8915
0
LINE
8
BLACK
6
CONTINUOUS
10
104.923
20
-84.8915
11
105.014
21
-84.7548
0
LINE
8
BLACK
6
CONTINUOUS
10
105.014
20
-84.7548
11
105.032
21
-84.7359
0
LINE
8
BLACK
6
CONTINUOUS
10
105.032
20
-84.7359
11
105.036
21
-84.7347
0
LINE
8
BLACK
6
CONTINUOUS
10
105.036
20
-84.7347
11
105.039
21
-84.7314
0
LINE
8
BLACK
6
CONTINUOUS
10
105.039
20
-84.7314
11
105.061
21
-84.7276
0
LINE
8
BLACK
6
CONTINUOUS
10
105.061
20
-84.7276
11
105.081
21
-84.7215
0
LINE
8
BLACK
6
CONTINUOUS
10
105.081
20
-84.7215
11
105.085
21
-84.7233
0
LINE
8
BLACK
6
CONTINUOUS
10
104.556
20
-84.7411
11
104.579
21
-84.7866
0
LINE
8
BLACK
6
CONTINUOUS
10
104.579
20
-84.7866
11
104.568
21
-84.8366
0
LINE
8
BLACK
6
CONTINUOUS
10
104.568
20
-84.8366
11
104.247
21
-85.342
0
LINE
8
BLACK
6
CONTINUOUS
10
104.247
20
-85.342
11
104.247
21
-85.7964
0
LINE
8
BLACK
6
CONTINUOUS
10
104.247
20
-85.7964
11
104.242
21
-85.822
0
LINE
8
BLACK
6
CONTINUOUS
10
104.242
20
-85.822
11
104.209
21
-85.8613
0
LINE
8
BLACK
6
CONTINUOUS
10
104.209
20
-85.8613
11
104.159
21
-85.8702
0
LINE
8
BLACK
6
CONTINUOUS
10
104.159
20
-85.8702
11
104.114
21
-85.8446
0
LINE
8
BLACK
6
CONTINUOUS
10
104.114
20
-85.8446
11
104.097
21
-85.7964
0
LINE
8
BLACK
6
CONTINUOUS
10
104.097
20
-85.7964
11
104.097
21
-85.342
0
LINE
8
BLACK
6
CONTINUOUS
10
104.097
20
-85.342
11
103.775
21
-84.8366
0
LINE
8
BLACK
6
CONTINUOUS
10
103.775
20
-84.8366
11
103.765
21
-84.8126
0
LINE
8
BLACK
6
CONTINUOUS
10
103.765
20
-84.8126
11
103.772
21
-84.7617
0
LINE
8
BLACK
6
CONTINUOUS
10
103.772
20
-84.7617
11
103.81
21
-84.7271
0
LINE
8
BLACK
6
CONTINUOUS
10
103.81
20
-84.7271
11
103.861
21
-84.7249
0
LINE
8
BLACK
6
CONTINUOUS
10
103.861
20
-84.7249
11
103.902
21
-84.7561
0
LINE
8
BLACK
6
CONTINUOUS
10
103.902
20
-84.7561
11
104.172
21
-85.1805
0
LINE
8
BLACK
6
CONTINUOUS
10
104.172
20
-85.1805
11
104.442
21
-84.7561
0
LINE
8
BLACK
6
CONTINUOUS
10
104.442
20
-84.7561
11
104.459
21
-84.7369
0
LINE
8
BLACK
6
CONTINUOUS
10
104.459
20
-84.7369
11
104.508
21
-84.7214
0
LINE
8
BLACK
6
CONTINUOUS
10
104.508
20
-84.7214
11
104.556
21
-84.7411
0
LINE
8
BLACK
6
CONTINUOUS
10
116.02
20
-85.6836
11
116.038
21
-85.726
0
LINE
8
BLACK
6
CONTINUOUS
10
116.038
20
-85.726
11
116.02
21
-85.7684
0
LINE
8
BLACK
6
CONTINUOUS
10
116.02
20
-85.7684
11
115.978
21
-85.786
0
LINE
8
BLACK
6
CONTINUOUS
10
115.978
20
-85.786
11
115.67
21
-85.786
0
LINE
8
BLACK
6
CONTINUOUS
10
115.67
20
-85.786
11
115.628
21
-85.7684
0
LINE
8
BLACK
6
CONTINUOUS
10
115.628
20
-85.7684
11
115.61
21
-85.726
0
LINE
8
BLACK
6
CONTINUOUS
10
115.61
20
-85.726
11
115.628
21
-85.6836
0
LINE
8
BLACK
6
CONTINUOUS
10
115.628
20
-85.6836
11
115.67
21
-85.666
0
LINE
8
BLACK
6
CONTINUOUS
10
115.67
20
-85.666
11
115.978
21
-85.666
0
LINE
8
BLACK
6
CONTINUOUS
10
115.978
20
-85.666
11
116.02
21
-85.6836
0
LINE
8
BLACK
6
CONTINUOUS
10
112.21
20
-85.6836
11
112.228
21
-85.726
0
LINE
8
BLACK
6
CONTINUOUS
10
112.228
20
-85.726
11
112.21
21
-85.7684
0
LINE
8
BLACK
6
CONTINUOUS
10
112.21
20
-85.7684
11
112.168
21
-85.786
0
LINE
8
BLACK
6
CONTINUOUS
10
112.168
20
-85.786
11
111.86
21
-85.786
0
LINE
8
BLACK
6
CONTINUOUS
10
111.86
20
-85.786
11
111.818
21
-85.7684
0
LINE
8
BLACK
6
CONTINUOUS
10
111.818
20
-85.7684
11
111.8
21
-85.726
0
LINE
8
BLACK
6
CONTINUOUS
10
111.8
20
-85.726
11
111.818
21
-85.6836
0
LINE
8
BLACK
6
CONTINUOUS
10
111.818
20
-85.6836
11
111.86
21
-85.666
0
LINE
8
BLACK
6
CONTINUOUS
10
111.86
20
-85.666
11
112.168
21
-85.666
0
LINE
8
BLACK
6
CONTINUOUS
10
112.168
20
-85.666
11
112.21
21
-85.6836
0
LINE
8
BLACK
6
CONTINUOUS
10
117.77
20
-84.6399
11
117.788
21
-84.6824
0
LINE
8
BLACK
6
CONTINUOUS
10
117.788
20
-84.6824
11
117.788
21
-84.9896
0
LINE
8
BLACK
6
CONTINUOUS
10
117.788
20
-84.9896
11
117.77
21
-85.0321
0
LINE
8
BLACK
6
CONTINUOUS
10
117.77
20
-85.0321
11
117.728
21
-85.0496
0
LINE
8
BLACK
6
CONTINUOUS
10
117.728
20
-85.0496
11
117.686
21
-85.0321
0
LINE
8
BLACK
6
CONTINUOUS
10
117.686
20
-85.0321
11
117.668
21
-84.9896
0
LINE
8
BLACK
6
CONTINUOUS
10
117.668
20
-84.9896
11
117.668
21
-84.6824
0
LINE
8
BLACK
6
CONTINUOUS
10
117.668
20
-84.6824
11
117.686
21
-84.6399
0
LINE
8
BLACK
6
CONTINUOUS
10
117.686
20
-84.6399
11
117.728
21
-84.6224
0
LINE
8
BLACK
6
CONTINUOUS
10
117.728
20
-84.6224
11
117.77
21
-84.6399
0
LINE
8
BLACK
6
CONTINUOUS
10
117.01
20
-84.6399
11
117.028
21
-84.6824
0
LINE
8
BLACK
6
CONTINUOUS
10
117.028
20
-84.6824
11
117.028
21
-84.9896
0
LINE
8
BLACK
6
CONTINUOUS
10
117.028
20
-84.9896
11
117.01
21
-85.0321
0
LINE
8
BLACK
6
CONTINUOUS
10
117.01
20
-85.0321
11
116.968
21
-85.0496
0
LINE
8
BLACK
6
CONTINUOUS
10
116.968
20
-85.0496
11
116.926
21
-85.0321
0
LINE
8
BLACK
6
CONTINUOUS
10
116.926
20
-85.0321
11
116.908
21
-84.9896
0
LINE
8
BLACK
6
CONTINUOUS
10
116.908
20
-84.9896
11
116.908
21
-84.6824
0
LINE
8
BLACK
6
CONTINUOUS
10
116.908
20
-84.6824
11
116.926
21
-84.6399
0
LINE
8
BLACK
6
CONTINUOUS
10
116.926
20
-84.6399
11
116.968
21
-84.6224
0
LINE
8
BLACK
6
CONTINUOUS
10
116.968
20
-84.6224
11
117.01
21
-84.6399
0
LINE
8
BLACK
6
CONTINUOUS
10
110.655
20
-84.8234
11
110.637
21
-84.781
0
LINE
8
BLACK
6
CONTINUOUS
10
110.637
20
-84.781
11
110.655
21
-84.7386
0
LINE
8
BLACK
6
CONTINUOUS
10
110.655
20
-84.7386
11
110.697
21
-84.721
0
LINE
8
BLACK
6
CONTINUOUS
10
110.697
20
-84.721
11
111.112
21
-84.721
0
LINE
8
BLACK
6
CONTINUOUS
10
111.112
20
-84.721
11
111.112
21
-84.306
0
LINE
8
BLACK
6
CONTINUOUS
10
111.112
20
-84.306
11
111.13
21
-84.2636
0
LINE
8
BLACK
6
CONTINUOUS
10
111.13
20
-84.2636
11
111.172
21
-84.246
0
LINE
8
BLACK
6
CONTINUOUS
10
111.172
20
-84.246
11
111.214
21
-84.2636
0
LINE
8
BLACK
6
CONTINUOUS
10
111.214
20
-84.2636
11
111.232
21
-84.306
0
LINE
8
BLACK
6
CONTINUOUS
10
111.232
20
-84.306
11
111.232
21
-84.781
0
LINE
8
BLACK
6
CONTINUOUS
10
111.232
20
-84.781
11
111.214
21
-84.8234
0
LINE
8
BLACK
6
CONTINUOUS
10
111.214
20
-84.8234
11
111.172
21
-84.841
0
LINE
8
BLACK
6
CONTINUOUS
10
111.172
20
-84.841
11
110.697
21
-84.841
0
LINE
8
BLACK
6
CONTINUOUS
10
110.697
20
-84.841
11
110.655
21
-84.8234
0
LINE
8
BLACK
6
CONTINUOUS
10
105.994
20
-84.2636
11
106.012
21
-84.306
0
LINE
8
BLACK
6
CONTINUOUS
10
106.012
20
-84.306
11
106.012
21
-84.781
0
LINE
8
BLACK
6
CONTINUOUS
10
106.012
20
-84.781
11
105.994
21
-84.8234
0
LINE
8
BLACK
6
CONTINUOUS
10
105.994
20
-84.8234
11
105.952
21
-84.841
0
LINE
8
BLACK
6
CONTINUOUS
10
105.952
20
-84.841
11
105.91
21
-84.8234
0
LINE
8
BLACK
6
CONTINUOUS
10
105.91
20
-84.8234
11
105.892
21
-84.781
0
LINE
8
BLACK
6
CONTINUOUS
10
105.892
20
-84.781
11
105.892
21
-84.306
0
LINE
8
BLACK
6
CONTINUOUS
10
105.892
20
-84.306
11
105.91
21
-84.2636
0
LINE
8
BLACK
6
CONTINUOUS
10
105.91
20
-84.2636
11
105.952
21
-84.246
0
LINE
8
BLACK
6
CONTINUOUS
10
105.952
20
-84.246
11
105.994
21
-84.2636
0
LINE
8
BLACK
6
CONTINUOUS
10
103.697
20
-83.9162
11
103.701
21
-83.9191
0
LINE
8
BLACK
6
CONTINUOUS
10
103.701
20
-83.9191
11
103.705
21
-83.9196
0
LINE
8
BLACK
6
CONTINUOUS
10
103.705
20
-83.9196
11
103.8
21
-83.9672
0
LINE
8
BLACK
6
CONTINUOUS
10
103.8
20
-83.9672
11
103.819
21
-83.9806
0
LINE
8
BLACK
6
CONTINUOUS
10
103.819
20
-83.9806
11
103.82
21
-83.9813
0
LINE
8
BLACK
6
CONTINUOUS
10
103.82
20
-83.9813
11
103.868
21
-84.0289
0
LINE
8
BLACK
6
CONTINUOUS
10
103.868
20
-84.0289
11
103.88
21
-84.0472
0
LINE
8
BLACK
6
CONTINUOUS
10
103.88
20
-84.0472
11
103.882
21
-84.0484
0
LINE
8
BLACK
6
CONTINUOUS
10
103.882
20
-84.0484
11
103.929
21
-84.1436
0
LINE
8
BLACK
6
CONTINUOUS
10
103.929
20
-84.1436
11
103.937
21
-84.1686
0
LINE
8
BLACK
6
CONTINUOUS
10
103.937
20
-84.1686
11
103.936
21
-84.1729
0
LINE
8
BLACK
6
CONTINUOUS
10
103.936
20
-84.1729
11
103.937
21
-84.1762
0
LINE
8
BLACK
6
CONTINUOUS
10
103.937
20
-84.1762
11
104.295
21
-83.9252
0
LINE
8
BLACK
6
CONTINUOUS
10
104.295
20
-83.9252
11
104.319
21
-83.9142
0
LINE
8
BLACK
6
CONTINUOUS
10
104.319
20
-83.9142
11
104.37
21
-83.9187
0
LINE
8
BLACK
6
CONTINUOUS
10
104.37
20
-83.9187
11
104.406
21
-83.955
0
LINE
8
BLACK
6
CONTINUOUS
10
104.406
20
-83.955
11
104.411
21
-84.0061
0
LINE
8
BLACK
6
CONTINUOUS
10
104.411
20
-84.0061
11
104.381
21
-84.0481
0
LINE
8
BLACK
6
CONTINUOUS
10
104.381
20
-84.0481
11
103.937
21
-84.359
0
LINE
8
BLACK
6
CONTINUOUS
10
103.937
20
-84.359
11
103.937
21
-84.4831
0
LINE
8
BLACK
6
CONTINUOUS
10
103.937
20
-84.4831
11
104.338
21
-84.4831
0
LINE
8
BLACK
6
CONTINUOUS
10
104.338
20
-84.4831
11
104.364
21
-84.4876
0
LINE
8
BLACK
6
CONTINUOUS
10
104.364
20
-84.4876
11
104.403
21
-84.5206
0
LINE
8
BLACK
6
CONTINUOUS
10
104.403
20
-84.5206
11
104.412
21
-84.5711
0
LINE
8
BLACK
6
CONTINUOUS
10
104.412
20
-84.5711
11
104.387
21
-84.6155
0
LINE
8
BLACK
6
CONTINUOUS
10
104.387
20
-84.6155
11
104.338
21
-84.6331
0
LINE
8
BLACK
6
CONTINUOUS
10
104.338
20
-84.6331
11
103.338
21
-84.6331
0
LINE
8
BLACK
6
CONTINUOUS
10
103.338
20
-84.6331
11
103.329
21
-84.6314
0
LINE
8
BLACK
6
CONTINUOUS
10
103.329
20
-84.6314
11
103.325
21
-84.632
0
LINE
8
BLACK
6
CONTINUOUS
10
103.325
20
-84.632
11
103.322
21
-84.6303
0
LINE
8
BLACK
6
CONTINUOUS
10
103.322
20
-84.6303
11
103.313
21
-84.6286
0
LINE
8
BLACK
6
CONTINUOUS
10
103.313
20
-84.6286
11
103.298
21
-84.616
0
LINE
8
BLACK
6
CONTINUOUS
10
103.298
20
-84.616
11
103.281
21
-84.6063
0
LINE
8
BLACK
6
CONTINUOUS
10
103.281
20
-84.6063
11
103.279
21
-84.5999
0
LINE
8
BLACK
6
CONTINUOUS
10
103.279
20
-84.5999
11
103.273
21
-84.5956
0
LINE
8
BLACK
6
CONTINUOUS
10
103.273
20
-84.5956
11
103.27
21
-84.5764
0
LINE
8
BLACK
6
CONTINUOUS
10
103.27
20
-84.5764
11
103.263
21
-84.5581
0
LINE
8
BLACK
6
CONTINUOUS
10
103.263
20
-84.5581
11
103.263
21
-84.1771
0
LINE
8
BLACK
6
CONTINUOUS
10
103.263
20
-84.1771
11
103.268
21
-84.1515
0
LINE
8
BLACK
6
CONTINUOUS
10
103.268
20
-84.1515
11
103.271
21
-84.1481
0
LINE
8
BLACK
6
CONTINUOUS
10
103.271
20
-84.1481
11
103.271
21
-84.1436
0
LINE
8
BLACK
6
CONTINUOUS
10
103.271
20
-84.1436
11
103.319
21
-84.0484
0
LINE
8
BLACK
6
CONTINUOUS
10
103.319
20
-84.0484
11
103.332
21
-84.0304
0
LINE
8
BLACK
6
CONTINUOUS
10
103.332
20
-84.0304
11
103.333
21
-84.0289
0
LINE
8
BLACK
6
CONTINUOUS
10
103.333
20
-84.0289
11
103.381
21
-83.9813
0
LINE
8
BLACK
6
CONTINUOUS
10
103.381
20
-83.9813
11
103.399
21
-83.9684
0
LINE
8
BLACK
6
CONTINUOUS
10
103.399
20
-83.9684
11
103.4
21
-83.9672
0
LINE
8
BLACK
6
CONTINUOUS
10
103.4
20
-83.9672
11
103.495
21
-83.9196
0
LINE
8
BLACK
6
CONTINUOUS
10
103.495
20
-83.9196
11
103.52
21
-83.9122
0
LINE
8
BLACK
6
CONTINUOUS
10
103.52
20
-83.9122
11
103.525
21
-83.9132
0
LINE
8
BLACK
6
CONTINUOUS
10
103.525
20
-83.9132
11
103.529
21
-83.9117
0
LINE
8
BLACK
6
CONTINUOUS
10
103.529
20
-83.9117
11
103.672
21
-83.9117
0
LINE
8
BLACK
6
CONTINUOUS
10
103.672
20
-83.9117
11
103.697
21
-83.9162
0
LINE
8
BLACK
6
CONTINUOUS
10
103.547
20
-84.0617
11
103.478
21
-84.0959
0
LINE
8
BLACK
6
CONTINUOUS
10
103.478
20
-84.0959
11
103.448
21
-84.1263
0
LINE
8
BLACK
6
CONTINUOUS
10
103.448
20
-84.1263
11
103.413
21
-84.1948
0
LINE
8
BLACK
6
CONTINUOUS
10
103.413
20
-84.1948
11
103.413
21
-84.4831
0
LINE
8
BLACK
6
CONTINUOUS
10
103.413
20
-84.4831
11
103.787
21
-84.4831
0
LINE
8
BLACK
6
CONTINUOUS
10
103.787
20
-84.4831
11
103.787
21
-84.1948
0
LINE
8
BLACK
6
CONTINUOUS
10
103.787
20
-84.1948
11
103.753
21
-84.1263
0
LINE
8
BLACK
6
CONTINUOUS
10
103.753
20
-84.1263
11
103.723
21
-84.0959
0
LINE
8
BLACK
6
CONTINUOUS
10
103.723
20
-84.0959
11
103.654
21
-84.0617
0
LINE
8
BLACK
6
CONTINUOUS
10
103.654
20
-84.0617
11
103.547
21
-84.0617
0
LINE
8
BLACK
6
CONTINUOUS
10
116.741
20
-84.2692
11
116.76
21
-84.328
0
LINE
8
BLACK
6
CONTINUOUS
10
116.76
20
-84.328
11
116.741
21
-84.3868
0
LINE
8
BLACK
6
CONTINUOUS
10
116.741
20
-84.3868
11
116.691
21
-84.4231
0
LINE
8
BLACK
6
CONTINUOUS
10
116.691
20
-84.4231
11
116.629
21
-84.4231
0
LINE
8
BLACK
6
CONTINUOUS
10
116.629
20
-84.4231
11
116.579
21
-84.3868
0
LINE
8
BLACK
6
CONTINUOUS
10
116.579
20
-84.3868
11
116.56
21
-84.328
0
LINE
8
BLACK
6
CONTINUOUS
10
116.56
20
-84.328
11
116.579
21
-84.2692
0
LINE
8
BLACK
6
CONTINUOUS
10
116.579
20
-84.2692
11
116.629
21
-84.2329
0
LINE
8
BLACK
6
CONTINUOUS
10
116.629
20
-84.2329
11
116.691
21
-84.2329
0
LINE
8
BLACK
6
CONTINUOUS
10
116.691
20
-84.2329
11
116.741
21
-84.2692
0
LINE
8
BLACK
6
CONTINUOUS
10
104.396
20
-82.9861
11
104.413
21
-83.0343
0
LINE
8
BLACK
6
CONTINUOUS
10
104.413
20
-83.0343
11
104.413
21
-83.6057
0
LINE
8
BLACK
6
CONTINUOUS
10
104.413
20
-83.6057
11
104.409
21
-83.6314
0
LINE
8
BLACK
6
CONTINUOUS
10
104.409
20
-83.6314
11
104.376
21
-83.6707
0
LINE
8
BLACK
6
CONTINUOUS
10
104.376
20
-83.6707
11
104.325
21
-83.6796
0
LINE
8
BLACK
6
CONTINUOUS
10
104.325
20
-83.6796
11
104.281
21
-83.6539
0
LINE
8
BLACK
6
CONTINUOUS
10
104.281
20
-83.6539
11
104.263
21
-83.6057
0
LINE
8
BLACK
6
CONTINUOUS
10
104.263
20
-83.6057
11
104.263
21
-83.395
0
LINE
8
BLACK
6
CONTINUOUS
10
104.263
20
-83.395
11
103.567
21
-83.395
0
LINE
8
BLACK
6
CONTINUOUS
10
103.567
20
-83.395
11
103.63
21
-83.4574
0
LINE
8
BLACK
6
CONTINUOUS
10
103.63
20
-83.4574
11
103.642
21
-83.4758
0
LINE
8
BLACK
6
CONTINUOUS
10
103.642
20
-83.4758
11
103.644
21
-83.4769
0
LINE
8
BLACK
6
CONTINUOUS
10
103.644
20
-83.4769
11
103.691
21
-83.5722
0
LINE
8
BLACK
6
CONTINUOUS
10
103.691
20
-83.5722
11
103.699
21
-83.5971
0
LINE
8
BLACK
6
CONTINUOUS
10
103.699
20
-83.5971
11
103.687
21
-83.647
0
LINE
8
BLACK
6
CONTINUOUS
10
103.687
20
-83.647
11
103.645
21
-83.6776
0
LINE
8
BLACK
6
CONTINUOUS
10
103.645
20
-83.6776
11
103.594
21
-83.6745
0
LINE
8
BLACK
6
CONTINUOUS
10
103.594
20
-83.6745
11
103.557
21
-83.6393
0
LINE
8
BLACK
6
CONTINUOUS
10
103.557
20
-83.6393
11
103.515
21
-83.5549
0
LINE
8
BLACK
6
CONTINUOUS
10
103.515
20
-83.5549
11
103.433
21
-83.4735
0
LINE
8
BLACK
6
CONTINUOUS
10
103.433
20
-83.4735
11
103.297
21
-83.3824
0
LINE
8
BLACK
6
CONTINUOUS
10
103.297
20
-83.3824
11
103.278
21
-83.3644
0
LINE
8
BLACK
6
CONTINUOUS
10
103.278
20
-83.3644
11
103.277
21
-83.3603
0
LINE
8
BLACK
6
CONTINUOUS
10
103.277
20
-83.3603
11
103.273
21
-83.3575
0
LINE
8
BLACK
6
CONTINUOUS
10
103.273
20
-83.3575
11
103.27
21
-83.3361
0
LINE
8
BLACK
6
CONTINUOUS
10
103.27
20
-83.3361
11
103.264
21
-83.3152
0
LINE
8
BLACK
6
CONTINUOUS
10
103.264
20
-83.3152
11
103.265
21
-83.3112
0
LINE
8
BLACK
6
CONTINUOUS
10
103.265
20
-83.3112
11
103.265
21
-83.307
0
LINE
8
BLACK
6
CONTINUOUS
10
103.265
20
-83.307
11
103.275
21
-83.2881
0
LINE
8
BLACK
6
CONTINUOUS
10
103.275
20
-83.2881
11
103.284
21
-83.2682
0
LINE
8
BLACK
6
CONTINUOUS
10
103.284
20
-83.2682
11
103.288
21
-83.2663
0
LINE
8
BLACK
6
CONTINUOUS
10
103.288
20
-83.2663
11
103.29
21
-83.2625
0
LINE
8
BLACK
6
CONTINUOUS
10
103.29
20
-83.2625
11
103.311
21
-83.2551
0
LINE
8
BLACK
6
CONTINUOUS
10
103.311
20
-83.2551
11
103.33
21
-83.2455
0
LINE
8
BLACK
6
CONTINUOUS
10
103.33
20
-83.2455
11
103.334
21
-83.2465
0
LINE
8
BLACK
6
CONTINUOUS
10
103.334
20
-83.2465
11
103.338
21
-83.245
0
LINE
8
BLACK
6
CONTINUOUS
10
103.338
20
-83.245
11
104.263
21
-83.245
0
LINE
8
BLACK
6
CONTINUOUS
10
104.263
20
-83.245
11
104.263
21
-83.0343
0
LINE
8
BLACK
6
CONTINUOUS
10
104.263
20
-83.0343
11
104.268
21
-83.0086
0
LINE
8
BLACK
6
CONTINUOUS
10
104.268
20
-83.0086
11
104.301
21
-82.9693
0
LINE
8
BLACK
6
CONTINUOUS
10
104.301
20
-82.9693
11
104.351
21
-82.9604
0
LINE
8
BLACK
6
CONTINUOUS
10
104.351
20
-82.9604
11
104.396
21
-82.9861
0
LINE
8
BLACK
6
CONTINUOUS
10
114.764
20
-80.8456
11
114.782
21
-80.888
0
LINE
8
BLACK
6
CONTINUOUS
10
114.782
20
-80.888
11
114.782
21
-83.338
0
LINE
8
BLACK
6
CONTINUOUS
10
114.782
20
-83.338
11
114.764
21
-83.3804
0
LINE
8
BLACK
6
CONTINUOUS
10
114.764
20
-83.3804
11
114.722
21
-83.398
0
LINE
8
BLACK
6
CONTINUOUS
10
114.722
20
-83.398
11
114.68
21
-83.3804
0
LINE
8
BLACK
6
CONTINUOUS
10
114.68
20
-83.3804
11
114.662
21
-83.338
0
LINE
8
BLACK
6
CONTINUOUS
10
114.662
20
-83.338
11
114.662
21
-80.888
0
LINE
8
BLACK
6
CONTINUOUS
10
114.662
20
-80.888
11
114.68
21
-80.8456
0
LINE
8
BLACK
6
CONTINUOUS
10
114.68
20
-80.8456
11
114.722
21
-80.828
0
LINE
8
BLACK
6
CONTINUOUS
10
114.722
20
-80.828
11
114.764
21
-80.8456
0
LINE
8
BLACK
6
CONTINUOUS
10
117.984
20
-80.8456
11
118.002
21
-80.888
0
LINE
8
BLACK
6
CONTINUOUS
10
118.002
20
-80.888
11
118.002
21
-82.688
0
LINE
8
BLACK
6
CONTINUOUS
10
118.002
20
-82.688
11
117.984
21
-82.7304
0
LINE
8
BLACK
6
CONTINUOUS
10
117.984
20
-82.7304
11
117.942
21
-82.748
0
LINE
8
BLACK
6
CONTINUOUS
10
117.942
20
-82.748
11
117.9
21
-82.7304
0
LINE
8
BLACK
6
CONTINUOUS
10
117.9
20
-82.7304
11
117.882
21
-82.688
0
LINE
8
BLACK
6
CONTINUOUS
10
117.882
20
-82.688
11
117.882
21
-80.888
0
LINE
8
BLACK
6
CONTINUOUS
10
117.882
20
-80.888
11
117.9
21
-80.8456
0
LINE
8
BLACK
6
CONTINUOUS
10
117.9
20
-80.8456
11
117.942
21
-80.828
0
LINE
8
BLACK
6
CONTINUOUS
10
117.942
20
-80.828
11
117.984
21
-80.8456
0
LINE
8
BLACK
6
CONTINUOUS
10
103.548
20
-81.8459
11
103.566
21
-81.8884
0
LINE
8
BLACK
6
CONTINUOUS
10
103.566
20
-81.8884
11
103.566
21
-82.1956
0
LINE
8
BLACK
6
CONTINUOUS
10
103.566
20
-82.1956
11
103.548
21
-82.2381
0
LINE
8
BLACK
6
CONTINUOUS
10
103.548
20
-82.2381
11
103.506
21
-82.2556
0
LINE
8
BLACK
6
CONTINUOUS
10
103.506
20
-82.2556
11
103.464
21
-82.2381
0
LINE
8
BLACK
6
CONTINUOUS
10
103.464
20
-82.2381
11
103.446
21
-82.1956
0
LINE
8
BLACK
6
CONTINUOUS
10
103.446
20
-82.1956
11
103.446
21
-81.8884
0
LINE
8
BLACK
6
CONTINUOUS
10
103.446
20
-81.8884
11
103.464
21
-81.8459
0
LINE
8
BLACK
6
CONTINUOUS
10
103.464
20
-81.8459
11
103.506
21
-81.8284
0
LINE
8
BLACK
6
CONTINUOUS
10
103.506
20
-81.8284
11
103.548
21
-81.8459
0
LINE
8
BLACK
6
CONTINUOUS
10
104.308
20
-81.8459
11
104.326
21
-81.8884
0
LINE
8
BLACK
6
CONTINUOUS
10
104.326
20
-81.8884
11
104.326
21
-82.1956
0
LINE
8
BLACK
6
CONTINUOUS
10
104.326
20
-82.1956
11
104.308
21
-82.2381
0
LINE
8
BLACK
6
CONTINUOUS
10
104.308
20
-82.2381
11
104.266
21
-82.2556
0
LINE
8
BLACK
6
CONTINUOUS
10
104.266
20
-82.2556
11
104.224
21
-82.2381
0
LINE
8
BLACK
6
CONTINUOUS
10
104.224
20
-82.2381
11
104.206
21
-82.1956
0
LINE
8
BLACK
6
CONTINUOUS
10
104.206
20
-82.1956
11
104.206
21
-81.8884
0
LINE
8
BLACK
6
CONTINUOUS
10
104.206
20
-81.8884
11
104.224
21
-81.8459
0
LINE
8
BLACK
6
CONTINUOUS
10
104.224
20
-81.8459
11
104.266
21
-81.8284
0
LINE
8
BLACK
6
CONTINUOUS
10
104.266
20
-81.8284
11
104.308
21
-81.8459
0
LINE
8
BLACK
6
CONTINUOUS
10
111.214
20
-79.5186
11
111.232
21
-79.561
0
LINE
8
BLACK
6
CONTINUOUS
10
111.232
20
-79.561
11
111.232
21
-80.036
0
LINE
8
BLACK
6
CONTINUOUS
10
111.232
20
-80.036
11
111.214
21
-80.0784
0
LINE
8
BLACK
6
CONTINUOUS
10
111.214
20
-80.0784
11
111.172
21
-80.096
0
LINE
8
BLACK
6
CONTINUOUS
10
111.172
20
-80.096
11
111.13
21
-80.0784
0
LINE
8
BLACK
6
CONTINUOUS
10
111.13
20
-80.0784
11
111.112
21
-80.036
0
LINE
8
BLACK
6
CONTINUOUS
10
111.112
20
-80.036
11
111.112
21
-79.621
0
LINE
8
BLACK
6
CONTINUOUS
10
111.112
20
-79.621
11
110.697
21
-79.621
0
LINE
8
BLACK
6
CONTINUOUS
10
110.697
20
-79.621
11
110.655
21
-79.6034
0
LINE
8
BLACK
6
CONTINUOUS
10
110.655
20
-79.6034
11
110.637
21
-79.561
0
LINE
8
BLACK
6
CONTINUOUS
10
110.637
20
-79.561
11
110.655
21
-79.5186
0
LINE
8
BLACK
6
CONTINUOUS
10
110.655
20
-79.5186
11
110.697
21
-79.501
0
LINE
8
BLACK
6
CONTINUOUS
10
110.697
20
-79.501
11
111.172
21
-79.501
0
LINE
8
BLACK
6
CONTINUOUS
10
111.172
20
-79.501
11
111.214
21
-79.5186
0
LINE
8
BLACK
6
CONTINUOUS
10
106.469
20
-79.5186
11
106.487
21
-79.561
0
LINE
8
BLACK
6
CONTINUOUS
10
106.487
20
-79.561
11
106.469
21
-79.6034
0
LINE
8
BLACK
6
CONTINUOUS
10
106.469
20
-79.6034
11
106.427
21
-79.621
0
LINE
8
BLACK
6
CONTINUOUS
10
106.427
20
-79.621
11
106.012
21
-79.621
0
LINE
8
BLACK
6
CONTINUOUS
10
106.012
20
-79.621
11
106.012
21
-80.036
0
LINE
8
BLACK
6
CONTINUOUS
10
106.012
20
-80.036
11
105.994
21
-80.0784
0
LINE
8
BLACK
6
CONTINUOUS
10
105.994
20
-80.0784
11
105.952
21
-80.096
0
LINE
8
BLACK
6
CONTINUOUS
10
105.952
20
-80.096
11
105.91
21
-80.0784
0
LINE
8
BLACK
6
CONTINUOUS
10
105.91
20
-80.0784
11
105.892
21
-80.036
0
LINE
8
BLACK
6
CONTINUOUS
10
105.892
20
-80.036
11
105.892
21
-79.561
0
LINE
8
BLACK
6
CONTINUOUS
10
105.892
20
-79.561
11
105.91
21
-79.5186
0
LINE
8
BLACK
6
CONTINUOUS
10
105.91
20
-79.5186
11
105.952
21
-79.501
0
LINE
8
BLACK
6
CONTINUOUS
10
105.952
20
-79.501
11
106.427
21
-79.501
0
LINE
8
BLACK
6
CONTINUOUS
10
106.427
20
-79.501
11
106.469
21
-79.5186
0
LINE
8
BLACK
6
CONTINUOUS
10
116.515
20
-79.2076
11
116.533
21
-79.25
0
LINE
8
BLACK
6
CONTINUOUS
10
116.533
20
-79.25
11
116.515
21
-79.2924
0
LINE
8
BLACK
6
CONTINUOUS
10
116.515
20
-79.2924
11
116.473
21
-79.31
0
LINE
8
BLACK
6
CONTINUOUS
10
116.473
20
-79.31
11
116.191
21
-79.31
0
LINE
8
BLACK
6
CONTINUOUS
10
116.191
20
-79.31
11
116.149
21
-79.2924
0
LINE
8
BLACK
6
CONTINUOUS
10
116.149
20
-79.2924
11
116.131
21
-79.25
0
LINE
8
BLACK
6
CONTINUOUS
10
116.131
20
-79.25
11
116.149
21
-79.2076
0
LINE
8
BLACK
6
CONTINUOUS
10
116.149
20
-79.2076
11
116.191
21
-79.19
0
LINE
8
BLACK
6
CONTINUOUS
10
116.191
20
-79.19
11
116.473
21
-79.19
0
LINE
8
BLACK
6
CONTINUOUS
10
116.473
20
-79.19
11
116.515
21
-79.2076
0
LINE
8
BLACK
6
CONTINUOUS
10
111.662
20
-78.3456
11
111.71
21
-78.3933
0
LINE
8
BLACK
6
CONTINUOUS
10
111.71
20
-78.3933
11
111.725
21
-78.4146
0
LINE
8
BLACK
6
CONTINUOUS
10
111.725
20
-78.4146
11
111.725
21
-78.4191
0
LINE
8
BLACK
6
CONTINUOUS
10
111.725
20
-78.4191
11
111.728
21
-78.4226
0
LINE
8
BLACK
6
CONTINUOUS
10
111.728
20
-78.4226
11
111.776
21
-78.5654
0
LINE
8
BLACK
6
CONTINUOUS
10
111.776
20
-78.5654
11
111.779
21
-78.5876
0
LINE
8
BLACK
6
CONTINUOUS
10
111.779
20
-78.5876
11
111.779
21
-78.5891
0
LINE
8
BLACK
6
CONTINUOUS
10
111.779
20
-78.5891
11
111.779
21
-78.6844
0
LINE
8
BLACK
6
CONTINUOUS
10
111.779
20
-78.6844
11
111.775
21
-78.7065
0
LINE
8
BLACK
6
CONTINUOUS
10
111.775
20
-78.7065
11
111.776
21
-78.7081
0
LINE
8
BLACK
6
CONTINUOUS
10
111.776
20
-78.7081
11
111.728
21
-78.851
0
LINE
8
BLACK
6
CONTINUOUS
10
111.728
20
-78.851
11
111.716
21
-78.8739
0
LINE
8
BLACK
6
CONTINUOUS
10
111.716
20
-78.8739
11
111.712
21
-78.8762
0
LINE
8
BLACK
6
CONTINUOUS
10
111.712
20
-78.8762
11
111.71
21
-78.8803
0
LINE
8
BLACK
6
CONTINUOUS
10
111.71
20
-78.8803
11
111.615
21
-78.9755
0
LINE
8
BLACK
6
CONTINUOUS
10
111.615
20
-78.9755
11
111.596
21
-78.9884
0
LINE
8
BLACK
6
CONTINUOUS
10
111.596
20
-78.9884
11
111.595
21
-78.9896
0
LINE
8
BLACK
6
CONTINUOUS
10
111.595
20
-78.9896
11
111.5
21
-79.0372
0
LINE
8
BLACK
6
CONTINUOUS
10
111.5
20
-79.0372
11
111.487
21
-79.0409
0
LINE
8
BLACK
6
CONTINUOUS
10
111.487
20
-79.0409
11
111.484
21
-79.0429
0
LINE
8
BLACK
6
CONTINUOUS
10
111.484
20
-79.0429
11
111.294
21
-79.0905
0
LINE
8
BLACK
6
CONTINUOUS
10
111.294
20
-79.0905
11
111.279
21
-79.0915
0
LINE
8
BLACK
6
CONTINUOUS
10
111.279
20
-79.0915
11
111.276
21
-79.0927
0
LINE
8
BLACK
6
CONTINUOUS
10
111.276
20
-79.0927
11
111.133
21
-79.0927
0
LINE
8
BLACK
6
CONTINUOUS
10
111.133
20
-79.0927
11
111.118
21
-79.0901
0
LINE
8
BLACK
6
CONTINUOUS
10
111.118
20
-79.0901
11
111.115
21
-79.0905
0
LINE
8
BLACK
6
CONTINUOUS
10
111.115
20
-79.0905
11
110.924
21
-79.0429
0
LINE
8
BLACK
6
CONTINUOUS
10
110.924
20
-79.0429
11
110.912
21
-79.0376
0
LINE
8
BLACK
6
CONTINUOUS
10
110.912
20
-79.0376
11
110.909
21
-79.0372
0
LINE
8
BLACK
6
CONTINUOUS
10
110.909
20
-79.0372
11
110.814
21
-78.9896
0
LINE
8
BLACK
6
CONTINUOUS
10
110.814
20
-78.9896
11
110.796
21
-78.9762
0
LINE
8
BLACK
6
CONTINUOUS
10
110.796
20
-78.9762
11
110.794
21
-78.9755
0
LINE
8
BLACK
6
CONTINUOUS
10
110.794
20
-78.9755
11
110.699
21
-78.8803
0
LINE
8
BLACK
6
CONTINUOUS
10
110.699
20
-78.8803
11
110.684
21
-78.8589
0
LINE
8
BLACK
6
CONTINUOUS
10
110.684
20
-78.8589
11
110.684
21
-78.8545
0
LINE
8
BLACK
6
CONTINUOUS
10
110.684
20
-78.8545
11
110.681
21
-78.851
0
LINE
8
BLACK
6
CONTINUOUS
10
110.681
20
-78.851
11
110.633
21
-78.7081
0
LINE
8
BLACK
6
CONTINUOUS
10
110.633
20
-78.7081
11
110.63
21
-78.6859
0
LINE
8
BLACK
6
CONTINUOUS
10
110.63
20
-78.6859
11
110.629
21
-78.6844
0
LINE
8
BLACK
6
CONTINUOUS
10
110.629
20
-78.6844
11
110.629
21
-78.5891
0
LINE
8
BLACK
6
CONTINUOUS
10
110.629
20
-78.5891
11
110.633
21
-78.5671
0
LINE
8
BLACK
6
CONTINUOUS
10
110.633
20
-78.5671
11
110.633
21
-78.5654
0
LINE
8
BLACK
6
CONTINUOUS
10
110.633
20
-78.5654
11
110.681
21
-78.4226
0
LINE
8
BLACK
6
CONTINUOUS
10
110.681
20
-78.4226
11
110.693
21
-78.3997
0
LINE
8
BLACK
6
CONTINUOUS
10
110.693
20
-78.3997
11
110.697
21
-78.3973
0
LINE
8
BLACK
6
CONTINUOUS
10
110.697
20
-78.3973
11
110.699
21
-78.3933
0
LINE
8
BLACK
6
CONTINUOUS
10
110.699
20
-78.3933
11
110.747
21
-78.3456
0
LINE
8
BLACK
6
CONTINUOUS
10
110.747
20
-78.3456
11
110.768
21
-78.3307
0
LINE
8
BLACK
6
CONTINUOUS
10
110.768
20
-78.3307
11
110.819
21
-78.3262
0
LINE
8
BLACK
6
CONTINUOUS
10
110.819
20
-78.3262
11
110.861
21
-78.3556
0
LINE
8
BLACK
6
CONTINUOUS
10
110.861
20
-78.3556
11
110.874
21
-78.4052
0
LINE
8
BLACK
6
CONTINUOUS
10
110.874
20
-78.4052
11
110.853
21
-78.4517
0
LINE
8
BLACK
6
CONTINUOUS
10
110.853
20
-78.4517
11
110.818
21
-78.4868
0
LINE
8
BLACK
6
CONTINUOUS
10
110.818
20
-78.4868
11
110.779
21
-78.6013
0
LINE
8
BLACK
6
CONTINUOUS
10
110.779
20
-78.6013
11
110.779
21
-78.6722
0
LINE
8
BLACK
6
CONTINUOUS
10
110.779
20
-78.6722
11
110.818
21
-78.7867
0
LINE
8
BLACK
6
CONTINUOUS
10
110.818
20
-78.7867
11
110.892
21
-78.8608
0
LINE
8
BLACK
6
CONTINUOUS
10
110.892
20
-78.8608
11
110.969
21
-78.8993
0
LINE
8
BLACK
6
CONTINUOUS
10
110.969
20
-78.8993
11
111.142
21
-78.9427
0
LINE
8
BLACK
6
CONTINUOUS
10
111.142
20
-78.9427
11
111.267
21
-78.9427
0
LINE
8
BLACK
6
CONTINUOUS
10
111.267
20
-78.9427
11
111.44
21
-78.8993
0
LINE
8
BLACK
6
CONTINUOUS
10
111.44
20
-78.8993
11
111.517
21
-78.8608
0
LINE
8
BLACK
6
CONTINUOUS
10
111.517
20
-78.8608
11
111.591
21
-78.7867
0
LINE
8
BLACK
6
CONTINUOUS
10
111.591
20
-78.7867
11
111.629
21
-78.6722
0
LINE
8
BLACK
6
CONTINUOUS
10
111.629
20
-78.6722
11
111.629
21
-78.6013
0
LINE
8
BLACK
6
CONTINUOUS
10
111.629
20
-78.6013
11
111.591
21
-78.4868
0
LINE
8
BLACK
6
CONTINUOUS
10
111.591
20
-78.4868
11
111.556
21
-78.4517
0
LINE
8
BLACK
6
CONTINUOUS
10
111.556
20
-78.4517
11
111.541
21
-78.4304
0
LINE
8
BLACK
6
CONTINUOUS
10
111.541
20
-78.4304
11
111.537
21
-78.3793
0
LINE
8
BLACK
6
CONTINUOUS
10
111.537
20
-78.3793
11
111.566
21
-78.3372
0
LINE
8
BLACK
6
CONTINUOUS
10
111.566
20
-78.3372
11
111.616
21
-78.324
0
LINE
8
BLACK
6
CONTINUOUS
10
111.616
20
-78.324
11
111.662
21
-78.3456
0
LINE
8
BLACK
6
CONTINUOUS
10
106.451
20
-77.8653
11
106.455
21
-77.8645
0
LINE
8
BLACK
6
CONTINUOUS
10
106.455
20
-77.8645
11
106.474
21
-77.8754
0
LINE
8
BLACK
6
CONTINUOUS
10
106.474
20
-77.8754
11
106.494
21
-77.8841
0
LINE
8
BLACK
6
CONTINUOUS
10
106.494
20
-77.8841
11
106.496
21
-77.888
0
LINE
8
BLACK
6
CONTINUOUS
10
106.496
20
-77.888
11
106.499
21
-77.8902
0
LINE
8
BLACK
6
CONTINUOUS
10
106.499
20
-77.8902
11
106.507
21
-77.9106
0
LINE
8
BLACK
6
CONTINUOUS
10
106.507
20
-77.9106
11
106.516
21
-77.9301
0
LINE
8
BLACK
6
CONTINUOUS
10
106.516
20
-77.9301
11
106.515
21
-77.9343
0
LINE
8
BLACK
6
CONTINUOUS
10
106.515
20
-77.9343
11
106.517
21
-77.9384
0
LINE
8
BLACK
6
CONTINUOUS
10
106.517
20
-77.9384
11
106.517
21
-78.8634
0
LINE
8
BLACK
6
CONTINUOUS
10
106.517
20
-78.8634
11
106.728
21
-78.8634
0
LINE
8
BLACK
6
CONTINUOUS
10
106.728
20
-78.8634
11
106.753
21
-78.8679
0
LINE
8
BLACK
6
CONTINUOUS
10
106.753
20
-78.8679
11
106.792
21
-78.9009
0
LINE
8
BLACK
6
CONTINUOUS
10
106.792
20
-78.9009
11
106.801
21
-78.9514
0
LINE
8
BLACK
6
CONTINUOUS
10
106.801
20
-78.9514
11
106.776
21
-78.9958
0
LINE
8
BLACK
6
CONTINUOUS
10
106.776
20
-78.9958
11
106.728
21
-79.0134
0
LINE
8
BLACK
6
CONTINUOUS
10
106.728
20
-79.0134
11
106.156
21
-79.0134
0
LINE
8
BLACK
6
CONTINUOUS
10
106.156
20
-79.0134
11
106.13
21
-79.0089
0
LINE
8
BLACK
6
CONTINUOUS
10
106.13
20
-79.0089
11
106.091
21
-78.9759
0
LINE
8
BLACK
6
CONTINUOUS
10
106.091
20
-78.9759
11
106.082
21
-78.9254
0
LINE
8
BLACK
6
CONTINUOUS
10
106.082
20
-78.9254
11
106.108
21
-78.8809
0
LINE
8
BLACK
6
CONTINUOUS
10
106.108
20
-78.8809
11
106.156
21
-78.8634
0
LINE
8
BLACK
6
CONTINUOUS
10
106.156
20
-78.8634
11
106.367
21
-78.8634
0
LINE
8
BLACK
6
CONTINUOUS
10
106.367
20
-78.8634
11
106.367
21
-78.1671
0
LINE
8
BLACK
6
CONTINUOUS
10
106.367
20
-78.1671
11
106.304
21
-78.2295
0
LINE
8
BLACK
6
CONTINUOUS
10
106.304
20
-78.2295
11
106.286
21
-78.2424
0
LINE
8
BLACK
6
CONTINUOUS
10
106.286
20
-78.2424
11
106.285
21
-78.2436
0
LINE
8
BLACK
6
CONTINUOUS
10
106.285
20
-78.2436
11
106.19
21
-78.2912
0
LINE
8
BLACK
6
CONTINUOUS
10
106.19
20
-78.2912
11
106.165
21
-78.2986
0
LINE
8
BLACK
6
CONTINUOUS
10
106.165
20
-78.2986
11
106.115
21
-78.2867
0
LINE
8
BLACK
6
CONTINUOUS
10
106.115
20
-78.2867
11
106.084
21
-78.2455
0
LINE
8
BLACK
6
CONTINUOUS
10
106.084
20
-78.2455
11
106.087
21
-78.1943
0
LINE
8
BLACK
6
CONTINUOUS
10
106.087
20
-78.1943
11
106.123
21
-78.157
0
LINE
8
BLACK
6
CONTINUOUS
10
106.123
20
-78.157
11
106.207
21
-78.1148
0
LINE
8
BLACK
6
CONTINUOUS
10
106.207
20
-78.1148
11
106.288
21
-78.0335
0
LINE
8
BLACK
6
CONTINUOUS
10
106.288
20
-78.0335
11
106.379
21
-77.8968
0
LINE
8
BLACK
6
CONTINUOUS
10
106.379
20
-77.8968
11
106.397
21
-77.8779
0
LINE
8
BLACK
6
CONTINUOUS
10
106.397
20
-77.8779
11
106.402
21
-77.8767
0
LINE
8
BLACK
6
CONTINUOUS
10
106.402
20
-77.8767
11
106.404
21
-77.8734
0
LINE
8
BLACK
6
CONTINUOUS
10
106.404
20
-77.8734
11
106.426
21
-77.8696
0
LINE
8
BLACK
6
CONTINUOUS
10
106.426
20
-77.8696
11
106.447
21
-77.8635
0
LINE
8
BLACK
6
CONTINUOUS
10
106.447
20
-77.8635
11
106.451
21
-77.8653
0
LINE
8
BLACK
6
CONTINUOUS
10
105.785
20
-77.8902
11
105.803
21
-77.9384
0
LINE
8
BLACK
6
CONTINUOUS
10
105.803
20
-77.9384
11
105.803
21
-78.7479
0
LINE
8
BLACK
6
CONTINUOUS
10
105.803
20
-78.7479
11
105.798
21
-78.7736
0
LINE
8
BLACK
6
CONTINUOUS
10
105.798
20
-78.7736
11
105.795
21
-78.777
0
LINE
8
BLACK
6
CONTINUOUS
10
105.795
20
-78.777
11
105.795
21
-78.7814
0
LINE
8
BLACK
6
CONTINUOUS
10
105.795
20
-78.7814
11
105.747
21
-78.8767
0
LINE
8
BLACK
6
CONTINUOUS
10
105.747
20
-78.8767
11
105.734
21
-78.8947
0
LINE
8
BLACK
6
CONTINUOUS
10
105.734
20
-78.8947
11
105.733
21
-78.8962
0
LINE
8
BLACK
6
CONTINUOUS
10
105.733
20
-78.8962
11
105.685
21
-78.9438
0
LINE
8
BLACK
6
CONTINUOUS
10
105.685
20
-78.9438
11
105.667
21
-78.9567
0
LINE
8
BLACK
6
CONTINUOUS
10
105.667
20
-78.9567
11
105.666
21
-78.9578
0
LINE
8
BLACK
6
CONTINUOUS
10
105.666
20
-78.9578
11
105.571
21
-79.0055
0
LINE
8
BLACK
6
CONTINUOUS
10
105.571
20
-79.0055
11
105.546
21
-79.0129
0
LINE
8
BLACK
6
CONTINUOUS
10
105.546
20
-79.0129
11
105.541
21
-79.0118
0
LINE
8
BLACK
6
CONTINUOUS
10
105.541
20
-79.0118
11
105.537
21
-79.0134
0
LINE
8
BLACK
6
CONTINUOUS
10
105.537
20
-79.0134
11
105.347
21
-79.0134
0
LINE
8
BLACK
6
CONTINUOUS
10
105.347
20
-79.0134
11
105.321
21
-79.0089
0
LINE
8
BLACK
6
CONTINUOUS
10
105.321
20
-79.0089
11
105.317
21
-79.006
0
LINE
8
BLACK
6
CONTINUOUS
10
105.317
20
-79.006
11
105.313
21
-79.0055
0
LINE
8
BLACK
6
CONTINUOUS
10
105.313
20
-79.0055
11
105.218
21
-78.9578
0
LINE
8
BLACK
6
CONTINUOUS
10
105.218
20
-78.9578
11
105.2
21
-78.9445
0
LINE
8
BLACK
6
CONTINUOUS
10
105.2
20
-78.9445
11
105.198
21
-78.9438
0
LINE
8
BLACK
6
CONTINUOUS
10
105.198
20
-78.9438
11
105.151
21
-78.8962
0
LINE
8
BLACK
6
CONTINUOUS
10
105.151
20
-78.8962
11
105.138
21
-78.8778
0
LINE
8
BLACK
6
CONTINUOUS
10
105.138
20
-78.8778
11
105.137
21
-78.8767
0
LINE
8
BLACK
6
CONTINUOUS
10
105.137
20
-78.8767
11
105.089
21
-78.7814
0
LINE
8
BLACK
6
CONTINUOUS
10
105.089
20
-78.7814
11
105.082
21
-78.7565
0
LINE
8
BLACK
6
CONTINUOUS
10
105.082
20
-78.7565
11
105.083
21
-78.7521
0
LINE
8
BLACK
6
CONTINUOUS
10
105.083
20
-78.7521
11
105.081
21
-78.7479
0
LINE
8
BLACK
6
CONTINUOUS
10
105.081
20
-78.7479
11
105.081
21
-77.9384
0
LINE
8
BLACK
6
CONTINUOUS
10
105.081
20
-77.9384
11
105.086
21
-77.9127
0
LINE
8
BLACK
6
CONTINUOUS
10
105.086
20
-77.9127
11
105.119
21
-77.8734
0
LINE
8
BLACK
6
CONTINUOUS
10
105.119
20
-77.8734
11
105.169
21
-77.8645
0
LINE
8
BLACK
6
CONTINUOUS
10
105.169
20
-77.8645
11
105.214
21
-77.8902
0
LINE
8
BLACK
6
CONTINUOUS
10
105.214
20
-77.8902
11
105.231
21
-77.9384
0
LINE
8
BLACK
6
CONTINUOUS
10
105.231
20
-77.9384
11
105.231
21
-78.7302
0
LINE
8
BLACK
6
CONTINUOUS
10
105.231
20
-78.7302
11
105.265
21
-78.7987
0
LINE
8
BLACK
6
CONTINUOUS
10
105.265
20
-78.7987
11
105.296
21
-78.8291
0
LINE
8
BLACK
6
CONTINUOUS
10
105.296
20
-78.8291
11
105.364
21
-78.8634
0
LINE
8
BLACK
6
CONTINUOUS
10
105.364
20
-78.8634
11
105.519
21
-78.8634
0
LINE
8
BLACK
6
CONTINUOUS
10
105.519
20
-78.8634
11
105.588
21
-78.8291
0
LINE
8
BLACK
6
CONTINUOUS
10
105.588
20
-78.8291
11
105.618
21
-78.7987
0
LINE
8
BLACK
6
CONTINUOUS
10
105.618
20
-78.7987
11
105.653
21
-78.7302
0
LINE
8
BLACK
6
CONTINUOUS
10
105.653
20
-78.7302
11
105.653
21
-77.9384
0
LINE
8
BLACK
6
CONTINUOUS
10
105.653
20
-77.9384
11
105.657
21
-77.9127
0
LINE
8
BLACK
6
CONTINUOUS
10
105.657
20
-77.9127
11
105.69
21
-77.8734
0
LINE
8
BLACK
6
CONTINUOUS
10
105.69
20
-77.8734
11
105.741
21
-77.8645
0
LINE
8
BLACK
6
CONTINUOUS
10
105.741
20
-77.8645
11
105.785
21
-77.8902
0
LINE
8
BLACK
6
CONTINUOUS
10
108.989
20
-78.4846
11
109.007
21
-78.527
0
LINE
8
BLACK
6
CONTINUOUS
10
109.007
20
-78.527
11
108.989
21
-78.5694
0
LINE
8
BLACK
6
CONTINUOUS
10
108.989
20
-78.5694
11
108.947
21
-78.587
0
LINE
8
BLACK
6
CONTINUOUS
10
108.947
20
-78.587
11
108.731
21
-78.587
0
LINE
8
BLACK
6
CONTINUOUS
10
108.731
20
-78.587
11
108.689
21
-78.5694
0
LINE
8
BLACK
6
CONTINUOUS
10
108.689
20
-78.5694
11
108.671
21
-78.527
0
LINE
8
BLACK
6
CONTINUOUS
10
108.671
20
-78.527
11
108.689
21
-78.4846
0
LINE
8
BLACK
6
CONTINUOUS
10
108.689
20
-78.4846
11
108.731
21
-78.467
0
LINE
8
BLACK
6
CONTINUOUS
10
108.731
20
-78.467
11
108.947
21
-78.467
0
LINE
8
BLACK
6
CONTINUOUS
10
108.947
20
-78.467
11
108.989
21
-78.4846
0
LINE
8
BLACK
6
CONTINUOUS
10
116.515
20
-78.1876
11
116.533
21
-78.23
0
LINE
8
BLACK
6
CONTINUOUS
10
116.533
20
-78.23
11
116.515
21
-78.2724
0
LINE
8
BLACK
6
CONTINUOUS
10
116.515
20
-78.2724
11
116.473
21
-78.29
0
LINE
8
BLACK
6
CONTINUOUS
10
116.473
20
-78.29
11
116.191
21
-78.29
0
LINE
8
BLACK
6
CONTINUOUS
10
116.191
20
-78.29
11
116.149
21
-78.2724
0
LINE
8
BLACK
6
CONTINUOUS
10
116.149
20
-78.2724
11
116.131
21
-78.23
0
LINE
8
BLACK
6
CONTINUOUS
10
116.131
20
-78.23
11
116.149
21
-78.1876
0
LINE
8
BLACK
6
CONTINUOUS
10
116.149
20
-78.1876
11
116.191
21
-78.17
0
LINE
8
BLACK
6
CONTINUOUS
10
116.191
20
-78.17
11
116.473
21
-78.17
0
LINE
8
BLACK
6
CONTINUOUS
10
116.473
20
-78.17
11
116.515
21
-78.1876
0
LINE
8
BLACK
6
CONTINUOUS
10
111.012
20
-77.3752
11
111.014
21
-77.3751
0
LINE
8
BLACK
6
CONTINUOUS
10
111.014
20
-77.3751
11
111.157
21
-77.4228
0
LINE
8
BLACK
6
CONTINUOUS
10
111.157
20
-77.4228
11
111.18
21
-77.4352
0
LINE
8
BLACK
6
CONTINUOUS
10
111.18
20
-77.4352
11
111.182
21
-77.439
0
LINE
8
BLACK
6
CONTINUOUS
10
111.182
20
-77.439
11
111.186
21
-77.4409
0
LINE
8
BLACK
6
CONTINUOUS
10
111.186
20
-77.4409
11
111.629
21
-77.8843
0
LINE
8
BLACK
6
CONTINUOUS
10
111.629
20
-77.8843
11
111.629
21
-77.4463
0
LINE
8
BLACK
6
CONTINUOUS
10
111.629
20
-77.4463
11
111.634
21
-77.4206
0
LINE
8
BLACK
6
CONTINUOUS
10
111.634
20
-77.4206
11
111.667
21
-77.3813
0
LINE
8
BLACK
6
CONTINUOUS
10
111.667
20
-77.3813
11
111.717
21
-77.3724
0
LINE
8
BLACK
6
CONTINUOUS
10
111.717
20
-77.3724
11
111.762
21
-77.3981
0
LINE
8
BLACK
6
CONTINUOUS
10
111.762
20
-77.3981
11
111.779
21
-77.4463
0
LINE
8
BLACK
6
CONTINUOUS
10
111.779
20
-77.4463
11
111.779
21
-78.0653
0
LINE
8
BLACK
6
CONTINUOUS
10
111.779
20
-78.0653
11
111.777
21
-78.0815
0
LINE
8
BLACK
6
CONTINUOUS
10
111.777
20
-78.0815
11
111.777
21
-78.0847
0
LINE
8
BLACK
6
CONTINUOUS
10
111.777
20
-78.0847
11
111.776
21
-78.0864
0
LINE
8
BLACK
6
CONTINUOUS
10
111.776
20
-78.0864
11
111.775
21
-78.091
0
LINE
8
BLACK
6
CONTINUOUS
10
111.775
20
-78.091
11
111.76
21
-78.1083
0
LINE
8
BLACK
6
CONTINUOUS
10
111.76
20
-78.1083
11
111.747
21
-78.1268
0
LINE
8
BLACK
6
CONTINUOUS
10
111.747
20
-78.1268
11
111.744
21
-78.1277
0
LINE
8
BLACK
6
CONTINUOUS
10
111.744
20
-78.1277
11
111.742
21
-78.1303
0
LINE
8
BLACK
6
CONTINUOUS
10
111.742
20
-78.1303
11
111.72
21
-78.1342
0
LINE
8
BLACK
6
CONTINUOUS
10
111.72
20
-78.1342
11
111.698
21
-78.14
0
LINE
8
BLACK
6
CONTINUOUS
10
111.698
20
-78.14
11
111.695
21
-78.1386
0
LINE
8
BLACK
6
CONTINUOUS
10
111.695
20
-78.1386
11
111.691
21
-78.1392
0
LINE
8
BLACK
6
CONTINUOUS
10
111.691
20
-78.1392
11
111.672
21
-78.1279
0
LINE
8
BLACK
6
CONTINUOUS
10
111.672
20
-78.1279
11
111.651
21
-78.1184
0
LINE
8
BLACK
6
CONTINUOUS
10
111.651
20
-78.1184
11
111.092
21
-77.5595
0
LINE
8
BLACK
6
CONTINUOUS
10
111.092
20
-77.5595
11
110.978
21
-77.5213
0
LINE
8
BLACK
6
CONTINUOUS
10
110.978
20
-77.5213
11
110.913
21
-77.5213
0
LINE
8
BLACK
6
CONTINUOUS
10
110.913
20
-77.5213
11
110.844
21
-77.5555
0
LINE
8
BLACK
6
CONTINUOUS
10
110.844
20
-77.5555
11
110.814
21
-77.5859
0
LINE
8
BLACK
6
CONTINUOUS
10
110.814
20
-77.5859
11
110.779
21
-77.6545
0
LINE
8
BLACK
6
CONTINUOUS
10
110.779
20
-77.6545
11
110.779
21
-77.8572
0
LINE
8
BLACK
6
CONTINUOUS
10
110.779
20
-77.8572
11
110.814
21
-77.9257
0
LINE
8
BLACK
6
CONTINUOUS
10
110.814
20
-77.9257
11
110.853
21
-77.9647
0
LINE
8
BLACK
6
CONTINUOUS
10
110.853
20
-77.9647
11
110.868
21
-77.986
0
LINE
8
BLACK
6
CONTINUOUS
10
110.868
20
-77.986
11
110.872
21
-78.0371
0
LINE
8
BLACK
6
CONTINUOUS
10
110.872
20
-78.0371
11
110.843
21
-78.0792
0
LINE
8
BLACK
6
CONTINUOUS
10
110.843
20
-78.0792
11
110.793
21
-78.0924
0
LINE
8
BLACK
6
CONTINUOUS
10
110.793
20
-78.0924
11
110.747
21
-78.0707
0
LINE
8
BLACK
6
CONTINUOUS
10
110.747
20
-78.0707
11
110.699
21
-78.0231
0
LINE
8
BLACK
6
CONTINUOUS
10
110.699
20
-78.0231
11
110.686
21
-78.0048
0
LINE
8
BLACK
6
CONTINUOUS
10
110.686
20
-78.0048
11
110.685
21
-78.0036
0
LINE
8
BLACK
6
CONTINUOUS
10
110.685
20
-78.0036
11
110.637
21
-77.9084
0
LINE
8
BLACK
6
CONTINUOUS
10
110.637
20
-77.9084
11
110.63
21
-77.8834
0
LINE
8
BLACK
6
CONTINUOUS
10
110.63
20
-77.8834
11
110.631
21
-77.8791
0
LINE
8
BLACK
6
CONTINUOUS
10
110.631
20
-77.8791
11
110.629
21
-77.8749
0
LINE
8
BLACK
6
CONTINUOUS
10
110.629
20
-77.8749
11
110.629
21
-77.6368
0
LINE
8
BLACK
6
CONTINUOUS
10
110.629
20
-77.6368
11
110.634
21
-77.6111
0
LINE
8
BLACK
6
CONTINUOUS
10
110.634
20
-77.6111
11
110.637
21
-77.6077
0
LINE
8
BLACK
6
CONTINUOUS
10
110.637
20
-77.6077
11
110.637
21
-77.6032
0
LINE
8
BLACK
6
CONTINUOUS
10
110.637
20
-77.6032
11
110.685
21
-77.508
0
LINE
8
BLACK
6
CONTINUOUS
10
110.685
20
-77.508
11
110.698
21
-77.49
0
LINE
8
BLACK
6
CONTINUOUS
10
110.698
20
-77.49
11
110.699
21
-77.4885
0
LINE
8
BLACK
6
CONTINUOUS
10
110.699
20
-77.4885
11
110.747
21
-77.4409
0
LINE
8
BLACK
6
CONTINUOUS
10
110.747
20
-77.4409
11
110.765
21
-77.428
0
LINE
8
BLACK
6
CONTINUOUS
10
110.765
20
-77.428
11
110.766
21
-77.4268
0
LINE
8
BLACK
6
CONTINUOUS
10
110.766
20
-77.4268
11
110.861
21
-77.3792
0
LINE
8
BLACK
6
CONTINUOUS
10
110.861
20
-77.3792
11
110.886
21
-77.3718
0
LINE
8
BLACK
6
CONTINUOUS
10
110.886
20
-77.3718
11
110.891
21
-77.3728
0
LINE
8
BLACK
6
CONTINUOUS
10
110.891
20
-77.3728
11
110.895
21
-77.3713
0
LINE
8
BLACK
6
CONTINUOUS
10
110.895
20
-77.3713
11
110.99
21
-77.3713
0
LINE
8
BLACK
6
CONTINUOUS
10
110.99
20
-77.3713
11
111.012
21
-77.3752
0
LINE
8
BLACK
6
CONTINUOUS
10
108.989
20
-77.7646
11
109.007
21
-77.807
0
LINE
8
BLACK
6
CONTINUOUS
10
109.007
20
-77.807
11
108.989
21
-77.8494
0
LINE
8
BLACK
6
CONTINUOUS
10
108.989
20
-77.8494
11
108.947
21
-77.867
0
LINE
8
BLACK
6
CONTINUOUS
10
108.947
20
-77.867
11
108.731
21
-77.867
0
LINE
8
BLACK
6
CONTINUOUS
10
108.731
20
-77.867
11
108.689
21
-77.8494
0
LINE
8
BLACK
6
CONTINUOUS
10
108.689
20
-77.8494
11
108.671
21
-77.807
0
LINE
8
BLACK
6
CONTINUOUS
10
108.671
20
-77.807
11
108.689
21
-77.7646
0
LINE
8
BLACK
6
CONTINUOUS
10
108.689
20
-77.7646
11
108.731
21
-77.747
0
LINE
8
BLACK
6
CONTINUOUS
10
108.731
20
-77.747
11
108.947
21
-77.747
0
LINE
8
BLACK
6
CONTINUOUS
10
108.947
20
-77.747
11
108.989
21
-77.7646
0
LINE
8
BLACK
6
CONTINUOUS
10
112.291
20
-83.0683
11
112.349
21
-82.9091
0
LINE
8
BLACK
6
CONTINUOUS
10
112.349
20
-82.9091
11
112.441
21
-82.7667
0
LINE
8
BLACK
6
CONTINUOUS
10
112.441
20
-82.7667
11
112.562
21
-82.6481
0
LINE
8
BLACK
6
CONTINUOUS
10
112.562
20
-82.6481
11
112.706
21
-82.5593
0
LINE
8
BLACK
6
CONTINUOUS
10
112.706
20
-82.5593
11
112.867
21
-82.5047
0
LINE
8
BLACK
6
CONTINUOUS
10
112.867
20
-82.5047
11
113.035
21
-82.487
0
LINE
8
BLACK
6
CONTINUOUS
10
113.035
20
-82.487
11
113.204
21
-82.5071
0
LINE
8
BLACK
6
CONTINUOUS
10
113.204
20
-82.5071
11
113.363
21
-82.5639
0
LINE
8
BLACK
6
CONTINUOUS
10
113.363
20
-82.5639
11
113.506
21
-82.6547
0
LINE
8
BLACK
6
CONTINUOUS
10
113.506
20
-82.6547
11
113.626
21
-82.7749
0
LINE
8
BLACK
6
CONTINUOUS
10
113.626
20
-82.7749
11
113.715
21
-82.9186
0
LINE
8
BLACK
6
CONTINUOUS
10
113.715
20
-82.9186
11
113.771
21
-83.0786
0
LINE
8
BLACK
6
CONTINUOUS
10
113.771
20
-83.0786
11
113.79
21
-83.247
0
LINE
8
BLACK
6
CONTINUOUS
10
113.79
20
-83.247
11
113.79
21
-83.2682
0
LINE
8
BLACK
6
CONTINUOUS
10
113.79
20
-83.2682
11
113.766
21
-83.436
0
LINE
8
BLACK
6
CONTINUOUS
10
113.766
20
-83.436
11
113.706
21
-83.5944
0
LINE
8
BLACK
6
CONTINUOUS
10
113.706
20
-83.5944
11
113.612
21
-83.7355
0
LINE
8
BLACK
6
CONTINUOUS
10
113.612
20
-83.7355
11
113.489
21
-83.8524
0
LINE
8
BLACK
6
CONTINUOUS
10
113.489
20
-83.8524
11
113.344
21
-83.9391
0
LINE
8
BLACK
6
CONTINUOUS
10
113.344
20
-83.9391
11
113.183
21
-83.9915
0
LINE
8
BLACK
6
CONTINUOUS
10
113.183
20
-83.9915
11
113.014
21
-84.0068
0
LINE
8
BLACK
6
CONTINUOUS
10
113.014
20
-84.0068
11
112.846
21
-83.9844
0
LINE
8
BLACK
6
CONTINUOUS
10
112.846
20
-83.9844
11
112.687
21
-83.9254
0
LINE
8
BLACK
6
CONTINUOUS
10
112.687
20
-83.9254
11
112.546
21
-83.8326
0
LINE
8
BLACK
6
CONTINUOUS
10
112.546
20
-83.8326
11
112.428
21
-83.7107
0
LINE
8
BLACK
6
CONTINUOUS
10
112.428
20
-83.7107
11
112.34
21
-83.5658
0
LINE
8
BLACK
6
CONTINUOUS
10
112.34
20
-83.5658
11
112.287
21
-83.405
0
LINE
8
BLACK
6
CONTINUOUS
10
112.287
20
-83.405
11
112.27
21
-83.2402
0
LINE
8
BLACK
6
CONTINUOUS
10
112.27
20
-83.2402
11
112.27
21
-83.2364
0
LINE
8
BLACK
6
CONTINUOUS
10
112.27
20
-83.2364
11
112.291
21
-83.0683
0
LINE
8
BLACK
6
CONTINUOUS
10
112.456
20
-83.5397
11
112.542
21
-83.6683
0
LINE
8
BLACK
6
CONTINUOUS
10
112.542
20
-83.6683
11
112.657
21
-83.7725
0
LINE
8
BLACK
6
CONTINUOUS
10
112.657
20
-83.7725
11
112.793
21
-83.8464
0
LINE
8
BLACK
6
CONTINUOUS
10
112.793
20
-83.8464
11
112.943
21
-83.8857
0
LINE
8
BLACK
6
CONTINUOUS
10
112.943
20
-83.8857
11
113.097
21
-83.8882
0
LINE
8
BLACK
6
CONTINUOUS
10
113.097
20
-83.8882
11
113.248
21
-83.8536
0
LINE
8
BLACK
6
CONTINUOUS
10
113.248
20
-83.8536
11
113.387
21
-83.784
0
LINE
8
BLACK
6
CONTINUOUS
10
113.387
20
-83.784
11
113.505
21
-83.6834
0
LINE
8
BLACK
6
CONTINUOUS
10
113.505
20
-83.6834
11
113.595
21
-83.5576
0
LINE
8
BLACK
6
CONTINUOUS
10
113.595
20
-83.5576
11
113.653
21
-83.4139
0
LINE
8
BLACK
6
CONTINUOUS
10
113.653
20
-83.4139
11
113.675
21
-83.2605
0
LINE
8
BLACK
6
CONTINUOUS
10
113.675
20
-83.2605
11
113.675
21
-83.247
0
LINE
8
BLACK
6
CONTINUOUS
10
113.675
20
-83.247
11
113.656
21
-83.0932
0
LINE
8
BLACK
6
CONTINUOUS
10
113.656
20
-83.0932
11
113.601
21
-82.9483
0
LINE
8
BLACK
6
CONTINUOUS
10
113.601
20
-82.9483
11
113.514
21
-82.8207
0
LINE
8
BLACK
6
CONTINUOUS
10
113.514
20
-82.8207
11
113.398
21
-82.7176
0
LINE
8
BLACK
6
CONTINUOUS
10
113.398
20
-82.7176
11
113.261
21
-82.6451
0
LINE
8
BLACK
6
CONTINUOUS
10
113.261
20
-82.6451
11
113.111
21
-82.6074
0
LINE
8
BLACK
6
CONTINUOUS
10
113.111
20
-82.6074
11
112.956
21
-82.6066
0
LINE
8
BLACK
6
CONTINUOUS
10
112.956
20
-82.6066
11
112.805
21
-82.6427
0
LINE
8
BLACK
6
CONTINUOUS
10
112.805
20
-82.6427
11
112.668
21
-82.7138
0
LINE
8
BLACK
6
CONTINUOUS
10
112.668
20
-82.7138
11
112.551
21
-82.8156
0
LINE
8
BLACK
6
CONTINUOUS
10
112.551
20
-82.8156
11
112.462
21
-82.9423
0
LINE
8
BLACK
6
CONTINUOUS
10
112.462
20
-82.9423
11
112.406
21
-83.0867
0
LINE
8
BLACK
6
CONTINUOUS
10
112.406
20
-83.0867
11
112.385
21
-83.2402
0
LINE
8
BLACK
6
CONTINUOUS
10
112.385
20
-83.2402
11
112.402
21
-83.3942
0
LINE
8
BLACK
6
CONTINUOUS
10
112.402
20
-83.3942
11
112.456
21
-83.5397
0
LINE
8
BLACK
6
CONTINUOUS
10
112.291
20
-80.7823
11
112.349
21
-80.6231
0
LINE
8
BLACK
6
CONTINUOUS
10
112.349
20
-80.6231
11
112.441
21
-80.4807
0
LINE
8
BLACK
6
CONTINUOUS
10
112.441
20
-80.4807
11
112.562
21
-80.3621
0
LINE
8
BLACK
6
CONTINUOUS
10
112.562
20
-80.3621
11
112.706
21
-80.2733
0
LINE
8
BLACK
6
CONTINUOUS
10
112.706
20
-80.2733
11
112.867
21
-80.2187
0
LINE
8
BLACK
6
CONTINUOUS
10
112.867
20
-80.2187
11
113.035
21
-80.201
0
LINE
8
BLACK
6
CONTINUOUS
10
113.035
20
-80.201
11
113.204
21
-80.2211
0
LINE
8
BLACK
6
CONTINUOUS
10
113.204
20
-80.2211
11
113.363
21
-80.2779
0
LINE
8
BLACK
6
CONTINUOUS
10
113.363
20
-80.2779
11
113.506
21
-80.3687
0
LINE
8
BLACK
6
CONTINUOUS
10
113.506
20
-80.3687
11
113.626
21
-80.4889
0
LINE
8
BLACK
6
CONTINUOUS
10
113.626
20
-80.4889
11
113.715
21
-80.6326
0
LINE
8
BLACK
6
CONTINUOUS
10
113.715
20
-80.6326
11
113.771
21
-80.7926
0
LINE
8
BLACK
6
CONTINUOUS
10
113.771
20
-80.7926
11
113.79
21
-80.961
0
LINE
8
BLACK
6
CONTINUOUS
10
113.79
20
-80.961
11
113.79
21
-80.9822
0
LINE
8
BLACK
6
CONTINUOUS
10
113.79
20
-80.9822
11
113.766
21
-81.15
0
LINE
8
BLACK
6
CONTINUOUS
10
113.766
20
-81.15
11
113.706
21
-81.3084
0
LINE
8
BLACK
6
CONTINUOUS
10
113.706
20
-81.3084
11
113.612
21
-81.4495
0
LINE
8
BLACK
6
CONTINUOUS
10
113.612
20
-81.4495
11
113.489
21
-81.5664
0
LINE
8
BLACK
6
CONTINUOUS
10
113.489
20
-81.5664
11
113.344
21
-81.6531
0
LINE
8
BLACK
6
CONTINUOUS
10
113.344
20
-81.6531
11
113.183
21
-81.7055
0
LINE
8
BLACK
6
CONTINUOUS
10
113.183
20
-81.7055
11
113.014
21
-81.7208
0
LINE
8
BLACK
6
CONTINUOUS
10
113.014
20
-81.7208
11
112.846
21
-81.6984
0
LINE
8
BLACK
6
CONTINUOUS
10
112.846
20
-81.6984
11
112.687
21
-81.6394
0
LINE
8
BLACK
6
CONTINUOUS
10
112.687
20
-81.6394
11
112.546
21
-81.5466
0
LINE
8
BLACK
6
CONTINUOUS
10
112.546
20
-81.5466
11
112.428
21
-81.4247
0
LINE
8
BLACK
6
CONTINUOUS
10
112.428
20
-81.4247
11
112.34
21
-81.2798
0
LINE
8
BLACK
6
CONTINUOUS
10
112.34
20
-81.2798
11
112.287
21
-81.119
0
LINE
8
BLACK
6
CONTINUOUS
10
112.287
20
-81.119
11
112.27
21
-80.9542
0
LINE
8
BLACK
6
CONTINUOUS
10
112.27
20
-80.9542
11
112.27
21
-80.9504
0
LINE
8
BLACK
6
CONTINUOUS
10
112.27
20
-80.9504
11
112.291
21
-80.7823
0
LINE
8
BLACK
6
CONTINUOUS
10
112.456
20
-81.2537
11
112.542
21
-81.3823
0
LINE
8
BLACK
6
CONTINUOUS
10
112.542
20
-81.3823
11
112.657
21
-81.4865
0
LINE
8
BLACK
6
CONTINUOUS
10
112.657
20
-81.4865
11
112.793
21
-81.5604
0
LINE
8
BLACK
6
CONTINUOUS
10
112.793
20
-81.5604
11
112.943
21
-81.5997
0
LINE
8
BLACK
6
CONTINUOUS
10
112.943
20
-81.5997
11
113.097
21
-81.6022
0
LINE
8
BLACK
6
CONTINUOUS
10
113.097
20
-81.6022
11
113.248
21
-81.5676
0
LINE
8
BLACK
6
CONTINUOUS
10
113.248
20
-81.5676
11
113.387
21
-81.498
0
LINE
8
BLACK
6
CONTINUOUS
10
113.387
20
-81.498
11
113.505
21
-81.3974
0
LINE
8
BLACK
6
CONTINUOUS
10
113.505
20
-81.3974
11
113.595
21
-81.2716
0
LINE
8
BLACK
6
CONTINUOUS
10
113.595
20
-81.2716
11
113.653
21
-81.1279
0
LINE
8
BLACK
6
CONTINUOUS
10
113.653
20
-81.1279
11
113.675
21
-80.9745
0
LINE
8
BLACK
6
CONTINUOUS
10
113.675
20
-80.9745
11
113.675
21
-80.961
0
LINE
8
BLACK
6
CONTINUOUS
10
113.675
20
-80.961
11
113.656
21
-80.8072
0
LINE
8
BLACK
6
CONTINUOUS
10
113.656
20
-80.8072
11
113.601
21
-80.6623
0
LINE
8
BLACK
6
CONTINUOUS
10
113.601
20
-80.6623
11
113.514
21
-80.5347
0
LINE
8
BLACK
6
CONTINUOUS
10
113.514
20
-80.5347
11
113.398
21
-80.4316
0
LINE
8
BLACK
6
CONTINUOUS
10
113.398
20
-80.4316
11
113.261
21
-80.3591
0
LINE
8
BLACK
6
CONTINUOUS
10
113.261
20
-80.3591
11
113.111
21
-80.3214
0
LINE
8
BLACK
6
CONTINUOUS
10
113.111
20
-80.3214
11
112.956
21
-80.3206
0
LINE
8
BLACK
6
CONTINUOUS
10
112.956
20
-80.3206
11
112.805
21
-80.3567
0
LINE
8
BLACK
6
CONTINUOUS
10
112.805
20
-80.3567
11
112.668
21
-80.4278
0
LINE
8
BLACK
6
CONTINUOUS
10
112.668
20
-80.4278
11
112.551
21
-80.5296
0
LINE
8
BLACK
6
CONTINUOUS
10
112.551
20
-80.5296
11
112.462
21
-80.6563
0
LINE
8
BLACK
6
CONTINUOUS
10
112.462
20
-80.6563
11
112.406
21
-80.8007
0
LINE
8
BLACK
6
CONTINUOUS
10
112.406
20
-80.8007
11
112.385
21
-80.9542
0
LINE
8
BLACK
6
CONTINUOUS
10
112.385
20
-80.9542
11
112.402
21
-81.1082
0
LINE
8
BLACK
6
CONTINUOUS
10
112.402
20
-81.1082
11
112.456
21
-81.2537
0
LINE
8
BLACK
6
CONTINUOUS
10
112.291
20
-78.4963
11
112.349
21
-78.3371
0
LINE
8
BLACK
6
CONTINUOUS
10
112.349
20
-78.3371
11
112.441
21
-78.1947
0
LINE
8
BLACK
6
CONTINUOUS
10
112.441
20
-78.1947
11
112.562
21
-78.0761
0
LINE
8
BLACK
6
CONTINUOUS
10
112.562
20
-78.0761
11
112.706
21
-77.9873
0
LINE
8
BLACK
6
CONTINUOUS
10
112.706
20
-77.9873
11
112.867
21
-77.9327
0
LINE
8
BLACK
6
CONTINUOUS
10
112.867
20
-77.9327
11
113.035
21
-77.915
0
LINE
8
BLACK
6
CONTINUOUS
10
113.035
20
-77.915
11
113.204
21
-77.9351
0
LINE
8
BLACK
6
CONTINUOUS
10
113.204
20
-77.9351
11
113.363
21
-77.9919
0
LINE
8
BLACK
6
CONTINUOUS
10
113.363
20
-77.9919
11
113.506
21
-78.0827
0
LINE
8
BLACK
6
CONTINUOUS
10
113.506
20
-78.0827
11
113.626
21
-78.2029
0
LINE
8
BLACK
6
CONTINUOUS
10
113.626
20
-78.2029
11
113.715
21
-78.3466
0
LINE
8
BLACK
6
CONTINUOUS
10
113.715
20
-78.3466
11
113.771
21
-78.5066
0
LINE
8
BLACK
6
CONTINUOUS
10
113.771
20
-78.5066
11
113.79
21
-78.675
0
LINE
8
BLACK
6
CONTINUOUS
10
113.79
20
-78.675
11
113.79
21
-78.6962
0
LINE
8
BLACK
6
CONTINUOUS
10
113.79
20
-78.6962
11
113.766
21
-78.864
0
LINE
8
BLACK
6
CONTINUOUS
10
113.766
20
-78.864
11
113.706
21
-79.0224
0
LINE
8
BLACK
6
CONTINUOUS
10
113.706
20
-79.0224
11
113.612
21
-79.1635
0
LINE
8
BLACK
6
CONTINUOUS
10
113.612
20
-79.1635
11
113.489
21
-79.2804
0
LINE
8
BLACK
6
CONTINUOUS
10
113.489
20
-79.2804
11
113.344
21
-79.3671
0
LINE
8
BLACK
6
CONTINUOUS
10
113.344
20
-79.3671
11
113.183
21
-79.4195
0
LINE
8
BLACK
6
CONTINUOUS
10
113.183
20
-79.4195
11
113.014
21
-79.4348
0
LINE
8
BLACK
6
CONTINUOUS
10
113.014
20
-79.4348
11
112.846
21
-79.4124
0
LINE
8
BLACK
6
CONTINUOUS
10
112.846
20
-79.4124
11
112.687
21
-79.3534
0
LINE
8
BLACK
6
CONTINUOUS
10
112.687
20
-79.3534
11
112.546
21
-79.2606
0
LINE
8
BLACK
6
CONTINUOUS
10
112.546
20
-79.2606
11
112.428
21
-79.1387
0
LINE
8
BLACK
6
CONTINUOUS
10
112.428
20
-79.1387
11
112.34
21
-78.9938
0
LINE
8
BLACK
6
CONTINUOUS
10
112.34
20
-78.9938
11
112.287
21
-78.833
0
LINE
8
BLACK
6
CONTINUOUS
10
112.287
20
-78.833
11
112.27
21
-78.6682
0
LINE
8
BLACK
6
CONTINUOUS
10
112.27
20
-78.6682
11
112.27
21
-78.6644
0
LINE
8
BLACK
6
CONTINUOUS
10
112.27
20
-78.6644
11
112.291
21
-78.4963
0
LINE
8
BLACK
6
CONTINUOUS
10
112.456
20
-78.9677
11
112.542
21
-79.0963
0
LINE
8
BLACK
6
CONTINUOUS
10
112.542
20
-79.0963
11
112.657
21
-79.2005
0
LINE
8
BLACK
6
CONTINUOUS
10
112.657
20
-79.2005
11
112.793
21
-79.2744
0
LINE
8
BLACK
6
CONTINUOUS
10
112.793
20
-79.2744
11
112.943
21
-79.3137
0
LINE
8
BLACK
6
CONTINUOUS
10
112.943
20
-79.3137
11
113.097
21
-79.3162
0
LINE
8
BLACK
6
CONTINUOUS
10
113.097
20
-79.3162
11
113.248
21
-79.2816
0
LINE
8
BLACK
6
CONTINUOUS
10
113.248
20
-79.2816
11
113.387
21
-79.212
0
LINE
8
BLACK
6
CONTINUOUS
10
113.387
20
-79.212
11
113.505
21
-79.1114
0
LINE
8
BLACK
6
CONTINUOUS
10
113.505
20
-79.1114
11
113.595
21
-78.9856
0
LINE
8
BLACK
6
CONTINUOUS
10
113.595
20
-78.9856
11
113.653
21
-78.8419
0
LINE
8
BLACK
6
CONTINUOUS
10
113.653
20
-78.8419
11
113.675
21
-78.6885
0
LINE
8
BLACK
6
CONTINUOUS
10
113.675
20
-78.6885
11
113.675
21
-78.675
0
LINE
8
BLACK
6
CONTINUOUS
10
113.675
20
-78.675
11
113.656
21
-78.5212
0
LINE
8
BLACK
6
CONTINUOUS
10
113.656
20
-78.5212
11
113.601
21
-78.3763
0
LINE
8
BLACK
6
CONTINUOUS
10
113.601
20
-78.3763
11
113.514
21
-78.2487
0
LINE
8
BLACK
6
CONTINUOUS
10
113.514
20
-78.2487
11
113.398
21
-78.1456
0
LINE
8
BLACK
6
CONTINUOUS
10
113.398
20
-78.1456
11
113.261
21
-78.0731
0
LINE
8
BLACK
6
CONTINUOUS
10
113.261
20
-78.0731
11
113.111
21
-78.0354
0
LINE
8
BLACK
6
CONTINUOUS
10
113.111
20
-78.0354
11
112.956
21
-78.0346
0
LINE
8
BLACK
6
CONTINUOUS
10
112.956
20
-78.0346
11
112.805
21
-78.0707
0
LINE
8
BLACK
6
CONTINUOUS
10
112.805
20
-78.0707
11
112.668
21
-78.1418
0
LINE
8
BLACK
6
CONTINUOUS
10
112.668
20
-78.1418
11
112.551
21
-78.2436
0
LINE
8
BLACK
6
CONTINUOUS
10
112.551
20
-78.2436
11
112.462
21
-78.3703
0
LINE
8
BLACK
6
CONTINUOUS
10
112.462
20
-78.3703
11
112.406
21
-78.5147
0
LINE
8
BLACK
6
CONTINUOUS
10
112.406
20
-78.5147
11
112.385
21
-78.6682
0
LINE
8
BLACK
6
CONTINUOUS
10
112.385
20
-78.6682
11
112.402
21
-78.8222
0
LINE
8
BLACK
6
CONTINUOUS
10
112.402
20
-78.8222
11
112.456
21
-78.9677
  0
ENDSEC
  0
EOF
