  0
SECTION
  2
HEADER
  9
$ANGBASE
  50
0.0
  9
$ANGDIR
  70
1
  9
$MEASUREMENT
  70
1
  0
ENDSEC
  0
SECTION
  2
TABLES
  0
TABLE
  2
LTYPE
  70
4
  0
LTYPE
  5
40F
  2
CONTINUOUS
  70
0
  3
Solid line
  72
65
  73
0
  40
0.0
  0
LTYPE
  5
410
  2
DASHDOT
 70
0
  3
Dash Dot ____ _ ____ _
 72
65
 73
4
 40
2.0
 49
1.25
 49
-0.25
 49
0.25
 49
-0.25
  0
LTYPE
  5
411
  2
DASHED
 70
0
  3
Dashed __ __ __ __ __
 72
65
 73
2
 40
0.75
 49
0.5
 49
-0.25
  0
LTYPE
  5
43B
  2
DOTTED
 70
0
  3
Dotted .  .  .  .
 72
65
 73
2
 40
0.2
 49
0.0
 49
-0.2
  0
ENDTAB
  0
TABLE
  2
STYLE
  70
4
  0
STYLE
  2
KICAD
  70
0
  40
0
  41
1
  42
1
  50
0
  71
0
  3
isocp.shx
  0
STYLE
  2
KICADB
  70
0
  40
0
  41
1
  42
1
  50
0
  71
0
  3
isocp.shx
  0
STYLE
  2
KICADI
  70
0
  40
0
  41
1
  42
1
  50
15
  71
0
  3
isocp.shx
  0
STYLE
  2
KICADBI
  70
0
  40
0
  41
1
  42
1
  50
15
  71
0
  3
isocp.shx
  0
ENDTAB
  0
TABLE
  2
LAYER
  70
1
  0
LAYER
  2
BLACK
  70
0
  62
7
  6
CONTINUOUS
  0
ENDTAB
  0
ENDSEC
  0
SECTION
  2
ENTITIES
0
LINE
8
BLACK
6
CONTINUOUS
10
103.975
20
-86.8754
11
103.993
21
-86.9236
0
LINE
8
BLACK
6
CONTINUOUS
10
103.993
20
-86.9236
11
103.993
21
-87.8486
0
LINE
8
BLACK
6
CONTINUOUS
10
103.993
20
-87.8486
11
104.204
21
-87.8486
0
LINE
8
BLACK
6
CONTINUOUS
10
104.204
20
-87.8486
11
104.229
21
-87.8531
0
LINE
8
BLACK
6
CONTINUOUS
10
104.229
20
-87.8531
11
104.268
21
-87.8861
0
LINE
8
BLACK
6
CONTINUOUS
10
104.268
20
-87.8861
11
104.277
21
-87.9366
0
LINE
8
BLACK
6
CONTINUOUS
10
104.277
20
-87.9366
11
104.252
21
-87.9811
0
LINE
8
BLACK
6
CONTINUOUS
10
104.252
20
-87.9811
11
104.204
21
-87.9986
0
LINE
8
BLACK
6
CONTINUOUS
10
104.204
20
-87.9986
11
103.632
21
-87.9986
0
LINE
8
BLACK
6
CONTINUOUS
10
103.632
20
-87.9986
11
103.606
21
-87.9941
0
LINE
8
BLACK
6
CONTINUOUS
10
103.606
20
-87.9941
11
103.567
21
-87.9611
0
LINE
8
BLACK
6
CONTINUOUS
10
103.567
20
-87.9611
11
103.558
21
-87.9106
0
LINE
8
BLACK
6
CONTINUOUS
10
103.558
20
-87.9106
11
103.584
21
-87.8662
0
LINE
8
BLACK
6
CONTINUOUS
10
103.584
20
-87.8662
11
103.632
21
-87.8486
0
LINE
8
BLACK
6
CONTINUOUS
10
103.632
20
-87.8486
11
103.843
21
-87.8486
0
LINE
8
BLACK
6
CONTINUOUS
10
103.843
20
-87.8486
11
103.843
21
-86.9236
0
LINE
8
BLACK
6
CONTINUOUS
10
103.843
20
-86.9236
11
103.847
21
-86.898
0
LINE
8
BLACK
6
CONTINUOUS
10
103.847
20
-86.898
11
103.88
21
-86.8587
0
LINE
8
BLACK
6
CONTINUOUS
10
103.88
20
-86.8587
11
103.931
21
-86.8498
0
LINE
8
BLACK
6
CONTINUOUS
10
103.931
20
-86.8498
11
103.975
21
-86.8754
0
LINE
8
BLACK
6
CONTINUOUS
10
105.16
20
-86.8694
11
105.183
21
-86.9154
0
LINE
8
BLACK
6
CONTINUOUS
10
105.183
20
-86.9154
11
105.171
21
-86.9652
0
LINE
8
BLACK
6
CONTINUOUS
10
105.171
20
-86.9652
11
104.865
21
-87.4236
0
LINE
8
BLACK
6
CONTINUOUS
10
104.865
20
-87.4236
11
105.171
21
-87.882
0
LINE
8
BLACK
6
CONTINUOUS
10
105.171
20
-87.882
11
105.181
21
-87.9059
0
LINE
8
BLACK
6
CONTINUOUS
10
105.181
20
-87.9059
11
105.176
21
-87.9569
0
LINE
8
BLACK
6
CONTINUOUS
10
105.176
20
-87.9569
11
105.138
21
-87.9923
0
LINE
8
BLACK
6
CONTINUOUS
10
105.138
20
-87.9923
11
105.087
21
-87.9956
0
LINE
8
BLACK
6
CONTINUOUS
10
105.087
20
-87.9956
11
105.046
21
-87.9652
0
LINE
8
BLACK
6
CONTINUOUS
10
105.046
20
-87.9652
11
104.775
21
-87.5588
0
LINE
8
BLACK
6
CONTINUOUS
10
104.775
20
-87.5588
11
104.504
21
-87.9652
0
LINE
8
BLACK
6
CONTINUOUS
10
104.504
20
-87.9652
11
104.486
21
-87.9841
0
LINE
8
BLACK
6
CONTINUOUS
10
104.486
20
-87.9841
11
104.437
21
-87.9985
0
LINE
8
BLACK
6
CONTINUOUS
10
104.437
20
-87.9985
11
104.39
21
-87.9779
0
LINE
8
BLACK
6
CONTINUOUS
10
104.39
20
-87.9779
11
104.367
21
-87.9319
0
LINE
8
BLACK
6
CONTINUOUS
10
104.367
20
-87.9319
11
104.379
21
-87.882
0
LINE
8
BLACK
6
CONTINUOUS
10
104.379
20
-87.882
11
104.685
21
-87.4236
0
LINE
8
BLACK
6
CONTINUOUS
10
104.685
20
-87.4236
11
104.379
21
-86.9652
0
LINE
8
BLACK
6
CONTINUOUS
10
104.379
20
-86.9652
11
104.369
21
-86.9414
0
LINE
8
BLACK
6
CONTINUOUS
10
104.369
20
-86.9414
11
104.374
21
-86.8904
0
LINE
8
BLACK
6
CONTINUOUS
10
104.374
20
-86.8904
11
104.411
21
-86.8549
0
LINE
8
BLACK
6
CONTINUOUS
10
104.411
20
-86.8549
11
104.463
21
-86.8516
0
LINE
8
BLACK
6
CONTINUOUS
10
104.463
20
-86.8516
11
104.504
21
-86.882
0
LINE
8
BLACK
6
CONTINUOUS
10
104.504
20
-86.882
11
104.775
21
-87.2884
0
LINE
8
BLACK
6
CONTINUOUS
10
104.775
20
-87.2884
11
105.046
21
-86.882
0
LINE
8
BLACK
6
CONTINUOUS
10
105.046
20
-86.882
11
105.064
21
-86.8632
0
LINE
8
BLACK
6
CONTINUOUS
10
105.064
20
-86.8632
11
105.113
21
-86.8488
0
LINE
8
BLACK
6
CONTINUOUS
10
105.113
20
-86.8488
11
105.16
21
-86.8694
0
LINE
8
BLACK
6
CONTINUOUS
10
117.318
20
-86.7551
11
117.321
21
-86.7545
0
LINE
8
BLACK
6
CONTINUOUS
10
117.321
20
-86.7545
11
117.324
21
-86.7562
0
LINE
8
BLACK
6
CONTINUOUS
10
117.324
20
-86.7562
11
117.334
21
-86.7579
0
LINE
8
BLACK
6
CONTINUOUS
10
117.334
20
-86.7579
11
117.349
21
-86.7704
0
LINE
8
BLACK
6
CONTINUOUS
10
117.349
20
-86.7704
11
117.366
21
-86.7802
0
LINE
8
BLACK
6
CONTINUOUS
10
117.366
20
-86.7802
11
117.368
21
-86.7865
0
LINE
8
BLACK
6
CONTINUOUS
10
117.368
20
-86.7865
11
117.373
21
-86.7909
0
LINE
8
BLACK
6
CONTINUOUS
10
117.373
20
-86.7909
11
117.377
21
-86.8101
0
LINE
8
BLACK
6
CONTINUOUS
10
117.377
20
-86.8101
11
117.383
21
-86.8284
0
LINE
8
BLACK
6
CONTINUOUS
10
117.383
20
-86.8284
11
117.383
21
-87.8284
0
LINE
8
BLACK
6
CONTINUOUS
10
117.383
20
-87.8284
11
117.382
21
-87.8381
0
LINE
8
BLACK
6
CONTINUOUS
10
117.382
20
-87.8381
11
117.382
21
-87.8414
0
LINE
8
BLACK
6
CONTINUOUS
10
117.382
20
-87.8414
11
117.38
21
-87.8443
0
LINE
8
BLACK
6
CONTINUOUS
10
117.38
20
-87.8443
11
117.379
21
-87.854
0
LINE
8
BLACK
6
CONTINUOUS
10
117.379
20
-87.854
11
117.366
21
-87.869
0
LINE
8
BLACK
6
CONTINUOUS
10
117.366
20
-87.869
11
117.356
21
-87.8858
0
LINE
8
BLACK
6
CONTINUOUS
10
117.356
20
-87.8858
11
117.35
21
-87.8881
0
LINE
8
BLACK
6
CONTINUOUS
10
117.35
20
-87.8881
11
117.346
21
-87.8933
0
LINE
8
BLACK
6
CONTINUOUS
10
117.346
20
-87.8933
11
117.327
21
-87.8967
0
LINE
8
BLACK
6
CONTINUOUS
10
117.327
20
-87.8967
11
117.308
21
-87.9034
0
LINE
8
BLACK
6
CONTINUOUS
10
117.308
20
-87.9034
11
117.07
21
-87.9034
0
LINE
8
BLACK
6
CONTINUOUS
10
117.07
20
-87.9034
11
117.048
21
-87.8995
0
LINE
8
BLACK
6
CONTINUOUS
10
117.048
20
-87.8995
11
117.046
21
-87.8995
0
LINE
8
BLACK
6
CONTINUOUS
10
117.046
20
-87.8995
11
116.904
21
-87.8519
0
LINE
8
BLACK
6
CONTINUOUS
10
116.904
20
-87.8519
11
116.881
21
-87.8395
0
LINE
8
BLACK
6
CONTINUOUS
10
116.881
20
-87.8395
11
116.878
21
-87.8357
0
LINE
8
BLACK
6
CONTINUOUS
10
116.878
20
-87.8357
11
116.874
21
-87.8338
0
LINE
8
BLACK
6
CONTINUOUS
10
116.874
20
-87.8338
11
116.779
21
-87.7386
0
LINE
8
BLACK
6
CONTINUOUS
10
116.779
20
-87.7386
11
116.766
21
-87.7202
0
LINE
8
BLACK
6
CONTINUOUS
10
116.766
20
-87.7202
11
116.765
21
-87.7191
0
LINE
8
BLACK
6
CONTINUOUS
10
116.765
20
-87.7191
11
116.717
21
-87.6238
0
LINE
8
BLACK
6
CONTINUOUS
10
116.717
20
-87.6238
11
116.714
21
-87.6114
0
LINE
8
BLACK
6
CONTINUOUS
10
116.714
20
-87.6114
11
116.712
21
-87.6085
0
LINE
8
BLACK
6
CONTINUOUS
10
116.712
20
-87.6085
11
116.664
21
-87.418
0
LINE
8
BLACK
6
CONTINUOUS
10
116.664
20
-87.418
11
116.663
21
-87.4031
0
LINE
8
BLACK
6
CONTINUOUS
10
116.663
20
-87.4031
11
116.662
21
-87.3998
0
LINE
8
BLACK
6
CONTINUOUS
10
116.662
20
-87.3998
11
116.662
21
-87.257
0
LINE
8
BLACK
6
CONTINUOUS
10
116.662
20
-87.257
11
116.664
21
-87.2422
0
LINE
8
BLACK
6
CONTINUOUS
10
116.664
20
-87.2422
11
116.664
21
-87.2388
0
LINE
8
BLACK
6
CONTINUOUS
10
116.664
20
-87.2388
11
116.712
21
-87.0483
0
LINE
8
BLACK
6
CONTINUOUS
10
116.712
20
-87.0483
11
116.717
21
-87.0365
0
LINE
8
BLACK
6
CONTINUOUS
10
116.717
20
-87.0365
11
116.717
21
-87.0329
0
LINE
8
BLACK
6
CONTINUOUS
10
116.717
20
-87.0329
11
116.765
21
-86.9377
0
LINE
8
BLACK
6
CONTINUOUS
10
116.765
20
-86.9377
11
116.778
21
-86.9197
0
LINE
8
BLACK
6
CONTINUOUS
10
116.778
20
-86.9197
11
116.779
21
-86.9182
0
LINE
8
BLACK
6
CONTINUOUS
10
116.779
20
-86.9182
11
116.874
21
-86.823
0
LINE
8
BLACK
6
CONTINUOUS
10
116.874
20
-86.823
11
116.896
21
-86.808
0
LINE
8
BLACK
6
CONTINUOUS
10
116.896
20
-86.808
11
116.9
21
-86.8076
0
LINE
8
BLACK
6
CONTINUOUS
10
116.9
20
-86.8076
11
116.904
21
-86.8048
0
LINE
8
BLACK
6
CONTINUOUS
10
116.904
20
-86.8048
11
117.046
21
-86.7572
0
LINE
8
BLACK
6
CONTINUOUS
10
117.046
20
-86.7572
11
117.069
21
-86.7539
0
LINE
8
BLACK
6
CONTINUOUS
10
117.069
20
-86.7539
11
117.07
21
-86.7534
0
LINE
8
BLACK
6
CONTINUOUS
10
117.07
20
-86.7534
11
117.308
21
-86.7534
0
LINE
8
BLACK
6
CONTINUOUS
10
117.308
20
-86.7534
11
117.318
21
-86.7551
0
LINE
8
BLACK
6
CONTINUOUS
10
117.082
20
-86.9034
11
116.968
21
-86.9416
0
LINE
8
BLACK
6
CONTINUOUS
10
116.968
20
-86.9416
11
116.894
21
-87.0157
0
LINE
8
BLACK
6
CONTINUOUS
10
116.894
20
-87.0157
11
116.855
21
-87.0927
0
LINE
8
BLACK
6
CONTINUOUS
10
116.855
20
-87.0927
11
116.812
21
-87.2662
0
LINE
8
BLACK
6
CONTINUOUS
10
116.812
20
-87.2662
11
116.812
21
-87.3906
0
LINE
8
BLACK
6
CONTINUOUS
10
116.812
20
-87.3906
11
116.855
21
-87.5641
0
LINE
8
BLACK
6
CONTINUOUS
10
116.855
20
-87.5641
11
116.894
21
-87.6411
0
LINE
8
BLACK
6
CONTINUOUS
10
116.894
20
-87.6411
11
116.968
21
-87.7152
0
LINE
8
BLACK
6
CONTINUOUS
10
116.968
20
-87.7152
11
117.082
21
-87.7534
0
LINE
8
BLACK
6
CONTINUOUS
10
117.082
20
-87.7534
11
117.233
21
-87.7534
0
LINE
8
BLACK
6
CONTINUOUS
10
117.233
20
-87.7534
11
117.233
21
-86.9034
0
LINE
8
BLACK
6
CONTINUOUS
10
117.233
20
-86.9034
11
117.082
21
-86.9034
0
LINE
8
BLACK
6
CONTINUOUS
10
118.143
20
-86.7579
11
118.147
21
-86.7608
0
LINE
8
BLACK
6
CONTINUOUS
10
118.147
20
-86.7608
11
118.151
21
-86.7613
0
LINE
8
BLACK
6
CONTINUOUS
10
118.151
20
-86.7613
11
118.247
21
-86.8089
0
LINE
8
BLACK
6
CONTINUOUS
10
118.247
20
-86.8089
11
118.265
21
-86.8223
0
LINE
8
BLACK
6
CONTINUOUS
10
118.265
20
-86.8223
11
118.266
21
-86.823
0
LINE
8
BLACK
6
CONTINUOUS
10
118.266
20
-86.823
11
118.314
21
-86.8706
0
LINE
8
BLACK
6
CONTINUOUS
10
118.314
20
-86.8706
11
118.327
21
-86.889
0
LINE
8
BLACK
6
CONTINUOUS
10
118.327
20
-86.889
11
118.328
21
-86.8901
0
LINE
8
BLACK
6
CONTINUOUS
10
118.328
20
-86.8901
11
118.375
21
-86.9853
0
LINE
8
BLACK
6
CONTINUOUS
10
118.375
20
-86.9853
11
118.383
21
-87.0103
0
LINE
8
BLACK
6
CONTINUOUS
10
118.383
20
-87.0103
11
118.382
21
-87.0146
0
LINE
8
BLACK
6
CONTINUOUS
10
118.382
20
-87.0146
11
118.383
21
-87.0189
0
LINE
8
BLACK
6
CONTINUOUS
10
118.383
20
-87.0189
11
118.383
21
-87.1141
0
LINE
8
BLACK
6
CONTINUOUS
10
118.383
20
-87.1141
11
118.379
21
-87.1397
0
LINE
8
BLACK
6
CONTINUOUS
10
118.379
20
-87.1397
11
118.376
21
-87.1432
0
LINE
8
BLACK
6
CONTINUOUS
10
118.376
20
-87.1432
11
118.375
21
-87.1476
0
LINE
8
BLACK
6
CONTINUOUS
10
118.375
20
-87.1476
11
118.328
21
-87.2429
0
LINE
8
BLACK
6
CONTINUOUS
10
118.328
20
-87.2429
11
118.314
21
-87.2609
0
LINE
8
BLACK
6
CONTINUOUS
10
118.314
20
-87.2609
11
118.314
21
-87.2624
0
LINE
8
BLACK
6
CONTINUOUS
10
118.314
20
-87.2624
11
118.266
21
-87.31
0
LINE
8
BLACK
6
CONTINUOUS
10
118.266
20
-87.31
11
118.248
21
-87.3228
0
LINE
8
BLACK
6
CONTINUOUS
10
118.248
20
-87.3228
11
118.247
21
-87.324
0
LINE
8
BLACK
6
CONTINUOUS
10
118.247
20
-87.324
11
118.151
21
-87.3717
0
LINE
8
BLACK
6
CONTINUOUS
10
118.151
20
-87.3717
11
118.139
21
-87.3753
0
LINE
8
BLACK
6
CONTINUOUS
10
118.139
20
-87.3753
11
118.136
21
-87.3773
0
LINE
8
BLACK
6
CONTINUOUS
10
118.136
20
-87.3773
11
117.954
21
-87.423
0
LINE
8
BLACK
6
CONTINUOUS
10
117.954
20
-87.423
11
117.877
21
-87.4614
0
LINE
8
BLACK
6
CONTINUOUS
10
117.877
20
-87.4614
11
117.846
21
-87.4919
0
LINE
8
BLACK
6
CONTINUOUS
10
117.846
20
-87.4919
11
117.812
21
-87.5604
0
LINE
8
BLACK
6
CONTINUOUS
10
117.812
20
-87.5604
11
117.812
21
-87.6202
0
LINE
8
BLACK
6
CONTINUOUS
10
117.812
20
-87.6202
11
117.846
21
-87.6887
0
LINE
8
BLACK
6
CONTINUOUS
10
117.846
20
-87.6887
11
117.877
21
-87.7191
0
LINE
8
BLACK
6
CONTINUOUS
10
117.877
20
-87.7191
11
117.945
21
-87.7534
0
LINE
8
BLACK
6
CONTINUOUS
10
117.945
20
-87.7534
11
118.153
21
-87.7534
0
LINE
8
BLACK
6
CONTINUOUS
10
118.153
20
-87.7534
11
118.285
21
-87.7096
0
LINE
8
BLACK
6
CONTINUOUS
10
118.285
20
-87.7096
11
118.31
21
-87.7058
0
LINE
8
BLACK
6
CONTINUOUS
10
118.31
20
-87.7058
11
118.358
21
-87.7246
0
LINE
8
BLACK
6
CONTINUOUS
10
118.358
20
-87.7246
11
118.382
21
-87.7698
0
LINE
8
BLACK
6
CONTINUOUS
10
118.382
20
-87.7698
11
118.372
21
-87.82
0
LINE
8
BLACK
6
CONTINUOUS
10
118.372
20
-87.82
11
118.332
21
-87.8519
0
LINE
8
BLACK
6
CONTINUOUS
10
118.332
20
-87.8519
11
118.189
21
-87.8995
0
LINE
8
BLACK
6
CONTINUOUS
10
118.189
20
-87.8995
11
118.167
21
-87.9028
0
LINE
8
BLACK
6
CONTINUOUS
10
118.167
20
-87.9028
11
118.165
21
-87.9034
0
LINE
8
BLACK
6
CONTINUOUS
10
118.165
20
-87.9034
11
117.927
21
-87.9034
0
LINE
8
BLACK
6
CONTINUOUS
10
117.927
20
-87.9034
11
117.902
21
-87.8989
0
LINE
8
BLACK
6
CONTINUOUS
10
117.902
20
-87.8989
11
117.898
21
-87.896
0
LINE
8
BLACK
6
CONTINUOUS
10
117.898
20
-87.896
11
117.894
21
-87.8955
0
LINE
8
BLACK
6
CONTINUOUS
10
117.894
20
-87.8955
11
117.799
21
-87.8478
0
LINE
8
BLACK
6
CONTINUOUS
10
117.799
20
-87.8478
11
117.781
21
-87.8345
0
LINE
8
BLACK
6
CONTINUOUS
10
117.781
20
-87.8345
11
117.779
21
-87.8338
0
LINE
8
BLACK
6
CONTINUOUS
10
117.779
20
-87.8338
11
117.731
21
-87.7862
0
LINE
8
BLACK
6
CONTINUOUS
10
117.731
20
-87.7862
11
117.719
21
-87.7678
0
LINE
8
BLACK
6
CONTINUOUS
10
117.719
20
-87.7678
11
117.717
21
-87.7667
0
LINE
8
BLACK
6
CONTINUOUS
10
117.717
20
-87.7667
11
117.67
21
-87.6714
0
LINE
8
BLACK
6
CONTINUOUS
10
117.67
20
-87.6714
11
117.662
21
-87.6465
0
LINE
8
BLACK
6
CONTINUOUS
10
117.662
20
-87.6465
11
117.663
21
-87.6421
0
LINE
8
BLACK
6
CONTINUOUS
10
117.663
20
-87.6421
11
117.662
21
-87.6379
0
LINE
8
BLACK
6
CONTINUOUS
10
117.662
20
-87.6379
11
117.662
21
-87.5427
0
LINE
8
BLACK
6
CONTINUOUS
10
117.662
20
-87.5427
11
117.666
21
-87.517
0
LINE
8
BLACK
6
CONTINUOUS
10
117.666
20
-87.517
11
117.669
21
-87.5136
0
LINE
8
BLACK
6
CONTINUOUS
10
117.669
20
-87.5136
11
117.67
21
-87.5091
0
LINE
8
BLACK
6
CONTINUOUS
10
117.67
20
-87.5091
11
117.717
21
-87.4139
0
LINE
8
BLACK
6
CONTINUOUS
10
117.717
20
-87.4139
11
117.731
21
-87.3959
0
LINE
8
BLACK
6
CONTINUOUS
10
117.731
20
-87.3959
11
117.731
21
-87.3944
0
LINE
8
BLACK
6
CONTINUOUS
10
117.731
20
-87.3944
11
117.779
21
-87.3468
0
LINE
8
BLACK
6
CONTINUOUS
10
117.779
20
-87.3468
11
117.797
21
-87.3339
0
LINE
8
BLACK
6
CONTINUOUS
10
117.797
20
-87.3339
11
117.799
21
-87.3327
0
LINE
8
BLACK
6
CONTINUOUS
10
117.799
20
-87.3327
11
117.894
21
-87.2851
0
LINE
8
BLACK
6
CONTINUOUS
10
117.894
20
-87.2851
11
117.906
21
-87.2814
0
LINE
8
BLACK
6
CONTINUOUS
10
117.906
20
-87.2814
11
117.909
21
-87.2794
0
LINE
8
BLACK
6
CONTINUOUS
10
117.909
20
-87.2794
11
118.092
21
-87.2338
0
LINE
8
BLACK
6
CONTINUOUS
10
118.092
20
-87.2338
11
118.169
21
-87.1953
0
LINE
8
BLACK
6
CONTINUOUS
10
118.169
20
-87.1953
11
118.199
21
-87.1649
0
LINE
8
BLACK
6
CONTINUOUS
10
118.199
20
-87.1649
11
118.233
21
-87.0964
0
LINE
8
BLACK
6
CONTINUOUS
10
118.233
20
-87.0964
11
118.233
21
-87.0366
0
LINE
8
BLACK
6
CONTINUOUS
10
118.233
20
-87.0366
11
118.199
21
-86.968
0
LINE
8
BLACK
6
CONTINUOUS
10
118.199
20
-86.968
11
118.169
21
-86.9376
0
LINE
8
BLACK
6
CONTINUOUS
10
118.169
20
-86.9376
11
118.1
21
-86.9034
0
LINE
8
BLACK
6
CONTINUOUS
10
118.1
20
-86.9034
11
117.892
21
-86.9034
0
LINE
8
BLACK
6
CONTINUOUS
10
117.892
20
-86.9034
11
117.761
21
-86.9472
0
LINE
8
BLACK
6
CONTINUOUS
10
117.761
20
-86.9472
11
117.735
21
-86.951
0
LINE
8
BLACK
6
CONTINUOUS
10
117.735
20
-86.951
11
117.687
21
-86.9321
0
LINE
8
BLACK
6
CONTINUOUS
10
117.687
20
-86.9321
11
117.663
21
-86.887
0
LINE
8
BLACK
6
CONTINUOUS
10
117.663
20
-86.887
11
117.673
21
-86.8367
0
LINE
8
BLACK
6
CONTINUOUS
10
117.673
20
-86.8367
11
117.713
21
-86.8048
0
LINE
8
BLACK
6
CONTINUOUS
10
117.713
20
-86.8048
11
117.856
21
-86.7572
0
LINE
8
BLACK
6
CONTINUOUS
10
117.856
20
-86.7572
11
117.878
21
-86.7539
0
LINE
8
BLACK
6
CONTINUOUS
10
117.878
20
-86.7539
11
117.88
21
-86.7534
0
LINE
8
BLACK
6
CONTINUOUS
10
117.88
20
-86.7534
11
118.118
21
-86.7534
0
LINE
8
BLACK
6
CONTINUOUS
10
118.118
20
-86.7534
11
118.143
21
-86.7579
0
LINE
8
BLACK
6
CONTINUOUS
10
116.13
20
-86.7589
11
116.154
21
-86.7624
0
LINE
8
BLACK
6
CONTINUOUS
10
116.154
20
-86.7624
11
116.155
21
-86.764
0
LINE
8
BLACK
6
CONTINUOUS
10
116.155
20
-86.764
11
116.157
21
-86.7645
0
LINE
8
BLACK
6
CONTINUOUS
10
116.157
20
-86.7645
11
116.172
21
-86.7831
0
LINE
8
BLACK
6
CONTINUOUS
10
116.172
20
-86.7831
11
116.188
21
-86.8008
0
LINE
8
BLACK
6
CONTINUOUS
10
116.188
20
-86.8008
11
116.188
21
-86.803
0
LINE
8
BLACK
6
CONTINUOUS
10
116.188
20
-86.803
11
116.189
21
-86.8047
0
LINE
8
BLACK
6
CONTINUOUS
10
116.189
20
-86.8047
11
116.522
21
-87.8047
0
LINE
8
BLACK
6
CONTINUOUS
10
116.522
20
-87.8047
11
116.526
21
-87.8304
0
LINE
8
BLACK
6
CONTINUOUS
10
116.526
20
-87.8304
11
116.507
21
-87.8781
0
LINE
8
BLACK
6
CONTINUOUS
10
116.507
20
-87.8781
11
116.462
21
-87.9026
0
LINE
8
BLACK
6
CONTINUOUS
10
116.462
20
-87.9026
11
116.412
21
-87.8923
0
LINE
8
BLACK
6
CONTINUOUS
10
116.412
20
-87.8923
11
116.38
21
-87.8521
0
LINE
8
BLACK
6
CONTINUOUS
10
116.38
20
-87.8521
11
116.302
21
-87.6177
0
LINE
8
BLACK
6
CONTINUOUS
10
116.302
20
-87.6177
11
115.934
21
-87.6177
0
LINE
8
BLACK
6
CONTINUOUS
10
115.934
20
-87.6177
11
115.856
21
-87.8521
0
LINE
8
BLACK
6
CONTINUOUS
10
115.856
20
-87.8521
11
115.843
21
-87.875
0
LINE
8
BLACK
6
CONTINUOUS
10
115.843
20
-87.875
11
115.8
21
-87.9019
0
LINE
8
BLACK
6
CONTINUOUS
10
115.8
20
-87.9019
11
115.749
21
-87.8943
0
LINE
8
BLACK
6
CONTINUOUS
10
115.749
20
-87.8943
11
115.715
21
-87.8559
0
LINE
8
BLACK
6
CONTINUOUS
10
115.715
20
-87.8559
11
115.713
21
-87.8047
0
LINE
8
BLACK
6
CONTINUOUS
10
115.713
20
-87.8047
11
116.047
21
-86.8047
0
LINE
8
BLACK
6
CONTINUOUS
10
116.047
20
-86.8047
11
116.059
21
-86.7818
0
LINE
8
BLACK
6
CONTINUOUS
10
116.059
20
-86.7818
11
116.061
21
-86.7806
0
LINE
8
BLACK
6
CONTINUOUS
10
116.061
20
-86.7806
11
116.062
21
-86.7786
0
LINE
8
BLACK
6
CONTINUOUS
10
116.062
20
-86.7786
11
116.083
21
-86.7673
0
LINE
8
BLACK
6
CONTINUOUS
10
116.083
20
-86.7673
11
116.103
21
-86.7549
0
LINE
8
BLACK
6
CONTINUOUS
10
116.103
20
-86.7549
11
116.105
21
-86.7552
0
LINE
8
BLACK
6
CONTINUOUS
10
116.105
20
-86.7552
11
116.107
21
-86.7542
0
LINE
8
BLACK
6
CONTINUOUS
10
116.107
20
-86.7542
11
116.13
21
-86.7589
0
LINE
8
BLACK
6
CONTINUOUS
10
115.984
20
-87.4677
11
116.252
21
-87.4677
0
LINE
8
BLACK
6
CONTINUOUS
10
116.252
20
-87.4677
11
116.118
21
-87.0656
0
LINE
8
BLACK
6
CONTINUOUS
10
116.118
20
-87.0656
11
115.984
21
-87.4677
0
LINE
8
BLACK
6
CONTINUOUS
10
104.28
20
-84.3306
11
104.302
21
-84.3771
0
LINE
8
BLACK
6
CONTINUOUS
10
104.302
20
-84.3771
11
104.289
21
-84.4266
0
LINE
8
BLACK
6
CONTINUOUS
10
104.289
20
-84.4266
11
104.038
21
-84.785
0
LINE
8
BLACK
6
CONTINUOUS
10
104.038
20
-84.785
11
104.063
21
-84.7893
0
LINE
8
BLACK
6
CONTINUOUS
10
104.063
20
-84.7893
11
104.066
21
-84.7922
0
LINE
8
BLACK
6
CONTINUOUS
10
104.066
20
-84.7922
11
104.07
21
-84.7927
0
LINE
8
BLACK
6
CONTINUOUS
10
104.07
20
-84.7927
11
104.166
21
-84.8403
0
LINE
8
BLACK
6
CONTINUOUS
10
104.166
20
-84.8403
11
104.184
21
-84.8537
0
LINE
8
BLACK
6
CONTINUOUS
10
104.184
20
-84.8537
11
104.185
21
-84.8544
0
LINE
8
BLACK
6
CONTINUOUS
10
104.185
20
-84.8544
11
104.233
21
-84.902
0
LINE
8
BLACK
6
CONTINUOUS
10
104.233
20
-84.902
11
104.246
21
-84.9204
0
LINE
8
BLACK
6
CONTINUOUS
10
104.246
20
-84.9204
11
104.247
21
-84.9215
0
LINE
8
BLACK
6
CONTINUOUS
10
104.247
20
-84.9215
11
104.294
21
-85.0167
0
LINE
8
BLACK
6
CONTINUOUS
10
104.294
20
-85.0167
11
104.302
21
-85.0417
0
LINE
8
BLACK
6
CONTINUOUS
10
104.302
20
-85.0417
11
104.301
21
-85.0461
0
LINE
8
BLACK
6
CONTINUOUS
10
104.301
20
-85.0461
11
104.302
21
-85.0503
0
LINE
8
BLACK
6
CONTINUOUS
10
104.302
20
-85.0503
11
104.302
21
-85.1931
0
LINE
8
BLACK
6
CONTINUOUS
10
104.302
20
-85.1931
11
104.298
21
-85.2188
0
LINE
8
BLACK
6
CONTINUOUS
10
104.298
20
-85.2188
11
104.295
21
-85.2222
0
LINE
8
BLACK
6
CONTINUOUS
10
104.295
20
-85.2222
11
104.294
21
-85.2267
0
LINE
8
BLACK
6
CONTINUOUS
10
104.294
20
-85.2267
11
104.247
21
-85.3219
0
LINE
8
BLACK
6
CONTINUOUS
10
104.247
20
-85.3219
11
104.233
21
-85.3399
0
LINE
8
BLACK
6
CONTINUOUS
10
104.233
20
-85.3399
11
104.233
21
-85.3414
0
LINE
8
BLACK
6
CONTINUOUS
10
104.233
20
-85.3414
11
104.185
21
-85.389
0
LINE
8
BLACK
6
CONTINUOUS
10
104.185
20
-85.389
11
104.167
21
-85.4019
0
LINE
8
BLACK
6
CONTINUOUS
10
104.167
20
-85.4019
11
104.166
21
-85.4031
0
LINE
8
BLACK
6
CONTINUOUS
10
104.166
20
-85.4031
11
104.07
21
-85.4507
0
LINE
8
BLACK
6
CONTINUOUS
10
104.07
20
-85.4507
11
104.045
21
-85.4581
0
LINE
8
BLACK
6
CONTINUOUS
10
104.045
20
-85.4581
11
104.041
21
-85.4571
0
LINE
8
BLACK
6
CONTINUOUS
10
104.041
20
-85.4571
11
104.037
21
-85.4586
0
LINE
8
BLACK
6
CONTINUOUS
10
104.037
20
-85.4586
11
103.656
21
-85.4586
0
LINE
8
BLACK
6
CONTINUOUS
10
103.656
20
-85.4586
11
103.646
21
-85.4569
0
LINE
8
BLACK
6
CONTINUOUS
10
103.646
20
-85.4569
11
103.643
21
-85.4575
0
LINE
8
BLACK
6
CONTINUOUS
10
103.643
20
-85.4575
11
103.64
21
-85.4558
0
LINE
8
BLACK
6
CONTINUOUS
10
103.64
20
-85.4558
11
103.63
21
-85.4541
0
LINE
8
BLACK
6
CONTINUOUS
10
103.63
20
-85.4541
11
103.615
21
-85.4416
0
LINE
8
BLACK
6
CONTINUOUS
10
103.615
20
-85.4416
11
103.598
21
-85.4318
0
LINE
8
BLACK
6
CONTINUOUS
10
103.598
20
-85.4318
11
103.596
21
-85.4255
0
LINE
8
BLACK
6
CONTINUOUS
10
103.596
20
-85.4255
11
103.591
21
-85.4211
0
LINE
8
BLACK
6
CONTINUOUS
10
103.591
20
-85.4211
11
103.588
21
-85.4019
0
LINE
8
BLACK
6
CONTINUOUS
10
103.588
20
-85.4019
11
103.581
21
-85.3836
0
LINE
8
BLACK
6
CONTINUOUS
10
103.581
20
-85.3836
11
103.581
21
-84.3836
0
LINE
8
BLACK
6
CONTINUOUS
10
103.581
20
-84.3836
11
103.585
21
-84.358
0
LINE
8
BLACK
6
CONTINUOUS
10
103.585
20
-84.358
11
103.618
21
-84.3187
0
LINE
8
BLACK
6
CONTINUOUS
10
103.618
20
-84.3187
11
103.669
21
-84.3098
0
LINE
8
BLACK
6
CONTINUOUS
10
103.669
20
-84.3098
11
103.713
21
-84.3354
0
LINE
8
BLACK
6
CONTINUOUS
10
103.713
20
-84.3354
11
103.731
21
-84.3836
0
LINE
8
BLACK
6
CONTINUOUS
10
103.731
20
-84.3836
11
103.731
21
-84.7848
0
LINE
8
BLACK
6
CONTINUOUS
10
103.731
20
-84.7848
11
103.855
21
-84.7848
0
LINE
8
BLACK
6
CONTINUOUS
10
103.855
20
-84.7848
11
104.166
21
-84.3406
0
LINE
8
BLACK
6
CONTINUOUS
10
104.166
20
-84.3406
11
104.184
21
-84.3222
0
LINE
8
BLACK
6
CONTINUOUS
10
104.184
20
-84.3222
11
104.234
21
-84.3089
0
LINE
8
BLACK
6
CONTINUOUS
10
104.234
20
-84.3089
11
104.28
21
-84.3306
0
LINE
8
BLACK
6
CONTINUOUS
10
103.731
20
-84.9348
11
103.731
21
-85.3086
0
LINE
8
BLACK
6
CONTINUOUS
10
103.731
20
-85.3086
11
104.019
21
-85.3086
0
LINE
8
BLACK
6
CONTINUOUS
10
104.019
20
-85.3086
11
104.088
21
-85.2744
0
LINE
8
BLACK
6
CONTINUOUS
10
104.088
20
-85.2744
11
104.118
21
-85.244
0
LINE
8
BLACK
6
CONTINUOUS
10
104.118
20
-85.244
11
104.152
21
-85.1754
0
LINE
8
BLACK
6
CONTINUOUS
10
104.152
20
-85.1754
11
104.152
21
-85.068
0
LINE
8
BLACK
6
CONTINUOUS
10
104.152
20
-85.068
11
104.118
21
-84.9995
0
LINE
8
BLACK
6
CONTINUOUS
10
104.118
20
-84.9995
11
104.088
21
-84.9691
0
LINE
8
BLACK
6
CONTINUOUS
10
104.088
20
-84.9691
11
104.019
21
-84.9348
0
LINE
8
BLACK
6
CONTINUOUS
10
104.019
20
-84.9348
11
103.731
21
-84.9348
0
LINE
8
BLACK
6
CONTINUOUS
10
105.279
20
-84.3294
11
105.302
21
-84.3754
0
LINE
8
BLACK
6
CONTINUOUS
10
105.302
20
-84.3754
11
105.29
21
-84.4252
0
LINE
8
BLACK
6
CONTINUOUS
10
105.29
20
-84.4252
11
104.984
21
-84.8836
0
LINE
8
BLACK
6
CONTINUOUS
10
104.984
20
-84.8836
11
105.29
21
-85.342
0
LINE
8
BLACK
6
CONTINUOUS
10
105.29
20
-85.342
11
105.3
21
-85.3659
0
LINE
8
BLACK
6
CONTINUOUS
10
105.3
20
-85.3659
11
105.295
21
-85.4169
0
LINE
8
BLACK
6
CONTINUOUS
10
105.295
20
-85.4169
11
105.257
21
-85.4523
0
LINE
8
BLACK
6
CONTINUOUS
10
105.257
20
-85.4523
11
105.206
21
-85.4556
0
LINE
8
BLACK
6
CONTINUOUS
10
105.206
20
-85.4556
11
105.165
21
-85.4252
0
LINE
8
BLACK
6
CONTINUOUS
10
105.165
20
-85.4252
11
104.894
21
-85.0188
0
LINE
8
BLACK
6
CONTINUOUS
10
104.894
20
-85.0188
11
104.623
21
-85.4252
0
LINE
8
BLACK
6
CONTINUOUS
10
104.623
20
-85.4252
11
104.605
21
-85.4441
0
LINE
8
BLACK
6
CONTINUOUS
10
104.605
20
-85.4441
11
104.556
21
-85.4585
0
LINE
8
BLACK
6
CONTINUOUS
10
104.556
20
-85.4585
11
104.509
21
-85.4379
0
LINE
8
BLACK
6
CONTINUOUS
10
104.509
20
-85.4379
11
104.486
21
-85.3919
0
LINE
8
BLACK
6
CONTINUOUS
10
104.486
20
-85.3919
11
104.498
21
-85.342
0
LINE
8
BLACK
6
CONTINUOUS
10
104.498
20
-85.342
11
104.804
21
-84.8836
0
LINE
8
BLACK
6
CONTINUOUS
10
104.804
20
-84.8836
11
104.498
21
-84.4252
0
LINE
8
BLACK
6
CONTINUOUS
10
104.498
20
-84.4252
11
104.488
21
-84.4014
0
LINE
8
BLACK
6
CONTINUOUS
10
104.488
20
-84.4014
11
104.493
21
-84.3504
0
LINE
8
BLACK
6
CONTINUOUS
10
104.493
20
-84.3504
11
104.531
21
-84.3149
0
LINE
8
BLACK
6
CONTINUOUS
10
104.531
20
-84.3149
11
104.582
21
-84.3116
0
LINE
8
BLACK
6
CONTINUOUS
10
104.582
20
-84.3116
11
104.623
21
-84.342
0
LINE
8
BLACK
6
CONTINUOUS
10
104.623
20
-84.342
11
104.894
21
-84.7484
0
LINE
8
BLACK
6
CONTINUOUS
10
104.894
20
-84.7484
11
105.165
21
-84.342
0
LINE
8
BLACK
6
CONTINUOUS
10
105.165
20
-84.342
11
105.183
21
-84.3232
0
LINE
8
BLACK
6
CONTINUOUS
10
105.183
20
-84.3232
11
105.232
21
-84.3088
0
LINE
8
BLACK
6
CONTINUOUS
10
105.232
20
-84.3088
11
105.279
21
-84.3294
0
LINE
8
BLACK
6
CONTINUOUS
10
117.021
20
-84.2173
11
117.022
21
-84.2172
0
LINE
8
BLACK
6
CONTINUOUS
10
117.022
20
-84.2172
11
117.165
21
-84.2648
0
LINE
8
BLACK
6
CONTINUOUS
10
117.165
20
-84.2648
11
117.188
21
-84.2773
0
LINE
8
BLACK
6
CONTINUOUS
10
117.188
20
-84.2773
11
117.191
21
-84.2811
0
LINE
8
BLACK
6
CONTINUOUS
10
117.191
20
-84.2811
11
117.195
21
-84.283
0
LINE
8
BLACK
6
CONTINUOUS
10
117.195
20
-84.283
11
117.29
21
-84.3782
0
LINE
8
BLACK
6
CONTINUOUS
10
117.29
20
-84.3782
11
117.303
21
-84.3966
0
LINE
8
BLACK
6
CONTINUOUS
10
117.303
20
-84.3966
11
117.304
21
-84.3977
0
LINE
8
BLACK
6
CONTINUOUS
10
117.304
20
-84.3977
11
117.352
21
-84.4929
0
LINE
8
BLACK
6
CONTINUOUS
10
117.352
20
-84.4929
11
117.355
21
-84.5053
0
LINE
8
BLACK
6
CONTINUOUS
10
117.355
20
-84.5053
11
117.357
21
-84.5083
0
LINE
8
BLACK
6
CONTINUOUS
10
117.357
20
-84.5083
11
117.405
21
-84.6988
0
LINE
8
BLACK
6
CONTINUOUS
10
117.405
20
-84.6988
11
117.406
21
-84.7137
0
LINE
8
BLACK
6
CONTINUOUS
10
117.406
20
-84.7137
11
117.407
21
-84.717
0
LINE
8
BLACK
6
CONTINUOUS
10
117.407
20
-84.717
11
117.407
21
-84.8598
0
LINE
8
BLACK
6
CONTINUOUS
10
117.407
20
-84.8598
11
117.404
21
-84.8746
0
LINE
8
BLACK
6
CONTINUOUS
10
117.404
20
-84.8746
11
117.405
21
-84.878
0
LINE
8
BLACK
6
CONTINUOUS
10
117.405
20
-84.878
11
117.357
21
-85.0685
0
LINE
8
BLACK
6
CONTINUOUS
10
117.357
20
-85.0685
11
117.352
21
-85.0803
0
LINE
8
BLACK
6
CONTINUOUS
10
117.352
20
-85.0803
11
117.352
21
-85.0838
0
LINE
8
BLACK
6
CONTINUOUS
10
117.352
20
-85.0838
11
117.304
21
-85.1791
0
LINE
8
BLACK
6
CONTINUOUS
10
117.304
20
-85.1791
11
117.291
21
-85.1971
0
LINE
8
BLACK
6
CONTINUOUS
10
117.291
20
-85.1971
11
117.29
21
-85.1986
0
LINE
8
BLACK
6
CONTINUOUS
10
117.29
20
-85.1986
11
117.195
21
-85.2938
0
LINE
8
BLACK
6
CONTINUOUS
10
117.195
20
-85.2938
11
117.173
21
-85.3087
0
LINE
8
BLACK
6
CONTINUOUS
10
117.173
20
-85.3087
11
117.169
21
-85.3091
0
LINE
8
BLACK
6
CONTINUOUS
10
117.169
20
-85.3091
11
117.165
21
-85.3119
0
LINE
8
BLACK
6
CONTINUOUS
10
117.165
20
-85.3119
11
117.022
21
-85.3595
0
LINE
8
BLACK
6
CONTINUOUS
10
117.022
20
-85.3595
11
117
21
-85.3628
0
LINE
8
BLACK
6
CONTINUOUS
10
117
20
-85.3628
11
116.999
21
-85.3634
0
LINE
8
BLACK
6
CONTINUOUS
10
116.999
20
-85.3634
11
116.904
21
-85.3634
0
LINE
8
BLACK
6
CONTINUOUS
10
116.904
20
-85.3634
11
116.881
21
-85.3595
0
LINE
8
BLACK
6
CONTINUOUS
10
116.881
20
-85.3595
11
116.88
21
-85.3595
0
LINE
8
BLACK
6
CONTINUOUS
10
116.88
20
-85.3595
11
116.737
21
-85.3119
0
LINE
8
BLACK
6
CONTINUOUS
10
116.737
20
-85.3119
11
116.714
21
-85.2995
0
LINE
8
BLACK
6
CONTINUOUS
10
116.714
20
-85.2995
11
116.712
21
-85.2957
0
LINE
8
BLACK
6
CONTINUOUS
10
116.712
20
-85.2957
11
116.708
21
-85.2938
0
LINE
8
BLACK
6
CONTINUOUS
10
116.708
20
-85.2938
11
116.66
21
-85.2462
0
LINE
8
BLACK
6
CONTINUOUS
10
116.66
20
-85.2462
11
116.645
21
-85.2248
0
LINE
8
BLACK
6
CONTINUOUS
10
116.645
20
-85.2248
11
116.641
21
-85.1737
0
LINE
8
BLACK
6
CONTINUOUS
10
116.641
20
-85.1737
11
116.67
21
-85.1317
0
LINE
8
BLACK
6
CONTINUOUS
10
116.67
20
-85.1317
11
116.72
21
-85.1184
0
LINE
8
BLACK
6
CONTINUOUS
10
116.72
20
-85.1184
11
116.766
21
-85.1401
0
LINE
8
BLACK
6
CONTINUOUS
10
116.766
20
-85.1401
11
116.801
21
-85.1752
0
LINE
8
BLACK
6
CONTINUOUS
10
116.801
20
-85.1752
11
116.916
21
-85.2134
0
LINE
8
BLACK
6
CONTINUOUS
10
116.916
20
-85.2134
11
116.987
21
-85.2134
0
LINE
8
BLACK
6
CONTINUOUS
10
116.987
20
-85.2134
11
117.101
21
-85.1752
0
LINE
8
BLACK
6
CONTINUOUS
10
117.101
20
-85.1752
11
117.175
21
-85.1011
0
LINE
8
BLACK
6
CONTINUOUS
10
117.175
20
-85.1011
11
117.214
21
-85.0241
0
LINE
8
BLACK
6
CONTINUOUS
10
117.214
20
-85.0241
11
117.257
21
-84.8506
0
LINE
8
BLACK
6
CONTINUOUS
10
117.257
20
-84.8506
11
117.257
21
-84.7262
0
LINE
8
BLACK
6
CONTINUOUS
10
117.257
20
-84.7262
11
117.214
21
-84.5527
0
LINE
8
BLACK
6
CONTINUOUS
10
117.214
20
-84.5527
11
117.175
21
-84.4757
0
LINE
8
BLACK
6
CONTINUOUS
10
117.175
20
-84.4757
11
117.101
21
-84.4016
0
LINE
8
BLACK
6
CONTINUOUS
10
117.101
20
-84.4016
11
116.987
21
-84.3634
0
LINE
8
BLACK
6
CONTINUOUS
10
116.987
20
-84.3634
11
116.916
21
-84.3634
0
LINE
8
BLACK
6
CONTINUOUS
10
116.916
20
-84.3634
11
116.801
21
-84.4016
0
LINE
8
BLACK
6
CONTINUOUS
10
116.801
20
-84.4016
11
116.766
21
-84.4367
0
LINE
8
BLACK
6
CONTINUOUS
10
116.766
20
-84.4367
11
116.745
21
-84.4516
0
LINE
8
BLACK
6
CONTINUOUS
10
116.745
20
-84.4516
11
116.694
21
-84.4561
0
LINE
8
BLACK
6
CONTINUOUS
10
116.694
20
-84.4561
11
116.652
21
-84.4266
0
LINE
8
BLACK
6
CONTINUOUS
10
116.652
20
-84.4266
11
116.638
21
-84.3771
0
LINE
8
BLACK
6
CONTINUOUS
10
116.638
20
-84.3771
11
116.66
21
-84.3306
0
LINE
8
BLACK
6
CONTINUOUS
10
116.66
20
-84.3306
11
116.708
21
-84.283
0
LINE
8
BLACK
6
CONTINUOUS
10
116.708
20
-84.283
11
116.729
21
-84.268
0
LINE
8
BLACK
6
CONTINUOUS
10
116.729
20
-84.268
11
116.733
21
-84.2676
0
LINE
8
BLACK
6
CONTINUOUS
10
116.733
20
-84.2676
11
116.737
21
-84.2648
0
LINE
8
BLACK
6
CONTINUOUS
10
116.737
20
-84.2648
11
116.88
21
-84.2172
0
LINE
8
BLACK
6
CONTINUOUS
10
116.88
20
-84.2172
11
116.902
21
-84.2139
0
LINE
8
BLACK
6
CONTINUOUS
10
116.902
20
-84.2139
11
116.904
21
-84.2134
0
LINE
8
BLACK
6
CONTINUOUS
10
116.904
20
-84.2134
11
116.999
21
-84.2134
0
LINE
8
BLACK
6
CONTINUOUS
10
116.999
20
-84.2134
11
117.021
21
-84.2173
0
LINE
8
BLACK
6
CONTINUOUS
10
116.342
20
-84.2402
11
116.359
21
-84.2884
0
LINE
8
BLACK
6
CONTINUOUS
10
116.359
20
-84.2884
11
116.359
21
-85.2884
0
LINE
8
BLACK
6
CONTINUOUS
10
116.359
20
-85.2884
11
116.358
21
-85.2981
0
LINE
8
BLACK
6
CONTINUOUS
10
116.358
20
-85.2981
11
116.358
21
-85.3014
0
LINE
8
BLACK
6
CONTINUOUS
10
116.358
20
-85.3014
11
116.357
21
-85.3043
0
LINE
8
BLACK
6
CONTINUOUS
10
116.357
20
-85.3043
11
116.355
21
-85.314
0
LINE
8
BLACK
6
CONTINUOUS
10
116.355
20
-85.314
11
116.342
21
-85.329
0
LINE
8
BLACK
6
CONTINUOUS
10
116.342
20
-85.329
11
116.333
21
-85.3458
0
LINE
8
BLACK
6
CONTINUOUS
10
116.333
20
-85.3458
11
116.326
21
-85.3481
0
LINE
8
BLACK
6
CONTINUOUS
10
116.326
20
-85.3481
11
116.322
21
-85.3533
0
LINE
8
BLACK
6
CONTINUOUS
10
116.322
20
-85.3533
11
116.303
21
-85.3567
0
LINE
8
BLACK
6
CONTINUOUS
10
116.303
20
-85.3567
11
116.284
21
-85.3634
0
LINE
8
BLACK
6
CONTINUOUS
10
116.284
20
-85.3634
11
115.808
21
-85.3634
0
LINE
8
BLACK
6
CONTINUOUS
10
115.808
20
-85.3634
11
115.783
21
-85.3589
0
LINE
8
BLACK
6
CONTINUOUS
10
115.783
20
-85.3589
11
115.743
21
-85.3259
0
LINE
8
BLACK
6
CONTINUOUS
10
115.743
20
-85.3259
11
115.734
21
-85.2754
0
LINE
8
BLACK
6
CONTINUOUS
10
115.734
20
-85.2754
11
115.76
21
-85.2309
0
LINE
8
BLACK
6
CONTINUOUS
10
115.76
20
-85.2309
11
115.808
21
-85.2134
0
LINE
8
BLACK
6
CONTINUOUS
10
115.808
20
-85.2134
11
116.209
21
-85.2134
0
LINE
8
BLACK
6
CONTINUOUS
10
116.209
20
-85.2134
11
116.209
21
-84.2884
0
LINE
8
BLACK
6
CONTINUOUS
10
116.209
20
-84.2884
11
116.214
21
-84.2627
0
LINE
8
BLACK
6
CONTINUOUS
10
116.214
20
-84.2627
11
116.247
21
-84.2234
0
LINE
8
BLACK
6
CONTINUOUS
10
116.247
20
-84.2234
11
116.297
21
-84.2145
0
LINE
8
BLACK
6
CONTINUOUS
10
116.297
20
-84.2145
11
116.342
21
-84.2402
0
LINE
8
BLACK
6
CONTINUOUS
10
118.12
20
-84.2179
11
118.123
21
-84.2208
0
LINE
8
BLACK
6
CONTINUOUS
10
118.123
20
-84.2208
11
118.128
21
-84.2213
0
LINE
8
BLACK
6
CONTINUOUS
10
118.128
20
-84.2213
11
118.223
21
-84.2689
0
LINE
8
BLACK
6
CONTINUOUS
10
118.223
20
-84.2689
11
118.241
21
-84.2823
0
LINE
8
BLACK
6
CONTINUOUS
10
118.241
20
-84.2823
11
118.242
21
-84.283
0
LINE
8
BLACK
6
CONTINUOUS
10
118.242
20
-84.283
11
118.29
21
-84.3306
0
LINE
8
BLACK
6
CONTINUOUS
10
118.29
20
-84.3306
11
118.303
21
-84.349
0
LINE
8
BLACK
6
CONTINUOUS
10
118.303
20
-84.349
11
118.304
21
-84.3501
0
LINE
8
BLACK
6
CONTINUOUS
10
118.304
20
-84.3501
11
118.352
21
-84.4453
0
LINE
8
BLACK
6
CONTINUOUS
10
118.352
20
-84.4453
11
118.359
21
-84.4703
0
LINE
8
BLACK
6
CONTINUOUS
10
118.359
20
-84.4703
11
118.358
21
-84.4746
0
LINE
8
BLACK
6
CONTINUOUS
10
118.358
20
-84.4746
11
118.359
21
-84.4789
0
LINE
8
BLACK
6
CONTINUOUS
10
118.359
20
-84.4789
11
118.359
21
-84.5741
0
LINE
8
BLACK
6
CONTINUOUS
10
118.359
20
-84.5741
11
118.355
21
-84.5997
0
LINE
8
BLACK
6
CONTINUOUS
10
118.355
20
-84.5997
11
118.352
21
-84.6032
0
LINE
8
BLACK
6
CONTINUOUS
10
118.352
20
-84.6032
11
118.352
21
-84.6076
0
LINE
8
BLACK
6
CONTINUOUS
10
118.352
20
-84.6076
11
118.304
21
-84.7029
0
LINE
8
BLACK
6
CONTINUOUS
10
118.304
20
-84.7029
11
118.291
21
-84.7209
0
LINE
8
BLACK
6
CONTINUOUS
10
118.291
20
-84.7209
11
118.29
21
-84.7224
0
LINE
8
BLACK
6
CONTINUOUS
10
118.29
20
-84.7224
11
118.242
21
-84.77
0
LINE
8
BLACK
6
CONTINUOUS
10
118.242
20
-84.77
11
118.224
21
-84.7828
0
LINE
8
BLACK
6
CONTINUOUS
10
118.224
20
-84.7828
11
118.223
21
-84.784
0
LINE
8
BLACK
6
CONTINUOUS
10
118.223
20
-84.784
11
118.128
21
-84.8317
0
LINE
8
BLACK
6
CONTINUOUS
10
118.128
20
-84.8317
11
118.115
21
-84.8353
0
LINE
8
BLACK
6
CONTINUOUS
10
118.115
20
-84.8353
11
118.112
21
-84.8373
0
LINE
8
BLACK
6
CONTINUOUS
10
118.112
20
-84.8373
11
117.93
21
-84.883
0
LINE
8
BLACK
6
CONTINUOUS
10
117.93
20
-84.883
11
117.853
21
-84.9214
0
LINE
8
BLACK
6
CONTINUOUS
10
117.853
20
-84.9214
11
117.822
21
-84.9519
0
LINE
8
BLACK
6
CONTINUOUS
10
117.822
20
-84.9519
11
117.788
21
-85.0204
0
LINE
8
BLACK
6
CONTINUOUS
10
117.788
20
-85.0204
11
117.788
21
-85.0802
0
LINE
8
BLACK
6
CONTINUOUS
10
117.788
20
-85.0802
11
117.822
21
-85.1487
0
LINE
8
BLACK
6
CONTINUOUS
10
117.822
20
-85.1487
11
117.853
21
-85.1791
0
LINE
8
BLACK
6
CONTINUOUS
10
117.853
20
-85.1791
11
117.921
21
-85.2134
0
LINE
8
BLACK
6
CONTINUOUS
10
117.921
20
-85.2134
11
118.129
21
-85.2134
0
LINE
8
BLACK
6
CONTINUOUS
10
118.129
20
-85.2134
11
118.261
21
-85.1696
0
LINE
8
BLACK
6
CONTINUOUS
10
118.261
20
-85.1696
11
118.287
21
-85.1658
0
LINE
8
BLACK
6
CONTINUOUS
10
118.287
20
-85.1658
11
118.334
21
-85.1846
0
LINE
8
BLACK
6
CONTINUOUS
10
118.334
20
-85.1846
11
118.359
21
-85.2298
0
LINE
8
BLACK
6
CONTINUOUS
10
118.359
20
-85.2298
11
118.348
21
-85.28
0
LINE
8
BLACK
6
CONTINUOUS
10
118.348
20
-85.28
11
118.308
21
-85.3119
0
LINE
8
BLACK
6
CONTINUOUS
10
118.308
20
-85.3119
11
118.165
21
-85.3595
0
LINE
8
BLACK
6
CONTINUOUS
10
118.165
20
-85.3595
11
118.143
21
-85.3628
0
LINE
8
BLACK
6
CONTINUOUS
10
118.143
20
-85.3628
11
118.142
21
-85.3634
0
LINE
8
BLACK
6
CONTINUOUS
10
118.142
20
-85.3634
11
117.904
21
-85.3634
0
LINE
8
BLACK
6
CONTINUOUS
10
117.904
20
-85.3634
11
117.878
21
-85.3589
0
LINE
8
BLACK
6
CONTINUOUS
10
117.878
20
-85.3589
11
117.874
21
-85.356
0
LINE
8
BLACK
6
CONTINUOUS
10
117.874
20
-85.356
11
117.87
21
-85.3555
0
LINE
8
BLACK
6
CONTINUOUS
10
117.87
20
-85.3555
11
117.775
21
-85.3078
0
LINE
8
BLACK
6
CONTINUOUS
10
117.775
20
-85.3078
11
117.757
21
-85.2945
0
LINE
8
BLACK
6
CONTINUOUS
10
117.757
20
-85.2945
11
117.755
21
-85.2938
0
LINE
8
BLACK
6
CONTINUOUS
10
117.755
20
-85.2938
11
117.708
21
-85.2462
0
LINE
8
BLACK
6
CONTINUOUS
10
117.708
20
-85.2462
11
117.695
21
-85.2278
0
LINE
8
BLACK
6
CONTINUOUS
10
117.695
20
-85.2278
11
117.694
21
-85.2267
0
LINE
8
BLACK
6
CONTINUOUS
10
117.694
20
-85.2267
11
117.646
21
-85.1314
0
LINE
8
BLACK
6
CONTINUOUS
10
117.646
20
-85.1314
11
117.639
21
-85.1065
0
LINE
8
BLACK
6
CONTINUOUS
10
117.639
20
-85.1065
11
117.64
21
-85.1021
0
LINE
8
BLACK
6
CONTINUOUS
10
117.64
20
-85.1021
11
117.638
21
-85.0979
0
LINE
8
BLACK
6
CONTINUOUS
10
117.638
20
-85.0979
11
117.638
21
-85.0027
0
LINE
8
BLACK
6
CONTINUOUS
10
117.638
20
-85.0027
11
117.643
21
-84.977
0
LINE
8
BLACK
6
CONTINUOUS
10
117.643
20
-84.977
11
117.645
21
-84.9736
0
LINE
8
BLACK
6
CONTINUOUS
10
117.645
20
-84.9736
11
117.646
21
-84.9691
0
LINE
8
BLACK
6
CONTINUOUS
10
117.646
20
-84.9691
11
117.694
21
-84.8739
0
LINE
8
BLACK
6
CONTINUOUS
10
117.694
20
-84.8739
11
117.707
21
-84.8559
0
LINE
8
BLACK
6
CONTINUOUS
10
117.707
20
-84.8559
11
117.708
21
-84.8544
0
LINE
8
BLACK
6
CONTINUOUS
10
117.708
20
-84.8544
11
117.755
21
-84.8068
0
LINE
8
BLACK
6
CONTINUOUS
10
117.755
20
-84.8068
11
117.774
21
-84.7939
0
LINE
8
BLACK
6
CONTINUOUS
10
117.774
20
-84.7939
11
117.775
21
-84.7927
0
LINE
8
BLACK
6
CONTINUOUS
10
117.775
20
-84.7927
11
117.87
21
-84.7451
0
LINE
8
BLACK
6
CONTINUOUS
10
117.87
20
-84.7451
11
117.882
21
-84.7414
0
LINE
8
BLACK
6
CONTINUOUS
10
117.882
20
-84.7414
11
117.885
21
-84.7394
0
LINE
8
BLACK
6
CONTINUOUS
10
117.885
20
-84.7394
11
118.068
21
-84.6938
0
LINE
8
BLACK
6
CONTINUOUS
10
118.068
20
-84.6938
11
118.145
21
-84.6553
0
LINE
8
BLACK
6
CONTINUOUS
10
118.145
20
-84.6553
11
118.175
21
-84.6249
0
LINE
8
BLACK
6
CONTINUOUS
10
118.175
20
-84.6249
11
118.209
21
-84.5564
0
LINE
8
BLACK
6
CONTINUOUS
10
118.209
20
-84.5564
11
118.209
21
-84.4966
0
LINE
8
BLACK
6
CONTINUOUS
10
118.209
20
-84.4966
11
118.175
21
-84.428
0
LINE
8
BLACK
6
CONTINUOUS
10
118.175
20
-84.428
11
118.145
21
-84.3976
0
LINE
8
BLACK
6
CONTINUOUS
10
118.145
20
-84.3976
11
118.076
21
-84.3634
0
LINE
8
BLACK
6
CONTINUOUS
10
118.076
20
-84.3634
11
117.868
21
-84.3634
0
LINE
8
BLACK
6
CONTINUOUS
10
117.868
20
-84.3634
11
117.737
21
-84.4072
0
LINE
8
BLACK
6
CONTINUOUS
10
117.737
20
-84.4072
11
117.711
21
-84.411
0
LINE
8
BLACK
6
CONTINUOUS
10
117.711
20
-84.411
11
117.663
21
-84.3921
0
LINE
8
BLACK
6
CONTINUOUS
10
117.663
20
-84.3921
11
117.639
21
-84.347
0
LINE
8
BLACK
6
CONTINUOUS
10
117.639
20
-84.347
11
117.649
21
-84.2967
0
LINE
8
BLACK
6
CONTINUOUS
10
117.649
20
-84.2967
11
117.689
21
-84.2648
0
LINE
8
BLACK
6
CONTINUOUS
10
117.689
20
-84.2648
11
117.832
21
-84.2172
0
LINE
8
BLACK
6
CONTINUOUS
10
117.832
20
-84.2172
11
117.854
21
-84.2139
0
LINE
8
BLACK
6
CONTINUOUS
10
117.854
20
-84.2139
11
117.856
21
-84.2134
0
LINE
8
BLACK
6
CONTINUOUS
10
117.856
20
-84.2134
11
118.094
21
-84.2134
0
LINE
8
BLACK
6
CONTINUOUS
10
118.094
20
-84.2134
11
118.12
21
-84.2179
0
LINE
8
BLACK
6
CONTINUOUS
10
103.519
20
-82.9425
11
103.48
21
-82.9095
0
LINE
8
BLACK
6
CONTINUOUS
10
103.48
20
-82.9095
11
103.471
21
-82.859
0
LINE
8
BLACK
6
CONTINUOUS
10
103.471
20
-82.859
11
103.497
21
-82.8145
0
LINE
8
BLACK
6
CONTINUOUS
10
103.497
20
-82.8145
11
103.545
21
-82.797
0
LINE
8
BLACK
6
CONTINUOUS
10
103.545
20
-82.797
11
106.259
21
-82.797
0
LINE
8
BLACK
6
CONTINUOUS
10
106.259
20
-82.797
11
106.285
21
-82.8015
0
LINE
8
BLACK
6
CONTINUOUS
10
106.285
20
-82.8015
11
106.324
21
-82.8345
0
LINE
8
BLACK
6
CONTINUOUS
10
106.324
20
-82.8345
11
106.333
21
-82.885
0
LINE
8
BLACK
6
CONTINUOUS
10
106.333
20
-82.885
11
106.307
21
-82.9295
0
LINE
8
BLACK
6
CONTINUOUS
10
106.307
20
-82.9295
11
106.259
21
-82.947
0
LINE
8
BLACK
6
CONTINUOUS
10
106.259
20
-82.947
11
103.545
21
-82.947
0
LINE
8
BLACK
6
CONTINUOUS
10
103.545
20
-82.947
11
103.519
21
-82.9425
0
LINE
8
BLACK
6
CONTINUOUS
10
117.164
20
-81.6773
11
117.165
21
-81.6772
0
LINE
8
BLACK
6
CONTINUOUS
10
117.165
20
-81.6772
11
117.308
21
-81.7248
0
LINE
8
BLACK
6
CONTINUOUS
10
117.308
20
-81.7248
11
117.331
21
-81.7373
0
LINE
8
BLACK
6
CONTINUOUS
10
117.331
20
-81.7373
11
117.333
21
-81.7411
0
LINE
8
BLACK
6
CONTINUOUS
10
117.333
20
-81.7411
11
117.338
21
-81.743
0
LINE
8
BLACK
6
CONTINUOUS
10
117.338
20
-81.743
11
117.433
21
-81.8382
0
LINE
8
BLACK
6
CONTINUOUS
10
117.433
20
-81.8382
11
117.446
21
-81.8566
0
LINE
8
BLACK
6
CONTINUOUS
10
117.446
20
-81.8566
11
117.447
21
-81.8577
0
LINE
8
BLACK
6
CONTINUOUS
10
117.447
20
-81.8577
11
117.494
21
-81.9529
0
LINE
8
BLACK
6
CONTINUOUS
10
117.494
20
-81.9529
11
117.498
21
-81.9653
0
LINE
8
BLACK
6
CONTINUOUS
10
117.498
20
-81.9653
11
117.5
21
-81.9683
0
LINE
8
BLACK
6
CONTINUOUS
10
117.5
20
-81.9683
11
117.548
21
-82.1588
0
LINE
8
BLACK
6
CONTINUOUS
10
117.548
20
-82.1588
11
117.549
21
-82.1737
0
LINE
8
BLACK
6
CONTINUOUS
10
117.549
20
-82.1737
11
117.55
21
-82.177
0
LINE
8
BLACK
6
CONTINUOUS
10
117.55
20
-82.177
11
117.55
21
-82.3198
0
LINE
8
BLACK
6
CONTINUOUS
10
117.55
20
-82.3198
11
117.547
21
-82.3346
0
LINE
8
BLACK
6
CONTINUOUS
10
117.547
20
-82.3346
11
117.548
21
-82.338
0
LINE
8
BLACK
6
CONTINUOUS
10
117.548
20
-82.338
11
117.5
21
-82.5285
0
LINE
8
BLACK
6
CONTINUOUS
10
117.5
20
-82.5285
11
117.495
21
-82.5403
0
LINE
8
BLACK
6
CONTINUOUS
10
117.495
20
-82.5403
11
117.494
21
-82.5438
0
LINE
8
BLACK
6
CONTINUOUS
10
117.494
20
-82.5438
11
117.447
21
-82.6391
0
LINE
8
BLACK
6
CONTINUOUS
10
117.447
20
-82.6391
11
117.433
21
-82.6571
0
LINE
8
BLACK
6
CONTINUOUS
10
117.433
20
-82.6571
11
117.433
21
-82.6586
0
LINE
8
BLACK
6
CONTINUOUS
10
117.433
20
-82.6586
11
117.338
21
-82.7538
0
LINE
8
BLACK
6
CONTINUOUS
10
117.338
20
-82.7538
11
117.316
21
-82.7687
0
LINE
8
BLACK
6
CONTINUOUS
10
117.316
20
-82.7687
11
117.312
21
-82.7691
0
LINE
8
BLACK
6
CONTINUOUS
10
117.312
20
-82.7691
11
117.308
21
-82.7719
0
LINE
8
BLACK
6
CONTINUOUS
10
117.308
20
-82.7719
11
117.165
21
-82.8195
0
LINE
8
BLACK
6
CONTINUOUS
10
117.165
20
-82.8195
11
117.143
21
-82.8228
0
LINE
8
BLACK
6
CONTINUOUS
10
117.143
20
-82.8228
11
117.142
21
-82.8234
0
LINE
8
BLACK
6
CONTINUOUS
10
117.142
20
-82.8234
11
117.046
21
-82.8234
0
LINE
8
BLACK
6
CONTINUOUS
10
117.046
20
-82.8234
11
117.024
21
-82.8195
0
LINE
8
BLACK
6
CONTINUOUS
10
117.024
20
-82.8195
11
117.023
21
-82.8195
0
LINE
8
BLACK
6
CONTINUOUS
10
117.023
20
-82.8195
11
116.88
21
-82.7719
0
LINE
8
BLACK
6
CONTINUOUS
10
116.88
20
-82.7719
11
116.857
21
-82.7595
0
LINE
8
BLACK
6
CONTINUOUS
10
116.857
20
-82.7595
11
116.855
21
-82.7557
0
LINE
8
BLACK
6
CONTINUOUS
10
116.855
20
-82.7557
11
116.85
21
-82.7538
0
LINE
8
BLACK
6
CONTINUOUS
10
116.85
20
-82.7538
11
116.803
21
-82.7062
0
LINE
8
BLACK
6
CONTINUOUS
10
116.803
20
-82.7062
11
116.788
21
-82.6848
0
LINE
8
BLACK
6
CONTINUOUS
10
116.788
20
-82.6848
11
116.783
21
-82.6337
0
LINE
8
BLACK
6
CONTINUOUS
10
116.783
20
-82.6337
11
116.813
21
-82.5917
0
LINE
8
BLACK
6
CONTINUOUS
10
116.813
20
-82.5917
11
116.862
21
-82.5784
0
LINE
8
BLACK
6
CONTINUOUS
10
116.862
20
-82.5784
11
116.909
21
-82.6001
0
LINE
8
BLACK
6
CONTINUOUS
10
116.909
20
-82.6001
11
116.944
21
-82.6352
0
LINE
8
BLACK
6
CONTINUOUS
10
116.944
20
-82.6352
11
117.059
21
-82.6734
0
LINE
8
BLACK
6
CONTINUOUS
10
117.059
20
-82.6734
11
117.129
21
-82.6734
0
LINE
8
BLACK
6
CONTINUOUS
10
117.129
20
-82.6734
11
117.244
21
-82.6352
0
LINE
8
BLACK
6
CONTINUOUS
10
117.244
20
-82.6352
11
117.318
21
-82.5611
0
LINE
8
BLACK
6
CONTINUOUS
10
117.318
20
-82.5611
11
117.357
21
-82.4841
0
LINE
8
BLACK
6
CONTINUOUS
10
117.357
20
-82.4841
11
117.4
21
-82.3106
0
LINE
8
BLACK
6
CONTINUOUS
10
117.4
20
-82.3106
11
117.4
21
-82.1862
0
LINE
8
BLACK
6
CONTINUOUS
10
117.4
20
-82.1862
11
117.357
21
-82.0127
0
LINE
8
BLACK
6
CONTINUOUS
10
117.357
20
-82.0127
11
117.318
21
-81.9357
0
LINE
8
BLACK
6
CONTINUOUS
10
117.318
20
-81.9357
11
117.244
21
-81.8616
0
LINE
8
BLACK
6
CONTINUOUS
10
117.244
20
-81.8616
11
117.129
21
-81.8234
0
LINE
8
BLACK
6
CONTINUOUS
10
117.129
20
-81.8234
11
117.059
21
-81.8234
0
LINE
8
BLACK
6
CONTINUOUS
10
117.059
20
-81.8234
11
116.944
21
-81.8616
0
LINE
8
BLACK
6
CONTINUOUS
10
116.944
20
-81.8616
11
116.909
21
-81.8967
0
LINE
8
BLACK
6
CONTINUOUS
10
116.909
20
-81.8967
11
116.888
21
-81.9116
0
LINE
8
BLACK
6
CONTINUOUS
10
116.888
20
-81.9116
11
116.836
21
-81.9161
0
LINE
8
BLACK
6
CONTINUOUS
10
116.836
20
-81.9161
11
116.794
21
-81.8866
0
LINE
8
BLACK
6
CONTINUOUS
10
116.794
20
-81.8866
11
116.781
21
-81.8371
0
LINE
8
BLACK
6
CONTINUOUS
10
116.781
20
-81.8371
11
116.803
21
-81.7906
0
LINE
8
BLACK
6
CONTINUOUS
10
116.803
20
-81.7906
11
116.85
21
-81.743
0
LINE
8
BLACK
6
CONTINUOUS
10
116.85
20
-81.743
11
116.872
21
-81.728
0
LINE
8
BLACK
6
CONTINUOUS
10
116.872
20
-81.728
11
116.876
21
-81.7276
0
LINE
8
BLACK
6
CONTINUOUS
10
116.876
20
-81.7276
11
116.88
21
-81.7248
0
LINE
8
BLACK
6
CONTINUOUS
10
116.88
20
-81.7248
11
117.023
21
-81.6772
0
LINE
8
BLACK
6
CONTINUOUS
10
117.023
20
-81.6772
11
117.045
21
-81.6739
0
LINE
8
BLACK
6
CONTINUOUS
10
117.045
20
-81.6739
11
117.046
21
-81.6734
0
LINE
8
BLACK
6
CONTINUOUS
10
117.046
20
-81.6734
11
117.142
21
-81.6734
0
LINE
8
BLACK
6
CONTINUOUS
10
117.142
20
-81.6734
11
117.164
21
-81.6773
0
LINE
8
BLACK
6
CONTINUOUS
10
116.164
20
-81.6773
11
116.165
21
-81.6772
0
LINE
8
BLACK
6
CONTINUOUS
10
116.165
20
-81.6772
11
116.308
21
-81.7248
0
LINE
8
BLACK
6
CONTINUOUS
10
116.308
20
-81.7248
11
116.331
21
-81.7373
0
LINE
8
BLACK
6
CONTINUOUS
10
116.331
20
-81.7373
11
116.333
21
-81.7411
0
LINE
8
BLACK
6
CONTINUOUS
10
116.333
20
-81.7411
11
116.338
21
-81.743
0
LINE
8
BLACK
6
CONTINUOUS
10
116.338
20
-81.743
11
116.433
21
-81.8382
0
LINE
8
BLACK
6
CONTINUOUS
10
116.433
20
-81.8382
11
116.446
21
-81.8566
0
LINE
8
BLACK
6
CONTINUOUS
10
116.446
20
-81.8566
11
116.447
21
-81.8577
0
LINE
8
BLACK
6
CONTINUOUS
10
116.447
20
-81.8577
11
116.494
21
-81.9529
0
LINE
8
BLACK
6
CONTINUOUS
10
116.494
20
-81.9529
11
116.498
21
-81.9653
0
LINE
8
BLACK
6
CONTINUOUS
10
116.498
20
-81.9653
11
116.5
21
-81.9683
0
LINE
8
BLACK
6
CONTINUOUS
10
116.5
20
-81.9683
11
116.548
21
-82.1588
0
LINE
8
BLACK
6
CONTINUOUS
10
116.548
20
-82.1588
11
116.549
21
-82.1737
0
LINE
8
BLACK
6
CONTINUOUS
10
116.549
20
-82.1737
11
116.55
21
-82.177
0
LINE
8
BLACK
6
CONTINUOUS
10
116.55
20
-82.177
11
116.55
21
-82.3198
0
LINE
8
BLACK
6
CONTINUOUS
10
116.55
20
-82.3198
11
116.547
21
-82.3346
0
LINE
8
BLACK
6
CONTINUOUS
10
116.547
20
-82.3346
11
116.548
21
-82.338
0
LINE
8
BLACK
6
CONTINUOUS
10
116.548
20
-82.338
11
116.5
21
-82.5285
0
LINE
8
BLACK
6
CONTINUOUS
10
116.5
20
-82.5285
11
116.495
21
-82.5403
0
LINE
8
BLACK
6
CONTINUOUS
10
116.495
20
-82.5403
11
116.494
21
-82.5438
0
LINE
8
BLACK
6
CONTINUOUS
10
116.494
20
-82.5438
11
116.447
21
-82.6391
0
LINE
8
BLACK
6
CONTINUOUS
10
116.447
20
-82.6391
11
116.433
21
-82.6571
0
LINE
8
BLACK
6
CONTINUOUS
10
116.433
20
-82.6571
11
116.433
21
-82.6586
0
LINE
8
BLACK
6
CONTINUOUS
10
116.433
20
-82.6586
11
116.338
21
-82.7538
0
LINE
8
BLACK
6
CONTINUOUS
10
116.338
20
-82.7538
11
116.316
21
-82.7687
0
LINE
8
BLACK
6
CONTINUOUS
10
116.316
20
-82.7687
11
116.312
21
-82.7691
0
LINE
8
BLACK
6
CONTINUOUS
10
116.312
20
-82.7691
11
116.308
21
-82.7719
0
LINE
8
BLACK
6
CONTINUOUS
10
116.308
20
-82.7719
11
116.165
21
-82.8195
0
LINE
8
BLACK
6
CONTINUOUS
10
116.165
20
-82.8195
11
116.143
21
-82.8228
0
LINE
8
BLACK
6
CONTINUOUS
10
116.143
20
-82.8228
11
116.142
21
-82.8234
0
LINE
8
BLACK
6
CONTINUOUS
10
116.142
20
-82.8234
11
116.046
21
-82.8234
0
LINE
8
BLACK
6
CONTINUOUS
10
116.046
20
-82.8234
11
116.024
21
-82.8195
0
LINE
8
BLACK
6
CONTINUOUS
10
116.024
20
-82.8195
11
116.023
21
-82.8195
0
LINE
8
BLACK
6
CONTINUOUS
10
116.023
20
-82.8195
11
115.88
21
-82.7719
0
LINE
8
BLACK
6
CONTINUOUS
10
115.88
20
-82.7719
11
115.857
21
-82.7595
0
LINE
8
BLACK
6
CONTINUOUS
10
115.857
20
-82.7595
11
115.855
21
-82.7557
0
LINE
8
BLACK
6
CONTINUOUS
10
115.855
20
-82.7557
11
115.85
21
-82.7538
0
LINE
8
BLACK
6
CONTINUOUS
10
115.85
20
-82.7538
11
115.803
21
-82.7062
0
LINE
8
BLACK
6
CONTINUOUS
10
115.803
20
-82.7062
11
115.788
21
-82.6848
0
LINE
8
BLACK
6
CONTINUOUS
10
115.788
20
-82.6848
11
115.783
21
-82.6337
0
LINE
8
BLACK
6
CONTINUOUS
10
115.783
20
-82.6337
11
115.813
21
-82.5917
0
LINE
8
BLACK
6
CONTINUOUS
10
115.813
20
-82.5917
11
115.862
21
-82.5784
0
LINE
8
BLACK
6
CONTINUOUS
10
115.862
20
-82.5784
11
115.909
21
-82.6001
0
LINE
8
BLACK
6
CONTINUOUS
10
115.909
20
-82.6001
11
115.944
21
-82.6352
0
LINE
8
BLACK
6
CONTINUOUS
10
115.944
20
-82.6352
11
116.059
21
-82.6734
0
LINE
8
BLACK
6
CONTINUOUS
10
116.059
20
-82.6734
11
116.129
21
-82.6734
0
LINE
8
BLACK
6
CONTINUOUS
10
116.129
20
-82.6734
11
116.244
21
-82.6352
0
LINE
8
BLACK
6
CONTINUOUS
10
116.244
20
-82.6352
11
116.318
21
-82.5611
0
LINE
8
BLACK
6
CONTINUOUS
10
116.318
20
-82.5611
11
116.357
21
-82.4841
0
LINE
8
BLACK
6
CONTINUOUS
10
116.357
20
-82.4841
11
116.4
21
-82.3106
0
LINE
8
BLACK
6
CONTINUOUS
10
116.4
20
-82.3106
11
116.4
21
-82.1862
0
LINE
8
BLACK
6
CONTINUOUS
10
116.4
20
-82.1862
11
116.357
21
-82.0127
0
LINE
8
BLACK
6
CONTINUOUS
10
116.357
20
-82.0127
11
116.318
21
-81.9357
0
LINE
8
BLACK
6
CONTINUOUS
10
116.318
20
-81.9357
11
116.244
21
-81.8616
0
LINE
8
BLACK
6
CONTINUOUS
10
116.244
20
-81.8616
11
116.129
21
-81.8234
0
LINE
8
BLACK
6
CONTINUOUS
10
116.129
20
-81.8234
11
116.059
21
-81.8234
0
LINE
8
BLACK
6
CONTINUOUS
10
116.059
20
-81.8234
11
115.944
21
-81.8616
0
LINE
8
BLACK
6
CONTINUOUS
10
115.944
20
-81.8616
11
115.909
21
-81.8967
0
LINE
8
BLACK
6
CONTINUOUS
10
115.909
20
-81.8967
11
115.888
21
-81.9116
0
LINE
8
BLACK
6
CONTINUOUS
10
115.888
20
-81.9116
11
115.836
21
-81.9161
0
LINE
8
BLACK
6
CONTINUOUS
10
115.836
20
-81.9161
11
115.794
21
-81.8866
0
LINE
8
BLACK
6
CONTINUOUS
10
115.794
20
-81.8866
11
115.781
21
-81.8371
0
LINE
8
BLACK
6
CONTINUOUS
10
115.781
20
-81.8371
11
115.803
21
-81.7906
0
LINE
8
BLACK
6
CONTINUOUS
10
115.803
20
-81.7906
11
115.85
21
-81.743
0
LINE
8
BLACK
6
CONTINUOUS
10
115.85
20
-81.743
11
115.872
21
-81.728
0
LINE
8
BLACK
6
CONTINUOUS
10
115.872
20
-81.728
11
115.876
21
-81.7276
0
LINE
8
BLACK
6
CONTINUOUS
10
115.876
20
-81.7276
11
115.88
21
-81.7248
0
LINE
8
BLACK
6
CONTINUOUS
10
115.88
20
-81.7248
11
116.023
21
-81.6772
0
LINE
8
BLACK
6
CONTINUOUS
10
116.023
20
-81.6772
11
116.045
21
-81.6739
0
LINE
8
BLACK
6
CONTINUOUS
10
116.045
20
-81.6739
11
116.046
21
-81.6734
0
LINE
8
BLACK
6
CONTINUOUS
10
116.046
20
-81.6734
11
116.142
21
-81.6734
0
LINE
8
BLACK
6
CONTINUOUS
10
116.142
20
-81.6734
11
116.164
21
-81.6773
0
LINE
8
BLACK
6
CONTINUOUS
10
117.8
20
-81.6845
11
117.832
21
-81.7247
0
LINE
8
BLACK
6
CONTINUOUS
10
117.832
20
-81.7247
11
118.094
21
-82.5112
0
LINE
8
BLACK
6
CONTINUOUS
10
118.094
20
-82.5112
11
118.356
21
-81.7247
0
LINE
8
BLACK
6
CONTINUOUS
10
118.356
20
-81.7247
11
118.369
21
-81.7018
0
LINE
8
BLACK
6
CONTINUOUS
10
118.369
20
-81.7018
11
118.412
21
-81.6749
0
LINE
8
BLACK
6
CONTINUOUS
10
118.412
20
-81.6749
11
118.463
21
-81.6824
0
LINE
8
BLACK
6
CONTINUOUS
10
118.463
20
-81.6824
11
118.497
21
-81.7208
0
LINE
8
BLACK
6
CONTINUOUS
10
118.497
20
-81.7208
11
118.498
21
-81.7721
0
LINE
8
BLACK
6
CONTINUOUS
10
118.498
20
-81.7721
11
118.165
21
-82.7721
0
LINE
8
BLACK
6
CONTINUOUS
10
118.165
20
-82.7721
11
118.153
21
-82.795
0
LINE
8
BLACK
6
CONTINUOUS
10
118.153
20
-82.795
11
118.151
21
-82.7961
0
LINE
8
BLACK
6
CONTINUOUS
10
118.151
20
-82.7961
11
118.15
21
-82.7981
0
LINE
8
BLACK
6
CONTINUOUS
10
118.15
20
-82.7981
11
118.129
21
-82.8094
0
LINE
8
BLACK
6
CONTINUOUS
10
118.129
20
-82.8094
11
118.109
21
-82.8219
0
LINE
8
BLACK
6
CONTINUOUS
10
118.109
20
-82.8219
11
118.107
21
-82.8215
0
LINE
8
BLACK
6
CONTINUOUS
10
118.107
20
-82.8215
11
118.105
21
-82.8226
0
LINE
8
BLACK
6
CONTINUOUS
10
118.105
20
-82.8226
11
118.082
21
-82.8178
0
LINE
8
BLACK
6
CONTINUOUS
10
118.082
20
-82.8178
11
118.058
21
-82.8143
0
LINE
8
BLACK
6
CONTINUOUS
10
118.058
20
-82.8143
11
118.057
21
-82.8127
0
LINE
8
BLACK
6
CONTINUOUS
10
118.057
20
-82.8127
11
118.055
21
-82.8123
0
LINE
8
BLACK
6
CONTINUOUS
10
118.055
20
-82.8123
11
118.04
21
-82.7937
0
LINE
8
BLACK
6
CONTINUOUS
10
118.04
20
-82.7937
11
118.024
21
-82.7759
0
LINE
8
BLACK
6
CONTINUOUS
10
118.024
20
-82.7759
11
118.024
21
-82.7738
0
LINE
8
BLACK
6
CONTINUOUS
10
118.024
20
-82.7738
11
118.023
21
-82.7721
0
LINE
8
BLACK
6
CONTINUOUS
10
118.023
20
-82.7721
11
117.69
21
-81.7721
0
LINE
8
BLACK
6
CONTINUOUS
10
117.69
20
-81.7721
11
117.686
21
-81.7463
0
LINE
8
BLACK
6
CONTINUOUS
10
117.686
20
-81.7463
11
117.705
21
-81.6986
0
LINE
8
BLACK
6
CONTINUOUS
10
117.705
20
-81.6986
11
117.75
21
-81.6742
0
LINE
8
BLACK
6
CONTINUOUS
10
117.75
20
-81.6742
11
117.8
21
-81.6845
0
LINE
8
BLACK
6
CONTINUOUS
10
104.407
20
-81.5366
11
104.429
21
-81.5831
0
LINE
8
BLACK
6
CONTINUOUS
10
104.429
20
-81.5831
11
104.416
21
-81.6326
0
LINE
8
BLACK
6
CONTINUOUS
10
104.416
20
-81.6326
11
104.165
21
-81.991
0
LINE
8
BLACK
6
CONTINUOUS
10
104.165
20
-81.991
11
104.19
21
-81.9953
0
LINE
8
BLACK
6
CONTINUOUS
10
104.19
20
-81.9953
11
104.193
21
-81.9982
0
LINE
8
BLACK
6
CONTINUOUS
10
104.193
20
-81.9982
11
104.197
21
-81.9987
0
LINE
8
BLACK
6
CONTINUOUS
10
104.197
20
-81.9987
11
104.293
21
-82.0463
0
LINE
8
BLACK
6
CONTINUOUS
10
104.293
20
-82.0463
11
104.311
21
-82.0597
0
LINE
8
BLACK
6
CONTINUOUS
10
104.311
20
-82.0597
11
104.312
21
-82.0604
0
LINE
8
BLACK
6
CONTINUOUS
10
104.312
20
-82.0604
11
104.36
21
-82.108
0
LINE
8
BLACK
6
CONTINUOUS
10
104.36
20
-82.108
11
104.373
21
-82.1264
0
LINE
8
BLACK
6
CONTINUOUS
10
104.373
20
-82.1264
11
104.374
21
-82.1275
0
LINE
8
BLACK
6
CONTINUOUS
10
104.374
20
-82.1275
11
104.421
21
-82.2227
0
LINE
8
BLACK
6
CONTINUOUS
10
104.421
20
-82.2227
11
104.429
21
-82.2477
0
LINE
8
BLACK
6
CONTINUOUS
10
104.429
20
-82.2477
11
104.428
21
-82.2521
0
LINE
8
BLACK
6
CONTINUOUS
10
104.428
20
-82.2521
11
104.429
21
-82.2563
0
LINE
8
BLACK
6
CONTINUOUS
10
104.429
20
-82.2563
11
104.429
21
-82.3991
0
LINE
8
BLACK
6
CONTINUOUS
10
104.429
20
-82.3991
11
104.425
21
-82.4248
0
LINE
8
BLACK
6
CONTINUOUS
10
104.425
20
-82.4248
11
104.422
21
-82.4282
0
LINE
8
BLACK
6
CONTINUOUS
10
104.422
20
-82.4282
11
104.421
21
-82.4327
0
LINE
8
BLACK
6
CONTINUOUS
10
104.421
20
-82.4327
11
104.374
21
-82.5279
0
LINE
8
BLACK
6
CONTINUOUS
10
104.374
20
-82.5279
11
104.36
21
-82.5459
0
LINE
8
BLACK
6
CONTINUOUS
10
104.36
20
-82.5459
11
104.36
21
-82.5474
0
LINE
8
BLACK
6
CONTINUOUS
10
104.36
20
-82.5474
11
104.312
21
-82.595
0
LINE
8
BLACK
6
CONTINUOUS
10
104.312
20
-82.595
11
104.294
21
-82.6079
0
LINE
8
BLACK
6
CONTINUOUS
10
104.294
20
-82.6079
11
104.293
21
-82.6091
0
LINE
8
BLACK
6
CONTINUOUS
10
104.293
20
-82.6091
11
104.197
21
-82.6567
0
LINE
8
BLACK
6
CONTINUOUS
10
104.197
20
-82.6567
11
104.172
21
-82.6641
0
LINE
8
BLACK
6
CONTINUOUS
10
104.172
20
-82.6641
11
104.168
21
-82.6631
0
LINE
8
BLACK
6
CONTINUOUS
10
104.168
20
-82.6631
11
104.164
21
-82.6646
0
LINE
8
BLACK
6
CONTINUOUS
10
104.164
20
-82.6646
11
103.783
21
-82.6646
0
LINE
8
BLACK
6
CONTINUOUS
10
103.783
20
-82.6646
11
103.773
21
-82.6629
0
LINE
8
BLACK
6
CONTINUOUS
10
103.773
20
-82.6629
11
103.77
21
-82.6635
0
LINE
8
BLACK
6
CONTINUOUS
10
103.77
20
-82.6635
11
103.767
21
-82.6618
0
LINE
8
BLACK
6
CONTINUOUS
10
103.767
20
-82.6618
11
103.757
21
-82.6601
0
LINE
8
BLACK
6
CONTINUOUS
10
103.757
20
-82.6601
11
103.742
21
-82.6476
0
LINE
8
BLACK
6
CONTINUOUS
10
103.742
20
-82.6476
11
103.725
21
-82.6378
0
LINE
8
BLACK
6
CONTINUOUS
10
103.725
20
-82.6378
11
103.723
21
-82.6315
0
LINE
8
BLACK
6
CONTINUOUS
10
103.723
20
-82.6315
11
103.718
21
-82.6271
0
LINE
8
BLACK
6
CONTINUOUS
10
103.718
20
-82.6271
11
103.715
21
-82.6079
0
LINE
8
BLACK
6
CONTINUOUS
10
103.715
20
-82.6079
11
103.708
21
-82.5896
0
LINE
8
BLACK
6
CONTINUOUS
10
103.708
20
-82.5896
11
103.708
21
-81.5896
0
LINE
8
BLACK
6
CONTINUOUS
10
103.708
20
-81.5896
11
103.712
21
-81.564
0
LINE
8
BLACK
6
CONTINUOUS
10
103.712
20
-81.564
11
103.745
21
-81.5247
0
LINE
8
BLACK
6
CONTINUOUS
10
103.745
20
-81.5247
11
103.796
21
-81.5158
0
LINE
8
BLACK
6
CONTINUOUS
10
103.796
20
-81.5158
11
103.84
21
-81.5414
0
LINE
8
BLACK
6
CONTINUOUS
10
103.84
20
-81.5414
11
103.858
21
-81.5896
0
LINE
8
BLACK
6
CONTINUOUS
10
103.858
20
-81.5896
11
103.858
21
-81.9908
0
LINE
8
BLACK
6
CONTINUOUS
10
103.858
20
-81.9908
11
103.982
21
-81.9908
0
LINE
8
BLACK
6
CONTINUOUS
10
103.982
20
-81.9908
11
104.293
21
-81.5466
0
LINE
8
BLACK
6
CONTINUOUS
10
104.293
20
-81.5466
11
104.311
21
-81.5282
0
LINE
8
BLACK
6
CONTINUOUS
10
104.311
20
-81.5282
11
104.361
21
-81.5149
0
LINE
8
BLACK
6
CONTINUOUS
10
104.361
20
-81.5149
11
104.407
21
-81.5366
0
LINE
8
BLACK
6
CONTINUOUS
10
103.858
20
-82.1408
11
103.858
21
-82.5146
0
LINE
8
BLACK
6
CONTINUOUS
10
103.858
20
-82.5146
11
104.146
21
-82.5146
0
LINE
8
BLACK
6
CONTINUOUS
10
104.146
20
-82.5146
11
104.215
21
-82.4804
0
LINE
8
BLACK
6
CONTINUOUS
10
104.215
20
-82.4804
11
104.245
21
-82.45
0
LINE
8
BLACK
6
CONTINUOUS
10
104.245
20
-82.45
11
104.279
21
-82.3814
0
LINE
8
BLACK
6
CONTINUOUS
10
104.279
20
-82.3814
11
104.279
21
-82.274
0
LINE
8
BLACK
6
CONTINUOUS
10
104.279
20
-82.274
11
104.245
21
-82.2055
0
LINE
8
BLACK
6
CONTINUOUS
10
104.245
20
-82.2055
11
104.215
21
-82.1751
0
LINE
8
BLACK
6
CONTINUOUS
10
104.215
20
-82.1751
11
104.146
21
-82.1408
0
LINE
8
BLACK
6
CONTINUOUS
10
104.146
20
-82.1408
11
103.858
21
-82.1408
0
LINE
8
BLACK
6
CONTINUOUS
10
105.142
20
-81.5191
11
105.145
21
-81.522
0
LINE
8
BLACK
6
CONTINUOUS
10
105.145
20
-81.522
11
105.15
21
-81.5225
0
LINE
8
BLACK
6
CONTINUOUS
10
105.15
20
-81.5225
11
105.245
21
-81.5702
0
LINE
8
BLACK
6
CONTINUOUS
10
105.245
20
-81.5702
11
105.263
21
-81.5835
0
LINE
8
BLACK
6
CONTINUOUS
10
105.263
20
-81.5835
11
105.265
21
-81.5842
0
LINE
8
BLACK
6
CONTINUOUS
10
105.265
20
-81.5842
11
105.312
21
-81.6318
0
LINE
8
BLACK
6
CONTINUOUS
10
105.312
20
-81.6318
11
105.325
21
-81.6502
0
LINE
8
BLACK
6
CONTINUOUS
10
105.325
20
-81.6502
11
105.326
21
-81.6513
0
LINE
8
BLACK
6
CONTINUOUS
10
105.326
20
-81.6513
11
105.374
21
-81.7466
0
LINE
8
BLACK
6
CONTINUOUS
10
105.374
20
-81.7466
11
105.381
21
-81.7715
0
LINE
8
BLACK
6
CONTINUOUS
10
105.381
20
-81.7715
11
105.38
21
-81.7759
0
LINE
8
BLACK
6
CONTINUOUS
10
105.38
20
-81.7759
11
105.382
21
-81.7801
0
LINE
8
BLACK
6
CONTINUOUS
10
105.382
20
-81.7801
11
105.382
21
-81.8753
0
LINE
8
BLACK
6
CONTINUOUS
10
105.382
20
-81.8753
11
105.377
21
-81.901
0
LINE
8
BLACK
6
CONTINUOUS
10
105.377
20
-81.901
11
105.374
21
-81.9044
0
LINE
8
BLACK
6
CONTINUOUS
10
105.374
20
-81.9044
11
105.374
21
-81.9089
0
LINE
8
BLACK
6
CONTINUOUS
10
105.374
20
-81.9089
11
105.326
21
-82.0041
0
LINE
8
BLACK
6
CONTINUOUS
10
105.326
20
-82.0041
11
105.313
21
-82.0221
0
LINE
8
BLACK
6
CONTINUOUS
10
105.313
20
-82.0221
11
105.312
21
-82.0236
0
LINE
8
BLACK
6
CONTINUOUS
10
105.312
20
-82.0236
11
105.265
21
-82.0712
0
LINE
8
BLACK
6
CONTINUOUS
10
105.265
20
-82.0712
11
105.246
21
-82.0841
0
LINE
8
BLACK
6
CONTINUOUS
10
105.246
20
-82.0841
11
105.245
21
-82.0853
0
LINE
8
BLACK
6
CONTINUOUS
10
105.245
20
-82.0853
11
105.15
21
-82.1329
0
LINE
8
BLACK
6
CONTINUOUS
10
105.15
20
-82.1329
11
105.137
21
-82.1366
0
LINE
8
BLACK
6
CONTINUOUS
10
105.137
20
-82.1366
11
105.134
21
-82.1386
0
LINE
8
BLACK
6
CONTINUOUS
10
105.134
20
-82.1386
11
104.952
21
-82.1842
0
LINE
8
BLACK
6
CONTINUOUS
10
104.952
20
-82.1842
11
104.875
21
-82.2227
0
LINE
8
BLACK
6
CONTINUOUS
10
104.875
20
-82.2227
11
104.845
21
-82.2531
0
LINE
8
BLACK
6
CONTINUOUS
10
104.845
20
-82.2531
11
104.81
21
-82.3216
0
LINE
8
BLACK
6
CONTINUOUS
10
104.81
20
-82.3216
11
104.81
21
-82.3814
0
LINE
8
BLACK
6
CONTINUOUS
10
104.81
20
-82.3814
11
104.845
21
-82.45
0
LINE
8
BLACK
6
CONTINUOUS
10
104.845
20
-82.45
11
104.875
21
-82.4804
0
LINE
8
BLACK
6
CONTINUOUS
10
104.875
20
-82.4804
11
104.944
21
-82.5146
0
LINE
8
BLACK
6
CONTINUOUS
10
104.944
20
-82.5146
11
105.152
21
-82.5146
0
LINE
8
BLACK
6
CONTINUOUS
10
105.152
20
-82.5146
11
105.283
21
-82.4708
0
LINE
8
BLACK
6
CONTINUOUS
10
105.283
20
-82.4708
11
105.309
21
-82.467
0
LINE
8
BLACK
6
CONTINUOUS
10
105.309
20
-82.467
11
105.357
21
-82.4859
0
LINE
8
BLACK
6
CONTINUOUS
10
105.357
20
-82.4859
11
105.381
21
-82.531
0
LINE
8
BLACK
6
CONTINUOUS
10
105.381
20
-82.531
11
105.371
21
-82.5813
0
LINE
8
BLACK
6
CONTINUOUS
10
105.371
20
-82.5813
11
105.33
21
-82.6132
0
LINE
8
BLACK
6
CONTINUOUS
10
105.33
20
-82.6132
11
105.188
21
-82.6608
0
LINE
8
BLACK
6
CONTINUOUS
10
105.188
20
-82.6608
11
105.165
21
-82.6641
0
LINE
8
BLACK
6
CONTINUOUS
10
105.165
20
-82.6641
11
105.164
21
-82.6646
0
LINE
8
BLACK
6
CONTINUOUS
10
105.164
20
-82.6646
11
104.926
21
-82.6646
0
LINE
8
BLACK
6
CONTINUOUS
10
104.926
20
-82.6646
11
104.9
21
-82.6601
0
LINE
8
BLACK
6
CONTINUOUS
10
104.9
20
-82.6601
11
104.897
21
-82.6572
0
LINE
8
BLACK
6
CONTINUOUS
10
104.897
20
-82.6572
11
104.892
21
-82.6567
0
LINE
8
BLACK
6
CONTINUOUS
10
104.892
20
-82.6567
11
104.797
21
-82.6091
0
LINE
8
BLACK
6
CONTINUOUS
10
104.797
20
-82.6091
11
104.779
21
-82.5957
0
LINE
8
BLACK
6
CONTINUOUS
10
104.779
20
-82.5957
11
104.778
21
-82.595
0
LINE
8
BLACK
6
CONTINUOUS
10
104.778
20
-82.595
11
104.73
21
-82.5474
0
LINE
8
BLACK
6
CONTINUOUS
10
104.73
20
-82.5474
11
104.717
21
-82.529
0
LINE
8
BLACK
6
CONTINUOUS
10
104.717
20
-82.529
11
104.716
21
-82.5279
0
LINE
8
BLACK
6
CONTINUOUS
10
104.716
20
-82.5279
11
104.668
21
-82.4327
0
LINE
8
BLACK
6
CONTINUOUS
10
104.668
20
-82.4327
11
104.661
21
-82.4077
0
LINE
8
BLACK
6
CONTINUOUS
10
104.661
20
-82.4077
11
104.662
21
-82.4034
0
LINE
8
BLACK
6
CONTINUOUS
10
104.662
20
-82.4034
11
104.66
21
-82.3991
0
LINE
8
BLACK
6
CONTINUOUS
10
104.66
20
-82.3991
11
104.66
21
-82.3039
0
LINE
8
BLACK
6
CONTINUOUS
10
104.66
20
-82.3039
11
104.665
21
-82.2783
0
LINE
8
BLACK
6
CONTINUOUS
10
104.665
20
-82.2783
11
104.668
21
-82.2748
0
LINE
8
BLACK
6
CONTINUOUS
10
104.668
20
-82.2748
11
104.668
21
-82.2704
0
LINE
8
BLACK
6
CONTINUOUS
10
104.668
20
-82.2704
11
104.716
21
-82.1751
0
LINE
8
BLACK
6
CONTINUOUS
10
104.716
20
-82.1751
11
104.729
21
-82.1571
0
LINE
8
BLACK
6
CONTINUOUS
10
104.729
20
-82.1571
11
104.73
21
-82.1556
0
LINE
8
BLACK
6
CONTINUOUS
10
104.73
20
-82.1556
11
104.778
21
-82.108
0
LINE
8
BLACK
6
CONTINUOUS
10
104.778
20
-82.108
11
104.796
21
-82.0952
0
LINE
8
BLACK
6
CONTINUOUS
10
104.796
20
-82.0952
11
104.797
21
-82.094
0
LINE
8
BLACK
6
CONTINUOUS
10
104.797
20
-82.094
11
104.892
21
-82.0463
0
LINE
8
BLACK
6
CONTINUOUS
10
104.892
20
-82.0463
11
104.905
21
-82.0427
0
LINE
8
BLACK
6
CONTINUOUS
10
104.905
20
-82.0427
11
104.908
21
-82.0407
0
LINE
8
BLACK
6
CONTINUOUS
10
104.908
20
-82.0407
11
105.09
21
-81.995
0
LINE
8
BLACK
6
CONTINUOUS
10
105.09
20
-81.995
11
105.167
21
-81.9566
0
LINE
8
BLACK
6
CONTINUOUS
10
105.167
20
-81.9566
11
105.198
21
-81.9261
0
LINE
8
BLACK
6
CONTINUOUS
10
105.198
20
-81.9261
11
105.232
21
-81.8576
0
LINE
8
BLACK
6
CONTINUOUS
10
105.232
20
-81.8576
11
105.232
21
-81.7978
0
LINE
8
BLACK
6
CONTINUOUS
10
105.232
20
-81.7978
11
105.198
21
-81.7293
0
LINE
8
BLACK
6
CONTINUOUS
10
105.198
20
-81.7293
11
105.167
21
-81.6989
0
LINE
8
BLACK
6
CONTINUOUS
10
105.167
20
-81.6989
11
105.099
21
-81.6646
0
LINE
8
BLACK
6
CONTINUOUS
10
105.099
20
-81.6646
11
104.89
21
-81.6646
0
LINE
8
BLACK
6
CONTINUOUS
10
104.89
20
-81.6646
11
104.759
21
-81.7084
0
LINE
8
BLACK
6
CONTINUOUS
10
104.759
20
-81.7084
11
104.733
21
-81.7122
0
LINE
8
BLACK
6
CONTINUOUS
10
104.733
20
-81.7122
11
104.686
21
-81.6934
0
LINE
8
BLACK
6
CONTINUOUS
10
104.686
20
-81.6934
11
104.661
21
-81.6482
0
LINE
8
BLACK
6
CONTINUOUS
10
104.661
20
-81.6482
11
104.671
21
-81.598
0
LINE
8
BLACK
6
CONTINUOUS
10
104.671
20
-81.598
11
104.712
21
-81.5661
0
LINE
8
BLACK
6
CONTINUOUS
10
104.712
20
-81.5661
11
104.854
21
-81.5185
0
LINE
8
BLACK
6
CONTINUOUS
10
104.854
20
-81.5185
11
104.877
21
-81.5152
0
LINE
8
BLACK
6
CONTINUOUS
10
104.877
20
-81.5152
11
104.878
21
-81.5146
0
LINE
8
BLACK
6
CONTINUOUS
10
104.878
20
-81.5146
11
105.116
21
-81.5146
0
LINE
8
BLACK
6
CONTINUOUS
10
105.116
20
-81.5146
11
105.142
21
-81.5191
0
LINE
8
BLACK
6
CONTINUOUS
10
105.936
20
-81.5414
11
105.953
21
-81.5896
0
LINE
8
BLACK
6
CONTINUOUS
10
105.953
20
-81.5896
11
105.953
21
-82.5146
0
LINE
8
BLACK
6
CONTINUOUS
10
105.953
20
-82.5146
11
106.164
21
-82.5146
0
LINE
8
BLACK
6
CONTINUOUS
10
106.164
20
-82.5146
11
106.19
21
-82.5191
0
LINE
8
BLACK
6
CONTINUOUS
10
106.19
20
-82.5191
11
106.229
21
-82.5521
0
LINE
8
BLACK
6
CONTINUOUS
10
106.229
20
-82.5521
11
106.238
21
-82.6026
0
LINE
8
BLACK
6
CONTINUOUS
10
106.238
20
-82.6026
11
106.212
21
-82.6471
0
LINE
8
BLACK
6
CONTINUOUS
10
106.212
20
-82.6471
11
106.164
21
-82.6646
0
LINE
8
BLACK
6
CONTINUOUS
10
106.164
20
-82.6646
11
105.592
21
-82.6646
0
LINE
8
BLACK
6
CONTINUOUS
10
105.592
20
-82.6646
11
105.567
21
-82.6601
0
LINE
8
BLACK
6
CONTINUOUS
10
105.567
20
-82.6601
11
105.528
21
-82.6271
0
LINE
8
BLACK
6
CONTINUOUS
10
105.528
20
-82.6271
11
105.519
21
-82.5766
0
LINE
8
BLACK
6
CONTINUOUS
10
105.519
20
-82.5766
11
105.544
21
-82.5322
0
LINE
8
BLACK
6
CONTINUOUS
10
105.544
20
-82.5322
11
105.592
21
-82.5146
0
LINE
8
BLACK
6
CONTINUOUS
10
105.592
20
-82.5146
11
105.803
21
-82.5146
0
LINE
8
BLACK
6
CONTINUOUS
10
105.803
20
-82.5146
11
105.803
21
-81.5896
0
LINE
8
BLACK
6
CONTINUOUS
10
105.803
20
-81.5896
11
105.808
21
-81.564
0
LINE
8
BLACK
6
CONTINUOUS
10
105.808
20
-81.564
11
105.841
21
-81.5247
0
LINE
8
BLACK
6
CONTINUOUS
10
105.841
20
-81.5247
11
105.891
21
-81.5158
0
LINE
8
BLACK
6
CONTINUOUS
10
105.891
20
-81.5158
11
105.936
21
-81.5414
0
LINE
8
BLACK
6
CONTINUOUS
10
103.658
20
-79.2554
11
103.675
21
-79.3036
0
LINE
8
BLACK
6
CONTINUOUS
10
103.675
20
-79.3036
11
103.675
21
-79.7048
0
LINE
8
BLACK
6
CONTINUOUS
10
103.675
20
-79.7048
11
103.981
21
-79.7048
0
LINE
8
BLACK
6
CONTINUOUS
10
103.981
20
-79.7048
11
104.007
21
-79.7093
0
LINE
8
BLACK
6
CONTINUOUS
10
104.007
20
-79.7093
11
104.011
21
-79.7122
0
LINE
8
BLACK
6
CONTINUOUS
10
104.011
20
-79.7122
11
104.015
21
-79.7127
0
LINE
8
BLACK
6
CONTINUOUS
10
104.015
20
-79.7127
11
104.11
21
-79.7603
0
LINE
8
BLACK
6
CONTINUOUS
10
104.11
20
-79.7603
11
104.128
21
-79.7737
0
LINE
8
BLACK
6
CONTINUOUS
10
104.128
20
-79.7737
11
104.13
21
-79.7744
0
LINE
8
BLACK
6
CONTINUOUS
10
104.13
20
-79.7744
11
104.177
21
-79.822
0
LINE
8
BLACK
6
CONTINUOUS
10
104.177
20
-79.822
11
104.19
21
-79.8404
0
LINE
8
BLACK
6
CONTINUOUS
10
104.19
20
-79.8404
11
104.191
21
-79.8415
0
LINE
8
BLACK
6
CONTINUOUS
10
104.191
20
-79.8415
11
104.239
21
-79.9367
0
LINE
8
BLACK
6
CONTINUOUS
10
104.239
20
-79.9367
11
104.246
21
-79.9617
0
LINE
8
BLACK
6
CONTINUOUS
10
104.246
20
-79.9617
11
104.245
21
-79.9661
0
LINE
8
BLACK
6
CONTINUOUS
10
104.245
20
-79.9661
11
104.247
21
-79.9703
0
LINE
8
BLACK
6
CONTINUOUS
10
104.247
20
-79.9703
11
104.247
21
-80.1131
0
LINE
8
BLACK
6
CONTINUOUS
10
104.247
20
-80.1131
11
104.242
21
-80.1388
0
LINE
8
BLACK
6
CONTINUOUS
10
104.242
20
-80.1388
11
104.239
21
-80.1422
0
LINE
8
BLACK
6
CONTINUOUS
10
104.239
20
-80.1422
11
104.239
21
-80.1467
0
LINE
8
BLACK
6
CONTINUOUS
10
104.239
20
-80.1467
11
104.191
21
-80.2419
0
LINE
8
BLACK
6
CONTINUOUS
10
104.191
20
-80.2419
11
104.178
21
-80.2599
0
LINE
8
BLACK
6
CONTINUOUS
10
104.178
20
-80.2599
11
104.177
21
-80.2614
0
LINE
8
BLACK
6
CONTINUOUS
10
104.177
20
-80.2614
11
104.13
21
-80.309
0
LINE
8
BLACK
6
CONTINUOUS
10
104.13
20
-80.309
11
104.111
21
-80.3219
0
LINE
8
BLACK
6
CONTINUOUS
10
104.111
20
-80.3219
11
104.11
21
-80.3231
0
LINE
8
BLACK
6
CONTINUOUS
10
104.11
20
-80.3231
11
104.015
21
-80.3707
0
LINE
8
BLACK
6
CONTINUOUS
10
104.015
20
-80.3707
11
103.99
21
-80.3781
0
LINE
8
BLACK
6
CONTINUOUS
10
103.99
20
-80.3781
11
103.986
21
-80.3771
0
LINE
8
BLACK
6
CONTINUOUS
10
103.986
20
-80.3771
11
103.981
21
-80.3786
0
LINE
8
BLACK
6
CONTINUOUS
10
103.981
20
-80.3786
11
103.6
21
-80.3786
0
LINE
8
BLACK
6
CONTINUOUS
10
103.6
20
-80.3786
11
103.591
21
-80.3769
0
LINE
8
BLACK
6
CONTINUOUS
10
103.591
20
-80.3769
11
103.587
21
-80.3775
0
LINE
8
BLACK
6
CONTINUOUS
10
103.587
20
-80.3775
11
103.585
21
-80.3758
0
LINE
8
BLACK
6
CONTINUOUS
10
103.585
20
-80.3758
11
103.575
21
-80.3741
0
LINE
8
BLACK
6
CONTINUOUS
10
103.575
20
-80.3741
11
103.56
21
-80.3616
0
LINE
8
BLACK
6
CONTINUOUS
10
103.56
20
-80.3616
11
103.543
21
-80.3518
0
LINE
8
BLACK
6
CONTINUOUS
10
103.543
20
-80.3518
11
103.541
21
-80.3455
0
LINE
8
BLACK
6
CONTINUOUS
10
103.541
20
-80.3455
11
103.536
21
-80.3411
0
LINE
8
BLACK
6
CONTINUOUS
10
103.536
20
-80.3411
11
103.532
21
-80.3219
0
LINE
8
BLACK
6
CONTINUOUS
10
103.532
20
-80.3219
11
103.525
21
-80.3036
0
LINE
8
BLACK
6
CONTINUOUS
10
103.525
20
-80.3036
11
103.525
21
-79.3036
0
LINE
8
BLACK
6
CONTINUOUS
10
103.525
20
-79.3036
11
103.53
21
-79.278
0
LINE
8
BLACK
6
CONTINUOUS
10
103.53
20
-79.278
11
103.563
21
-79.2387
0
LINE
8
BLACK
6
CONTINUOUS
10
103.563
20
-79.2387
11
103.614
21
-79.2298
0
LINE
8
BLACK
6
CONTINUOUS
10
103.614
20
-79.2298
11
103.658
21
-79.2554
0
LINE
8
BLACK
6
CONTINUOUS
10
103.675
20
-79.8548
11
103.675
21
-80.2286
0
LINE
8
BLACK
6
CONTINUOUS
10
103.675
20
-80.2286
11
103.964
21
-80.2286
0
LINE
8
BLACK
6
CONTINUOUS
10
103.964
20
-80.2286
11
104.032
21
-80.1944
0
LINE
8
BLACK
6
CONTINUOUS
10
104.032
20
-80.1944
11
104.063
21
-80.164
0
LINE
8
BLACK
6
CONTINUOUS
10
104.063
20
-80.164
11
104.097
21
-80.0954
0
LINE
8
BLACK
6
CONTINUOUS
10
104.097
20
-80.0954
11
104.097
21
-79.988
0
LINE
8
BLACK
6
CONTINUOUS
10
104.097
20
-79.988
11
104.063
21
-79.9195
0
LINE
8
BLACK
6
CONTINUOUS
10
104.063
20
-79.9195
11
104.032
21
-79.8891
0
LINE
8
BLACK
6
CONTINUOUS
10
104.032
20
-79.8891
11
103.964
21
-79.8548
0
LINE
8
BLACK
6
CONTINUOUS
10
103.964
20
-79.8548
11
103.675
21
-79.8548
0
LINE
8
BLACK
6
CONTINUOUS
10
106.245
20
-79.2331
11
106.284
21
-79.2661
0
LINE
8
BLACK
6
CONTINUOUS
10
106.284
20
-79.2661
11
106.293
21
-79.3166
0
LINE
8
BLACK
6
CONTINUOUS
10
106.293
20
-79.3166
11
106.268
21
-79.3611
0
LINE
8
BLACK
6
CONTINUOUS
10
106.268
20
-79.3611
11
106.22
21
-79.3786
0
LINE
8
BLACK
6
CONTINUOUS
10
106.22
20
-79.3786
11
105.818
21
-79.3786
0
LINE
8
BLACK
6
CONTINUOUS
10
105.818
20
-79.3786
11
105.818
21
-79.7524
0
LINE
8
BLACK
6
CONTINUOUS
10
105.818
20
-79.7524
11
106.077
21
-79.7524
0
LINE
8
BLACK
6
CONTINUOUS
10
106.077
20
-79.7524
11
106.102
21
-79.757
0
LINE
8
BLACK
6
CONTINUOUS
10
106.102
20
-79.757
11
106.142
21
-79.7899
0
LINE
8
BLACK
6
CONTINUOUS
10
106.142
20
-79.7899
11
106.151
21
-79.8405
0
LINE
8
BLACK
6
CONTINUOUS
10
106.151
20
-79.8405
11
106.125
21
-79.8849
0
LINE
8
BLACK
6
CONTINUOUS
10
106.125
20
-79.8849
11
106.077
21
-79.9024
0
LINE
8
BLACK
6
CONTINUOUS
10
106.077
20
-79.9024
11
105.818
21
-79.9024
0
LINE
8
BLACK
6
CONTINUOUS
10
105.818
20
-79.9024
11
105.818
21
-80.2286
0
LINE
8
BLACK
6
CONTINUOUS
10
105.818
20
-80.2286
11
106.22
21
-80.2286
0
LINE
8
BLACK
6
CONTINUOUS
10
106.22
20
-80.2286
11
106.245
21
-80.2331
0
LINE
8
BLACK
6
CONTINUOUS
10
106.245
20
-80.2331
11
106.284
21
-80.2661
0
LINE
8
BLACK
6
CONTINUOUS
10
106.284
20
-80.2661
11
106.293
21
-80.3166
0
LINE
8
BLACK
6
CONTINUOUS
10
106.293
20
-80.3166
11
106.268
21
-80.3611
0
LINE
8
BLACK
6
CONTINUOUS
10
106.268
20
-80.3611
11
106.22
21
-80.3786
0
LINE
8
BLACK
6
CONTINUOUS
10
106.22
20
-80.3786
11
105.743
21
-80.3786
0
LINE
8
BLACK
6
CONTINUOUS
10
105.743
20
-80.3786
11
105.734
21
-80.3769
0
LINE
8
BLACK
6
CONTINUOUS
10
105.734
20
-80.3769
11
105.73
21
-80.3775
0
LINE
8
BLACK
6
CONTINUOUS
10
105.73
20
-80.3775
11
105.727
21
-80.3758
0
LINE
8
BLACK
6
CONTINUOUS
10
105.727
20
-80.3758
11
105.718
21
-80.3741
0
LINE
8
BLACK
6
CONTINUOUS
10
105.718
20
-80.3741
11
105.703
21
-80.3616
0
LINE
8
BLACK
6
CONTINUOUS
10
105.703
20
-80.3616
11
105.686
21
-80.3518
0
LINE
8
BLACK
6
CONTINUOUS
10
105.686
20
-80.3518
11
105.684
21
-80.3455
0
LINE
8
BLACK
6
CONTINUOUS
10
105.684
20
-80.3455
11
105.678
21
-80.3411
0
LINE
8
BLACK
6
CONTINUOUS
10
105.678
20
-80.3411
11
105.675
21
-80.3219
0
LINE
8
BLACK
6
CONTINUOUS
10
105.675
20
-80.3219
11
105.668
21
-80.3036
0
LINE
8
BLACK
6
CONTINUOUS
10
105.668
20
-80.3036
11
105.668
21
-79.3036
0
LINE
8
BLACK
6
CONTINUOUS
10
105.668
20
-79.3036
11
105.67
21
-79.2939
0
LINE
8
BLACK
6
CONTINUOUS
10
105.67
20
-79.2939
11
105.669
21
-79.2906
0
LINE
8
BLACK
6
CONTINUOUS
10
105.669
20
-79.2906
11
105.671
21
-79.2877
0
LINE
8
BLACK
6
CONTINUOUS
10
105.671
20
-79.2877
11
105.673
21
-79.278
0
LINE
8
BLACK
6
CONTINUOUS
10
105.673
20
-79.278
11
105.685
21
-79.263
0
LINE
8
BLACK
6
CONTINUOUS
10
105.685
20
-79.263
11
105.695
21
-79.2462
0
LINE
8
BLACK
6
CONTINUOUS
10
105.695
20
-79.2462
11
105.701
21
-79.2439
0
LINE
8
BLACK
6
CONTINUOUS
10
105.701
20
-79.2439
11
105.706
21
-79.2387
0
LINE
8
BLACK
6
CONTINUOUS
10
105.706
20
-79.2387
11
105.725
21
-79.2353
0
LINE
8
BLACK
6
CONTINUOUS
10
105.725
20
-79.2353
11
105.743
21
-79.2286
0
LINE
8
BLACK
6
CONTINUOUS
10
105.743
20
-79.2286
11
106.22
21
-79.2286
0
LINE
8
BLACK
6
CONTINUOUS
10
106.22
20
-79.2286
11
106.245
21
-79.2331
0
LINE
8
BLACK
6
CONTINUOUS
10
107.226
20
-79.231
11
107.233
21
-79.2298
0
LINE
8
BLACK
6
CONTINUOUS
10
107.233
20
-79.2298
11
107.249
21
-79.2394
0
LINE
8
BLACK
6
CONTINUOUS
10
107.249
20
-79.2394
11
107.267
21
-79.246
0
LINE
8
BLACK
6
CONTINUOUS
10
107.267
20
-79.246
11
107.271
21
-79.2519
0
LINE
8
BLACK
6
CONTINUOUS
10
107.271
20
-79.2519
11
107.277
21
-79.2554
0
LINE
8
BLACK
6
CONTINUOUS
10
107.277
20
-79.2554
11
107.284
21
-79.2736
0
LINE
8
BLACK
6
CONTINUOUS
10
107.284
20
-79.2736
11
107.293
21
-79.2903
0
LINE
8
BLACK
6
CONTINUOUS
10
107.293
20
-79.2903
11
107.292
21
-79.2971
0
LINE
8
BLACK
6
CONTINUOUS
10
107.292
20
-79.2971
11
107.295
21
-79.3036
0
LINE
8
BLACK
6
CONTINUOUS
10
107.295
20
-79.3036
11
107.295
21
-80.3036
0
LINE
8
BLACK
6
CONTINUOUS
10
107.295
20
-80.3036
11
107.29
21
-80.3293
0
LINE
8
BLACK
6
CONTINUOUS
10
107.29
20
-80.3293
11
107.257
21
-80.3686
0
LINE
8
BLACK
6
CONTINUOUS
10
107.257
20
-80.3686
11
107.206
21
-80.3775
0
LINE
8
BLACK
6
CONTINUOUS
10
107.206
20
-80.3775
11
107.162
21
-80.3518
0
LINE
8
BLACK
6
CONTINUOUS
10
107.162
20
-80.3518
11
107.145
21
-80.3036
0
LINE
8
BLACK
6
CONTINUOUS
10
107.145
20
-80.3036
11
107.145
21
-79.586
0
LINE
8
BLACK
6
CONTINUOUS
10
107.145
20
-79.586
11
106.713
21
-80.3408
0
LINE
8
BLACK
6
CONTINUOUS
10
106.713
20
-80.3408
11
106.697
21
-80.3609
0
LINE
8
BLACK
6
CONTINUOUS
10
106.697
20
-80.3609
11
106.69
21
-80.3633
0
LINE
8
BLACK
6
CONTINUOUS
10
106.69
20
-80.3633
11
106.686
21
-80.3686
0
LINE
8
BLACK
6
CONTINUOUS
10
106.686
20
-80.3686
11
106.667
21
-80.3719
0
LINE
8
BLACK
6
CONTINUOUS
10
106.667
20
-80.3719
11
106.648
21
-80.3786
0
LINE
8
BLACK
6
CONTINUOUS
10
106.648
20
-80.3786
11
106.642
21
-80.3763
0
LINE
8
BLACK
6
CONTINUOUS
10
106.642
20
-80.3763
11
106.635
21
-80.3775
0
LINE
8
BLACK
6
CONTINUOUS
10
106.635
20
-80.3775
11
106.618
21
-80.3678
0
LINE
8
BLACK
6
CONTINUOUS
10
106.618
20
-80.3678
11
106.6
21
-80.3613
0
LINE
8
BLACK
6
CONTINUOUS
10
106.6
20
-80.3613
11
106.597
21
-80.3553
0
LINE
8
BLACK
6
CONTINUOUS
10
106.597
20
-80.3553
11
106.591
21
-80.3518
0
LINE
8
BLACK
6
CONTINUOUS
10
106.591
20
-80.3518
11
106.584
21
-80.3337
0
LINE
8
BLACK
6
CONTINUOUS
10
106.584
20
-80.3337
11
106.574
21
-80.317
0
LINE
8
BLACK
6
CONTINUOUS
10
106.574
20
-80.317
11
106.575
21
-80.3101
0
LINE
8
BLACK
6
CONTINUOUS
10
106.575
20
-80.3101
11
106.573
21
-80.3036
0
LINE
8
BLACK
6
CONTINUOUS
10
106.573
20
-80.3036
11
106.573
21
-79.3036
0
LINE
8
BLACK
6
CONTINUOUS
10
106.573
20
-79.3036
11
106.578
21
-79.278
0
LINE
8
BLACK
6
CONTINUOUS
10
106.578
20
-79.278
11
106.611
21
-79.2387
0
LINE
8
BLACK
6
CONTINUOUS
10
106.611
20
-79.2387
11
106.661
21
-79.2298
0
LINE
8
BLACK
6
CONTINUOUS
10
106.661
20
-79.2298
11
106.706
21
-79.2554
0
LINE
8
BLACK
6
CONTINUOUS
10
106.706
20
-79.2554
11
106.723
21
-79.3036
0
LINE
8
BLACK
6
CONTINUOUS
10
106.723
20
-79.3036
11
106.723
21
-80.0212
0
LINE
8
BLACK
6
CONTINUOUS
10
106.723
20
-80.0212
11
107.154
21
-79.2664
0
LINE
8
BLACK
6
CONTINUOUS
10
107.154
20
-79.2664
11
107.171
21
-79.2464
0
LINE
8
BLACK
6
CONTINUOUS
10
107.171
20
-79.2464
11
107.178
21
-79.244
0
LINE
8
BLACK
6
CONTINUOUS
10
107.178
20
-79.244
11
107.182
21
-79.2387
0
LINE
8
BLACK
6
CONTINUOUS
10
107.182
20
-79.2387
11
107.201
21
-79.2353
0
LINE
8
BLACK
6
CONTINUOUS
10
107.201
20
-79.2353
11
107.219
21
-79.2286
0
LINE
8
BLACK
6
CONTINUOUS
10
107.219
20
-79.2286
11
107.226
21
-79.231
0
LINE
8
BLACK
6
CONTINUOUS
10
105.138
20
-79.234
11
105.156
21
-79.2356
0
LINE
8
BLACK
6
CONTINUOUS
10
105.156
20
-79.2356
11
105.161
21
-79.2412
0
LINE
8
BLACK
6
CONTINUOUS
10
105.161
20
-79.2412
11
105.169
21
-79.2434
0
LINE
8
BLACK
6
CONTINUOUS
10
105.169
20
-79.2434
11
105.179
21
-79.2588
0
LINE
8
BLACK
6
CONTINUOUS
10
105.179
20
-79.2588
11
105.192
21
-79.2718
0
LINE
8
BLACK
6
CONTINUOUS
10
105.192
20
-79.2718
11
105.193
21
-79.2797
0
LINE
8
BLACK
6
CONTINUOUS
10
105.193
20
-79.2797
11
105.197
21
-79.2862
0
LINE
8
BLACK
6
CONTINUOUS
10
105.197
20
-79.2862
11
105.435
21
-80.2862
0
LINE
8
BLACK
6
CONTINUOUS
10
105.435
20
-80.2862
11
105.437
21
-80.3122
0
LINE
8
BLACK
6
CONTINUOUS
10
105.437
20
-80.3122
11
105.414
21
-80.3581
0
LINE
8
BLACK
6
CONTINUOUS
10
105.414
20
-80.3581
11
105.367
21
-80.3785
0
LINE
8
BLACK
6
CONTINUOUS
10
105.367
20
-80.3785
11
105.318
21
-80.3638
0
LINE
8
BLACK
6
CONTINUOUS
10
105.318
20
-80.3638
11
105.289
21
-80.321
0
LINE
8
BLACK
6
CONTINUOUS
10
105.289
20
-80.321
11
105.12
21
-79.6101
0
LINE
8
BLACK
6
CONTINUOUS
10
105.12
20
-79.6101
11
105.006
21
-80.0372
0
LINE
8
BLACK
6
CONTINUOUS
10
105.006
20
-80.0372
11
104.995
21
-80.0608
0
LINE
8
BLACK
6
CONTINUOUS
10
104.995
20
-80.0608
11
104.99
21
-80.0648
0
LINE
8
BLACK
6
CONTINUOUS
10
104.99
20
-80.0648
11
104.987
21
-80.071
0
LINE
8
BLACK
6
CONTINUOUS
10
104.987
20
-80.071
11
104.969
21
-80.0792
0
LINE
8
BLACK
6
CONTINUOUS
10
104.969
20
-80.0792
11
104.953
21
-80.0903
0
LINE
8
BLACK
6
CONTINUOUS
10
104.953
20
-80.0903
11
104.946
21
-80.0897
0
LINE
8
BLACK
6
CONTINUOUS
10
104.946
20
-80.0897
11
104.94
21
-80.0926
0
LINE
8
BLACK
6
CONTINUOUS
10
104.94
20
-80.0926
11
104.922
21
-80.0876
0
LINE
8
BLACK
6
CONTINUOUS
10
104.922
20
-80.0876
11
104.902
21
-80.0859
0
LINE
8
BLACK
6
CONTINUOUS
10
104.902
20
-80.0859
11
104.897
21
-80.0811
0
LINE
8
BLACK
6
CONTINUOUS
10
104.897
20
-80.0811
11
104.891
21
-80.0793
0
LINE
8
BLACK
6
CONTINUOUS
10
104.891
20
-80.0793
11
104.88
21
-80.0634
0
LINE
8
BLACK
6
CONTINUOUS
10
104.88
20
-80.0634
11
104.866
21
-80.0497
0
LINE
8
BLACK
6
CONTINUOUS
10
104.866
20
-80.0497
11
104.865
21
-80.0429
0
LINE
8
BLACK
6
CONTINUOUS
10
104.865
20
-80.0429
11
104.861
21
-80.0372
0
LINE
8
BLACK
6
CONTINUOUS
10
104.861
20
-80.0372
11
104.747
21
-79.6101
0
LINE
8
BLACK
6
CONTINUOUS
10
104.747
20
-79.6101
11
104.578
21
-80.321
0
LINE
8
BLACK
6
CONTINUOUS
10
104.578
20
-80.321
11
104.568
21
-80.3449
0
LINE
8
BLACK
6
CONTINUOUS
10
104.568
20
-80.3449
11
104.527
21
-80.3755
0
LINE
8
BLACK
6
CONTINUOUS
10
104.527
20
-80.3755
11
104.475
21
-80.3725
0
LINE
8
BLACK
6
CONTINUOUS
10
104.475
20
-80.3725
11
104.438
21
-80.3372
0
LINE
8
BLACK
6
CONTINUOUS
10
104.438
20
-80.3372
11
104.432
21
-80.2862
0
LINE
8
BLACK
6
CONTINUOUS
10
104.432
20
-80.2862
11
104.67
21
-79.2862
0
LINE
8
BLACK
6
CONTINUOUS
10
104.67
20
-79.2862
11
104.681
21
-79.2623
0
LINE
8
BLACK
6
CONTINUOUS
10
104.681
20
-79.2623
11
104.687
21
-79.2576
0
LINE
8
BLACK
6
CONTINUOUS
10
104.687
20
-79.2576
11
104.69
21
-79.2505
0
LINE
8
BLACK
6
CONTINUOUS
10
104.69
20
-79.2505
11
104.707
21
-79.2427
0
LINE
8
BLACK
6
CONTINUOUS
10
104.707
20
-79.2427
11
104.722
21
-79.2317
0
LINE
8
BLACK
6
CONTINUOUS
10
104.722
20
-79.2317
11
104.73
21
-79.2322
0
LINE
8
BLACK
6
CONTINUOUS
10
104.73
20
-79.2322
11
104.737
21
-79.2289
0
LINE
8
BLACK
6
CONTINUOUS
10
104.737
20
-79.2289
11
104.755
21
-79.2337
0
LINE
8
BLACK
6
CONTINUOUS
10
104.755
20
-79.2337
11
104.773
21
-79.2348
0
LINE
8
BLACK
6
CONTINUOUS
10
104.773
20
-79.2348
11
104.779
21
-79.2402
0
LINE
8
BLACK
6
CONTINUOUS
10
104.779
20
-79.2402
11
104.786
21
-79.2422
0
LINE
8
BLACK
6
CONTINUOUS
10
104.786
20
-79.2422
11
104.797
21
-79.2574
0
LINE
8
BLACK
6
CONTINUOUS
10
104.797
20
-79.2574
11
104.81
21
-79.27
0
LINE
8
BLACK
6
CONTINUOUS
10
104.81
20
-79.27
11
104.811
21
-79.2778
0
LINE
8
BLACK
6
CONTINUOUS
10
104.811
20
-79.2778
11
104.816
21
-79.2843
0
LINE
8
BLACK
6
CONTINUOUS
10
104.816
20
-79.2843
11
104.934
21
-79.7268
0
LINE
8
BLACK
6
CONTINUOUS
10
104.934
20
-79.7268
11
105.052
21
-79.2843
0
LINE
8
BLACK
6
CONTINUOUS
10
105.052
20
-79.2843
11
105.063
21
-79.2607
0
LINE
8
BLACK
6
CONTINUOUS
10
105.063
20
-79.2607
11
105.069
21
-79.2562
0
LINE
8
BLACK
6
CONTINUOUS
10
105.069
20
-79.2562
11
105.073
21
-79.2491
0
LINE
8
BLACK
6
CONTINUOUS
10
105.073
20
-79.2491
11
105.09
21
-79.2418
0
LINE
8
BLACK
6
CONTINUOUS
10
105.09
20
-79.2418
11
105.105
21
-79.2312
0
LINE
8
BLACK
6
CONTINUOUS
10
105.105
20
-79.2312
11
105.113
21
-79.2319
0
LINE
8
BLACK
6
CONTINUOUS
10
105.113
20
-79.2319
11
105.12
21
-79.2287
0
LINE
8
BLACK
6
CONTINUOUS
10
105.12
20
-79.2287
11
105.138
21
-79.234
0
LINE
8
BLACK
6
CONTINUOUS
10
118.116
20
-79.1373
11
118.118
21
-79.1372
0
LINE
8
BLACK
6
CONTINUOUS
10
118.118
20
-79.1372
11
118.261
21
-79.1848
0
LINE
8
BLACK
6
CONTINUOUS
10
118.261
20
-79.1848
11
118.283
21
-79.1973
0
LINE
8
BLACK
6
CONTINUOUS
10
118.283
20
-79.1973
11
118.286
21
-79.2011
0
LINE
8
BLACK
6
CONTINUOUS
10
118.286
20
-79.2011
11
118.29
21
-79.203
0
LINE
8
BLACK
6
CONTINUOUS
10
118.29
20
-79.203
11
118.385
21
-79.2982
0
LINE
8
BLACK
6
CONTINUOUS
10
118.385
20
-79.2982
11
118.398
21
-79.3166
0
LINE
8
BLACK
6
CONTINUOUS
10
118.398
20
-79.3166
11
118.399
21
-79.3177
0
LINE
8
BLACK
6
CONTINUOUS
10
118.399
20
-79.3177
11
118.447
21
-79.4129
0
LINE
8
BLACK
6
CONTINUOUS
10
118.447
20
-79.4129
11
118.45
21
-79.4253
0
LINE
8
BLACK
6
CONTINUOUS
10
118.45
20
-79.4253
11
118.452
21
-79.4283
0
LINE
8
BLACK
6
CONTINUOUS
10
118.452
20
-79.4283
11
118.5
21
-79.6188
0
LINE
8
BLACK
6
CONTINUOUS
10
118.5
20
-79.6188
11
118.501
21
-79.6337
0
LINE
8
BLACK
6
CONTINUOUS
10
118.501
20
-79.6337
11
118.502
21
-79.637
0
LINE
8
BLACK
6
CONTINUOUS
10
118.502
20
-79.637
11
118.502
21
-79.7798
0
LINE
8
BLACK
6
CONTINUOUS
10
118.502
20
-79.7798
11
118.5
21
-79.7946
0
LINE
8
BLACK
6
CONTINUOUS
10
118.5
20
-79.7946
11
118.5
21
-79.798
0
LINE
8
BLACK
6
CONTINUOUS
10
118.5
20
-79.798
11
118.452
21
-79.9885
0
LINE
8
BLACK
6
CONTINUOUS
10
118.452
20
-79.9885
11
118.447
21
-80.0003
0
LINE
8
BLACK
6
CONTINUOUS
10
118.447
20
-80.0003
11
118.447
21
-80.0038
0
LINE
8
BLACK
6
CONTINUOUS
10
118.447
20
-80.0038
11
118.399
21
-80.0991
0
LINE
8
BLACK
6
CONTINUOUS
10
118.399
20
-80.0991
11
118.386
21
-80.1171
0
LINE
8
BLACK
6
CONTINUOUS
10
118.386
20
-80.1171
11
118.385
21
-80.1186
0
LINE
8
BLACK
6
CONTINUOUS
10
118.385
20
-80.1186
11
118.29
21
-80.2138
0
LINE
8
BLACK
6
CONTINUOUS
10
118.29
20
-80.2138
11
118.269
21
-80.2287
0
LINE
8
BLACK
6
CONTINUOUS
10
118.269
20
-80.2287
11
118.264
21
-80.2291
0
LINE
8
BLACK
6
CONTINUOUS
10
118.264
20
-80.2291
11
118.261
21
-80.2319
0
LINE
8
BLACK
6
CONTINUOUS
10
118.261
20
-80.2319
11
118.118
21
-80.2795
0
LINE
8
BLACK
6
CONTINUOUS
10
118.118
20
-80.2795
11
118.096
21
-80.2828
0
LINE
8
BLACK
6
CONTINUOUS
10
118.096
20
-80.2828
11
118.094
21
-80.2834
0
LINE
8
BLACK
6
CONTINUOUS
10
118.094
20
-80.2834
11
117.999
21
-80.2834
0
LINE
8
BLACK
6
CONTINUOUS
10
117.999
20
-80.2834
11
117.977
21
-80.2795
0
LINE
8
BLACK
6
CONTINUOUS
10
117.977
20
-80.2795
11
117.975
21
-80.2795
0
LINE
8
BLACK
6
CONTINUOUS
10
117.975
20
-80.2795
11
117.832
21
-80.2319
0
LINE
8
BLACK
6
CONTINUOUS
10
117.832
20
-80.2319
11
117.809
21
-80.2195
0
LINE
8
BLACK
6
CONTINUOUS
10
117.809
20
-80.2195
11
117.807
21
-80.2157
0
LINE
8
BLACK
6
CONTINUOUS
10
117.807
20
-80.2157
11
117.803
21
-80.2138
0
LINE
8
BLACK
6
CONTINUOUS
10
117.803
20
-80.2138
11
117.755
21
-80.1662
0
LINE
8
BLACK
6
CONTINUOUS
10
117.755
20
-80.1662
11
117.753
21
-80.1624
0
LINE
8
BLACK
6
CONTINUOUS
10
117.753
20
-80.1624
11
117.751
21
-80.1614
0
LINE
8
BLACK
6
CONTINUOUS
10
117.751
20
-80.1614
11
117.75
21
-80.1583
0
LINE
8
BLACK
6
CONTINUOUS
10
117.75
20
-80.1583
11
117.74
21
-80.1448
0
LINE
8
BLACK
6
CONTINUOUS
10
117.74
20
-80.1448
11
117.739
21
-80.1285
0
LINE
8
BLACK
6
CONTINUOUS
10
117.739
20
-80.1285
11
117.733
21
-80.1131
0
LINE
8
BLACK
6
CONTINUOUS
10
117.733
20
-80.1131
11
117.733
21
-79.7798
0
LINE
8
BLACK
6
CONTINUOUS
10
117.733
20
-79.7798
11
117.735
21
-79.7701
0
LINE
8
BLACK
6
CONTINUOUS
10
117.735
20
-79.7701
11
117.734
21
-79.7668
0
LINE
8
BLACK
6
CONTINUOUS
10
117.734
20
-79.7668
11
117.736
21
-79.7639
0
LINE
8
BLACK
6
CONTINUOUS
10
117.736
20
-79.7639
11
117.738
21
-79.7542
0
LINE
8
BLACK
6
CONTINUOUS
10
117.738
20
-79.7542
11
117.75
21
-79.7392
0
LINE
8
BLACK
6
CONTINUOUS
10
117.75
20
-79.7392
11
117.76
21
-79.7224
0
LINE
8
BLACK
6
CONTINUOUS
10
117.76
20
-79.7224
11
117.766
21
-79.72
0
LINE
8
BLACK
6
CONTINUOUS
10
117.766
20
-79.72
11
117.771
21
-79.7149
0
LINE
8
BLACK
6
CONTINUOUS
10
117.771
20
-79.7149
11
117.79
21
-79.7115
0
LINE
8
BLACK
6
CONTINUOUS
10
117.79
20
-79.7115
11
117.808
21
-79.7048
0
LINE
8
BLACK
6
CONTINUOUS
10
117.808
20
-79.7048
11
117.999
21
-79.7048
0
LINE
8
BLACK
6
CONTINUOUS
10
117.999
20
-79.7048
11
118.024
21
-79.7093
0
LINE
8
BLACK
6
CONTINUOUS
10
118.024
20
-79.7093
11
118.064
21
-79.7423
0
LINE
8
BLACK
6
CONTINUOUS
10
118.064
20
-79.7423
11
118.073
21
-79.7928
0
LINE
8
BLACK
6
CONTINUOUS
10
118.073
20
-79.7928
11
118.047
21
-79.8373
0
LINE
8
BLACK
6
CONTINUOUS
10
118.047
20
-79.8373
11
117.999
21
-79.8548
0
LINE
8
BLACK
6
CONTINUOUS
10
117.999
20
-79.8548
11
117.883
21
-79.8548
0
LINE
8
BLACK
6
CONTINUOUS
10
117.883
20
-79.8548
11
117.883
21
-80.0821
0
LINE
8
BLACK
6
CONTINUOUS
10
117.883
20
-80.0821
11
117.896
21
-80.0952
0
LINE
8
BLACK
6
CONTINUOUS
10
117.896
20
-80.0952
11
118.011
21
-80.1334
0
LINE
8
BLACK
6
CONTINUOUS
10
118.011
20
-80.1334
11
118.082
21
-80.1334
0
LINE
8
BLACK
6
CONTINUOUS
10
118.082
20
-80.1334
11
118.196
21
-80.0952
0
LINE
8
BLACK
6
CONTINUOUS
10
118.196
20
-80.0952
11
118.27
21
-80.0211
0
LINE
8
BLACK
6
CONTINUOUS
10
118.27
20
-80.0211
11
118.309
21
-79.9441
0
LINE
8
BLACK
6
CONTINUOUS
10
118.309
20
-79.9441
11
118.352
21
-79.7706
0
LINE
8
BLACK
6
CONTINUOUS
10
118.352
20
-79.7706
11
118.352
21
-79.6462
0
LINE
8
BLACK
6
CONTINUOUS
10
118.352
20
-79.6462
11
118.309
21
-79.4727
0
LINE
8
BLACK
6
CONTINUOUS
10
118.309
20
-79.4727
11
118.27
21
-79.3957
0
LINE
8
BLACK
6
CONTINUOUS
10
118.27
20
-79.3957
11
118.196
21
-79.3216
0
LINE
8
BLACK
6
CONTINUOUS
10
118.196
20
-79.3216
11
118.082
21
-79.2834
0
LINE
8
BLACK
6
CONTINUOUS
10
118.082
20
-79.2834
11
117.969
21
-79.2834
0
LINE
8
BLACK
6
CONTINUOUS
10
117.969
20
-79.2834
11
117.889
21
-79.3231
0
LINE
8
BLACK
6
CONTINUOUS
10
117.889
20
-79.3231
11
117.864
21
-79.3305
0
LINE
8
BLACK
6
CONTINUOUS
10
117.864
20
-79.3305
11
117.815
21
-79.3186
0
LINE
8
BLACK
6
CONTINUOUS
10
117.815
20
-79.3186
11
117.784
21
-79.2774
0
LINE
8
BLACK
6
CONTINUOUS
10
117.784
20
-79.2774
11
117.787
21
-79.2262
0
LINE
8
BLACK
6
CONTINUOUS
10
117.787
20
-79.2262
11
117.822
21
-79.1889
0
LINE
8
BLACK
6
CONTINUOUS
10
117.822
20
-79.1889
11
117.918
21
-79.1413
0
LINE
8
BLACK
6
CONTINUOUS
10
117.918
20
-79.1413
11
117.943
21
-79.1339
0
LINE
8
BLACK
6
CONTINUOUS
10
117.943
20
-79.1339
11
117.947
21
-79.1349
0
LINE
8
BLACK
6
CONTINUOUS
10
117.947
20
-79.1349
11
117.951
21
-79.1334
0
LINE
8
BLACK
6
CONTINUOUS
10
117.951
20
-79.1334
11
118.094
21
-79.1334
0
LINE
8
BLACK
6
CONTINUOUS
10
118.094
20
-79.1334
11
118.116
21
-79.1373
0
LINE
8
BLACK
6
CONTINUOUS
10
116.342
20
-79.1351
11
116.345
21
-79.1345
0
LINE
8
BLACK
6
CONTINUOUS
10
116.345
20
-79.1345
11
116.348
21
-79.1362
0
LINE
8
BLACK
6
CONTINUOUS
10
116.348
20
-79.1362
11
116.358
21
-79.1379
0
LINE
8
BLACK
6
CONTINUOUS
10
116.358
20
-79.1379
11
116.373
21
-79.1504
0
LINE
8
BLACK
6
CONTINUOUS
10
116.373
20
-79.1504
11
116.39
21
-79.1602
0
LINE
8
BLACK
6
CONTINUOUS
10
116.39
20
-79.1602
11
116.392
21
-79.1665
0
LINE
8
BLACK
6
CONTINUOUS
10
116.392
20
-79.1665
11
116.397
21
-79.1709
0
LINE
8
BLACK
6
CONTINUOUS
10
116.397
20
-79.1709
11
116.4
21
-79.1901
0
LINE
8
BLACK
6
CONTINUOUS
10
116.4
20
-79.1901
11
116.407
21
-79.2084
0
LINE
8
BLACK
6
CONTINUOUS
10
116.407
20
-79.2084
11
116.407
21
-80.2084
0
LINE
8
BLACK
6
CONTINUOUS
10
116.407
20
-80.2084
11
116.405
21
-80.2181
0
LINE
8
BLACK
6
CONTINUOUS
10
116.405
20
-80.2181
11
116.406
21
-80.2214
0
LINE
8
BLACK
6
CONTINUOUS
10
116.406
20
-80.2214
11
116.404
21
-80.2243
0
LINE
8
BLACK
6
CONTINUOUS
10
116.404
20
-80.2243
11
116.403
21
-80.234
0
LINE
8
BLACK
6
CONTINUOUS
10
116.403
20
-80.234
11
116.39
21
-80.249
0
LINE
8
BLACK
6
CONTINUOUS
10
116.39
20
-80.249
11
116.38
21
-80.2658
0
LINE
8
BLACK
6
CONTINUOUS
10
116.38
20
-80.2658
11
116.374
21
-80.2681
0
LINE
8
BLACK
6
CONTINUOUS
10
116.374
20
-80.2681
11
116.37
21
-80.2733
0
LINE
8
BLACK
6
CONTINUOUS
10
116.37
20
-80.2733
11
116.35
21
-80.2767
0
LINE
8
BLACK
6
CONTINUOUS
10
116.35
20
-80.2767
11
116.332
21
-80.2834
0
LINE
8
BLACK
6
CONTINUOUS
10
116.332
20
-80.2834
11
116.094
21
-80.2834
0
LINE
8
BLACK
6
CONTINUOUS
10
116.094
20
-80.2834
11
116.072
21
-80.2795
0
LINE
8
BLACK
6
CONTINUOUS
10
116.072
20
-80.2795
11
116.07
21
-80.2795
0
LINE
8
BLACK
6
CONTINUOUS
10
116.07
20
-80.2795
11
115.927
21
-80.2319
0
LINE
8
BLACK
6
CONTINUOUS
10
115.927
20
-80.2319
11
115.905
21
-80.2195
0
LINE
8
BLACK
6
CONTINUOUS
10
115.905
20
-80.2195
11
115.902
21
-80.2157
0
LINE
8
BLACK
6
CONTINUOUS
10
115.902
20
-80.2157
11
115.898
21
-80.2138
0
LINE
8
BLACK
6
CONTINUOUS
10
115.898
20
-80.2138
11
115.803
21
-80.1186
0
LINE
8
BLACK
6
CONTINUOUS
10
115.803
20
-80.1186
11
115.79
21
-80.1002
0
LINE
8
BLACK
6
CONTINUOUS
10
115.79
20
-80.1002
11
115.789
21
-80.0991
0
LINE
8
BLACK
6
CONTINUOUS
10
115.789
20
-80.0991
11
115.741
21
-80.0038
0
LINE
8
BLACK
6
CONTINUOUS
10
115.741
20
-80.0038
11
115.738
21
-79.9914
0
LINE
8
BLACK
6
CONTINUOUS
10
115.738
20
-79.9914
11
115.736
21
-79.9885
0
LINE
8
BLACK
6
CONTINUOUS
10
115.736
20
-79.9885
11
115.688
21
-79.798
0
LINE
8
BLACK
6
CONTINUOUS
10
115.688
20
-79.798
11
115.687
21
-79.7831
0
LINE
8
BLACK
6
CONTINUOUS
10
115.687
20
-79.7831
11
115.686
21
-79.7798
0
LINE
8
BLACK
6
CONTINUOUS
10
115.686
20
-79.7798
11
115.686
21
-79.637
0
LINE
8
BLACK
6
CONTINUOUS
10
115.686
20
-79.637
11
115.688
21
-79.6222
0
LINE
8
BLACK
6
CONTINUOUS
10
115.688
20
-79.6222
11
115.688
21
-79.6188
0
LINE
8
BLACK
6
CONTINUOUS
10
115.688
20
-79.6188
11
115.736
21
-79.4283
0
LINE
8
BLACK
6
CONTINUOUS
10
115.736
20
-79.4283
11
115.741
21
-79.4165
0
LINE
8
BLACK
6
CONTINUOUS
10
115.741
20
-79.4165
11
115.741
21
-79.4129
0
LINE
8
BLACK
6
CONTINUOUS
10
115.741
20
-79.4129
11
115.789
21
-79.3177
0
LINE
8
BLACK
6
CONTINUOUS
10
115.789
20
-79.3177
11
115.802
21
-79.2997
0
LINE
8
BLACK
6
CONTINUOUS
10
115.802
20
-79.2997
11
115.803
21
-79.2982
0
LINE
8
BLACK
6
CONTINUOUS
10
115.803
20
-79.2982
11
115.898
21
-79.203
0
LINE
8
BLACK
6
CONTINUOUS
10
115.898
20
-79.203
11
115.919
21
-79.188
0
LINE
8
BLACK
6
CONTINUOUS
10
115.919
20
-79.188
11
115.924
21
-79.1876
0
LINE
8
BLACK
6
CONTINUOUS
10
115.924
20
-79.1876
11
115.927
21
-79.1848
0
LINE
8
BLACK
6
CONTINUOUS
10
115.927
20
-79.1848
11
116.07
21
-79.1372
0
LINE
8
BLACK
6
CONTINUOUS
10
116.07
20
-79.1372
11
116.092
21
-79.1339
0
LINE
8
BLACK
6
CONTINUOUS
10
116.092
20
-79.1339
11
116.094
21
-79.1334
0
LINE
8
BLACK
6
CONTINUOUS
10
116.094
20
-79.1334
11
116.332
21
-79.1334
0
LINE
8
BLACK
6
CONTINUOUS
10
116.332
20
-79.1334
11
116.342
21
-79.1351
0
LINE
8
BLACK
6
CONTINUOUS
10
116.106
20
-79.2834
11
115.992
21
-79.3216
0
LINE
8
BLACK
6
CONTINUOUS
10
115.992
20
-79.3216
11
115.918
21
-79.3957
0
LINE
8
BLACK
6
CONTINUOUS
10
115.918
20
-79.3957
11
115.879
21
-79.4727
0
LINE
8
BLACK
6
CONTINUOUS
10
115.879
20
-79.4727
11
115.836
21
-79.6462
0
LINE
8
BLACK
6
CONTINUOUS
10
115.836
20
-79.6462
11
115.836
21
-79.7706
0
LINE
8
BLACK
6
CONTINUOUS
10
115.836
20
-79.7706
11
115.879
21
-79.9441
0
LINE
8
BLACK
6
CONTINUOUS
10
115.879
20
-79.9441
11
115.918
21
-80.0211
0
LINE
8
BLACK
6
CONTINUOUS
10
115.918
20
-80.0211
11
115.992
21
-80.0952
0
LINE
8
BLACK
6
CONTINUOUS
10
115.992
20
-80.0952
11
116.106
21
-80.1334
0
LINE
8
BLACK
6
CONTINUOUS
10
116.106
20
-80.1334
11
116.257
21
-80.1334
0
LINE
8
BLACK
6
CONTINUOUS
10
116.257
20
-80.1334
11
116.257
21
-79.2834
0
LINE
8
BLACK
6
CONTINUOUS
10
116.257
20
-79.2834
11
116.106
21
-79.2834
0
LINE
8
BLACK
6
CONTINUOUS
10
117.386
20
-79.1357
11
117.393
21
-79.1345
0
LINE
8
BLACK
6
CONTINUOUS
10
117.393
20
-79.1345
11
117.409
21
-79.1442
0
LINE
8
BLACK
6
CONTINUOUS
10
117.409
20
-79.1442
11
117.428
21
-79.1507
0
LINE
8
BLACK
6
CONTINUOUS
10
117.428
20
-79.1507
11
117.431
21
-79.1567
0
LINE
8
BLACK
6
CONTINUOUS
10
117.431
20
-79.1567
11
117.437
21
-79.1602
0
LINE
8
BLACK
6
CONTINUOUS
10
117.437
20
-79.1602
11
117.444
21
-79.1783
0
LINE
8
BLACK
6
CONTINUOUS
10
117.444
20
-79.1783
11
117.454
21
-79.195
0
LINE
8
BLACK
6
CONTINUOUS
10
117.454
20
-79.195
11
117.452
21
-79.2019
0
LINE
8
BLACK
6
CONTINUOUS
10
117.452
20
-79.2019
11
117.455
21
-79.2084
0
LINE
8
BLACK
6
CONTINUOUS
10
117.455
20
-79.2084
11
117.455
21
-80.2084
0
LINE
8
BLACK
6
CONTINUOUS
10
117.455
20
-80.2084
11
117.45
21
-80.234
0
LINE
8
BLACK
6
CONTINUOUS
10
117.45
20
-80.234
11
117.417
21
-80.2733
0
LINE
8
BLACK
6
CONTINUOUS
10
117.417
20
-80.2733
11
117.367
21
-80.2822
0
LINE
8
BLACK
6
CONTINUOUS
10
117.367
20
-80.2822
11
117.322
21
-80.2566
0
LINE
8
BLACK
6
CONTINUOUS
10
117.322
20
-80.2566
11
117.305
21
-80.2084
0
LINE
8
BLACK
6
CONTINUOUS
10
117.305
20
-80.2084
11
117.305
21
-79.4908
0
LINE
8
BLACK
6
CONTINUOUS
10
117.305
20
-79.4908
11
116.873
21
-80.2456
0
LINE
8
BLACK
6
CONTINUOUS
10
116.873
20
-80.2456
11
116.857
21
-80.2656
0
LINE
8
BLACK
6
CONTINUOUS
10
116.857
20
-80.2656
11
116.85
21
-80.268
0
LINE
8
BLACK
6
CONTINUOUS
10
116.85
20
-80.268
11
116.846
21
-80.2733
0
LINE
8
BLACK
6
CONTINUOUS
10
116.846
20
-80.2733
11
116.827
21
-80.2767
0
LINE
8
BLACK
6
CONTINUOUS
10
116.827
20
-80.2767
11
116.809
21
-80.2834
0
LINE
8
BLACK
6
CONTINUOUS
10
116.809
20
-80.2834
11
116.802
21
-80.281
0
LINE
8
BLACK
6
CONTINUOUS
10
116.802
20
-80.281
11
116.795
21
-80.2822
0
LINE
8
BLACK
6
CONTINUOUS
10
116.795
20
-80.2822
11
116.779
21
-80.2726
0
LINE
8
BLACK
6
CONTINUOUS
10
116.779
20
-80.2726
11
116.76
21
-80.266
0
LINE
8
BLACK
6
CONTINUOUS
10
116.76
20
-80.266
11
116.757
21
-80.2601
0
LINE
8
BLACK
6
CONTINUOUS
10
116.757
20
-80.2601
11
116.751
21
-80.2566
0
LINE
8
BLACK
6
CONTINUOUS
10
116.751
20
-80.2566
11
116.744
21
-80.2384
0
LINE
8
BLACK
6
CONTINUOUS
10
116.744
20
-80.2384
11
116.734
21
-80.2217
0
LINE
8
BLACK
6
CONTINUOUS
10
116.734
20
-80.2217
11
116.736
21
-80.2149
0
LINE
8
BLACK
6
CONTINUOUS
10
116.736
20
-80.2149
11
116.733
21
-80.2084
0
LINE
8
BLACK
6
CONTINUOUS
10
116.733
20
-80.2084
11
116.733
21
-79.2084
0
LINE
8
BLACK
6
CONTINUOUS
10
116.733
20
-79.2084
11
116.738
21
-79.1827
0
LINE
8
BLACK
6
CONTINUOUS
10
116.738
20
-79.1827
11
116.771
21
-79.1434
0
LINE
8
BLACK
6
CONTINUOUS
10
116.771
20
-79.1434
11
116.821
21
-79.1345
0
LINE
8
BLACK
6
CONTINUOUS
10
116.821
20
-79.1345
11
116.866
21
-79.1602
0
LINE
8
BLACK
6
CONTINUOUS
10
116.866
20
-79.1602
11
116.883
21
-79.2084
0
LINE
8
BLACK
6
CONTINUOUS
10
116.883
20
-79.2084
11
116.883
21
-79.926
0
LINE
8
BLACK
6
CONTINUOUS
10
116.883
20
-79.926
11
117.315
21
-79.1712
0
LINE
8
BLACK
6
CONTINUOUS
10
117.315
20
-79.1712
11
117.331
21
-79.1511
0
LINE
8
BLACK
6
CONTINUOUS
10
117.331
20
-79.1511
11
117.338
21
-79.1487
0
LINE
8
BLACK
6
CONTINUOUS
10
117.338
20
-79.1487
11
117.342
21
-79.1434
0
LINE
8
BLACK
6
CONTINUOUS
10
117.342
20
-79.1434
11
117.361
21
-79.1401
0
LINE
8
BLACK
6
CONTINUOUS
10
117.361
20
-79.1401
11
117.379
21
-79.1334
0
LINE
8
BLACK
6
CONTINUOUS
10
117.379
20
-79.1334
11
117.386
21
-79.1357
  0
ENDSEC
  0
EOF
